<?xml version="1.0" encoding="utf-8" standalone="no"?>
<!DOCTYPE svg PUBLIC "-//W3C//DTD SVG 1.1//EN"
  "http://www.w3.org/Graphics/SVG/1.1/DTD/svg11.dtd">
<svg xmlns:xlink="http://www.w3.org/1999/xlink" width="703.366555pt" height="228.004626pt" viewBox="0 0 703.366555 228.004626" xmlns="http://www.w3.org/2000/svg" version="1.1">
 <metadata>
  <rdf:RDF xmlns:dc="http://purl.org/dc/elements/1.1/" xmlns:cc="http://creativecommons.org/ns#" xmlns:rdf="http://www.w3.org/1999/02/22-rdf-syntax-ns#">
   <cc:Work>
    <dc:type rdf:resource="http://purl.org/dc/dcmitype/StillImage"/>
    <dc:date>2025-12-21T20:39:35.138954</dc:date>
    <dc:format>image/svg+xml</dc:format>
    <dc:creator>
     <cc:Agent>
      <dc:title>Matplotlib v3.10.6, https://matplotlib.org/</dc:title>
     </cc:Agent>
    </dc:creator>
   </cc:Work>
  </rdf:RDF>
 </metadata>
 <defs>
  <style type="text/css">*{stroke-linejoin: round; stroke-linecap: butt}</style>
 </defs>
 <g id="figure_1">
  <g id="patch_1">
   <path d="M 0 228.004626 
L 703.366555 228.004626 
L 703.366555 0 
L 0 0 
z
" style="fill: #ffffff"/>
  </g>
  <g id="axes_1">
   <g id="patch_2">
    <path d="M 22.003987 165.083515 
L 218.945163 165.083515 
L 218.945163 26.483515 
L 22.003987 26.483515 
z
" style="fill: #ffffff"/>
   </g>
   <g id="matplotlib.axis_1">
    <g id="xtick_1">
     <g id="line2d_1">
      <path d="M 30.955859 165.083515 
L 30.955859 26.483515 
" clip-path="url(#p4f54a3f6bd)" style="fill: none; stroke: #b0b0b0; stroke-width: 0.8; stroke-linecap: square"/>
     </g>
     <g id="line2d_2">
      <defs>
       <path id="m8e8873ea1f" d="M 0 0 
L 0 3.5 
" style="stroke: #000000; stroke-width: 0.8"/>
      </defs>
      <g>
       <use xlink:href="#m8e8873ea1f" x="30.955859" y="165.083515" style="stroke: #000000; stroke-width: 0.8"/>
      </g>
     </g>
     <g id="text_1">
      <!-- $\mathdefault{0}$ -->
      <g transform="translate(27.053865 183.153103) scale(0.16 -0.16)">
       <defs>
        <path id="CMR17-30" d="M 2688 2038 
C 2688 2430 2682 3099 2413 3613 
C 2176 4063 1798 4224 1466 4224 
C 1158 4224 768 4082 525 3620 
C 269 3137 243 2539 243 2038 
C 243 1671 250 1112 448 623 
C 723 -39 1216 -128 1466 -128 
C 1760 -128 2208 -7 2470 604 
C 2662 1048 2688 1568 2688 2038 
z
M 1466 -26 
C 1056 -26 813 328 723 816 
C 653 1196 653 1749 653 2109 
C 653 2604 653 3015 736 3407 
C 858 3954 1216 4121 1466 4121 
C 1728 4121 2067 3947 2189 3420 
C 2272 3054 2278 2623 2278 2109 
C 2278 1691 2278 1176 2202 797 
C 2067 96 1690 -26 1466 -26 
z
" transform="scale(0.015625)"/>
       </defs>
       <use xlink:href="#CMR17-30" transform="scale(0.996264)"/>
      </g>
     </g>
    </g>
    <g id="xtick_2">
     <g id="line2d_3">
      <path d="M 121.378805 165.083515 
L 121.378805 26.483515 
" clip-path="url(#p4f54a3f6bd)" style="fill: none; stroke: #b0b0b0; stroke-width: 0.8; stroke-linecap: square"/>
     </g>
     <g id="line2d_4">
      <g>
       <use xlink:href="#m8e8873ea1f" x="121.378805" y="165.083515" style="stroke: #000000; stroke-width: 0.8"/>
      </g>
     </g>
     <g id="text_2">
      <!-- $\mathdefault{50}$ -->
      <g transform="translate(113.574818 183.153103) scale(0.16 -0.16)">
       <defs>
        <path id="CMR17-35" d="M 730 3750 
C 794 3724 1056 3641 1325 3641 
C 1920 3641 2246 3961 2432 4140 
C 2432 4191 2432 4224 2394 4224 
C 2387 4224 2374 4224 2323 4198 
C 2099 4102 1837 4032 1517 4032 
C 1325 4032 1037 4055 723 4191 
C 653 4224 640 4224 634 4224 
C 602 4224 595 4217 595 4090 
L 595 2231 
C 595 2113 595 2080 659 2080 
C 691 2080 704 2093 736 2139 
C 941 2435 1222 2560 1542 2560 
C 1766 2560 2246 2415 2246 1293 
C 2246 1087 2246 716 2054 422 
C 1894 159 1645 25 1370 25 
C 947 25 518 319 403 812 
C 429 806 480 793 506 793 
C 589 793 749 838 749 1036 
C 749 1209 627 1280 506 1280 
C 358 1280 262 1190 262 1011 
C 262 454 704 -128 1382 -128 
C 2042 -128 2669 441 2669 1267 
C 2669 2054 2170 2662 1549 2662 
C 1222 2662 947 2540 730 2304 
L 730 3750 
z
" transform="scale(0.015625)"/>
       </defs>
       <use xlink:href="#CMR17-35" transform="scale(0.996264)"/>
       <use xlink:href="#CMR17-30" transform="translate(45.690477 0) scale(0.996264)"/>
      </g>
     </g>
    </g>
    <g id="xtick_3">
     <g id="line2d_5">
      <path d="M 211.801751 165.083515 
L 211.801751 26.483515 
" clip-path="url(#p4f54a3f6bd)" style="fill: none; stroke: #b0b0b0; stroke-width: 0.8; stroke-linecap: square"/>
     </g>
     <g id="line2d_6">
      <g>
       <use xlink:href="#m8e8873ea1f" x="211.801751" y="165.083515" style="stroke: #000000; stroke-width: 0.8"/>
      </g>
     </g>
     <g id="text_3">
      <!-- $\mathdefault{100}$ -->
      <g transform="translate(200.09577 183.153103) scale(0.16 -0.16)">
       <defs>
        <path id="CMR17-31" d="M 1702 4083 
C 1702 4217 1696 4224 1606 4224 
C 1357 3927 979 3833 621 3820 
C 602 3820 570 3820 563 3808 
C 557 3795 557 3782 557 3648 
C 755 3648 1088 3686 1344 3839 
L 1344 467 
C 1344 243 1331 166 781 166 
L 589 166 
L 589 0 
C 896 6 1216 12 1523 12 
C 1830 12 2150 6 2458 0 
L 2458 166 
L 2266 166 
C 1715 166 1702 236 1702 467 
L 1702 4083 
z
" transform="scale(0.015625)"/>
       </defs>
       <use xlink:href="#CMR17-31" transform="scale(0.996264)"/>
       <use xlink:href="#CMR17-30" transform="translate(45.690477 0) scale(0.996264)"/>
       <use xlink:href="#CMR17-30" transform="translate(91.380954 0) scale(0.996264)"/>
      </g>
     </g>
    </g>
    <g id="text_4">
     <!-- Spectre théorique -->
     <g transform="translate(63.503654 201.322168) scale(0.16 -0.16)">
      <defs>
       <path id="CMSS17-53" d="M 2797 4230 
C 2515 4396 2208 4544 1690 4544 
C 864 4544 333 3934 333 3309 
C 333 3064 403 2787 653 2504 
C 902 2220 1184 2143 1542 2053 
C 1690 2014 1939 1943 1984 1924 
C 2342 1782 2515 1454 2515 1144 
C 2515 738 2202 307 1645 307 
C 1453 307 890 339 358 829 
L 269 320 
C 794 -64 1363 -128 1651 -128 
C 2438 -128 3002 494 3002 1202 
C 3002 1460 2925 1789 2656 2092 
C 2394 2381 2163 2446 1638 2588 
C 1338 2665 1146 2717 986 2916 
C 877 3058 819 3193 819 3367 
C 819 3728 1126 4121 1690 4121 
C 1971 4121 2336 4063 2707 3715 
L 2797 4230 
z
" transform="scale(0.015625)"/>
       <path id="CMSS17-70" d="M 966 275 
C 1178 70 1466 -64 1773 -64 
C 2368 -64 2880 553 2880 1382 
C 2880 2147 2496 2816 1946 2816 
C 1626 2816 1242 2700 954 2470 
L 954 2764 
L 480 2764 
L 480 -1280 
L 966 -1280 
L 966 275 
z
M 966 2088 
C 1018 2166 1235 2412 1587 2412 
C 2035 2412 2394 1946 2394 1382 
C 2394 741 1958 326 1530 326 
C 1402 326 1267 358 1139 468 
C 966 624 966 721 966 812 
L 966 2088 
z
" transform="scale(0.015625)"/>
       <path id="CMSS17-65" d="M 2502 1375 
C 2502 1587 2490 2001 2285 2347 
C 2061 2713 1696 2816 1421 2816 
C 755 2816 192 2184 192 1363 
C 192 579 774 -64 1510 -64 
C 1798 -64 2150 19 2470 249 
C 2470 275 2458 414 2451 421 
C 2451 433 2432 629 2432 655 
C 2125 408 1773 326 1517 326 
C 1107 326 666 667 646 1375 
L 2502 1375 
z
M 698 1728 
C 781 2086 1062 2425 1421 2425 
C 1517 2425 1965 2412 2080 1728 
L 698 1728 
z
" transform="scale(0.015625)"/>
       <path id="CMSS17-63" d="M 2464 2540 
C 2464 2585 2170 2713 2093 2739 
C 1882 2816 1613 2816 1542 2816 
C 710 2816 211 2092 211 1363 
C 211 595 768 -64 1517 -64 
C 1946 -64 2253 76 2502 243 
L 2464 665 
C 2189 454 1869 339 1523 339 
C 1024 339 698 774 698 1369 
C 698 1830 909 2412 1549 2412 
C 1901 2412 2099 2342 2394 2143 
L 2464 2540 
z
" transform="scale(0.015625)"/>
       <path id="CMSS17-74" d="M 1069 2380 
L 1901 2380 
L 1901 2752 
L 1069 2752 
L 1069 3520 
L 614 3520 
L 614 2752 
L 109 2752 
L 109 2380 
L 602 2380 
L 602 751 
C 602 384 685 -64 1107 -64 
C 1427 -64 1722 25 2003 172 
L 1901 551 
C 1747 416 1562 339 1363 339 
C 1082 339 1069 699 1069 860 
L 1069 2380 
z
" transform="scale(0.015625)"/>
       <path id="CMSS17-72" d="M 954 1369 
C 954 1974 1395 2379 1958 2392 
L 1958 2816 
C 1549 2809 1165 2604 934 2270 
L 934 2783 
L 480 2783 
L 480 0 
L 954 0 
L 954 1369 
z
" transform="scale(0.015625)"/>
       <path id="CMSS17-68" d="M 2618 1878 
C 2618 2283 2522 2816 1798 2816 
C 1395 2816 1133 2617 947 2399 
L 947 4416 
L 474 4416 
L 474 0 
L 960 0 
L 960 1556 
C 960 1962 1114 2425 1549 2425 
C 2112 2425 2131 2045 2131 1826 
L 2131 0 
L 2618 0 
L 2618 1878 
z
" transform="scale(0.015625)"/>
       <path id="CMSS17-13" d="M 2502 4416 
L 2016 4416 
L 1222 3321 
L 1613 3321 
L 2502 4416 
z
" transform="scale(0.015625)"/>
       <path id="CMSS17-6f" d="M 2829 1356 
C 2829 2175 2221 2816 1504 2816 
C 768 2816 173 2156 173 1356 
C 173 544 787 -64 1498 -64 
C 2227 -64 2829 563 2829 1356 
z
M 1504 339 
C 1050 339 659 710 659 1407 
C 659 2150 1114 2425 1498 2425 
C 1914 2425 2342 2124 2342 1407 
C 2342 684 1926 339 1504 339 
z
" transform="scale(0.015625)"/>
       <path id="CMSS17-69" d="M 979 4224 
L 442 4224 
L 442 3686 
L 979 3686 
L 979 4224 
z
M 947 2752 
L 474 2752 
L 474 0 
L 947 0 
L 947 2752 
z
" transform="scale(0.015625)"/>
       <path id="CMSS17-71" d="M 2611 2816 
L 2138 2816 
L 2138 2425 
C 2112 2457 1818 2816 1318 2816 
C 736 2816 211 2218 211 1369 
C 211 585 653 -64 1229 -64 
C 1498 -64 1837 32 2125 307 
L 2125 -1280 
L 2611 -1280 
L 2611 2816 
z
M 2138 870 
C 2138 786 2138 669 1939 501 
C 1888 456 1747 326 1504 326 
C 1050 326 698 805 698 1369 
C 698 1998 1126 2412 1562 2412 
C 1926 2412 2138 2049 2138 1777 
L 2138 870 
z
" transform="scale(0.015625)"/>
       <path id="CMSS17-75" d="M 2618 2752 
L 2131 2752 
L 2131 976 
C 2131 500 1786 307 1421 307 
C 998 307 960 448 960 712 
L 960 2752 
L 474 2752 
L 474 680 
C 474 179 646 -64 1088 -64 
C 1306 -64 1798 -13 2144 307 
L 2144 -13 
L 2618 -13 
L 2618 2752 
z
" transform="scale(0.015625)"/>
      </defs>
      <use xlink:href="#CMSS17-53" transform="scale(0.996264)"/>
      <use xlink:href="#CMSS17-70" transform="translate(52.048516 0) scale(0.996264)"/>
      <use xlink:href="#CMSS17-65" transform="translate(102.855898 0) scale(0.996264)"/>
      <use xlink:href="#CMSS17-63" transform="translate(144.49472 0) scale(0.996264)"/>
      <use xlink:href="#CMSS17-74" transform="translate(186.133542 0) scale(0.996264)"/>
      <use xlink:href="#CMSS17-72" transform="translate(219.965109 0) scale(0.996264)"/>
      <use xlink:href="#CMSS17-65" transform="translate(251.874881 0) scale(0.996264)"/>
      <use xlink:href="#CMSS17-74" transform="translate(324.742816 0) scale(0.996264)"/>
      <use xlink:href="#CMSS17-68" transform="translate(358.574383 0) scale(0.996264)"/>
      <use xlink:href="#CMSS17-13" transform="translate(404.176918 0) scale(0.996264)"/>
      <use xlink:href="#CMSS17-65" transform="translate(406.779326 0) scale(0.996264)"/>
      <use xlink:href="#CMSS17-6f" transform="translate(448.418148 0) scale(0.996264)"/>
      <use xlink:href="#CMSS17-72" transform="translate(492.659318 0) scale(0.996264)"/>
      <use xlink:href="#CMSS17-69" transform="translate(524.56909 0) scale(0.996264)"/>
      <use xlink:href="#CMSS17-71" transform="translate(546.749813 0) scale(0.996264)"/>
      <use xlink:href="#CMSS17-75" transform="translate(594.954756 0) scale(0.996264)"/>
      <use xlink:href="#CMSS17-65" transform="translate(643.1597 0) scale(0.996264)"/>
     </g>
    </g>
   </g>
   <g id="matplotlib.axis_2">
    <g id="ytick_1">
     <g id="line2d_7">
      <path d="M 22.003987 159.308515 
L 218.945163 159.308515 
" clip-path="url(#p4f54a3f6bd)" style="fill: none; stroke: #b0b0b0; stroke-width: 0.8; stroke-linecap: square"/>
     </g>
     <g id="line2d_8">
      <defs>
       <path id="mb664f8ef44" d="M 0 0 
L -3.5 0 
" style="stroke: #000000; stroke-width: 0.8"/>
      </defs>
      <g>
       <use xlink:href="#mb664f8ef44" x="22.003987" y="159.308515" style="stroke: #000000; stroke-width: 0.8"/>
      </g>
     </g>
     <g id="text_5">
      <!-- $\mathdefault{0}$ -->
      <g transform="translate(7.2 164.843309) scale(0.16 -0.16)">
       <use xlink:href="#CMR17-30" transform="scale(0.996264)"/>
      </g>
     </g>
    </g>
    <g id="ytick_2">
     <g id="line2d_9">
      <path d="M 22.003987 101.558515 
L 218.945163 101.558515 
" clip-path="url(#p4f54a3f6bd)" style="fill: none; stroke: #b0b0b0; stroke-width: 0.8; stroke-linecap: square"/>
     </g>
     <g id="line2d_10">
      <g>
       <use xlink:href="#mb664f8ef44" x="22.003987" y="101.558515" style="stroke: #000000; stroke-width: 0.8"/>
      </g>
     </g>
     <g id="text_6">
      <!-- $\mathdefault{1}$ -->
      <g transform="translate(7.2 107.093309) scale(0.16 -0.16)">
       <use xlink:href="#CMR17-31" transform="scale(0.996264)"/>
      </g>
     </g>
    </g>
    <g id="ytick_3">
     <g id="line2d_11">
      <path d="M 22.003987 43.808515 
L 218.945163 43.808515 
" clip-path="url(#p4f54a3f6bd)" style="fill: none; stroke: #b0b0b0; stroke-width: 0.8; stroke-linecap: square"/>
     </g>
     <g id="line2d_12">
      <g>
       <use xlink:href="#mb664f8ef44" x="22.003987" y="43.808515" style="stroke: #000000; stroke-width: 0.8"/>
      </g>
     </g>
     <g id="text_7">
      <!-- $\mathdefault{2}$ -->
      <g transform="translate(7.2 49.343309) scale(0.16 -0.16)">
       <defs>
        <path id="CMR17-32" d="M 2669 990 
L 2554 990 
C 2490 537 2438 460 2413 422 
C 2381 371 1920 371 1830 371 
L 602 371 
C 832 620 1280 1073 1824 1596 
C 2214 1966 2669 2400 2669 3033 
C 2669 3788 2067 4224 1395 4224 
C 691 4224 262 3603 262 3027 
C 262 2777 448 2745 525 2745 
C 589 2745 781 2783 781 3007 
C 781 3206 614 3264 525 3264 
C 486 3264 448 3257 422 3244 
C 544 3788 915 4057 1306 4057 
C 1862 4057 2227 3616 2227 3033 
C 2227 2477 1901 1998 1536 1583 
L 262 147 
L 262 0 
L 2515 0 
L 2669 990 
z
" transform="scale(0.015625)"/>
       </defs>
       <use xlink:href="#CMR17-32" transform="scale(0.996264)"/>
      </g>
     </g>
    </g>
   </g>
   <g id="line2d_13">
    <path d="M 30.955859 159.308515 
L 32.764318 159.308515 
L 34.572777 159.308515 
L 36.381235 159.308515 
L 38.189694 159.308515 
L 39.998153 159.308515 
L 41.806612 159.308515 
L 43.615071 159.308515 
L 45.42353 159.308515 
L 47.231989 159.308515 
L 49.040448 159.308515 
L 50.848907 159.308515 
L 52.657366 159.308515 
L 54.465825 159.308515 
L 56.274284 159.308515 
L 58.082742 159.308515 
L 59.891201 159.308515 
L 61.69966 159.308515 
L 63.508119 159.308515 
L 65.316578 159.308515 
L 67.125037 147.758515 
L 68.933496 159.308515 
L 70.741955 159.308515 
L 72.550414 159.308515 
L 74.358873 159.308515 
L 76.167332 43.808515 
L 77.975791 159.308515 
L 79.78425 159.308515 
L 81.592708 159.308515 
L 83.401167 159.308515 
L 85.209626 159.308515 
L 87.018085 159.308515 
L 88.826544 159.308515 
L 90.635003 159.308515 
L 92.443462 159.308515 
L 94.251921 159.308515 
L 96.06038 159.308515 
L 97.868839 159.308515 
L 99.677298 159.308515 
L 101.485757 159.308515 
L 103.294215 159.308515 
L 105.102674 159.308515 
L 106.911133 159.308515 
L 108.719592 159.308515 
L 110.528051 159.308515 
L 112.33651 159.308515 
L 114.144969 159.308515 
L 115.953428 159.308515 
L 117.761887 159.308515 
L 119.570346 159.308515 
L 121.378805 130.433515 
L 123.187264 159.308515 
L 124.995723 159.308515 
L 126.804181 159.308515 
L 128.61264 159.308515 
L 130.421099 159.308515 
L 132.229558 159.308515 
L 134.038017 159.308515 
L 135.846476 159.308515 
L 137.654935 159.308515 
L 139.463394 159.308515 
L 141.271853 159.308515 
L 143.080312 159.308515 
L 144.888771 159.308515 
L 146.69723 159.308515 
L 148.505689 159.308515 
L 150.314147 159.308515 
L 152.122606 159.308515 
L 153.931065 159.308515 
L 155.739524 159.308515 
L 157.547983 141.983515 
L 159.356442 159.308515 
L 161.164901 159.308515 
L 162.97336 159.308515 
L 164.781819 159.308515 
L 166.590278 159.308515 
L 168.398737 159.308515 
L 170.207196 159.308515 
L 172.015654 159.308515 
L 173.824113 159.308515 
L 175.632572 159.308515 
L 177.441031 159.308515 
L 179.24949 159.308515 
L 181.057949 159.308515 
L 182.866408 159.308515 
L 184.674867 159.308515 
L 186.483326 159.308515 
L 188.291785 159.308515 
L 190.100244 159.308515 
L 191.908703 159.308515 
L 193.717162 159.308515 
L 195.52562 159.308515 
L 197.334079 159.308515 
L 199.142538 159.308515 
L 200.950997 159.308515 
L 202.759456 159.308515 
L 204.567915 159.308515 
L 206.376374 159.308515 
L 208.184833 159.308515 
L 209.993292 159.308515 
" clip-path="url(#p4f54a3f6bd)" style="fill: none; stroke: #1f77b4; stroke-width: 1.5; stroke-linecap: square"/>
   </g>
   <g id="patch_3">
    <path d="M 22.003987 165.083515 
L 22.003987 26.483515 
" style="fill: none; stroke: #000000; stroke-width: 0.8; stroke-linejoin: miter; stroke-linecap: square"/>
   </g>
   <g id="patch_4">
    <path d="M 218.945163 165.083515 
L 218.945163 26.483515 
" style="fill: none; stroke: #000000; stroke-width: 0.8; stroke-linejoin: miter; stroke-linecap: square"/>
   </g>
   <g id="patch_5">
    <path d="M 22.003987 165.083515 
L 218.945163 165.083515 
" style="fill: none; stroke: #000000; stroke-width: 0.8; stroke-linejoin: miter; stroke-linecap: square"/>
   </g>
   <g id="patch_6">
    <path d="M 22.003987 26.483515 
L 218.945163 26.483515 
" style="fill: none; stroke: #000000; stroke-width: 0.8; stroke-linejoin: miter; stroke-linecap: square"/>
   </g>
   <g id="text_8">
    <!-- $x$ -->
    <g transform="translate(115.15291 20.483515) scale(0.192 -0.192)">
     <defs>
      <path id="CMMI12-78" d="M 3034 2624 
C 2829 2585 2752 2431 2752 2310 
C 2752 2156 2874 2105 2963 2105 
C 3155 2105 3290 2271 3290 2444 
C 3290 2694 2982 2816 2714 2816 
C 2323 2816 2106 2451 2048 2329 
C 1901 2790 1504 2816 1389 2816 
C 736 2816 390 1993 390 1849 
C 390 1823 416 1790 461 1790 
C 512 1790 525 1829 538 1855 
C 755 2572 1184 2687 1370 2687 
C 1658 2687 1715 2438 1715 2284 
C 1715 2143 1677 1993 1600 1678 
L 1382 778 
C 1286 390 1101 64 762 64 
C 730 64 570 64 435 126 
C 666 166 717 358 717 435 
C 717 563 621 640 499 640 
C 346 640 179 505 179 300 
C 179 57 480 -64 755 -64 
C 1062 -64 1280 153 1414 415 
C 1517 64 1837 -64 2074 -64 
C 2726 -64 3072 751 3072 896 
C 3072 929 3046 955 3008 955 
C 2950 955 2944 922 2925 870 
C 2752 300 2381 64 2093 64 
C 1869 64 1747 204 1747 467 
C 1747 607 1773 712 1875 1146 
L 2099 2039 
C 2195 2425 2413 2687 2707 2687 
C 2720 2687 2899 2687 3034 2624 
z
" transform="scale(0.015625)"/>
     </defs>
     <use xlink:href="#CMMI12-78" transform="scale(0.996264)"/>
    </g>
   </g>
  </g>
  <g id="axes_2">
   <g id="patch_7">
    <path d="M 258.333399 165.083515 
L 455.274575 165.083515 
L 455.274575 26.483515 
L 258.333399 26.483515 
z
" style="fill: #ffffff"/>
   </g>
   <g id="matplotlib.axis_3">
    <g id="xtick_4">
     <g id="line2d_14">
      <path d="M 267.28527 165.083515 
L 267.28527 26.483515 
" clip-path="url(#p77d2d05423)" style="fill: none; stroke: #b0b0b0; stroke-width: 0.8; stroke-linecap: square"/>
     </g>
     <g id="line2d_15">
      <g>
       <use xlink:href="#m8e8873ea1f" x="267.28527" y="165.083515" style="stroke: #000000; stroke-width: 0.8"/>
      </g>
     </g>
     <g id="text_9">
      <!-- $\mathdefault{−50}$ -->
      <g transform="translate(253.282285 183.153103) scale(0.16 -0.16)">
       <defs>
        <path id="CMSY10-0" d="M 4218 1472 
C 4326 1472 4442 1472 4442 1600 
C 4442 1728 4326 1728 4218 1728 
L 755 1728 
C 646 1728 531 1728 531 1600 
C 531 1472 646 1472 755 1472 
L 4218 1472 
z
" transform="scale(0.015625)"/>
       </defs>
       <use xlink:href="#CMSY10-0" transform="scale(0.996264)"/>
       <use xlink:href="#CMR17-35" transform="translate(77.487468 0) scale(0.996264)"/>
       <use xlink:href="#CMR17-30" transform="translate(123.177945 0) scale(0.996264)"/>
      </g>
     </g>
    </g>
    <g id="xtick_5">
     <g id="line2d_16">
      <path d="M 357.708216 165.083515 
L 357.708216 26.483515 
" clip-path="url(#p77d2d05423)" style="fill: none; stroke: #b0b0b0; stroke-width: 0.8; stroke-linecap: square"/>
     </g>
     <g id="line2d_17">
      <g>
       <use xlink:href="#m8e8873ea1f" x="357.708216" y="165.083515" style="stroke: #000000; stroke-width: 0.8"/>
      </g>
     </g>
     <g id="text_10">
      <!-- $\mathdefault{0}$ -->
      <g transform="translate(353.806223 183.153103) scale(0.16 -0.16)">
       <use xlink:href="#CMR17-30" transform="scale(0.996264)"/>
      </g>
     </g>
    </g>
    <g id="xtick_6">
     <g id="line2d_18">
      <path d="M 448.131163 165.083515 
L 448.131163 26.483515 
" clip-path="url(#p77d2d05423)" style="fill: none; stroke: #b0b0b0; stroke-width: 0.8; stroke-linecap: square"/>
     </g>
     <g id="line2d_19">
      <g>
       <use xlink:href="#m8e8873ea1f" x="448.131163" y="165.083515" style="stroke: #000000; stroke-width: 0.8"/>
      </g>
     </g>
     <g id="text_11">
      <!-- $\mathdefault{50}$ -->
      <g transform="translate(440.327175 183.153103) scale(0.16 -0.16)">
       <use xlink:href="#CMR17-35" transform="scale(0.996264)"/>
       <use xlink:href="#CMR17-30" transform="translate(45.690477 0) scale(0.996264)"/>
      </g>
     </g>
    </g>
    <g id="text_12">
     <!-- Réponse impulsionnelle -->
     <g transform="translate(281.931918 201.322168) scale(0.16 -0.16)">
      <defs>
       <path id="CMSS17-52" d="M 2522 2099 
L 2534 2105 
C 3533 2450 3539 3125 3539 3244 
C 3539 3838 2925 4416 2003 4416 
L 570 4416 
L 570 0 
L 1094 0 
L 1094 2041 
L 2035 2041 
L 3168 0 
L 3706 0 
L 2522 2099 
z
M 1094 2432 
L 1094 4057 
L 1933 4057 
C 2746 4057 3034 3607 3034 3244 
C 3034 2907 2778 2432 1933 2432 
L 1094 2432 
z
" transform="scale(0.015625)"/>
       <path id="CMSS17-6e" d="M 2618 1878 
C 2618 2283 2522 2816 1798 2816 
C 1389 2816 1120 2604 941 2386 
L 941 2783 
L 474 2783 
L 474 0 
L 960 0 
L 960 1556 
C 960 1962 1114 2425 1549 2425 
C 2112 2425 2131 2045 2131 1826 
L 2131 0 
L 2618 0 
L 2618 1878 
z
" transform="scale(0.015625)"/>
       <path id="CMSS17-73" d="M 2061 2623 
C 1683 2803 1389 2816 1197 2816 
C 742 2816 198 2655 198 2009 
C 198 1363 902 1222 1094 1183 
C 1389 1126 1715 1062 1715 742 
C 1715 339 1254 339 1171 339 
C 915 339 563 409 243 639 
L 166 211 
C 531 0 883 -64 1178 -64 
C 1965 -64 2163 416 2163 780 
C 2163 1094 1984 1305 1862 1401 
C 1651 1567 1574 1587 1050 1695 
C 960 1708 646 1779 646 2067 
C 646 2431 1050 2431 1139 2431 
C 1555 2431 1811 2303 1984 2207 
L 2061 2623 
z
" transform="scale(0.015625)"/>
       <path id="CMSS17-6d" d="M 4288 1878 
C 4288 2309 4179 2816 3462 2816 
C 2982 2816 2694 2515 2566 2328 
C 2451 2668 2182 2816 1798 2816 
C 1363 2816 1088 2566 941 2386 
L 941 2783 
L 474 2783 
L 474 0 
L 960 0 
L 960 1556 
C 960 1936 1101 2425 1555 2425 
C 2138 2425 2138 2013 2138 1826 
L 2138 0 
L 2624 0 
L 2624 1556 
C 2624 1936 2765 2425 3219 2425 
C 3802 2425 3802 2013 3802 1826 
L 3802 0 
L 4288 0 
L 4288 1878 
z
" transform="scale(0.015625)"/>
       <path id="CMSS17-6c" d="M 947 4416 
L 474 4416 
L 474 0 
L 947 0 
L 947 4416 
z
" transform="scale(0.015625)"/>
      </defs>
      <use xlink:href="#CMSS17-52" transform="scale(0.996264)"/>
      <use xlink:href="#CMSS17-13" transform="translate(57.813747 0) scale(0.996264)"/>
      <use xlink:href="#CMSS17-65" transform="translate(60.416155 0) scale(0.996264)"/>
      <use xlink:href="#CMSS17-70" transform="translate(102.054977 0) scale(0.996264)"/>
      <use xlink:href="#CMSS17-6f" transform="translate(152.862359 0) scale(0.996264)"/>
      <use xlink:href="#CMSS17-6e" transform="translate(199.705982 0) scale(0.996264)"/>
      <use xlink:href="#CMSS17-73" transform="translate(247.910925 0) scale(0.996264)"/>
      <use xlink:href="#CMSS17-65" transform="translate(283.824467 0) scale(0.996264)"/>
      <use xlink:href="#CMSS17-69" transform="translate(356.692402 0) scale(0.996264)"/>
      <use xlink:href="#CMSS17-6d" transform="translate(378.873125 0) scale(0.996264)"/>
      <use xlink:href="#CMSS17-70" transform="translate(453.10238 0) scale(0.996264)"/>
      <use xlink:href="#CMSS17-75" transform="translate(501.307323 0) scale(0.996264)"/>
      <use xlink:href="#CMSS17-6c" transform="translate(549.512266 0) scale(0.996264)"/>
      <use xlink:href="#CMSS17-73" transform="translate(571.692989 0) scale(0.996264)"/>
      <use xlink:href="#CMSS17-69" transform="translate(607.606531 0) scale(0.996264)"/>
      <use xlink:href="#CMSS17-6f" transform="translate(629.787254 0) scale(0.996264)"/>
      <use xlink:href="#CMSS17-6e" transform="translate(676.630878 0) scale(0.996264)"/>
      <use xlink:href="#CMSS17-6e" transform="translate(724.835821 0) scale(0.996264)"/>
      <use xlink:href="#CMSS17-65" transform="translate(773.040764 0) scale(0.996264)"/>
      <use xlink:href="#CMSS17-6c" transform="translate(814.679586 0) scale(0.996264)"/>
      <use xlink:href="#CMSS17-6c" transform="translate(836.860309 0) scale(0.996264)"/>
      <use xlink:href="#CMSS17-65" transform="translate(859.041032 0) scale(0.996264)"/>
     </g>
     <!-- du spectromètre -->
     <g transform="translate(304.096656 217.70515) scale(0.16 -0.16)">
      <defs>
       <path id="CMSS17-64" d="M 2611 4416 
L 2138 4416 
L 2138 2495 
C 1939 2662 1613 2816 1254 2816 
C 672 2816 211 2179 211 1375 
C 211 572 666 -64 1235 -64 
C 1677 -64 1971 172 2125 307 
L 2125 -13 
L 2611 -13 
L 2611 4416 
z
M 2125 851 
C 2125 760 2125 663 1926 488 
C 1798 378 1645 326 1498 326 
C 1152 326 698 585 698 1369 
C 698 2185 1210 2425 1562 2425 
C 1798 2425 1990 2308 2125 2114 
L 2125 851 
z
" transform="scale(0.015625)"/>
       <path id="CMSS17-12" d="M 1389 3321 
L 1779 3321 
L 986 4416 
L 499 4416 
L 1389 3321 
z
" transform="scale(0.015625)"/>
      </defs>
      <use xlink:href="#CMSS17-64" transform="scale(0.996264)"/>
      <use xlink:href="#CMSS17-75" transform="translate(48.204943 0) scale(0.996264)"/>
      <use xlink:href="#CMSS17-73" transform="translate(127.638999 0) scale(0.996264)"/>
      <use xlink:href="#CMSS17-70" transform="translate(163.552541 0) scale(0.996264)"/>
      <use xlink:href="#CMSS17-65" transform="translate(214.359923 0) scale(0.996264)"/>
      <use xlink:href="#CMSS17-63" transform="translate(255.998745 0) scale(0.996264)"/>
      <use xlink:href="#CMSS17-74" transform="translate(297.637567 0) scale(0.996264)"/>
      <use xlink:href="#CMSS17-72" transform="translate(331.469134 0) scale(0.996264)"/>
      <use xlink:href="#CMSS17-6f" transform="translate(363.378906 0) scale(0.996264)"/>
      <use xlink:href="#CMSS17-6d" transform="translate(410.22253 0) scale(0.996264)"/>
      <use xlink:href="#CMSS17-12" transform="translate(481.849376 0) scale(0.996264)"/>
      <use xlink:href="#CMSS17-65" transform="translate(484.451784 0) scale(0.996264)"/>
      <use xlink:href="#CMSS17-74" transform="translate(526.090606 0) scale(0.996264)"/>
      <use xlink:href="#CMSS17-72" transform="translate(559.922173 0) scale(0.996264)"/>
      <use xlink:href="#CMSS17-65" transform="translate(591.831946 0) scale(0.996264)"/>
     </g>
    </g>
   </g>
   <g id="matplotlib.axis_4">
    <g id="ytick_4">
     <g id="line2d_20">
      <path d="M 258.333399 159.308515 
L 455.274575 159.308515 
" clip-path="url(#p77d2d05423)" style="fill: none; stroke: #b0b0b0; stroke-width: 0.8; stroke-linecap: square"/>
     </g>
     <g id="line2d_21">
      <g>
       <use xlink:href="#mb664f8ef44" x="258.333399" y="159.308515" style="stroke: #000000; stroke-width: 0.8"/>
      </g>
     </g>
     <g id="text_13">
      <!-- $\mathdefault{0}$ -->
      <g transform="translate(243.529412 164.843309) scale(0.16 -0.16)">
       <use xlink:href="#CMR17-30" transform="scale(0.996264)"/>
      </g>
     </g>
    </g>
    <g id="ytick_5">
     <g id="line2d_22">
      <path d="M 258.333399 101.558515 
L 455.274575 101.558515 
" clip-path="url(#p77d2d05423)" style="fill: none; stroke: #b0b0b0; stroke-width: 0.8; stroke-linecap: square"/>
     </g>
     <g id="line2d_23">
      <g>
       <use xlink:href="#mb664f8ef44" x="258.333399" y="101.558515" style="stroke: #000000; stroke-width: 0.8"/>
      </g>
     </g>
     <g id="text_14">
      <!-- $\mathdefault{1}$ -->
      <g transform="translate(243.529412 107.093309) scale(0.16 -0.16)">
       <use xlink:href="#CMR17-31" transform="scale(0.996264)"/>
      </g>
     </g>
    </g>
    <g id="ytick_6">
     <g id="line2d_24">
      <path d="M 258.333399 43.808515 
L 455.274575 43.808515 
" clip-path="url(#p77d2d05423)" style="fill: none; stroke: #b0b0b0; stroke-width: 0.8; stroke-linecap: square"/>
     </g>
     <g id="line2d_25">
      <g>
       <use xlink:href="#mb664f8ef44" x="258.333399" y="43.808515" style="stroke: #000000; stroke-width: 0.8"/>
      </g>
     </g>
     <g id="text_15">
      <!-- $\mathdefault{2}$ -->
      <g transform="translate(243.529412 49.343309) scale(0.16 -0.16)">
       <use xlink:href="#CMR17-32" transform="scale(0.996264)"/>
      </g>
     </g>
    </g>
   </g>
   <g id="line2d_26">
    <path d="M 267.28527 159.308515 
L 269.093729 159.308515 
L 270.902188 159.308515 
L 272.710647 159.308515 
L 274.519106 159.308515 
L 276.327565 159.308515 
L 278.136024 159.308515 
L 279.944483 159.308515 
L 281.752942 159.308515 
L 283.561401 159.308515 
L 285.36986 159.308515 
L 287.178319 159.308515 
L 288.986777 159.308515 
L 290.795236 159.308515 
L 292.603695 159.308515 
L 294.412154 159.308515 
L 296.220613 159.308515 
L 298.029072 159.308515 
L 299.837531 159.308515 
L 301.64599 159.308515 
L 303.454449 159.308515 
L 305.262908 159.308515 
L 307.071367 159.308515 
L 308.879826 159.308515 
L 310.688285 159.308515 
L 312.496743 159.308515 
L 314.305202 159.308515 
L 316.113661 159.308515 
L 317.92212 159.308515 
L 319.730579 159.308515 
L 321.539038 159.308515 
L 323.347497 159.308515 
L 325.155956 159.308515 
L 326.964415 159.308515 
L 328.772874 159.308515 
L 330.581333 159.308515 
L 332.389792 159.308515 
L 334.19825 159.308512 
L 336.006709 159.308483 
L 337.815168 159.308194 
L 339.623627 159.305893 
L 341.432086 159.290986 
L 343.240545 159.21256 
L 345.049004 158.878475 
L 346.857463 157.73057 
L 348.665922 154.568106 
L 350.474381 147.648991 
L 352.28284 135.829117 
L 354.091299 120.597532 
L 355.899758 107.054154 
L 357.708216 101.558515 
L 359.516675 107.054154 
L 361.325134 120.597532 
L 363.133593 135.829117 
L 364.942052 147.648991 
L 366.750511 154.568106 
L 368.55897 157.73057 
L 370.367429 158.878475 
L 372.175888 159.21256 
L 373.984347 159.290986 
L 375.792806 159.305893 
L 377.601265 159.308194 
L 379.409724 159.308483 
L 381.218182 159.308512 
L 383.026641 159.308515 
L 384.8351 159.308515 
L 386.643559 159.308515 
L 388.452018 159.308515 
L 390.260477 159.308515 
L 392.068936 159.308515 
L 393.877395 159.308515 
L 395.685854 159.308515 
L 397.494313 159.308515 
L 399.302772 159.308515 
L 401.111231 159.308515 
L 402.919689 159.308515 
L 404.728148 159.308515 
L 406.536607 159.308515 
L 408.345066 159.308515 
L 410.153525 159.308515 
L 411.961984 159.308515 
L 413.770443 159.308515 
L 415.578902 159.308515 
L 417.387361 159.308515 
L 419.19582 159.308515 
L 421.004279 159.308515 
L 422.812738 159.308515 
L 424.621197 159.308515 
L 426.429655 159.308515 
L 428.238114 159.308515 
L 430.046573 159.308515 
L 431.855032 159.308515 
L 433.663491 159.308515 
L 435.47195 159.308515 
L 437.280409 159.308515 
L 439.088868 159.308515 
L 440.897327 159.308515 
L 442.705786 159.308515 
L 444.514245 159.308515 
L 446.322704 159.308515 
" clip-path="url(#p77d2d05423)" style="fill: none; stroke: #1f77b4; stroke-width: 1.5; stroke-linecap: square"/>
   </g>
   <g id="patch_8">
    <path d="M 258.333399 165.083515 
L 258.333399 26.483515 
" style="fill: none; stroke: #000000; stroke-width: 0.8; stroke-linejoin: miter; stroke-linecap: square"/>
   </g>
   <g id="patch_9">
    <path d="M 455.274575 165.083515 
L 455.274575 26.483515 
" style="fill: none; stroke: #000000; stroke-width: 0.8; stroke-linejoin: miter; stroke-linecap: square"/>
   </g>
   <g id="patch_10">
    <path d="M 258.333399 165.083515 
L 455.274575 165.083515 
" style="fill: none; stroke: #000000; stroke-width: 0.8; stroke-linejoin: miter; stroke-linecap: square"/>
   </g>
   <g id="patch_11">
    <path d="M 258.333399 26.483515 
L 455.274575 26.483515 
" style="fill: none; stroke: #000000; stroke-width: 0.8; stroke-linejoin: miter; stroke-linecap: square"/>
   </g>
   <g id="text_16">
    <!-- $h$ -->
    <g transform="translate(351.413146 20.483515) scale(0.192 -0.192)">
     <defs>
      <path id="CMMI12-68" d="M 1798 4255 
C 1805 4281 1818 4319 1818 4351 
C 1818 4416 1754 4416 1741 4416 
C 1734 4416 1421 4390 1389 4383 
C 1280 4377 1184 4364 1069 4358 
C 909 4345 864 4339 864 4223 
C 864 4159 915 4159 1005 4159 
C 1318 4159 1325 4103 1325 4040 
C 1325 4002 1312 3951 1306 3932 
L 378 249 
C 352 153 352 140 352 102 
C 352 -39 461 -64 525 -64 
C 634 -64 717 19 749 89 
L 1037 1245 
C 1069 1385 1107 1519 1139 1660 
C 1210 1928 1210 1934 1331 2119 
C 1453 2305 1741 2687 2234 2687 
C 2490 2687 2579 2496 2579 2241 
C 2579 1883 2330 1187 2189 804 
C 2131 651 2099 568 2099 453 
C 2099 166 2298 -64 2605 -64 
C 3200 -64 3424 874 3424 913 
C 3424 945 3398 970 3360 970 
C 3302 970 3296 951 3264 842 
C 3117 332 2880 64 2624 64 
C 2560 64 2458 70 2458 274 
C 2458 440 2534 645 2560 715 
C 2675 1021 2963 1775 2963 2145 
C 2963 2528 2739 2816 2253 2816 
C 1888 2816 1568 2643 1306 2311 
L 1798 4255 
z
" transform="scale(0.015625)"/>
     </defs>
     <use xlink:href="#CMMI12-68" transform="scale(0.996264)"/>
    </g>
   </g>
  </g>
  <g id="axes_3">
   <g id="patch_12">
    <path d="M 494.662811 165.083515 
L 691.603987 165.083515 
L 691.603987 26.483515 
L 494.662811 26.483515 
z
" style="fill: #ffffff"/>
   </g>
   <g id="matplotlib.axis_5">
    <g id="xtick_7">
     <g id="line2d_27">
      <path d="M 503.614682 165.083515 
L 503.614682 26.483515 
" clip-path="url(#p40c37165a2)" style="fill: none; stroke: #b0b0b0; stroke-width: 0.8; stroke-linecap: square"/>
     </g>
     <g id="line2d_28">
      <g>
       <use xlink:href="#m8e8873ea1f" x="503.614682" y="165.083515" style="stroke: #000000; stroke-width: 0.8"/>
      </g>
     </g>
     <g id="text_17">
      <!-- $\mathdefault{0}$ -->
      <g transform="translate(499.712689 183.153103) scale(0.16 -0.16)">
       <use xlink:href="#CMR17-30" transform="scale(0.996264)"/>
      </g>
     </g>
    </g>
    <g id="xtick_8">
     <g id="line2d_29">
      <path d="M 594.037628 165.083515 
L 594.037628 26.483515 
" clip-path="url(#p40c37165a2)" style="fill: none; stroke: #b0b0b0; stroke-width: 0.8; stroke-linecap: square"/>
     </g>
     <g id="line2d_30">
      <g>
       <use xlink:href="#m8e8873ea1f" x="594.037628" y="165.083515" style="stroke: #000000; stroke-width: 0.8"/>
      </g>
     </g>
     <g id="text_18">
      <!-- $\mathdefault{50}$ -->
      <g transform="translate(586.233641 183.153103) scale(0.16 -0.16)">
       <use xlink:href="#CMR17-35" transform="scale(0.996264)"/>
       <use xlink:href="#CMR17-30" transform="translate(45.690477 0) scale(0.996264)"/>
      </g>
     </g>
    </g>
    <g id="xtick_9">
     <g id="line2d_31">
      <path d="M 684.460574 165.083515 
L 684.460574 26.483515 
" clip-path="url(#p40c37165a2)" style="fill: none; stroke: #b0b0b0; stroke-width: 0.8; stroke-linecap: square"/>
     </g>
     <g id="line2d_32">
      <g>
       <use xlink:href="#m8e8873ea1f" x="684.460574" y="165.083515" style="stroke: #000000; stroke-width: 0.8"/>
      </g>
     </g>
     <g id="text_19">
      <!-- $\mathdefault{100}$ -->
      <g transform="translate(672.754594 183.153103) scale(0.16 -0.16)">
       <use xlink:href="#CMR17-31" transform="scale(0.996264)"/>
       <use xlink:href="#CMR17-30" transform="translate(45.690477 0) scale(0.996264)"/>
       <use xlink:href="#CMR17-30" transform="translate(91.380954 0) scale(0.996264)"/>
      </g>
     </g>
    </g>
    <g id="text_20">
     <!-- Spectre observé -->
     <g transform="translate(541.828197 201.322168) scale(0.16 -0.16)">
      <defs>
       <path id="CMSS17-62" d="M 954 4416 
L 480 4416 
L 480 -13 
L 966 -13 
L 966 275 
C 1210 38 1504 -64 1766 -64 
C 2381 -64 2880 559 2880 1382 
C 2880 2133 2496 2816 1926 2816 
C 1523 2816 1165 2649 954 2476 
L 954 4416 
z
M 966 2095 
C 1107 2276 1306 2425 1587 2425 
C 1965 2425 2394 2146 2394 1382 
C 2394 566 1882 326 1530 326 
C 1402 326 1267 358 1139 468 
C 966 624 966 721 966 812 
L 966 2095 
z
" transform="scale(0.015625)"/>
       <path id="CMSS17-76" d="M 2675 2752 
L 2176 2752 
L 1747 1555 
C 1613 1164 1421 627 1389 352 
L 1382 352 
C 1370 467 1318 633 1286 748 
C 1248 889 1197 1056 1158 1171 
L 595 2752 
L 83 2752 
L 1094 0 
L 1664 0 
L 2675 2752 
z
" transform="scale(0.015625)"/>
      </defs>
      <use xlink:href="#CMSS17-53" transform="scale(0.996264)"/>
      <use xlink:href="#CMSS17-70" transform="translate(52.048516 0) scale(0.996264)"/>
      <use xlink:href="#CMSS17-65" transform="translate(102.855898 0) scale(0.996264)"/>
      <use xlink:href="#CMSS17-63" transform="translate(144.49472 0) scale(0.996264)"/>
      <use xlink:href="#CMSS17-74" transform="translate(186.133542 0) scale(0.996264)"/>
      <use xlink:href="#CMSS17-72" transform="translate(219.965109 0) scale(0.996264)"/>
      <use xlink:href="#CMSS17-65" transform="translate(251.874881 0) scale(0.996264)"/>
      <use xlink:href="#CMSS17-6f" transform="translate(324.742816 0) scale(0.996264)"/>
      <use xlink:href="#CMSS17-62" transform="translate(371.58644 0) scale(0.996264)"/>
      <use xlink:href="#CMSS17-73" transform="translate(419.791383 0) scale(0.996264)"/>
      <use xlink:href="#CMSS17-65" transform="translate(455.704925 0) scale(0.996264)"/>
      <use xlink:href="#CMSS17-72" transform="translate(497.343747 0) scale(0.996264)"/>
      <use xlink:href="#CMSS17-76" transform="translate(529.25352 0) scale(0.996264)"/>
      <use xlink:href="#CMSS17-13" transform="translate(569.651253 0) scale(0.996264)"/>
      <use xlink:href="#CMSS17-65" transform="translate(572.253661 0) scale(0.996264)"/>
     </g>
    </g>
   </g>
   <g id="matplotlib.axis_6">
    <g id="ytick_7">
     <g id="line2d_33">
      <path d="M 494.662811 159.308515 
L 691.603987 159.308515 
" clip-path="url(#p40c37165a2)" style="fill: none; stroke: #b0b0b0; stroke-width: 0.8; stroke-linecap: square"/>
     </g>
     <g id="line2d_34">
      <g>
       <use xlink:href="#mb664f8ef44" x="494.662811" y="159.308515" style="stroke: #000000; stroke-width: 0.8"/>
      </g>
     </g>
     <g id="text_21">
      <!-- $\mathdefault{0}$ -->
      <g transform="translate(479.858824 164.843309) scale(0.16 -0.16)">
       <use xlink:href="#CMR17-30" transform="scale(0.996264)"/>
      </g>
     </g>
    </g>
    <g id="ytick_8">
     <g id="line2d_35">
      <path d="M 494.662811 101.558515 
L 691.603987 101.558515 
" clip-path="url(#p40c37165a2)" style="fill: none; stroke: #b0b0b0; stroke-width: 0.8; stroke-linecap: square"/>
     </g>
     <g id="line2d_36">
      <g>
       <use xlink:href="#mb664f8ef44" x="494.662811" y="101.558515" style="stroke: #000000; stroke-width: 0.8"/>
      </g>
     </g>
     <g id="text_22">
      <!-- $\mathdefault{1}$ -->
      <g transform="translate(479.858824 107.093309) scale(0.16 -0.16)">
       <use xlink:href="#CMR17-31" transform="scale(0.996264)"/>
      </g>
     </g>
    </g>
    <g id="ytick_9">
     <g id="line2d_37">
      <path d="M 494.662811 43.808515 
L 691.603987 43.808515 
" clip-path="url(#p40c37165a2)" style="fill: none; stroke: #b0b0b0; stroke-width: 0.8; stroke-linecap: square"/>
     </g>
     <g id="line2d_38">
      <g>
       <use xlink:href="#mb664f8ef44" x="494.662811" y="43.808515" style="stroke: #000000; stroke-width: 0.8"/>
      </g>
     </g>
     <g id="text_23">
      <!-- $\mathdefault{2}$ -->
      <g transform="translate(479.858824 49.343309) scale(0.16 -0.16)">
       <use xlink:href="#CMR17-32" transform="scale(0.996264)"/>
      </g>
     </g>
    </g>
   </g>
   <g id="line2d_39">
    <path d="M 503.614682 159.308515 
L 505.423141 159.308515 
L 507.2316 159.308515 
L 509.040059 159.308515 
L 510.848518 159.308515 
L 512.656977 159.308515 
L 514.465436 159.308515 
L 516.273895 159.308515 
L 518.082354 159.308515 
L 519.890812 159.308509 
L 521.699271 159.308451 
L 523.50773 159.307991 
L 525.316189 159.305009 
L 527.124648 159.289319 
L 528.933107 159.222443 
L 530.741566 158.992284 
L 532.550025 158.35519 
L 534.358484 156.941552 
L 536.166943 154.420726 
L 537.975402 150.706238 
L 539.783861 145.701753 
L 541.59232 138.277698 
L 543.400778 125.538595 
L 545.209237 104.607523 
L 547.017696 77.19067 
L 548.826155 52.467888 
L 550.634614 42.860433 
L 552.443073 54.484204 
L 554.251532 81.800542 
L 556.059991 112.330528 
L 557.86845 135.985961 
L 559.676909 149.827173 
L 561.485368 156.152561 
L 563.293827 158.448428 
L 565.102285 159.116605 
L 566.910744 159.273456 
L 568.719203 159.303271 
L 570.527662 159.307873 
L 572.336121 159.308449 
L 574.14458 159.308494 
L 575.953039 159.308354 
L 577.761498 159.307204 
L 579.569957 159.29975 
L 581.378416 159.260538 
L 583.186875 159.093495 
L 584.995334 158.519543 
L 586.803793 156.938311 
L 588.612251 153.478753 
L 590.42071 147.568816 
L 592.229169 139.953024 
L 594.037628 133.181335 
L 595.846087 130.433515 
L 597.654546 133.181335 
L 599.463005 139.953024 
L 601.271464 147.568816 
L 603.079923 153.478753 
L 604.888382 156.938311 
L 606.696841 158.519543 
L 608.5053 159.093494 
L 610.313759 159.260528 
L 612.122217 159.299654 
L 613.930676 159.306418 
L 615.739135 159.303096 
L 617.547594 159.279712 
L 619.356053 159.179502 
L 621.164512 158.835131 
L 622.972971 157.886392 
L 624.78143 155.810658 
L 626.589889 152.264696 
L 628.398348 147.69522 
L 630.206807 143.632207 
L 632.015266 141.983515 
L 633.823724 143.632207 
L 635.632183 147.69522 
L 637.440642 152.264696 
L 639.249101 155.810658 
L 641.05756 157.886392 
L 642.866019 158.835132 
L 644.674478 159.179503 
L 646.482937 159.279729 
L 648.291396 159.303256 
L 650.099855 159.307729 
L 651.908314 159.308419 
L 653.716773 159.308505 
L 655.525232 159.308514 
L 657.33369 159.308515 
L 659.142149 159.308515 
L 660.950608 159.308515 
L 662.759067 159.308515 
L 664.567526 159.308515 
L 666.375985 159.308515 
L 668.184444 159.308515 
L 669.992903 159.308515 
L 671.801362 159.308515 
L 673.609821 159.308515 
L 675.41828 159.308515 
L 677.226739 159.308515 
L 679.035198 159.308515 
L 680.843656 159.308515 
L 682.652115 159.308515 
" clip-path="url(#p40c37165a2)" style="fill: none; stroke: #1f77b4; stroke-width: 1.5; stroke-linecap: square"/>
   </g>
   <g id="patch_13">
    <path d="M 494.662811 165.083515 
L 494.662811 26.483515 
" style="fill: none; stroke: #000000; stroke-width: 0.8; stroke-linejoin: miter; stroke-linecap: square"/>
   </g>
   <g id="patch_14">
    <path d="M 691.603987 165.083515 
L 691.603987 26.483515 
" style="fill: none; stroke: #000000; stroke-width: 0.8; stroke-linejoin: miter; stroke-linecap: square"/>
   </g>
   <g id="patch_15">
    <path d="M 494.662811 165.083515 
L 691.603987 165.083515 
" style="fill: none; stroke: #000000; stroke-width: 0.8; stroke-linejoin: miter; stroke-linecap: square"/>
   </g>
   <g id="patch_16">
    <path d="M 494.662811 26.483515 
L 691.603987 26.483515 
" style="fill: none; stroke: #000000; stroke-width: 0.8; stroke-linejoin: miter; stroke-linecap: square"/>
   </g>
   <g id="text_24">
    <!-- $y$ -->
    <g transform="translate(588.567239 20.483515) scale(0.192 -0.192)">
     <defs>
      <path id="CMMI12-79" d="M 1683 -673 
C 1510 -921 1261 -1152 947 -1152 
C 870 -1152 563 -1139 467 -826 
C 486 -833 518 -833 531 -833 
C 723 -833 851 -666 851 -519 
C 851 -372 730 -320 634 -320 
C 531 -320 307 -397 307 -711 
C 307 -1050 582 -1280 947 -1280 
C 1587 -1280 2234 -673 2413 -7 
L 3040 2483 
C 3046 2515 3059 2553 3059 2591 
C 3059 2687 2982 2752 2886 2752 
C 2829 2752 2694 2726 2643 2534 
L 2170 657 
C 2138 542 2138 530 2086 459 
C 1958 281 1747 64 1440 64 
C 1082 64 1050 415 1050 587 
C 1050 951 1222 1443 1395 1902 
C 1466 2087 1504 2177 1504 2305 
C 1504 2573 1312 2816 998 2816 
C 410 2816 173 1890 173 1838 
C 173 1813 198 1781 243 1781 
C 301 1781 307 1807 333 1896 
C 486 2432 730 2687 979 2687 
C 1037 2687 1146 2687 1146 2477 
C 1146 2311 1075 2126 979 1883 
C 666 1047 666 836 666 683 
C 666 76 1101 -64 1421 -64 
C 1606 -64 1837 -7 2061 230 
L 2067 223 
C 1971 -141 1907 -359 1683 -673 
z
" transform="scale(0.015625)"/>
     </defs>
     <use xlink:href="#CMMI12-79" transform="scale(0.996264)"/>
    </g>
   </g>
  </g>
 </g>
 <defs>
  <clipPath id="p4f54a3f6bd">
   <rect x="22.003987" y="26.483515" width="196.941176" height="138.6"/>
  </clipPath>
  <clipPath id="p77d2d05423">
   <rect x="258.333399" y="26.483515" width="196.941176" height="138.6"/>
  </clipPath>
  <clipPath id="p40c37165a2">
   <rect x="494.662811" y="26.483515" width="196.941176" height="138.6"/>
  </clipPath>
 </defs>
</svg>
