<?xml version="1.0" encoding="utf-8" standalone="no"?>
<!DOCTYPE svg PUBLIC "-//W3C//DTD SVG 1.1//EN"
  "http://www.w3.org/Graphics/SVG/1.1/DTD/svg11.dtd">
<svg height="216.818129pt" version="1.1" viewBox="0 0 864.25299 216.818129" width="864.25299pt" xmlns="http://www.w3.org/2000/svg" xmlns:xlink="http://www.w3.org/1999/xlink">
 <metadata>
  <rdf:RDF xmlns:cc="http://creativecommons.org/ns#" xmlns:dc="http://purl.org/dc/elements/1.1/" xmlns:rdf="http://www.w3.org/1999/02/22-rdf-syntax-ns#">
   <cc:Work>
    <dc:type rdf:resource="http://purl.org/dc/dcmitype/StillImage"/>
    <dc:date>2022-12-06T21:52:34.944904</dc:date>
    <dc:format>image/svg+xml</dc:format>
    <dc:creator>
     <cc:Agent>
      <dc:title>Matplotlib v3.4.3, https://matplotlib.org/</dc:title>
     </cc:Agent>
    </dc:creator>
   </cc:Work>
  </rdf:RDF>
 </metadata>
 <defs>
  <style type="text/css">*{stroke-linecap:butt;stroke-linejoin:round;}</style>
 </defs>
 <g id="figure_1">
  <g id="patch_1">
   <path d="M 0 216.818129 
L 864.25299 216.818129 
L 864.25299 0 
L 0 0 
z
" style="fill:none;"/>
  </g>
  <g id="axes_1">
   <g id="patch_2">
    <path d="M 20.05299 170.28 
L 857.05299 170.28 
L 857.05299 7.2 
L 20.05299 7.2 
z
" style="fill:#ffffff;"/>
   </g>
   <g id="matplotlib.axis_1">
    <g id="xtick_1">
     <g id="line2d_1">
      <path clip-path="url(#p554353cd71)" d="M 153.212081 170.28 
L 153.212081 7.2 
" style="fill:none;stroke:#b0b0b0;stroke-linecap:square;stroke-width:0.8;"/>
     </g>
     <g id="line2d_2">
      <defs>
       <path d="M 0 0 
L 0 3.5 
" id="m7fbe26e1ca" style="stroke:#000000;stroke-width:0.8;"/>
      </defs>
      <g>
       <use style="stroke:#000000;stroke-width:0.8;" x="153.212081" xlink:href="#m7fbe26e1ca" y="170.28"/>
      </g>
     </g>
     <g id="text_1">
      <!-- $-2f_e$ -->
      <g transform="translate(136.666674 188.349588)scale(0.16 -0.16)">
       <defs>
        <path d="M 4218 1472 
C 4326 1472 4442 1472 4442 1600 
C 4442 1728 4326 1728 4218 1728 
L 755 1728 
C 646 1728 531 1728 531 1600 
C 531 1472 646 1472 755 1472 
L 4218 1472 
z
" id="CMSY10-0" transform="scale(0.015625)"/>
        <path d="M 2669 990 
L 2554 990 
C 2490 537 2438 460 2413 422 
C 2381 371 1920 371 1830 371 
L 602 371 
C 832 620 1280 1073 1824 1596 
C 2214 1966 2669 2400 2669 3033 
C 2669 3788 2067 4224 1395 4224 
C 691 4224 262 3603 262 3027 
C 262 2777 448 2745 525 2745 
C 589 2745 781 2783 781 3007 
C 781 3206 614 3264 525 3264 
C 486 3264 448 3257 422 3244 
C 544 3788 915 4057 1306 4057 
C 1862 4057 2227 3616 2227 3033 
C 2227 2477 1901 1998 1536 1583 
L 262 147 
L 262 0 
L 2515 0 
L 2669 990 
z
" id="CMR17-32" transform="scale(0.015625)"/>
        <path d="M 2854 2566 
C 2982 2566 3034 2566 3034 2687 
C 3034 2752 2982 2752 2867 2752 
L 2349 2752 
C 2470 3398 2560 3846 2611 4051 
C 2650 4204 2784 4351 2950 4351 
C 3085 4351 3219 4294 3283 4236 
C 3034 4211 2957 4025 2957 3916 
C 2957 3788 3053 3712 3174 3712 
C 3302 3712 3494 3820 3494 4064 
C 3494 4332 3226 4480 2944 4480 
C 2669 4480 2400 4275 2272 4025 
C 2157 3801 2093 3573 1946 2752 
L 1517 2752 
C 1395 2752 1331 2752 1331 2636 
C 1331 2566 1370 2566 1498 2566 
L 1907 2566 
C 1792 1977 1530 545 1382 -132 
C 1274 -685 1178 -1152 858 -1152 
C 838 -1152 653 -1152 538 -1031 
C 864 -1005 864 -724 864 -717 
C 864 -589 768 -512 646 -512 
C 518 -512 326 -621 326 -865 
C 326 -1140 608 -1280 858 -1280 
C 1510 -1280 1779 -113 1850 203 
C 1965 691 2278 2376 2310 2566 
L 2854 2566 
z
" id="CMMI12-66" transform="scale(0.015625)"/>
        <path d="M 1146 1472 
C 1318 1472 1754 1484 2061 1600 
C 2547 1786 2592 2160 2592 2275 
C 2592 2559 2349 2816 1926 2816 
C 1254 2816 288 2205 288 1066 
C 288 400 672 -64 1254 -64 
C 2125 -64 2675 609 2675 691 
C 2675 729 2637 761 2611 761 
C 2592 761 2586 755 2528 698 
C 2118 159 1510 64 1267 64 
C 902 64 710 349 710 818 
C 710 907 710 1066 806 1472 
L 1146 1472 
z
M 838 1600 
C 1114 2591 1722 2687 1926 2687 
C 2208 2687 2400 2520 2400 2275 
C 2400 1600 1376 1600 1107 1600 
L 838 1600 
z
" id="CMMI12-65" transform="scale(0.015625)"/>
       </defs>
       <use transform="scale(0.996264)" xlink:href="#CMSY10-0"/>
       <use transform="translate(77.487468 0)scale(0.996264)" xlink:href="#CMR17-32"/>
       <use transform="translate(123.177945 0)scale(0.996264)" xlink:href="#CMMI12-66"/>
       <use transform="translate(171.261182 -14.943915)scale(0.697382)" xlink:href="#CMMI12-65"/>
      </g>
     </g>
    </g>
    <g id="xtick_2">
     <g id="line2d_3">
      <path clip-path="url(#p554353cd71)" d="M 295.882536 170.28 
L 295.882536 7.2 
" style="fill:none;stroke:#b0b0b0;stroke-linecap:square;stroke-width:0.8;"/>
     </g>
     <g id="line2d_4">
      <g>
       <use style="stroke:#000000;stroke-width:0.8;" x="295.882536" xlink:href="#m7fbe26e1ca" y="170.28"/>
      </g>
     </g>
     <g id="text_2">
      <!-- $f_e$ -->
      <g transform="translate(289.43812 188.349588)scale(0.16 -0.16)">
       <use transform="scale(0.996264)" xlink:href="#CMMI12-66"/>
       <use transform="translate(48.083238 -14.943915)scale(0.697382)" xlink:href="#CMMI12-65"/>
      </g>
     </g>
    </g>
    <g id="xtick_3">
     <g id="line2d_5">
      <path clip-path="url(#p554353cd71)" d="M 438.55299 170.28 
L 438.55299 7.2 
" style="fill:none;stroke:#b0b0b0;stroke-linecap:square;stroke-width:0.8;"/>
     </g>
     <g id="line2d_6">
      <g>
       <use style="stroke:#000000;stroke-width:0.8;" x="438.55299" xlink:href="#m7fbe26e1ca" y="170.28"/>
      </g>
     </g>
     <g id="text_3">
      <!-- $0$ -->
      <g transform="translate(434.650997 188.349588)scale(0.16 -0.16)">
       <defs>
        <path d="M 2688 2038 
C 2688 2430 2682 3099 2413 3613 
C 2176 4063 1798 4224 1466 4224 
C 1158 4224 768 4082 525 3620 
C 269 3137 243 2539 243 2038 
C 243 1671 250 1112 448 623 
C 723 -39 1216 -128 1466 -128 
C 1760 -128 2208 -7 2470 604 
C 2662 1048 2688 1568 2688 2038 
z
M 1466 -26 
C 1056 -26 813 328 723 816 
C 653 1196 653 1749 653 2109 
C 653 2604 653 3015 736 3407 
C 858 3954 1216 4121 1466 4121 
C 1728 4121 2067 3947 2189 3420 
C 2272 3054 2278 2623 2278 2109 
C 2278 1691 2278 1176 2202 797 
C 2067 96 1690 -26 1466 -26 
z
" id="CMR17-30" transform="scale(0.015625)"/>
       </defs>
       <use transform="scale(0.996264)" xlink:href="#CMR17-30"/>
      </g>
     </g>
    </g>
    <g id="xtick_4">
     <g id="line2d_7">
      <path clip-path="url(#p554353cd71)" d="M 581.223445 170.28 
L 581.223445 7.2 
" style="fill:none;stroke:#b0b0b0;stroke-linecap:square;stroke-width:0.8;"/>
     </g>
     <g id="line2d_8">
      <g>
       <use style="stroke:#000000;stroke-width:0.8;" x="581.223445" xlink:href="#m7fbe26e1ca" y="170.28"/>
      </g>
     </g>
     <g id="text_4">
      <!-- $f_e$ -->
      <g transform="translate(574.779029 188.349588)scale(0.16 -0.16)">
       <use transform="scale(0.996264)" xlink:href="#CMMI12-66"/>
       <use transform="translate(48.083238 -14.943915)scale(0.697382)" xlink:href="#CMMI12-65"/>
      </g>
     </g>
    </g>
    <g id="xtick_5">
     <g id="line2d_9">
      <path clip-path="url(#p554353cd71)" d="M 723.893899 170.28 
L 723.893899 7.2 
" style="fill:none;stroke:#b0b0b0;stroke-linecap:square;stroke-width:0.8;"/>
     </g>
     <g id="line2d_10">
      <g>
       <use style="stroke:#000000;stroke-width:0.8;" x="723.893899" xlink:href="#m7fbe26e1ca" y="170.28"/>
      </g>
     </g>
     <g id="text_5">
      <!-- $2f_e$ -->
      <g transform="translate(713.54749 188.349588)scale(0.16 -0.16)">
       <use transform="scale(0.996264)" xlink:href="#CMR17-32"/>
       <use transform="translate(45.690477 0)scale(0.996264)" xlink:href="#CMMI12-66"/>
       <use transform="translate(93.773715 -14.943915)scale(0.697382)" xlink:href="#CMMI12-65"/>
      </g>
     </g>
    </g>
    <g id="text_6">
     <!-- $f$ -->
     <g transform="translate(434.706331 206.518653)scale(0.16 -0.16)">
      <use transform="scale(0.996264)" xlink:href="#CMMI12-66"/>
     </g>
    </g>
   </g>
   <g id="matplotlib.axis_2">
    <g id="ytick_1">
     <g id="line2d_11">
      <path clip-path="url(#p554353cd71)" d="M 20.05299 124.407614 
L 857.05299 124.407614 
" style="fill:none;stroke:#b0b0b0;stroke-linecap:square;stroke-width:0.8;"/>
     </g>
     <g id="line2d_12">
      <defs>
       <path d="M 0 0 
L -3.5 0 
" id="m420e7765b9" style="stroke:#000000;stroke-width:0.8;"/>
      </defs>
      <g>
       <use style="stroke:#000000;stroke-width:0.8;" x="20.05299" xlink:href="#m420e7765b9" y="124.407614"/>
      </g>
     </g>
     <g id="text_7">
      <!-- $\mathdefault{0}$ -->
      <g transform="translate(7.2 128.558704)scale(0.12 -0.12)">
       <use transform="scale(0.996264)" xlink:href="#CMR17-30"/>
      </g>
     </g>
    </g>
    <g id="ytick_2">
     <g id="line2d_13">
      <path clip-path="url(#p554353cd71)" d="M 20.05299 76.850795 
L 857.05299 76.850795 
" style="fill:none;stroke:#b0b0b0;stroke-linecap:square;stroke-width:0.8;"/>
     </g>
     <g id="line2d_14">
      <g>
       <use style="stroke:#000000;stroke-width:0.8;" x="20.05299" xlink:href="#m420e7765b9" y="76.850795"/>
      </g>
     </g>
     <g id="text_8">
      <!-- $\mathdefault{1}$ -->
      <g transform="translate(7.2 81.001885)scale(0.12 -0.12)">
       <defs>
        <path d="M 1702 4083 
C 1702 4217 1696 4224 1606 4224 
C 1357 3927 979 3833 621 3820 
C 602 3820 570 3820 563 3808 
C 557 3795 557 3782 557 3648 
C 755 3648 1088 3686 1344 3839 
L 1344 467 
C 1344 243 1331 166 781 166 
L 589 166 
L 589 0 
C 896 6 1216 12 1523 12 
C 1830 12 2150 6 2458 0 
L 2458 166 
L 2266 166 
C 1715 166 1702 236 1702 467 
L 1702 4083 
z
" id="CMR17-31" transform="scale(0.015625)"/>
       </defs>
       <use transform="scale(0.996264)" xlink:href="#CMR17-31"/>
      </g>
     </g>
    </g>
    <g id="ytick_3">
     <g id="line2d_15">
      <path clip-path="url(#p554353cd71)" d="M 20.05299 29.293977 
L 857.05299 29.293977 
" style="fill:none;stroke:#b0b0b0;stroke-linecap:square;stroke-width:0.8;"/>
     </g>
     <g id="line2d_16">
      <g>
       <use style="stroke:#000000;stroke-width:0.8;" x="20.05299" xlink:href="#m420e7765b9" y="29.293977"/>
      </g>
     </g>
     <g id="text_9">
      <!-- $\mathdefault{2}$ -->
      <g transform="translate(7.2 33.445067)scale(0.12 -0.12)">
       <use transform="scale(0.996264)" xlink:href="#CMR17-32"/>
      </g>
     </g>
    </g>
   </g>
   <g id="line2d_17">
    <path clip-path="url(#p554353cd71)" d="M 58.098445 124.407614 
L 105.655263 124.407614 
L 108.033104 109.558002 
L 110.410945 103.678077 
L 112.788786 99.355505 
L 115.166627 95.873523 
L 117.544468 92.951735 
L 119.922308 90.445252 
L 122.300149 88.267561 
L 124.67799 86.362159 
L 127.055831 84.68984 
L 129.433672 83.222201 
L 131.811513 81.938017 
L 134.189354 80.82107 
L 136.567195 79.858778 
L 138.945036 79.0413 
L 141.322877 78.360922 
L 143.700718 77.811638 
L 146.078558 77.388853 
L 148.456399 77.089177 
L 150.83424 76.910279 
L 153.212081 76.850795 
L 155.589922 76.910279 
L 157.967763 77.089177 
L 160.345604 77.388853 
L 162.723445 77.811638 
L 165.101286 78.360922 
L 167.479127 79.0413 
L 169.856968 79.858778 
L 172.234808 80.82107 
L 174.612649 81.938017 
L 176.99049 83.222201 
L 179.368331 84.68984 
L 181.746172 86.362159 
L 184.124013 88.267561 
L 186.501854 90.445252 
L 188.879695 92.951735 
L 191.257536 95.873523 
L 193.635377 99.355505 
L 196.013218 103.678077 
L 198.391058 109.558002 
L 200.768899 124.407607 
L 248.325718 124.407614 
L 250.703558 109.558002 
L 253.081399 103.678077 
L 255.45924 99.355505 
L 257.837081 95.873523 
L 260.214922 92.951735 
L 262.592763 90.445252 
L 264.970604 88.267561 
L 267.348445 86.362159 
L 269.726286 84.68984 
L 272.104127 83.222201 
L 274.481968 81.938017 
L 276.859808 80.82107 
L 279.237649 79.858778 
L 281.61549 79.0413 
L 283.993331 78.360922 
L 286.371172 77.811638 
L 288.749013 77.388853 
L 291.126854 77.089177 
L 293.504695 76.910279 
L 295.882536 76.850795 
L 298.260377 76.910279 
L 300.638218 77.089177 
L 303.016058 77.388853 
L 305.393899 77.811638 
L 307.77174 78.360922 
L 310.149581 79.0413 
L 312.527422 79.858778 
L 314.905263 80.82107 
L 317.283104 81.938017 
L 319.660945 83.222201 
L 322.038786 84.68984 
L 324.416627 86.362159 
L 326.794468 88.267561 
L 329.172308 90.445252 
L 331.550149 92.951735 
L 333.92799 95.873523 
L 336.305831 99.355505 
L 338.683672 103.678077 
L 341.061513 109.558002 
L 343.439354 124.407604 
L 390.996172 124.407614 
L 393.374013 109.558002 
L 395.751854 103.678077 
L 398.129695 99.355505 
L 400.507536 95.873523 
L 402.885377 92.951735 
L 405.263218 90.445252 
L 407.641058 88.267561 
L 410.018899 86.362159 
L 412.39674 84.68984 
L 414.774581 83.222201 
L 417.152422 81.938017 
L 419.530263 80.82107 
L 421.908104 79.858778 
L 424.285945 79.0413 
L 426.663786 78.360922 
L 429.041627 77.811638 
L 431.419468 77.388853 
L 433.797308 77.089177 
L 436.175149 76.910279 
L 438.55299 76.850795 
L 440.930831 76.910279 
L 443.308672 77.089177 
L 445.686513 77.388853 
L 448.064354 77.811638 
L 450.442195 78.360922 
L 452.820036 79.0413 
L 455.197877 79.858778 
L 457.575718 80.82107 
L 459.953558 81.938017 
L 462.331399 83.222201 
L 464.70924 84.68984 
L 467.087081 86.362159 
L 469.464922 88.267561 
L 471.842763 90.445252 
L 474.220604 92.951735 
L 476.598445 95.873523 
L 478.976286 99.355505 
L 481.354127 103.678077 
L 483.731968 109.558002 
L 486.109808 124.407602 
L 533.666627 124.407614 
L 536.044468 109.558002 
L 538.422308 103.678077 
L 540.800149 99.355505 
L 543.17799 95.873523 
L 545.555831 92.951735 
L 547.933672 90.445252 
L 550.311513 88.267561 
L 552.689354 86.362159 
L 555.067195 84.68984 
L 557.445036 83.222201 
L 559.822877 81.938017 
L 562.200718 80.82107 
L 564.578558 79.858778 
L 566.956399 79.0413 
L 569.33424 78.360922 
L 571.712081 77.811638 
L 574.089922 77.388853 
L 576.467763 77.089177 
L 578.845604 76.910279 
L 581.223445 76.850795 
L 583.601286 76.910279 
L 585.979127 77.089177 
L 588.356968 77.388853 
L 590.734808 77.811638 
L 593.112649 78.360922 
L 595.49049 79.0413 
L 597.868331 79.858778 
L 600.246172 80.82107 
L 602.624013 81.938017 
L 605.001854 83.222201 
L 607.379695 84.68984 
L 609.757536 86.362159 
L 612.135377 88.267561 
L 614.513218 90.445252 
L 616.891058 92.951735 
L 619.268899 95.873523 
L 621.64674 99.355505 
L 624.024581 103.678077 
L 626.402422 109.558002 
L 628.780263 124.4076 
L 676.337081 124.407614 
L 678.714922 109.558002 
L 681.092763 103.678077 
L 683.470604 99.355505 
L 685.848445 95.873523 
L 688.226286 92.951735 
L 690.604127 90.445252 
L 692.981968 88.267561 
L 695.359808 86.362159 
L 697.737649 84.68984 
L 700.11549 83.222201 
L 702.493331 81.938017 
L 704.871172 80.82107 
L 707.249013 79.858778 
L 709.626854 79.0413 
L 712.004695 78.360922 
L 714.382536 77.811638 
L 716.760377 77.388853 
L 719.138218 77.089177 
L 721.516058 76.910279 
L 723.893899 76.850795 
L 726.27174 76.910279 
L 728.649581 77.089177 
L 731.027422 77.388853 
L 733.405263 77.811638 
L 735.783104 78.360922 
L 738.160945 79.0413 
L 740.538786 79.858778 
L 742.916627 80.82107 
L 745.294468 81.938017 
L 747.672308 83.222201 
L 750.050149 84.68984 
L 752.42799 86.362159 
L 754.805831 88.267561 
L 757.183672 90.445252 
L 759.561513 92.951735 
L 761.939354 95.873523 
L 764.317195 99.355505 
L 766.695036 103.678077 
L 769.072877 109.558002 
L 771.450718 124.407598 
L 816.629695 124.407614 
L 816.629695 124.407614 
" style="fill:none;stroke:#ff7f0e;stroke-linecap:square;stroke-width:1.5;"/>
   </g>
   <g id="line2d_18">
    <path clip-path="url(#p554353cd71)" d="M 58.098445 124.407614 
L 367.217763 124.407614 
L 367.217763 53.072386 
L 509.888218 53.072386 
L 509.888218 124.407614 
L 819.007536 124.407614 
" style="fill:none;stroke:#550055;stroke-dasharray:5.55,2.4;stroke-dashoffset:0;stroke-width:1.5;"/>
   </g>
   <g id="patch_3">
    <path d="M 20.05299 170.28 
L 20.05299 7.2 
" style="fill:none;stroke:#000000;stroke-linecap:square;stroke-linejoin:miter;stroke-width:0.8;"/>
   </g>
   <g id="patch_4">
    <path d="M 857.05299 170.28 
L 857.05299 7.2 
" style="fill:none;stroke:#000000;stroke-linecap:square;stroke-linejoin:miter;stroke-width:0.8;"/>
   </g>
   <g id="patch_5">
    <path d="M 20.05299 170.28 
L 857.05299 170.28 
" style="fill:none;stroke:#000000;stroke-linecap:square;stroke-linejoin:miter;stroke-width:0.8;"/>
   </g>
   <g id="patch_6">
    <path d="M 20.05299 7.2 
L 857.05299 7.2 
" style="fill:none;stroke:#000000;stroke-linecap:square;stroke-linejoin:miter;stroke-width:0.8;"/>
   </g>
   <g id="text_10">
    <!-- $-f_c$ -->
    <g transform="translate(353.271473 139.238755)scale(0.18 -0.18)">
     <defs>
      <path d="M 2502 2432 
C 2381 2432 2323 2432 2234 2355 
C 2195 2323 2125 2227 2125 2124 
C 2125 1996 2221 1919 2342 1919 
C 2496 1919 2669 2047 2669 2303 
C 2669 2591 2374 2816 1933 2816 
C 1094 2816 256 1932 256 1011 
C 256 446 602 -64 1254 -64 
C 2125 -64 2675 622 2675 706 
C 2675 745 2637 777 2611 777 
C 2592 777 2586 771 2528 712 
C 2118 161 1510 64 1267 64 
C 826 64 685 453 685 777 
C 685 1004 794 1634 1024 2073 
C 1190 2374 1536 2687 1939 2687 
C 2022 2687 2374 2676 2502 2432 
z
" id="CMMI12-63" transform="scale(0.015625)"/>
     </defs>
     <use transform="scale(0.996264)" xlink:href="#CMSY10-0"/>
     <use transform="translate(77.487468 0)scale(0.996264)" xlink:href="#CMMI12-66"/>
     <use transform="translate(125.570705 -14.943915)scale(0.697382)" xlink:href="#CMMI12-63"/>
    </g>
   </g>
   <g id="text_11">
    <!-- $f_c$ -->
    <g transform="translate(502.915798 139.238755)scale(0.18 -0.18)">
     <use transform="scale(0.996264)" xlink:href="#CMMI12-66"/>
     <use transform="translate(48.083238 -14.943915)scale(0.697382)" xlink:href="#CMMI12-63"/>
    </g>
   </g>
   <g id="legend_1">
    <g id="patch_7">
     <path d="M 752.834194 43.940224 
L 845.85299 43.940224 
Q 849.05299 43.940224 849.05299 40.740224 
L 849.05299 18.4 
Q 849.05299 15.2 845.85299 15.2 
L 752.834194 15.2 
Q 749.634194 15.2 749.634194 18.4 
L 749.634194 40.740224 
Q 749.634194 43.940224 752.834194 43.940224 
z
" style="fill:#ffffff;opacity:0.8;stroke:#cccccc;stroke-linejoin:miter;"/>
    </g>
    <g id="line2d_19">
     <path d="M 756.034194 27.955168 
L 788.034194 27.955168 
" style="fill:none;stroke:#ff7f0e;stroke-linecap:square;stroke-width:1.5;"/>
    </g>
    <g id="line2d_20"/>
    <g id="text_12">
     <!-- $X^*(f)$ -->
     <g transform="translate(800.834194 33.555168)scale(0.16 -0.16)">
      <defs>
       <path d="M 3040 2586 
L 2438 3981 
C 2522 4134 2714 4159 2790 4166 
C 2829 4166 2899 4172 2899 4281 
C 2899 4352 2842 4352 2803 4352 
C 2694 4352 2566 4339 2458 4339 
L 2086 4339 
C 1696 4339 1414 4352 1408 4352 
C 1357 4352 1293 4352 1293 4230 
C 1293 4166 1350 4166 1434 4166 
C 1805 4166 1830 4102 1894 3949 
L 2656 2179 
L 1267 701 
C 1037 453 762 211 288 185 
C 211 179 160 179 160 64 
C 160 44 166 0 237 0 
C 326 0 422 12 512 12 
L 813 12 
C 1018 12 1242 0 1440 0 
C 1485 0 1562 0 1562 115 
C 1562 179 1517 185 1478 185 
C 1350 198 1267 268 1267 370 
C 1267 478 1344 555 1530 746 
L 2099 1363 
C 2240 1510 2579 1879 2720 2019 
L 3392 453 
C 3398 440 3424 376 3424 370 
C 3424 312 3283 198 3078 185 
C 3040 185 2970 179 2970 64 
C 2970 0 3034 0 3066 0 
C 3174 0 3302 12 3411 12 
L 4115 12 
C 4230 12 4352 0 4461 0 
C 4506 0 4576 0 4576 121 
C 4576 185 4512 185 4454 185 
C 4070 191 4058 223 3949 459 
L 3104 2433 
L 3917 3300 
C 3981 3363 4128 3523 4186 3586 
C 4461 3873 4717 4134 5235 4166 
C 5299 4172 5363 4172 5363 4281 
C 5363 4352 5306 4352 5280 4352 
C 5190 4352 5094 4339 5005 4339 
L 4710 4339 
C 4506 4339 4282 4352 4083 4352 
C 4038 4352 3962 4352 3962 4236 
C 3962 4172 4006 4166 4045 4166 
C 4147 4153 4256 4102 4256 3981 
L 4250 3968 
C 4243 3924 4230 3860 4160 3784 
L 3040 2586 
z
" id="CMMI12-58" transform="scale(0.015625)"/>
       <path d="M 1760 2762 
C 1766 2853 1766 3008 1600 3008 
C 1498 3008 1414 2924 1434 2840 
L 1434 2755 
L 1523 1740 
L 704 2349 
C 646 2382 634 2395 589 2395 
C 499 2395 416 2303 416 2212 
C 416 2107 480 2081 544 2048 
L 1453 1603 
L 570 1164 
C 467 1112 416 1085 416 987 
C 416 889 499 804 589 804 
C 634 804 646 804 806 928 
L 1523 1459 
L 1427 359 
C 1427 224 1542 192 1594 192 
C 1670 192 1766 236 1766 359 
L 1670 1459 
L 2490 850 
C 2547 817 2560 804 2605 804 
C 2694 804 2778 896 2778 987 
C 2778 1085 2720 1118 2643 1157 
C 2259 1354 2246 1354 1741 1596 
L 2624 2035 
C 2726 2087 2778 2113 2778 2212 
C 2778 2310 2694 2395 2605 2395 
C 2560 2395 2547 2395 2387 2271 
L 1670 1740 
L 1760 2762 
z
" id="CMSY10-3" transform="scale(0.015625)"/>
       <path d="M 1958 -1562 
C 1958 -1556 1958 -1543 1939 -1524 
C 1645 -1223 858 -403 858 1596 
C 858 3595 1632 4408 1946 4729 
C 1946 4735 1958 4748 1958 4767 
C 1958 4787 1939 4800 1914 4800 
C 1843 4800 1299 4325 986 3620 
C 666 2909 576 2218 576 1603 
C 576 1141 621 360 1005 -467 
C 1312 -1133 1837 -1600 1914 -1600 
C 1946 -1600 1958 -1588 1958 -1562 
z
" id="CMR17-28" transform="scale(0.015625)"/>
       <path d="M 1683 1596 
C 1683 2057 1638 2839 1254 3665 
C 947 4332 422 4800 346 4800 
C 326 4800 301 4793 301 4761 
C 301 4748 307 4742 314 4729 
C 621 4408 1402 3595 1402 1603 
C 1402 -396 627 -1210 314 -1530 
C 307 -1543 301 -1549 301 -1562 
C 301 -1594 326 -1600 346 -1600 
C 416 -1600 960 -1127 1274 -422 
C 1594 289 1683 981 1683 1596 
z
" id="CMR17-29" transform="scale(0.015625)"/>
      </defs>
      <use transform="scale(0.996264)" xlink:href="#CMMI12-58"/>
      <use transform="translate(88.792562 36.153639)scale(0.697382)" xlink:href="#CMSY10-3"/>
      <use transform="translate(124.159904 0)scale(0.996264)" xlink:href="#CMR17-28"/>
      <use transform="translate(159.440672 0)scale(0.996264)" xlink:href="#CMMI12-66"/>
      <use transform="translate(218.160977 0)scale(0.996264)" xlink:href="#CMR17-29"/>
     </g>
    </g>
   </g>
  </g>
 </g>
 <defs>
  <clipPath id="p554353cd71">
   <rect height="163.08" width="837" x="20.05299" y="7.2"/>
  </clipPath>
 </defs>
</svg>
