<?xml version="1.0" encoding="utf-8" standalone="no"?>
<!DOCTYPE svg PUBLIC "-//W3C//DTD SVG 1.1//EN"
  "http://www.w3.org/Graphics/SVG/1.1/DTD/svg11.dtd">
<svg height="229.829064pt" version="1.1" viewBox="0 0 882.656131 229.829064" width="882.656131pt" xmlns="http://www.w3.org/2000/svg" xmlns:xlink="http://www.w3.org/1999/xlink">
 <metadata>
  <rdf:RDF xmlns:cc="http://creativecommons.org/ns#" xmlns:dc="http://purl.org/dc/elements/1.1/" xmlns:rdf="http://www.w3.org/1999/02/22-rdf-syntax-ns#">
   <cc:Work>
    <dc:type rdf:resource="http://purl.org/dc/dcmitype/StillImage"/>
    <dc:date>2022-12-06T21:51:22.676140</dc:date>
    <dc:format>image/svg+xml</dc:format>
    <dc:creator>
     <cc:Agent>
      <dc:title>Matplotlib v3.4.3, https://matplotlib.org/</dc:title>
     </cc:Agent>
    </dc:creator>
   </cc:Work>
  </rdf:RDF>
 </metadata>
 <defs>
  <style type="text/css">*{stroke-linecap:butt;stroke-linejoin:round;}</style>
 </defs>
 <g id="figure_1">
  <g id="patch_1">
   <path d="M 0 229.829064 
L 882.656131 229.829064 
L 882.656131 0 
L 0 0 
z
" style="fill:none;"/>
  </g>
  <g id="axes_1">
   <g id="patch_2">
    <path d="M 38.456131 197.46 
L 875.456131 197.46 
L 875.456131 7.2 
L 38.456131 7.2 
z
" style="fill:#ffffff;"/>
   </g>
   <g id="matplotlib.axis_1">
    <g id="xtick_1">
     <g id="line2d_1">
      <path clip-path="url(#pe216ab8a35)" d="M 76.501586 197.46 
L 76.501586 7.2 
" style="fill:none;stroke:#b0b0b0;stroke-linecap:square;stroke-width:0.8;"/>
     </g>
     <g id="line2d_2">
      <defs>
       <path d="M 0 0 
L 0 3.5 
" id="m456f0b47ec" style="stroke:#000000;stroke-width:0.8;"/>
      </defs>
      <g>
       <use style="stroke:#000000;stroke-width:0.8;" x="76.501586" xlink:href="#m456f0b47ec" y="197.46"/>
      </g>
     </g>
    </g>
    <g id="xtick_2">
     <g id="line2d_3">
      <path clip-path="url(#pe216ab8a35)" d="M 106.907543 197.46 
L 106.907543 7.2 
" style="fill:none;stroke:#b0b0b0;stroke-linecap:square;stroke-width:0.8;"/>
     </g>
     <g id="line2d_4">
      <g>
       <use style="stroke:#000000;stroke-width:0.8;" x="106.907543" xlink:href="#m456f0b47ec" y="197.46"/>
      </g>
     </g>
    </g>
    <g id="xtick_3">
     <g id="line2d_5">
      <path clip-path="url(#pe216ab8a35)" d="M 137.313501 197.46 
L 137.313501 7.2 
" style="fill:none;stroke:#b0b0b0;stroke-linecap:square;stroke-width:0.8;"/>
     </g>
     <g id="line2d_6">
      <g>
       <use style="stroke:#000000;stroke-width:0.8;" x="137.313501" xlink:href="#m456f0b47ec" y="197.46"/>
      </g>
     </g>
    </g>
    <g id="xtick_4">
     <g id="line2d_7">
      <path clip-path="url(#pe216ab8a35)" d="M 167.719459 197.46 
L 167.719459 7.2 
" style="fill:none;stroke:#b0b0b0;stroke-linecap:square;stroke-width:0.8;"/>
     </g>
     <g id="line2d_8">
      <g>
       <use style="stroke:#000000;stroke-width:0.8;" x="167.719459" xlink:href="#m456f0b47ec" y="197.46"/>
      </g>
     </g>
    </g>
    <g id="xtick_5">
     <g id="line2d_9">
      <path clip-path="url(#pe216ab8a35)" d="M 198.125416 197.46 
L 198.125416 7.2 
" style="fill:none;stroke:#b0b0b0;stroke-linecap:square;stroke-width:0.8;"/>
     </g>
     <g id="line2d_10">
      <g>
       <use style="stroke:#000000;stroke-width:0.8;" x="198.125416" xlink:href="#m456f0b47ec" y="197.46"/>
      </g>
     </g>
    </g>
    <g id="xtick_6">
     <g id="line2d_11">
      <path clip-path="url(#pe216ab8a35)" d="M 228.531374 197.46 
L 228.531374 7.2 
" style="fill:none;stroke:#b0b0b0;stroke-linecap:square;stroke-width:0.8;"/>
     </g>
     <g id="line2d_12">
      <g>
       <use style="stroke:#000000;stroke-width:0.8;" x="228.531374" xlink:href="#m456f0b47ec" y="197.46"/>
      </g>
     </g>
    </g>
    <g id="xtick_7">
     <g id="line2d_13">
      <path clip-path="url(#pe216ab8a35)" d="M 258.937332 197.46 
L 258.937332 7.2 
" style="fill:none;stroke:#b0b0b0;stroke-linecap:square;stroke-width:0.8;"/>
     </g>
     <g id="line2d_14">
      <g>
       <use style="stroke:#000000;stroke-width:0.8;" x="258.937332" xlink:href="#m456f0b47ec" y="197.46"/>
      </g>
     </g>
    </g>
    <g id="xtick_8">
     <g id="line2d_15">
      <path clip-path="url(#pe216ab8a35)" d="M 289.343289 197.46 
L 289.343289 7.2 
" style="fill:none;stroke:#b0b0b0;stroke-linecap:square;stroke-width:0.8;"/>
     </g>
     <g id="line2d_16">
      <g>
       <use style="stroke:#000000;stroke-width:0.8;" x="289.343289" xlink:href="#m456f0b47ec" y="197.46"/>
      </g>
     </g>
    </g>
    <g id="xtick_9">
     <g id="line2d_17">
      <path clip-path="url(#pe216ab8a35)" d="M 319.749247 197.46 
L 319.749247 7.2 
" style="fill:none;stroke:#b0b0b0;stroke-linecap:square;stroke-width:0.8;"/>
     </g>
     <g id="line2d_18">
      <g>
       <use style="stroke:#000000;stroke-width:0.8;" x="319.749247" xlink:href="#m456f0b47ec" y="197.46"/>
      </g>
     </g>
    </g>
    <g id="xtick_10">
     <g id="line2d_19">
      <path clip-path="url(#pe216ab8a35)" d="M 350.155205 197.46 
L 350.155205 7.2 
" style="fill:none;stroke:#b0b0b0;stroke-linecap:square;stroke-width:0.8;"/>
     </g>
     <g id="line2d_20">
      <g>
       <use style="stroke:#000000;stroke-width:0.8;" x="350.155205" xlink:href="#m456f0b47ec" y="197.46"/>
      </g>
     </g>
    </g>
    <g id="xtick_11">
     <g id="line2d_21">
      <path clip-path="url(#pe216ab8a35)" d="M 380.561163 197.46 
L 380.561163 7.2 
" style="fill:none;stroke:#b0b0b0;stroke-linecap:square;stroke-width:0.8;"/>
     </g>
     <g id="line2d_22">
      <g>
       <use style="stroke:#000000;stroke-width:0.8;" x="380.561163" xlink:href="#m456f0b47ec" y="197.46"/>
      </g>
     </g>
    </g>
    <g id="xtick_12">
     <g id="line2d_23">
      <path clip-path="url(#pe216ab8a35)" d="M 410.96712 197.46 
L 410.96712 7.2 
" style="fill:none;stroke:#b0b0b0;stroke-linecap:square;stroke-width:0.8;"/>
     </g>
     <g id="line2d_24">
      <g>
       <use style="stroke:#000000;stroke-width:0.8;" x="410.96712" xlink:href="#m456f0b47ec" y="197.46"/>
      </g>
     </g>
    </g>
    <g id="xtick_13">
     <g id="line2d_25">
      <path clip-path="url(#pe216ab8a35)" d="M 441.373078 197.46 
L 441.373078 7.2 
" style="fill:none;stroke:#b0b0b0;stroke-linecap:square;stroke-width:0.8;"/>
     </g>
     <g id="line2d_26">
      <g>
       <use style="stroke:#000000;stroke-width:0.8;" x="441.373078" xlink:href="#m456f0b47ec" y="197.46"/>
      </g>
     </g>
    </g>
    <g id="xtick_14">
     <g id="line2d_27">
      <path clip-path="url(#pe216ab8a35)" d="M 471.779036 197.46 
L 471.779036 7.2 
" style="fill:none;stroke:#b0b0b0;stroke-linecap:square;stroke-width:0.8;"/>
     </g>
     <g id="line2d_28">
      <g>
       <use style="stroke:#000000;stroke-width:0.8;" x="471.779036" xlink:href="#m456f0b47ec" y="197.46"/>
      </g>
     </g>
    </g>
    <g id="xtick_15">
     <g id="line2d_29">
      <path clip-path="url(#pe216ab8a35)" d="M 502.184993 197.46 
L 502.184993 7.2 
" style="fill:none;stroke:#b0b0b0;stroke-linecap:square;stroke-width:0.8;"/>
     </g>
     <g id="line2d_30">
      <g>
       <use style="stroke:#000000;stroke-width:0.8;" x="502.184993" xlink:href="#m456f0b47ec" y="197.46"/>
      </g>
     </g>
    </g>
    <g id="xtick_16">
     <g id="line2d_31">
      <path clip-path="url(#pe216ab8a35)" d="M 532.590951 197.46 
L 532.590951 7.2 
" style="fill:none;stroke:#b0b0b0;stroke-linecap:square;stroke-width:0.8;"/>
     </g>
     <g id="line2d_32">
      <g>
       <use style="stroke:#000000;stroke-width:0.8;" x="532.590951" xlink:href="#m456f0b47ec" y="197.46"/>
      </g>
     </g>
    </g>
    <g id="xtick_17">
     <g id="line2d_33">
      <path clip-path="url(#pe216ab8a35)" d="M 562.996909 197.46 
L 562.996909 7.2 
" style="fill:none;stroke:#b0b0b0;stroke-linecap:square;stroke-width:0.8;"/>
     </g>
     <g id="line2d_34">
      <g>
       <use style="stroke:#000000;stroke-width:0.8;" x="562.996909" xlink:href="#m456f0b47ec" y="197.46"/>
      </g>
     </g>
    </g>
    <g id="xtick_18">
     <g id="line2d_35">
      <path clip-path="url(#pe216ab8a35)" d="M 593.402866 197.46 
L 593.402866 7.2 
" style="fill:none;stroke:#b0b0b0;stroke-linecap:square;stroke-width:0.8;"/>
     </g>
     <g id="line2d_36">
      <g>
       <use style="stroke:#000000;stroke-width:0.8;" x="593.402866" xlink:href="#m456f0b47ec" y="197.46"/>
      </g>
     </g>
    </g>
    <g id="xtick_19">
     <g id="line2d_37">
      <path clip-path="url(#pe216ab8a35)" d="M 623.808824 197.46 
L 623.808824 7.2 
" style="fill:none;stroke:#b0b0b0;stroke-linecap:square;stroke-width:0.8;"/>
     </g>
     <g id="line2d_38">
      <g>
       <use style="stroke:#000000;stroke-width:0.8;" x="623.808824" xlink:href="#m456f0b47ec" y="197.46"/>
      </g>
     </g>
    </g>
    <g id="xtick_20">
     <g id="line2d_39">
      <path clip-path="url(#pe216ab8a35)" d="M 654.214782 197.46 
L 654.214782 7.2 
" style="fill:none;stroke:#b0b0b0;stroke-linecap:square;stroke-width:0.8;"/>
     </g>
     <g id="line2d_40">
      <g>
       <use style="stroke:#000000;stroke-width:0.8;" x="654.214782" xlink:href="#m456f0b47ec" y="197.46"/>
      </g>
     </g>
    </g>
    <g id="xtick_21">
     <g id="line2d_41">
      <path clip-path="url(#pe216ab8a35)" d="M 684.620739 197.46 
L 684.620739 7.2 
" style="fill:none;stroke:#b0b0b0;stroke-linecap:square;stroke-width:0.8;"/>
     </g>
     <g id="line2d_42">
      <g>
       <use style="stroke:#000000;stroke-width:0.8;" x="684.620739" xlink:href="#m456f0b47ec" y="197.46"/>
      </g>
     </g>
    </g>
    <g id="xtick_22">
     <g id="line2d_43">
      <path clip-path="url(#pe216ab8a35)" d="M 715.026697 197.46 
L 715.026697 7.2 
" style="fill:none;stroke:#b0b0b0;stroke-linecap:square;stroke-width:0.8;"/>
     </g>
     <g id="line2d_44">
      <g>
       <use style="stroke:#000000;stroke-width:0.8;" x="715.026697" xlink:href="#m456f0b47ec" y="197.46"/>
      </g>
     </g>
    </g>
    <g id="xtick_23">
     <g id="line2d_45">
      <path clip-path="url(#pe216ab8a35)" d="M 745.432655 197.46 
L 745.432655 7.2 
" style="fill:none;stroke:#b0b0b0;stroke-linecap:square;stroke-width:0.8;"/>
     </g>
     <g id="line2d_46">
      <g>
       <use style="stroke:#000000;stroke-width:0.8;" x="745.432655" xlink:href="#m456f0b47ec" y="197.46"/>
      </g>
     </g>
    </g>
    <g id="xtick_24">
     <g id="line2d_47">
      <path clip-path="url(#pe216ab8a35)" d="M 775.838612 197.46 
L 775.838612 7.2 
" style="fill:none;stroke:#b0b0b0;stroke-linecap:square;stroke-width:0.8;"/>
     </g>
     <g id="line2d_48">
      <g>
       <use style="stroke:#000000;stroke-width:0.8;" x="775.838612" xlink:href="#m456f0b47ec" y="197.46"/>
      </g>
     </g>
    </g>
    <g id="xtick_25">
     <g id="line2d_49">
      <path clip-path="url(#pe216ab8a35)" d="M 806.24457 197.46 
L 806.24457 7.2 
" style="fill:none;stroke:#b0b0b0;stroke-linecap:square;stroke-width:0.8;"/>
     </g>
     <g id="line2d_50">
      <g>
       <use style="stroke:#000000;stroke-width:0.8;" x="806.24457" xlink:href="#m456f0b47ec" y="197.46"/>
      </g>
     </g>
    </g>
    <g id="xtick_26">
     <g id="line2d_51">
      <path clip-path="url(#pe216ab8a35)" d="M 836.650528 197.46 
L 836.650528 7.2 
" style="fill:none;stroke:#b0b0b0;stroke-linecap:square;stroke-width:0.8;"/>
     </g>
     <g id="line2d_52">
      <g>
       <use style="stroke:#000000;stroke-width:0.8;" x="836.650528" xlink:href="#m456f0b47ec" y="197.46"/>
      </g>
     </g>
    </g>
    <g id="text_1">
     <!-- $t$ -->
     <g transform="translate(454.138025 219.529588)scale(0.16 -0.16)">
      <defs>
       <path d="M 1286 2566 
L 1875 2566 
C 1997 2566 2061 2566 2061 2681 
C 2061 2752 2022 2752 1894 2752 
L 1331 2752 
L 1568 3664 
C 1594 3752 1594 3764 1594 3808 
C 1594 3910 1510 3968 1427 3968 
C 1376 3968 1229 3948 1178 3746 
L 928 2752 
L 326 2752 
C 198 2752 141 2752 141 2630 
C 141 2566 186 2566 307 2566 
L 877 2566 
L 454 881 
C 403 657 384 593 384 510 
C 384 210 595 -64 954 -64 
C 1600 -64 1946 868 1946 913 
C 1946 951 1920 970 1882 970 
C 1869 970 1843 970 1830 944 
C 1824 938 1818 932 1773 830 
C 1638 510 1344 64 973 64 
C 781 64 768 223 768 364 
C 768 370 768 491 787 568 
L 1286 2566 
z
" id="CMMI12-74" transform="scale(0.015625)"/>
      </defs>
      <use transform="scale(0.996264)" xlink:href="#CMMI12-74"/>
     </g>
    </g>
   </g>
   <g id="matplotlib.axis_2">
    <g id="ytick_1">
     <g id="line2d_53">
      <path clip-path="url(#pe216ab8a35)" d="M 38.456131 158.884043 
L 875.456131 158.884043 
" style="fill:none;stroke:#b0b0b0;stroke-linecap:square;stroke-width:0.8;"/>
     </g>
     <g id="line2d_54">
      <defs>
       <path d="M 0 0 
L -3.5 0 
" id="mc7226d707e" style="stroke:#000000;stroke-width:0.8;"/>
      </defs>
      <g>
       <use style="stroke:#000000;stroke-width:0.8;" x="38.456131" xlink:href="#mc7226d707e" y="158.884043"/>
      </g>
     </g>
     <g id="text_2">
      <!-- $\mathdefault{−0.5}$ -->
      <g transform="translate(7.2 163.035133)scale(0.12 -0.12)">
       <defs>
        <path d="M 4218 1472 
C 4326 1472 4442 1472 4442 1600 
C 4442 1728 4326 1728 4218 1728 
L 755 1728 
C 646 1728 531 1728 531 1600 
C 531 1472 646 1472 755 1472 
L 4218 1472 
z
" id="CMSY10-0" transform="scale(0.015625)"/>
        <path d="M 2688 2038 
C 2688 2430 2682 3099 2413 3613 
C 2176 4063 1798 4224 1466 4224 
C 1158 4224 768 4082 525 3620 
C 269 3137 243 2539 243 2038 
C 243 1671 250 1112 448 623 
C 723 -39 1216 -128 1466 -128 
C 1760 -128 2208 -7 2470 604 
C 2662 1048 2688 1568 2688 2038 
z
M 1466 -26 
C 1056 -26 813 328 723 816 
C 653 1196 653 1749 653 2109 
C 653 2604 653 3015 736 3407 
C 858 3954 1216 4121 1466 4121 
C 1728 4121 2067 3947 2189 3420 
C 2272 3054 2278 2623 2278 2109 
C 2278 1691 2278 1176 2202 797 
C 2067 96 1690 -26 1466 -26 
z
" id="CMR17-30" transform="scale(0.015625)"/>
        <path d="M 1178 307 
C 1178 492 1024 620 870 620 
C 685 620 557 467 557 313 
C 557 128 710 0 864 0 
C 1050 0 1178 153 1178 307 
z
" id="CMMI12-3a" transform="scale(0.015625)"/>
        <path d="M 730 3750 
C 794 3724 1056 3641 1325 3641 
C 1920 3641 2246 3961 2432 4140 
C 2432 4191 2432 4224 2394 4224 
C 2387 4224 2374 4224 2323 4198 
C 2099 4102 1837 4032 1517 4032 
C 1325 4032 1037 4055 723 4191 
C 653 4224 640 4224 634 4224 
C 602 4224 595 4217 595 4090 
L 595 2231 
C 595 2113 595 2080 659 2080 
C 691 2080 704 2093 736 2139 
C 941 2435 1222 2560 1542 2560 
C 1766 2560 2246 2415 2246 1293 
C 2246 1087 2246 716 2054 422 
C 1894 159 1645 25 1370 25 
C 947 25 518 319 403 812 
C 429 806 480 793 506 793 
C 589 793 749 838 749 1036 
C 749 1209 627 1280 506 1280 
C 358 1280 262 1190 262 1011 
C 262 454 704 -128 1382 -128 
C 2042 -128 2669 441 2669 1267 
C 2669 2054 2170 2662 1549 2662 
C 1222 2662 947 2540 730 2304 
L 730 3750 
z
" id="CMR17-35" transform="scale(0.015625)"/>
       </defs>
       <use transform="scale(0.996264)" xlink:href="#CMSY10-0"/>
       <use transform="translate(77.487468 0)scale(0.996264)" xlink:href="#CMR17-30"/>
       <use transform="translate(123.177945 0)scale(0.996264)" xlink:href="#CMMI12-3a"/>
       <use transform="translate(150.275122 0)scale(0.996264)" xlink:href="#CMR17-35"/>
      </g>
     </g>
    </g>
    <g id="ytick_2">
     <g id="line2d_55">
      <path clip-path="url(#pe216ab8a35)" d="M 38.456131 111.205379 
L 875.456131 111.205379 
" style="fill:none;stroke:#b0b0b0;stroke-linecap:square;stroke-width:0.8;"/>
     </g>
     <g id="line2d_56">
      <g>
       <use style="stroke:#000000;stroke-width:0.8;" x="38.456131" xlink:href="#mc7226d707e" y="111.205379"/>
      </g>
     </g>
     <g id="text_3">
      <!-- $\mathdefault{0.0}$ -->
      <g transform="translate(16.498489 115.356469)scale(0.12 -0.12)">
       <use transform="scale(0.996264)" xlink:href="#CMR17-30"/>
       <use transform="translate(45.690477 0)scale(0.996264)" xlink:href="#CMMI12-3a"/>
       <use transform="translate(72.787654 0)scale(0.996264)" xlink:href="#CMR17-30"/>
      </g>
     </g>
    </g>
    <g id="ytick_3">
     <g id="line2d_57">
      <path clip-path="url(#pe216ab8a35)" d="M 38.456131 63.526715 
L 875.456131 63.526715 
" style="fill:none;stroke:#b0b0b0;stroke-linecap:square;stroke-width:0.8;"/>
     </g>
     <g id="line2d_58">
      <g>
       <use style="stroke:#000000;stroke-width:0.8;" x="38.456131" xlink:href="#mc7226d707e" y="63.526715"/>
      </g>
     </g>
     <g id="text_4">
      <!-- $\mathdefault{0.5}$ -->
      <g transform="translate(16.498489 67.677805)scale(0.12 -0.12)">
       <use transform="scale(0.996264)" xlink:href="#CMR17-30"/>
       <use transform="translate(45.690477 0)scale(0.996264)" xlink:href="#CMMI12-3a"/>
       <use transform="translate(72.787654 0)scale(0.996264)" xlink:href="#CMR17-35"/>
      </g>
     </g>
    </g>
    <g id="ytick_4">
     <g id="line2d_59">
      <path clip-path="url(#pe216ab8a35)" d="M 38.456131 15.848051 
L 875.456131 15.848051 
" style="fill:none;stroke:#b0b0b0;stroke-linecap:square;stroke-width:0.8;"/>
     </g>
     <g id="line2d_60">
      <g>
       <use style="stroke:#000000;stroke-width:0.8;" x="38.456131" xlink:href="#mc7226d707e" y="15.848051"/>
      </g>
     </g>
     <g id="text_5">
      <!-- $\mathdefault{1.0}$ -->
      <g transform="translate(16.498489 19.999141)scale(0.12 -0.12)">
       <defs>
        <path d="M 1702 4083 
C 1702 4217 1696 4224 1606 4224 
C 1357 3927 979 3833 621 3820 
C 602 3820 570 3820 563 3808 
C 557 3795 557 3782 557 3648 
C 755 3648 1088 3686 1344 3839 
L 1344 467 
C 1344 243 1331 166 781 166 
L 589 166 
L 589 0 
C 896 6 1216 12 1523 12 
C 1830 12 2150 6 2458 0 
L 2458 166 
L 2266 166 
C 1715 166 1702 236 1702 467 
L 1702 4083 
z
" id="CMR17-31" transform="scale(0.015625)"/>
       </defs>
       <use transform="scale(0.996264)" xlink:href="#CMR17-31"/>
       <use transform="translate(45.690477 0)scale(0.996264)" xlink:href="#CMMI12-3a"/>
       <use transform="translate(72.787654 0)scale(0.996264)" xlink:href="#CMR17-30"/>
      </g>
     </g>
    </g>
   </g>
   <g id="line2d_61">
    <path clip-path="url(#pe216ab8a35)" d="M 76.501586 43.777566 
L 90.184267 39.885722 
L 103.106799 36.441831 
L 116.029331 33.234166 
L 128.191714 30.440064 
L 140.354097 27.872018 
L 152.51648 25.537216 
L 163.918714 23.565992 
L 175.320948 21.810367 
L 186.723182 20.274659 
L 198.125416 18.962646 
L 209.527651 17.877556 
L 220.929885 17.022058 
L 232.332119 16.398257 
L 243.734353 16.007688 
L 255.136587 15.85131 
L 266.538821 15.92951 
L 277.941055 16.242094 
L 289.343289 16.788293 
L 300.745524 17.566764 
L 312.147758 18.575593 
L 323.549992 19.812296 
L 334.952226 21.273831 
L 346.35446 22.956604 
L 357.756694 24.856475 
L 369.919077 27.117017 
L 382.08146 29.612916 
L 394.243843 32.337186 
L 406.406227 35.282202 
L 419.328759 38.643924 
L 432.251291 42.234913 
L 445.933972 46.274409 
L 459.616652 50.543901 
L 474.059482 55.283383 
L 489.262461 60.510372 
L 505.225589 66.236865 
L 522.709015 72.756439 
L 541.712738 80.09382 
L 562.996909 88.561559 
L 588.841973 99.097526 
L 639.011803 119.865307 
L 670.177909 132.621969 
L 692.982378 141.720092 
L 712.74625 149.365539 
L 730.229676 155.895573 
L 746.952953 161.900387 
L 762.155931 167.127376 
L 776.598761 171.866857 
L 791.041591 176.366936 
L 804.724272 180.393227 
L 817.646804 183.971037 
L 830.569336 187.318934 
L 836.650528 188.811818 
L 836.650528 188.811818 
" style="fill:none;stroke:#1f77b4;stroke-linecap:square;stroke-width:1.5;"/>
   </g>
   <g id="line2d_62">
    <path clip-path="url(#pe216ab8a35)" d="M 76.501586 111.205379 
L 76.501586 43.777566 
" style="fill:none;stroke:#ff7f0e;stroke-linecap:square;stroke-width:1.5;"/>
   </g>
   <g id="line2d_63">
    <defs>
     <path d="M 0 -4 
L -4 4 
L 4 4 
z
" id="mb655541afc" style="stroke:#ff7f0e;stroke-linejoin:miter;"/>
    </defs>
    <g clip-path="url(#pe216ab8a35)">
     <use style="fill:#ff7f0e;stroke:#ff7f0e;stroke-linejoin:miter;" x="76.501586" xlink:href="#mb655541afc" y="43.777566"/>
    </g>
   </g>
   <g id="line2d_64">
    <path clip-path="url(#pe216ab8a35)" d="M 76.501586 111.205379 
L 837.410677 111.205379 
" style="fill:none;stroke:#ff7f0e;stroke-linecap:square;stroke-width:1.5;"/>
   </g>
   <g id="line2d_65">
    <path clip-path="url(#pe216ab8a35)" d="M 106.907543 111.205379 
L 106.907543 35.47341 
" style="fill:none;stroke:#ff7f0e;stroke-linecap:square;stroke-width:1.5;"/>
   </g>
   <g id="line2d_66">
    <g clip-path="url(#pe216ab8a35)">
     <use style="fill:#ff7f0e;stroke:#ff7f0e;stroke-linejoin:miter;" x="106.907543" xlink:href="#mb655541afc" y="35.47341"/>
    </g>
   </g>
   <g id="line2d_67">
    <path clip-path="url(#pe216ab8a35)" d="M 76.501586 111.205379 
L 837.410677 111.205379 
" style="fill:none;stroke:#ff7f0e;stroke-linecap:square;stroke-width:1.5;"/>
   </g>
   <g id="line2d_68">
    <path clip-path="url(#pe216ab8a35)" d="M 137.313501 111.205379 
L 137.313501 28.492433 
" style="fill:none;stroke:#ff7f0e;stroke-linecap:square;stroke-width:1.5;"/>
   </g>
   <g id="line2d_69">
    <g clip-path="url(#pe216ab8a35)">
     <use style="fill:#ff7f0e;stroke:#ff7f0e;stroke-linejoin:miter;" x="137.313501" xlink:href="#mb655541afc" y="28.492433"/>
    </g>
   </g>
   <g id="line2d_70">
    <path clip-path="url(#pe216ab8a35)" d="M 76.501586 111.205379 
L 837.410677 111.205379 
" style="fill:none;stroke:#ff7f0e;stroke-linecap:square;stroke-width:1.5;"/>
   </g>
   <g id="line2d_71">
    <path clip-path="url(#pe216ab8a35)" d="M 167.719459 111.205379 
L 167.719459 22.956604 
" style="fill:none;stroke:#ff7f0e;stroke-linecap:square;stroke-width:1.5;"/>
   </g>
   <g id="line2d_72">
    <g clip-path="url(#pe216ab8a35)">
     <use style="fill:#ff7f0e;stroke:#ff7f0e;stroke-linejoin:miter;" x="167.719459" xlink:href="#mb655541afc" y="22.956604"/>
    </g>
   </g>
   <g id="line2d_73">
    <path clip-path="url(#pe216ab8a35)" d="M 76.501586 111.205379 
L 837.410677 111.205379 
" style="fill:none;stroke:#ff7f0e;stroke-linecap:square;stroke-width:1.5;"/>
   </g>
   <g id="line2d_74">
    <path clip-path="url(#pe216ab8a35)" d="M 198.125416 111.205379 
L 198.125416 18.962646 
" style="fill:none;stroke:#ff7f0e;stroke-linecap:square;stroke-width:1.5;"/>
   </g>
   <g id="line2d_75">
    <g clip-path="url(#pe216ab8a35)">
     <use style="fill:#ff7f0e;stroke:#ff7f0e;stroke-linejoin:miter;" x="198.125416" xlink:href="#mb655541afc" y="18.962646"/>
    </g>
   </g>
   <g id="line2d_76">
    <path clip-path="url(#pe216ab8a35)" d="M 76.501586 111.205379 
L 837.410677 111.205379 
" style="fill:none;stroke:#ff7f0e;stroke-linecap:square;stroke-width:1.5;"/>
   </g>
   <g id="line2d_77">
    <path clip-path="url(#pe216ab8a35)" d="M 228.531374 111.205379 
L 228.531374 16.58034 
" style="fill:none;stroke:#ff7f0e;stroke-linecap:square;stroke-width:1.5;"/>
   </g>
   <g id="line2d_78">
    <g clip-path="url(#pe216ab8a35)">
     <use style="fill:#ff7f0e;stroke:#ff7f0e;stroke-linejoin:miter;" x="228.531374" xlink:href="#mb655541afc" y="16.58034"/>
    </g>
   </g>
   <g id="line2d_79">
    <path clip-path="url(#pe216ab8a35)" d="M 76.501586 111.205379 
L 837.410677 111.205379 
" style="fill:none;stroke:#ff7f0e;stroke-linecap:square;stroke-width:1.5;"/>
   </g>
   <g id="line2d_80">
    <path clip-path="url(#pe216ab8a35)" d="M 258.937332 111.205379 
L 258.937332 15.85131 
" style="fill:none;stroke:#ff7f0e;stroke-linecap:square;stroke-width:1.5;"/>
   </g>
   <g id="line2d_81">
    <g clip-path="url(#pe216ab8a35)">
     <use style="fill:#ff7f0e;stroke:#ff7f0e;stroke-linejoin:miter;" x="258.937332" xlink:href="#mb655541afc" y="15.85131"/>
    </g>
   </g>
   <g id="line2d_82">
    <path clip-path="url(#pe216ab8a35)" d="M 76.501586 111.205379 
L 837.410677 111.205379 
" style="fill:none;stroke:#ff7f0e;stroke-linecap:square;stroke-width:1.5;"/>
   </g>
   <g id="line2d_83">
    <path clip-path="url(#pe216ab8a35)" d="M 289.343289 111.205379 
L 289.343289 16.788293 
" style="fill:none;stroke:#ff7f0e;stroke-linecap:square;stroke-width:1.5;"/>
   </g>
   <g id="line2d_84">
    <g clip-path="url(#pe216ab8a35)">
     <use style="fill:#ff7f0e;stroke:#ff7f0e;stroke-linejoin:miter;" x="289.343289" xlink:href="#mb655541afc" y="16.788293"/>
    </g>
   </g>
   <g id="line2d_85">
    <path clip-path="url(#pe216ab8a35)" d="M 76.501586 111.205379 
L 837.410677 111.205379 
" style="fill:none;stroke:#ff7f0e;stroke-linecap:square;stroke-width:1.5;"/>
   </g>
   <g id="line2d_86">
    <path clip-path="url(#pe216ab8a35)" d="M 319.749247 111.205379 
L 319.749247 19.374918 
" style="fill:none;stroke:#ff7f0e;stroke-linecap:square;stroke-width:1.5;"/>
   </g>
   <g id="line2d_87">
    <g clip-path="url(#pe216ab8a35)">
     <use style="fill:#ff7f0e;stroke:#ff7f0e;stroke-linejoin:miter;" x="319.749247" xlink:href="#mb655541afc" y="19.374918"/>
    </g>
   </g>
   <g id="line2d_88">
    <path clip-path="url(#pe216ab8a35)" d="M 76.501586 111.205379 
L 837.410677 111.205379 
" style="fill:none;stroke:#ff7f0e;stroke-linecap:square;stroke-width:1.5;"/>
   </g>
   <g id="line2d_89">
    <path clip-path="url(#pe216ab8a35)" d="M 350.155205 111.205379 
L 350.155205 23.565992 
" style="fill:none;stroke:#ff7f0e;stroke-linecap:square;stroke-width:1.5;"/>
   </g>
   <g id="line2d_90">
    <g clip-path="url(#pe216ab8a35)">
     <use style="fill:#ff7f0e;stroke:#ff7f0e;stroke-linejoin:miter;" x="350.155205" xlink:href="#mb655541afc" y="23.565992"/>
    </g>
   </g>
   <g id="line2d_91">
    <path clip-path="url(#pe216ab8a35)" d="M 76.501586 111.205379 
L 837.410677 111.205379 
" style="fill:none;stroke:#ff7f0e;stroke-linecap:square;stroke-width:1.5;"/>
   </g>
   <g id="line2d_92">
    <path clip-path="url(#pe216ab8a35)" d="M 380.561163 111.205379 
L 380.561163 29.28829 
" style="fill:none;stroke:#ff7f0e;stroke-linecap:square;stroke-width:1.5;"/>
   </g>
   <g id="line2d_93">
    <g clip-path="url(#pe216ab8a35)">
     <use style="fill:#ff7f0e;stroke:#ff7f0e;stroke-linejoin:miter;" x="380.561163" xlink:href="#mb655541afc" y="29.28829"/>
    </g>
   </g>
   <g id="line2d_94">
    <path clip-path="url(#pe216ab8a35)" d="M 76.501586 111.205379 
L 837.410677 111.205379 
" style="fill:none;stroke:#ff7f0e;stroke-linecap:square;stroke-width:1.5;"/>
   </g>
   <g id="line2d_95">
    <path clip-path="url(#pe216ab8a35)" d="M 410.96712 111.205379 
L 410.96712 36.441831 
" style="fill:none;stroke:#ff7f0e;stroke-linecap:square;stroke-width:1.5;"/>
   </g>
   <g id="line2d_96">
    <g clip-path="url(#pe216ab8a35)">
     <use style="fill:#ff7f0e;stroke:#ff7f0e;stroke-linejoin:miter;" x="410.96712" xlink:href="#mb655541afc" y="36.441831"/>
    </g>
   </g>
   <g id="line2d_97">
    <path clip-path="url(#pe216ab8a35)" d="M 76.501586 111.205379 
L 837.410677 111.205379 
" style="fill:none;stroke:#ff7f0e;stroke-linecap:square;stroke-width:1.5;"/>
   </g>
   <g id="line2d_98">
    <path clip-path="url(#pe216ab8a35)" d="M 441.373078 111.205379 
L 441.373078 44.901631 
" style="fill:none;stroke:#ff7f0e;stroke-linecap:square;stroke-width:1.5;"/>
   </g>
   <g id="line2d_99">
    <g clip-path="url(#pe216ab8a35)">
     <use style="fill:#ff7f0e;stroke:#ff7f0e;stroke-linejoin:miter;" x="441.373078" xlink:href="#mb655541afc" y="44.901631"/>
    </g>
   </g>
   <g id="line2d_100">
    <path clip-path="url(#pe216ab8a35)" d="M 76.501586 111.205379 
L 837.410677 111.205379 
" style="fill:none;stroke:#ff7f0e;stroke-linecap:square;stroke-width:1.5;"/>
   </g>
   <g id="line2d_101">
    <path clip-path="url(#pe216ab8a35)" d="M 471.779036 111.205379 
L 471.779036 54.519881 
" style="fill:none;stroke:#ff7f0e;stroke-linecap:square;stroke-width:1.5;"/>
   </g>
   <g id="line2d_102">
    <g clip-path="url(#pe216ab8a35)">
     <use style="fill:#ff7f0e;stroke:#ff7f0e;stroke-linejoin:miter;" x="471.779036" xlink:href="#mb655541afc" y="54.519881"/>
    </g>
   </g>
   <g id="line2d_103">
    <path clip-path="url(#pe216ab8a35)" d="M 76.501586 111.205379 
L 837.410677 111.205379 
" style="fill:none;stroke:#ff7f0e;stroke-linecap:square;stroke-width:1.5;"/>
   </g>
   <g id="line2d_104">
    <path clip-path="url(#pe216ab8a35)" d="M 502.184993 111.205379 
L 502.184993 65.128531 
" style="fill:none;stroke:#ff7f0e;stroke-linecap:square;stroke-width:1.5;"/>
   </g>
   <g id="line2d_105">
    <g clip-path="url(#pe216ab8a35)">
     <use style="fill:#ff7f0e;stroke:#ff7f0e;stroke-linejoin:miter;" x="502.184993" xlink:href="#mb655541afc" y="65.128531"/>
    </g>
   </g>
   <g id="line2d_106">
    <path clip-path="url(#pe216ab8a35)" d="M 76.501586 111.205379 
L 837.410677 111.205379 
" style="fill:none;stroke:#ff7f0e;stroke-linecap:square;stroke-width:1.5;"/>
   </g>
   <g id="line2d_107">
    <path clip-path="url(#pe216ab8a35)" d="M 532.590951 111.205379 
L 532.590951 76.542231 
" style="fill:none;stroke:#ff7f0e;stroke-linecap:square;stroke-width:1.5;"/>
   </g>
   <g id="line2d_108">
    <g clip-path="url(#pe216ab8a35)">
     <use style="fill:#ff7f0e;stroke:#ff7f0e;stroke-linejoin:miter;" x="532.590951" xlink:href="#mb655541afc" y="76.542231"/>
    </g>
   </g>
   <g id="line2d_109">
    <path clip-path="url(#pe216ab8a35)" d="M 76.501586 111.205379 
L 837.410677 111.205379 
" style="fill:none;stroke:#ff7f0e;stroke-linecap:square;stroke-width:1.5;"/>
   </g>
   <g id="line2d_110">
    <path clip-path="url(#pe216ab8a35)" d="M 562.996909 111.205379 
L 562.996909 88.561559 
" style="fill:none;stroke:#ff7f0e;stroke-linecap:square;stroke-width:1.5;"/>
   </g>
   <g id="line2d_111">
    <g clip-path="url(#pe216ab8a35)">
     <use style="fill:#ff7f0e;stroke:#ff7f0e;stroke-linejoin:miter;" x="562.996909" xlink:href="#mb655541afc" y="88.561559"/>
    </g>
   </g>
   <g id="line2d_112">
    <path clip-path="url(#pe216ab8a35)" d="M 76.501586 111.205379 
L 837.410677 111.205379 
" style="fill:none;stroke:#ff7f0e;stroke-linecap:square;stroke-width:1.5;"/>
   </g>
   <g id="line2d_113">
    <path clip-path="url(#pe216ab8a35)" d="M 593.402866 111.205379 
L 593.402866 100.976518 
" style="fill:none;stroke:#ff7f0e;stroke-linecap:square;stroke-width:1.5;"/>
   </g>
   <g id="line2d_114">
    <g clip-path="url(#pe216ab8a35)">
     <use style="fill:#ff7f0e;stroke:#ff7f0e;stroke-linejoin:miter;" x="593.402866" xlink:href="#mb655541afc" y="100.976518"/>
    </g>
   </g>
   <g id="line2d_115">
    <path clip-path="url(#pe216ab8a35)" d="M 76.501586 111.205379 
L 837.410677 111.205379 
" style="fill:none;stroke:#ff7f0e;stroke-linecap:square;stroke-width:1.5;"/>
   </g>
   <g id="line2d_116">
    <path clip-path="url(#pe216ab8a35)" d="M 623.808824 111.205379 
L 623.808824 113.570194 
" style="fill:none;stroke:#ff7f0e;stroke-linecap:square;stroke-width:1.5;"/>
   </g>
   <g id="line2d_117">
    <defs>
     <path d="M -0 4 
L 4 -4 
L -4 -4 
z
" id="m73346b27fc" style="stroke:#ff7f0e;stroke-linejoin:miter;"/>
    </defs>
    <g clip-path="url(#pe216ab8a35)">
     <use style="fill:#ff7f0e;stroke:#ff7f0e;stroke-linejoin:miter;" x="623.808824" xlink:href="#m73346b27fc" y="113.570194"/>
    </g>
   </g>
   <g id="line2d_118">
    <path clip-path="url(#pe216ab8a35)" d="M 76.501586 111.205379 
L 837.410677 111.205379 
" style="fill:none;stroke:#ff7f0e;stroke-linecap:square;stroke-width:1.5;"/>
   </g>
   <g id="line2d_119">
    <path clip-path="url(#pe216ab8a35)" d="M 654.214782 111.205379 
L 654.214782 126.122552 
" style="fill:none;stroke:#ff7f0e;stroke-linecap:square;stroke-width:1.5;"/>
   </g>
   <g id="line2d_120">
    <g clip-path="url(#pe216ab8a35)">
     <use style="fill:#ff7f0e;stroke:#ff7f0e;stroke-linejoin:miter;" x="654.214782" xlink:href="#m73346b27fc" y="126.122552"/>
    </g>
   </g>
   <g id="line2d_121">
    <path clip-path="url(#pe216ab8a35)" d="M 76.501586 111.205379 
L 837.410677 111.205379 
" style="fill:none;stroke:#ff7f0e;stroke-linecap:square;stroke-width:1.5;"/>
   </g>
   <g id="line2d_122">
    <path clip-path="url(#pe216ab8a35)" d="M 684.620739 111.205379 
L 684.620739 138.414279 
" style="fill:none;stroke:#ff7f0e;stroke-linecap:square;stroke-width:1.5;"/>
   </g>
   <g id="line2d_123">
    <g clip-path="url(#pe216ab8a35)">
     <use style="fill:#ff7f0e;stroke:#ff7f0e;stroke-linejoin:miter;" x="684.620739" xlink:href="#m73346b27fc" y="138.414279"/>
    </g>
   </g>
   <g id="line2d_124">
    <path clip-path="url(#pe216ab8a35)" d="M 76.501586 111.205379 
L 837.410677 111.205379 
" style="fill:none;stroke:#ff7f0e;stroke-linecap:square;stroke-width:1.5;"/>
   </g>
   <g id="line2d_125">
    <path clip-path="url(#pe216ab8a35)" d="M 715.026697 111.205379 
L 715.026697 150.230616 
" style="fill:none;stroke:#ff7f0e;stroke-linecap:square;stroke-width:1.5;"/>
   </g>
   <g id="line2d_126">
    <g clip-path="url(#pe216ab8a35)">
     <use style="fill:#ff7f0e;stroke:#ff7f0e;stroke-linejoin:miter;" x="715.026697" xlink:href="#m73346b27fc" y="150.230616"/>
    </g>
   </g>
   <g id="line2d_127">
    <path clip-path="url(#pe216ab8a35)" d="M 76.501586 111.205379 
L 837.410677 111.205379 
" style="fill:none;stroke:#ff7f0e;stroke-linecap:square;stroke-width:1.5;"/>
   </g>
   <g id="line2d_128">
    <path clip-path="url(#pe216ab8a35)" d="M 745.432655 111.205379 
L 745.432655 161.36511 
" style="fill:none;stroke:#ff7f0e;stroke-linecap:square;stroke-width:1.5;"/>
   </g>
   <g id="line2d_129">
    <g clip-path="url(#pe216ab8a35)">
     <use style="fill:#ff7f0e;stroke:#ff7f0e;stroke-linejoin:miter;" x="745.432655" xlink:href="#m73346b27fc" y="161.36511"/>
    </g>
   </g>
   <g id="line2d_130">
    <path clip-path="url(#pe216ab8a35)" d="M 76.501586 111.205379 
L 837.410677 111.205379 
" style="fill:none;stroke:#ff7f0e;stroke-linecap:square;stroke-width:1.5;"/>
   </g>
   <g id="line2d_131">
    <path clip-path="url(#pe216ab8a35)" d="M 775.838612 111.205379 
L 775.838612 171.62322 
" style="fill:none;stroke:#ff7f0e;stroke-linecap:square;stroke-width:1.5;"/>
   </g>
   <g id="line2d_132">
    <g clip-path="url(#pe216ab8a35)">
     <use style="fill:#ff7f0e;stroke:#ff7f0e;stroke-linejoin:miter;" x="775.838612" xlink:href="#m73346b27fc" y="171.62322"/>
    </g>
   </g>
   <g id="line2d_133">
    <path clip-path="url(#pe216ab8a35)" d="M 76.501586 111.205379 
L 837.410677 111.205379 
" style="fill:none;stroke:#ff7f0e;stroke-linecap:square;stroke-width:1.5;"/>
   </g>
   <g id="line2d_134">
    <path clip-path="url(#pe216ab8a35)" d="M 806.24457 111.205379 
L 806.24457 180.825717 
" style="fill:none;stroke:#ff7f0e;stroke-linecap:square;stroke-width:1.5;"/>
   </g>
   <g id="line2d_135">
    <g clip-path="url(#pe216ab8a35)">
     <use style="fill:#ff7f0e;stroke:#ff7f0e;stroke-linejoin:miter;" x="806.24457" xlink:href="#m73346b27fc" y="180.825717"/>
    </g>
   </g>
   <g id="line2d_136">
    <path clip-path="url(#pe216ab8a35)" d="M 76.501586 111.205379 
L 837.410677 111.205379 
" style="fill:none;stroke:#ff7f0e;stroke-linecap:square;stroke-width:1.5;"/>
   </g>
   <g id="line2d_137">
    <path clip-path="url(#pe216ab8a35)" d="M 836.650528 111.205379 
L 836.650528 188.811818 
" style="fill:none;stroke:#ff7f0e;stroke-linecap:square;stroke-width:1.5;"/>
   </g>
   <g id="line2d_138">
    <g clip-path="url(#pe216ab8a35)">
     <use style="fill:#ff7f0e;stroke:#ff7f0e;stroke-linejoin:miter;" x="836.650528" xlink:href="#m73346b27fc" y="188.811818"/>
    </g>
   </g>
   <g id="line2d_139">
    <path clip-path="url(#pe216ab8a35)" d="M 76.501586 111.205379 
L 837.410677 111.205379 
" style="fill:none;stroke:#ff7f0e;stroke-linecap:square;stroke-width:1.5;"/>
   </g>
   <g id="line2d_140">
    <path clip-path="url(#pe216ab8a35)" d="M 106.907543 120.741112 
L 137.313501 120.741112 
" style="fill:none;stroke:#000000;stroke-linecap:square;stroke-width:0.8;"/>
    <defs>
     <path d="M 0 3 
L 0 -3 
" id="m58b6a76d7d" style="stroke:#000000;"/>
    </defs>
    <g clip-path="url(#pe216ab8a35)">
     <use style="stroke:#000000;" x="106.907543" xlink:href="#m58b6a76d7d" y="120.741112"/>
     <use style="stroke:#000000;" x="137.313501" xlink:href="#m58b6a76d7d" y="120.741112"/>
    </g>
   </g>
   <g id="patch_3">
    <path d="M 38.456131 197.46 
L 38.456131 7.2 
" style="fill:none;stroke:#000000;stroke-linecap:square;stroke-linejoin:miter;stroke-width:0.8;"/>
   </g>
   <g id="patch_4">
    <path d="M 875.456131 197.46 
L 875.456131 7.2 
" style="fill:none;stroke:#000000;stroke-linecap:square;stroke-linejoin:miter;stroke-width:0.8;"/>
   </g>
   <g id="patch_5">
    <path d="M 38.456131 197.46 
L 875.456131 197.46 
" style="fill:none;stroke:#000000;stroke-linecap:square;stroke-linejoin:miter;stroke-width:0.8;"/>
   </g>
   <g id="patch_6">
    <path d="M 38.456131 7.2 
L 875.456131 7.2 
" style="fill:none;stroke:#000000;stroke-linecap:square;stroke-linejoin:miter;stroke-width:0.8;"/>
   </g>
   <g id="text_6">
    <!-- $T_e$ -->
    <g transform="translate(114.116429 142.730145)scale(0.18 -0.18)">
     <defs>
      <path d="M 2669 3886 
C 2707 4038 2720 4096 2816 4121 
C 2867 4134 3078 4134 3213 4134 
C 3853 4134 4154 4109 4154 3612 
C 4154 3516 4128 3274 4090 3038 
L 4083 2962 
C 4083 2937 4109 2898 4147 2898 
C 4211 2898 4211 2930 4230 3032 
L 4416 4159 
C 4429 4217 4429 4230 4429 4249 
C 4429 4319 4390 4319 4262 4319 
L 762 4319 
C 614 4319 608 4313 570 4198 
L 179 3051 
C 173 3038 154 2968 154 2962 
C 154 2930 179 2898 218 2898 
C 269 2898 282 2924 307 3007 
C 576 3777 710 4134 1562 4134 
L 1990 4134 
C 2144 4134 2208 4134 2208 4064 
C 2208 4045 2208 4032 2176 3917 
L 1318 497 
C 1254 249 1242 185 563 185 
C 403 185 358 185 358 64 
C 358 0 429 0 461 0 
C 621 0 787 12 947 12 
L 1946 12 
C 2106 12 2278 0 2438 0 
C 2509 0 2573 0 2573 121 
C 2573 185 2528 185 2362 185 
C 1786 185 1786 242 1786 338 
C 1786 344 1786 389 1811 491 
L 2669 3886 
z
" id="CMMI12-54" transform="scale(0.015625)"/>
      <path d="M 1146 1472 
C 1318 1472 1754 1484 2061 1600 
C 2547 1786 2592 2160 2592 2275 
C 2592 2559 2349 2816 1926 2816 
C 1254 2816 288 2205 288 1066 
C 288 400 672 -64 1254 -64 
C 2125 -64 2675 609 2675 691 
C 2675 729 2637 761 2611 761 
C 2592 761 2586 755 2528 698 
C 2118 159 1510 64 1267 64 
C 902 64 710 349 710 818 
C 710 907 710 1066 806 1472 
L 1146 1472 
z
M 838 1600 
C 1114 2591 1722 2687 1926 2687 
C 2208 2687 2400 2520 2400 2275 
C 2400 1600 1376 1600 1107 1600 
L 838 1600 
z
" id="CMMI12-65" transform="scale(0.015625)"/>
     </defs>
     <use transform="scale(0.996264)" xlink:href="#CMMI12-54"/>
     <use transform="translate(57.175044 -14.943915)scale(0.697382)" xlink:href="#CMMI12-65"/>
    </g>
   </g>
   <g id="legend_1">
    <g id="patch_7">
     <path d="M 780.333732 67.880448 
L 864.256131 67.880448 
Q 867.456131 67.880448 867.456131 64.680448 
L 867.456131 18.4 
Q 867.456131 15.2 864.256131 15.2 
L 780.333732 15.2 
Q 777.133732 15.2 777.133732 18.4 
L 777.133732 64.680448 
Q 777.133732 67.880448 780.333732 67.880448 
z
" style="fill:#ffffff;opacity:0.8;stroke:#cccccc;stroke-linejoin:miter;"/>
    </g>
    <g id="line2d_141">
     <path d="M 783.533732 27.955168 
L 815.533732 27.955168 
" style="fill:none;stroke:#1f77b4;stroke-linecap:square;stroke-width:1.5;"/>
    </g>
    <g id="line2d_142"/>
    <g id="text_7">
     <!-- $x(t)$ -->
     <g transform="translate(828.333732 33.555168)scale(0.16 -0.16)">
      <defs>
       <path d="M 3034 2624 
C 2829 2585 2752 2431 2752 2310 
C 2752 2156 2874 2105 2963 2105 
C 3155 2105 3290 2271 3290 2444 
C 3290 2694 2982 2816 2714 2816 
C 2323 2816 2106 2451 2048 2329 
C 1901 2790 1504 2816 1389 2816 
C 736 2816 390 1993 390 1849 
C 390 1823 416 1790 461 1790 
C 512 1790 525 1829 538 1855 
C 755 2572 1184 2687 1370 2687 
C 1658 2687 1715 2438 1715 2284 
C 1715 2143 1677 1993 1600 1678 
L 1382 778 
C 1286 390 1101 64 762 64 
C 730 64 570 64 435 126 
C 666 166 717 358 717 435 
C 717 563 621 640 499 640 
C 346 640 179 505 179 300 
C 179 57 480 -64 755 -64 
C 1062 -64 1280 153 1414 415 
C 1517 64 1837 -64 2074 -64 
C 2726 -64 3072 751 3072 896 
C 3072 929 3046 955 3008 955 
C 2950 955 2944 922 2925 870 
C 2752 300 2381 64 2093 64 
C 1869 64 1747 204 1747 467 
C 1747 607 1773 712 1875 1146 
L 2099 2039 
C 2195 2425 2413 2687 2707 2687 
C 2720 2687 2899 2687 3034 2624 
z
" id="CMMI12-78" transform="scale(0.015625)"/>
       <path d="M 1958 -1562 
C 1958 -1556 1958 -1543 1939 -1524 
C 1645 -1223 858 -403 858 1596 
C 858 3595 1632 4408 1946 4729 
C 1946 4735 1958 4748 1958 4767 
C 1958 4787 1939 4800 1914 4800 
C 1843 4800 1299 4325 986 3620 
C 666 2909 576 2218 576 1603 
C 576 1141 621 360 1005 -467 
C 1312 -1133 1837 -1600 1914 -1600 
C 1946 -1600 1958 -1588 1958 -1562 
z
" id="CMR17-28" transform="scale(0.015625)"/>
       <path d="M 1683 1596 
C 1683 2057 1638 2839 1254 3665 
C 947 4332 422 4800 346 4800 
C 326 4800 301 4793 301 4761 
C 301 4748 307 4742 314 4729 
C 621 4408 1402 3595 1402 1603 
C 1402 -396 627 -1210 314 -1530 
C 307 -1543 301 -1549 301 -1562 
C 301 -1594 326 -1600 346 -1600 
C 416 -1600 960 -1127 1274 -422 
C 1594 289 1683 981 1683 1596 
z
" id="CMR17-29" transform="scale(0.015625)"/>
      </defs>
      <use transform="scale(0.996264)" xlink:href="#CMMI12-78"/>
      <use transform="translate(55.43406 0)scale(0.996264)" xlink:href="#CMR17-28"/>
      <use transform="translate(90.714827 0)scale(0.996264)" xlink:href="#CMMI12-74"/>
      <use transform="translate(125.941158 0)scale(0.996264)" xlink:href="#CMR17-29"/>
     </g>
    </g>
    <g id="line2d_143">
     <path d="M 783.533732 51.895392 
L 815.533732 51.895392 
" style="fill:none;stroke:#ff7f0e;stroke-linecap:square;stroke-width:1.5;"/>
    </g>
    <g id="line2d_144"/>
    <g id="text_8">
     <!-- $x^*(t)$ -->
     <g transform="translate(828.333732 57.495392)scale(0.16 -0.16)">
      <defs>
       <path d="M 1760 2762 
C 1766 2853 1766 3008 1600 3008 
C 1498 3008 1414 2924 1434 2840 
L 1434 2755 
L 1523 1740 
L 704 2349 
C 646 2382 634 2395 589 2395 
C 499 2395 416 2303 416 2212 
C 416 2107 480 2081 544 2048 
L 1453 1603 
L 570 1164 
C 467 1112 416 1085 416 987 
C 416 889 499 804 589 804 
C 634 804 646 804 806 928 
L 1523 1459 
L 1427 359 
C 1427 224 1542 192 1594 192 
C 1670 192 1766 236 1766 359 
L 1670 1459 
L 2490 850 
C 2547 817 2560 804 2605 804 
C 2694 804 2778 896 2778 987 
C 2778 1085 2720 1118 2643 1157 
C 2259 1354 2246 1354 1741 1596 
L 2624 2035 
C 2726 2087 2778 2113 2778 2212 
C 2778 2310 2694 2395 2605 2395 
C 2560 2395 2547 2395 2387 2271 
L 1670 1740 
L 1760 2762 
z
" id="CMSY10-3" transform="scale(0.015625)"/>
      </defs>
      <use transform="scale(0.996264)" xlink:href="#CMMI12-78"/>
      <use transform="translate(55.43406 36.153639)scale(0.697382)" xlink:href="#CMSY10-3"/>
      <use transform="translate(90.801401 0)scale(0.996264)" xlink:href="#CMR17-28"/>
      <use transform="translate(126.082169 0)scale(0.996264)" xlink:href="#CMMI12-74"/>
      <use transform="translate(161.308499 0)scale(0.996264)" xlink:href="#CMR17-29"/>
     </g>
    </g>
   </g>
  </g>
 </g>
 <defs>
  <clipPath id="pe216ab8a35">
   <rect height="190.26" width="837" x="38.456131" y="7.2"/>
  </clipPath>
 </defs>
</svg>
