<?xml version="1.0" encoding="utf-8" standalone="no"?>
<!DOCTYPE svg PUBLIC "-//W3C//DTD SVG 1.1//EN"
  "http://www.w3.org/Graphics/SVG/1.1/DTD/svg11.dtd">
<svg height="267.63584pt" version="1.1" viewBox="0 0 575.930786 267.63584" width="575.930786pt" xmlns="http://www.w3.org/2000/svg" xmlns:xlink="http://www.w3.org/1999/xlink">
 <metadata>
  <rdf:RDF xmlns:cc="http://creativecommons.org/ns#" xmlns:dc="http://purl.org/dc/elements/1.1/" xmlns:rdf="http://www.w3.org/1999/02/22-rdf-syntax-ns#">
   <cc:Work>
    <dc:type rdf:resource="http://purl.org/dc/dcmitype/StillImage"/>
    <dc:date>2022-12-10T17:51:53.035630</dc:date>
    <dc:format>image/svg+xml</dc:format>
    <dc:creator>
     <cc:Agent>
      <dc:title>Matplotlib v3.4.3, https://matplotlib.org/</dc:title>
     </cc:Agent>
    </dc:creator>
   </cc:Work>
  </rdf:RDF>
 </metadata>
 <defs>
  <style type="text/css">*{stroke-linecap:butt;stroke-linejoin:round;}</style>
 </defs>
 <g id="figure_1">
  <g id="patch_1">
   <path d="M 0 267.63584 
L 575.930786 267.63584 
L 575.930786 0 
L 0 0 
z
" style="fill:none;"/>
  </g>
  <g id="axes_1">
   <g id="patch_2">
    <path d="M 58.396355 224.64 
L 504.796355 224.64 
L 504.796355 7.2 
L 58.396355 7.2 
z
" style="fill:#ffffff;"/>
   </g>
   <g id="PolyCollection_1">
    <defs>
     <path d="M 78.687264 -176.5686 
L 78.687264 -155.735342 
L 484.505446 -155.735342 
L 484.505446 -176.5686 
L 484.505446 -176.5686 
L 78.687264 -176.5686 
z
" id="m1f13e1b0d1" style="stroke:#d62728;stroke-opacity:0.1;"/>
    </defs>
    <g clip-path="url(#p85fb06b188)">
     <use style="fill:#d62728;fill-opacity:0.1;stroke:#d62728;stroke-opacity:0.1;" x="0" xlink:href="#m1f13e1b0d1" y="267.63584"/>
    </g>
   </g>
   <g id="matplotlib.axis_1">
    <g id="xtick_1">
     <g id="line2d_1">
      <path clip-path="url(#p85fb06b188)" d="M 78.687264 224.64 
L 78.687264 7.2 
" style="fill:none;stroke:#b0b0b0;stroke-linecap:square;stroke-width:0.8;"/>
     </g>
     <g id="line2d_2">
      <defs>
       <path d="M 0 0 
L 0 3.5 
" id="mfa13a16aad" style="stroke:#000000;stroke-width:0.8;"/>
      </defs>
      <g>
       <use style="stroke:#000000;stroke-width:0.8;" x="78.687264" xlink:href="#mfa13a16aad" y="224.64"/>
      </g>
     </g>
     <g id="text_1">
      <!-- $\mathdefault{0.0}$ -->
      <g transform="translate(71.208444 239.94218)scale(0.12 -0.12)">
       <defs>
        <path d="M 2688 2038 
C 2688 2430 2682 3099 2413 3613 
C 2176 4063 1798 4224 1466 4224 
C 1158 4224 768 4082 525 3620 
C 269 3137 243 2539 243 2038 
C 243 1671 250 1112 448 623 
C 723 -39 1216 -128 1466 -128 
C 1760 -128 2208 -7 2470 604 
C 2662 1048 2688 1568 2688 2038 
z
M 1466 -26 
C 1056 -26 813 328 723 816 
C 653 1196 653 1749 653 2109 
C 653 2604 653 3015 736 3407 
C 858 3954 1216 4121 1466 4121 
C 1728 4121 2067 3947 2189 3420 
C 2272 3054 2278 2623 2278 2109 
C 2278 1691 2278 1176 2202 797 
C 2067 96 1690 -26 1466 -26 
z
" id="CMR17-30" transform="scale(0.015625)"/>
        <path d="M 1178 307 
C 1178 492 1024 620 870 620 
C 685 620 557 467 557 313 
C 557 128 710 0 864 0 
C 1050 0 1178 153 1178 307 
z
" id="CMMI12-3a" transform="scale(0.015625)"/>
       </defs>
       <use transform="scale(0.996264)" xlink:href="#CMR17-30"/>
       <use transform="translate(45.690477 0)scale(0.996264)" xlink:href="#CMMI12-3a"/>
       <use transform="translate(72.787654 0)scale(0.996264)" xlink:href="#CMR17-30"/>
      </g>
     </g>
    </g>
    <g id="xtick_2">
     <g id="line2d_3">
      <path clip-path="url(#p85fb06b188)" d="M 159.850901 224.64 
L 159.850901 7.2 
" style="fill:none;stroke:#b0b0b0;stroke-linecap:square;stroke-width:0.8;"/>
     </g>
     <g id="line2d_4">
      <g>
       <use style="stroke:#000000;stroke-width:0.8;" x="159.850901" xlink:href="#mfa13a16aad" y="224.64"/>
      </g>
     </g>
     <g id="text_2">
      <!-- $\mathdefault{0.2}$ -->
      <g transform="translate(152.37208 239.94218)scale(0.12 -0.12)">
       <defs>
        <path d="M 2669 990 
L 2554 990 
C 2490 537 2438 460 2413 422 
C 2381 371 1920 371 1830 371 
L 602 371 
C 832 620 1280 1073 1824 1596 
C 2214 1966 2669 2400 2669 3033 
C 2669 3788 2067 4224 1395 4224 
C 691 4224 262 3603 262 3027 
C 262 2777 448 2745 525 2745 
C 589 2745 781 2783 781 3007 
C 781 3206 614 3264 525 3264 
C 486 3264 448 3257 422 3244 
C 544 3788 915 4057 1306 4057 
C 1862 4057 2227 3616 2227 3033 
C 2227 2477 1901 1998 1536 1583 
L 262 147 
L 262 0 
L 2515 0 
L 2669 990 
z
" id="CMR17-32" transform="scale(0.015625)"/>
       </defs>
       <use transform="scale(0.996264)" xlink:href="#CMR17-30"/>
       <use transform="translate(45.690477 0)scale(0.996264)" xlink:href="#CMMI12-3a"/>
       <use transform="translate(72.787654 0)scale(0.996264)" xlink:href="#CMR17-32"/>
      </g>
     </g>
    </g>
    <g id="xtick_3">
     <g id="line2d_5">
      <path clip-path="url(#p85fb06b188)" d="M 241.014537 224.64 
L 241.014537 7.2 
" style="fill:none;stroke:#b0b0b0;stroke-linecap:square;stroke-width:0.8;"/>
     </g>
     <g id="line2d_6">
      <g>
       <use style="stroke:#000000;stroke-width:0.8;" x="241.014537" xlink:href="#mfa13a16aad" y="224.64"/>
      </g>
     </g>
     <g id="text_3">
      <!-- $\mathdefault{0.4}$ -->
      <g transform="translate(233.535716 239.94218)scale(0.12 -0.12)">
       <defs>
        <path d="M 2150 4147 
C 2150 4281 2144 4288 2029 4288 
L 128 1254 
L 128 1088 
L 1779 1088 
L 1779 460 
C 1779 230 1766 166 1318 166 
L 1197 166 
L 1197 0 
C 1402 12 1747 12 1965 12 
C 2182 12 2528 12 2733 0 
L 2733 166 
L 2611 166 
C 2163 166 2150 230 2150 460 
L 2150 1088 
L 2803 1088 
L 2803 1254 
L 2150 1254 
L 2150 4147 
z
M 1798 3723 
L 1798 1254 
L 256 1254 
L 1798 3723 
z
" id="CMR17-34" transform="scale(0.015625)"/>
       </defs>
       <use transform="scale(0.996264)" xlink:href="#CMR17-30"/>
       <use transform="translate(45.690477 0)scale(0.996264)" xlink:href="#CMMI12-3a"/>
       <use transform="translate(72.787654 0)scale(0.996264)" xlink:href="#CMR17-34"/>
      </g>
     </g>
    </g>
    <g id="xtick_4">
     <g id="line2d_7">
      <path clip-path="url(#p85fb06b188)" d="M 322.178174 224.64 
L 322.178174 7.2 
" style="fill:none;stroke:#b0b0b0;stroke-linecap:square;stroke-width:0.8;"/>
     </g>
     <g id="line2d_8">
      <g>
       <use style="stroke:#000000;stroke-width:0.8;" x="322.178174" xlink:href="#mfa13a16aad" y="224.64"/>
      </g>
     </g>
     <g id="text_4">
      <!-- $\mathdefault{0.6}$ -->
      <g transform="translate(314.699353 239.94218)scale(0.12 -0.12)">
       <defs>
        <path d="M 678 2198 
C 678 3712 1395 4076 1811 4076 
C 1946 4076 2272 4049 2400 3782 
C 2298 3782 2106 3782 2106 3558 
C 2106 3385 2246 3328 2336 3328 
C 2394 3328 2566 3353 2566 3571 
C 2566 3987 2246 4224 1805 4224 
C 1043 4224 243 3411 243 2011 
C 243 257 966 -128 1478 -128 
C 2099 -128 2688 431 2688 1295 
C 2688 2101 2170 2688 1517 2688 
C 1126 2688 838 2430 678 1979 
L 678 2198 
z
M 1478 25 
C 691 25 691 1212 691 1450 
C 691 1914 909 2585 1504 2585 
C 1613 2585 1926 2585 2138 2140 
C 2253 1889 2253 1624 2253 1302 
C 2253 954 2253 696 2118 438 
C 1978 173 1773 25 1478 25 
z
" id="CMR17-36" transform="scale(0.015625)"/>
       </defs>
       <use transform="scale(0.996264)" xlink:href="#CMR17-30"/>
       <use transform="translate(45.690477 0)scale(0.996264)" xlink:href="#CMMI12-3a"/>
       <use transform="translate(72.787654 0)scale(0.996264)" xlink:href="#CMR17-36"/>
      </g>
     </g>
    </g>
    <g id="xtick_5">
     <g id="line2d_9">
      <path clip-path="url(#p85fb06b188)" d="M 403.34181 224.64 
L 403.34181 7.2 
" style="fill:none;stroke:#b0b0b0;stroke-linecap:square;stroke-width:0.8;"/>
     </g>
     <g id="line2d_10">
      <g>
       <use style="stroke:#000000;stroke-width:0.8;" x="403.34181" xlink:href="#mfa13a16aad" y="224.64"/>
      </g>
     </g>
     <g id="text_5">
      <!-- $\mathdefault{0.8}$ -->
      <g transform="translate(395.862989 239.94218)scale(0.12 -0.12)">
       <defs>
        <path d="M 1741 2289 
C 2144 2494 2554 2803 2554 3298 
C 2554 3884 1990 4224 1472 4224 
C 890 4224 378 3800 378 3215 
C 378 3054 416 2777 666 2533 
C 730 2469 998 2276 1171 2154 
C 883 2006 211 1652 211 945 
C 211 282 838 -128 1459 -128 
C 2144 -128 2720 366 2720 1022 
C 2720 1607 2330 1877 2074 2051 
L 1741 2289 
z
M 902 2855 
C 851 2887 595 3086 595 3388 
C 595 3781 998 4076 1459 4076 
C 1965 4076 2336 3716 2336 3298 
C 2336 2700 1670 2359 1638 2359 
C 1632 2359 1626 2359 1574 2398 
L 902 2855 
z
M 2080 1536 
C 2176 1466 2483 1253 2483 861 
C 2483 385 2010 25 1472 25 
C 890 25 448 443 448 951 
C 448 1459 838 1884 1280 2083 
L 2080 1536 
z
" id="CMR17-38" transform="scale(0.015625)"/>
       </defs>
       <use transform="scale(0.996264)" xlink:href="#CMR17-30"/>
       <use transform="translate(45.690477 0)scale(0.996264)" xlink:href="#CMMI12-3a"/>
       <use transform="translate(72.787654 0)scale(0.996264)" xlink:href="#CMR17-38"/>
      </g>
     </g>
    </g>
    <g id="xtick_6">
     <g id="line2d_11">
      <path clip-path="url(#p85fb06b188)" d="M 484.505446 224.64 
L 484.505446 7.2 
" style="fill:none;stroke:#b0b0b0;stroke-linecap:square;stroke-width:0.8;"/>
     </g>
     <g id="line2d_12">
      <g>
       <use style="stroke:#000000;stroke-width:0.8;" x="484.505446" xlink:href="#mfa13a16aad" y="224.64"/>
      </g>
     </g>
     <g id="text_6">
      <!-- $\mathdefault{1.0}$ -->
      <g transform="translate(477.026625 239.94218)scale(0.12 -0.12)">
       <defs>
        <path d="M 1702 4083 
C 1702 4217 1696 4224 1606 4224 
C 1357 3927 979 3833 621 3820 
C 602 3820 570 3820 563 3808 
C 557 3795 557 3782 557 3648 
C 755 3648 1088 3686 1344 3839 
L 1344 467 
C 1344 243 1331 166 781 166 
L 589 166 
L 589 0 
C 896 6 1216 12 1523 12 
C 1830 12 2150 6 2458 0 
L 2458 166 
L 2266 166 
C 1715 166 1702 236 1702 467 
L 1702 4083 
z
" id="CMR17-31" transform="scale(0.015625)"/>
       </defs>
       <use transform="scale(0.996264)" xlink:href="#CMR17-31"/>
       <use transform="translate(45.690477 0)scale(0.996264)" xlink:href="#CMMI12-3a"/>
       <use transform="translate(72.787654 0)scale(0.996264)" xlink:href="#CMR17-30"/>
      </g>
     </g>
    </g>
    <g id="text_7">
     <!-- $t$ -->
     <g transform="translate(278.778249 257.336364)scale(0.16 -0.16)">
      <defs>
       <path d="M 1286 2566 
L 1875 2566 
C 1997 2566 2061 2566 2061 2681 
C 2061 2752 2022 2752 1894 2752 
L 1331 2752 
L 1568 3664 
C 1594 3752 1594 3764 1594 3808 
C 1594 3910 1510 3968 1427 3968 
C 1376 3968 1229 3948 1178 3746 
L 928 2752 
L 326 2752 
C 198 2752 141 2752 141 2630 
C 141 2566 186 2566 307 2566 
L 877 2566 
L 454 881 
C 403 657 384 593 384 510 
C 384 210 595 -64 954 -64 
C 1600 -64 1946 868 1946 913 
C 1946 951 1920 970 1882 970 
C 1869 970 1843 970 1830 944 
C 1824 938 1818 932 1773 830 
C 1638 510 1344 64 973 64 
C 781 64 768 223 768 364 
C 768 370 768 491 787 568 
L 1286 2566 
z
" id="CMMI12-74" transform="scale(0.015625)"/>
      </defs>
      <use transform="scale(0.996264)" xlink:href="#CMMI12-74"/>
     </g>
    </g>
   </g>
   <g id="matplotlib.axis_2">
    <g id="ytick_1">
     <g id="line2d_13">
      <defs>
       <path d="M 0 0 
L -3.5 0 
" id="m0ae28536f3" style="stroke:#000000;stroke-width:0.8;"/>
      </defs>
      <g>
       <use style="stroke:#000000;stroke-width:0.8;" x="58.396355" xlink:href="#m0ae28536f3" y="205.650158"/>
      </g>
     </g>
     <g id="text_8">
      <!-- $\mathdefault{−1.5}$ -->
      <g transform="translate(27.140224 209.801248)scale(0.12 -0.12)">
       <defs>
        <path d="M 4218 1472 
C 4326 1472 4442 1472 4442 1600 
C 4442 1728 4326 1728 4218 1728 
L 755 1728 
C 646 1728 531 1728 531 1600 
C 531 1472 646 1472 755 1472 
L 4218 1472 
z
" id="CMSY10-0" transform="scale(0.015625)"/>
        <path d="M 730 3750 
C 794 3724 1056 3641 1325 3641 
C 1920 3641 2246 3961 2432 4140 
C 2432 4191 2432 4224 2394 4224 
C 2387 4224 2374 4224 2323 4198 
C 2099 4102 1837 4032 1517 4032 
C 1325 4032 1037 4055 723 4191 
C 653 4224 640 4224 634 4224 
C 602 4224 595 4217 595 4090 
L 595 2231 
C 595 2113 595 2080 659 2080 
C 691 2080 704 2093 736 2139 
C 941 2435 1222 2560 1542 2560 
C 1766 2560 2246 2415 2246 1293 
C 2246 1087 2246 716 2054 422 
C 1894 159 1645 25 1370 25 
C 947 25 518 319 403 812 
C 429 806 480 793 506 793 
C 589 793 749 838 749 1036 
C 749 1209 627 1280 506 1280 
C 358 1280 262 1190 262 1011 
C 262 454 704 -128 1382 -128 
C 2042 -128 2669 441 2669 1267 
C 2669 2054 2170 2662 1549 2662 
C 1222 2662 947 2540 730 2304 
L 730 3750 
z
" id="CMR17-35" transform="scale(0.015625)"/>
       </defs>
       <use transform="scale(0.996264)" xlink:href="#CMSY10-0"/>
       <use transform="translate(77.487468 0)scale(0.996264)" xlink:href="#CMR17-31"/>
       <use transform="translate(123.177945 0)scale(0.996264)" xlink:href="#CMMI12-3a"/>
       <use transform="translate(150.275122 0)scale(0.996264)" xlink:href="#CMR17-35"/>
      </g>
     </g>
    </g>
    <g id="ytick_2">
     <g id="line2d_14">
      <g>
       <use style="stroke:#000000;stroke-width:0.8;" x="58.396355" xlink:href="#m0ae28536f3" y="184.8169"/>
      </g>
     </g>
     <g id="text_9">
      <!-- $\mathdefault{−1.2}$ -->
      <g transform="translate(27.140224 188.96799)scale(0.12 -0.12)">
       <use transform="scale(0.996264)" xlink:href="#CMSY10-0"/>
       <use transform="translate(77.487468 0)scale(0.996264)" xlink:href="#CMR17-31"/>
       <use transform="translate(123.177945 0)scale(0.996264)" xlink:href="#CMMI12-3a"/>
       <use transform="translate(150.275122 0)scale(0.996264)" xlink:href="#CMR17-32"/>
      </g>
     </g>
    </g>
    <g id="ytick_3">
     <g id="line2d_15">
      <g>
       <use style="stroke:#000000;stroke-width:0.8;" x="58.396355" xlink:href="#m0ae28536f3" y="163.983642"/>
      </g>
     </g>
     <g id="text_10">
      <!-- $\mathdefault{−0.9}$ -->
      <g transform="translate(27.140224 168.134732)scale(0.12 -0.12)">
       <defs>
        <path d="M 2253 1871 
C 2253 448 1670 25 1190 25 
C 1043 25 685 43 538 281 
C 704 256 826 345 826 505 
C 826 678 685 736 595 736 
C 538 736 365 710 365 492 
C 365 68 742 -128 1203 -128 
C 1939 -128 2688 665 2688 2090 
C 2688 3857 1971 4224 1485 4224 
C 851 4224 243 3664 243 2800 
C 243 2000 762 1408 1414 1408 
C 1952 1408 2189 1910 2253 2122 
L 2253 1871 
z
M 1427 1510 
C 1254 1510 1011 1542 813 1929 
C 678 2181 678 2477 678 2793 
C 678 3174 678 3438 858 3722 
C 947 3857 1114 4076 1485 4076 
C 2240 4076 2240 2909 2240 2651 
C 2240 2193 2035 1510 1427 1510 
z
" id="CMR17-39" transform="scale(0.015625)"/>
       </defs>
       <use transform="scale(0.996264)" xlink:href="#CMSY10-0"/>
       <use transform="translate(77.487468 0)scale(0.996264)" xlink:href="#CMR17-30"/>
       <use transform="translate(123.177945 0)scale(0.996264)" xlink:href="#CMMI12-3a"/>
       <use transform="translate(150.275122 0)scale(0.996264)" xlink:href="#CMR17-39"/>
      </g>
     </g>
    </g>
    <g id="ytick_4">
     <g id="line2d_16">
      <g>
       <use style="stroke:#000000;stroke-width:0.8;" x="58.396355" xlink:href="#m0ae28536f3" y="143.150384"/>
      </g>
     </g>
     <g id="text_11">
      <!-- $\mathdefault{−0.6}$ -->
      <g transform="translate(27.140224 147.301474)scale(0.12 -0.12)">
       <use transform="scale(0.996264)" xlink:href="#CMSY10-0"/>
       <use transform="translate(77.487468 0)scale(0.996264)" xlink:href="#CMR17-30"/>
       <use transform="translate(123.177945 0)scale(0.996264)" xlink:href="#CMMI12-3a"/>
       <use transform="translate(150.275122 0)scale(0.996264)" xlink:href="#CMR17-36"/>
      </g>
     </g>
    </g>
    <g id="ytick_5">
     <g id="line2d_17">
      <g>
       <use style="stroke:#000000;stroke-width:0.8;" x="58.396355" xlink:href="#m0ae28536f3" y="122.317127"/>
      </g>
     </g>
     <g id="text_12">
      <!-- $\mathdefault{−0.3}$ -->
      <g transform="translate(27.140224 126.468217)scale(0.12 -0.12)">
       <defs>
        <path d="M 1414 2176 
C 1984 2176 2234 1673 2234 1094 
C 2234 322 1824 25 1453 25 
C 1114 25 563 193 390 691 
C 422 678 454 678 486 678 
C 640 678 755 780 755 947 
C 755 1132 614 1216 486 1216 
C 378 1216 211 1164 211 927 
C 211 335 787 -128 1466 -128 
C 2176 -128 2720 432 2720 1087 
C 2720 1718 2208 2176 1600 2246 
C 2086 2347 2554 2776 2554 3353 
C 2554 3856 2048 4224 1472 4224 
C 890 4224 378 3862 378 3347 
C 378 3123 544 3084 627 3084 
C 762 3084 877 3167 877 3334 
C 877 3500 762 3584 627 3584 
C 602 3584 570 3584 544 3571 
C 730 3999 1235 4076 1459 4076 
C 1683 4076 2106 3966 2106 3347 
C 2106 3167 2080 2851 1862 2574 
C 1670 2329 1453 2316 1242 2297 
C 1210 2297 1062 2284 1037 2284 
C 992 2278 966 2272 966 2227 
C 966 2182 973 2176 1101 2176 
L 1414 2176 
z
" id="CMR17-33" transform="scale(0.015625)"/>
       </defs>
       <use transform="scale(0.996264)" xlink:href="#CMSY10-0"/>
       <use transform="translate(77.487468 0)scale(0.996264)" xlink:href="#CMR17-30"/>
       <use transform="translate(123.177945 0)scale(0.996264)" xlink:href="#CMMI12-3a"/>
       <use transform="translate(150.275122 0)scale(0.996264)" xlink:href="#CMR17-33"/>
      </g>
     </g>
    </g>
    <g id="ytick_6">
     <g id="line2d_18">
      <g>
       <use style="stroke:#000000;stroke-width:0.8;" x="58.396355" xlink:href="#m0ae28536f3" y="101.483869"/>
      </g>
     </g>
     <g id="text_13">
      <!-- $\mathdefault{0.0}$ -->
      <g transform="translate(36.438714 105.634959)scale(0.12 -0.12)">
       <use transform="scale(0.996264)" xlink:href="#CMR17-30"/>
       <use transform="translate(45.690477 0)scale(0.996264)" xlink:href="#CMMI12-3a"/>
       <use transform="translate(72.787654 0)scale(0.996264)" xlink:href="#CMR17-30"/>
      </g>
     </g>
    </g>
    <g id="ytick_7">
     <g id="line2d_19">
      <g>
       <use style="stroke:#000000;stroke-width:0.8;" x="58.396355" xlink:href="#m0ae28536f3" y="80.650611"/>
      </g>
     </g>
     <g id="text_14">
      <!-- $\mathdefault{0.3}$ -->
      <g transform="translate(36.438714 84.801701)scale(0.12 -0.12)">
       <use transform="scale(0.996264)" xlink:href="#CMR17-30"/>
       <use transform="translate(45.690477 0)scale(0.996264)" xlink:href="#CMMI12-3a"/>
       <use transform="translate(72.787654 0)scale(0.996264)" xlink:href="#CMR17-33"/>
      </g>
     </g>
    </g>
    <g id="ytick_8">
     <g id="line2d_20">
      <g>
       <use style="stroke:#000000;stroke-width:0.8;" x="58.396355" xlink:href="#m0ae28536f3" y="59.817353"/>
      </g>
     </g>
     <g id="text_15">
      <!-- $\mathdefault{0.6}$ -->
      <g transform="translate(36.438714 63.968443)scale(0.12 -0.12)">
       <use transform="scale(0.996264)" xlink:href="#CMR17-30"/>
       <use transform="translate(45.690477 0)scale(0.996264)" xlink:href="#CMMI12-3a"/>
       <use transform="translate(72.787654 0)scale(0.996264)" xlink:href="#CMR17-36"/>
      </g>
     </g>
    </g>
    <g id="ytick_9">
     <g id="line2d_21">
      <g>
       <use style="stroke:#000000;stroke-width:0.8;" x="58.396355" xlink:href="#m0ae28536f3" y="38.984095"/>
      </g>
     </g>
     <g id="text_16">
      <!-- $\mathdefault{0.9}$ -->
      <g transform="translate(36.438714 43.135185)scale(0.12 -0.12)">
       <use transform="scale(0.996264)" xlink:href="#CMR17-30"/>
       <use transform="translate(45.690477 0)scale(0.996264)" xlink:href="#CMMI12-3a"/>
       <use transform="translate(72.787654 0)scale(0.996264)" xlink:href="#CMR17-39"/>
      </g>
     </g>
    </g>
    <g id="ytick_10">
     <g id="line2d_22">
      <g>
       <use style="stroke:#000000;stroke-width:0.8;" x="58.396355" xlink:href="#m0ae28536f3" y="18.150838"/>
      </g>
     </g>
     <g id="text_17">
      <!-- $\mathdefault{1.2}$ -->
      <g transform="translate(36.438714 22.301928)scale(0.12 -0.12)">
       <use transform="scale(0.996264)" xlink:href="#CMR17-31"/>
       <use transform="translate(45.690477 0)scale(0.996264)" xlink:href="#CMMI12-3a"/>
       <use transform="translate(72.787654 0)scale(0.996264)" xlink:href="#CMR17-32"/>
      </g>
     </g>
    </g>
    <g id="text_18">
     <!-- $x(t)$ -->
     <g style="fill:#1f77b4;" transform="translate(19.155168 129.242599)rotate(-90)scale(0.16 -0.16)">
      <defs>
       <path d="M 3034 2624 
C 2829 2585 2752 2431 2752 2310 
C 2752 2156 2874 2105 2963 2105 
C 3155 2105 3290 2271 3290 2444 
C 3290 2694 2982 2816 2714 2816 
C 2323 2816 2106 2451 2048 2329 
C 1901 2790 1504 2816 1389 2816 
C 736 2816 390 1993 390 1849 
C 390 1823 416 1790 461 1790 
C 512 1790 525 1829 538 1855 
C 755 2572 1184 2687 1370 2687 
C 1658 2687 1715 2438 1715 2284 
C 1715 2143 1677 1993 1600 1678 
L 1382 778 
C 1286 390 1101 64 762 64 
C 730 64 570 64 435 126 
C 666 166 717 358 717 435 
C 717 563 621 640 499 640 
C 346 640 179 505 179 300 
C 179 57 480 -64 755 -64 
C 1062 -64 1280 153 1414 415 
C 1517 64 1837 -64 2074 -64 
C 2726 -64 3072 751 3072 896 
C 3072 929 3046 955 3008 955 
C 2950 955 2944 922 2925 870 
C 2752 300 2381 64 2093 64 
C 1869 64 1747 204 1747 467 
C 1747 607 1773 712 1875 1146 
L 2099 2039 
C 2195 2425 2413 2687 2707 2687 
C 2720 2687 2899 2687 3034 2624 
z
" id="CMMI12-78" transform="scale(0.015625)"/>
       <path d="M 1958 -1562 
C 1958 -1556 1958 -1543 1939 -1524 
C 1645 -1223 858 -403 858 1596 
C 858 3595 1632 4408 1946 4729 
C 1946 4735 1958 4748 1958 4767 
C 1958 4787 1939 4800 1914 4800 
C 1843 4800 1299 4325 986 3620 
C 666 2909 576 2218 576 1603 
C 576 1141 621 360 1005 -467 
C 1312 -1133 1837 -1600 1914 -1600 
C 1946 -1600 1958 -1588 1958 -1562 
z
" id="CMR17-28" transform="scale(0.015625)"/>
       <path d="M 1683 1596 
C 1683 2057 1638 2839 1254 3665 
C 947 4332 422 4800 346 4800 
C 326 4800 301 4793 301 4761 
C 301 4748 307 4742 314 4729 
C 621 4408 1402 3595 1402 1603 
C 1402 -396 627 -1210 314 -1530 
C 307 -1543 301 -1549 301 -1562 
C 301 -1594 326 -1600 346 -1600 
C 416 -1600 960 -1127 1274 -422 
C 1594 289 1683 981 1683 1596 
z
" id="CMR17-29" transform="scale(0.015625)"/>
      </defs>
      <use transform="scale(0.996264)" xlink:href="#CMMI12-78"/>
      <use transform="translate(55.43406 0)scale(0.996264)" xlink:href="#CMR17-28"/>
      <use transform="translate(90.714827 0)scale(0.996264)" xlink:href="#CMMI12-74"/>
      <use transform="translate(125.941158 0)scale(0.996264)" xlink:href="#CMR17-29"/>
     </g>
    </g>
   </g>
   <g id="line2d_23">
    <path clip-path="url(#p85fb06b188)" d="M 78.687264 73.706192 
L 80.718386 73.868363 
L 83.561957 73.851044 
L 86.811753 73.613364 
L 90.467772 73.132828 
L 94.530016 72.380069 
L 98.998485 71.323929 
L 103.873178 69.933405 
L 109.154095 68.179062 
L 114.841237 66.034565 
L 120.934603 63.478601 
L 127.434193 60.497371 
L 134.746232 56.880548 
L 142.870721 52.606719 
L 153.83878 46.562081 
L 175.368673 34.63912 
L 183.086937 30.651475 
L 189.586527 27.531714 
L 195.273669 25.034014 
L 200.554586 22.948659 
L 205.429279 21.254936 
L 209.897748 19.921699 
L 214.366216 18.820086 
L 218.42846 18.037167 
L 222.490704 17.478222 
L 226.552948 17.158118 
L 230.208968 17.086071 
L 233.864988 17.229045 
L 237.521007 17.596483 
L 241.177027 18.197237 
L 244.833047 19.03949 
L 248.489066 20.130685 
L 252.145086 21.477445 
L 255.801106 23.085498 
L 259.457125 24.959605 
L 263.113145 27.103487 
L 266.769165 29.519749 
L 270.425184 32.209817 
L 274.081204 35.173871 
L 277.737223 38.410782 
L 281.799468 42.324288 
L 285.861712 46.56607 
L 289.923956 51.128422 
L 294.392424 56.505255 
L 298.860893 62.241221 
L 303.735585 68.884524 
L 308.610278 75.90039 
L 313.891196 83.879674 
L 319.984562 93.50924 
L 326.890377 104.859727 
L 336.233538 120.696376 
L 353.701187 150.405354 
L 360.200778 160.996011 
L 365.88792 169.849007 
L 370.762613 177.040091 
L 375.231081 183.246457 
L 379.293325 188.522831 
L 382.949345 192.940875 
L 386.605364 197.017749 
L 389.85516 200.334508 
L 393.104955 203.344477 
L 396.35475 206.031721 
L 399.198321 208.106687 
L 402.041892 209.91416 
L 404.885463 211.445873 
L 407.729033 212.69443 
L 410.16638 213.534326 
L 412.603726 214.157925 
L 415.041073 214.562279 
L 417.478419 214.745021 
L 419.915766 214.704378 
L 422.353112 214.439195 
L 424.790459 213.948951 
L 427.227805 213.233779 
L 429.665151 212.294476 
L 432.102498 211.132518 
L 434.539844 209.750071 
L 437.383415 207.862405 
L 440.226986 205.684322 
L 443.070557 203.222901 
L 445.914128 200.48654 
L 449.163923 197.035127 
L 452.413718 193.253924 
L 456.069738 188.629334 
L 459.725757 183.641161 
L 463.788002 177.712939 
L 468.25647 170.781165 
L 473.131163 162.812328 
L 479.224529 152.408391 
L 484.505446 143.150384 
L 484.505446 143.150384 
" style="fill:none;stroke:#1f77b4;stroke-linecap:square;stroke-width:1.5;"/>
   </g>
   <g id="line2d_24">
    <path clip-path="url(#p85fb06b188)" d="M 78.687264 94.53945 
L 80.718386 94.701621 
L 83.561957 94.684302 
L 86.811753 94.446622 
L 90.467772 93.966086 
L 94.530016 93.213327 
L 98.998485 92.157187 
L 102.654504 91.135977 
L 103.060729 111.847683 
L 107.935422 110.271742 
L 113.216339 108.338949 
L 118.903481 106.02462 
L 124.996847 103.310093 
L 131.902662 99.983114 
L 139.620925 96.009863 
L 148.557862 91.166594 
L 148.964087 111.775318 
L 180.243366 94.589575 
L 187.149181 91.171392 
L 193.242547 88.39799 
L 198.523464 86.221483 
L 203.398157 84.431578 
L 208.27285 82.880595 
L 212.741318 81.692322 
L 216.803563 80.82408 
L 220.865807 80.173734 
L 224.928051 79.756343 
L 228.58407 79.591901 
L 232.24009 79.638112 
L 235.89611 79.904658 
L 239.552129 80.400664 
L 243.208149 81.13462 
L 246.864169 82.114306 
L 250.520188 83.346719 
L 254.176208 84.837994 
L 257.832228 86.593333 
L 261.488247 88.616925 
L 265.144267 90.911881 
L 268.800287 93.48016 
L 272.456306 96.322503 
L 276.112326 99.438369 
L 279.768346 102.82588 
L 283.83059 106.904347 
L 287.892834 111.307519 
L 288.299058 111.765375 
L 288.705282 91.393123 
L 292.767527 96.174059 
L 297.235995 101.781571 
L 301.704463 107.735836 
L 304.548034 111.695384 
L 304.954259 91.438135 
L 310.235176 99.149012 
L 315.922318 107.876303 
L 318.359664 111.734893 
L 318.765889 91.550993 
L 325.671703 102.828927 
L 330.952621 111.69657 
L 331.358845 91.551864 
L 343.139353 111.702874 
L 343.545577 91.565135 
L 353.701187 108.738839 
L 355.326085 111.425238 
L 355.732309 91.259921 
L 362.2319 101.708848 
L 367.512817 109.790926 
L 368.73149 111.593596 
L 369.137715 91.355563 
L 373.606183 97.702775 
L 377.668427 103.123696 
L 381.730671 108.171768 
L 385.386691 112.365275 
L 389.042711 116.200402 
L 392.292506 119.288605 
L 395.542301 122.057962 
L 398.385872 124.207721 
L 401.229443 126.092501 
L 404.073014 127.703796 
L 406.916585 129.033957 
L 409.353931 129.945201 
L 411.791278 130.641254 
L 414.228624 131.118982 
L 416.66597 131.375821 
L 419.103317 131.409799 
L 421.540663 131.219552 
L 423.97801 130.804347 
L 426.415356 130.164096 
L 428.852703 129.299372 
L 431.290049 128.211426 
L 433.727395 126.902192 
L 436.570966 125.098618 
L 439.414537 123.002846 
L 442.258108 120.62158 
L 445.101679 117.962839 
L 448.351474 114.596553 
L 451.601269 110.896122 
L 454.851065 106.879781 
L 458.507084 102.009264 
L 462.569328 96.19828 
L 465.819124 91.278447 
L 466.225348 111.481268 
L 471.100041 103.678393 
L 476.787183 94.117322 
L 478.41208 91.317371 
L 478.818305 111.446928 
L 484.505446 101.483869 
L 484.505446 101.483869 
" style="fill:none;stroke:#d62728;stroke-linecap:square;stroke-width:1.5;"/>
   </g>
   <g id="patch_3">
    <path d="M 58.396355 224.64 
L 58.396355 7.2 
" style="fill:none;stroke:#000000;stroke-linecap:square;stroke-linejoin:miter;stroke-width:0.8;"/>
   </g>
   <g id="patch_4">
    <path d="M 504.796355 224.64 
L 504.796355 7.2 
" style="fill:none;stroke:#000000;stroke-linecap:square;stroke-linejoin:miter;stroke-width:0.8;"/>
   </g>
   <g id="patch_5">
    <path d="M 58.396355 224.64 
L 504.796355 224.64 
" style="fill:none;stroke:#000000;stroke-linecap:square;stroke-linejoin:miter;stroke-width:0.8;"/>
   </g>
   <g id="patch_6">
    <path d="M 58.396355 7.2 
L 504.796355 7.2 
" style="fill:none;stroke:#000000;stroke-linecap:square;stroke-linejoin:miter;stroke-width:0.8;"/>
   </g>
  </g>
  <g id="axes_2">
   <g id="matplotlib.axis_3">
    <g id="ytick_11">
     <g id="line2d_25">
      <path clip-path="url(#p85fb06b188)" d="M 58.396355 184.8169 
L 504.796355 184.8169 
" style="fill:none;stroke:#b0b0b0;stroke-linecap:square;stroke-width:0.8;"/>
     </g>
     <g id="line2d_26">
      <defs>
       <path d="M 0 0 
L 3.5 0 
" id="m7ff2d548db" style="stroke:#000000;stroke-width:0.8;"/>
      </defs>
      <g>
       <use style="stroke:#000000;stroke-width:0.8;" x="504.796355" xlink:href="#m7ff2d548db" y="184.8169"/>
      </g>
     </g>
     <g id="text_19">
      <!-- 0 (000) -->
      <g transform="translate(511.796355 189.300088)scale(0.12 -0.12)">
       <use transform="scale(0.996264)" xlink:href="#CMR17-30"/>
       <use transform="translate(75.766443 0)scale(0.996264)" xlink:href="#CMR17-28"/>
       <use transform="translate(111.047211 0)scale(0.996264)" xlink:href="#CMR17-30"/>
       <use transform="translate(156.737688 0)scale(0.996264)" xlink:href="#CMR17-30"/>
       <use transform="translate(202.428165 0)scale(0.996264)" xlink:href="#CMR17-30"/>
       <use transform="translate(248.118643 0)scale(0.996264)" xlink:href="#CMR17-29"/>
      </g>
     </g>
    </g>
    <g id="ytick_12">
     <g id="line2d_27">
      <path clip-path="url(#p85fb06b188)" d="M 58.396355 163.983642 
L 504.796355 163.983642 
" style="fill:none;stroke:#b0b0b0;stroke-linecap:square;stroke-width:0.8;"/>
     </g>
     <g id="line2d_28">
      <g>
       <use style="stroke:#000000;stroke-width:0.8;" x="504.796355" xlink:href="#m7ff2d548db" y="163.983642"/>
      </g>
     </g>
     <g id="text_20">
      <!-- 1 (001) -->
      <g transform="translate(511.796355 168.46683)scale(0.12 -0.12)">
       <use transform="scale(0.996264)" xlink:href="#CMR17-31"/>
       <use transform="translate(75.766443 0)scale(0.996264)" xlink:href="#CMR17-28"/>
       <use transform="translate(111.047211 0)scale(0.996264)" xlink:href="#CMR17-30"/>
       <use transform="translate(156.737688 0)scale(0.996264)" xlink:href="#CMR17-30"/>
       <use transform="translate(202.428165 0)scale(0.996264)" xlink:href="#CMR17-31"/>
       <use transform="translate(248.118643 0)scale(0.996264)" xlink:href="#CMR17-29"/>
      </g>
     </g>
    </g>
    <g id="ytick_13">
     <g id="line2d_29">
      <path clip-path="url(#p85fb06b188)" d="M 58.396355 143.150384 
L 504.796355 143.150384 
" style="fill:none;stroke:#b0b0b0;stroke-linecap:square;stroke-width:0.8;"/>
     </g>
     <g id="line2d_30">
      <g>
       <use style="stroke:#000000;stroke-width:0.8;" x="504.796355" xlink:href="#m7ff2d548db" y="143.150384"/>
      </g>
     </g>
     <g id="text_21">
      <!-- 2 (010) -->
      <g transform="translate(511.796355 147.633572)scale(0.12 -0.12)">
       <use transform="scale(0.996264)" xlink:href="#CMR17-32"/>
       <use transform="translate(75.766443 0)scale(0.996264)" xlink:href="#CMR17-28"/>
       <use transform="translate(111.047211 0)scale(0.996264)" xlink:href="#CMR17-30"/>
       <use transform="translate(156.737688 0)scale(0.996264)" xlink:href="#CMR17-31"/>
       <use transform="translate(202.428165 0)scale(0.996264)" xlink:href="#CMR17-30"/>
       <use transform="translate(248.118643 0)scale(0.996264)" xlink:href="#CMR17-29"/>
      </g>
     </g>
    </g>
    <g id="ytick_14">
     <g id="line2d_31">
      <path clip-path="url(#p85fb06b188)" d="M 58.396355 122.317127 
L 504.796355 122.317127 
" style="fill:none;stroke:#b0b0b0;stroke-linecap:square;stroke-width:0.8;"/>
     </g>
     <g id="line2d_32">
      <g>
       <use style="stroke:#000000;stroke-width:0.8;" x="504.796355" xlink:href="#m7ff2d548db" y="122.317127"/>
      </g>
     </g>
     <g id="text_22">
      <!-- 3 (011) -->
      <g transform="translate(511.796355 126.800315)scale(0.12 -0.12)">
       <use transform="scale(0.996264)" xlink:href="#CMR17-33"/>
       <use transform="translate(75.766443 0)scale(0.996264)" xlink:href="#CMR17-28"/>
       <use transform="translate(111.047211 0)scale(0.996264)" xlink:href="#CMR17-30"/>
       <use transform="translate(156.737688 0)scale(0.996264)" xlink:href="#CMR17-31"/>
       <use transform="translate(202.428165 0)scale(0.996264)" xlink:href="#CMR17-31"/>
       <use transform="translate(248.118643 0)scale(0.996264)" xlink:href="#CMR17-29"/>
      </g>
     </g>
    </g>
    <g id="ytick_15">
     <g id="line2d_33">
      <path clip-path="url(#p85fb06b188)" d="M 58.396355 101.483869 
L 504.796355 101.483869 
" style="fill:none;stroke:#b0b0b0;stroke-linecap:square;stroke-width:0.8;"/>
     </g>
     <g id="line2d_34">
      <g>
       <use style="stroke:#000000;stroke-width:0.8;" x="504.796355" xlink:href="#m7ff2d548db" y="101.483869"/>
      </g>
     </g>
     <g id="text_23">
      <!-- 4 (100) -->
      <g transform="translate(511.796355 105.967057)scale(0.12 -0.12)">
       <use transform="scale(0.996264)" xlink:href="#CMR17-34"/>
       <use transform="translate(75.766443 0)scale(0.996264)" xlink:href="#CMR17-28"/>
       <use transform="translate(111.047211 0)scale(0.996264)" xlink:href="#CMR17-31"/>
       <use transform="translate(156.737688 0)scale(0.996264)" xlink:href="#CMR17-30"/>
       <use transform="translate(202.428165 0)scale(0.996264)" xlink:href="#CMR17-30"/>
       <use transform="translate(248.118643 0)scale(0.996264)" xlink:href="#CMR17-29"/>
      </g>
     </g>
    </g>
    <g id="ytick_16">
     <g id="line2d_35">
      <path clip-path="url(#p85fb06b188)" d="M 58.396355 80.650611 
L 504.796355 80.650611 
" style="fill:none;stroke:#b0b0b0;stroke-linecap:square;stroke-width:0.8;"/>
     </g>
     <g id="line2d_36">
      <g>
       <use style="stroke:#000000;stroke-width:0.8;" x="504.796355" xlink:href="#m7ff2d548db" y="80.650611"/>
      </g>
     </g>
     <g id="text_24">
      <!-- 5 (101) -->
      <g transform="translate(511.796355 85.133799)scale(0.12 -0.12)">
       <use transform="scale(0.996264)" xlink:href="#CMR17-35"/>
       <use transform="translate(75.766443 0)scale(0.996264)" xlink:href="#CMR17-28"/>
       <use transform="translate(111.047211 0)scale(0.996264)" xlink:href="#CMR17-31"/>
       <use transform="translate(156.737688 0)scale(0.996264)" xlink:href="#CMR17-30"/>
       <use transform="translate(202.428165 0)scale(0.996264)" xlink:href="#CMR17-31"/>
       <use transform="translate(248.118643 0)scale(0.996264)" xlink:href="#CMR17-29"/>
      </g>
     </g>
    </g>
    <g id="ytick_17">
     <g id="line2d_37">
      <path clip-path="url(#p85fb06b188)" d="M 58.396355 59.817353 
L 504.796355 59.817353 
" style="fill:none;stroke:#b0b0b0;stroke-linecap:square;stroke-width:0.8;"/>
     </g>
     <g id="line2d_38">
      <g>
       <use style="stroke:#000000;stroke-width:0.8;" x="504.796355" xlink:href="#m7ff2d548db" y="59.817353"/>
      </g>
     </g>
     <g id="text_25">
      <!-- 6 (110) -->
      <g transform="translate(511.796355 64.300541)scale(0.12 -0.12)">
       <use transform="scale(0.996264)" xlink:href="#CMR17-36"/>
       <use transform="translate(75.766443 0)scale(0.996264)" xlink:href="#CMR17-28"/>
       <use transform="translate(111.047211 0)scale(0.996264)" xlink:href="#CMR17-31"/>
       <use transform="translate(156.737688 0)scale(0.996264)" xlink:href="#CMR17-31"/>
       <use transform="translate(202.428165 0)scale(0.996264)" xlink:href="#CMR17-30"/>
       <use transform="translate(248.118643 0)scale(0.996264)" xlink:href="#CMR17-29"/>
      </g>
     </g>
    </g>
    <g id="ytick_18">
     <g id="line2d_39">
      <path clip-path="url(#p85fb06b188)" d="M 58.396355 38.984095 
L 504.796355 38.984095 
" style="fill:none;stroke:#b0b0b0;stroke-linecap:square;stroke-width:0.8;"/>
     </g>
     <g id="line2d_40">
      <g>
       <use style="stroke:#000000;stroke-width:0.8;" x="504.796355" xlink:href="#m7ff2d548db" y="38.984095"/>
      </g>
     </g>
     <g id="text_26">
      <!-- 7 (111) -->
      <g transform="translate(511.796355 43.467283)scale(0.12 -0.12)">
       <defs>
        <path d="M 2886 3955 
L 2886 4096 
L 1382 4096 
C 634 4096 621 4166 595 4288 
L 480 4288 
L 294 3104 
L 410 3104 
C 429 3226 474 3552 550 3673 
C 589 3724 1062 3724 1171 3724 
L 2579 3724 
L 1869 2670 
C 1395 1961 1069 1003 1069 166 
C 1069 89 1069 -128 1299 -128 
C 1530 -128 1530 89 1530 172 
L 1530 466 
C 1530 1514 1709 2204 2003 2644 
L 2886 3955 
z
" id="CMR17-37" transform="scale(0.015625)"/>
       </defs>
       <use transform="scale(0.996264)" xlink:href="#CMR17-37"/>
       <use transform="translate(75.766443 0)scale(0.996264)" xlink:href="#CMR17-28"/>
       <use transform="translate(111.047211 0)scale(0.996264)" xlink:href="#CMR17-31"/>
       <use transform="translate(156.737688 0)scale(0.996264)" xlink:href="#CMR17-31"/>
       <use transform="translate(202.428165 0)scale(0.996264)" xlink:href="#CMR17-31"/>
       <use transform="translate(248.118643 0)scale(0.996264)" xlink:href="#CMR17-29"/>
      </g>
     </g>
    </g>
    <g id="text_27">
     <!-- $x_q(t)$ -->
     <g style="fill:#ff7f0e;" transform="translate(564.170129 132.182396)rotate(-90)scale(0.16 -0.16)">
      <defs>
       <path d="M 2822 2751 
C 2822 2783 2797 2809 2765 2809 
C 2714 2809 2464 2579 2342 2356 
C 2227 2643 2029 2816 1754 2816 
C 1030 2816 250 1883 250 938 
C 250 306 621 -64 1056 -64 
C 1395 -64 1677 191 1811 338 
L 1818 332 
L 1574 -613 
L 1517 -838 
C 1459 -1025 1363 -1025 1062 -1031 
C 992 -1031 928 -1031 928 -1152 
C 928 -1197 966 -1216 1011 -1216 
C 1101 -1216 1216 -1204 1306 -1204 
L 1958 -1204 
C 2054 -1204 2163 -1216 2259 -1216 
C 2298 -1216 2374 -1216 2374 -1095 
C 2374 -1031 2323 -1031 2227 -1031 
C 1926 -1031 1907 -987 1907 -937 
C 1907 -906 1914 -900 1933 -819 
L 2822 2751 
z
M 1920 759 
C 1888 651 1888 638 1798 517 
C 1658 338 1376 64 1075 64 
C 813 64 666 300 666 676 
C 666 1028 864 1743 986 2011 
C 1203 2458 1504 2687 1754 2687 
C 2176 2687 2259 2164 2259 2113 
C 2259 2107 2240 2024 2234 2011 
L 1920 759 
z
" id="CMMI12-71" transform="scale(0.015625)"/>
      </defs>
      <use transform="scale(0.996264)" xlink:href="#CMMI12-78"/>
      <use transform="translate(55.43406 -14.943915)scale(0.697382)" xlink:href="#CMMI12-71"/>
      <use transform="translate(88.710457 0)scale(0.996264)" xlink:href="#CMR17-28"/>
      <use transform="translate(123.991225 0)scale(0.996264)" xlink:href="#CMMI12-74"/>
      <use transform="translate(159.217555 0)scale(0.996264)" xlink:href="#CMR17-29"/>
     </g>
    </g>
   </g>
   <g id="line2d_41">
    <path clip-path="url(#p85fb06b188)" d="M 78.687264 80.650611 
L 102.654504 80.650611 
L 103.060729 59.817353 
L 148.557862 59.817353 
L 148.964087 38.984095 
L 288.299058 38.984095 
L 288.705282 59.817353 
L 304.548034 59.817353 
L 304.954259 80.650611 
L 318.359664 80.650611 
L 318.765889 101.483869 
L 330.952621 101.483869 
L 331.358845 122.317127 
L 343.139353 122.317127 
L 343.545577 143.150384 
L 355.326085 143.150384 
L 355.732309 163.983642 
L 368.73149 163.983642 
L 369.137715 184.8169 
L 465.819124 184.8169 
L 466.225348 163.983642 
L 478.41208 163.983642 
L 478.818305 143.150384 
L 484.505446 143.150384 
L 484.505446 143.150384 
" style="fill:none;stroke:#ff7f0e;stroke-linecap:square;stroke-width:1.5;"/>
   </g>
   <g id="patch_7">
    <path d="M 58.396355 224.64 
L 58.396355 7.2 
" style="fill:none;stroke:#000000;stroke-linecap:square;stroke-linejoin:miter;stroke-width:0.8;"/>
   </g>
   <g id="patch_8">
    <path d="M 504.796355 224.64 
L 504.796355 7.2 
" style="fill:none;stroke:#000000;stroke-linecap:square;stroke-linejoin:miter;stroke-width:0.8;"/>
   </g>
   <g id="patch_9">
    <path d="M 58.396355 224.64 
L 504.796355 224.64 
" style="fill:none;stroke:#000000;stroke-linecap:square;stroke-linejoin:miter;stroke-width:0.8;"/>
   </g>
   <g id="patch_10">
    <path d="M 58.396355 7.2 
L 504.796355 7.2 
" style="fill:none;stroke:#000000;stroke-linecap:square;stroke-linejoin:miter;stroke-width:0.8;"/>
   </g>
  </g>
 </g>
 <defs>
  <clipPath id="p85fb06b188">
   <rect height="217.44" width="446.4" x="58.396355" y="7.2"/>
  </clipPath>
 </defs>
</svg>
