<svg version="1.1" viewBox="0.0 0.0 508.244094488189 100.0" fill="none" stroke="none" stroke-linecap="square" stroke-miterlimit="10" xmlns:xlink="http://www.w3.org/1999/xlink" xmlns="http://www.w3.org/2000/svg"><clipPath id="p.0"><path d="m0 0l508.24408 0l0 100.0l-508.24408 0l0 -100.0z" clip-rule="nonzero"/></clipPath><g clip-path="url(#p.0)"><path fill="#000000" fill-opacity="0.0" d="m0 0l508.24408 0l0 100.0l-508.24408 0z" fill-rule="evenodd"/><path fill="#ffffff" d="m127.01312 0l173.7638 0l0 85.70079l-173.7638 0z" fill-rule="evenodd"/><path stroke="#000000" stroke-width="1.0" stroke-linejoin="round" stroke-linecap="butt" d="m127.01312 0l173.7638 0l0 85.70079l-173.7638 0z" fill-rule="evenodd"/><path fill="#000000" d="m158.61407 27.301643l0 -1.890625l1.640625 0l0 1.890625l-1.640625 0zm0 11.46875l0 -9.671875l1.640625 0l0 9.671875l-1.640625 0zm4.144821 0l0 -9.671875l1.46875 0l0 1.375q1.0625 -1.59375 3.078125 -1.59375q0.875 0 1.609375 0.3125q0.734375 0.3125 1.09375 0.828125q0.375 0.5 0.515625 1.203125q0.09375 0.453125 0.09375 1.59375l0 5.953125l-1.640625 0l0 -5.890625q0 -1.0 -0.203125 -1.484375q-0.1875 -0.5 -0.671875 -0.796875q-0.484375 -0.296875 -1.140625 -0.296875q-1.046875 0 -1.8125 0.671875q-0.75 0.65625 -0.75 2.515625l0 5.28125l-1.640625 0zm9.719467 -2.890625l1.625 -0.25q0.125 0.96875 0.75 1.5q0.625 0.515625 1.75 0.515625q1.125 0 1.671875 -0.453125q0.546875 -0.46875 0.546875 -1.09375q0 -0.546875 -0.484375 -0.875q-0.328125 -0.21875 -1.671875 -0.546875q-1.8125 -0.46875 -2.515625 -0.796875q-0.6875 -0.328125 -1.046875 -0.90625q-0.359375 -0.59375 -0.359375 -1.3125q0 -0.640625 0.296875 -1.1875q0.296875 -0.5625 0.8125 -0.921875q0.375 -0.28125 1.03125 -0.46875q0.671875 -0.203125 1.421875 -0.203125q1.140625 0 2.0 0.328125q0.859375 0.328125 1.265625 0.890625q0.421875 0.5625 0.578125 1.5l-1.609375 0.21875q-0.109375 -0.75 -0.640625 -1.171875q-0.515625 -0.421875 -1.46875 -0.421875q-1.140625 0 -1.625 0.375q-0.46875 0.375 -0.46875 0.875q0 0.3125 0.1875 0.578125q0.203125 0.265625 0.640625 0.4375q0.234375 0.09375 1.4375 0.421875q1.75 0.453125 2.4375 0.75q0.6875 0.296875 1.078125 0.859375q0.390625 0.5625 0.390625 1.40625q0 0.828125 -0.484375 1.546875q-0.46875 0.71875 -1.375 1.125q-0.90625 0.390625 -2.046875 0.390625q-1.875 0 -2.875 -0.78125q-0.984375 -0.78125 -1.25 -2.328125zm13.5625 1.421875l0.234375 1.453125q-0.6875 0.140625 -1.234375 0.140625q-0.890625 0 -1.390625 -0.28125q-0.484375 -0.28125 -0.6875 -0.734375q-0.203125 -0.46875 -0.203125 -1.9375l0 -5.578125l-1.203125 0l0 -1.265625l1.203125 0l0 -2.390625l1.625 -0.984375l0 3.375l1.65625 0l0 1.265625l-1.65625 0l0 5.671875q0 0.6875 0.078125 0.890625q0.09375 0.203125 0.28125 0.328125q0.203125 0.109375 0.578125 0.109375q0.265625 0 0.71875 -0.0625zm1.5895538 1.46875l0 -9.671875l1.46875 0l0 1.46875q0.5625 -1.03125 1.03125 -1.359375q0.484375 -0.328125 1.0625 -0.328125q0.828125 0 1.6875 0.53125l-0.5625 1.515625q-0.609375 -0.359375 -1.203125 -0.359375q-0.546875 0 -0.96875 0.328125q-0.421875 0.328125 -0.609375 0.890625q-0.28125 0.875 -0.28125 1.921875l0 5.0625l-1.625 0zm12.556427 0l0 -1.421875q-1.125 1.640625 -3.0625 1.640625q-0.859375 0 -1.609375 -0.328125q-0.734375 -0.328125 -1.09375 -0.828125q-0.359375 -0.5 -0.5 -1.21875q-0.109375 -0.46875 -0.109375 -1.53125l0 -5.984375l1.640625 0l0 5.359375q0 1.28125 0.109375 1.734375q0.15625 0.640625 0.65625 1.015625q0.5 0.375 1.234375 0.375q0.734375 0 1.375 -0.375q0.65625 -0.390625 0.921875 -1.03125q0.265625 -0.65625 0.265625 -1.890625l0 -5.1875l1.640625 0l0 9.671875l-1.46875 0zm4.047592 0l0 -9.671875l1.46875 0l0 1.359375q0.453125 -0.71875 1.203125 -1.140625q0.765625 -0.4375 1.71875 -0.4375q1.078125 0 1.765625 0.453125q0.6875 0.4375 0.96875 1.234375q1.15625 -1.6875 2.984375 -1.6875q1.453125 0 2.21875 0.796875q0.78125 0.796875 0.78125 2.453125l0 6.640625l-1.640625 0l0 -6.09375q0 -0.984375 -0.15625 -1.40625q-0.15625 -0.4375 -0.578125 -0.703125q-0.421875 -0.265625 -0.984375 -0.265625q-1.015625 0 -1.6875 0.6875q-0.671875 0.671875 -0.671875 2.15625l0 5.625l-1.640625 0l0 -6.28125q0 -1.09375 -0.40625 -1.640625q-0.40625 -0.546875 -1.3125 -0.546875q-0.6875 0 -1.28125 0.359375q-0.59375 0.359375 -0.859375 1.0625q-0.25 0.703125 -0.25 2.03125l0 5.015625l-1.640625 0zm22.165802 -3.109375l1.6875 0.203125q-0.40625 1.484375 -1.484375 2.3125q-1.078125 0.8125 -2.765625 0.8125q-2.125 0 -3.375 -1.296875q-1.234375 -1.3125 -1.234375 -3.671875q0 -2.453125 1.25 -3.796875q1.265625 -1.34375 3.265625 -1.34375q1.9375 0 3.15625 1.328125q1.234375 1.3125 1.234375 3.703125q0 0.15625 0 0.4375l-7.21875 0q0.09375 1.59375 0.90625 2.453125q0.8125 0.84375 2.015625 0.84375q0.90625 0 1.546875 -0.46875q0.640625 -0.484375 1.015625 -1.515625zm-5.390625 -2.65625l5.40625 0q-0.109375 -1.21875 -0.625 -1.828125q-0.78125 -0.953125 -2.03125 -0.953125q-1.125 0 -1.90625 0.765625q-0.765625 0.75 -0.84375 2.015625zm9.141342 5.765625l0 -9.671875l1.46875 0l0 1.375q1.0625 -1.59375 3.078125 -1.59375q0.875 0 1.609375 0.3125q0.734375 0.3125 1.09375 0.828125q0.375 0.5 0.515625 1.203125q0.09375 0.453125 0.09375 1.59375l0 5.953125l-1.640625 0l0 -5.890625q0 -1.0 -0.203125 -1.484375q-0.1875 -0.5 -0.671875 -0.796875q-0.484375 -0.296875 -1.140625 -0.296875q-1.046875 0 -1.8125 0.671875q-0.75 0.65625 -0.75 2.515625l0 5.28125l-1.640625 0zm13.953842 -1.46875l0.234375 1.453125q-0.6875 0.140625 -1.234375 0.140625q-0.890625 0 -1.390625 -0.28125q-0.484375 -0.28125 -0.6875 -0.734375q-0.203125 -0.46875 -0.203125 -1.9375l0 -5.578125l-1.203125 0l0 -1.265625l1.203125 0l0 -2.390625l1.625 -0.984375l0 3.375l1.65625 0l0 1.265625l-1.65625 0l0 5.671875q0 0.6875 0.078125 0.890625q0.09375 0.203125 0.28125 0.328125q0.203125 0.109375 0.578125 0.109375q0.265625 0 0.71875 -0.0625zm6.1791077 -3.375q0 -2.6875 1.484375 -3.96875q1.25 -1.078125 3.046875 -1.078125q2.0 0 3.265625 1.3125q1.265625 1.296875 1.265625 3.609375q0 1.859375 -0.5625 2.9375q-0.5625 1.0625 -1.640625 1.65625q-1.0625 0.59375 -2.328125 0.59375q-2.03125 0 -3.28125 -1.296875q-1.25 -1.3125 -1.25 -3.765625zm1.6875 0q0 1.859375 0.796875 2.796875q0.8125 0.921875 2.046875 0.921875q1.21875 0 2.03125 -0.921875q0.8125 -0.9375 0.8125 -2.84375q0 -1.796875 -0.8125 -2.71875q-0.8125 -0.921875 -2.03125 -0.921875q-1.234375 0 -2.046875 0.921875q-0.796875 0.90625 -0.796875 2.765625zm15.625702 4.84375l0 -1.421875q-1.125 1.640625 -3.0625 1.640625q-0.859375 0 -1.609375 -0.328125q-0.734375 -0.328125 -1.09375 -0.828125q-0.359375 -0.5 -0.5 -1.21875q-0.109375 -0.46875 -0.109375 -1.53125l0 -5.984375l1.640625 0l0 5.359375q0 1.28125 0.109375 1.734375q0.15625 0.640625 0.65625 1.015625q0.5 0.375 1.234375 0.375q0.734375 0 1.375 -0.375q0.65625 -0.390625 0.921875 -1.03125q0.265625 -0.65625 0.265625 -1.890625l0 -5.1875l1.640625 0l0 9.671875l-1.46875 0z" fill-rule="nonzero"/><path fill="#000000" d="m179.74318 57.87977l1.625 -0.25q0.125 0.96875 0.75 1.5q0.625 0.515625 1.75 0.515625q1.125 0 1.671875 -0.453125q0.546875 -0.46875 0.546875 -1.09375q0 -0.546875 -0.484375 -0.875q-0.328125 -0.21875 -1.671875 -0.546875q-1.8125 -0.46875 -2.515625 -0.796875q-0.6875 -0.328125 -1.046875 -0.90625q-0.359375 -0.59375 -0.359375 -1.3125q0 -0.640625 0.296875 -1.1875q0.296875 -0.5625 0.8125 -0.921875q0.375 -0.28125 1.03125 -0.46875q0.671875 -0.203125 1.421875 -0.203125q1.140625 0 2.0 0.328125q0.859375 0.328125 1.265625 0.890625q0.421875 0.5625 0.578125 1.5l-1.609375 0.21875q-0.109375 -0.75 -0.640625 -1.171875q-0.515625 -0.421875 -1.46875 -0.421875q-1.140625 0 -1.625 0.375q-0.46875 0.375 -0.46875 0.875q0 0.3125 0.1875 0.578125q0.203125 0.265625 0.640625 0.4375q0.234375 0.09375 1.4375 0.421875q1.75 0.453125 2.4375 0.75q0.6875 0.296875 1.078125 0.859375q0.390625 0.5625 0.390625 1.40625q0 0.828125 -0.484375 1.546875q-0.46875 0.71875 -1.375 1.125q-0.90625 0.390625 -2.046875 0.390625q-1.875 0 -2.875 -0.78125q-0.984375 -0.78125 -1.25 -2.328125zm9.90625 6.609375l-0.1875 -1.53125q0.546875 0.140625 0.9375 0.140625q0.546875 0 0.875 -0.1875q0.328125 -0.171875 0.546875 -0.5q0.15625 -0.25 0.5 -1.21875q0.046875 -0.140625 0.140625 -0.40625l-3.671875 -9.6875l1.765625 0l2.015625 5.59375q0.390625 1.078125 0.703125 2.25q0.28125 -1.125 0.671875 -2.203125l2.078125 -5.640625l1.640625 0l-3.6875 9.828125q-0.59375 1.609375 -0.921875 2.203125q-0.4375 0.8125 -1.0 1.1875q-0.5625 0.375 -1.34375 0.375q-0.484375 0 -1.0625 -0.203125zm8.75 -6.609375l1.625 -0.25q0.125 0.96875 0.75 1.5q0.625 0.515625 1.75 0.515625q1.125 0 1.671875 -0.453125q0.546875 -0.46875 0.546875 -1.09375q0 -0.546875 -0.484375 -0.875q-0.328125 -0.21875 -1.671875 -0.546875q-1.8125 -0.46875 -2.515625 -0.796875q-0.6875 -0.328125 -1.046875 -0.90625q-0.359375 -0.59375 -0.359375 -1.3125q0 -0.640625 0.296875 -1.1875q0.296875 -0.5625 0.8125 -0.921875q0.375 -0.28125 1.03125 -0.46875q0.671875 -0.203125 1.421875 -0.203125q1.140625 0 2.0 0.328125q0.859375 0.328125 1.265625 0.890625q0.421875 0.5625 0.578125 1.5l-1.609375 0.21875q-0.109375 -0.75 -0.640625 -1.171875q-0.515625 -0.421875 -1.46875 -0.421875q-1.140625 0 -1.625 0.375q-0.46875 0.375 -0.46875 0.875q0 0.3125 0.1875 0.578125q0.203125 0.265625 0.640625 0.4375q0.234375 0.09375 1.4375 0.421875q1.75 0.453125 2.4375 0.75q0.6875 0.296875 1.078125 0.859375q0.390625 0.5625 0.390625 1.40625q0 0.828125 -0.484375 1.546875q-0.46875 0.71875 -1.375 1.125q-0.90625 0.390625 -2.046875 0.390625q-1.875 0 -2.875 -0.78125q-0.984375 -0.78125 -1.25 -2.328125zm13.5625 1.421875l0.234375 1.453125q-0.6875 0.140625 -1.234375 0.140625q-0.890625 0 -1.390625 -0.28125q-0.484375 -0.28125 -0.6875 -0.734375q-0.203125 -0.46875 -0.203125 -1.9375l0 -5.578125l-1.203125 0l0 -1.265625l1.203125 0l0 -2.390625l1.625 -0.984375l0 3.375l1.65625 0l0 1.265625l-1.65625 0l0 5.671875q0 0.6875 0.078125 0.890625q0.09375 0.203125 0.28125 0.328125q0.203125 0.109375 0.578125 0.109375q0.265625 0 0.71875 -0.0625zm8.230179 -1.640625l1.6875 0.203125q-0.40625 1.484375 -1.484375 2.3125q-1.078125 0.8125 -2.765625 0.8125q-2.125 0 -3.375 -1.296875q-1.234375 -1.3125 -1.234375 -3.671875q0 -2.453125 1.25 -3.796875q1.265625 -1.34375 3.265625 -1.34375q1.9375 0 3.15625 1.328125q1.234375 1.3125 1.234375 3.703125q0 0.15625 0 0.4375l-7.21875 0q0.09375 1.59375 0.90625 2.453125q0.8125 0.84375 2.015625 0.84375q0.90625 0 1.546875 -0.46875q0.640625 -0.484375 1.015625 -1.515625zm-5.390625 -2.65625l5.40625 0q-0.109375 -1.21875 -0.625 -1.828125q-0.78125 -0.953125 -2.03125 -0.953125q-1.125 0 -1.90625 0.765625q-0.765625 0.75 -0.84375 2.015625zm3.765625 -5.109375l-1.3125 0l-2.109375 -2.546875l2.1875 0l1.234375 2.546875zm5.375717 10.875l0 -9.671875l1.46875 0l0 1.359375q0.453125 -0.71875 1.203125 -1.140625q0.765625 -0.4375 1.71875 -0.4375q1.078125 0 1.765625 0.453125q0.6875 0.4375 0.96875 1.234375q1.15625 -1.6875 2.984375 -1.6875q1.453125 0 2.21875 0.796875q0.78125 0.796875 0.78125 2.453125l0 6.640625l-1.640625 0l0 -6.09375q0 -0.984375 -0.15625 -1.40625q-0.15625 -0.4375 -0.578125 -0.703125q-0.421875 -0.265625 -0.984375 -0.265625q-1.015625 0 -1.6875 0.6875q-0.671875 0.671875 -0.671875 2.15625l0 5.625l-1.640625 0l0 -6.28125q0 -1.09375 -0.40625 -1.640625q-0.40625 -0.546875 -1.3125 -0.546875q-0.6875 0 -1.28125 0.359375q-0.59375 0.359375 -0.859375 1.0625q-0.25 0.703125 -0.25 2.03125l0 5.015625l-1.640625 0zm22.165802 -3.109375l1.6875 0.203125q-0.40625 1.484375 -1.484375 2.3125q-1.078125 0.8125 -2.765625 0.8125q-2.125 0 -3.375 -1.296875q-1.234375 -1.3125 -1.234375 -3.671875q0 -2.453125 1.25 -3.796875q1.265625 -1.34375 3.265625 -1.34375q1.9375 0 3.15625 1.328125q1.234375 1.3125 1.234375 3.703125q0 0.15625 0 0.4375l-7.21875 0q0.09375 1.59375 0.90625 2.453125q0.8125 0.84375 2.015625 0.84375q0.90625 0 1.546875 -0.46875q0.640625 -0.484375 1.015625 -1.515625zm-5.390625 -2.65625l5.40625 0q-0.109375 -1.21875 -0.625 -1.828125q-0.78125 -0.953125 -2.03125 -0.953125q-1.125 0 -1.90625 0.765625q-0.765625 0.75 -0.84375 2.015625z" fill-rule="nonzero"/><path fill="#000000" fill-opacity="0.0" d="m47.51706 41.27559l79.49606 1.5748062" fill-rule="evenodd"/><path stroke="#000000" stroke-width="1.0" stroke-linejoin="round" stroke-linecap="butt" d="m47.51706 41.27559l73.497246 1.4559708" fill-rule="evenodd"/><path fill="#000000" stroke="#000000" stroke-width="1.0" stroke-linecap="butt" d="m120.98158 44.382965l4.5699234 -1.5615273l-4.5044937 -1.7412872z" fill-rule="evenodd"/><path fill="#000000" fill-opacity="0.0" d="m300.77692 42.850395l79.49606 1.5748024" fill-rule="evenodd"/><path stroke="#000000" stroke-width="1.0" stroke-linejoin="round" stroke-linecap="butt" d="m300.77692 42.850395l73.49725 1.4559631" fill-rule="evenodd"/><path fill="#000000" stroke="#000000" stroke-width="1.0" stroke-linecap="butt" d="m374.24142 45.95777l4.569916 -1.5615273l-4.504486 -1.741291z" fill-rule="evenodd"/><path fill="#000000" fill-opacity="0.0" d="m0 0l47.496063 0l0 85.70079l-47.496063 0z" fill-rule="evenodd"/><path fill="#000000" d="m15.841248 41.520393q0.453125 0.484375 0.671875 0.953125q0.171875 0.328125 0.546875 1.71875l0.796875 -1.203125q0.328125 -0.4375 0.78125 -0.828125q0.453125 -0.390625 0.796875 -0.546875q0.21875 -0.09375 0.484375 -0.09375q0.390625 0 0.625 0.21875q0.234375 0.203125 0.234375 0.5q0 0.359375 -0.140625 0.484375q-0.25 0.21875 -0.578125 0.21875q-0.203125 0 -0.421875 -0.078125q-0.421875 -0.140625 -0.5625 -0.140625q-0.21875 0 -0.53125 0.25q-0.5625 0.46875 -1.34375 1.828125l0.75 3.140625q0.171875 0.71875 0.28125 0.859375q0.125 0.140625 0.25 0.140625q0.1875 0 0.4375 -0.203125q0.5 -0.421875 0.859375 -1.09375l0.328125 0.15625q-0.578125 1.078125 -1.46875 1.78125q-0.5 0.40625 -0.84375 0.40625q-0.515625 0 -0.8125 -0.578125q-0.1875 -0.34375 -0.796875 -3.0625q-1.40625 2.46875 -2.265625 3.1875q-0.5625 0.453125 -1.078125 0.453125q-0.359375 0 -0.671875 -0.265625q-0.21875 -0.203125 -0.21875 -0.53125q0 -0.3125 0.203125 -0.5q0.203125 -0.203125 0.5 -0.203125q0.28125 0 0.609375 0.28125q0.234375 0.21875 0.375 0.21875q0.109375 0 0.28125 -0.140625q0.421875 -0.359375 1.15625 -1.5q0.75 -1.15625 0.96875 -1.65625q-0.5625 -2.21875 -0.609375 -2.34375q-0.203125 -0.59375 -0.546875 -0.828125q-0.328125 -0.25 -0.984375 -0.25q-0.21875 0 -0.484375 0.015625l0 -0.328125l2.421875 -0.4375zm8.546158 12.09375l-0.296875 0.140625q-1.09375 -2.0625 -1.5625 -3.640625q-0.359375 -1.25 -0.359375 -2.5q0 -2.9375 1.34375 -5.265625q1.671875 -2.828125 5.40625 -5.53125l0.21875 0.3125q-1.6875 1.25 -2.75 2.796875q-1.328125 1.9375 -2.171875 4.671875q-0.84375 2.734375 -0.84375 4.96875q0 1.71875 1.015625 4.046875zm7.556427 -14.34375l-0.703125 2.46875l1.421875 0l-0.15625 0.578125l-1.421875 0l-1.5625 5.375q-0.25 0.859375 -0.25 1.125q0 0.15625 0.0625 0.234375q0.078125 0.078125 0.171875 0.078125q0.234375 0 0.609375 -0.3125q0.21875 -0.1875 0.96875 -1.125l0.3125 0.234375q-0.84375 1.21875 -1.59375 1.71875q-0.5 0.34375 -1.03125 0.34375q-0.390625 0 -0.65625 -0.25q-0.25 -0.25 -0.25 -0.640625q0 -0.5 0.296875 -1.5l1.515625 -5.28125l-1.375 0l0.09375 -0.359375q1.0 -0.265625 1.65625 -0.8125q0.671875 -0.546875 1.5 -1.875l0.390625 0zm3.0583038 -2.28125l0.3125 -0.171875q1.078125 2.0625 1.546875 3.640625q0.375 1.234375 0.375 2.5q0 2.9375 -1.359375 5.25q-1.6875 2.859375 -5.40625 5.546875l-0.21875 -0.28125q1.6875 -1.25 2.75 -2.796875q1.328125 -1.921875 2.171875 -4.65625q0.859375 -2.75 0.859375 -4.984375q0 -1.71875 -1.03125 -4.046875z" fill-rule="nonzero"/><path fill="#000000" fill-opacity="0.0" d="m380.29398 0.78740156l124.62991 0l0 85.70079l-124.62991 0z" fill-rule="evenodd"/><path fill="#000000" d="m392.27835 42.307796q0.3125 0.53125 0.421875 1.0q0.125 0.453125 0.25 1.796875l0.390625 4.484375q0.546875 -0.65625 1.59375 -2.078125q0.5 -0.6875 1.234375 -1.875q0.4375 -0.734375 0.546875 -1.03125q0.046875 -0.140625 0.046875 -0.296875q0 -0.09375 -0.0625 -0.15625q-0.0625 -0.078125 -0.328125 -0.15625q-0.265625 -0.09375 -0.453125 -0.3125q-0.171875 -0.234375 -0.171875 -0.546875q0 -0.359375 0.21875 -0.59375q0.21875 -0.234375 0.546875 -0.234375q0.40625 0 0.6875 0.34375q0.28125 0.328125 0.28125 0.90625q0 0.71875 -0.5 1.65625q-0.484375 0.921875 -1.890625 2.84375q-1.40625 1.90625 -3.390625 4.15625q-1.375 1.5625 -2.046875 1.96875q-0.65625 0.40625 -1.140625 0.40625q-0.28125 0 -0.484375 -0.21875q-0.21875 -0.21875 -0.21875 -0.5q0 -0.359375 0.296875 -0.65625q0.296875 -0.28125 0.640625 -0.28125q0.171875 0 0.296875 0.078125q0.078125 0.046875 0.171875 0.265625q0.078125 0.21875 0.140625 0.28125q0.046875 0.046875 0.109375 0.046875q0.0625 0 0.203125 -0.09375q0.5 -0.296875 1.15625 -0.96875q0.875 -0.90625 1.296875 -1.46875l-0.515625 -5.765625q-0.125 -1.4375 -0.375 -1.75q-0.25 -0.3125 -0.859375 -0.3125q-0.1875 0 -0.6875 0.0625l-0.078125 -0.34375l2.671875 -0.65625zm8.796143 12.09375l-0.296875 0.140625q-1.09375 -2.0625 -1.5625 -3.640625q-0.359375 -1.25 -0.359375 -2.5q0 -2.9375 1.34375 -5.265625q1.671875 -2.828125 5.40625 -5.53125l0.21875 0.3125q-1.6875 1.25 -2.75 2.796875q-1.328125 1.9375 -2.171875 4.671875q-0.84375 2.734375 -0.84375 4.96875q0 1.71875 1.015625 4.046875zm7.556427 -14.34375l-0.703125 2.46875l1.421875 0l-0.15625 0.578125l-1.421875 0l-1.5625 5.375q-0.25 0.859375 -0.25 1.125q0 0.15625 0.0625 0.234375q0.078125 0.078125 0.171875 0.078125q0.234375 0 0.609375 -0.3125q0.21875 -0.1875 0.96875 -1.125l0.3125 0.234375q-0.84375 1.21875 -1.59375 1.71875q-0.5 0.34375 -1.03125 0.34375q-0.390625 0 -0.65625 -0.25q-0.25 -0.25 -0.25 -0.640625q0 -0.5 0.296875 -1.5l1.515625 -5.28125l-1.375 0l0.09375 -0.359375q1.0 -0.265625 1.65625 -0.8125q0.671875 -0.546875 1.5 -1.875l0.390625 0zm3.058319 -2.28125l0.3125 -0.171875q1.078125 2.0625 1.546875 3.640625q0.375 1.234375 0.375 2.5q0 2.9375 -1.359375 5.25q-1.6875 2.859375 -5.40625 5.546875l-0.21875 -0.28125q1.6875 -1.25 2.75 -2.796875q1.328125 -1.921875 2.171875 -4.65625q0.859375 -2.75 0.859375 -4.984375q0 -1.71875 -1.03125 -4.046875zm9.9861145 4.734375l9.828125 0l0 0.75l-9.828125 0l0 -0.75zm0 2.96875l9.828125 0l0 0.75l-9.828125 0l0 -0.75zm18.925262 8.921875l-0.296875 0.140625q-1.09375 -2.0625 -1.5625 -3.640625q-0.359375 -1.25 -0.359375 -2.5q0 -2.9375 1.34375 -5.265625q1.671875 -2.828125 5.40625 -5.53125l0.21875 0.3125q-1.6875 1.25 -2.75 2.796875q-1.328125 1.9375 -2.171875 4.671875q-0.84375 2.734375 -0.84375 4.96875q0 1.71875 1.015625 4.046875zm5.947052 -12.09375q0.453125 0.484375 0.671875 0.953125q0.171875 0.328125 0.546875 1.71875l0.796875 -1.203125q0.328125 -0.4375 0.78125 -0.828125q0.453125 -0.390625 0.796875 -0.546875q0.21875 -0.09375 0.484375 -0.09375q0.390625 0 0.625 0.21875q0.234375 0.203125 0.234375 0.5q0 0.359375 -0.140625 0.484375q-0.25 0.21875 -0.578125 0.21875q-0.203125 0 -0.421875 -0.078125q-0.421875 -0.140625 -0.5625 -0.140625q-0.21875 0 -0.53125 0.25q-0.5625 0.46875 -1.34375 1.828125l0.75 3.140625q0.171875 0.71875 0.28125 0.859375q0.125 0.140625 0.25 0.140625q0.1875 0 0.4375 -0.203125q0.5 -0.421875 0.859375 -1.09375l0.328125 0.15625q-0.578125 1.078125 -1.46875 1.78125q-0.5 0.40625 -0.84375 0.40625q-0.515625 0 -0.8125 -0.578125q-0.1875 -0.34375 -0.796875 -3.0625q-1.40625 2.46875 -2.265625 3.1875q-0.5625 0.453125 -1.078125 0.453125q-0.359375 0 -0.671875 -0.265625q-0.21875 -0.203125 -0.21875 -0.53125q0 -0.3125 0.203125 -0.5q0.203125 -0.203125 0.5 -0.203125q0.28125 0 0.609375 0.28125q0.234375 0.21875 0.375 0.21875q0.109375 0 0.28125 -0.140625q0.421875 -0.359375 1.15625 -1.5q0.75 -1.15625 0.96875 -1.65625q-0.5625 -2.21875 -0.609375 -2.34375q-0.203125 -0.59375 -0.546875 -0.828125q-0.328125 -0.25 -0.984375 -0.25q-0.21875 0 -0.484375 0.015625l0 -0.328125l2.421875 -0.4375zm10.874268 -1.265625q-0.03125 -0.625 -0.25 -1.25q-0.3125 -0.890625 -0.3125 -1.21875q0 -0.484375 0.21875 -0.71875q0.21875 -0.25 0.546875 -0.25q0.28125 0 0.484375 0.25q0.21875 0.234375 0.21875 0.703125q0 0.40625 -0.25 1.140625q-0.234375 0.734375 -0.28125 1.34375q0.5 -0.3125 0.90625 -0.765625q0.609375 -0.71875 0.90625 -0.890625q0.3125 -0.171875 0.625 -0.171875q0.296875 0 0.5 0.203125q0.203125 0.203125 0.203125 0.484375q0 0.328125 -0.296875 0.59375q-0.296875 0.265625 -1.5 0.53125q-0.703125 0.15625 -1.171875 0.359375q0.46875 0.25 1.15625 0.375q1.109375 0.203125 1.4375 0.5q0.34375 0.296875 0.34375 0.65625q0 0.265625 -0.203125 0.46875q-0.203125 0.203125 -0.46875 0.203125q-0.28125 0 -0.609375 -0.1875q-0.328125 -0.1875 -0.90625 -0.859375q-0.375 -0.453125 -0.921875 -0.84375q0.015625 0.53125 0.203125 1.140625q0.328125 1.0625 0.328125 1.453125q0 0.375 -0.21875 0.625q-0.21875 0.25 -0.453125 0.25q-0.34375 0 -0.609375 -0.265625q-0.203125 -0.1875 -0.203125 -0.609375q0 -0.4375 0.203125 -1.046875q0.21875 -0.625 0.265625 -0.859375q0.0625 -0.234375 0.109375 -0.6875q-0.53125 0.359375 -0.9375 0.796875q-0.671875 0.75 -1.0 0.953125q-0.234375 0.140625 -0.5 0.140625q-0.296875 0 -0.515625 -0.203125q-0.21875 -0.21875 -0.21875 -0.46875q0 -0.234375 0.171875 -0.484375q0.1875 -0.25 0.5625 -0.40625q0.25 -0.109375 1.125 -0.296875q0.5625 -0.125 1.109375 -0.34375q-0.5 -0.25 -1.1875 -0.390625q-1.109375 -0.234375 -1.375 -0.421875q-0.40625 -0.296875 -0.40625 -0.734375q0 -0.234375 0.203125 -0.4375q0.203125 -0.21875 0.46875 -0.21875q0.3125 0 0.640625 0.203125q0.34375 0.1875 0.84375 0.765625q0.5 0.578125 1.015625 0.890625zm8.96875 -3.4375l-2.546875 8.84375q1.65625 -2.5 2.578125 -3.3125q0.9375 -0.828125 1.78125 -0.828125q0.4375 0 0.71875 0.3125q0.296875 0.296875 0.296875 0.796875q0 0.59375 -0.25 1.453125l-1.109375 3.8125q-0.21875 0.703125 -0.21875 0.765625q0 0.140625 0.078125 0.21875q0.078125 0.078125 0.1875 0.078125q0.109375 0 0.265625 -0.109375q0.515625 -0.40625 1.03125 -1.125l0.28125 0.171875q-0.3125 0.484375 -0.859375 1.0625q-0.546875 0.578125 -0.953125 0.8125q-0.390625 0.21875 -0.703125 0.21875q-0.328125 0 -0.546875 -0.21875q-0.21875 -0.203125 -0.21875 -0.546875q0 -0.40625 0.328125 -1.5l1.046875 -3.640625q0.1875 -0.6875 0.1875 -1.078125q0 -0.171875 -0.109375 -0.28125q-0.109375 -0.109375 -0.296875 -0.109375q-0.265625 0 -0.59375 0.203125q-0.625 0.375 -1.4375 1.421875q-0.21875 0.28125 -1.453125 2.265625q-0.390625 0.640625 -0.625 1.390625l-0.59375 1.875l-1.359375 0l3.0 -10.421875l0.3125 -1.125q0 -0.234375 -0.203125 -0.421875q-0.1875 -0.1875 -0.46875 -0.1875q-0.171875 0 -0.5 0.0625l-0.1875 0.03125l0 -0.359375l3.140625 -0.53125zm6.578125 0.171875l0.3125 -0.171875q1.078125 2.0625 1.546875 3.640625q0.375 1.234375 0.375 2.5q0 2.9375 -1.359375 5.25q-1.6875 2.859375 -5.40625 5.546875l-0.21875 -0.28125q1.6875 -1.25 2.75 -2.796875q1.328125 -1.921875 2.171875 -4.65625q0.859375 -2.75 0.859375 -4.984375q0 -1.71875 -1.03125 -4.046875zm6.993927 16.625l-0.296875 0.140625q-1.09375 -2.0625 -1.5625 -3.640625q-0.359375 -1.25 -0.359375 -2.5q0 -2.9375 1.34375 -5.265625q1.671875 -2.828125 5.40625 -5.53125l0.21875 0.3125q-1.6875 1.25 -2.75 2.796875q-1.328125 1.9375 -2.171875 4.671875q-0.84375 2.734375 -0.84375 4.96875q0 1.71875 1.015625 4.046875zm7.556427 -14.34375l-0.703125 2.46875l1.421875 0l-0.15625 0.578125l-1.421875 0l-1.5625 5.375q-0.25 0.859375 -0.25 1.125q0 0.15625 0.0625 0.234375q0.078125 0.078125 0.171875 0.078125q0.234375 0 0.609375 -0.3125q0.21875 -0.1875 0.96875 -1.125l0.3125 0.234375q-0.84375 1.21875 -1.59375 1.71875q-0.5 0.34375 -1.03125 0.34375q-0.390625 0 -0.65625 -0.25q-0.25 -0.25 -0.25 -0.640625q0 -0.5 0.296875 -1.5l1.515625 -5.28125l-1.375 0l0.09375 -0.359375q1.0 -0.265625 1.65625 -0.8125q0.671875 -0.546875 1.5 -1.875l0.390625 0zm3.058319 -2.28125l0.3125 -0.171875q1.078125 2.0625 1.546875 3.640625q0.375 1.234375 0.375 2.5q0 2.9375 -1.359375 5.25q-1.6875 2.859375 -5.40625 5.546875l-0.21875 -0.28125q1.6875 -1.25 2.75 -2.796875q1.328125 -1.921875 2.171875 -4.65625q0.859375 -2.75 0.859375 -4.984375q0 -1.71875 -1.03125 -4.046875z" fill-rule="nonzero"/></g></svg>