<?xml version="1.0" encoding="utf-8" standalone="no"?>
<!DOCTYPE svg PUBLIC "-//W3C//DTD SVG 1.1//EN"
  "http://www.w3.org/Graphics/SVG/1.1/DTD/svg11.dtd">
<svg xmlns:xlink="http://www.w3.org/1999/xlink" width="597.477975pt" height="198.346776pt" viewBox="0 0 597.477975 198.346776" xmlns="http://www.w3.org/2000/svg" version="1.1">
 <metadata>
  <rdf:RDF xmlns:dc="http://purl.org/dc/elements/1.1/" xmlns:cc="http://creativecommons.org/ns#" xmlns:rdf="http://www.w3.org/1999/02/22-rdf-syntax-ns#">
   <cc:Work>
    <dc:type rdf:resource="http://purl.org/dc/dcmitype/StillImage"/>
    <dc:date>2026-03-06T17:20:03.261143</dc:date>
    <dc:format>image/svg+xml</dc:format>
    <dc:creator>
     <cc:Agent>
      <dc:title>Matplotlib v3.10.6, https://matplotlib.org/</dc:title>
     </cc:Agent>
    </dc:creator>
   </cc:Work>
  </rdf:RDF>
 </metadata>
 <defs>
  <style type="text/css">*{stroke-linejoin: round; stroke-linecap: butt}</style>
 </defs>
 <g id="figure_1">
  <g id="patch_1">
   <path d="M 0 198.346776 
L 597.477975 198.346776 
L 597.477975 0 
L 0 0 
z
" style="fill: #ffffff"/>
  </g>
  <g id="axes_1">
   <g id="patch_2">
    <path d="M 29.35148 173.52 
L 587.35148 173.52 
L 587.35148 7.2 
L 29.35148 7.2 
z
" style="fill: #ffffff"/>
   </g>
   <g id="matplotlib.axis_1">
    <g id="xtick_1">
     <g id="line2d_1">
      <path d="M 29.35148 173.52 
L 29.35148 7.2 
" clip-path="url(#pf109f439d7)" style="fill: none; stroke: #b0b0b0; stroke-width: 0.8; stroke-linecap: square"/>
     </g>
     <g id="line2d_2">
      <defs>
       <path id="m6b92c40b72" d="M 0 0 
L 0 3.5 
" style="stroke: #000000; stroke-width: 0.8"/>
      </defs>
      <g>
       <use xlink:href="#m6b92c40b72" x="29.35148" y="173.52" style="stroke: #000000; stroke-width: 0.8"/>
      </g>
     </g>
     <g id="text_1">
      <!-- $\mathdefault{0}$ -->
      <g transform="translate(26.424985 188.82218) scale(0.12 -0.12)">
       <defs>
        <path id="CMR17-30" d="M 2688 2038 
C 2688 2430 2682 3099 2413 3613 
C 2176 4063 1798 4224 1466 4224 
C 1158 4224 768 4082 525 3620 
C 269 3137 243 2539 243 2038 
C 243 1671 250 1112 448 623 
C 723 -39 1216 -128 1466 -128 
C 1760 -128 2208 -7 2470 604 
C 2662 1048 2688 1568 2688 2038 
z
M 1466 -26 
C 1056 -26 813 328 723 816 
C 653 1196 653 1749 653 2109 
C 653 2604 653 3015 736 3407 
C 858 3954 1216 4121 1466 4121 
C 1728 4121 2067 3947 2189 3420 
C 2272 3054 2278 2623 2278 2109 
C 2278 1691 2278 1176 2202 797 
C 2067 96 1690 -26 1466 -26 
z
" transform="scale(0.015625)"/>
       </defs>
       <use xlink:href="#CMR17-30" transform="scale(0.996264)"/>
      </g>
     </g>
    </g>
    <g id="xtick_2">
     <g id="line2d_3">
      <path d="M 168.85148 173.52 
L 168.85148 7.2 
" clip-path="url(#pf109f439d7)" style="fill: none; stroke: #b0b0b0; stroke-width: 0.8; stroke-linecap: square"/>
     </g>
     <g id="line2d_4">
      <g>
       <use xlink:href="#m6b92c40b72" x="168.85148" y="173.52" style="stroke: #000000; stroke-width: 0.8"/>
      </g>
     </g>
     <g id="text_2">
      <!-- $\mathdefault{1}$ -->
      <g transform="translate(165.924985 188.82218) scale(0.12 -0.12)">
       <defs>
        <path id="CMR17-31" d="M 1702 4083 
C 1702 4217 1696 4224 1606 4224 
C 1357 3927 979 3833 621 3820 
C 602 3820 570 3820 563 3808 
C 557 3795 557 3782 557 3648 
C 755 3648 1088 3686 1344 3839 
L 1344 467 
C 1344 243 1331 166 781 166 
L 589 166 
L 589 0 
C 896 6 1216 12 1523 12 
C 1830 12 2150 6 2458 0 
L 2458 166 
L 2266 166 
C 1715 166 1702 236 1702 467 
L 1702 4083 
z
" transform="scale(0.015625)"/>
       </defs>
       <use xlink:href="#CMR17-31" transform="scale(0.996264)"/>
      </g>
     </g>
    </g>
    <g id="xtick_3">
     <g id="line2d_5">
      <path d="M 308.35148 173.52 
L 308.35148 7.2 
" clip-path="url(#pf109f439d7)" style="fill: none; stroke: #b0b0b0; stroke-width: 0.8; stroke-linecap: square"/>
     </g>
     <g id="line2d_6">
      <g>
       <use xlink:href="#m6b92c40b72" x="308.35148" y="173.52" style="stroke: #000000; stroke-width: 0.8"/>
      </g>
     </g>
     <g id="text_3">
      <!-- $\mathdefault{2}$ -->
      <g transform="translate(305.424985 188.82218) scale(0.12 -0.12)">
       <defs>
        <path id="CMR17-32" d="M 2669 990 
L 2554 990 
C 2490 537 2438 460 2413 422 
C 2381 371 1920 371 1830 371 
L 602 371 
C 832 620 1280 1073 1824 1596 
C 2214 1966 2669 2400 2669 3033 
C 2669 3788 2067 4224 1395 4224 
C 691 4224 262 3603 262 3027 
C 262 2777 448 2745 525 2745 
C 589 2745 781 2783 781 3007 
C 781 3206 614 3264 525 3264 
C 486 3264 448 3257 422 3244 
C 544 3788 915 4057 1306 4057 
C 1862 4057 2227 3616 2227 3033 
C 2227 2477 1901 1998 1536 1583 
L 262 147 
L 262 0 
L 2515 0 
L 2669 990 
z
" transform="scale(0.015625)"/>
       </defs>
       <use xlink:href="#CMR17-32" transform="scale(0.996264)"/>
      </g>
     </g>
    </g>
    <g id="xtick_4">
     <g id="line2d_7">
      <path d="M 447.85148 173.52 
L 447.85148 7.2 
" clip-path="url(#pf109f439d7)" style="fill: none; stroke: #b0b0b0; stroke-width: 0.8; stroke-linecap: square"/>
     </g>
     <g id="line2d_8">
      <g>
       <use xlink:href="#m6b92c40b72" x="447.85148" y="173.52" style="stroke: #000000; stroke-width: 0.8"/>
      </g>
     </g>
     <g id="text_4">
      <!-- $\mathdefault{3}$ -->
      <g transform="translate(444.924985 188.82218) scale(0.12 -0.12)">
       <defs>
        <path id="CMR17-33" d="M 1414 2176 
C 1984 2176 2234 1673 2234 1094 
C 2234 322 1824 25 1453 25 
C 1114 25 563 193 390 691 
C 422 678 454 678 486 678 
C 640 678 755 780 755 947 
C 755 1132 614 1216 486 1216 
C 378 1216 211 1164 211 927 
C 211 335 787 -128 1466 -128 
C 2176 -128 2720 432 2720 1087 
C 2720 1718 2208 2176 1600 2246 
C 2086 2347 2554 2776 2554 3353 
C 2554 3856 2048 4224 1472 4224 
C 890 4224 378 3862 378 3347 
C 378 3123 544 3084 627 3084 
C 762 3084 877 3167 877 3334 
C 877 3500 762 3584 627 3584 
C 602 3584 570 3584 544 3571 
C 730 3999 1235 4076 1459 4076 
C 1683 4076 2106 3966 2106 3347 
C 2106 3167 2080 2851 1862 2574 
C 1670 2329 1453 2316 1242 2297 
C 1210 2297 1062 2284 1037 2284 
C 992 2278 966 2272 966 2227 
C 966 2182 973 2176 1101 2176 
L 1414 2176 
z
" transform="scale(0.015625)"/>
       </defs>
       <use xlink:href="#CMR17-33" transform="scale(0.996264)"/>
      </g>
     </g>
    </g>
    <g id="xtick_5">
     <g id="line2d_9">
      <path d="M 587.35148 173.52 
L 587.35148 7.2 
" clip-path="url(#pf109f439d7)" style="fill: none; stroke: #b0b0b0; stroke-width: 0.8; stroke-linecap: square"/>
     </g>
     <g id="line2d_10">
      <g>
       <use xlink:href="#m6b92c40b72" x="587.35148" y="173.52" style="stroke: #000000; stroke-width: 0.8"/>
      </g>
     </g>
     <g id="text_5">
      <!-- $\mathdefault{4}$ -->
      <g transform="translate(584.424985 188.82218) scale(0.12 -0.12)">
       <defs>
        <path id="CMR17-34" d="M 2150 4147 
C 2150 4281 2144 4288 2029 4288 
L 128 1254 
L 128 1088 
L 1779 1088 
L 1779 460 
C 1779 230 1766 166 1318 166 
L 1197 166 
L 1197 0 
C 1402 12 1747 12 1965 12 
C 2182 12 2528 12 2733 0 
L 2733 166 
L 2611 166 
C 2163 166 2150 230 2150 460 
L 2150 1088 
L 2803 1088 
L 2803 1254 
L 2150 1254 
L 2150 4147 
z
M 1798 3723 
L 1798 1254 
L 256 1254 
L 1798 3723 
z
" transform="scale(0.015625)"/>
       </defs>
       <use xlink:href="#CMR17-34" transform="scale(0.996264)"/>
      </g>
     </g>
    </g>
   </g>
   <g id="matplotlib.axis_2">
    <g id="ytick_1">
     <g id="line2d_11">
      <path d="M 29.35148 165.96 
L 587.35148 165.96 
" clip-path="url(#pf109f439d7)" style="fill: none; stroke: #b0b0b0; stroke-width: 0.8; stroke-linecap: square"/>
     </g>
     <g id="line2d_12">
      <defs>
       <path id="md73aea6c68" d="M 0 0 
L -3.5 0 
" style="stroke: #000000; stroke-width: 0.8"/>
      </defs>
      <g>
       <use xlink:href="#md73aea6c68" x="29.35148" y="165.96" style="stroke: #000000; stroke-width: 0.8"/>
      </g>
     </g>
     <g id="text_6">
      <!-- $\mathdefault{−1}$ -->
      <g transform="translate(7.2 170.11109) scale(0.12 -0.12)">
       <defs>
        <path id="CMSY10-0" d="M 4218 1472 
C 4326 1472 4442 1472 4442 1600 
C 4442 1728 4326 1728 4218 1728 
L 755 1728 
C 646 1728 531 1728 531 1600 
C 531 1472 646 1472 755 1472 
L 4218 1472 
z
" transform="scale(0.015625)"/>
       </defs>
       <use xlink:href="#CMSY10-0" transform="scale(0.996264)"/>
       <use xlink:href="#CMR17-31" transform="translate(77.487468 0) scale(0.996264)"/>
      </g>
     </g>
    </g>
    <g id="ytick_2">
     <g id="line2d_13">
      <path d="M 29.35148 90.36 
L 587.35148 90.36 
" clip-path="url(#pf109f439d7)" style="fill: none; stroke: #b0b0b0; stroke-width: 0.8; stroke-linecap: square"/>
     </g>
     <g id="line2d_14">
      <g>
       <use xlink:href="#md73aea6c68" x="29.35148" y="90.36" style="stroke: #000000; stroke-width: 0.8"/>
      </g>
     </g>
     <g id="text_7">
      <!-- $\mathdefault{0}$ -->
      <g transform="translate(16.498489 94.51109) scale(0.12 -0.12)">
       <use xlink:href="#CMR17-30" transform="scale(0.996264)"/>
      </g>
     </g>
    </g>
    <g id="ytick_3">
     <g id="line2d_15">
      <path d="M 29.35148 14.76 
L 587.35148 14.76 
" clip-path="url(#pf109f439d7)" style="fill: none; stroke: #b0b0b0; stroke-width: 0.8; stroke-linecap: square"/>
     </g>
     <g id="line2d_16">
      <g>
       <use xlink:href="#md73aea6c68" x="29.35148" y="14.76" style="stroke: #000000; stroke-width: 0.8"/>
      </g>
     </g>
     <g id="text_8">
      <!-- $\mathdefault{1}$ -->
      <g transform="translate(16.498489 18.91109) scale(0.12 -0.12)">
       <use xlink:href="#CMR17-31" transform="scale(0.996264)"/>
      </g>
     </g>
    </g>
   </g>
   <g id="line2d_17">
    <path d="M 29.35148 14.76 
L 30.04898 16.099084 
L 30.74648 20.068898 
L 31.44398 26.528809 
L 32.14148 35.249972 
L 33.53648 58.171086 
L 37.72148 138.549254 
L 38.41898 148.610801 
L 39.11648 156.608785 
L 39.81398 162.259873 
L 40.51148 165.363871 
L 41.20898 165.810821 
L 41.90648 163.584887 
L 42.60398 158.764925 
L 43.30148 151.521685 
L 43.99898 142.111761 
L 45.39398 118.190216 
L 48.88148 49.851494 
L 49.57898 38.608239 
L 50.27648 29.198315 
L 50.97398 21.955075 
L 51.67148 17.135113 
L 52.36898 14.909179 
L 53.06648 15.356129 
L 53.76398 18.460127 
L 54.46148 24.111215 
L 55.15898 32.109199 
L 55.85648 42.170746 
L 57.25148 66.998315 
L 60.73898 134.796565 
L 61.43648 145.470028 
L 62.13398 154.191191 
L 62.83148 160.651102 
L 63.52898 164.620916 
L 64.22648 165.96 
L 64.92398 164.620916 
L 65.62148 160.651102 
L 66.31898 154.191191 
L 67.01648 145.470028 
L 68.41148 122.548914 
L 72.59648 42.170746 
L 73.29398 32.109199 
L 73.99148 24.111215 
L 74.68898 18.460127 
L 75.38648 15.356129 
L 76.08398 14.909179 
L 76.78148 17.135113 
L 77.47898 21.955075 
L 78.17648 29.198315 
L 78.87398 38.608239 
L 80.26898 62.529784 
L 83.75648 130.868506 
L 84.45398 142.111761 
L 85.15148 151.521685 
L 85.84898 158.764925 
L 86.54648 163.584887 
L 87.24398 165.810821 
L 87.94148 165.363871 
L 88.63898 162.259873 
L 89.33648 156.608785 
L 90.03398 148.610801 
L 90.73148 138.549254 
L 92.12648 113.721685 
L 95.61398 45.923435 
L 96.31148 35.249972 
L 97.00898 26.528809 
L 97.70648 20.068898 
L 98.40398 16.099084 
L 99.10148 14.76 
L 99.79898 16.099084 
L 100.49648 20.068898 
L 101.19398 26.528809 
L 101.89148 35.249972 
L 103.28648 58.171086 
L 107.47148 138.549254 
L 108.16898 148.610801 
L 108.86648 156.608785 
L 109.56398 162.259873 
L 110.26148 165.363871 
L 110.95898 165.810821 
L 111.65648 163.584887 
L 112.35398 158.764925 
L 113.05148 151.521685 
L 113.74898 142.111761 
L 115.14398 118.190216 
L 118.63148 49.851494 
L 119.32898 38.608239 
L 120.02648 29.198315 
L 120.72398 21.955075 
L 121.42148 17.135113 
L 122.11898 14.909179 
L 122.81648 15.356129 
L 123.51398 18.460127 
L 124.21148 24.111215 
L 124.90898 32.109199 
L 125.60648 42.170746 
L 127.00148 66.998315 
L 130.48898 134.796565 
L 131.18648 145.470028 
L 131.88398 154.191191 
L 132.58148 160.651102 
L 133.27898 164.620916 
L 133.97648 165.96 
L 134.67398 164.620916 
L 135.37148 160.651102 
L 136.06898 154.191191 
L 136.76648 145.470028 
L 138.16148 122.548914 
L 142.34648 42.170746 
L 143.04398 32.109199 
L 143.74148 24.111215 
L 144.43898 18.460127 
L 145.13648 15.356129 
L 145.83398 14.909179 
L 146.53148 17.135113 
L 147.22898 21.955075 
L 147.92648 29.198315 
L 148.62398 38.608239 
L 150.01898 62.529784 
L 153.50648 130.868506 
L 154.20398 142.111761 
L 154.90148 151.521685 
L 155.59898 158.764925 
L 156.29648 163.584887 
L 156.99398 165.810821 
L 157.69148 165.363871 
L 158.38898 162.259873 
L 159.08648 156.608785 
L 159.78398 148.610801 
L 160.48148 138.549254 
L 161.87648 113.721685 
L 165.36398 45.923435 
L 166.06148 35.249972 
L 166.75898 26.528809 
L 167.45648 20.068898 
L 168.15398 16.099084 
L 168.85148 14.76 
L 169.54898 16.099084 
L 170.24648 20.068898 
L 170.94398 26.528809 
L 171.64148 35.249972 
L 173.03648 58.171086 
L 177.22148 138.549254 
L 177.91898 148.610801 
L 178.61648 156.608785 
L 179.31398 162.259873 
L 180.01148 165.363871 
L 180.70898 165.810821 
L 181.40648 163.584887 
L 182.10398 158.764925 
L 182.80148 151.521685 
L 183.49898 142.111761 
L 184.89398 118.190216 
L 188.38148 49.851494 
L 189.07898 38.608239 
L 189.77648 29.198315 
L 190.47398 21.955075 
L 191.17148 17.135113 
L 191.86898 14.909179 
L 192.56648 15.356129 
L 193.26398 18.460127 
L 193.96148 24.111215 
L 194.65898 32.109199 
L 195.35648 42.170746 
L 196.75148 66.998315 
L 200.23898 134.796565 
L 200.93648 145.470028 
L 201.63398 154.191191 
L 202.33148 160.651102 
L 203.02898 164.620916 
L 203.72648 165.96 
L 204.42398 164.620916 
L 205.12148 160.651102 
L 205.81898 154.191191 
L 206.51648 145.470028 
L 207.91148 122.548914 
L 212.09648 42.170746 
L 212.79398 32.109199 
L 213.49148 24.111215 
L 214.18898 18.460127 
L 214.88648 15.356129 
L 215.58398 14.909179 
L 216.28148 17.135113 
L 216.97898 21.955075 
L 217.67648 29.198315 
L 218.37398 38.608239 
L 219.76898 62.529784 
L 223.25648 130.868506 
L 223.95398 142.111761 
L 224.65148 151.521685 
L 225.34898 158.764925 
L 226.04648 163.584887 
L 226.74398 165.810821 
L 227.44148 165.363871 
L 228.13898 162.259873 
L 228.83648 156.608785 
L 229.53398 148.610801 
L 230.23148 138.549254 
L 231.62648 113.721685 
L 235.11398 45.923435 
L 235.81148 35.249972 
L 236.50898 26.528809 
L 237.20648 20.068898 
L 237.90398 16.099084 
L 238.60148 14.76 
L 239.29898 16.099084 
L 239.99648 20.068898 
L 240.69398 26.528809 
L 241.39148 35.249972 
L 242.78648 58.171086 
L 246.97148 138.549254 
L 247.66898 148.610801 
L 248.36648 156.608785 
L 249.06398 162.259873 
L 249.76148 165.363871 
L 250.45898 165.810821 
L 251.15648 163.584887 
L 251.85398 158.764925 
L 252.55148 151.521685 
L 253.24898 142.111761 
L 254.64398 118.190216 
L 258.13148 49.851494 
L 258.82898 38.608239 
L 259.52648 29.198315 
L 260.22398 21.955075 
L 260.92148 17.135113 
L 261.61898 14.909179 
L 262.31648 15.356129 
L 263.01398 18.460127 
L 263.71148 24.111215 
L 264.40898 32.109199 
L 265.10648 42.170746 
L 266.50148 66.998315 
L 269.98898 134.796565 
L 270.68648 145.470028 
L 271.38398 154.191191 
L 272.08148 160.651102 
L 272.77898 164.620916 
L 273.47648 165.96 
L 274.17398 164.620916 
L 274.87148 160.651102 
L 275.56898 154.191191 
L 276.26648 145.470028 
L 277.66148 122.548914 
L 281.84648 42.170746 
L 282.54398 32.109199 
L 283.24148 24.111215 
L 283.93898 18.460127 
L 284.63648 15.356129 
L 285.33398 14.909179 
L 286.03148 17.135113 
L 286.72898 21.955075 
L 287.42648 29.198315 
L 288.12398 38.608239 
L 289.51898 62.529784 
L 293.00648 130.868506 
L 293.70398 142.111761 
L 294.40148 151.521685 
L 295.09898 158.764925 
L 295.79648 163.584887 
L 296.49398 165.810821 
L 297.19148 165.363871 
L 297.88898 162.259873 
L 298.58648 156.608785 
L 299.28398 148.610801 
L 299.98148 138.549254 
L 301.37648 113.721685 
L 304.86398 45.923435 
L 305.56148 35.249972 
L 306.25898 26.528809 
L 306.95648 20.068898 
L 307.65398 16.099084 
L 308.35148 14.76 
L 309.04898 16.099084 
L 309.74648 20.068898 
L 310.44398 26.528809 
L 311.14148 35.249972 
L 312.53648 58.171086 
L 316.72148 138.549254 
L 317.41898 148.610801 
L 318.11648 156.608785 
L 318.81398 162.259873 
L 319.51148 165.363871 
L 320.20898 165.810821 
L 320.90648 163.584887 
L 321.60398 158.764925 
L 322.30148 151.521685 
L 322.99898 142.111761 
L 324.39398 118.190216 
L 327.88148 49.851494 
L 328.57898 38.608239 
L 329.27648 29.198315 
L 329.97398 21.955075 
L 330.67148 17.135113 
L 331.36898 14.909179 
L 332.06648 15.356129 
L 332.76398 18.460127 
L 333.46148 24.111215 
L 334.15898 32.109199 
L 334.85648 42.170746 
L 336.25148 66.998315 
L 339.73898 134.796565 
L 340.43648 145.470028 
L 341.13398 154.191191 
L 341.83148 160.651102 
L 342.52898 164.620916 
L 343.22648 165.96 
L 343.92398 164.620916 
L 344.62148 160.651102 
L 345.31898 154.191191 
L 346.01648 145.470028 
L 347.41148 122.548914 
L 351.59648 42.170746 
L 352.29398 32.109199 
L 352.99148 24.111215 
L 353.68898 18.460127 
L 354.38648 15.356129 
L 355.08398 14.909179 
L 355.78148 17.135113 
L 356.47898 21.955075 
L 357.17648 29.198315 
L 357.87398 38.608239 
L 359.26898 62.529784 
L 362.75648 130.868506 
L 363.45398 142.111761 
L 364.15148 151.521685 
L 364.84898 158.764925 
L 365.54648 163.584887 
L 366.24398 165.810821 
L 366.94148 165.363871 
L 367.63898 162.259873 
L 368.33648 156.608785 
L 369.03398 148.610801 
L 369.73148 138.549254 
L 371.12648 113.721685 
L 374.61398 45.923435 
L 375.31148 35.249972 
L 376.00898 26.528809 
L 376.70648 20.068898 
L 377.40398 16.099084 
L 378.10148 14.76 
L 378.79898 16.099084 
L 379.49648 20.068898 
L 380.19398 26.528809 
L 380.89148 35.249972 
L 382.28648 58.171086 
L 386.47148 138.549254 
L 387.16898 148.610801 
L 387.86648 156.608785 
L 388.56398 162.259873 
L 389.26148 165.363871 
L 389.95898 165.810821 
L 390.65648 163.584887 
L 391.35398 158.764925 
L 392.05148 151.521685 
L 392.74898 142.111761 
L 394.14398 118.190216 
L 397.63148 49.851494 
L 398.32898 38.608239 
L 399.02648 29.198315 
L 399.72398 21.955075 
L 400.42148 17.135113 
L 401.11898 14.909179 
L 401.81648 15.356129 
L 402.51398 18.460127 
L 403.21148 24.111215 
L 403.90898 32.109199 
L 404.60648 42.170746 
L 406.00148 66.998315 
L 409.48898 134.796565 
L 410.18648 145.470028 
L 410.88398 154.191191 
L 411.58148 160.651102 
L 412.27898 164.620916 
L 412.97648 165.96 
L 413.67398 164.620916 
L 414.37148 160.651102 
L 415.06898 154.191191 
L 415.76648 145.470028 
L 417.16148 122.548914 
L 421.34648 42.170746 
L 422.04398 32.109199 
L 422.74148 24.111215 
L 423.43898 18.460127 
L 424.13648 15.356129 
L 424.83398 14.909179 
L 425.53148 17.135113 
L 426.22898 21.955075 
L 426.92648 29.198315 
L 427.62398 38.608239 
L 429.01898 62.529784 
L 432.50648 130.868506 
L 433.20398 142.111761 
L 433.90148 151.521685 
L 434.59898 158.764925 
L 435.29648 163.584887 
L 435.99398 165.810821 
L 436.69148 165.363871 
L 437.38898 162.259873 
L 438.08648 156.608785 
L 438.78398 148.610801 
L 439.48148 138.549254 
L 440.87648 113.721685 
L 444.36398 45.923435 
L 445.06148 35.249972 
L 445.75898 26.528809 
L 446.45648 20.068898 
L 447.15398 16.099084 
L 447.85148 14.76 
L 448.54898 16.099084 
L 449.24648 20.068898 
L 449.94398 26.528809 
L 450.64148 35.249972 
L 452.03648 58.171086 
L 456.22148 138.549254 
L 456.91898 148.610801 
L 457.61648 156.608785 
L 458.31398 162.259873 
L 459.01148 165.363871 
L 459.70898 165.810821 
L 460.40648 163.584887 
L 461.10398 158.764925 
L 461.80148 151.521685 
L 462.49898 142.111761 
L 463.89398 118.190216 
L 467.38148 49.851494 
L 468.07898 38.608239 
L 468.77648 29.198315 
L 469.47398 21.955075 
L 470.17148 17.135113 
L 470.86898 14.909179 
L 471.56648 15.356129 
L 472.26398 18.460127 
L 472.96148 24.111215 
L 473.65898 32.109199 
L 474.35648 42.170746 
L 475.75148 66.998315 
L 479.23898 134.796565 
L 479.93648 145.470028 
L 480.63398 154.191191 
L 481.33148 160.651102 
L 482.02898 164.620916 
L 482.72648 165.96 
L 483.42398 164.620916 
L 484.12148 160.651102 
L 484.81898 154.191191 
L 485.51648 145.470028 
L 486.91148 122.548914 
L 491.09648 42.170746 
L 491.79398 32.109199 
L 492.49148 24.111215 
L 493.18898 18.460127 
L 493.88648 15.356129 
L 494.58398 14.909179 
L 495.28148 17.135113 
L 495.97898 21.955075 
L 496.67648 29.198315 
L 497.37398 38.608239 
L 498.76898 62.529784 
L 502.25648 130.868506 
L 502.95398 142.111761 
L 503.65148 151.521685 
L 504.34898 158.764925 
L 505.04648 163.584887 
L 505.74398 165.810821 
L 506.44148 165.363871 
L 507.13898 162.259873 
L 507.83648 156.608785 
L 508.53398 148.610801 
L 509.23148 138.549254 
L 510.62648 113.721685 
L 514.11398 45.923435 
L 514.81148 35.249972 
L 515.50898 26.528809 
L 516.20648 20.068898 
L 516.90398 16.099084 
L 517.60148 14.76 
L 518.29898 16.099084 
L 518.99648 20.068898 
L 519.69398 26.528809 
L 520.39148 35.249972 
L 521.78648 58.171086 
L 525.97148 138.549254 
L 526.66898 148.610801 
L 527.36648 156.608785 
L 528.06398 162.259873 
L 528.76148 165.363871 
L 529.45898 165.810821 
L 530.15648 163.584887 
L 530.85398 158.764925 
L 531.55148 151.521685 
L 532.24898 142.111761 
L 533.64398 118.190216 
L 537.13148 49.851494 
L 537.82898 38.608239 
L 538.52648 29.198315 
L 539.22398 21.955075 
L 539.92148 17.135113 
L 540.61898 14.909179 
L 541.31648 15.356129 
L 542.01398 18.460127 
L 542.71148 24.111215 
L 543.40898 32.109199 
L 544.10648 42.170746 
L 545.50148 66.998315 
L 548.98898 134.796565 
L 549.68648 145.470028 
L 550.38398 154.191191 
L 551.08148 160.651102 
L 551.77898 164.620916 
L 552.47648 165.96 
L 553.17398 164.620916 
L 553.87148 160.651102 
L 554.56898 154.191191 
L 555.26648 145.470028 
L 556.66148 122.548914 
L 560.84648 42.170746 
L 561.54398 32.109199 
L 562.24148 24.111215 
L 562.93898 18.460127 
L 563.63648 15.356129 
L 564.33398 14.909179 
L 565.03148 17.135113 
L 565.72898 21.955075 
L 566.42648 29.198315 
L 567.12398 38.608239 
L 568.51898 62.529784 
L 572.00648 130.868506 
L 572.70398 142.111761 
L 573.40148 151.521685 
L 574.09898 158.764925 
L 574.79648 163.584887 
L 575.49398 165.810821 
L 576.19148 165.363871 
L 576.88898 162.259873 
L 577.58648 156.608785 
L 578.28398 148.610801 
L 578.98148 138.549254 
L 580.37648 113.721685 
L 583.86398 45.923435 
L 584.56148 35.249972 
L 585.25898 26.528809 
L 585.95648 20.068898 
L 586.65398 16.099084 
L 586.65398 16.099084 
" clip-path="url(#pf109f439d7)" style="fill: none; stroke: #1f77b4; stroke-width: 1.5; stroke-linecap: square"/>
   </g>
   <g id="line2d_18">
    <defs>
     <path id="m29fcf7fdb2" d="M 0 3 
C 0.795609 3 1.55874 2.683901 2.12132 2.12132 
C 2.683901 1.55874 3 0.795609 3 0 
C 3 -0.795609 2.683901 -1.55874 2.12132 -2.12132 
C 1.55874 -2.683901 0.795609 -3 0 -3 
C -0.795609 -3 -1.55874 -2.683901 -2.12132 -2.12132 
C -2.683901 -1.55874 -3 -0.795609 -3 0 
C -3 0.795609 -2.683901 1.55874 -2.12132 2.12132 
C -1.55874 2.683901 -0.795609 3 0 3 
z
" style="stroke: #ff7f0e"/>
    </defs>
    <g clip-path="url(#pf109f439d7)">
     <use xlink:href="#m29fcf7fdb2" x="29.35148" y="14.76" style="fill: #ff7f0e; stroke: #ff7f0e"/>
     <use xlink:href="#m29fcf7fdb2" x="50.813018" y="23.419524" style="fill: #ff7f0e; stroke: #ff7f0e"/>
     <use xlink:href="#m29fcf7fdb2" x="72.274557" y="47.414305" style="fill: #ff7f0e; stroke: #ff7f0e"/>
     <use xlink:href="#m29fcf7fdb2" x="93.736095" y="81.247427" style="fill: #ff7f0e; stroke: #ff7f0e"/>
     <use xlink:href="#m29fcf7fdb2" x="115.197634" y="117.168129" style="fill: #ff7f0e; stroke: #ff7f0e"/>
     <use xlink:href="#m29fcf7fdb2" x="136.659172" y="146.947413" style="fill: #ff7f0e; stroke: #ff7f0e"/>
     <use xlink:href="#m29fcf7fdb2" x="158.12071" y="163.763201" style="fill: #ff7f0e; stroke: #ff7f0e"/>
     <use xlink:href="#m29fcf7fdb2" x="179.582249" y="163.763201" style="fill: #ff7f0e; stroke: #ff7f0e"/>
     <use xlink:href="#m29fcf7fdb2" x="201.043787" y="146.947413" style="fill: #ff7f0e; stroke: #ff7f0e"/>
     <use xlink:href="#m29fcf7fdb2" x="222.505326" y="117.168129" style="fill: #ff7f0e; stroke: #ff7f0e"/>
     <use xlink:href="#m29fcf7fdb2" x="243.966864" y="81.247427" style="fill: #ff7f0e; stroke: #ff7f0e"/>
     <use xlink:href="#m29fcf7fdb2" x="265.428403" y="47.414305" style="fill: #ff7f0e; stroke: #ff7f0e"/>
     <use xlink:href="#m29fcf7fdb2" x="286.889941" y="23.419524" style="fill: #ff7f0e; stroke: #ff7f0e"/>
     <use xlink:href="#m29fcf7fdb2" x="308.35148" y="14.76" style="fill: #ff7f0e; stroke: #ff7f0e"/>
     <use xlink:href="#m29fcf7fdb2" x="329.813018" y="23.419524" style="fill: #ff7f0e; stroke: #ff7f0e"/>
     <use xlink:href="#m29fcf7fdb2" x="351.274557" y="47.414305" style="fill: #ff7f0e; stroke: #ff7f0e"/>
     <use xlink:href="#m29fcf7fdb2" x="372.736095" y="81.247427" style="fill: #ff7f0e; stroke: #ff7f0e"/>
     <use xlink:href="#m29fcf7fdb2" x="394.197634" y="117.168129" style="fill: #ff7f0e; stroke: #ff7f0e"/>
     <use xlink:href="#m29fcf7fdb2" x="415.659172" y="146.947413" style="fill: #ff7f0e; stroke: #ff7f0e"/>
     <use xlink:href="#m29fcf7fdb2" x="437.12071" y="163.763201" style="fill: #ff7f0e; stroke: #ff7f0e"/>
     <use xlink:href="#m29fcf7fdb2" x="458.582249" y="163.763201" style="fill: #ff7f0e; stroke: #ff7f0e"/>
     <use xlink:href="#m29fcf7fdb2" x="480.043787" y="146.947413" style="fill: #ff7f0e; stroke: #ff7f0e"/>
     <use xlink:href="#m29fcf7fdb2" x="501.505326" y="117.168129" style="fill: #ff7f0e; stroke: #ff7f0e"/>
     <use xlink:href="#m29fcf7fdb2" x="522.966864" y="81.247427" style="fill: #ff7f0e; stroke: #ff7f0e"/>
     <use xlink:href="#m29fcf7fdb2" x="544.428403" y="47.414305" style="fill: #ff7f0e; stroke: #ff7f0e"/>
     <use xlink:href="#m29fcf7fdb2" x="565.889941" y="23.419524" style="fill: #ff7f0e; stroke: #ff7f0e"/>
    </g>
   </g>
   <g id="patch_3">
    <path d="M 29.35148 173.52 
L 29.35148 7.2 
" style="fill: none; stroke: #000000; stroke-width: 0.8; stroke-linejoin: miter; stroke-linecap: square"/>
   </g>
   <g id="patch_4">
    <path d="M 587.35148 173.52 
L 587.35148 7.2 
" style="fill: none; stroke: #000000; stroke-width: 0.8; stroke-linejoin: miter; stroke-linecap: square"/>
   </g>
   <g id="patch_5">
    <path d="M 29.35148 173.52 
L 587.35148 173.52 
" style="fill: none; stroke: #000000; stroke-width: 0.8; stroke-linejoin: miter; stroke-linecap: square"/>
   </g>
   <g id="patch_6">
    <path d="M 29.35148 7.2 
L 587.35148 7.2 
" style="fill: none; stroke: #000000; stroke-width: 0.8; stroke-linejoin: miter; stroke-linecap: square"/>
   </g>
   <g id="legend_1">
    <g id="patch_7">
     <path d="M 498.094126 67.880448 
L 576.15148 67.880448 
Q 579.35148 67.880448 579.35148 64.680448 
L 579.35148 18.4 
Q 579.35148 15.2 576.15148 15.2 
L 498.094126 15.2 
Q 494.894126 15.2 494.894126 18.4 
L 494.894126 64.680448 
Q 494.894126 67.880448 498.094126 67.880448 
z
" style="fill: #ffffff; opacity: 0.8; stroke: #cccccc; stroke-linejoin: miter"/>
    </g>
    <g id="line2d_19">
     <path d="M 501.294126 27.955168 
L 517.294126 27.955168 
L 533.294126 27.955168 
" style="fill: none; stroke: #1f77b4; stroke-width: 1.5; stroke-linecap: square"/>
    </g>
    <g id="text_9">
     <!-- $x(t)$ -->
     <g transform="translate(546.094126 33.555168) scale(0.16 -0.16)">
      <defs>
       <path id="CMMI12-78" d="M 3034 2624 
C 2829 2585 2752 2431 2752 2310 
C 2752 2156 2874 2105 2963 2105 
C 3155 2105 3290 2271 3290 2444 
C 3290 2694 2982 2816 2714 2816 
C 2323 2816 2106 2451 2048 2329 
C 1901 2790 1504 2816 1389 2816 
C 736 2816 390 1993 390 1849 
C 390 1823 416 1790 461 1790 
C 512 1790 525 1829 538 1855 
C 755 2572 1184 2687 1370 2687 
C 1658 2687 1715 2438 1715 2284 
C 1715 2143 1677 1993 1600 1678 
L 1382 778 
C 1286 390 1101 64 762 64 
C 730 64 570 64 435 126 
C 666 166 717 358 717 435 
C 717 563 621 640 499 640 
C 346 640 179 505 179 300 
C 179 57 480 -64 755 -64 
C 1062 -64 1280 153 1414 415 
C 1517 64 1837 -64 2074 -64 
C 2726 -64 3072 751 3072 896 
C 3072 929 3046 955 3008 955 
C 2950 955 2944 922 2925 870 
C 2752 300 2381 64 2093 64 
C 1869 64 1747 204 1747 467 
C 1747 607 1773 712 1875 1146 
L 2099 2039 
C 2195 2425 2413 2687 2707 2687 
C 2720 2687 2899 2687 3034 2624 
z
" transform="scale(0.015625)"/>
       <path id="CMR17-28" d="M 1958 -1562 
C 1958 -1556 1958 -1543 1939 -1524 
C 1645 -1223 858 -403 858 1596 
C 858 3595 1632 4408 1946 4729 
C 1946 4735 1958 4748 1958 4767 
C 1958 4787 1939 4800 1914 4800 
C 1843 4800 1299 4325 986 3620 
C 666 2909 576 2218 576 1603 
C 576 1141 621 360 1005 -467 
C 1312 -1133 1837 -1600 1914 -1600 
C 1946 -1600 1958 -1588 1958 -1562 
z
" transform="scale(0.015625)"/>
       <path id="CMMI12-74" d="M 1286 2566 
L 1875 2566 
C 1997 2566 2061 2566 2061 2681 
C 2061 2752 2022 2752 1894 2752 
L 1331 2752 
L 1568 3664 
C 1594 3752 1594 3764 1594 3808 
C 1594 3910 1510 3968 1427 3968 
C 1376 3968 1229 3948 1178 3746 
L 928 2752 
L 326 2752 
C 198 2752 141 2752 141 2630 
C 141 2566 186 2566 307 2566 
L 877 2566 
L 454 881 
C 403 657 384 593 384 510 
C 384 210 595 -64 954 -64 
C 1600 -64 1946 868 1946 913 
C 1946 951 1920 970 1882 970 
C 1869 970 1843 970 1830 944 
C 1824 938 1818 932 1773 830 
C 1638 510 1344 64 973 64 
C 781 64 768 223 768 364 
C 768 370 768 491 787 568 
L 1286 2566 
z
" transform="scale(0.015625)"/>
       <path id="CMR17-29" d="M 1683 1596 
C 1683 2057 1638 2839 1254 3665 
C 947 4332 422 4800 346 4800 
C 326 4800 301 4793 301 4761 
C 301 4748 307 4742 314 4729 
C 621 4408 1402 3595 1402 1603 
C 1402 -396 627 -1210 314 -1530 
C 307 -1543 301 -1549 301 -1562 
C 301 -1594 326 -1600 346 -1600 
C 416 -1600 960 -1127 1274 -422 
C 1594 289 1683 981 1683 1596 
z
" transform="scale(0.015625)"/>
      </defs>
      <use xlink:href="#CMMI12-78" transform="scale(0.996264)"/>
      <use xlink:href="#CMR17-28" transform="translate(55.43406 0) scale(0.996264)"/>
      <use xlink:href="#CMMI12-74" transform="translate(90.714827 0) scale(0.996264)"/>
      <use xlink:href="#CMR17-29" transform="translate(125.941158 0) scale(0.996264)"/>
     </g>
    </g>
    <g id="line2d_20">
     <g>
      <use xlink:href="#m29fcf7fdb2" x="517.294126" y="51.895392" style="fill: #ff7f0e; stroke: #ff7f0e"/>
     </g>
    </g>
    <g id="text_10">
     <!-- $x[n]$ -->
     <g transform="translate(546.094126 57.495392) scale(0.16 -0.16)">
      <defs>
       <path id="CMR17-5b" d="M 1504 -1600 
L 1504 -1376 
L 902 -1376 
L 902 4575 
L 1504 4575 
L 1504 4800 
L 678 4800 
L 678 -1600 
L 1504 -1600 
z
" transform="scale(0.015625)"/>
       <path id="CMMI12-6e" d="M 1318 1870 
C 1331 1909 1491 2228 1728 2432 
C 1894 2585 2112 2687 2362 2687 
C 2618 2687 2707 2496 2707 2241 
C 2707 1877 2445 1149 2317 804 
C 2259 651 2227 568 2227 453 
C 2227 166 2426 -64 2733 -64 
C 3328 -64 3552 874 3552 913 
C 3552 945 3526 970 3488 970 
C 3430 970 3424 951 3392 842 
C 3245 319 3002 64 2752 64 
C 2688 64 2586 70 2586 274 
C 2586 434 2656 625 2694 715 
C 2822 1066 3091 1781 3091 2145 
C 3091 2528 2867 2816 2381 2816 
C 1811 2816 1510 2413 1395 2253 
C 1376 2617 1114 2816 832 2816 
C 627 2816 486 2694 378 2477 
C 262 2247 173 1864 173 1838 
C 173 1813 198 1781 243 1781 
C 294 1781 301 1787 339 1934 
C 442 2324 557 2687 813 2687 
C 960 2687 1011 2585 1011 2394 
C 1011 2253 947 2004 902 1807 
L 723 1117 
C 698 996 627 708 595 593 
C 550 427 480 127 480 95 
C 480 6 550 -64 646 -64 
C 723 -64 813 -26 864 70 
C 877 102 934 325 966 453 
L 1107 1028 
L 1318 1870 
z
" transform="scale(0.015625)"/>
       <path id="CMR17-5d" d="M 915 4800 
L 90 4800 
L 90 4575 
L 691 4575 
L 691 -1376 
L 90 -1376 
L 90 -1600 
L 915 -1600 
L 915 4800 
z
" transform="scale(0.015625)"/>
      </defs>
      <use xlink:href="#CMMI12-78" transform="scale(0.996264)"/>
      <use xlink:href="#CMR17-5b" transform="translate(55.43406 0) scale(0.996264)"/>
      <use xlink:href="#CMMI12-6e" transform="translate(80.305118 0) scale(0.996264)"/>
      <use xlink:href="#CMR17-5d" transform="translate(138.535165 0) scale(0.996264)"/>
     </g>
    </g>
   </g>
  </g>
 </g>
 <defs>
  <clipPath id="pf109f439d7">
   <rect x="29.35148" y="7.2" width="558" height="166.32"/>
  </clipPath>
 </defs>
</svg>
