<?xml version="1.0" encoding="utf-8" standalone="no"?>
<!DOCTYPE svg PUBLIC "-//W3C//DTD SVG 1.1//EN"
  "http://www.w3.org/Graphics/SVG/1.1/DTD/svg11.dtd">
<svg height="216.818129pt" version="1.1" viewBox="0 0 594.55148 216.818129" width="594.55148pt" xmlns="http://www.w3.org/2000/svg" xmlns:xlink="http://www.w3.org/1999/xlink">
 <metadata>
  <rdf:RDF xmlns:cc="http://creativecommons.org/ns#" xmlns:dc="http://purl.org/dc/elements/1.1/" xmlns:rdf="http://www.w3.org/1999/02/22-rdf-syntax-ns#">
   <cc:Work>
    <dc:type rdf:resource="http://purl.org/dc/dcmitype/StillImage"/>
    <dc:date>2023-12-04T08:20:20.897114</dc:date>
    <dc:format>image/svg+xml</dc:format>
    <dc:creator>
     <cc:Agent>
      <dc:title>Matplotlib v3.4.3, https://matplotlib.org/</dc:title>
     </cc:Agent>
    </dc:creator>
   </cc:Work>
  </rdf:RDF>
 </metadata>
 <defs>
  <style type="text/css">*{stroke-linecap:butt;stroke-linejoin:round;}</style>
 </defs>
 <g id="figure_1">
  <g id="patch_1">
   <path d="M 0 216.818129 
L 594.55148 216.818129 
L 594.55148 0 
L 0 0 
z
" style="fill:none;"/>
  </g>
  <g id="axes_1">
   <g id="patch_2">
    <path d="M 29.35148 170.28 
L 587.35148 170.28 
L 587.35148 7.2 
L 29.35148 7.2 
z
" style="fill:#ffffff;"/>
   </g>
   <g id="matplotlib.axis_1">
    <g id="xtick_1">
     <g id="line2d_1">
      <path clip-path="url(#pcc2b3a01d7)" d="M 70.567389 170.28 
L 70.567389 7.2 
" style="fill:none;stroke:#b0b0b0;stroke-linecap:square;stroke-width:0.8;"/>
     </g>
     <g id="line2d_2">
      <defs>
       <path d="M 0 0 
L 0 3.5 
" id="m660e0a85e2" style="stroke:#000000;stroke-width:0.8;"/>
      </defs>
      <g>
       <use style="stroke:#000000;stroke-width:0.8;" x="70.567389" xlink:href="#m660e0a85e2" y="170.28"/>
      </g>
     </g>
     <g id="text_1">
      <!-- $-5f_e$ -->
      <g transform="translate(54.021982 188.349588)scale(0.16 -0.16)">
       <defs>
        <path d="M 4218 1472 
C 4326 1472 4442 1472 4442 1600 
C 4442 1728 4326 1728 4218 1728 
L 755 1728 
C 646 1728 531 1728 531 1600 
C 531 1472 646 1472 755 1472 
L 4218 1472 
z
" id="CMSY10-0" transform="scale(0.015625)"/>
        <path d="M 730 3750 
C 794 3724 1056 3641 1325 3641 
C 1920 3641 2246 3961 2432 4140 
C 2432 4191 2432 4224 2394 4224 
C 2387 4224 2374 4224 2323 4198 
C 2099 4102 1837 4032 1517 4032 
C 1325 4032 1037 4055 723 4191 
C 653 4224 640 4224 634 4224 
C 602 4224 595 4217 595 4090 
L 595 2231 
C 595 2113 595 2080 659 2080 
C 691 2080 704 2093 736 2139 
C 941 2435 1222 2560 1542 2560 
C 1766 2560 2246 2415 2246 1293 
C 2246 1087 2246 716 2054 422 
C 1894 159 1645 25 1370 25 
C 947 25 518 319 403 812 
C 429 806 480 793 506 793 
C 589 793 749 838 749 1036 
C 749 1209 627 1280 506 1280 
C 358 1280 262 1190 262 1011 
C 262 454 704 -128 1382 -128 
C 2042 -128 2669 441 2669 1267 
C 2669 2054 2170 2662 1549 2662 
C 1222 2662 947 2540 730 2304 
L 730 3750 
z
" id="CMR17-35" transform="scale(0.015625)"/>
        <path d="M 2854 2566 
C 2982 2566 3034 2566 3034 2687 
C 3034 2752 2982 2752 2867 2752 
L 2349 2752 
C 2470 3398 2560 3846 2611 4051 
C 2650 4204 2784 4351 2950 4351 
C 3085 4351 3219 4294 3283 4236 
C 3034 4211 2957 4025 2957 3916 
C 2957 3788 3053 3712 3174 3712 
C 3302 3712 3494 3820 3494 4064 
C 3494 4332 3226 4480 2944 4480 
C 2669 4480 2400 4275 2272 4025 
C 2157 3801 2093 3573 1946 2752 
L 1517 2752 
C 1395 2752 1331 2752 1331 2636 
C 1331 2566 1370 2566 1498 2566 
L 1907 2566 
C 1792 1977 1530 545 1382 -132 
C 1274 -685 1178 -1152 858 -1152 
C 838 -1152 653 -1152 538 -1031 
C 864 -1005 864 -724 864 -717 
C 864 -589 768 -512 646 -512 
C 518 -512 326 -621 326 -865 
C 326 -1140 608 -1280 858 -1280 
C 1510 -1280 1779 -113 1850 203 
C 1965 691 2278 2376 2310 2566 
L 2854 2566 
z
" id="CMMI12-66" transform="scale(0.015625)"/>
        <path d="M 1146 1472 
C 1318 1472 1754 1484 2061 1600 
C 2547 1786 2592 2160 2592 2275 
C 2592 2559 2349 2816 1926 2816 
C 1254 2816 288 2205 288 1066 
C 288 400 672 -64 1254 -64 
C 2125 -64 2675 609 2675 691 
C 2675 729 2637 761 2611 761 
C 2592 761 2586 755 2528 698 
C 2118 159 1510 64 1267 64 
C 902 64 710 349 710 818 
C 710 907 710 1066 806 1472 
L 1146 1472 
z
M 838 1600 
C 1114 2591 1722 2687 1926 2687 
C 2208 2687 2400 2520 2400 2275 
C 2400 1600 1376 1600 1107 1600 
L 838 1600 
z
" id="CMMI12-65" transform="scale(0.015625)"/>
       </defs>
       <use transform="scale(0.996264)" xlink:href="#CMSY10-0"/>
       <use transform="translate(77.487468 0)scale(0.996264)" xlink:href="#CMR17-35"/>
       <use transform="translate(123.177945 0)scale(0.996264)" xlink:href="#CMMI12-66"/>
       <use transform="translate(171.261182 -14.943915)scale(0.697382)" xlink:href="#CMMI12-65"/>
      </g>
     </g>
    </g>
    <g id="xtick_2">
     <g id="line2d_3">
      <path clip-path="url(#pcc2b3a01d7)" d="M 118.124207 170.28 
L 118.124207 7.2 
" style="fill:none;stroke:#b0b0b0;stroke-linecap:square;stroke-width:0.8;"/>
     </g>
     <g id="line2d_4">
      <g>
       <use style="stroke:#000000;stroke-width:0.8;" x="118.124207" xlink:href="#m660e0a85e2" y="170.28"/>
      </g>
     </g>
     <g id="text_2">
      <!-- $-4f_e$ -->
      <g transform="translate(101.5788 188.349588)scale(0.16 -0.16)">
       <defs>
        <path d="M 2150 4147 
C 2150 4281 2144 4288 2029 4288 
L 128 1254 
L 128 1088 
L 1779 1088 
L 1779 460 
C 1779 230 1766 166 1318 166 
L 1197 166 
L 1197 0 
C 1402 12 1747 12 1965 12 
C 2182 12 2528 12 2733 0 
L 2733 166 
L 2611 166 
C 2163 166 2150 230 2150 460 
L 2150 1088 
L 2803 1088 
L 2803 1254 
L 2150 1254 
L 2150 4147 
z
M 1798 3723 
L 1798 1254 
L 256 1254 
L 1798 3723 
z
" id="CMR17-34" transform="scale(0.015625)"/>
       </defs>
       <use transform="scale(0.996264)" xlink:href="#CMSY10-0"/>
       <use transform="translate(77.487468 0)scale(0.996264)" xlink:href="#CMR17-34"/>
       <use transform="translate(123.177945 0)scale(0.996264)" xlink:href="#CMMI12-66"/>
       <use transform="translate(171.261182 -14.943915)scale(0.697382)" xlink:href="#CMMI12-65"/>
      </g>
     </g>
    </g>
    <g id="xtick_3">
     <g id="line2d_5">
      <path clip-path="url(#pcc2b3a01d7)" d="M 165.681025 170.28 
L 165.681025 7.2 
" style="fill:none;stroke:#b0b0b0;stroke-linecap:square;stroke-width:0.8;"/>
     </g>
     <g id="line2d_6">
      <g>
       <use style="stroke:#000000;stroke-width:0.8;" x="165.681025" xlink:href="#m660e0a85e2" y="170.28"/>
      </g>
     </g>
     <g id="text_3">
      <!-- $-3f_e$ -->
      <g transform="translate(149.135618 188.349588)scale(0.16 -0.16)">
       <defs>
        <path d="M 1414 2176 
C 1984 2176 2234 1673 2234 1094 
C 2234 322 1824 25 1453 25 
C 1114 25 563 193 390 691 
C 422 678 454 678 486 678 
C 640 678 755 780 755 947 
C 755 1132 614 1216 486 1216 
C 378 1216 211 1164 211 927 
C 211 335 787 -128 1466 -128 
C 2176 -128 2720 432 2720 1087 
C 2720 1718 2208 2176 1600 2246 
C 2086 2347 2554 2776 2554 3353 
C 2554 3856 2048 4224 1472 4224 
C 890 4224 378 3862 378 3347 
C 378 3123 544 3084 627 3084 
C 762 3084 877 3167 877 3334 
C 877 3500 762 3584 627 3584 
C 602 3584 570 3584 544 3571 
C 730 3999 1235 4076 1459 4076 
C 1683 4076 2106 3966 2106 3347 
C 2106 3167 2080 2851 1862 2574 
C 1670 2329 1453 2316 1242 2297 
C 1210 2297 1062 2284 1037 2284 
C 992 2278 966 2272 966 2227 
C 966 2182 973 2176 1101 2176 
L 1414 2176 
z
" id="CMR17-33" transform="scale(0.015625)"/>
       </defs>
       <use transform="scale(0.996264)" xlink:href="#CMSY10-0"/>
       <use transform="translate(77.487468 0)scale(0.996264)" xlink:href="#CMR17-33"/>
       <use transform="translate(123.177945 0)scale(0.996264)" xlink:href="#CMMI12-66"/>
       <use transform="translate(171.261182 -14.943915)scale(0.697382)" xlink:href="#CMMI12-65"/>
      </g>
     </g>
    </g>
    <g id="xtick_4">
     <g id="line2d_7">
      <path clip-path="url(#pcc2b3a01d7)" d="M 213.237843 170.28 
L 213.237843 7.2 
" style="fill:none;stroke:#b0b0b0;stroke-linecap:square;stroke-width:0.8;"/>
     </g>
     <g id="line2d_8">
      <g>
       <use style="stroke:#000000;stroke-width:0.8;" x="213.237843" xlink:href="#m660e0a85e2" y="170.28"/>
      </g>
     </g>
     <g id="text_4">
      <!-- $-2f_e$ -->
      <g transform="translate(196.692436 188.349588)scale(0.16 -0.16)">
       <defs>
        <path d="M 2669 990 
L 2554 990 
C 2490 537 2438 460 2413 422 
C 2381 371 1920 371 1830 371 
L 602 371 
C 832 620 1280 1073 1824 1596 
C 2214 1966 2669 2400 2669 3033 
C 2669 3788 2067 4224 1395 4224 
C 691 4224 262 3603 262 3027 
C 262 2777 448 2745 525 2745 
C 589 2745 781 2783 781 3007 
C 781 3206 614 3264 525 3264 
C 486 3264 448 3257 422 3244 
C 544 3788 915 4057 1306 4057 
C 1862 4057 2227 3616 2227 3033 
C 2227 2477 1901 1998 1536 1583 
L 262 147 
L 262 0 
L 2515 0 
L 2669 990 
z
" id="CMR17-32" transform="scale(0.015625)"/>
       </defs>
       <use transform="scale(0.996264)" xlink:href="#CMSY10-0"/>
       <use transform="translate(77.487468 0)scale(0.996264)" xlink:href="#CMR17-32"/>
       <use transform="translate(123.177945 0)scale(0.996264)" xlink:href="#CMMI12-66"/>
       <use transform="translate(171.261182 -14.943915)scale(0.697382)" xlink:href="#CMMI12-65"/>
      </g>
     </g>
    </g>
    <g id="xtick_5">
     <g id="line2d_9">
      <path clip-path="url(#pcc2b3a01d7)" d="M 260.794661 170.28 
L 260.794661 7.2 
" style="fill:none;stroke:#b0b0b0;stroke-linecap:square;stroke-width:0.8;"/>
     </g>
     <g id="line2d_10">
      <g>
       <use style="stroke:#000000;stroke-width:0.8;" x="260.794661" xlink:href="#m660e0a85e2" y="170.28"/>
      </g>
     </g>
     <g id="text_5">
      <!-- $f_e$ -->
      <g transform="translate(254.350246 188.349588)scale(0.16 -0.16)">
       <use transform="scale(0.996264)" xlink:href="#CMMI12-66"/>
       <use transform="translate(48.083238 -14.943915)scale(0.697382)" xlink:href="#CMMI12-65"/>
      </g>
     </g>
    </g>
    <g id="xtick_6">
     <g id="line2d_11">
      <path clip-path="url(#pcc2b3a01d7)" d="M 308.35148 170.28 
L 308.35148 7.2 
" style="fill:none;stroke:#b0b0b0;stroke-linecap:square;stroke-width:0.8;"/>
     </g>
     <g id="line2d_12">
      <g>
       <use style="stroke:#000000;stroke-width:0.8;" x="308.35148" xlink:href="#m660e0a85e2" y="170.28"/>
      </g>
     </g>
     <g id="text_6">
      <!-- $0$ -->
      <g transform="translate(304.449486 188.349588)scale(0.16 -0.16)">
       <defs>
        <path d="M 2688 2038 
C 2688 2430 2682 3099 2413 3613 
C 2176 4063 1798 4224 1466 4224 
C 1158 4224 768 4082 525 3620 
C 269 3137 243 2539 243 2038 
C 243 1671 250 1112 448 623 
C 723 -39 1216 -128 1466 -128 
C 1760 -128 2208 -7 2470 604 
C 2662 1048 2688 1568 2688 2038 
z
M 1466 -26 
C 1056 -26 813 328 723 816 
C 653 1196 653 1749 653 2109 
C 653 2604 653 3015 736 3407 
C 858 3954 1216 4121 1466 4121 
C 1728 4121 2067 3947 2189 3420 
C 2272 3054 2278 2623 2278 2109 
C 2278 1691 2278 1176 2202 797 
C 2067 96 1690 -26 1466 -26 
z
" id="CMR17-30" transform="scale(0.015625)"/>
       </defs>
       <use transform="scale(0.996264)" xlink:href="#CMR17-30"/>
      </g>
     </g>
    </g>
    <g id="xtick_7">
     <g id="line2d_13">
      <path clip-path="url(#pcc2b3a01d7)" d="M 355.908298 170.28 
L 355.908298 7.2 
" style="fill:none;stroke:#b0b0b0;stroke-linecap:square;stroke-width:0.8;"/>
     </g>
     <g id="line2d_14">
      <g>
       <use style="stroke:#000000;stroke-width:0.8;" x="355.908298" xlink:href="#m660e0a85e2" y="170.28"/>
      </g>
     </g>
     <g id="text_7">
      <!-- $f_e$ -->
      <g transform="translate(349.463882 188.349588)scale(0.16 -0.16)">
       <use transform="scale(0.996264)" xlink:href="#CMMI12-66"/>
       <use transform="translate(48.083238 -14.943915)scale(0.697382)" xlink:href="#CMMI12-65"/>
      </g>
     </g>
    </g>
    <g id="xtick_8">
     <g id="line2d_15">
      <path clip-path="url(#pcc2b3a01d7)" d="M 403.465116 170.28 
L 403.465116 7.2 
" style="fill:none;stroke:#b0b0b0;stroke-linecap:square;stroke-width:0.8;"/>
     </g>
     <g id="line2d_16">
      <g>
       <use style="stroke:#000000;stroke-width:0.8;" x="403.465116" xlink:href="#m660e0a85e2" y="170.28"/>
      </g>
     </g>
     <g id="text_8">
      <!-- $2f_e$ -->
      <g transform="translate(393.118707 188.349588)scale(0.16 -0.16)">
       <use transform="scale(0.996264)" xlink:href="#CMR17-32"/>
       <use transform="translate(45.690477 0)scale(0.996264)" xlink:href="#CMMI12-66"/>
       <use transform="translate(93.773715 -14.943915)scale(0.697382)" xlink:href="#CMMI12-65"/>
      </g>
     </g>
    </g>
    <g id="xtick_9">
     <g id="line2d_17">
      <path clip-path="url(#pcc2b3a01d7)" d="M 451.021934 170.28 
L 451.021934 7.2 
" style="fill:none;stroke:#b0b0b0;stroke-linecap:square;stroke-width:0.8;"/>
     </g>
     <g id="line2d_18">
      <g>
       <use style="stroke:#000000;stroke-width:0.8;" x="451.021934" xlink:href="#m660e0a85e2" y="170.28"/>
      </g>
     </g>
     <g id="text_9">
      <!-- $3f_e$ -->
      <g transform="translate(440.675525 188.349588)scale(0.16 -0.16)">
       <use transform="scale(0.996264)" xlink:href="#CMR17-33"/>
       <use transform="translate(45.690477 0)scale(0.996264)" xlink:href="#CMMI12-66"/>
       <use transform="translate(93.773715 -14.943915)scale(0.697382)" xlink:href="#CMMI12-65"/>
      </g>
     </g>
    </g>
    <g id="xtick_10">
     <g id="line2d_19">
      <path clip-path="url(#pcc2b3a01d7)" d="M 498.578752 170.28 
L 498.578752 7.2 
" style="fill:none;stroke:#b0b0b0;stroke-linecap:square;stroke-width:0.8;"/>
     </g>
     <g id="line2d_20">
      <g>
       <use style="stroke:#000000;stroke-width:0.8;" x="498.578752" xlink:href="#m660e0a85e2" y="170.28"/>
      </g>
     </g>
     <g id="text_10">
      <!-- $5f_e$ -->
      <g transform="translate(488.232343 188.349588)scale(0.16 -0.16)">
       <use transform="scale(0.996264)" xlink:href="#CMR17-35"/>
       <use transform="translate(45.690477 0)scale(0.996264)" xlink:href="#CMMI12-66"/>
       <use transform="translate(93.773715 -14.943915)scale(0.697382)" xlink:href="#CMMI12-65"/>
      </g>
     </g>
    </g>
    <g id="xtick_11">
     <g id="line2d_21">
      <path clip-path="url(#pcc2b3a01d7)" d="M 546.135571 170.28 
L 546.135571 7.2 
" style="fill:none;stroke:#b0b0b0;stroke-linecap:square;stroke-width:0.8;"/>
     </g>
     <g id="line2d_22">
      <g>
       <use style="stroke:#000000;stroke-width:0.8;" x="546.135571" xlink:href="#m660e0a85e2" y="170.28"/>
      </g>
     </g>
     <g id="text_11">
      <!-- $5f_e$ -->
      <g transform="translate(535.789161 188.349588)scale(0.16 -0.16)">
       <use transform="scale(0.996264)" xlink:href="#CMR17-35"/>
       <use transform="translate(45.690477 0)scale(0.996264)" xlink:href="#CMMI12-66"/>
       <use transform="translate(93.773715 -14.943915)scale(0.697382)" xlink:href="#CMMI12-65"/>
      </g>
     </g>
    </g>
    <g id="text_12">
     <!-- $f$ -->
     <g transform="translate(304.504821 206.518653)scale(0.16 -0.16)">
      <use transform="scale(0.996264)" xlink:href="#CMMI12-66"/>
     </g>
    </g>
   </g>
   <g id="matplotlib.axis_2">
    <g id="ytick_1">
     <g id="line2d_23">
      <path clip-path="url(#pcc2b3a01d7)" d="M 29.35148 144.222955 
L 587.35148 144.222955 
" style="fill:none;stroke:#b0b0b0;stroke-linecap:square;stroke-width:0.8;"/>
     </g>
     <g id="line2d_24">
      <defs>
       <path d="M 0 0 
L -3.5 0 
" id="m06ce51733f" style="stroke:#000000;stroke-width:0.8;"/>
      </defs>
      <g>
       <use style="stroke:#000000;stroke-width:0.8;" x="29.35148" xlink:href="#m06ce51733f" y="144.222955"/>
      </g>
     </g>
     <g id="text_13">
      <!-- $\mathdefault{−1}$ -->
      <g transform="translate(7.2 148.374044)scale(0.12 -0.12)">
       <defs>
        <path d="M 1702 4083 
C 1702 4217 1696 4224 1606 4224 
C 1357 3927 979 3833 621 3820 
C 602 3820 570 3820 563 3808 
C 557 3795 557 3782 557 3648 
C 755 3648 1088 3686 1344 3839 
L 1344 467 
C 1344 243 1331 166 781 166 
L 589 166 
L 589 0 
C 896 6 1216 12 1523 12 
C 1830 12 2150 6 2458 0 
L 2458 166 
L 2266 166 
C 1715 166 1702 236 1702 467 
L 1702 4083 
z
" id="CMR17-31" transform="scale(0.015625)"/>
       </defs>
       <use transform="scale(0.996264)" xlink:href="#CMSY10-0"/>
       <use transform="translate(77.487468 0)scale(0.996264)" xlink:href="#CMR17-31"/>
      </g>
     </g>
    </g>
    <g id="ytick_2">
     <g id="line2d_25">
      <path clip-path="url(#pcc2b3a01d7)" d="M 29.35148 112.518409 
L 587.35148 112.518409 
" style="fill:none;stroke:#b0b0b0;stroke-linecap:square;stroke-width:0.8;"/>
     </g>
     <g id="line2d_26">
      <g>
       <use style="stroke:#000000;stroke-width:0.8;" x="29.35148" xlink:href="#m06ce51733f" y="112.518409"/>
      </g>
     </g>
     <g id="text_14">
      <!-- $\mathdefault{0}$ -->
      <g transform="translate(16.498489 116.669499)scale(0.12 -0.12)">
       <use transform="scale(0.996264)" xlink:href="#CMR17-30"/>
      </g>
     </g>
    </g>
    <g id="ytick_3">
     <g id="line2d_27">
      <path clip-path="url(#pcc2b3a01d7)" d="M 29.35148 80.813864 
L 587.35148 80.813864 
" style="fill:none;stroke:#b0b0b0;stroke-linecap:square;stroke-width:0.8;"/>
     </g>
     <g id="line2d_28">
      <g>
       <use style="stroke:#000000;stroke-width:0.8;" x="29.35148" xlink:href="#m06ce51733f" y="80.813864"/>
      </g>
     </g>
     <g id="text_15">
      <!-- $\mathdefault{1}$ -->
      <g transform="translate(16.498489 84.964954)scale(0.12 -0.12)">
       <use transform="scale(0.996264)" xlink:href="#CMR17-31"/>
      </g>
     </g>
    </g>
    <g id="ytick_4">
     <g id="line2d_29">
      <path clip-path="url(#pcc2b3a01d7)" d="M 29.35148 49.109318 
L 587.35148 49.109318 
" style="fill:none;stroke:#b0b0b0;stroke-linecap:square;stroke-width:0.8;"/>
     </g>
     <g id="line2d_30">
      <g>
       <use style="stroke:#000000;stroke-width:0.8;" x="29.35148" xlink:href="#m06ce51733f" y="49.109318"/>
      </g>
     </g>
     <g id="text_16">
      <!-- $\mathdefault{2}$ -->
      <g transform="translate(16.498489 53.260408)scale(0.12 -0.12)">
       <use transform="scale(0.996264)" xlink:href="#CMR17-32"/>
      </g>
     </g>
    </g>
    <g id="ytick_5">
     <g id="line2d_31">
      <path clip-path="url(#pcc2b3a01d7)" d="M 29.35148 17.404773 
L 587.35148 17.404773 
" style="fill:none;stroke:#b0b0b0;stroke-linecap:square;stroke-width:0.8;"/>
     </g>
     <g id="line2d_32">
      <g>
       <use style="stroke:#000000;stroke-width:0.8;" x="29.35148" xlink:href="#m06ce51733f" y="17.404773"/>
      </g>
     </g>
     <g id="text_17">
      <!-- $\mathdefault{3}$ -->
      <g transform="translate(16.498489 21.555863)scale(0.12 -0.12)">
       <use transform="scale(0.996264)" xlink:href="#CMR17-33"/>
      </g>
     </g>
    </g>
   </g>
   <g id="line2d_33">
    <path clip-path="url(#pcc2b3a01d7)" d="M 54.715116 112.518409 
L 560.402616 112.518409 
L 560.402616 112.518409 
" style="fill:none;stroke:#ff7f0e;stroke-dasharray:1.5,2.475;stroke-dashoffset:0;stroke-width:1.5;"/>
   </g>
   <g id="line2d_34">
    <path clip-path="url(#pcc2b3a01d7)" d="M 54.715116 112.518409 
L 560.402616 112.518409 
L 560.402616 112.518409 
" style="fill:none;stroke:#ff7f0e;stroke-dasharray:1.5,2.475;stroke-dashoffset:0;stroke-width:1.5;"/>
   </g>
   <g id="line2d_35">
    <path clip-path="url(#pcc2b3a01d7)" d="M 54.715116 85.061467 
L 57.885571 83.460713 
L 61.056025 82.2742 
L 64.22648 81.454426 
L 67.396934 80.972785 
L 70.567389 80.813864 
L 73.737843 80.972785 
L 76.908298 81.454426 
L 80.078752 82.2742 
L 83.249207 83.460713 
L 86.419661 85.061467 
L 88.004889 86.039893 
L 89.590116 87.154773 
L 91.175343 88.42504 
L 92.760571 89.876835 
L 94.345798 91.547823 
L 95.931025 93.495682 
L 97.516252 95.817003 
L 99.10148 98.698718 
L 100.686707 102.618668 
L 102.271934 112.518406 
L 560.402616 112.518409 
L 560.402616 112.518409 
" style="fill:none;stroke:#ff7f0e;stroke-dasharray:1.5,2.475;stroke-dashoffset:0;stroke-width:1.5;"/>
   </g>
   <g id="line2d_36">
    <path clip-path="url(#pcc2b3a01d7)" d="M 54.715116 112.518409 
L 86.419661 112.518409 
L 88.004889 102.618668 
L 89.590116 98.698718 
L 91.175343 95.817003 
L 92.760571 93.495682 
L 94.345798 91.547823 
L 95.931025 89.876835 
L 97.516252 88.42504 
L 99.10148 87.154773 
L 100.686707 86.039893 
L 103.857161 84.205345 
L 107.027616 82.819186 
L 110.198071 81.820615 
L 113.368525 81.172569 
L 116.53898 80.853519 
L 119.709434 80.853519 
L 122.879889 81.172569 
L 126.050343 81.820615 
L 129.220798 82.819186 
L 132.391252 84.205345 
L 135.561707 86.039893 
L 137.146934 87.154773 
L 138.732161 88.42504 
L 140.317389 89.876835 
L 141.902616 91.547823 
L 143.487843 93.495682 
L 145.073071 95.817003 
L 146.658298 98.698718 
L 148.243525 102.618668 
L 149.828752 112.518404 
L 560.402616 112.518409 
L 560.402616 112.518409 
" style="fill:none;stroke:#ff7f0e;stroke-dasharray:1.5,2.475;stroke-dashoffset:0;stroke-width:1.5;"/>
   </g>
   <g id="line2d_37">
    <path clip-path="url(#pcc2b3a01d7)" d="M 54.715116 112.518409 
L 133.97648 112.518409 
L 135.561707 102.618668 
L 137.146934 98.698718 
L 138.732161 95.817003 
L 140.317389 93.495682 
L 141.902616 91.547823 
L 143.487843 89.876835 
L 145.073071 88.42504 
L 146.658298 87.154773 
L 148.243525 86.039893 
L 151.41398 84.205345 
L 154.584434 82.819186 
L 157.754889 81.820615 
L 160.925343 81.172569 
L 164.095798 80.853519 
L 167.266252 80.853519 
L 170.436707 81.172569 
L 173.607161 81.820615 
L 176.777616 82.819186 
L 179.948071 84.205345 
L 183.118525 86.039893 
L 184.703752 87.154773 
L 186.28898 88.42504 
L 187.874207 89.876835 
L 189.459434 91.547823 
L 191.044661 93.495682 
L 192.629889 95.817003 
L 194.215116 98.698718 
L 195.800343 102.618668 
L 197.385571 112.518403 
L 560.402616 112.518409 
L 560.402616 112.518409 
" style="fill:none;stroke:#ff7f0e;stroke-dasharray:1.5,2.475;stroke-dashoffset:0;stroke-width:1.5;"/>
   </g>
   <g id="line2d_38">
    <path clip-path="url(#pcc2b3a01d7)" d="M 54.715116 112.518409 
L 181.533298 112.518409 
L 183.118525 102.618668 
L 184.703752 98.698718 
L 186.28898 95.817003 
L 187.874207 93.495682 
L 189.459434 91.547823 
L 191.044661 89.876835 
L 192.629889 88.42504 
L 194.215116 87.154773 
L 195.800343 86.039893 
L 198.970798 84.205345 
L 202.141252 82.819186 
L 205.311707 81.820615 
L 208.482161 81.172569 
L 211.652616 80.853519 
L 214.823071 80.853519 
L 217.993525 81.172569 
L 221.16398 81.820615 
L 224.334434 82.819186 
L 227.504889 84.205345 
L 230.675343 86.039893 
L 232.260571 87.154773 
L 233.845798 88.42504 
L 235.431025 89.876835 
L 237.016252 91.547823 
L 238.60148 93.495682 
L 240.186707 95.817003 
L 241.771934 98.698718 
L 243.357161 102.618668 
L 244.942389 112.518403 
L 560.402616 112.518409 
L 560.402616 112.518409 
" style="fill:none;stroke:#ff7f0e;stroke-dasharray:1.5,2.475;stroke-dashoffset:0;stroke-width:1.5;"/>
   </g>
   <g id="line2d_39">
    <path clip-path="url(#pcc2b3a01d7)" d="M 54.715116 112.518409 
L 229.090116 112.518409 
L 230.675343 102.618668 
L 232.260571 98.698718 
L 233.845798 95.817003 
L 235.431025 93.495682 
L 237.016252 91.547823 
L 238.60148 89.876835 
L 240.186707 88.42504 
L 241.771934 87.154773 
L 243.357161 86.039893 
L 246.527616 84.205345 
L 249.698071 82.819186 
L 252.868525 81.820615 
L 256.03898 81.172569 
L 259.209434 80.853519 
L 262.379889 80.853519 
L 265.550343 81.172569 
L 268.720798 81.820615 
L 271.891252 82.819186 
L 275.061707 84.205345 
L 278.232161 86.039893 
L 279.817389 87.154773 
L 281.402616 88.42504 
L 282.987843 89.876835 
L 284.573071 91.547823 
L 286.158298 93.495682 
L 287.743525 95.817003 
L 289.328752 98.698718 
L 290.91398 102.618668 
L 292.499207 112.518402 
L 560.402616 112.518409 
L 560.402616 112.518409 
" style="fill:none;stroke:#ff7f0e;stroke-dasharray:1.5,2.475;stroke-dashoffset:0;stroke-width:1.5;"/>
   </g>
   <g id="line2d_40">
    <path clip-path="url(#pcc2b3a01d7)" d="M 54.715116 112.518409 
L 276.646934 112.518409 
L 278.232161 102.618668 
L 279.817389 98.698718 
L 281.402616 95.817003 
L 282.987843 93.495682 
L 284.573071 91.547823 
L 286.158298 89.876835 
L 287.743525 88.42504 
L 289.328752 87.154773 
L 290.91398 86.039893 
L 294.084434 84.205345 
L 297.254889 82.819186 
L 300.425343 81.820615 
L 303.595798 81.172569 
L 306.766252 80.853519 
L 309.936707 80.853519 
L 313.107161 81.172569 
L 316.277616 81.820615 
L 319.448071 82.819186 
L 322.618525 84.205345 
L 325.78898 86.039893 
L 327.374207 87.154773 
L 328.959434 88.42504 
L 330.544661 89.876835 
L 332.129889 91.547823 
L 333.715116 93.495682 
L 335.300343 95.817003 
L 336.885571 98.698718 
L 338.470798 102.618668 
L 340.056025 112.518401 
L 560.402616 112.518409 
L 560.402616 112.518409 
" style="fill:none;stroke:#ff7f0e;stroke-dasharray:1.5,2.475;stroke-dashoffset:0;stroke-width:1.5;"/>
   </g>
   <g id="line2d_41">
    <path clip-path="url(#pcc2b3a01d7)" d="M 54.715116 112.518409 
L 324.203752 112.518409 
L 325.78898 102.618668 
L 327.374207 98.698718 
L 328.959434 95.817003 
L 330.544661 93.495682 
L 332.129889 91.547823 
L 333.715116 89.876835 
L 335.300343 88.42504 
L 336.885571 87.154773 
L 338.470798 86.039893 
L 341.641252 84.205345 
L 344.811707 82.819186 
L 347.982161 81.820615 
L 351.152616 81.172569 
L 354.323071 80.853519 
L 357.493525 80.853519 
L 360.66398 81.172569 
L 363.834434 81.820615 
L 367.004889 82.819186 
L 370.175343 84.205345 
L 373.345798 86.039893 
L 374.931025 87.154773 
L 376.516252 88.42504 
L 378.10148 89.876835 
L 379.686707 91.547823 
L 381.271934 93.495682 
L 382.857161 95.817003 
L 384.442389 98.698718 
L 386.027616 102.618668 
L 387.612843 112.5184 
L 560.402616 112.518409 
L 560.402616 112.518409 
" style="fill:none;stroke:#ff7f0e;stroke-dasharray:1.5,2.475;stroke-dashoffset:0;stroke-width:1.5;"/>
   </g>
   <g id="line2d_42">
    <path clip-path="url(#pcc2b3a01d7)" d="M 54.715116 112.518409 
L 371.760571 112.518409 
L 373.345798 102.618668 
L 374.931025 98.698718 
L 376.516252 95.817003 
L 378.10148 93.495682 
L 379.686707 91.547823 
L 381.271934 89.876835 
L 382.857161 88.42504 
L 384.442389 87.154773 
L 386.027616 86.039893 
L 389.198071 84.205345 
L 392.368525 82.819186 
L 395.53898 81.820615 
L 398.709434 81.172569 
L 401.879889 80.853519 
L 405.050343 80.853519 
L 408.220798 81.172569 
L 411.391252 81.820615 
L 414.561707 82.819186 
L 417.732161 84.205345 
L 420.902616 86.039893 
L 422.487843 87.154773 
L 424.073071 88.42504 
L 425.658298 89.876835 
L 427.243525 91.547823 
L 428.828752 93.495682 
L 430.41398 95.817003 
L 431.999207 98.698718 
L 433.584434 102.618668 
L 435.169661 112.5184 
L 560.402616 112.518409 
L 560.402616 112.518409 
" style="fill:none;stroke:#ff7f0e;stroke-dasharray:1.5,2.475;stroke-dashoffset:0;stroke-width:1.5;"/>
   </g>
   <g id="line2d_43">
    <path clip-path="url(#pcc2b3a01d7)" d="M 54.715116 112.518409 
L 419.317389 112.518409 
L 420.902616 102.618668 
L 422.487843 98.698718 
L 424.073071 95.817003 
L 425.658298 93.495682 
L 427.243525 91.547823 
L 428.828752 89.876835 
L 430.41398 88.42504 
L 431.999207 87.154773 
L 433.584434 86.039893 
L 436.754889 84.205345 
L 439.925343 82.819186 
L 443.095798 81.820615 
L 446.266252 81.172569 
L 449.436707 80.853519 
L 452.607161 80.853519 
L 455.777616 81.172569 
L 458.948071 81.820615 
L 462.118525 82.819186 
L 465.28898 84.205345 
L 468.459434 86.039893 
L 470.044661 87.154773 
L 471.629889 88.42504 
L 473.215116 89.876835 
L 474.800343 91.547823 
L 476.385571 93.495682 
L 477.970798 95.817003 
L 479.556025 98.698718 
L 481.141252 102.618668 
L 482.72648 112.518399 
L 560.402616 112.518409 
L 560.402616 112.518409 
" style="fill:none;stroke:#ff7f0e;stroke-dasharray:1.5,2.475;stroke-dashoffset:0;stroke-width:1.5;"/>
   </g>
   <g id="line2d_44">
    <path clip-path="url(#pcc2b3a01d7)" d="M 54.715116 112.518409 
L 466.874207 112.518409 
L 468.459434 102.618668 
L 470.044661 98.698718 
L 471.629889 95.817003 
L 473.215116 93.495682 
L 474.800343 91.547823 
L 476.385571 89.876835 
L 477.970798 88.42504 
L 479.556025 87.154773 
L 481.141252 86.039893 
L 484.311707 84.205345 
L 487.482161 82.819186 
L 490.652616 81.820615 
L 493.823071 81.172569 
L 496.993525 80.853519 
L 500.16398 80.853519 
L 503.334434 81.172569 
L 506.504889 81.820615 
L 509.675343 82.819186 
L 512.845798 84.205345 
L 516.016252 86.039893 
L 517.60148 87.154773 
L 519.186707 88.42504 
L 520.771934 89.876835 
L 522.357161 91.547823 
L 523.942389 93.495682 
L 525.527616 95.817003 
L 527.112843 98.698718 
L 528.698071 102.618668 
L 530.283298 112.518399 
L 560.402616 112.518409 
L 560.402616 112.518409 
" style="fill:none;stroke:#ff7f0e;stroke-dasharray:1.5,2.475;stroke-dashoffset:0;stroke-width:1.5;"/>
   </g>
   <g id="line2d_45">
    <path clip-path="url(#pcc2b3a01d7)" d="M 54.715116 112.518409 
L 514.431025 112.518409 
L 516.016252 102.618668 
L 517.60148 98.698718 
L 519.186707 95.817003 
L 520.771934 93.495682 
L 522.357161 91.547823 
L 523.942389 89.876835 
L 525.527616 88.42504 
L 527.112843 87.154773 
L 528.698071 86.039893 
L 531.868525 84.205345 
L 535.03898 82.819186 
L 538.209434 81.820615 
L 541.379889 81.172569 
L 544.550343 80.853519 
L 547.720798 80.853519 
L 550.891252 81.172569 
L 554.061707 81.820615 
L 557.232161 82.819186 
L 560.402616 84.205345 
L 560.402616 84.205345 
" style="fill:none;stroke:#ff7f0e;stroke-dasharray:1.5,2.475;stroke-dashoffset:0;stroke-width:1.5;"/>
   </g>
   <g id="line2d_46">
    <path clip-path="url(#pcc2b3a01d7)" d="M 54.715116 112.518409 
L 560.402616 112.518409 
L 560.402616 112.518409 
" style="fill:none;stroke:#ff7f0e;stroke-dasharray:1.5,2.475;stroke-dashoffset:0;stroke-width:1.5;"/>
   </g>
   <g id="line2d_47">
    <path clip-path="url(#pcc2b3a01d7)" d="M 54.715116 112.518409 
L 560.402616 112.518409 
L 560.402616 112.518409 
" style="fill:none;stroke:#ff7f0e;stroke-dasharray:1.5,2.475;stroke-dashoffset:0;stroke-width:1.5;"/>
   </g>
   <g id="line2d_48">
    <path clip-path="url(#pcc2b3a01d7)" d="M 54.715116 85.061467 
L 57.885571 83.460713 
L 61.056025 82.2742 
L 64.22648 81.454426 
L 67.396934 80.972785 
L 70.567389 80.813864 
L 73.737843 80.972785 
L 76.908298 81.454426 
L 80.078752 82.2742 
L 83.249207 83.460713 
L 86.419661 85.061467 
L 88.004889 76.140152 
L 89.590116 73.335082 
L 91.175343 71.723635 
L 92.760571 70.854108 
L 94.345798 70.577238 
L 95.931025 70.854108 
L 97.516252 71.723635 
L 99.10148 73.335082 
L 100.686707 76.140152 
L 102.271934 85.061464 
L 105.442389 83.460713 
L 108.612843 82.2742 
L 111.783298 81.454426 
L 114.953752 80.972785 
L 118.124207 80.813864 
L 121.294661 80.972785 
L 124.465116 81.454426 
L 127.635571 82.2742 
L 130.806025 83.460713 
L 133.97648 85.061467 
L 135.561707 76.140152 
L 137.146934 73.335082 
L 138.732161 71.723635 
L 140.317389 70.854108 
L 141.902616 70.577238 
L 143.487843 70.854108 
L 145.073071 71.723635 
L 146.658298 73.335082 
L 148.243525 76.140152 
L 149.828752 85.061463 
L 152.999207 83.460713 
L 156.169661 82.2742 
L 159.340116 81.454426 
L 162.510571 80.972785 
L 165.681025 80.813864 
L 168.85148 80.972785 
L 172.021934 81.454426 
L 175.192389 82.2742 
L 178.362843 83.460713 
L 181.533298 85.061467 
L 183.118525 76.140152 
L 184.703752 73.335082 
L 186.28898 71.723635 
L 187.874207 70.854108 
L 189.459434 70.577238 
L 191.044661 70.854108 
L 192.629889 71.723635 
L 194.215116 73.335082 
L 195.800343 76.140152 
L 197.385571 85.061462 
L 200.556025 83.460713 
L 203.72648 82.2742 
L 206.896934 81.454426 
L 210.067389 80.972785 
L 213.237843 80.813864 
L 216.408298 80.972785 
L 219.578752 81.454426 
L 222.749207 82.2742 
L 225.919661 83.460713 
L 229.090116 85.061467 
L 230.675343 76.140152 
L 232.260571 73.335082 
L 233.845798 71.723635 
L 235.431025 70.854108 
L 237.016252 70.577238 
L 238.60148 70.854108 
L 240.186707 71.723635 
L 241.771934 73.335082 
L 243.357161 76.140152 
L 244.942389 85.061461 
L 248.112843 83.460713 
L 251.283298 82.2742 
L 254.453752 81.454426 
L 257.624207 80.972785 
L 260.794661 80.813864 
L 263.965116 80.972785 
L 267.135571 81.454426 
L 270.306025 82.2742 
L 273.47648 83.460713 
L 276.646934 85.061467 
L 278.232161 76.140152 
L 279.817389 73.335082 
L 281.402616 71.723635 
L 282.987843 70.854108 
L 284.573071 70.577238 
L 286.158298 70.854108 
L 287.743525 71.723635 
L 289.328752 73.335082 
L 290.91398 76.140152 
L 292.499207 85.06146 
L 295.669661 83.460713 
L 298.840116 82.2742 
L 302.010571 81.454426 
L 305.181025 80.972785 
L 308.35148 80.813864 
L 311.521934 80.972785 
L 314.692389 81.454426 
L 317.862843 82.2742 
L 321.033298 83.460713 
L 324.203752 85.061467 
L 325.78898 76.140152 
L 327.374207 73.335082 
L 328.959434 71.723635 
L 330.544661 70.854108 
L 332.129889 70.577238 
L 333.715116 70.854108 
L 335.300343 71.723635 
L 336.885571 73.335082 
L 338.470798 76.140152 
L 340.056025 85.061459 
L 343.22648 83.460713 
L 346.396934 82.2742 
L 349.567389 81.454426 
L 352.737843 80.972785 
L 355.908298 80.813864 
L 359.078752 80.972785 
L 362.249207 81.454426 
L 365.419661 82.2742 
L 368.590116 83.460713 
L 371.760571 85.061467 
L 373.345798 76.140152 
L 374.931025 73.335082 
L 376.516252 71.723635 
L 378.10148 70.854108 
L 379.686707 70.577238 
L 381.271934 70.854108 
L 382.857161 71.723635 
L 384.442389 73.335082 
L 386.027616 76.140152 
L 387.612843 85.061459 
L 390.783298 83.460713 
L 393.953752 82.2742 
L 397.124207 81.454426 
L 400.294661 80.972785 
L 403.465116 80.813864 
L 406.635571 80.972785 
L 409.806025 81.454426 
L 412.97648 82.2742 
L 416.146934 83.460713 
L 419.317389 85.061467 
L 420.902616 76.140152 
L 422.487843 73.335082 
L 424.073071 71.723635 
L 425.658298 70.854108 
L 427.243525 70.577238 
L 428.828752 70.854108 
L 430.41398 71.723635 
L 431.999207 73.335082 
L 433.584434 76.140152 
L 435.169661 85.061458 
L 438.340116 83.460713 
L 441.510571 82.2742 
L 444.681025 81.454426 
L 447.85148 80.972785 
L 451.021934 80.813864 
L 454.192389 80.972785 
L 457.362843 81.454426 
L 460.533298 82.2742 
L 463.703752 83.460713 
L 466.874207 85.061467 
L 468.459434 76.140152 
L 470.044661 73.335082 
L 471.629889 71.723635 
L 473.215116 70.854108 
L 474.800343 70.577238 
L 476.385571 70.854108 
L 477.970798 71.723635 
L 479.556025 73.335082 
L 481.141252 76.140152 
L 482.72648 85.061457 
L 485.896934 83.460713 
L 489.067389 82.2742 
L 492.237843 81.454426 
L 495.408298 80.972785 
L 498.578752 80.813864 
L 501.749207 80.972785 
L 504.919661 81.454426 
L 508.090116 82.2742 
L 511.260571 83.460713 
L 514.431025 85.061467 
L 516.016252 76.140152 
L 517.60148 73.335082 
L 519.186707 71.723635 
L 520.771934 70.854108 
L 522.357161 70.577238 
L 523.942389 70.854108 
L 525.527616 71.723635 
L 527.112843 73.335082 
L 528.698071 76.140152 
L 530.283298 85.061457 
L 533.453752 83.460713 
L 536.624207 82.2742 
L 539.794661 81.454426 
L 542.965116 80.972785 
L 546.135571 80.813864 
L 549.306025 80.972785 
L 552.47648 81.454426 
L 555.646934 82.2742 
L 558.817389 83.460713 
L 560.402616 84.205345 
L 560.402616 84.205345 
" style="fill:none;stroke:#ff7f0e;stroke-linecap:square;stroke-width:1.5;"/>
   </g>
   <g id="line2d_49">
    <path clip-path="url(#pcc2b3a01d7)" d="M 54.715116 112.518409 
L 284.573071 112.518409 
L 284.573071 64.961591 
L 332.129889 64.961591 
L 332.129889 112.518409 
L 561.987843 112.518409 
" style="fill:none;stroke:#550055;stroke-dasharray:5.55,2.4;stroke-dashoffset:0;stroke-width:1.5;"/>
   </g>
   <g id="patch_3">
    <path d="M 29.35148 170.28 
L 29.35148 7.2 
" style="fill:none;stroke:#000000;stroke-linecap:square;stroke-linejoin:miter;stroke-width:0.8;"/>
   </g>
   <g id="patch_4">
    <path d="M 587.35148 170.28 
L 587.35148 7.2 
" style="fill:none;stroke:#000000;stroke-linecap:square;stroke-linejoin:miter;stroke-width:0.8;"/>
   </g>
   <g id="patch_5">
    <path d="M 29.35148 170.28 
L 587.35148 170.28 
" style="fill:none;stroke:#000000;stroke-linecap:square;stroke-linejoin:miter;stroke-width:0.8;"/>
   </g>
   <g id="patch_6">
    <path d="M 29.35148 7.2 
L 587.35148 7.2 
" style="fill:none;stroke:#000000;stroke-linecap:square;stroke-linejoin:miter;stroke-width:0.8;"/>
   </g>
   <g id="text_18">
    <!-- $-f_c$ -->
    <g transform="translate(270.626781 128.142164)scale(0.18 -0.18)">
     <defs>
      <path d="M 2502 2432 
C 2381 2432 2323 2432 2234 2355 
C 2195 2323 2125 2227 2125 2124 
C 2125 1996 2221 1919 2342 1919 
C 2496 1919 2669 2047 2669 2303 
C 2669 2591 2374 2816 1933 2816 
C 1094 2816 256 1932 256 1011 
C 256 446 602 -64 1254 -64 
C 2125 -64 2675 622 2675 706 
C 2675 745 2637 777 2611 777 
C 2592 777 2586 771 2528 712 
C 2118 161 1510 64 1267 64 
C 826 64 685 453 685 777 
C 685 1004 794 1634 1024 2073 
C 1190 2374 1536 2687 1939 2687 
C 2022 2687 2374 2676 2502 2432 
z
" id="CMMI12-63" transform="scale(0.015625)"/>
     </defs>
     <use transform="scale(0.996264)" xlink:href="#CMSY10-0"/>
     <use transform="translate(77.487468 0)scale(0.996264)" xlink:href="#CMMI12-66"/>
     <use transform="translate(125.570705 -14.943915)scale(0.697382)" xlink:href="#CMMI12-63"/>
    </g>
   </g>
   <g id="text_19">
    <!-- $f_c$ -->
    <g transform="translate(325.15747 128.142164)scale(0.18 -0.18)">
     <use transform="scale(0.996264)" xlink:href="#CMMI12-66"/>
     <use transform="translate(48.083238 -14.943915)scale(0.697382)" xlink:href="#CMMI12-63"/>
    </g>
   </g>
   <g id="legend_1">
    <g id="patch_7">
     <path d="M 483.132684 43.940224 
L 576.15148 43.940224 
Q 579.35148 43.940224 579.35148 40.740224 
L 579.35148 18.4 
Q 579.35148 15.2 576.15148 15.2 
L 483.132684 15.2 
Q 479.932684 15.2 479.932684 18.4 
L 479.932684 40.740224 
Q 479.932684 43.940224 483.132684 43.940224 
z
" style="fill:#ffffff;opacity:0.8;stroke:#cccccc;stroke-linejoin:miter;"/>
    </g>
    <g id="line2d_50">
     <path d="M 486.332684 27.955168 
L 518.332684 27.955168 
" style="fill:none;stroke:#ff7f0e;stroke-linecap:square;stroke-width:1.5;"/>
    </g>
    <g id="line2d_51"/>
    <g id="text_20">
     <!-- $X^*(f)$ -->
     <g transform="translate(531.132684 33.555168)scale(0.16 -0.16)">
      <defs>
       <path d="M 3040 2586 
L 2438 3981 
C 2522 4134 2714 4159 2790 4166 
C 2829 4166 2899 4172 2899 4281 
C 2899 4352 2842 4352 2803 4352 
C 2694 4352 2566 4339 2458 4339 
L 2086 4339 
C 1696 4339 1414 4352 1408 4352 
C 1357 4352 1293 4352 1293 4230 
C 1293 4166 1350 4166 1434 4166 
C 1805 4166 1830 4102 1894 3949 
L 2656 2179 
L 1267 701 
C 1037 453 762 211 288 185 
C 211 179 160 179 160 64 
C 160 44 166 0 237 0 
C 326 0 422 12 512 12 
L 813 12 
C 1018 12 1242 0 1440 0 
C 1485 0 1562 0 1562 115 
C 1562 179 1517 185 1478 185 
C 1350 198 1267 268 1267 370 
C 1267 478 1344 555 1530 746 
L 2099 1363 
C 2240 1510 2579 1879 2720 2019 
L 3392 453 
C 3398 440 3424 376 3424 370 
C 3424 312 3283 198 3078 185 
C 3040 185 2970 179 2970 64 
C 2970 0 3034 0 3066 0 
C 3174 0 3302 12 3411 12 
L 4115 12 
C 4230 12 4352 0 4461 0 
C 4506 0 4576 0 4576 121 
C 4576 185 4512 185 4454 185 
C 4070 191 4058 223 3949 459 
L 3104 2433 
L 3917 3300 
C 3981 3363 4128 3523 4186 3586 
C 4461 3873 4717 4134 5235 4166 
C 5299 4172 5363 4172 5363 4281 
C 5363 4352 5306 4352 5280 4352 
C 5190 4352 5094 4339 5005 4339 
L 4710 4339 
C 4506 4339 4282 4352 4083 4352 
C 4038 4352 3962 4352 3962 4236 
C 3962 4172 4006 4166 4045 4166 
C 4147 4153 4256 4102 4256 3981 
L 4250 3968 
C 4243 3924 4230 3860 4160 3784 
L 3040 2586 
z
" id="CMMI12-58" transform="scale(0.015625)"/>
       <path d="M 1760 2762 
C 1766 2853 1766 3008 1600 3008 
C 1498 3008 1414 2924 1434 2840 
L 1434 2755 
L 1523 1740 
L 704 2349 
C 646 2382 634 2395 589 2395 
C 499 2395 416 2303 416 2212 
C 416 2107 480 2081 544 2048 
L 1453 1603 
L 570 1164 
C 467 1112 416 1085 416 987 
C 416 889 499 804 589 804 
C 634 804 646 804 806 928 
L 1523 1459 
L 1427 359 
C 1427 224 1542 192 1594 192 
C 1670 192 1766 236 1766 359 
L 1670 1459 
L 2490 850 
C 2547 817 2560 804 2605 804 
C 2694 804 2778 896 2778 987 
C 2778 1085 2720 1118 2643 1157 
C 2259 1354 2246 1354 1741 1596 
L 2624 2035 
C 2726 2087 2778 2113 2778 2212 
C 2778 2310 2694 2395 2605 2395 
C 2560 2395 2547 2395 2387 2271 
L 1670 1740 
L 1760 2762 
z
" id="CMSY10-3" transform="scale(0.015625)"/>
       <path d="M 1958 -1562 
C 1958 -1556 1958 -1543 1939 -1524 
C 1645 -1223 858 -403 858 1596 
C 858 3595 1632 4408 1946 4729 
C 1946 4735 1958 4748 1958 4767 
C 1958 4787 1939 4800 1914 4800 
C 1843 4800 1299 4325 986 3620 
C 666 2909 576 2218 576 1603 
C 576 1141 621 360 1005 -467 
C 1312 -1133 1837 -1600 1914 -1600 
C 1946 -1600 1958 -1588 1958 -1562 
z
" id="CMR17-28" transform="scale(0.015625)"/>
       <path d="M 1683 1596 
C 1683 2057 1638 2839 1254 3665 
C 947 4332 422 4800 346 4800 
C 326 4800 301 4793 301 4761 
C 301 4748 307 4742 314 4729 
C 621 4408 1402 3595 1402 1603 
C 1402 -396 627 -1210 314 -1530 
C 307 -1543 301 -1549 301 -1562 
C 301 -1594 326 -1600 346 -1600 
C 416 -1600 960 -1127 1274 -422 
C 1594 289 1683 981 1683 1596 
z
" id="CMR17-29" transform="scale(0.015625)"/>
      </defs>
      <use transform="scale(0.996264)" xlink:href="#CMMI12-58"/>
      <use transform="translate(88.792562 36.153639)scale(0.697382)" xlink:href="#CMSY10-3"/>
      <use transform="translate(124.159904 0)scale(0.996264)" xlink:href="#CMR17-28"/>
      <use transform="translate(159.440672 0)scale(0.996264)" xlink:href="#CMMI12-66"/>
      <use transform="translate(218.160977 0)scale(0.996264)" xlink:href="#CMR17-29"/>
     </g>
    </g>
   </g>
  </g>
 </g>
 <defs>
  <clipPath id="pcc2b3a01d7">
   <rect height="163.08" width="558" x="29.35148" y="7.2"/>
  </clipPath>
 </defs>
</svg>
