<?xml version="1.0" encoding="utf-8" standalone="no"?>
<!DOCTYPE svg PUBLIC "-//W3C//DTD SVG 1.1//EN"
  "http://www.w3.org/Graphics/SVG/1.1/DTD/svg11.dtd">
<svg xmlns:xlink="http://www.w3.org/1999/xlink" width="727.904086pt" height="228.004626pt" viewBox="0 0 727.904086 228.004626" xmlns="http://www.w3.org/2000/svg" version="1.1">
 <metadata>
  <rdf:RDF xmlns:dc="http://purl.org/dc/elements/1.1/" xmlns:cc="http://creativecommons.org/ns#" xmlns:rdf="http://www.w3.org/1999/02/22-rdf-syntax-ns#">
   <cc:Work>
    <dc:type rdf:resource="http://purl.org/dc/dcmitype/StillImage"/>
    <dc:date>2025-12-21T20:39:30.372033</dc:date>
    <dc:format>image/svg+xml</dc:format>
    <dc:creator>
     <cc:Agent>
      <dc:title>Matplotlib v3.10.6, https://matplotlib.org/</dc:title>
     </cc:Agent>
    </dc:creator>
   </cc:Work>
  </rdf:RDF>
 </metadata>
 <defs>
  <style type="text/css">*{stroke-linejoin: round; stroke-linecap: butt}</style>
 </defs>
 <g id="figure_1">
  <g id="patch_1">
   <path d="M 0 228.004626 
L 727.904086 228.004626 
L 727.904086 0 
L 0 0 
z
" style="fill: #ffffff"/>
  </g>
  <g id="axes_1">
   <g id="patch_2">
    <path d="M 46.541518 165.083515 
L 243.482695 165.083515 
L 243.482695 26.483515 
L 46.541518 26.483515 
z
" style="fill: #ffffff"/>
   </g>
   <g id="matplotlib.axis_1">
    <g id="xtick_1">
     <g id="line2d_1">
      <path d="M 55.49339 165.083515 
L 55.49339 26.483515 
" clip-path="url(#p4110c90057)" style="fill: none; stroke: #b0b0b0; stroke-width: 0.8; stroke-linecap: square"/>
     </g>
     <g id="line2d_2">
      <defs>
       <path id="m011bd2c96c" d="M 0 0 
L 0 3.5 
" style="stroke: #000000; stroke-width: 0.8"/>
      </defs>
      <g>
       <use xlink:href="#m011bd2c96c" x="55.49339" y="165.083515" style="stroke: #000000; stroke-width: 0.8"/>
      </g>
     </g>
     <g id="text_1">
      <!-- $\mathdefault{0}$ -->
      <g transform="translate(51.591397 183.153103) scale(0.16 -0.16)">
       <defs>
        <path id="CMR17-30" d="M 2688 2038 
C 2688 2430 2682 3099 2413 3613 
C 2176 4063 1798 4224 1466 4224 
C 1158 4224 768 4082 525 3620 
C 269 3137 243 2539 243 2038 
C 243 1671 250 1112 448 623 
C 723 -39 1216 -128 1466 -128 
C 1760 -128 2208 -7 2470 604 
C 2662 1048 2688 1568 2688 2038 
z
M 1466 -26 
C 1056 -26 813 328 723 816 
C 653 1196 653 1749 653 2109 
C 653 2604 653 3015 736 3407 
C 858 3954 1216 4121 1466 4121 
C 1728 4121 2067 3947 2189 3420 
C 2272 3054 2278 2623 2278 2109 
C 2278 1691 2278 1176 2202 797 
C 2067 96 1690 -26 1466 -26 
z
" transform="scale(0.015625)"/>
       </defs>
       <use xlink:href="#CMR17-30" transform="scale(0.996264)"/>
      </g>
     </g>
    </g>
    <g id="xtick_2">
     <g id="line2d_3">
      <path d="M 145.916336 165.083515 
L 145.916336 26.483515 
" clip-path="url(#p4110c90057)" style="fill: none; stroke: #b0b0b0; stroke-width: 0.8; stroke-linecap: square"/>
     </g>
     <g id="line2d_4">
      <g>
       <use xlink:href="#m011bd2c96c" x="145.916336" y="165.083515" style="stroke: #000000; stroke-width: 0.8"/>
      </g>
     </g>
     <g id="text_2">
      <!-- $\mathdefault{50}$ -->
      <g transform="translate(138.112349 183.153103) scale(0.16 -0.16)">
       <defs>
        <path id="CMR17-35" d="M 730 3750 
C 794 3724 1056 3641 1325 3641 
C 1920 3641 2246 3961 2432 4140 
C 2432 4191 2432 4224 2394 4224 
C 2387 4224 2374 4224 2323 4198 
C 2099 4102 1837 4032 1517 4032 
C 1325 4032 1037 4055 723 4191 
C 653 4224 640 4224 634 4224 
C 602 4224 595 4217 595 4090 
L 595 2231 
C 595 2113 595 2080 659 2080 
C 691 2080 704 2093 736 2139 
C 941 2435 1222 2560 1542 2560 
C 1766 2560 2246 2415 2246 1293 
C 2246 1087 2246 716 2054 422 
C 1894 159 1645 25 1370 25 
C 947 25 518 319 403 812 
C 429 806 480 793 506 793 
C 589 793 749 838 749 1036 
C 749 1209 627 1280 506 1280 
C 358 1280 262 1190 262 1011 
C 262 454 704 -128 1382 -128 
C 2042 -128 2669 441 2669 1267 
C 2669 2054 2170 2662 1549 2662 
C 1222 2662 947 2540 730 2304 
L 730 3750 
z
" transform="scale(0.015625)"/>
       </defs>
       <use xlink:href="#CMR17-35" transform="scale(0.996264)"/>
       <use xlink:href="#CMR17-30" transform="translate(45.690477 0) scale(0.996264)"/>
      </g>
     </g>
    </g>
    <g id="xtick_3">
     <g id="line2d_5">
      <path d="M 236.339282 165.083515 
L 236.339282 26.483515 
" clip-path="url(#p4110c90057)" style="fill: none; stroke: #b0b0b0; stroke-width: 0.8; stroke-linecap: square"/>
     </g>
     <g id="line2d_6">
      <g>
       <use xlink:href="#m011bd2c96c" x="236.339282" y="165.083515" style="stroke: #000000; stroke-width: 0.8"/>
      </g>
     </g>
     <g id="text_3">
      <!-- $\mathdefault{100}$ -->
      <g transform="translate(224.633302 183.153103) scale(0.16 -0.16)">
       <defs>
        <path id="CMR17-31" d="M 1702 4083 
C 1702 4217 1696 4224 1606 4224 
C 1357 3927 979 3833 621 3820 
C 602 3820 570 3820 563 3808 
C 557 3795 557 3782 557 3648 
C 755 3648 1088 3686 1344 3839 
L 1344 467 
C 1344 243 1331 166 781 166 
L 589 166 
L 589 0 
C 896 6 1216 12 1523 12 
C 1830 12 2150 6 2458 0 
L 2458 166 
L 2266 166 
C 1715 166 1702 236 1702 467 
L 1702 4083 
z
" transform="scale(0.015625)"/>
       </defs>
       <use xlink:href="#CMR17-31" transform="scale(0.996264)"/>
       <use xlink:href="#CMR17-30" transform="translate(45.690477 0) scale(0.996264)"/>
       <use xlink:href="#CMR17-30" transform="translate(91.380954 0) scale(0.996264)"/>
      </g>
     </g>
    </g>
    <g id="text_4">
     <!-- Profil de la route -->
     <g transform="translate(89.798465 201.322168) scale(0.16 -0.16)">
      <defs>
       <path id="CMSS17-50" d="M 2106 1856 
C 2874 1856 3501 2447 3501 3139 
C 3501 3818 2899 4416 2067 4416 
L 570 4416 
L 570 0 
L 1107 0 
L 1107 1856 
L 2106 1856 
z
M 1926 4057 
C 2669 4057 2995 3598 2995 3139 
C 2995 2711 2694 2227 1926 2227 
L 1094 2227 
L 1094 4057 
L 1926 4057 
z
" transform="scale(0.015625)"/>
       <path id="CMSS17-72" d="M 954 1369 
C 954 1974 1395 2379 1958 2392 
L 1958 2816 
C 1549 2809 1165 2604 934 2270 
L 934 2783 
L 480 2783 
L 480 0 
L 954 0 
L 954 1369 
z
" transform="scale(0.015625)"/>
       <path id="CMSS17-6f" d="M 2829 1356 
C 2829 2175 2221 2816 1504 2816 
C 768 2816 173 2156 173 1356 
C 173 544 787 -64 1498 -64 
C 2227 -64 2829 563 2829 1356 
z
M 1504 339 
C 1050 339 659 710 659 1407 
C 659 2150 1114 2425 1498 2425 
C 1914 2425 2342 2124 2342 1407 
C 2342 684 1926 339 1504 339 
z
" transform="scale(0.015625)"/>
       <path id="CMSS17-c" d="M 2752 4480 
L 2240 4480 
L 2240 3967 
L 2752 3967 
L 2752 4480 
z
M 2733 2752 
L 2259 2752 
L 2259 0 
L 2733 0 
L 2733 2752 
z
M 1075 2380 
L 1773 2380 
L 1773 2752 
L 1062 2752 
L 1062 3613 
C 1062 3961 1216 4134 1421 4134 
C 1542 4134 1664 4102 1773 4044 
L 1773 4473 
C 1722 4486 1574 4524 1421 4524 
C 941 4524 602 4038 602 3402 
L 602 2752 
L 160 2752 
L 160 2380 
L 602 2380 
L 602 0 
L 1075 0 
L 1075 2380 
z
" transform="scale(0.015625)"/>
       <path id="CMSS17-6c" d="M 947 4416 
L 474 4416 
L 474 0 
L 947 0 
L 947 4416 
z
" transform="scale(0.015625)"/>
       <path id="CMSS17-64" d="M 2611 4416 
L 2138 4416 
L 2138 2495 
C 1939 2662 1613 2816 1254 2816 
C 672 2816 211 2179 211 1375 
C 211 572 666 -64 1235 -64 
C 1677 -64 1971 172 2125 307 
L 2125 -13 
L 2611 -13 
L 2611 4416 
z
M 2125 851 
C 2125 760 2125 663 1926 488 
C 1798 378 1645 326 1498 326 
C 1152 326 698 585 698 1369 
C 698 2185 1210 2425 1562 2425 
C 1798 2425 1990 2308 2125 2114 
L 2125 851 
z
" transform="scale(0.015625)"/>
       <path id="CMSS17-65" d="M 2502 1375 
C 2502 1587 2490 2001 2285 2347 
C 2061 2713 1696 2816 1421 2816 
C 755 2816 192 2184 192 1363 
C 192 579 774 -64 1510 -64 
C 1798 -64 2150 19 2470 249 
C 2470 275 2458 414 2451 421 
C 2451 433 2432 629 2432 655 
C 2125 408 1773 326 1517 326 
C 1107 326 666 667 646 1375 
L 2502 1375 
z
M 698 1728 
C 781 2086 1062 2425 1421 2425 
C 1517 2425 1965 2412 2080 1728 
L 698 1728 
z
" transform="scale(0.015625)"/>
       <path id="CMSS17-61" d="M 2406 1789 
C 2406 2399 1978 2816 1402 2816 
C 1120 2816 813 2764 461 2559 
L 499 2133 
C 659 2250 934 2438 1395 2438 
C 1722 2438 1920 2185 1920 1782 
L 1920 1536 
C 896 1504 256 1209 256 711 
C 256 452 416 -64 947 -64 
C 1043 -64 1562 -52 1933 224 
L 1933 -13 
L 2406 -13 
L 2406 1789 
z
M 1920 824 
C 1920 711 1920 559 1728 446 
C 1562 339 1350 326 1261 326 
C 941 326 723 503 723 723 
C 723 1165 1722 1209 1920 1216 
L 1920 824 
z
" transform="scale(0.015625)"/>
       <path id="CMSS17-75" d="M 2618 2752 
L 2131 2752 
L 2131 976 
C 2131 500 1786 307 1421 307 
C 998 307 960 448 960 712 
L 960 2752 
L 474 2752 
L 474 680 
C 474 179 646 -64 1088 -64 
C 1306 -64 1798 -13 2144 307 
L 2144 -13 
L 2618 -13 
L 2618 2752 
z
" transform="scale(0.015625)"/>
       <path id="CMSS17-74" d="M 1069 2380 
L 1901 2380 
L 1901 2752 
L 1069 2752 
L 1069 3520 
L 614 3520 
L 614 2752 
L 109 2752 
L 109 2380 
L 602 2380 
L 602 751 
C 602 384 685 -64 1107 -64 
C 1427 -64 1722 25 2003 172 
L 1901 551 
C 1747 416 1562 339 1363 339 
C 1082 339 1069 699 1069 860 
L 1069 2380 
z
" transform="scale(0.015625)"/>
      </defs>
      <use xlink:href="#CMSS17-50" transform="scale(0.996264)"/>
      <use xlink:href="#CMSS17-72" transform="translate(59.735586 0) scale(0.996264)"/>
      <use xlink:href="#CMSS17-6f" transform="translate(91.645359 0) scale(0.996264)"/>
      <use xlink:href="#CMSS17-c" transform="translate(138.488982 0) scale(0.996264)"/>
      <use xlink:href="#CMSS17-6c" transform="translate(188.61572 0) scale(0.996264)"/>
      <use xlink:href="#CMSS17-64" transform="translate(242.025555 0) scale(0.996264)"/>
      <use xlink:href="#CMSS17-65" transform="translate(290.230499 0) scale(0.996264)"/>
      <use xlink:href="#CMSS17-6c" transform="translate(363.098433 0) scale(0.996264)"/>
      <use xlink:href="#CMSS17-61" transform="translate(385.279156 0) scale(0.996264)"/>
      <use xlink:href="#CMSS17-72" transform="translate(461.43019 0) scale(0.996264)"/>
      <use xlink:href="#CMSS17-6f" transform="translate(493.339962 0) scale(0.996264)"/>
      <use xlink:href="#CMSS17-75" transform="translate(540.183586 0) scale(0.996264)"/>
      <use xlink:href="#CMSS17-74" transform="translate(588.388529 0) scale(0.996264)"/>
      <use xlink:href="#CMSS17-65" transform="translate(622.220096 0) scale(0.996264)"/>
     </g>
    </g>
   </g>
   <g id="matplotlib.axis_2">
    <g id="ytick_1">
     <g id="line2d_7">
      <path d="M 46.541518 147.758515 
L 243.482695 147.758515 
" clip-path="url(#p4110c90057)" style="fill: none; stroke: #b0b0b0; stroke-width: 0.8; stroke-linecap: square"/>
     </g>
     <g id="line2d_8">
      <defs>
       <path id="m52009e8664" d="M 0 0 
L -3.5 0 
" style="stroke: #000000; stroke-width: 0.8"/>
      </defs>
      <g>
       <use xlink:href="#m52009e8664" x="46.541518" y="147.758515" style="stroke: #000000; stroke-width: 0.8"/>
      </g>
     </g>
     <g id="text_5">
      <!-- $\mathdefault{−0.5}$ -->
      <g transform="translate(7.2 153.293309) scale(0.16 -0.16)">
       <defs>
        <path id="CMSY10-0" d="M 4218 1472 
C 4326 1472 4442 1472 4442 1600 
C 4442 1728 4326 1728 4218 1728 
L 755 1728 
C 646 1728 531 1728 531 1600 
C 531 1472 646 1472 755 1472 
L 4218 1472 
z
" transform="scale(0.015625)"/>
        <path id="CMMI12-3a" d="M 1178 307 
C 1178 492 1024 620 870 620 
C 685 620 557 467 557 313 
C 557 128 710 0 864 0 
C 1050 0 1178 153 1178 307 
z
" transform="scale(0.015625)"/>
       </defs>
       <use xlink:href="#CMSY10-0" transform="scale(0.996264)"/>
       <use xlink:href="#CMR17-30" transform="translate(77.487468 0) scale(0.996264)"/>
       <use xlink:href="#CMMI12-3a" transform="translate(123.177945 0) scale(0.996264)"/>
       <use xlink:href="#CMR17-35" transform="translate(150.275122 0) scale(0.996264)"/>
      </g>
     </g>
    </g>
    <g id="ytick_2">
     <g id="line2d_9">
      <path d="M 46.541518 104.446015 
L 243.482695 104.446015 
" clip-path="url(#p4110c90057)" style="fill: none; stroke: #b0b0b0; stroke-width: 0.8; stroke-linecap: square"/>
     </g>
     <g id="line2d_10">
      <g>
       <use xlink:href="#m52009e8664" x="46.541518" y="104.446015" style="stroke: #000000; stroke-width: 0.8"/>
      </g>
     </g>
     <g id="text_6">
      <!-- $\mathdefault{0.0}$ -->
      <g transform="translate(19.597996 109.980809) scale(0.16 -0.16)">
       <use xlink:href="#CMR17-30" transform="scale(0.996264)"/>
       <use xlink:href="#CMMI12-3a" transform="translate(45.690477 0) scale(0.996264)"/>
       <use xlink:href="#CMR17-30" transform="translate(72.787654 0) scale(0.996264)"/>
      </g>
     </g>
    </g>
    <g id="ytick_3">
     <g id="line2d_11">
      <path d="M 46.541518 61.133515 
L 243.482695 61.133515 
" clip-path="url(#p4110c90057)" style="fill: none; stroke: #b0b0b0; stroke-width: 0.8; stroke-linecap: square"/>
     </g>
     <g id="line2d_12">
      <g>
       <use xlink:href="#m52009e8664" x="46.541518" y="61.133515" style="stroke: #000000; stroke-width: 0.8"/>
      </g>
     </g>
     <g id="text_7">
      <!-- $\mathdefault{0.5}$ -->
      <g transform="translate(19.597996 66.668309) scale(0.16 -0.16)">
       <use xlink:href="#CMR17-30" transform="scale(0.996264)"/>
       <use xlink:href="#CMMI12-3a" transform="translate(45.690477 0) scale(0.996264)"/>
       <use xlink:href="#CMR17-35" transform="translate(72.787654 0) scale(0.996264)"/>
      </g>
     </g>
    </g>
   </g>
   <g id="line2d_13">
    <path d="M 55.49339 104.446015 
L 57.301849 104.446015 
L 59.110308 104.446014 
L 60.918767 104.44601 
L 62.727226 104.445991 
L 64.535685 104.445902 
L 66.344144 104.445535 
L 68.152602 104.444162 
L 69.961061 104.439548 
L 71.76952 104.42559 
L 73.577979 104.387648 
L 75.386438 104.295094 
L 77.194897 104.092912 
L 79.003356 103.698497 
L 80.811815 103.014113 
L 82.620274 101.964167 
L 84.428733 100.553703 
L 86.237192 98.922561 
L 88.045651 97.35376 
L 89.85411 96.20599 
L 91.662568 95.783515 
L 93.471027 96.20599 
L 95.279486 97.35376 
L 97.087945 98.922561 
L 98.896404 100.553703 
L 100.704863 101.964167 
L 102.513322 103.014113 
L 104.321781 103.698497 
L 106.13024 104.092912 
L 107.938699 104.295094 
L 109.747158 104.387648 
L 111.555617 104.42559 
L 113.364076 104.439545 
L 115.172534 104.444144 
L 116.980993 104.445439 
L 118.789452 104.445452 
L 120.597911 104.44407 
L 122.40637 104.438599 
L 124.214829 104.420145 
L 126.023288 104.364315 
L 127.831747 104.212545 
L 129.640206 103.84233 
L 131.448665 103.033605 
L 133.257124 101.455942 
L 135.065583 98.718409 
L 136.874041 94.518624 
L 138.6825 88.876766 
L 140.490959 82.3522 
L 142.299418 76.076994 
L 144.107877 71.485916 
L 145.916336 69.796015 
L 147.724795 71.485916 
L 149.533254 76.076994 
L 151.341713 82.3522 
L 153.150172 88.876766 
L 154.958631 94.518624 
L 156.76709 98.718409 
L 158.575549 101.455942 
L 160.384007 103.033605 
L 162.192466 103.84233 
L 164.000925 104.212545 
L 165.809384 104.364315 
L 167.617843 104.420146 
L 169.426302 104.438603 
L 171.234761 104.444094 
L 173.04322 104.445564 
L 174.851679 104.445919 
L 176.660138 104.445997 
L 178.468597 104.446012 
L 180.277056 104.446015 
L 182.085514 104.446015 
L 183.893973 104.446015 
L 185.702432 104.446015 
L 187.510891 104.446015 
L 189.31935 104.446015 
L 191.127809 104.446015 
L 192.936268 104.446015 
L 194.744727 104.446015 
L 196.553186 104.446015 
L 198.361645 104.446015 
L 200.170104 104.446015 
L 201.978563 104.446015 
L 203.787022 104.446015 
L 205.59548 104.446015 
L 207.403939 104.446015 
L 209.212398 104.446015 
L 211.020857 104.446015 
L 212.829316 104.446015 
L 214.637775 104.446015 
L 216.446234 104.446015 
L 218.254693 104.446015 
L 220.063152 104.446015 
L 221.871611 104.446015 
L 223.68007 104.446015 
L 225.488529 104.446015 
L 227.296988 104.446015 
L 229.105446 104.446015 
L 230.913905 104.446015 
L 232.722364 104.446015 
L 234.530823 104.446015 
" clip-path="url(#p4110c90057)" style="fill: none; stroke: #1f77b4; stroke-width: 1.5; stroke-linecap: square"/>
   </g>
   <g id="patch_3">
    <path d="M 46.541518 165.083515 
L 46.541518 26.483515 
" style="fill: none; stroke: #000000; stroke-width: 0.8; stroke-linejoin: miter; stroke-linecap: square"/>
   </g>
   <g id="patch_4">
    <path d="M 243.482695 165.083515 
L 243.482695 26.483515 
" style="fill: none; stroke: #000000; stroke-width: 0.8; stroke-linejoin: miter; stroke-linecap: square"/>
   </g>
   <g id="patch_5">
    <path d="M 46.541518 165.083515 
L 243.482695 165.083515 
" style="fill: none; stroke: #000000; stroke-width: 0.8; stroke-linejoin: miter; stroke-linecap: square"/>
   </g>
   <g id="patch_6">
    <path d="M 46.541518 26.483515 
L 243.482695 26.483515 
" style="fill: none; stroke: #000000; stroke-width: 0.8; stroke-linejoin: miter; stroke-linecap: square"/>
   </g>
   <g id="text_8">
    <!-- $x$ -->
    <g transform="translate(139.690441 20.483515) scale(0.192 -0.192)">
     <defs>
      <path id="CMMI12-78" d="M 3034 2624 
C 2829 2585 2752 2431 2752 2310 
C 2752 2156 2874 2105 2963 2105 
C 3155 2105 3290 2271 3290 2444 
C 3290 2694 2982 2816 2714 2816 
C 2323 2816 2106 2451 2048 2329 
C 1901 2790 1504 2816 1389 2816 
C 736 2816 390 1993 390 1849 
C 390 1823 416 1790 461 1790 
C 512 1790 525 1829 538 1855 
C 755 2572 1184 2687 1370 2687 
C 1658 2687 1715 2438 1715 2284 
C 1715 2143 1677 1993 1600 1678 
L 1382 778 
C 1286 390 1101 64 762 64 
C 730 64 570 64 435 126 
C 666 166 717 358 717 435 
C 717 563 621 640 499 640 
C 346 640 179 505 179 300 
C 179 57 480 -64 755 -64 
C 1062 -64 1280 153 1414 415 
C 1517 64 1837 -64 2074 -64 
C 2726 -64 3072 751 3072 896 
C 3072 929 3046 955 3008 955 
C 2950 955 2944 922 2925 870 
C 2752 300 2381 64 2093 64 
C 1869 64 1747 204 1747 467 
C 1747 607 1773 712 1875 1146 
L 2099 2039 
C 2195 2425 2413 2687 2707 2687 
C 2720 2687 2899 2687 3034 2624 
z
" transform="scale(0.015625)"/>
     </defs>
     <use xlink:href="#CMMI12-78" transform="scale(0.996264)"/>
    </g>
   </g>
  </g>
  <g id="axes_2">
   <g id="patch_7">
    <path d="M 282.87093 165.083515 
L 479.812107 165.083515 
L 479.812107 26.483515 
L 282.87093 26.483515 
z
" style="fill: #ffffff"/>
   </g>
   <g id="matplotlib.axis_3">
    <g id="xtick_4">
     <g id="line2d_14">
      <path d="M 291.822802 165.083515 
L 291.822802 26.483515 
" clip-path="url(#p79213f2edb)" style="fill: none; stroke: #b0b0b0; stroke-width: 0.8; stroke-linecap: square"/>
     </g>
     <g id="line2d_15">
      <g>
       <use xlink:href="#m011bd2c96c" x="291.822802" y="165.083515" style="stroke: #000000; stroke-width: 0.8"/>
      </g>
     </g>
     <g id="text_9">
      <!-- $\mathdefault{0}$ -->
      <g transform="translate(287.920808 183.153103) scale(0.16 -0.16)">
       <use xlink:href="#CMR17-30" transform="scale(0.996264)"/>
      </g>
     </g>
    </g>
    <g id="xtick_5">
     <g id="line2d_16">
      <path d="M 382.245748 165.083515 
L 382.245748 26.483515 
" clip-path="url(#p79213f2edb)" style="fill: none; stroke: #b0b0b0; stroke-width: 0.8; stroke-linecap: square"/>
     </g>
     <g id="line2d_17">
      <g>
       <use xlink:href="#m011bd2c96c" x="382.245748" y="165.083515" style="stroke: #000000; stroke-width: 0.8"/>
      </g>
     </g>
     <g id="text_10">
      <!-- $\mathdefault{50}$ -->
      <g transform="translate(374.441761 183.153103) scale(0.16 -0.16)">
       <use xlink:href="#CMR17-35" transform="scale(0.996264)"/>
       <use xlink:href="#CMR17-30" transform="translate(45.690477 0) scale(0.996264)"/>
      </g>
     </g>
    </g>
    <g id="xtick_6">
     <g id="line2d_18">
      <path d="M 472.668694 165.083515 
L 472.668694 26.483515 
" clip-path="url(#p79213f2edb)" style="fill: none; stroke: #b0b0b0; stroke-width: 0.8; stroke-linecap: square"/>
     </g>
     <g id="line2d_19">
      <g>
       <use xlink:href="#m011bd2c96c" x="472.668694" y="165.083515" style="stroke: #000000; stroke-width: 0.8"/>
      </g>
     </g>
     <g id="text_11">
      <!-- $\mathdefault{100}$ -->
      <g transform="translate(460.962713 183.153103) scale(0.16 -0.16)">
       <use xlink:href="#CMR17-31" transform="scale(0.996264)"/>
       <use xlink:href="#CMR17-30" transform="translate(45.690477 0) scale(0.996264)"/>
       <use xlink:href="#CMR17-30" transform="translate(91.380954 0) scale(0.996264)"/>
      </g>
     </g>
    </g>
    <g id="text_12">
     <!-- Réponse impulsionnelle -->
     <g transform="translate(306.469449 201.322168) scale(0.16 -0.16)">
      <defs>
       <path id="CMSS17-52" d="M 2522 2099 
L 2534 2105 
C 3533 2450 3539 3125 3539 3244 
C 3539 3838 2925 4416 2003 4416 
L 570 4416 
L 570 0 
L 1094 0 
L 1094 2041 
L 2035 2041 
L 3168 0 
L 3706 0 
L 2522 2099 
z
M 1094 2432 
L 1094 4057 
L 1933 4057 
C 2746 4057 3034 3607 3034 3244 
C 3034 2907 2778 2432 1933 2432 
L 1094 2432 
z
" transform="scale(0.015625)"/>
       <path id="CMSS17-13" d="M 2502 4416 
L 2016 4416 
L 1222 3321 
L 1613 3321 
L 2502 4416 
z
" transform="scale(0.015625)"/>
       <path id="CMSS17-70" d="M 966 275 
C 1178 70 1466 -64 1773 -64 
C 2368 -64 2880 553 2880 1382 
C 2880 2147 2496 2816 1946 2816 
C 1626 2816 1242 2700 954 2470 
L 954 2764 
L 480 2764 
L 480 -1280 
L 966 -1280 
L 966 275 
z
M 966 2088 
C 1018 2166 1235 2412 1587 2412 
C 2035 2412 2394 1946 2394 1382 
C 2394 741 1958 326 1530 326 
C 1402 326 1267 358 1139 468 
C 966 624 966 721 966 812 
L 966 2088 
z
" transform="scale(0.015625)"/>
       <path id="CMSS17-6e" d="M 2618 1878 
C 2618 2283 2522 2816 1798 2816 
C 1389 2816 1120 2604 941 2386 
L 941 2783 
L 474 2783 
L 474 0 
L 960 0 
L 960 1556 
C 960 1962 1114 2425 1549 2425 
C 2112 2425 2131 2045 2131 1826 
L 2131 0 
L 2618 0 
L 2618 1878 
z
" transform="scale(0.015625)"/>
       <path id="CMSS17-73" d="M 2061 2623 
C 1683 2803 1389 2816 1197 2816 
C 742 2816 198 2655 198 2009 
C 198 1363 902 1222 1094 1183 
C 1389 1126 1715 1062 1715 742 
C 1715 339 1254 339 1171 339 
C 915 339 563 409 243 639 
L 166 211 
C 531 0 883 -64 1178 -64 
C 1965 -64 2163 416 2163 780 
C 2163 1094 1984 1305 1862 1401 
C 1651 1567 1574 1587 1050 1695 
C 960 1708 646 1779 646 2067 
C 646 2431 1050 2431 1139 2431 
C 1555 2431 1811 2303 1984 2207 
L 2061 2623 
z
" transform="scale(0.015625)"/>
       <path id="CMSS17-69" d="M 979 4224 
L 442 4224 
L 442 3686 
L 979 3686 
L 979 4224 
z
M 947 2752 
L 474 2752 
L 474 0 
L 947 0 
L 947 2752 
z
" transform="scale(0.015625)"/>
       <path id="CMSS17-6d" d="M 4288 1878 
C 4288 2309 4179 2816 3462 2816 
C 2982 2816 2694 2515 2566 2328 
C 2451 2668 2182 2816 1798 2816 
C 1363 2816 1088 2566 941 2386 
L 941 2783 
L 474 2783 
L 474 0 
L 960 0 
L 960 1556 
C 960 1936 1101 2425 1555 2425 
C 2138 2425 2138 2013 2138 1826 
L 2138 0 
L 2624 0 
L 2624 1556 
C 2624 1936 2765 2425 3219 2425 
C 3802 2425 3802 2013 3802 1826 
L 3802 0 
L 4288 0 
L 4288 1878 
z
" transform="scale(0.015625)"/>
      </defs>
      <use xlink:href="#CMSS17-52" transform="scale(0.996264)"/>
      <use xlink:href="#CMSS17-13" transform="translate(57.813747 0) scale(0.996264)"/>
      <use xlink:href="#CMSS17-65" transform="translate(60.416155 0) scale(0.996264)"/>
      <use xlink:href="#CMSS17-70" transform="translate(102.054977 0) scale(0.996264)"/>
      <use xlink:href="#CMSS17-6f" transform="translate(152.862359 0) scale(0.996264)"/>
      <use xlink:href="#CMSS17-6e" transform="translate(199.705982 0) scale(0.996264)"/>
      <use xlink:href="#CMSS17-73" transform="translate(247.910925 0) scale(0.996264)"/>
      <use xlink:href="#CMSS17-65" transform="translate(283.824467 0) scale(0.996264)"/>
      <use xlink:href="#CMSS17-69" transform="translate(356.692402 0) scale(0.996264)"/>
      <use xlink:href="#CMSS17-6d" transform="translate(378.873125 0) scale(0.996264)"/>
      <use xlink:href="#CMSS17-70" transform="translate(453.10238 0) scale(0.996264)"/>
      <use xlink:href="#CMSS17-75" transform="translate(501.307323 0) scale(0.996264)"/>
      <use xlink:href="#CMSS17-6c" transform="translate(549.512266 0) scale(0.996264)"/>
      <use xlink:href="#CMSS17-73" transform="translate(571.692989 0) scale(0.996264)"/>
      <use xlink:href="#CMSS17-69" transform="translate(607.606531 0) scale(0.996264)"/>
      <use xlink:href="#CMSS17-6f" transform="translate(629.787254 0) scale(0.996264)"/>
      <use xlink:href="#CMSS17-6e" transform="translate(676.630878 0) scale(0.996264)"/>
      <use xlink:href="#CMSS17-6e" transform="translate(724.835821 0) scale(0.996264)"/>
      <use xlink:href="#CMSS17-65" transform="translate(773.040764 0) scale(0.996264)"/>
      <use xlink:href="#CMSS17-6c" transform="translate(814.679586 0) scale(0.996264)"/>
      <use xlink:href="#CMSS17-6c" transform="translate(836.860309 0) scale(0.996264)"/>
      <use xlink:href="#CMSS17-65" transform="translate(859.041032 0) scale(0.996264)"/>
     </g>
     <!-- caractérisant la suspension -->
     <g transform="translate(294.988508 217.70515) scale(0.16 -0.16)">
      <defs>
       <path id="CMSS17-63" d="M 2464 2540 
C 2464 2585 2170 2713 2093 2739 
C 1882 2816 1613 2816 1542 2816 
C 710 2816 211 2092 211 1363 
C 211 595 768 -64 1517 -64 
C 1946 -64 2253 76 2502 243 
L 2464 665 
C 2189 454 1869 339 1523 339 
C 1024 339 698 774 698 1369 
C 698 1830 909 2412 1549 2412 
C 1901 2412 2099 2342 2394 2143 
L 2464 2540 
z
" transform="scale(0.015625)"/>
      </defs>
      <use xlink:href="#CMSS17-63" transform="scale(0.996264)"/>
      <use xlink:href="#CMSS17-61" transform="translate(41.638822 0) scale(0.996264)"/>
      <use xlink:href="#CMSS17-72" transform="translate(83.958289 0) scale(0.996264)"/>
      <use xlink:href="#CMSS17-61" transform="translate(115.868061 0) scale(0.996264)"/>
      <use xlink:href="#CMSS17-63" transform="translate(160.789982 0) scale(0.996264)"/>
      <use xlink:href="#CMSS17-74" transform="translate(202.428804 0) scale(0.996264)"/>
      <use xlink:href="#CMSS17-13" transform="translate(233.657962 0) scale(0.996264)"/>
      <use xlink:href="#CMSS17-65" transform="translate(236.260371 0) scale(0.996264)"/>
      <use xlink:href="#CMSS17-72" transform="translate(277.899193 0) scale(0.996264)"/>
      <use xlink:href="#CMSS17-69" transform="translate(309.808965 0) scale(0.996264)"/>
      <use xlink:href="#CMSS17-73" transform="translate(331.989688 0) scale(0.996264)"/>
      <use xlink:href="#CMSS17-61" transform="translate(367.90323 0) scale(0.996264)"/>
      <use xlink:href="#CMSS17-6e" transform="translate(412.825151 0) scale(0.996264)"/>
      <use xlink:href="#CMSS17-74" transform="translate(461.030094 0) scale(0.996264)"/>
      <use xlink:href="#CMSS17-6c" transform="translate(526.090773 0) scale(0.996264)"/>
      <use xlink:href="#CMSS17-61" transform="translate(548.271497 0) scale(0.996264)"/>
      <use xlink:href="#CMSS17-73" transform="translate(624.42253 0) scale(0.996264)"/>
      <use xlink:href="#CMSS17-75" transform="translate(660.336072 0) scale(0.996264)"/>
      <use xlink:href="#CMSS17-73" transform="translate(708.541015 0) scale(0.996264)"/>
      <use xlink:href="#CMSS17-70" transform="translate(744.454557 0) scale(0.996264)"/>
      <use xlink:href="#CMSS17-65" transform="translate(795.261939 0) scale(0.996264)"/>
      <use xlink:href="#CMSS17-6e" transform="translate(836.900761 0) scale(0.996264)"/>
      <use xlink:href="#CMSS17-73" transform="translate(885.105704 0) scale(0.996264)"/>
      <use xlink:href="#CMSS17-69" transform="translate(921.019246 0) scale(0.996264)"/>
      <use xlink:href="#CMSS17-6f" transform="translate(943.199969 0) scale(0.996264)"/>
      <use xlink:href="#CMSS17-6e" transform="translate(990.043593 0) scale(0.996264)"/>
     </g>
    </g>
   </g>
   <g id="matplotlib.axis_4">
    <g id="ytick_4">
     <g id="line2d_20">
      <path d="M 282.87093 147.758515 
L 479.812107 147.758515 
" clip-path="url(#p79213f2edb)" style="fill: none; stroke: #b0b0b0; stroke-width: 0.8; stroke-linecap: square"/>
     </g>
     <g id="line2d_21">
      <g>
       <use xlink:href="#m52009e8664" x="282.87093" y="147.758515" style="stroke: #000000; stroke-width: 0.8"/>
      </g>
     </g>
     <g id="text_13">
      <!-- $\mathdefault{−0.5}$ -->
      <g transform="translate(243.529412 153.293309) scale(0.16 -0.16)">
       <use xlink:href="#CMSY10-0" transform="scale(0.996264)"/>
       <use xlink:href="#CMR17-30" transform="translate(77.487468 0) scale(0.996264)"/>
       <use xlink:href="#CMMI12-3a" transform="translate(123.177945 0) scale(0.996264)"/>
       <use xlink:href="#CMR17-35" transform="translate(150.275122 0) scale(0.996264)"/>
      </g>
     </g>
    </g>
    <g id="ytick_5">
     <g id="line2d_22">
      <path d="M 282.87093 104.446015 
L 479.812107 104.446015 
" clip-path="url(#p79213f2edb)" style="fill: none; stroke: #b0b0b0; stroke-width: 0.8; stroke-linecap: square"/>
     </g>
     <g id="line2d_23">
      <g>
       <use xlink:href="#m52009e8664" x="282.87093" y="104.446015" style="stroke: #000000; stroke-width: 0.8"/>
      </g>
     </g>
     <g id="text_14">
      <!-- $\mathdefault{0.0}$ -->
      <g transform="translate(255.927408 109.980809) scale(0.16 -0.16)">
       <use xlink:href="#CMR17-30" transform="scale(0.996264)"/>
       <use xlink:href="#CMMI12-3a" transform="translate(45.690477 0) scale(0.996264)"/>
       <use xlink:href="#CMR17-30" transform="translate(72.787654 0) scale(0.996264)"/>
      </g>
     </g>
    </g>
    <g id="ytick_6">
     <g id="line2d_24">
      <path d="M 282.87093 61.133515 
L 479.812107 61.133515 
" clip-path="url(#p79213f2edb)" style="fill: none; stroke: #b0b0b0; stroke-width: 0.8; stroke-linecap: square"/>
     </g>
     <g id="line2d_25">
      <g>
       <use xlink:href="#m52009e8664" x="282.87093" y="61.133515" style="stroke: #000000; stroke-width: 0.8"/>
      </g>
     </g>
     <g id="text_15">
      <!-- $\mathdefault{0.5}$ -->
      <g transform="translate(255.927408 66.668309) scale(0.16 -0.16)">
       <use xlink:href="#CMR17-30" transform="scale(0.996264)"/>
       <use xlink:href="#CMMI12-3a" transform="translate(45.690477 0) scale(0.996264)"/>
       <use xlink:href="#CMR17-35" transform="translate(72.787654 0) scale(0.996264)"/>
      </g>
     </g>
    </g>
   </g>
   <g id="line2d_26">
    <path d="M 291.822802 104.446015 
L 293.631261 56.494287 
L 295.43972 31.376835 
L 297.248179 35.632053 
L 299.056637 64.393365 
L 300.865096 104.446015 
L 302.673555 139.969529 
L 304.482014 158.576995 
L 306.290473 155.424652 
L 308.098932 134.117748 
L 309.907391 104.446015 
L 311.71585 78.129549 
L 313.524309 64.344799 
L 315.332768 66.680112 
L 317.141227 82.464655 
L 318.949686 104.446015 
L 320.758145 123.941733 
L 322.566603 134.153727 
L 324.375062 132.423684 
L 326.183521 120.730207 
L 327.99198 104.446015 
L 329.800439 90.003232 
L 331.608898 82.438001 
L 333.417357 83.719648 
L 335.225816 92.382389 
L 337.034275 104.446015 
L 338.842734 115.145492 
L 340.651193 120.749953 
L 342.459652 119.800486 
L 344.268111 113.382969 
L 346.076569 104.446015 
L 347.885028 96.519648 
L 349.693487 92.367761 
L 351.501946 93.071144 
L 353.310405 97.825357 
L 355.118864 104.446015 
L 356.927323 110.318012 
L 358.735782 113.393806 
L 360.544241 112.872727 
L 362.3527 109.35072 
L 364.161159 104.446015 
L 365.969618 100.095932 
L 367.778076 97.817329 
L 369.586535 98.203353 
L 371.394994 100.812521 
L 373.203453 104.446015 
L 375.011912 107.668636 
L 376.820371 109.356667 
L 378.62883 109.070693 
L 380.437289 107.137774 
L 382.245748 104.446015 
L 384.054207 102.058639 
L 385.862666 100.808115 
L 387.671125 101.01997 
L 389.479584 102.451911 
L 391.288042 104.446015 
L 393.096501 106.214627 
L 394.90496 107.141038 
L 396.713419 106.984092 
L 398.521878 105.923284 
L 400.330337 104.446015 
L 402.138796 103.135795 
L 403.947255 102.449493 
L 405.755714 102.565761 
L 407.564173 103.351628 
L 409.372632 104.446015 
L 411.181091 105.41665 
L 412.989549 105.925075 
L 414.798008 105.838941 
L 416.606467 105.256757 
L 418.414926 104.446015 
L 420.223385 103.726951 
L 422.031844 103.350301 
L 423.840303 103.41411 
L 425.648762 103.845402 
L 427.457221 104.446015 
L 429.26568 104.978711 
L 431.074139 105.25774 
L 432.882598 105.210469 
L 434.691057 104.89096 
L 436.499515 104.446015 
L 438.307974 104.051384 
L 440.116433 103.844674 
L 441.924892 103.879694 
L 443.733351 104.116392 
L 445.54181 104.446015 
L 447.350269 104.738365 
L 449.158728 104.891499 
L 450.967187 104.865556 
L 452.775646 104.690206 
L 454.584105 104.446015 
L 456.392564 104.229437 
L 458.201023 104.115992 
L 460.009481 104.135211 
L 461.81794 104.265114 
L 463.626399 104.446015 
L 465.434858 104.60646 
L 467.243317 104.690502 
L 469.051776 104.676264 
L 470.860235 104.58003 
" clip-path="url(#p79213f2edb)" style="fill: none; stroke: #1f77b4; stroke-width: 1.5; stroke-linecap: square"/>
   </g>
   <g id="patch_8">
    <path d="M 282.87093 165.083515 
L 282.87093 26.483515 
" style="fill: none; stroke: #000000; stroke-width: 0.8; stroke-linejoin: miter; stroke-linecap: square"/>
   </g>
   <g id="patch_9">
    <path d="M 479.812107 165.083515 
L 479.812107 26.483515 
" style="fill: none; stroke: #000000; stroke-width: 0.8; stroke-linejoin: miter; stroke-linecap: square"/>
   </g>
   <g id="patch_10">
    <path d="M 282.87093 165.083515 
L 479.812107 165.083515 
" style="fill: none; stroke: #000000; stroke-width: 0.8; stroke-linejoin: miter; stroke-linecap: square"/>
   </g>
   <g id="patch_11">
    <path d="M 282.87093 26.483515 
L 479.812107 26.483515 
" style="fill: none; stroke: #000000; stroke-width: 0.8; stroke-linejoin: miter; stroke-linecap: square"/>
   </g>
   <g id="text_16">
    <!-- $h$ -->
    <g transform="translate(375.950678 20.483515) scale(0.192 -0.192)">
     <defs>
      <path id="CMMI12-68" d="M 1798 4255 
C 1805 4281 1818 4319 1818 4351 
C 1818 4416 1754 4416 1741 4416 
C 1734 4416 1421 4390 1389 4383 
C 1280 4377 1184 4364 1069 4358 
C 909 4345 864 4339 864 4223 
C 864 4159 915 4159 1005 4159 
C 1318 4159 1325 4103 1325 4040 
C 1325 4002 1312 3951 1306 3932 
L 378 249 
C 352 153 352 140 352 102 
C 352 -39 461 -64 525 -64 
C 634 -64 717 19 749 89 
L 1037 1245 
C 1069 1385 1107 1519 1139 1660 
C 1210 1928 1210 1934 1331 2119 
C 1453 2305 1741 2687 2234 2687 
C 2490 2687 2579 2496 2579 2241 
C 2579 1883 2330 1187 2189 804 
C 2131 651 2099 568 2099 453 
C 2099 166 2298 -64 2605 -64 
C 3200 -64 3424 874 3424 913 
C 3424 945 3398 970 3360 970 
C 3302 970 3296 951 3264 842 
C 3117 332 2880 64 2624 64 
C 2560 64 2458 70 2458 274 
C 2458 440 2534 645 2560 715 
C 2675 1021 2963 1775 2963 2145 
C 2963 2528 2739 2816 2253 2816 
C 1888 2816 1568 2643 1306 2311 
L 1798 4255 
z
" transform="scale(0.015625)"/>
     </defs>
     <use xlink:href="#CMMI12-68" transform="scale(0.996264)"/>
    </g>
   </g>
  </g>
  <g id="axes_3">
   <g id="patch_12">
    <path d="M 519.200342 165.083515 
L 716.141518 165.083515 
L 716.141518 26.483515 
L 519.200342 26.483515 
z
" style="fill: #ffffff"/>
   </g>
   <g id="matplotlib.axis_5">
    <g id="xtick_7">
     <g id="line2d_27">
      <path d="M 528.152214 165.083515 
L 528.152214 26.483515 
" clip-path="url(#p39548e2f63)" style="fill: none; stroke: #b0b0b0; stroke-width: 0.8; stroke-linecap: square"/>
     </g>
     <g id="line2d_28">
      <g>
       <use xlink:href="#m011bd2c96c" x="528.152214" y="165.083515" style="stroke: #000000; stroke-width: 0.8"/>
      </g>
     </g>
     <g id="text_17">
      <!-- $\mathdefault{0}$ -->
      <g transform="translate(524.25022 183.153103) scale(0.16 -0.16)">
       <use xlink:href="#CMR17-30" transform="scale(0.996264)"/>
      </g>
     </g>
    </g>
    <g id="xtick_8">
     <g id="line2d_29">
      <path d="M 618.57516 165.083515 
L 618.57516 26.483515 
" clip-path="url(#p39548e2f63)" style="fill: none; stroke: #b0b0b0; stroke-width: 0.8; stroke-linecap: square"/>
     </g>
     <g id="line2d_30">
      <g>
       <use xlink:href="#m011bd2c96c" x="618.57516" y="165.083515" style="stroke: #000000; stroke-width: 0.8"/>
      </g>
     </g>
     <g id="text_18">
      <!-- $\mathdefault{50}$ -->
      <g transform="translate(610.771173 183.153103) scale(0.16 -0.16)">
       <use xlink:href="#CMR17-35" transform="scale(0.996264)"/>
       <use xlink:href="#CMR17-30" transform="translate(45.690477 0) scale(0.996264)"/>
      </g>
     </g>
    </g>
    <g id="xtick_9">
     <g id="line2d_31">
      <path d="M 708.998106 165.083515 
L 708.998106 26.483515 
" clip-path="url(#p39548e2f63)" style="fill: none; stroke: #b0b0b0; stroke-width: 0.8; stroke-linecap: square"/>
     </g>
     <g id="line2d_32">
      <g>
       <use xlink:href="#m011bd2c96c" x="708.998106" y="165.083515" style="stroke: #000000; stroke-width: 0.8"/>
      </g>
     </g>
     <g id="text_19">
      <!-- $\mathdefault{100}$ -->
      <g transform="translate(697.292125 183.153103) scale(0.16 -0.16)">
       <use xlink:href="#CMR17-31" transform="scale(0.996264)"/>
       <use xlink:href="#CMR17-30" transform="translate(45.690477 0) scale(0.996264)"/>
       <use xlink:href="#CMR17-30" transform="translate(91.380954 0) scale(0.996264)"/>
      </g>
     </g>
    </g>
    <g id="text_20">
     <!-- Hauteur de caisse -->
     <g transform="translate(560.353157 201.322168) scale(0.16 -0.16)">
      <defs>
       <path id="CMSS17-48" d="M 3674 4416 
L 3136 4416 
L 3136 2496 
L 1101 2496 
L 1101 4416 
L 563 4416 
L 563 0 
L 1101 0 
L 1101 2105 
L 3136 2105 
L 3136 0 
L 3674 0 
L 3674 4416 
z
" transform="scale(0.015625)"/>
      </defs>
      <use xlink:href="#CMSS17-48" transform="scale(0.996264)"/>
      <use xlink:href="#CMSS17-61" transform="translate(66.061519 0) scale(0.996264)"/>
      <use xlink:href="#CMSS17-75" transform="translate(110.98344 0) scale(0.996264)"/>
      <use xlink:href="#CMSS17-74" transform="translate(159.188383 0) scale(0.996264)"/>
      <use xlink:href="#CMSS17-65" transform="translate(193.01995 0) scale(0.996264)"/>
      <use xlink:href="#CMSS17-75" transform="translate(234.658772 0) scale(0.996264)"/>
      <use xlink:href="#CMSS17-72" transform="translate(282.863715 0) scale(0.996264)"/>
      <use xlink:href="#CMSS17-64" transform="translate(346.0026 0) scale(0.996264)"/>
      <use xlink:href="#CMSS17-65" transform="translate(394.207543 0) scale(0.996264)"/>
      <use xlink:href="#CMSS17-63" transform="translate(467.075478 0) scale(0.996264)"/>
      <use xlink:href="#CMSS17-61" transform="translate(508.7143 0) scale(0.996264)"/>
      <use xlink:href="#CMSS17-69" transform="translate(553.636221 0) scale(0.996264)"/>
      <use xlink:href="#CMSS17-73" transform="translate(575.816944 0) scale(0.996264)"/>
      <use xlink:href="#CMSS17-73" transform="translate(611.730486 0) scale(0.996264)"/>
      <use xlink:href="#CMSS17-65" transform="translate(647.644028 0) scale(0.996264)"/>
     </g>
    </g>
   </g>
   <g id="matplotlib.axis_6">
    <g id="ytick_7">
     <g id="line2d_33">
      <path d="M 519.200342 147.758515 
L 716.141518 147.758515 
" clip-path="url(#p39548e2f63)" style="fill: none; stroke: #b0b0b0; stroke-width: 0.8; stroke-linecap: square"/>
     </g>
     <g id="line2d_34">
      <g>
       <use xlink:href="#m52009e8664" x="519.200342" y="147.758515" style="stroke: #000000; stroke-width: 0.8"/>
      </g>
     </g>
     <g id="text_21">
      <!-- $\mathdefault{−0.5}$ -->
      <g transform="translate(479.858824 153.293309) scale(0.16 -0.16)">
       <use xlink:href="#CMSY10-0" transform="scale(0.996264)"/>
       <use xlink:href="#CMR17-30" transform="translate(77.487468 0) scale(0.996264)"/>
       <use xlink:href="#CMMI12-3a" transform="translate(123.177945 0) scale(0.996264)"/>
       <use xlink:href="#CMR17-35" transform="translate(150.275122 0) scale(0.996264)"/>
      </g>
     </g>
    </g>
    <g id="ytick_8">
     <g id="line2d_35">
      <path d="M 519.200342 104.446015 
L 716.141518 104.446015 
" clip-path="url(#p39548e2f63)" style="fill: none; stroke: #b0b0b0; stroke-width: 0.8; stroke-linecap: square"/>
     </g>
     <g id="line2d_36">
      <g>
       <use xlink:href="#m52009e8664" x="519.200342" y="104.446015" style="stroke: #000000; stroke-width: 0.8"/>
      </g>
     </g>
     <g id="text_22">
      <!-- $\mathdefault{0.0}$ -->
      <g transform="translate(492.25682 109.980809) scale(0.16 -0.16)">
       <use xlink:href="#CMR17-30" transform="scale(0.996264)"/>
       <use xlink:href="#CMMI12-3a" transform="translate(45.690477 0) scale(0.996264)"/>
       <use xlink:href="#CMR17-30" transform="translate(72.787654 0) scale(0.996264)"/>
      </g>
     </g>
    </g>
    <g id="ytick_9">
     <g id="line2d_37">
      <path d="M 519.200342 61.133515 
L 716.141518 61.133515 
" clip-path="url(#p39548e2f63)" style="fill: none; stroke: #b0b0b0; stroke-width: 0.8; stroke-linecap: square"/>
     </g>
     <g id="line2d_38">
      <g>
       <use xlink:href="#m52009e8664" x="519.200342" y="61.133515" style="stroke: #000000; stroke-width: 0.8"/>
      </g>
     </g>
     <g id="text_23">
      <!-- $\mathdefault{0.5}$ -->
      <g transform="translate(492.25682 66.668309) scale(0.16 -0.16)">
       <use xlink:href="#CMR17-30" transform="scale(0.996264)"/>
       <use xlink:href="#CMMI12-3a" transform="translate(45.690477 0) scale(0.996264)"/>
       <use xlink:href="#CMR17-35" transform="translate(72.787654 0) scale(0.996264)"/>
      </g>
     </g>
    </g>
   </g>
   <g id="line2d_39">
    <path d="M 528.152214 104.446015 
L 529.960672 104.446015 
L 531.769131 104.446015 
L 533.57759 104.446015 
L 535.386049 104.446012 
L 537.194508 104.445997 
L 539.002967 104.445929 
L 540.811426 104.445633 
L 542.619885 104.444484 
L 544.428344 104.440441 
L 546.236803 104.427573 
L 548.045262 104.390547 
L 549.853721 104.294305 
L 551.66218 104.068573 
L 553.470638 103.591628 
L 555.279097 102.686219 
L 557.087556 101.148358 
L 558.896015 98.827211 
L 560.704474 95.751265 
L 562.512933 92.25437 
L 564.321392 89.018543 
L 566.129851 86.955371 
L 567.93831 86.915279 
L 569.746769 89.319411 
L 571.555228 93.886821 
L 573.363687 99.617324 
L 575.172146 105.079347 
L 576.980604 108.901119 
L 578.789063 110.259226 
L 580.597522 109.157442 
L 582.405981 106.385922 
L 584.21444 103.191088 
L 586.022899 100.801899 
L 587.831358 100.002524 
L 589.639817 100.905997 
L 591.448276 102.992415 
L 593.256735 105.370412 
L 595.065194 107.142768 
L 596.873653 107.731374 
L 598.682111 107.046143 
L 600.49057 105.44903 
L 602.299029 103.539072 
L 604.107488 101.840241 
L 605.915947 100.497857 
L 607.724406 99.085728 
L 609.532865 96.609127 
L 611.341324 91.762898 
L 613.149783 83.451649 
L 614.958242 71.473419 
L 616.766701 57.118652 
L 618.57516 43.327078 
L 620.383619 34.107464 
L 622.192077 33.226033 
L 624.000536 42.601383 
L 625.808995 61.143039 
L 627.617454 84.693464 
L 629.425913 107.257873 
L 631.234372 123.079139 
L 633.042831 128.690235 
L 634.85129 124.081582 
L 636.659749 112.529963 
L 638.468208 99.219967 
L 640.276667 89.267483 
L 642.085126 85.93763 
L 643.893584 89.700855 
L 645.702043 98.391638 
L 647.510502 108.297847 
L 649.318961 115.685162 
L 651.12742 118.156027 
L 652.935879 115.369197 
L 654.744338 108.931146 
L 656.552797 101.592496 
L 658.361256 96.119848 
L 660.169715 94.289388 
L 661.978174 96.353923 
L 663.786633 101.123348 
L 665.595092 106.559954 
L 667.40355 110.614191 
L 669.212009 111.970229 
L 671.020468 110.440784 
L 672.828927 106.907507 
L 674.637386 102.879971 
L 676.445845 99.876518 
L 678.254304 98.87194 
L 680.062763 100.004981 
L 681.871222 102.622497 
L 683.679681 105.606169 
L 685.48814 107.831182 
L 687.296599 108.575391 
L 689.105058 107.736014 
L 690.913516 105.796911 
L 692.721975 103.586552 
L 694.530434 101.938222 
L 696.338893 101.386898 
L 698.147352 102.008724 
L 699.955811 103.445247 
L 701.76427 105.082721 
L 703.572729 106.303834 
L 705.381188 106.712265 
L 707.189647 106.251605 
" clip-path="url(#p39548e2f63)" style="fill: none; stroke: #1f77b4; stroke-width: 1.5; stroke-linecap: square"/>
   </g>
   <g id="patch_13">
    <path d="M 519.200342 165.083515 
L 519.200342 26.483515 
" style="fill: none; stroke: #000000; stroke-width: 0.8; stroke-linejoin: miter; stroke-linecap: square"/>
   </g>
   <g id="patch_14">
    <path d="M 716.141518 165.083515 
L 716.141518 26.483515 
" style="fill: none; stroke: #000000; stroke-width: 0.8; stroke-linejoin: miter; stroke-linecap: square"/>
   </g>
   <g id="patch_15">
    <path d="M 519.200342 165.083515 
L 716.141518 165.083515 
" style="fill: none; stroke: #000000; stroke-width: 0.8; stroke-linejoin: miter; stroke-linecap: square"/>
   </g>
   <g id="patch_16">
    <path d="M 519.200342 26.483515 
L 716.141518 26.483515 
" style="fill: none; stroke: #000000; stroke-width: 0.8; stroke-linejoin: miter; stroke-linecap: square"/>
   </g>
   <g id="text_24">
    <!-- $y$ -->
    <g transform="translate(613.104771 20.483515) scale(0.192 -0.192)">
     <defs>
      <path id="CMMI12-79" d="M 1683 -673 
C 1510 -921 1261 -1152 947 -1152 
C 870 -1152 563 -1139 467 -826 
C 486 -833 518 -833 531 -833 
C 723 -833 851 -666 851 -519 
C 851 -372 730 -320 634 -320 
C 531 -320 307 -397 307 -711 
C 307 -1050 582 -1280 947 -1280 
C 1587 -1280 2234 -673 2413 -7 
L 3040 2483 
C 3046 2515 3059 2553 3059 2591 
C 3059 2687 2982 2752 2886 2752 
C 2829 2752 2694 2726 2643 2534 
L 2170 657 
C 2138 542 2138 530 2086 459 
C 1958 281 1747 64 1440 64 
C 1082 64 1050 415 1050 587 
C 1050 951 1222 1443 1395 1902 
C 1466 2087 1504 2177 1504 2305 
C 1504 2573 1312 2816 998 2816 
C 410 2816 173 1890 173 1838 
C 173 1813 198 1781 243 1781 
C 301 1781 307 1807 333 1896 
C 486 2432 730 2687 979 2687 
C 1037 2687 1146 2687 1146 2477 
C 1146 2311 1075 2126 979 1883 
C 666 1047 666 836 666 683 
C 666 76 1101 -64 1421 -64 
C 1606 -64 1837 -7 2061 230 
L 2067 223 
C 1971 -141 1907 -359 1683 -673 
z
" transform="scale(0.015625)"/>
     </defs>
     <use xlink:href="#CMMI12-79" transform="scale(0.996264)"/>
    </g>
   </g>
  </g>
 </g>
 <defs>
  <clipPath id="p4110c90057">
   <rect x="46.541518" y="26.483515" width="196.941176" height="138.6"/>
  </clipPath>
  <clipPath id="p79213f2edb">
   <rect x="282.87093" y="26.483515" width="196.941176" height="138.6"/>
  </clipPath>
  <clipPath id="p39548e2f63">
   <rect x="519.200342" y="26.483515" width="196.941176" height="138.6"/>
  </clipPath>
 </defs>
</svg>
