<?xml version="1.0" encoding="utf-8" standalone="no"?>
<!DOCTYPE svg PUBLIC "-//W3C//DTD SVG 1.1//EN"
  "http://www.w3.org/Graphics/SVG/1.1/DTD/svg11.dtd">
<svg xmlns:xlink="http://www.w3.org/1999/xlink" width="711.201983pt" height="479.089064pt" viewBox="0 0 711.201983 479.089064" xmlns="http://www.w3.org/2000/svg" version="1.1">
 <metadata>
  <rdf:RDF xmlns:dc="http://purl.org/dc/elements/1.1/" xmlns:cc="http://creativecommons.org/ns#" xmlns:rdf="http://www.w3.org/1999/02/22-rdf-syntax-ns#">
   <cc:Work>
    <dc:type rdf:resource="http://purl.org/dc/dcmitype/StillImage"/>
    <dc:date>2026-01-09T11:56:14.546618</dc:date>
    <dc:format>image/svg+xml</dc:format>
    <dc:creator>
     <cc:Agent>
      <dc:title>Matplotlib v3.10.6, https://matplotlib.org/</dc:title>
     </cc:Agent>
    </dc:creator>
   </cc:Work>
  </rdf:RDF>
 </metadata>
 <defs>
  <style type="text/css">*{stroke-linejoin: round; stroke-linecap: butt}</style>
 </defs>
 <g id="figure_1">
  <g id="patch_1">
   <path d="M 0 479.089064 
L 711.201983 479.089064 
L 711.201983 0 
L 0 0 
z
" style="fill: #ffffff"/>
  </g>
  <g id="axes_1">
   <g id="patch_2">
    <path d="M 34.401983 103.617391 
L 237.311074 103.617391 
L 237.311074 7.2 
L 34.401983 7.2 
z
" style="fill: #ffffff"/>
   </g>
   <g id="matplotlib.axis_1">
    <g id="xtick_1">
     <g id="line2d_1">
      <path d="M 43.625124 103.617391 
L 43.625124 7.2 
" clip-path="url(#p2a10ef26bc)" style="fill: none; stroke: #b0b0b0; stroke-width: 0.8; stroke-linecap: square"/>
     </g>
     <g id="line2d_2">
      <defs>
       <path id="m807cf02230" d="M 0 0 
L 0 3.5 
" style="stroke: #000000; stroke-width: 0.8"/>
      </defs>
      <g>
       <use xlink:href="#m807cf02230" x="43.625124" y="103.617391" style="stroke: #000000; stroke-width: 0.8"/>
      </g>
     </g>
     <g id="text_1">
      <!-- $\mathdefault{0}$ -->
      <g transform="translate(39.72313 121.68698) scale(0.16 -0.16)">
       <defs>
        <path id="CMR17-30" d="M 2688 2038 
C 2688 2430 2682 3099 2413 3613 
C 2176 4063 1798 4224 1466 4224 
C 1158 4224 768 4082 525 3620 
C 269 3137 243 2539 243 2038 
C 243 1671 250 1112 448 623 
C 723 -39 1216 -128 1466 -128 
C 1760 -128 2208 -7 2470 604 
C 2662 1048 2688 1568 2688 2038 
z
M 1466 -26 
C 1056 -26 813 328 723 816 
C 653 1196 653 1749 653 2109 
C 653 2604 653 3015 736 3407 
C 858 3954 1216 4121 1466 4121 
C 1728 4121 2067 3947 2189 3420 
C 2272 3054 2278 2623 2278 2109 
C 2278 1691 2278 1176 2202 797 
C 2067 96 1690 -26 1466 -26 
z
" transform="scale(0.015625)"/>
       </defs>
       <use xlink:href="#CMR17-30" transform="scale(0.996264)"/>
      </g>
     </g>
    </g>
    <g id="xtick_2">
     <g id="line2d_3">
      <path d="M 105.318371 103.617391 
L 105.318371 7.2 
" clip-path="url(#p2a10ef26bc)" style="fill: none; stroke: #b0b0b0; stroke-width: 0.8; stroke-linecap: square"/>
     </g>
     <g id="line2d_4">
      <g>
       <use xlink:href="#m807cf02230" x="105.318371" y="103.617391" style="stroke: #000000; stroke-width: 0.8"/>
      </g>
     </g>
     <g id="text_2">
      <!-- $\mathdefault{2}$ -->
      <g transform="translate(101.416378 121.68698) scale(0.16 -0.16)">
       <defs>
        <path id="CMR17-32" d="M 2669 990 
L 2554 990 
C 2490 537 2438 460 2413 422 
C 2381 371 1920 371 1830 371 
L 602 371 
C 832 620 1280 1073 1824 1596 
C 2214 1966 2669 2400 2669 3033 
C 2669 3788 2067 4224 1395 4224 
C 691 4224 262 3603 262 3027 
C 262 2777 448 2745 525 2745 
C 589 2745 781 2783 781 3007 
C 781 3206 614 3264 525 3264 
C 486 3264 448 3257 422 3244 
C 544 3788 915 4057 1306 4057 
C 1862 4057 2227 3616 2227 3033 
C 2227 2477 1901 1998 1536 1583 
L 262 147 
L 262 0 
L 2515 0 
L 2669 990 
z
" transform="scale(0.015625)"/>
       </defs>
       <use xlink:href="#CMR17-32" transform="scale(0.996264)"/>
      </g>
     </g>
    </g>
    <g id="xtick_3">
     <g id="line2d_5">
      <path d="M 167.011618 103.617391 
L 167.011618 7.2 
" clip-path="url(#p2a10ef26bc)" style="fill: none; stroke: #b0b0b0; stroke-width: 0.8; stroke-linecap: square"/>
     </g>
     <g id="line2d_6">
      <g>
       <use xlink:href="#m807cf02230" x="167.011618" y="103.617391" style="stroke: #000000; stroke-width: 0.8"/>
      </g>
     </g>
     <g id="text_3">
      <!-- $\mathdefault{4}$ -->
      <g transform="translate(163.109625 121.68698) scale(0.16 -0.16)">
       <defs>
        <path id="CMR17-34" d="M 2150 4147 
C 2150 4281 2144 4288 2029 4288 
L 128 1254 
L 128 1088 
L 1779 1088 
L 1779 460 
C 1779 230 1766 166 1318 166 
L 1197 166 
L 1197 0 
C 1402 12 1747 12 1965 12 
C 2182 12 2528 12 2733 0 
L 2733 166 
L 2611 166 
C 2163 166 2150 230 2150 460 
L 2150 1088 
L 2803 1088 
L 2803 1254 
L 2150 1254 
L 2150 4147 
z
M 1798 3723 
L 1798 1254 
L 256 1254 
L 1798 3723 
z
" transform="scale(0.015625)"/>
       </defs>
       <use xlink:href="#CMR17-34" transform="scale(0.996264)"/>
      </g>
     </g>
    </g>
    <g id="xtick_4">
     <g id="line2d_7">
      <path d="M 228.704866 103.617391 
L 228.704866 7.2 
" clip-path="url(#p2a10ef26bc)" style="fill: none; stroke: #b0b0b0; stroke-width: 0.8; stroke-linecap: square"/>
     </g>
     <g id="line2d_8">
      <g>
       <use xlink:href="#m807cf02230" x="228.704866" y="103.617391" style="stroke: #000000; stroke-width: 0.8"/>
      </g>
     </g>
     <g id="text_4">
      <!-- $\mathdefault{6}$ -->
      <g transform="translate(224.802872 121.68698) scale(0.16 -0.16)">
       <defs>
        <path id="CMR17-36" d="M 678 2198 
C 678 3712 1395 4076 1811 4076 
C 1946 4076 2272 4049 2400 3782 
C 2298 3782 2106 3782 2106 3558 
C 2106 3385 2246 3328 2336 3328 
C 2394 3328 2566 3353 2566 3571 
C 2566 3987 2246 4224 1805 4224 
C 1043 4224 243 3411 243 2011 
C 243 257 966 -128 1478 -128 
C 2099 -128 2688 431 2688 1295 
C 2688 2101 2170 2688 1517 2688 
C 1126 2688 838 2430 678 1979 
L 678 2198 
z
M 1478 25 
C 691 25 691 1212 691 1450 
C 691 1914 909 2585 1504 2585 
C 1613 2585 1926 2585 2138 2140 
C 2253 1889 2253 1624 2253 1302 
C 2253 954 2253 696 2118 438 
C 1978 173 1773 25 1478 25 
z
" transform="scale(0.015625)"/>
       </defs>
       <use xlink:href="#CMR17-36" transform="scale(0.996264)"/>
      </g>
     </g>
    </g>
   </g>
   <g id="matplotlib.axis_2">
    <g id="ytick_1">
     <g id="line2d_9">
      <path d="M 34.401983 93.975652 
L 237.311074 93.975652 
" clip-path="url(#p2a10ef26bc)" style="fill: none; stroke: #b0b0b0; stroke-width: 0.8; stroke-linecap: square"/>
     </g>
     <g id="line2d_10">
      <defs>
       <path id="mfdf7d22760" d="M 0 0 
L -3.5 0 
" style="stroke: #000000; stroke-width: 0.8"/>
      </defs>
      <g>
       <use xlink:href="#mfdf7d22760" x="34.401983" y="93.975652" style="stroke: #000000; stroke-width: 0.8"/>
      </g>
     </g>
     <g id="text_5">
      <!-- $\mathdefault{−2}$ -->
      <g transform="translate(7.2 99.510446) scale(0.16 -0.16)">
       <defs>
        <path id="CMSY10-0" d="M 4218 1472 
C 4326 1472 4442 1472 4442 1600 
C 4442 1728 4326 1728 4218 1728 
L 755 1728 
C 646 1728 531 1728 531 1600 
C 531 1472 646 1472 755 1472 
L 4218 1472 
z
" transform="scale(0.015625)"/>
       </defs>
       <use xlink:href="#CMSY10-0" transform="scale(0.996264)"/>
       <use xlink:href="#CMR17-32" transform="translate(77.487468 0) scale(0.996264)"/>
      </g>
     </g>
    </g>
    <g id="ytick_2">
     <g id="line2d_11">
      <path d="M 34.401983 55.408696 
L 237.311074 55.408696 
" clip-path="url(#p2a10ef26bc)" style="fill: none; stroke: #b0b0b0; stroke-width: 0.8; stroke-linecap: square"/>
     </g>
     <g id="line2d_12">
      <g>
       <use xlink:href="#mfdf7d22760" x="34.401983" y="55.408696" style="stroke: #000000; stroke-width: 0.8"/>
      </g>
     </g>
     <g id="text_6">
      <!-- $\mathdefault{0}$ -->
      <g transform="translate(19.597996 60.94349) scale(0.16 -0.16)">
       <use xlink:href="#CMR17-30" transform="scale(0.996264)"/>
      </g>
     </g>
    </g>
    <g id="ytick_3">
     <g id="line2d_13">
      <path d="M 34.401983 16.841739 
L 237.311074 16.841739 
" clip-path="url(#p2a10ef26bc)" style="fill: none; stroke: #b0b0b0; stroke-width: 0.8; stroke-linecap: square"/>
     </g>
     <g id="line2d_14">
      <g>
       <use xlink:href="#mfdf7d22760" x="34.401983" y="16.841739" style="stroke: #000000; stroke-width: 0.8"/>
      </g>
     </g>
     <g id="text_7">
      <!-- $\mathdefault{2}$ -->
      <g transform="translate(19.597996 22.376533) scale(0.16 -0.16)">
       <use xlink:href="#CMR17-32" transform="scale(0.996264)"/>
      </g>
     </g>
    </g>
   </g>
   <g id="line2d_15">
    <path d="M 43.625124 49.849456 
L 44.242056 15.034435 
L 44.858988 13.669282 
L 45.475921 59.234062 
L 46.092853 76.200268 
L 46.709786 32.102808 
L 47.326718 29.346552 
L 47.943651 63.127912 
L 48.560583 14.718078 
L 49.177516 71.242346 
L 49.794448 23.450497 
L 50.411381 6.440431 
L 51.028313 41.115517 
L 51.645246 60.458158 
L 52.262178 10.708234 
L 52.824813 -1 
M 52.889994 -1 
L 53.496043 61.917007 
L 54.729908 17.021324 
L 55.346841 38.239347 
L 55.963773 32.706896 
L 56.580706 48.549066 
L 57.197638 29.852993 
L 57.81457 19.529904 
L 58.431503 43.618021 
L 59.048435 39.535689 
L 59.665368 51.623013 
L 60.2823 41.961639 
L 60.899233 29.431091 
L 61.516165 58.567874 
L 62.133098 54.872134 
L 62.75003 38.581506 
L 63.366963 43.978708 
L 63.983895 61.72339 
L 64.600828 69.423145 
L 65.21776 54.221702 
L 65.834693 36.17802 
L 66.451625 35.418852 
L 67.68549 54.420606 
L 68.302423 55.124022 
L 68.919355 87.226061 
L 69.536287 39.147462 
L 70.15322 66.388017 
L 70.770152 58.955083 
L 71.387085 68.87374 
L 72.004017 71.734036 
L 72.62095 66.943153 
L 73.237882 85.870141 
L 73.854815 72.723555 
L 74.471747 78.99054 
L 75.08868 77.402201 
L 75.705612 94.512097 
L 76.322545 91.77451 
L 76.939477 90.301396 
L 77.55641 81.318839 
L 78.173342 81.241763 
L 78.790275 71.420492 
L 79.407207 85.122196 
L 80.02414 43.746416 
L 80.641072 77.022401 
L 81.258004 74.067418 
L 81.874937 72.641674 
L 82.491869 69.148863 
L 83.108802 88.082383 
L 83.725734 75.064646 
L 84.342667 115.139141 
L 84.959599 61.733967 
L 85.576532 70.280657 
L 86.193464 60.030278 
L 86.810397 105.96 
L 87.427329 55.291702 
L 88.044262 71.123775 
L 88.661194 80.683716 
L 89.278127 26.232049 
L 89.895059 83.816256 
L 90.511992 44.088789 
L 91.745857 88.403941 
L 92.362789 74.961196 
L 92.979722 36.730893 
L 93.596654 66.37222 
L 94.213586 88.818925 
L 94.830519 42.883689 
L 95.447451 76.270856 
L 96.064384 78.070578 
L 96.681316 47.298368 
L 97.298249 71.135294 
L 97.915181 26.185278 
L 98.532114 29.09007 
L 99.149046 104.296945 
L 99.765979 75.901555 
L 100.382911 103.626274 
L 100.999844 43.858113 
L 101.616776 23.574612 
L 102.233709 43.384682 
L 102.850641 43.740313 
L 103.467574 25.945364 
L 104.084506 49.209581 
L 104.701439 55.175855 
L 105.318371 74.224609 
L 105.935303 17.39848 
L 106.552236 56.331775 
L 107.169168 36.188419 
L 107.786101 26.342351 
L 108.403033 27.477809 
L 109.019966 47.79294 
L 109.560326 -1 
M 109.684728 -1 
L 110.253831 81.268445 
L 110.870763 33.153785 
L 111.487696 30.813689 
L 112.104628 54.502617 
L 112.721561 17.831346 
L 113.338493 36.482262 
L 113.955426 19.927362 
L 114.572358 20.000808 
L 115.189291 25.011572 
L 115.806223 50.732185 
L 116.423156 65.803178 
L 117.040088 23.015872 
L 117.65702 23.588327 
L 118.239349 -1 
M 118.292428 -1 
L 118.890885 46.328166 
L 119.507818 39.408481 
L 120.12475 39.84346 
L 120.741683 42.945118 
L 121.358615 16.661734 
L 121.975548 55.087261 
L 122.59248 24.441261 
L 123.209413 41.183763 
L 123.826345 27.786434 
L 124.443278 19.087105 
L 125.06021 88.647169 
L 125.677143 56.48883 
L 126.294075 72.252467 
L 126.911008 43.16434 
L 127.52794 86.128657 
L 128.144873 77.596158 
L 128.761805 29.115842 
L 129.99567 77.945169 
L 130.612602 35.466699 
L 131.229535 55.224973 
L 131.846467 56.761206 
L 132.4634 68.540665 
L 133.080332 64.175334 
L 133.697265 73.794952 
L 134.314197 67.04018 
L 134.93113 50.945467 
L 135.548062 83.045083 
L 136.164995 43.901832 
L 136.781927 84.854568 
L 138.015792 66.002184 
L 138.632725 59.879219 
L 139.249657 50.604032 
L 139.86659 66.977567 
L 140.483522 76.267041 
L 141.100455 103.552002 
L 141.717387 98.356878 
L 142.334319 40.872632 
L 142.951252 99.501419 
L 143.568184 69.418299 
L 144.185117 56.797446 
L 144.802049 83.884966 
L 145.418982 69.493942 
L 146.035914 108.475461 
L 146.652847 59.298989 
L 147.269779 82.053857 
L 147.886712 89.836163 
L 148.503644 41.45751 
L 149.120577 68.953289 
L 149.737509 70.156255 
L 150.354442 80.535375 
L 150.971374 57.19278 
L 151.588307 103.713458 
L 152.205239 68.996956 
L 152.822172 84.509791 
L 153.439104 67.053832 
L 154.056036 80.779771 
L 154.672969 71.126498 
L 155.289901 82.631169 
L 155.906834 48.033848 
L 156.523766 46.337738 
L 157.140699 58.847007 
L 157.757631 48.831566 
L 158.374564 83.727191 
L 159.608429 51.654135 
L 160.225361 15.920641 
L 160.842294 70.944897 
L 161.459226 51.891878 
L 162.076159 44.597614 
L 162.693091 55.95958 
L 163.310024 50.044191 
L 163.926956 30.049705 
L 164.543889 65.839515 
L 165.160821 53.646437 
L 165.777754 26.072638 
L 166.394686 6.766336 
L 167.011618 49.429557 
L 167.628551 43.291309 
L 168.245483 50.484266 
L 168.862416 79.725661 
L 169.479348 27.745399 
L 170.096281 35.784042 
L 170.713213 18.767192 
L 171.947078 48.42247 
L 172.564011 83.797218 
L 173.180943 16.461676 
L 173.797876 67.73838 
L 174.414808 59.354371 
L 175.031741 30.242679 
L 175.648673 7.102159 
L 176.265606 22.810896 
L 176.882538 56.287607 
L 177.499471 23.3474 
L 178.116403 35.225986 
L 178.733335 40.557859 
L 179.350268 51.368064 
L 179.9672 42.439517 
L 180.584133 8.000931 
L 181.201065 13.756645 
L 182.43493 83.767933 
L 183.051863 28.22995 
L 183.668795 27.987141 
L 184.285728 50.105382 
L 184.90266 82.584655 
L 186.753458 67.78343 
L 187.37039 34.845022 
L 187.987323 39.495293 
L 188.604255 60.647439 
L 189.221188 48.335343 
L 189.83812 58.862828 
L 190.455053 56.627371 
L 191.071985 64.961792 
L 191.688917 67.378043 
L 192.30585 53.0048 
L 192.922782 65.494016 
L 193.539715 58.732033 
L 194.156647 95.91485 
L 194.77358 76.383555 
L 195.390512 69.081042 
L 196.007445 86.648997 
L 196.624377 43.570437 
L 197.24131 60.464434 
L 197.858242 81.795706 
L 198.475175 127.248391 
L 199.092107 71.678562 
L 199.70904 81.696053 
L 200.325972 71.805197 
L 200.942905 47.597481 
L 201.559837 75.582451 
L 202.17677 83.519825 
L 202.793702 53.395375 
L 203.410634 70.872225 
L 204.027567 49.041141 
L 204.644499 87.20209 
L 205.261432 53.894749 
L 205.878364 82.448339 
L 206.495297 67.93232 
L 207.112229 46.66821 
L 207.729162 86.46302 
L 208.346094 67.852837 
L 208.963027 99.856066 
L 209.579959 36.083211 
L 210.196892 61.775655 
L 210.813824 99.90102 
L 211.430757 116.130797 
L 212.047689 98.067046 
L 212.664622 85.117552 
L 213.281554 59.910056 
L 213.898487 74.727241 
L 214.515419 35.358017 
L 215.132351 44.350522 
L 215.749284 73.05935 
L 216.366216 43.399426 
L 216.983149 29.806021 
L 217.600081 48.185864 
L 218.217014 48.185353 
L 218.833946 68.306687 
L 219.450879 66.30493 
L 220.067811 46.311688 
L 220.684744 53.344022 
L 221.301676 57.866961 
L 221.918609 58.42065 
L 222.535541 57.278169 
L 223.152474 39.751809 
L 223.769406 43.768839 
L 224.386339 81.577401 
L 225.003271 30.542989 
L 225.620204 29.430847 
L 226.237136 7.996831 
L 226.854069 77.056805 
L 227.471001 19.570273 
L 228.087933 41.336924 
L 228.087933 41.336924 
" clip-path="url(#p2a10ef26bc)" style="fill: none; stroke: #1f77b4; stroke-width: 1.5; stroke-linecap: square"/>
   </g>
   <g id="patch_3">
    <path d="M 34.401983 103.617391 
L 34.401983 7.2 
" style="fill: none; stroke: #000000; stroke-width: 0.8; stroke-linejoin: miter; stroke-linecap: square"/>
   </g>
   <g id="patch_4">
    <path d="M 237.311074 103.617391 
L 237.311074 7.2 
" style="fill: none; stroke: #000000; stroke-width: 0.8; stroke-linejoin: miter; stroke-linecap: square"/>
   </g>
   <g id="patch_5">
    <path d="M 34.401983 103.617391 
L 237.311074 103.617391 
" style="fill: none; stroke: #000000; stroke-width: 0.8; stroke-linejoin: miter; stroke-linecap: square"/>
   </g>
   <g id="patch_6">
    <path d="M 34.401983 7.2 
L 237.311074 7.2 
" style="fill: none; stroke: #000000; stroke-width: 0.8; stroke-linejoin: miter; stroke-linecap: square"/>
   </g>
   <g id="legend_1">
    <g id="patch_7">
     <path d="M 45.601983 42.299476 
L 105.671433 42.299476 
Q 108.871433 42.299476 108.871433 39.099476 
L 108.871433 18.4 
Q 108.871433 15.2 105.671433 15.2 
L 45.601983 15.2 
Q 42.401983 15.2 42.401983 18.4 
L 42.401983 39.099476 
Q 42.401983 42.299476 45.601983 42.299476 
z
" style="fill: #ffffff; opacity: 0.8; stroke: #cccccc; stroke-linejoin: miter"/>
    </g>
    <g id="line2d_16">
     <path d="M 48.801983 27.2 
L 64.801983 27.2 
L 80.801983 27.2 
" style="fill: none; stroke: #1f77b4; stroke-width: 1.5; stroke-linecap: square"/>
    </g>
    <g id="text_8">
     <!-- $x$ -->
     <g transform="translate(93.601983 32.8) scale(0.16 -0.16)">
      <defs>
       <path id="CMMI12-78" d="M 3034 2624 
C 2829 2585 2752 2431 2752 2310 
C 2752 2156 2874 2105 2963 2105 
C 3155 2105 3290 2271 3290 2444 
C 3290 2694 2982 2816 2714 2816 
C 2323 2816 2106 2451 2048 2329 
C 1901 2790 1504 2816 1389 2816 
C 736 2816 390 1993 390 1849 
C 390 1823 416 1790 461 1790 
C 512 1790 525 1829 538 1855 
C 755 2572 1184 2687 1370 2687 
C 1658 2687 1715 2438 1715 2284 
C 1715 2143 1677 1993 1600 1678 
L 1382 778 
C 1286 390 1101 64 762 64 
C 730 64 570 64 435 126 
C 666 166 717 358 717 435 
C 717 563 621 640 499 640 
C 346 640 179 505 179 300 
C 179 57 480 -64 755 -64 
C 1062 -64 1280 153 1414 415 
C 1517 64 1837 -64 2074 -64 
C 2726 -64 3072 751 3072 896 
C 3072 929 3046 955 3008 955 
C 2950 955 2944 922 2925 870 
C 2752 300 2381 64 2093 64 
C 1869 64 1747 204 1747 467 
C 1747 607 1773 712 1875 1146 
L 2099 2039 
C 2195 2425 2413 2687 2707 2687 
C 2720 2687 2899 2687 3034 2624 
z
" transform="scale(0.015625)"/>
      </defs>
      <use xlink:href="#CMMI12-78" transform="scale(0.996264)"/>
     </g>
    </g>
   </g>
  </g>
  <g id="axes_2">
   <g id="patch_8">
    <path d="M 34.401983 219.318261 
L 237.311074 219.318261 
L 237.311074 122.90087 
L 34.401983 122.90087 
z
" style="fill: #ffffff"/>
   </g>
   <g id="matplotlib.axis_3">
    <g id="xtick_5">
     <g id="line2d_17">
      <path d="M 43.625124 219.318261 
L 43.625124 122.90087 
" clip-path="url(#p834afbe1df)" style="fill: none; stroke: #b0b0b0; stroke-width: 0.8; stroke-linecap: square"/>
     </g>
     <g id="line2d_18">
      <g>
       <use xlink:href="#m807cf02230" x="43.625124" y="219.318261" style="stroke: #000000; stroke-width: 0.8"/>
      </g>
     </g>
     <g id="text_9">
      <!-- $\mathdefault{0}$ -->
      <g transform="translate(39.72313 237.387849) scale(0.16 -0.16)">
       <use xlink:href="#CMR17-30" transform="scale(0.996264)"/>
      </g>
     </g>
    </g>
    <g id="xtick_6">
     <g id="line2d_19">
      <path d="M 105.318371 219.318261 
L 105.318371 122.90087 
" clip-path="url(#p834afbe1df)" style="fill: none; stroke: #b0b0b0; stroke-width: 0.8; stroke-linecap: square"/>
     </g>
     <g id="line2d_20">
      <g>
       <use xlink:href="#m807cf02230" x="105.318371" y="219.318261" style="stroke: #000000; stroke-width: 0.8"/>
      </g>
     </g>
     <g id="text_10">
      <!-- $\mathdefault{2}$ -->
      <g transform="translate(101.416378 237.387849) scale(0.16 -0.16)">
       <use xlink:href="#CMR17-32" transform="scale(0.996264)"/>
      </g>
     </g>
    </g>
    <g id="xtick_7">
     <g id="line2d_21">
      <path d="M 167.011618 219.318261 
L 167.011618 122.90087 
" clip-path="url(#p834afbe1df)" style="fill: none; stroke: #b0b0b0; stroke-width: 0.8; stroke-linecap: square"/>
     </g>
     <g id="line2d_22">
      <g>
       <use xlink:href="#m807cf02230" x="167.011618" y="219.318261" style="stroke: #000000; stroke-width: 0.8"/>
      </g>
     </g>
     <g id="text_11">
      <!-- $\mathdefault{4}$ -->
      <g transform="translate(163.109625 237.387849) scale(0.16 -0.16)">
       <use xlink:href="#CMR17-34" transform="scale(0.996264)"/>
      </g>
     </g>
    </g>
    <g id="xtick_8">
     <g id="line2d_23">
      <path d="M 228.704866 219.318261 
L 228.704866 122.90087 
" clip-path="url(#p834afbe1df)" style="fill: none; stroke: #b0b0b0; stroke-width: 0.8; stroke-linecap: square"/>
     </g>
     <g id="line2d_24">
      <g>
       <use xlink:href="#m807cf02230" x="228.704866" y="219.318261" style="stroke: #000000; stroke-width: 0.8"/>
      </g>
     </g>
     <g id="text_12">
      <!-- $\mathdefault{6}$ -->
      <g transform="translate(224.802872 237.387849) scale(0.16 -0.16)">
       <use xlink:href="#CMR17-36" transform="scale(0.996264)"/>
      </g>
     </g>
    </g>
   </g>
   <g id="matplotlib.axis_4">
    <g id="ytick_4">
     <g id="line2d_25">
      <path d="M 34.401983 209.676522 
L 237.311074 209.676522 
" clip-path="url(#p834afbe1df)" style="fill: none; stroke: #b0b0b0; stroke-width: 0.8; stroke-linecap: square"/>
     </g>
     <g id="line2d_26">
      <g>
       <use xlink:href="#mfdf7d22760" x="34.401983" y="209.676522" style="stroke: #000000; stroke-width: 0.8"/>
      </g>
     </g>
     <g id="text_13">
      <!-- $\mathdefault{−2}$ -->
      <g transform="translate(7.2 215.211316) scale(0.16 -0.16)">
       <use xlink:href="#CMSY10-0" transform="scale(0.996264)"/>
       <use xlink:href="#CMR17-32" transform="translate(77.487468 0) scale(0.996264)"/>
      </g>
     </g>
    </g>
    <g id="ytick_5">
     <g id="line2d_27">
      <path d="M 34.401983 171.109565 
L 237.311074 171.109565 
" clip-path="url(#p834afbe1df)" style="fill: none; stroke: #b0b0b0; stroke-width: 0.8; stroke-linecap: square"/>
     </g>
     <g id="line2d_28">
      <g>
       <use xlink:href="#mfdf7d22760" x="34.401983" y="171.109565" style="stroke: #000000; stroke-width: 0.8"/>
      </g>
     </g>
     <g id="text_14">
      <!-- $\mathdefault{0}$ -->
      <g transform="translate(19.597996 176.644359) scale(0.16 -0.16)">
       <use xlink:href="#CMR17-30" transform="scale(0.996264)"/>
      </g>
     </g>
    </g>
    <g id="ytick_6">
     <g id="line2d_29">
      <path d="M 34.401983 132.542609 
L 237.311074 132.542609 
" clip-path="url(#p834afbe1df)" style="fill: none; stroke: #b0b0b0; stroke-width: 0.8; stroke-linecap: square"/>
     </g>
     <g id="line2d_30">
      <g>
       <use xlink:href="#mfdf7d22760" x="34.401983" y="132.542609" style="stroke: #000000; stroke-width: 0.8"/>
      </g>
     </g>
     <g id="text_15">
      <!-- $\mathdefault{2}$ -->
      <g transform="translate(19.597996 138.077403) scale(0.16 -0.16)">
       <use xlink:href="#CMR17-32" transform="scale(0.996264)"/>
      </g>
     </g>
    </g>
   </g>
   <g id="line2d_31">
    <path d="M 43.625124 171.109565 
L 59.665368 164.920656 
L 68.302423 161.819679 
L 75.705612 159.386555 
L 82.491869 157.388682 
L 88.661194 155.798669 
L 94.830519 154.450117 
L 100.382911 153.460532 
L 105.935303 152.696456 
L 111.487696 152.16765 
L 117.040088 151.880873 
L 122.59248 151.839788 
L 128.144873 152.044921 
L 133.697265 152.493649 
L 139.249657 153.180241 
L 144.802049 154.095922 
L 150.354442 155.228992 
L 156.523766 156.725225 
L 162.693091 158.448308 
L 169.479348 160.573182 
L 176.882538 163.118963 
L 186.136525 166.549042 
L 201.559837 172.562128 
L 214.515419 177.527484 
L 223.152474 180.611062 
L 228.087933 182.247176 
L 228.087933 182.247176 
" clip-path="url(#p834afbe1df)" style="fill: none; stroke: #ff7f0e; stroke-width: 1.5; stroke-linecap: square"/>
   </g>
   <g id="patch_9">
    <path d="M 34.401983 219.318261 
L 34.401983 122.90087 
" style="fill: none; stroke: #000000; stroke-width: 0.8; stroke-linejoin: miter; stroke-linecap: square"/>
   </g>
   <g id="patch_10">
    <path d="M 237.311074 219.318261 
L 237.311074 122.90087 
" style="fill: none; stroke: #000000; stroke-width: 0.8; stroke-linejoin: miter; stroke-linecap: square"/>
   </g>
   <g id="patch_11">
    <path d="M 34.401983 219.318261 
L 237.311074 219.318261 
" style="fill: none; stroke: #000000; stroke-width: 0.8; stroke-linejoin: miter; stroke-linecap: square"/>
   </g>
   <g id="patch_12">
    <path d="M 34.401983 122.90087 
L 237.311074 122.90087 
" style="fill: none; stroke: #000000; stroke-width: 0.8; stroke-linejoin: miter; stroke-linecap: square"/>
   </g>
   <g id="legend_2">
    <g id="patch_13">
     <path d="M 45.601983 159.641094 
L 201.07943 159.641094 
Q 204.27943 159.641094 204.27943 156.441094 
L 204.27943 134.10087 
Q 204.27943 130.90087 201.07943 130.90087 
L 45.601983 130.90087 
Q 42.401983 130.90087 42.401983 134.10087 
L 42.401983 156.441094 
Q 42.401983 159.641094 45.601983 159.641094 
z
" style="fill: #ffffff; opacity: 0.8; stroke: #cccccc; stroke-linejoin: miter"/>
    </g>
    <g id="line2d_32">
     <path d="M 48.801983 143.656038 
L 64.801983 143.656038 
L 80.801983 143.656038 
" style="fill: none; stroke: #ff7f0e; stroke-width: 1.5; stroke-linecap: square"/>
    </g>
    <g id="text_16">
     <!-- $y_1$ ($f=0.1$ Hz) -->
     <g transform="translate(93.601983 149.256038) scale(0.16 -0.16)">
      <defs>
       <path id="CMMI12-79" d="M 1683 -673 
C 1510 -921 1261 -1152 947 -1152 
C 870 -1152 563 -1139 467 -826 
C 486 -833 518 -833 531 -833 
C 723 -833 851 -666 851 -519 
C 851 -372 730 -320 634 -320 
C 531 -320 307 -397 307 -711 
C 307 -1050 582 -1280 947 -1280 
C 1587 -1280 2234 -673 2413 -7 
L 3040 2483 
C 3046 2515 3059 2553 3059 2591 
C 3059 2687 2982 2752 2886 2752 
C 2829 2752 2694 2726 2643 2534 
L 2170 657 
C 2138 542 2138 530 2086 459 
C 1958 281 1747 64 1440 64 
C 1082 64 1050 415 1050 587 
C 1050 951 1222 1443 1395 1902 
C 1466 2087 1504 2177 1504 2305 
C 1504 2573 1312 2816 998 2816 
C 410 2816 173 1890 173 1838 
C 173 1813 198 1781 243 1781 
C 301 1781 307 1807 333 1896 
C 486 2432 730 2687 979 2687 
C 1037 2687 1146 2687 1146 2477 
C 1146 2311 1075 2126 979 1883 
C 666 1047 666 836 666 683 
C 666 76 1101 -64 1421 -64 
C 1606 -64 1837 -7 2061 230 
L 2067 223 
C 1971 -141 1907 -359 1683 -673 
z
" transform="scale(0.015625)"/>
       <path id="CMR17-31" d="M 1702 4083 
C 1702 4217 1696 4224 1606 4224 
C 1357 3927 979 3833 621 3820 
C 602 3820 570 3820 563 3808 
C 557 3795 557 3782 557 3648 
C 755 3648 1088 3686 1344 3839 
L 1344 467 
C 1344 243 1331 166 781 166 
L 589 166 
L 589 0 
C 896 6 1216 12 1523 12 
C 1830 12 2150 6 2458 0 
L 2458 166 
L 2266 166 
C 1715 166 1702 236 1702 467 
L 1702 4083 
z
" transform="scale(0.015625)"/>
       <path id="CMSS17-28" d="M 1613 4800 
C 1267 4447 474 3627 474 1603 
C 474 -428 1267 -1242 1613 -1600 
L 2003 -1600 
C 1216 -781 960 366 960 1596 
C 960 2820 1203 3973 2003 4800 
L 1613 4800 
z
" transform="scale(0.015625)"/>
       <path id="CMMI12-66" d="M 2854 2566 
C 2982 2566 3034 2566 3034 2687 
C 3034 2752 2982 2752 2867 2752 
L 2349 2752 
C 2470 3398 2560 3846 2611 4051 
C 2650 4204 2784 4351 2950 4351 
C 3085 4351 3219 4294 3283 4236 
C 3034 4211 2957 4025 2957 3916 
C 2957 3788 3053 3712 3174 3712 
C 3302 3712 3494 3820 3494 4064 
C 3494 4332 3226 4480 2944 4480 
C 2669 4480 2400 4275 2272 4025 
C 2157 3801 2093 3573 1946 2752 
L 1517 2752 
C 1395 2752 1331 2752 1331 2636 
C 1331 2566 1370 2566 1498 2566 
L 1907 2566 
C 1792 1977 1530 545 1382 -132 
C 1274 -685 1178 -1152 858 -1152 
C 838 -1152 653 -1152 538 -1031 
C 864 -1005 864 -724 864 -717 
C 864 -589 768 -512 646 -512 
C 518 -512 326 -621 326 -865 
C 326 -1140 608 -1280 858 -1280 
C 1510 -1280 1779 -113 1850 203 
C 1965 691 2278 2376 2310 2566 
L 2854 2566 
z
" transform="scale(0.015625)"/>
       <path id="CMR17-3d" d="M 4115 2048 
C 4211 2048 4307 2048 4307 2156 
C 4307 2272 4198 2272 4090 2272 
L 512 2272 
C 403 2272 294 2272 294 2156 
C 294 2048 390 2048 486 2048 
L 4115 2048 
z
M 4090 927 
C 4198 927 4307 927 4307 1043 
C 4307 1152 4211 1152 4115 1152 
L 486 1152 
C 390 1152 294 1152 294 1043 
C 294 927 403 927 512 927 
L 4090 927 
z
" transform="scale(0.015625)"/>
       <path id="CMMI12-3a" d="M 1178 307 
C 1178 492 1024 620 870 620 
C 685 620 557 467 557 313 
C 557 128 710 0 864 0 
C 1050 0 1178 153 1178 307 
z
" transform="scale(0.015625)"/>
       <path id="CMSS17-48" d="M 3674 4416 
L 3136 4416 
L 3136 2496 
L 1101 2496 
L 1101 4416 
L 563 4416 
L 563 0 
L 1101 0 
L 1101 2105 
L 3136 2105 
L 3136 0 
L 3674 0 
L 3674 4416 
z
" transform="scale(0.015625)"/>
       <path id="CMSS17-7a" d="M 2400 2502 
L 2400 2752 
L 250 2752 
L 250 2367 
L 1069 2367 
C 1146 2367 1222 2374 1299 2374 
L 1747 2374 
L 166 262 
L 166 0 
L 2419 0 
L 2419 396 
L 1549 396 
C 1472 396 1395 390 1318 390 
L 826 390 
L 2400 2502 
z
" transform="scale(0.015625)"/>
       <path id="CMSS17-29" d="M 723 -1600 
C 1069 -1248 1862 -428 1862 1596 
C 1862 3627 1069 4440 723 4800 
L 333 4800 
C 1120 3979 1376 2833 1376 1603 
C 1376 379 1133 -774 333 -1600 
L 723 -1600 
z
" transform="scale(0.015625)"/>
      </defs>
      <use xlink:href="#CMMI12-79" transform="scale(0.996264)"/>
      <use xlink:href="#CMR17-31" transform="translate(47.564188 -14.943915) scale(0.697382)"/>
      <use xlink:href="#CMSS17-28" transform="translate(111.274615 0) scale(0.996264)"/>
      <use xlink:href="#CMMI12-66" transform="translate(147.708529 0) scale(0.996264)"/>
      <use xlink:href="#CMR17-3d" transform="translate(234.102842 0) scale(0.996264)"/>
      <use xlink:href="#CMR17-30" transform="translate(333.49164 0) scale(0.996264)"/>
      <use xlink:href="#CMMI12-3a" transform="translate(379.182117 0) scale(0.996264)"/>
      <use xlink:href="#CMR17-31" transform="translate(406.279294 0) scale(0.996264)"/>
      <use xlink:href="#CMSS17-48" transform="translate(483.198884 0) scale(0.996264)"/>
      <use xlink:href="#CMSS17-7a" transform="translate(549.260403 0) scale(0.996264)"/>
      <use xlink:href="#CMSS17-29" transform="translate(589.938275 0) scale(0.996264)"/>
     </g>
    </g>
   </g>
  </g>
  <g id="axes_3">
   <g id="patch_14">
    <path d="M 298.183801 219.318261 
L 704.001983 219.318261 
L 704.001983 122.90087 
L 298.183801 122.90087 
z
" style="fill: #ffffff"/>
   </g>
   <g id="matplotlib.axis_5">
    <g id="xtick_9">
     <g id="line2d_33">
      <path d="M 316.630082 219.318261 
L 316.630082 122.90087 
" clip-path="url(#p7d3623aeb0)" style="fill: none; stroke: #b0b0b0; stroke-width: 0.8; stroke-linecap: square"/>
     </g>
     <g id="line2d_34">
      <g>
       <use xlink:href="#m807cf02230" x="316.630082" y="219.318261" style="stroke: #000000; stroke-width: 0.8"/>
      </g>
     </g>
     <g id="text_17">
      <!-- $\mathdefault{−6}$ -->
      <g transform="translate(306.529091 237.387849) scale(0.16 -0.16)">
       <use xlink:href="#CMSY10-0" transform="scale(0.996264)"/>
       <use xlink:href="#CMR17-36" transform="translate(77.487468 0) scale(0.996264)"/>
      </g>
     </g>
    </g>
    <g id="xtick_10">
     <g id="line2d_35">
      <path d="M 378.32333 219.318261 
L 378.32333 122.90087 
" clip-path="url(#p7d3623aeb0)" style="fill: none; stroke: #b0b0b0; stroke-width: 0.8; stroke-linecap: square"/>
     </g>
     <g id="line2d_36">
      <g>
       <use xlink:href="#m807cf02230" x="378.32333" y="219.318261" style="stroke: #000000; stroke-width: 0.8"/>
      </g>
     </g>
     <g id="text_18">
      <!-- $\mathdefault{−4}$ -->
      <g transform="translate(368.222338 237.387849) scale(0.16 -0.16)">
       <use xlink:href="#CMSY10-0" transform="scale(0.996264)"/>
       <use xlink:href="#CMR17-34" transform="translate(77.487468 0) scale(0.996264)"/>
      </g>
     </g>
    </g>
    <g id="xtick_11">
     <g id="line2d_37">
      <path d="M 440.016577 219.318261 
L 440.016577 122.90087 
" clip-path="url(#p7d3623aeb0)" style="fill: none; stroke: #b0b0b0; stroke-width: 0.8; stroke-linecap: square"/>
     </g>
     <g id="line2d_38">
      <g>
       <use xlink:href="#m807cf02230" x="440.016577" y="219.318261" style="stroke: #000000; stroke-width: 0.8"/>
      </g>
     </g>
     <g id="text_19">
      <!-- $\mathdefault{−2}$ -->
      <g transform="translate(429.915586 237.387849) scale(0.16 -0.16)">
       <use xlink:href="#CMSY10-0" transform="scale(0.996264)"/>
       <use xlink:href="#CMR17-32" transform="translate(77.487468 0) scale(0.996264)"/>
      </g>
     </g>
    </g>
    <g id="xtick_12">
     <g id="line2d_39">
      <path d="M 501.709825 219.318261 
L 501.709825 122.90087 
" clip-path="url(#p7d3623aeb0)" style="fill: none; stroke: #b0b0b0; stroke-width: 0.8; stroke-linecap: square"/>
     </g>
     <g id="line2d_40">
      <g>
       <use xlink:href="#m807cf02230" x="501.709825" y="219.318261" style="stroke: #000000; stroke-width: 0.8"/>
      </g>
     </g>
     <g id="text_20">
      <!-- $\mathdefault{0}$ -->
      <g transform="translate(497.807831 237.387849) scale(0.16 -0.16)">
       <use xlink:href="#CMR17-30" transform="scale(0.996264)"/>
      </g>
     </g>
    </g>
    <g id="xtick_13">
     <g id="line2d_41">
      <path d="M 563.403072 219.318261 
L 563.403072 122.90087 
" clip-path="url(#p7d3623aeb0)" style="fill: none; stroke: #b0b0b0; stroke-width: 0.8; stroke-linecap: square"/>
     </g>
     <g id="line2d_42">
      <g>
       <use xlink:href="#m807cf02230" x="563.403072" y="219.318261" style="stroke: #000000; stroke-width: 0.8"/>
      </g>
     </g>
     <g id="text_21">
      <!-- $\mathdefault{2}$ -->
      <g transform="translate(559.501079 237.387849) scale(0.16 -0.16)">
       <use xlink:href="#CMR17-32" transform="scale(0.996264)"/>
      </g>
     </g>
    </g>
    <g id="xtick_14">
     <g id="line2d_43">
      <path d="M 625.09632 219.318261 
L 625.09632 122.90087 
" clip-path="url(#p7d3623aeb0)" style="fill: none; stroke: #b0b0b0; stroke-width: 0.8; stroke-linecap: square"/>
     </g>
     <g id="line2d_44">
      <g>
       <use xlink:href="#m807cf02230" x="625.09632" y="219.318261" style="stroke: #000000; stroke-width: 0.8"/>
      </g>
     </g>
     <g id="text_22">
      <!-- $\mathdefault{4}$ -->
      <g transform="translate(621.194326 237.387849) scale(0.16 -0.16)">
       <use xlink:href="#CMR17-34" transform="scale(0.996264)"/>
      </g>
     </g>
    </g>
    <g id="xtick_15">
     <g id="line2d_45">
      <path d="M 686.789567 219.318261 
L 686.789567 122.90087 
" clip-path="url(#p7d3623aeb0)" style="fill: none; stroke: #b0b0b0; stroke-width: 0.8; stroke-linecap: square"/>
     </g>
     <g id="line2d_46">
      <g>
       <use xlink:href="#m807cf02230" x="686.789567" y="219.318261" style="stroke: #000000; stroke-width: 0.8"/>
      </g>
     </g>
     <g id="text_23">
      <!-- $\mathdefault{6}$ -->
      <g transform="translate(682.887573 237.387849) scale(0.16 -0.16)">
       <use xlink:href="#CMR17-36" transform="scale(0.996264)"/>
      </g>
     </g>
    </g>
   </g>
   <g id="matplotlib.axis_6">
    <g id="ytick_7">
     <g id="line2d_47">
      <path d="M 298.183801 219.318261 
L 704.001983 219.318261 
" clip-path="url(#p7d3623aeb0)" style="fill: none; stroke: #b0b0b0; stroke-width: 0.8; stroke-linecap: square"/>
     </g>
     <g id="line2d_48">
      <g>
       <use xlink:href="#mfdf7d22760" x="298.183801" y="219.318261" style="stroke: #000000; stroke-width: 0.8"/>
      </g>
     </g>
     <g id="text_24">
      <!-- $\mathdefault{−200}$ -->
      <g transform="translate(255.373844 224.853055) scale(0.16 -0.16)">
       <use xlink:href="#CMSY10-0" transform="scale(0.996264)"/>
       <use xlink:href="#CMR17-32" transform="translate(77.487468 0) scale(0.996264)"/>
       <use xlink:href="#CMR17-30" transform="translate(123.177945 0) scale(0.996264)"/>
       <use xlink:href="#CMR17-30" transform="translate(168.868422 0) scale(0.996264)"/>
      </g>
     </g>
    </g>
    <g id="ytick_8">
     <g id="line2d_49">
      <path d="M 298.183801 171.109565 
L 704.001983 171.109565 
" clip-path="url(#p7d3623aeb0)" style="fill: none; stroke: #b0b0b0; stroke-width: 0.8; stroke-linecap: square"/>
     </g>
     <g id="line2d_50">
      <g>
       <use xlink:href="#mfdf7d22760" x="298.183801" y="171.109565" style="stroke: #000000; stroke-width: 0.8"/>
      </g>
     </g>
     <g id="text_25">
      <!-- $\mathdefault{0}$ -->
      <g transform="translate(283.379814 176.644359) scale(0.16 -0.16)">
       <use xlink:href="#CMR17-30" transform="scale(0.996264)"/>
      </g>
     </g>
    </g>
    <g id="ytick_9">
     <g id="line2d_51">
      <path d="M 298.183801 122.90087 
L 704.001983 122.90087 
" clip-path="url(#p7d3623aeb0)" style="fill: none; stroke: #b0b0b0; stroke-width: 0.8; stroke-linecap: square"/>
     </g>
     <g id="line2d_52">
      <g>
       <use xlink:href="#mfdf7d22760" x="298.183801" y="122.90087" style="stroke: #000000; stroke-width: 0.8"/>
      </g>
     </g>
     <g id="text_26">
      <!-- $\mathdefault{200}$ -->
      <g transform="translate(267.77184 128.435664) scale(0.16 -0.16)">
       <use xlink:href="#CMR17-32" transform="scale(0.996264)"/>
       <use xlink:href="#CMR17-30" transform="translate(45.690477 0) scale(0.996264)"/>
       <use xlink:href="#CMR17-30" transform="translate(91.380954 0) scale(0.996264)"/>
      </g>
     </g>
    </g>
   </g>
   <g id="line2d_53">
    <path d="M 316.630082 171.149701 
L 317.863947 171.735895 
L 318.48088 171.696928 
L 319.097812 171.535866 
L 320.331677 171.872484 
L 320.94861 171.801872 
L 321.565542 172.081638 
L 322.182474 171.94797 
L 322.799407 172.161232 
L 323.416339 172.493056 
L 324.033272 172.568067 
L 324.650204 172.501376 
L 325.884069 173.173913 
L 326.501002 173.083471 
L 327.117934 173.16741 
L 327.734867 173.39905 
L 330.202597 173.702335 
L 330.819529 173.899812 
L 334.521124 173.958686 
L 335.138056 173.884637 
L 336.371921 173.929192 
L 338.222719 173.544367 
L 340.073516 173.65488 
L 341.307381 173.484899 
L 341.924314 173.164935 
L 342.541246 173.195819 
L 345.625909 172.357671 
L 346.859773 171.850369 
L 348.710571 171.015977 
L 350.561368 170.128886 
L 352.412166 169.460175 
L 353.029098 169.500404 
L 354.879896 168.958409 
L 355.496828 168.822286 
L 357.964558 167.856086 
L 359.198423 167.682095 
L 359.815355 167.302852 
L 360.432288 167.296472 
L 361.666153 166.989888 
L 362.283085 167.200399 
L 362.900018 166.992065 
L 363.51695 167.074826 
L 364.133883 166.997422 
L 365.367748 166.627443 
L 365.98468 166.772642 
L 366.601613 166.702141 
L 367.218545 166.471679 
L 367.835478 166.577851 
L 369.069343 166.296747 
L 369.686275 166.377216 
L 370.303208 166.285302 
L 371.537072 166.732084 
L 372.154005 166.39785 
L 372.770937 166.275606 
L 373.38787 165.956578 
L 374.004802 166.076025 
L 374.621735 166.341232 
L 375.8556 166.575613 
L 376.472532 166.818819 
L 377.706397 166.919944 
L 378.32333 166.812014 
L 378.940262 167.117429 
L 379.557195 167.137537 
L 380.79106 167.539333 
L 381.407992 167.763502 
L 382.024925 167.837967 
L 382.641857 168.314162 
L 383.258789 168.138847 
L 384.492654 168.504995 
L 385.109587 168.521562 
L 385.726519 168.803176 
L 386.343452 168.945704 
L 388.194249 169.675674 
L 390.045047 169.844077 
L 390.661979 170.062731 
L 391.278912 170.465556 
L 393.129709 170.688132 
L 393.746642 170.750907 
L 394.363574 171.001904 
L 394.980506 170.970553 
L 395.597439 171.160436 
L 396.831304 171.38542 
L 397.448236 171.604594 
L 398.065169 171.316852 
L 398.682101 171.265494 
L 399.299034 171.10044 
L 399.915966 171.147545 
L 401.149831 170.683799 
L 401.766764 170.837617 
L 402.383696 170.826314 
L 403.000629 170.623836 
L 403.617561 170.730993 
L 405.468359 170.510164 
L 407.936088 170.123697 
L 408.553021 169.891867 
L 409.169953 169.946359 
L 410.403818 169.529384 
L 411.637683 169.376223 
L 412.254616 169.390362 
L 413.488481 169.116233 
L 414.722346 168.432805 
L 415.339278 168.534025 
L 415.956211 168.210517 
L 418.423941 167.807949 
L 419.040873 167.435113 
L 419.657805 167.424669 
L 420.89167 167.025198 
L 421.508603 167.153692 
L 423.976333 166.877643 
L 424.593265 166.565186 
L 426.444063 166.31181 
L 428.29486 165.986482 
L 430.76259 166.381603 
L 431.379522 166.241163 
L 431.996455 166.225293 
L 432.613387 166.323054 
L 433.23032 166.679075 
L 433.847252 166.633499 
L 436.314982 167.048848 
L 436.931915 167.301427 
L 438.16578 167.374498 
L 438.782712 167.655454 
L 439.399645 168.072595 
L 441.250442 168.417782 
L 441.867375 168.300841 
L 444.335104 169.294545 
L 444.952037 169.395037 
L 445.568969 169.239515 
L 446.185902 169.574051 
L 447.419767 169.555617 
L 448.036699 169.788502 
L 449.270564 170.462965 
L 449.887497 170.49473 
L 451.121362 170.944516 
L 452.972159 171.265429 
L 454.206024 171.957552 
L 454.822957 172.025981 
L 455.439889 171.836218 
L 456.673754 172.26377 
L 457.290686 172.313244 
L 459.141484 171.866116 
L 459.758416 171.795294 
L 460.992281 172.095868 
L 462.843079 172.129274 
L 464.076944 172.081049 
L 465.310809 172.045044 
L 466.544674 171.982918 
L 467.161606 171.708677 
L 469.012403 171.309711 
L 469.629336 171.426698 
L 470.246268 171.420155 
L 470.863201 171.260204 
L 471.480133 170.775444 
L 473.330931 170.486911 
L 473.947863 170.594203 
L 475.798661 170.419138 
L 476.415593 170.363712 
L 477.032526 170.46799 
L 477.649458 170.296048 
L 478.266391 170.36876 
L 479.500256 170.210129 
L 480.117188 170.340269 
L 480.73412 170.18211 
L 481.351053 170.162421 
L 481.967985 169.913417 
L 482.584918 170.130695 
L 483.20185 170.160169 
L 485.66958 169.223031 
L 487.520378 169.500555 
L 488.13731 169.681792 
L 488.754243 169.654574 
L 491.221973 170.430186 
L 492.455837 170.453441 
L 493.689702 170.732725 
L 495.5405 170.976687 
L 496.774365 171.371036 
L 497.391297 171.278212 
L 498.625162 171.840878 
L 499.242095 172.275917 
L 499.859027 172.206131 
L 500.47596 172.553968 
L 501.709825 172.82122 
L 507.879149 173.466641 
L 512.814609 173.729905 
L 517.750069 173.748603 
L 525.153259 173.523571 
L 533.173381 173.254732 
L 537.491908 173.341429 
L 543.0443 173.645189 
L 549.830558 174.290771 
L 567.104667 176.094075 
L 572.657059 176.247794 
L 577.592519 176.088194 
L 581.911046 175.733136 
L 594.249696 174.451859 
L 601.035953 173.924115 
L 606.588345 173.738573 
L 612.140738 173.751696 
L 625.09632 173.983683 
L 631.882577 173.752973 
L 636.201104 173.440914 
L 641.136564 172.875697 
L 652.241348 171.46976 
L 657.793741 170.98087 
L 665.19693 170.667028 
L 670.13239 170.659099 
L 684.93877 171.107355 
L 685.555702 171.109565 
L 685.555702 171.109565 
" clip-path="url(#p7d3623aeb0)" style="fill: none; stroke: #ff7f0e; stroke-width: 1.5; stroke-linecap: square"/>
   </g>
   <g id="patch_15">
    <path d="M 298.183801 219.318261 
L 298.183801 122.90087 
" style="fill: none; stroke: #000000; stroke-width: 0.8; stroke-linejoin: miter; stroke-linecap: square"/>
   </g>
   <g id="patch_16">
    <path d="M 704.001983 219.318261 
L 704.001983 122.90087 
" style="fill: none; stroke: #000000; stroke-width: 0.8; stroke-linejoin: miter; stroke-linecap: square"/>
   </g>
   <g id="patch_17">
    <path d="M 298.183801 219.318261 
L 704.001983 219.318261 
" style="fill: none; stroke: #000000; stroke-width: 0.8; stroke-linejoin: miter; stroke-linecap: square"/>
   </g>
   <g id="patch_18">
    <path d="M 298.183801 122.90087 
L 704.001983 122.90087 
" style="fill: none; stroke: #000000; stroke-width: 0.8; stroke-linejoin: miter; stroke-linecap: square"/>
   </g>
   <g id="legend_3">
    <g id="patch_19">
     <path d="M 309.383801 159.461526 
L 388.545899 159.461526 
Q 391.745899 159.461526 391.745899 156.261526 
L 391.745899 134.10087 
Q 391.745899 130.90087 388.545899 130.90087 
L 309.383801 130.90087 
Q 306.183801 130.90087 306.183801 134.10087 
L 306.183801 156.261526 
Q 306.183801 159.461526 309.383801 159.461526 
z
" style="fill: #ffffff; opacity: 0.8; stroke: #cccccc; stroke-linejoin: miter"/>
    </g>
    <g id="line2d_54">
     <path d="M 312.583801 142.90087 
L 328.583801 142.90087 
L 344.583801 142.90087 
" style="fill: none; stroke: #ff7f0e; stroke-width: 1.5; stroke-linecap: square"/>
    </g>
    <g id="text_27">
     <!-- $R_{xy_1}$ -->
     <g transform="translate(357.383801 148.50087) scale(0.16 -0.16)">
      <defs>
       <path id="CMMI12-52" d="M 2355 3917 
C 2413 4153 2438 4166 2688 4166 
L 3149 4166 
C 3699 4166 4109 4000 4109 3503 
C 4109 3177 3942 2240 2656 2240 
L 1933 2240 
L 2355 3917 
z
M 3245 2163 
C 4038 2335 4659 2846 4659 3394 
C 4659 3892 4154 4352 3264 4352 
L 1530 4352 
C 1402 4352 1344 4352 1344 4230 
C 1344 4166 1389 4166 1510 4166 
C 1894 4166 1894 4115 1894 4045 
C 1894 4032 1894 3994 1869 3898 
L 1005 475 
C 947 253 934 190 493 190 
C 346 190 301 190 301 69 
C 301 6 371 6 390 6 
C 506 6 640 19 762 19 
L 1517 19 
C 1632 19 1766 6 1882 6 
C 1933 6 2003 6 2003 126 
C 2003 190 1946 190 1850 190 
C 1459 190 1459 241 1459 304 
C 1459 310 1459 355 1472 405 
L 1901 2112 
L 2669 2112 
C 3277 2112 3392 1731 3392 1522 
C 3392 1426 3328 1179 3283 1014 
C 3213 723 3194 653 3194 532 
C 3194 82 3565 -128 3994 -128 
C 4512 -128 4736 501 4736 589 
C 4736 634 4704 653 4666 653 
C 4614 653 4602 615 4589 564 
C 4435 114 4173 0 4013 0 
C 3853 0 3750 69 3750 355 
C 3750 507 3827 1084 3834 1116 
C 3866 1350 3866 1376 3866 1426 
C 3866 1889 3488 2086 3245 2163 
z
" transform="scale(0.015625)"/>
      </defs>
      <use xlink:href="#CMMI12-52" transform="scale(0.996264)"/>
      <use xlink:href="#CMMI12-78" transform="translate(74.250826 -14.943915) scale(0.697382)"/>
      <use xlink:href="#CMMI12-79" transform="translate(113.054485 -14.943915) scale(0.697382)"/>
      <use xlink:href="#CMR17-31" transform="translate(146.349262 -25.404611) scale(0.498132)"/>
     </g>
    </g>
   </g>
  </g>
  <g id="axes_4">
   <g id="patch_20">
    <path d="M 34.401983 335.01913 
L 237.311074 335.01913 
L 237.311074 238.601739 
L 34.401983 238.601739 
z
" style="fill: #ffffff"/>
   </g>
   <g id="matplotlib.axis_7">
    <g id="xtick_16">
     <g id="line2d_55">
      <path d="M 43.625124 335.01913 
L 43.625124 238.601739 
" clip-path="url(#pd4351f7a6f)" style="fill: none; stroke: #b0b0b0; stroke-width: 0.8; stroke-linecap: square"/>
     </g>
     <g id="line2d_56">
      <g>
       <use xlink:href="#m807cf02230" x="43.625124" y="335.01913" style="stroke: #000000; stroke-width: 0.8"/>
      </g>
     </g>
     <g id="text_28">
      <!-- $\mathdefault{0}$ -->
      <g transform="translate(39.72313 353.088719) scale(0.16 -0.16)">
       <use xlink:href="#CMR17-30" transform="scale(0.996264)"/>
      </g>
     </g>
    </g>
    <g id="xtick_17">
     <g id="line2d_57">
      <path d="M 105.318371 335.01913 
L 105.318371 238.601739 
" clip-path="url(#pd4351f7a6f)" style="fill: none; stroke: #b0b0b0; stroke-width: 0.8; stroke-linecap: square"/>
     </g>
     <g id="line2d_58">
      <g>
       <use xlink:href="#m807cf02230" x="105.318371" y="335.01913" style="stroke: #000000; stroke-width: 0.8"/>
      </g>
     </g>
     <g id="text_29">
      <!-- $\mathdefault{2}$ -->
      <g transform="translate(101.416378 353.088719) scale(0.16 -0.16)">
       <use xlink:href="#CMR17-32" transform="scale(0.996264)"/>
      </g>
     </g>
    </g>
    <g id="xtick_18">
     <g id="line2d_59">
      <path d="M 167.011618 335.01913 
L 167.011618 238.601739 
" clip-path="url(#pd4351f7a6f)" style="fill: none; stroke: #b0b0b0; stroke-width: 0.8; stroke-linecap: square"/>
     </g>
     <g id="line2d_60">
      <g>
       <use xlink:href="#m807cf02230" x="167.011618" y="335.01913" style="stroke: #000000; stroke-width: 0.8"/>
      </g>
     </g>
     <g id="text_30">
      <!-- $\mathdefault{4}$ -->
      <g transform="translate(163.109625 353.088719) scale(0.16 -0.16)">
       <use xlink:href="#CMR17-34" transform="scale(0.996264)"/>
      </g>
     </g>
    </g>
    <g id="xtick_19">
     <g id="line2d_61">
      <path d="M 228.704866 335.01913 
L 228.704866 238.601739 
" clip-path="url(#pd4351f7a6f)" style="fill: none; stroke: #b0b0b0; stroke-width: 0.8; stroke-linecap: square"/>
     </g>
     <g id="line2d_62">
      <g>
       <use xlink:href="#m807cf02230" x="228.704866" y="335.01913" style="stroke: #000000; stroke-width: 0.8"/>
      </g>
     </g>
     <g id="text_31">
      <!-- $\mathdefault{6}$ -->
      <g transform="translate(224.802872 353.088719) scale(0.16 -0.16)">
       <use xlink:href="#CMR17-36" transform="scale(0.996264)"/>
      </g>
     </g>
    </g>
   </g>
   <g id="matplotlib.axis_8">
    <g id="ytick_10">
     <g id="line2d_63">
      <path d="M 34.401983 325.377391 
L 237.311074 325.377391 
" clip-path="url(#pd4351f7a6f)" style="fill: none; stroke: #b0b0b0; stroke-width: 0.8; stroke-linecap: square"/>
     </g>
     <g id="line2d_64">
      <g>
       <use xlink:href="#mfdf7d22760" x="34.401983" y="325.377391" style="stroke: #000000; stroke-width: 0.8"/>
      </g>
     </g>
     <g id="text_32">
      <!-- $\mathdefault{−2}$ -->
      <g transform="translate(7.2 330.912185) scale(0.16 -0.16)">
       <use xlink:href="#CMSY10-0" transform="scale(0.996264)"/>
       <use xlink:href="#CMR17-32" transform="translate(77.487468 0) scale(0.996264)"/>
      </g>
     </g>
    </g>
    <g id="ytick_11">
     <g id="line2d_65">
      <path d="M 34.401983 286.810435 
L 237.311074 286.810435 
" clip-path="url(#pd4351f7a6f)" style="fill: none; stroke: #b0b0b0; stroke-width: 0.8; stroke-linecap: square"/>
     </g>
     <g id="line2d_66">
      <g>
       <use xlink:href="#mfdf7d22760" x="34.401983" y="286.810435" style="stroke: #000000; stroke-width: 0.8"/>
      </g>
     </g>
     <g id="text_33">
      <!-- $\mathdefault{0}$ -->
      <g transform="translate(19.597996 292.345229) scale(0.16 -0.16)">
       <use xlink:href="#CMR17-30" transform="scale(0.996264)"/>
      </g>
     </g>
    </g>
    <g id="ytick_12">
     <g id="line2d_67">
      <path d="M 34.401983 248.243478 
L 237.311074 248.243478 
" clip-path="url(#pd4351f7a6f)" style="fill: none; stroke: #b0b0b0; stroke-width: 0.8; stroke-linecap: square"/>
     </g>
     <g id="line2d_68">
      <g>
       <use xlink:href="#mfdf7d22760" x="34.401983" y="248.243478" style="stroke: #000000; stroke-width: 0.8"/>
      </g>
     </g>
     <g id="text_34">
      <!-- $\mathdefault{2}$ -->
      <g transform="translate(19.597996 253.778272) scale(0.16 -0.16)">
       <use xlink:href="#CMR17-32" transform="scale(0.996264)"/>
      </g>
     </g>
    </g>
   </g>
   <g id="line2d_69">
    <path d="M 43.625124 286.810435 
L 47.326718 279.711713 
L 49.794448 275.475891 
L 51.645246 272.753384 
L 53.496043 270.528856 
L 54.729908 269.362222 
L 55.963773 268.470757 
L 57.197638 267.86852 
L 58.431503 267.565008 
L 59.665368 267.565008 
L 60.899233 267.86852 
L 62.133098 268.470757 
L 63.366963 269.362222 
L 64.600828 270.528856 
L 65.834693 271.952259 
L 67.68549 274.518683 
L 69.536287 277.520548 
L 72.004017 282.014829 
L 79.407207 296.100321 
L 81.258004 299.102186 
L 83.108802 301.66861 
L 84.342667 303.092014 
L 85.576532 304.258648 
L 86.810397 305.150112 
L 88.044262 305.75235 
L 89.278127 306.055862 
L 90.511992 306.055862 
L 91.745857 305.75235 
L 92.979722 305.150112 
L 94.213586 304.258648 
L 95.447451 303.092014 
L 96.681316 301.66861 
L 98.532114 299.102186 
L 100.382911 296.100321 
L 102.850641 291.606041 
L 110.253831 277.520548 
L 112.104628 274.518683 
L 113.955426 271.952259 
L 115.189291 270.528856 
L 116.423156 269.362222 
L 117.65702 268.470757 
L 118.890885 267.86852 
L 120.12475 267.565008 
L 121.358615 267.565008 
L 122.59248 267.86852 
L 123.826345 268.470757 
L 125.06021 269.362222 
L 126.294075 270.528856 
L 127.52794 271.952259 
L 129.378738 274.518683 
L 131.229535 277.520548 
L 133.697265 282.014829 
L 141.100455 296.100321 
L 142.951252 299.102186 
L 144.802049 301.66861 
L 146.035914 303.092014 
L 147.269779 304.258648 
L 148.503644 305.150112 
L 149.737509 305.75235 
L 150.971374 306.055862 
L 152.205239 306.055862 
L 153.439104 305.75235 
L 154.672969 305.150112 
L 155.906834 304.258648 
L 157.140699 303.092014 
L 158.374564 301.66861 
L 160.225361 299.102186 
L 162.076159 296.100321 
L 164.543889 291.606041 
L 171.947078 277.520548 
L 173.797876 274.518683 
L 175.648673 271.952259 
L 176.882538 270.528856 
L 178.116403 269.362222 
L 179.350268 268.470757 
L 180.584133 267.86852 
L 181.817998 267.565008 
L 183.051863 267.565008 
L 184.285728 267.86852 
L 185.519593 268.470757 
L 186.753458 269.362222 
L 187.987323 270.528856 
L 189.221188 271.952259 
L 191.071985 274.518683 
L 192.922782 277.520548 
L 195.390512 282.014829 
L 202.793702 296.100321 
L 204.644499 299.102186 
L 206.495297 301.66861 
L 207.729162 303.092014 
L 208.963027 304.258648 
L 210.196892 305.150112 
L 211.430757 305.75235 
L 212.664622 306.055862 
L 213.898487 306.055862 
L 215.132351 305.75235 
L 216.366216 305.150112 
L 217.600081 304.258648 
L 218.833946 303.092014 
L 220.067811 301.66861 
L 221.918609 299.102186 
L 223.769406 296.100321 
L 226.237136 291.606041 
L 228.087933 288.021254 
L 228.087933 288.021254 
" clip-path="url(#pd4351f7a6f)" style="fill: none; stroke: #2ca02c; stroke-width: 1.5; stroke-linecap: square"/>
   </g>
   <g id="patch_21">
    <path d="M 34.401983 335.01913 
L 34.401983 238.601739 
" style="fill: none; stroke: #000000; stroke-width: 0.8; stroke-linejoin: miter; stroke-linecap: square"/>
   </g>
   <g id="patch_22">
    <path d="M 237.311074 335.01913 
L 237.311074 238.601739 
" style="fill: none; stroke: #000000; stroke-width: 0.8; stroke-linejoin: miter; stroke-linecap: square"/>
   </g>
   <g id="patch_23">
    <path d="M 34.401983 335.01913 
L 237.311074 335.01913 
" style="fill: none; stroke: #000000; stroke-width: 0.8; stroke-linejoin: miter; stroke-linecap: square"/>
   </g>
   <g id="patch_24">
    <path d="M 34.401983 238.601739 
L 237.311074 238.601739 
" style="fill: none; stroke: #000000; stroke-width: 0.8; stroke-linejoin: miter; stroke-linecap: square"/>
   </g>
   <g id="legend_4">
    <g id="patch_25">
     <path d="M 45.601983 275.341963 
L 201.07943 275.341963 
Q 204.27943 275.341963 204.27943 272.141963 
L 204.27943 249.801739 
Q 204.27943 246.601739 201.07943 246.601739 
L 45.601983 246.601739 
Q 42.401983 246.601739 42.401983 249.801739 
L 42.401983 272.141963 
Q 42.401983 275.341963 45.601983 275.341963 
z
" style="fill: #ffffff; opacity: 0.8; stroke: #cccccc; stroke-linejoin: miter"/>
    </g>
    <g id="line2d_70">
     <path d="M 48.801983 259.356907 
L 64.801983 259.356907 
L 80.801983 259.356907 
" style="fill: none; stroke: #2ca02c; stroke-width: 1.5; stroke-linecap: square"/>
    </g>
    <g id="text_35">
     <!-- $y_2$ ($f=0.5$ Hz) -->
     <g transform="translate(93.601983 264.956907) scale(0.16 -0.16)">
      <defs>
       <path id="CMR17-35" d="M 730 3750 
C 794 3724 1056 3641 1325 3641 
C 1920 3641 2246 3961 2432 4140 
C 2432 4191 2432 4224 2394 4224 
C 2387 4224 2374 4224 2323 4198 
C 2099 4102 1837 4032 1517 4032 
C 1325 4032 1037 4055 723 4191 
C 653 4224 640 4224 634 4224 
C 602 4224 595 4217 595 4090 
L 595 2231 
C 595 2113 595 2080 659 2080 
C 691 2080 704 2093 736 2139 
C 941 2435 1222 2560 1542 2560 
C 1766 2560 2246 2415 2246 1293 
C 2246 1087 2246 716 2054 422 
C 1894 159 1645 25 1370 25 
C 947 25 518 319 403 812 
C 429 806 480 793 506 793 
C 589 793 749 838 749 1036 
C 749 1209 627 1280 506 1280 
C 358 1280 262 1190 262 1011 
C 262 454 704 -128 1382 -128 
C 2042 -128 2669 441 2669 1267 
C 2669 2054 2170 2662 1549 2662 
C 1222 2662 947 2540 730 2304 
L 730 3750 
z
" transform="scale(0.015625)"/>
      </defs>
      <use xlink:href="#CMMI12-79" transform="scale(0.996264)"/>
      <use xlink:href="#CMR17-32" transform="translate(47.564188 -14.943915) scale(0.697382)"/>
      <use xlink:href="#CMSS17-28" transform="translate(111.274615 0) scale(0.996264)"/>
      <use xlink:href="#CMMI12-66" transform="translate(147.708529 0) scale(0.996264)"/>
      <use xlink:href="#CMR17-3d" transform="translate(234.102842 0) scale(0.996264)"/>
      <use xlink:href="#CMR17-30" transform="translate(333.49164 0) scale(0.996264)"/>
      <use xlink:href="#CMMI12-3a" transform="translate(379.182117 0) scale(0.996264)"/>
      <use xlink:href="#CMR17-35" transform="translate(406.279294 0) scale(0.996264)"/>
      <use xlink:href="#CMSS17-48" transform="translate(483.198884 0) scale(0.996264)"/>
      <use xlink:href="#CMSS17-7a" transform="translate(549.260403 0) scale(0.996264)"/>
      <use xlink:href="#CMSS17-29" transform="translate(589.938275 0) scale(0.996264)"/>
     </g>
    </g>
   </g>
  </g>
  <g id="axes_5">
   <g id="patch_26">
    <path d="M 298.183801 335.01913 
L 704.001983 335.01913 
L 704.001983 238.601739 
L 298.183801 238.601739 
z
" style="fill: #ffffff"/>
   </g>
   <g id="matplotlib.axis_9">
    <g id="xtick_20">
     <g id="line2d_71">
      <path d="M 316.630082 335.01913 
L 316.630082 238.601739 
" clip-path="url(#pef063a8c78)" style="fill: none; stroke: #b0b0b0; stroke-width: 0.8; stroke-linecap: square"/>
     </g>
     <g id="line2d_72">
      <g>
       <use xlink:href="#m807cf02230" x="316.630082" y="335.01913" style="stroke: #000000; stroke-width: 0.8"/>
      </g>
     </g>
     <g id="text_36">
      <!-- $\mathdefault{−6}$ -->
      <g transform="translate(306.529091 353.088719) scale(0.16 -0.16)">
       <use xlink:href="#CMSY10-0" transform="scale(0.996264)"/>
       <use xlink:href="#CMR17-36" transform="translate(77.487468 0) scale(0.996264)"/>
      </g>
     </g>
    </g>
    <g id="xtick_21">
     <g id="line2d_73">
      <path d="M 378.32333 335.01913 
L 378.32333 238.601739 
" clip-path="url(#pef063a8c78)" style="fill: none; stroke: #b0b0b0; stroke-width: 0.8; stroke-linecap: square"/>
     </g>
     <g id="line2d_74">
      <g>
       <use xlink:href="#m807cf02230" x="378.32333" y="335.01913" style="stroke: #000000; stroke-width: 0.8"/>
      </g>
     </g>
     <g id="text_37">
      <!-- $\mathdefault{−4}$ -->
      <g transform="translate(368.222338 353.088719) scale(0.16 -0.16)">
       <use xlink:href="#CMSY10-0" transform="scale(0.996264)"/>
       <use xlink:href="#CMR17-34" transform="translate(77.487468 0) scale(0.996264)"/>
      </g>
     </g>
    </g>
    <g id="xtick_22">
     <g id="line2d_75">
      <path d="M 440.016577 335.01913 
L 440.016577 238.601739 
" clip-path="url(#pef063a8c78)" style="fill: none; stroke: #b0b0b0; stroke-width: 0.8; stroke-linecap: square"/>
     </g>
     <g id="line2d_76">
      <g>
       <use xlink:href="#m807cf02230" x="440.016577" y="335.01913" style="stroke: #000000; stroke-width: 0.8"/>
      </g>
     </g>
     <g id="text_38">
      <!-- $\mathdefault{−2}$ -->
      <g transform="translate(429.915586 353.088719) scale(0.16 -0.16)">
       <use xlink:href="#CMSY10-0" transform="scale(0.996264)"/>
       <use xlink:href="#CMR17-32" transform="translate(77.487468 0) scale(0.996264)"/>
      </g>
     </g>
    </g>
    <g id="xtick_23">
     <g id="line2d_77">
      <path d="M 501.709825 335.01913 
L 501.709825 238.601739 
" clip-path="url(#pef063a8c78)" style="fill: none; stroke: #b0b0b0; stroke-width: 0.8; stroke-linecap: square"/>
     </g>
     <g id="line2d_78">
      <g>
       <use xlink:href="#m807cf02230" x="501.709825" y="335.01913" style="stroke: #000000; stroke-width: 0.8"/>
      </g>
     </g>
     <g id="text_39">
      <!-- $\mathdefault{0}$ -->
      <g transform="translate(497.807831 353.088719) scale(0.16 -0.16)">
       <use xlink:href="#CMR17-30" transform="scale(0.996264)"/>
      </g>
     </g>
    </g>
    <g id="xtick_24">
     <g id="line2d_79">
      <path d="M 563.403072 335.01913 
L 563.403072 238.601739 
" clip-path="url(#pef063a8c78)" style="fill: none; stroke: #b0b0b0; stroke-width: 0.8; stroke-linecap: square"/>
     </g>
     <g id="line2d_80">
      <g>
       <use xlink:href="#m807cf02230" x="563.403072" y="335.01913" style="stroke: #000000; stroke-width: 0.8"/>
      </g>
     </g>
     <g id="text_40">
      <!-- $\mathdefault{2}$ -->
      <g transform="translate(559.501079 353.088719) scale(0.16 -0.16)">
       <use xlink:href="#CMR17-32" transform="scale(0.996264)"/>
      </g>
     </g>
    </g>
    <g id="xtick_25">
     <g id="line2d_81">
      <path d="M 625.09632 335.01913 
L 625.09632 238.601739 
" clip-path="url(#pef063a8c78)" style="fill: none; stroke: #b0b0b0; stroke-width: 0.8; stroke-linecap: square"/>
     </g>
     <g id="line2d_82">
      <g>
       <use xlink:href="#m807cf02230" x="625.09632" y="335.01913" style="stroke: #000000; stroke-width: 0.8"/>
      </g>
     </g>
     <g id="text_41">
      <!-- $\mathdefault{4}$ -->
      <g transform="translate(621.194326 353.088719) scale(0.16 -0.16)">
       <use xlink:href="#CMR17-34" transform="scale(0.996264)"/>
      </g>
     </g>
    </g>
    <g id="xtick_26">
     <g id="line2d_83">
      <path d="M 686.789567 335.01913 
L 686.789567 238.601739 
" clip-path="url(#pef063a8c78)" style="fill: none; stroke: #b0b0b0; stroke-width: 0.8; stroke-linecap: square"/>
     </g>
     <g id="line2d_84">
      <g>
       <use xlink:href="#m807cf02230" x="686.789567" y="335.01913" style="stroke: #000000; stroke-width: 0.8"/>
      </g>
     </g>
     <g id="text_42">
      <!-- $\mathdefault{6}$ -->
      <g transform="translate(682.887573 353.088719) scale(0.16 -0.16)">
       <use xlink:href="#CMR17-36" transform="scale(0.996264)"/>
      </g>
     </g>
    </g>
   </g>
   <g id="matplotlib.axis_10">
    <g id="ytick_13">
     <g id="line2d_85">
      <path d="M 298.183801 335.01913 
L 704.001983 335.01913 
" clip-path="url(#pef063a8c78)" style="fill: none; stroke: #b0b0b0; stroke-width: 0.8; stroke-linecap: square"/>
     </g>
     <g id="line2d_86">
      <g>
       <use xlink:href="#mfdf7d22760" x="298.183801" y="335.01913" style="stroke: #000000; stroke-width: 0.8"/>
      </g>
     </g>
     <g id="text_43">
      <!-- $\mathdefault{−200}$ -->
      <g transform="translate(255.373844 340.553925) scale(0.16 -0.16)">
       <use xlink:href="#CMSY10-0" transform="scale(0.996264)"/>
       <use xlink:href="#CMR17-32" transform="translate(77.487468 0) scale(0.996264)"/>
       <use xlink:href="#CMR17-30" transform="translate(123.177945 0) scale(0.996264)"/>
       <use xlink:href="#CMR17-30" transform="translate(168.868422 0) scale(0.996264)"/>
      </g>
     </g>
    </g>
    <g id="ytick_14">
     <g id="line2d_87">
      <path d="M 298.183801 286.810435 
L 704.001983 286.810435 
" clip-path="url(#pef063a8c78)" style="fill: none; stroke: #b0b0b0; stroke-width: 0.8; stroke-linecap: square"/>
     </g>
     <g id="line2d_88">
      <g>
       <use xlink:href="#mfdf7d22760" x="298.183801" y="286.810435" style="stroke: #000000; stroke-width: 0.8"/>
      </g>
     </g>
     <g id="text_44">
      <!-- $\mathdefault{0}$ -->
      <g transform="translate(283.379814 292.345229) scale(0.16 -0.16)">
       <use xlink:href="#CMR17-30" transform="scale(0.996264)"/>
      </g>
     </g>
    </g>
    <g id="ytick_15">
     <g id="line2d_89">
      <path d="M 298.183801 238.601739 
L 704.001983 238.601739 
" clip-path="url(#pef063a8c78)" style="fill: none; stroke: #b0b0b0; stroke-width: 0.8; stroke-linecap: square"/>
     </g>
     <g id="line2d_90">
      <g>
       <use xlink:href="#mfdf7d22760" x="298.183801" y="238.601739" style="stroke: #000000; stroke-width: 0.8"/>
      </g>
     </g>
     <g id="text_45">
      <!-- $\mathdefault{200}$ -->
      <g transform="translate(267.77184 244.136533) scale(0.16 -0.16)">
       <use xlink:href="#CMR17-32" transform="scale(0.996264)"/>
       <use xlink:href="#CMR17-30" transform="translate(45.690477 0) scale(0.996264)"/>
       <use xlink:href="#CMR17-30" transform="translate(91.380954 0) scale(0.996264)"/>
      </g>
     </g>
    </g>
   </g>
   <g id="line2d_91">
    <path d="M 316.630082 286.814798 
L 319.714745 287.098481 
L 322.799407 287.576745 
L 325.884069 288.436894 
L 328.968732 289.588827 
L 336.371921 292.405196 
L 338.222719 292.781413 
L 340.690449 293.065607 
L 341.924314 293.053882 
L 343.775111 292.832928 
L 345.625909 292.318283 
L 347.476706 291.460651 
L 348.710571 290.696298 
L 350.561368 289.232835 
L 353.029098 286.912069 
L 356.730693 283.093904 
L 360.432288 279.110945 
L 362.283085 277.341989 
L 364.133883 275.877086 
L 365.98468 274.698286 
L 367.835478 273.894288 
L 369.069343 273.556506 
L 370.303208 273.410322 
L 371.537072 273.529562 
L 373.38787 273.946068 
L 374.621735 274.460301 
L 375.8556 275.222285 
L 377.706397 276.79597 
L 378.940262 278.050023 
L 380.79106 280.278728 
L 382.641857 282.926499 
L 385.109587 286.804488 
L 393.746642 300.956846 
L 395.597439 303.359262 
L 397.448236 305.329297 
L 398.682101 306.281202 
L 399.915966 306.908414 
L 401.149831 307.162738 
L 402.383696 307.122917 
L 403.617561 306.746147 
L 404.851426 306.069857 
L 406.085291 305.06132 
L 407.319156 303.720139 
L 408.553021 302.088454 
L 409.786886 300.18905 
L 411.637683 296.851747 
L 413.488481 293.120166 
L 415.956211 287.503589 
L 422.125535 273.004723 
L 423.976333 269.210268 
L 425.82713 265.85952 
L 427.060995 263.955948 
L 428.29486 262.346901 
L 429.528725 261.120965 
L 430.76259 260.307063 
L 431.996455 259.862771 
L 432.613387 259.798174 
L 433.847252 260.038299 
L 435.081117 260.702437 
L 436.314982 261.790148 
L 437.548847 263.308195 
L 438.782712 265.214487 
L 440.016577 267.565283 
L 441.867375 271.671671 
L 443.718172 276.404424 
L 446.802834 285.233336 
L 453.589092 305.00226 
L 455.439889 309.622577 
L 457.290686 313.506809 
L 458.524551 315.537979 
L 459.758416 317.060576 
L 460.992281 318.141104 
L 462.226146 318.737362 
L 462.843079 318.847026 
L 463.460011 318.829299 
L 464.076944 318.677709 
L 464.693876 318.39096 
L 465.927741 317.441034 
L 467.161606 315.963131 
L 468.395471 313.950087 
L 469.629336 311.458652 
L 470.863201 308.559161 
L 472.713998 303.337253 
L 475.181728 295.341125 
L 478.883323 282.249872 
L 481.967985 271.456275 
L 484.435715 263.616502 
L 486.286513 258.355864 
L 487.520378 255.363841 
L 488.754243 252.886957 
L 489.988108 250.970124 
L 491.221973 249.655593 
L 491.838905 249.20984 
L 492.455837 248.903927 
L 493.07277 248.754754 
L 493.689702 248.75739 
L 494.306635 248.908274 
L 494.923567 249.206377 
L 495.5405 249.651418 
L 496.774365 251.01278 
L 498.00823 252.926347 
L 499.242095 255.471714 
L 500.47596 258.542738 
L 502.326757 264.002682 
L 504.177555 270.127532 
L 507.262217 281.38646 
L 510.963812 294.94722 
L 513.431542 303.095004 
L 515.282339 308.39023 
L 516.516204 311.410359 
L 517.750069 314.00544 
L 518.983934 316.127211 
L 520.217799 317.770778 
L 521.451664 318.890328 
L 522.685529 319.515879 
L 523.302461 319.640115 
L 523.919394 319.619693 
L 524.536326 319.454098 
L 525.153259 319.15086 
L 526.387124 318.161414 
L 527.620989 316.714404 
L 528.854853 314.803013 
L 530.088718 312.486854 
L 531.939516 308.374033 
L 533.790313 303.668729 
L 536.874976 295.083667 
L 543.0443 277.490919 
L 544.895098 272.961984 
L 546.745895 269.050645 
L 547.97976 266.79625 
L 549.213625 264.870493 
L 550.44749 263.366221 
L 551.681355 262.226367 
L 552.91522 261.525336 
L 553.532152 261.335358 
L 554.766017 261.28651 
L 555.999882 261.635524 
L 556.616815 261.927357 
L 557.85068 262.896767 
L 559.084545 264.325869 
L 560.31841 266.041189 
L 562.169207 269.125969 
L 564.020005 272.803492 
L 566.487734 278.284539 
L 572.657059 292.398618 
L 575.124789 297.262246 
L 576.358654 299.338333 
L 578.209451 301.946162 
L 579.443316 303.317135 
L 580.677181 304.372566 
L 581.911046 305.08276 
L 583.144911 305.452293 
L 584.378776 305.568834 
L 585.612641 305.407693 
L 586.846506 304.991496 
L 588.080371 304.279546 
L 589.314236 303.278399 
L 590.548101 302.029824 
L 592.398898 299.788002 
L 594.249696 297.142909 
L 596.717426 293.22959 
L 601.652885 285.042023 
L 603.503683 282.23085 
L 605.35448 279.777634 
L 607.205278 277.687768 
L 608.439143 276.519636 
L 609.673008 275.574225 
L 610.906873 274.888059 
L 612.140738 274.450915 
L 613.374603 274.274591 
L 614.608467 274.298659 
L 615.842332 274.513149 
L 617.076197 274.969938 
L 618.926995 275.957415 
L 620.777792 277.29797 
L 622.62859 278.923779 
L 626.947117 283.310106 
L 631.265644 287.855501 
L 633.733374 290.264075 
L 635.584172 291.723178 
L 637.434969 292.884994 
L 638.668834 293.472669 
L 640.519631 294.012435 
L 641.753496 294.193158 
L 644.221226 294.257799 
L 645.455091 294.166655 
L 647.305889 293.754619 
L 649.156686 293.10711 
L 651.007483 292.284646 
L 658.410673 288.655573 
L 662.112268 287.08239 
L 665.19693 285.992666 
L 667.66466 285.38861 
L 668.898525 285.180004 
L 670.749323 285.200812 
L 675.684782 285.70836 
L 678.769445 286.07532 
L 684.321837 286.76026 
L 685.555702 286.810435 
L 685.555702 286.810435 
" clip-path="url(#pef063a8c78)" style="fill: none; stroke: #2ca02c; stroke-width: 1.5; stroke-linecap: square"/>
   </g>
   <g id="patch_27">
    <path d="M 298.183801 335.01913 
L 298.183801 238.601739 
" style="fill: none; stroke: #000000; stroke-width: 0.8; stroke-linejoin: miter; stroke-linecap: square"/>
   </g>
   <g id="patch_28">
    <path d="M 704.001983 335.01913 
L 704.001983 238.601739 
" style="fill: none; stroke: #000000; stroke-width: 0.8; stroke-linejoin: miter; stroke-linecap: square"/>
   </g>
   <g id="patch_29">
    <path d="M 298.183801 335.01913 
L 704.001983 335.01913 
" style="fill: none; stroke: #000000; stroke-width: 0.8; stroke-linejoin: miter; stroke-linecap: square"/>
   </g>
   <g id="patch_30">
    <path d="M 298.183801 238.601739 
L 704.001983 238.601739 
" style="fill: none; stroke: #000000; stroke-width: 0.8; stroke-linejoin: miter; stroke-linecap: square"/>
   </g>
   <g id="legend_5">
    <g id="patch_31">
     <path d="M 309.383801 275.162395 
L 388.545899 275.162395 
Q 391.745899 275.162395 391.745899 271.962395 
L 391.745899 249.801739 
Q 391.745899 246.601739 388.545899 246.601739 
L 309.383801 246.601739 
Q 306.183801 246.601739 306.183801 249.801739 
L 306.183801 271.962395 
Q 306.183801 275.162395 309.383801 275.162395 
z
" style="fill: #ffffff; opacity: 0.8; stroke: #cccccc; stroke-linejoin: miter"/>
    </g>
    <g id="line2d_92">
     <path d="M 312.583801 258.601739 
L 328.583801 258.601739 
L 344.583801 258.601739 
" style="fill: none; stroke: #2ca02c; stroke-width: 1.5; stroke-linecap: square"/>
    </g>
    <g id="text_46">
     <!-- $R_{xy_2}$ -->
     <g transform="translate(357.383801 264.201739) scale(0.16 -0.16)">
      <use xlink:href="#CMMI12-52" transform="scale(0.996264)"/>
      <use xlink:href="#CMMI12-78" transform="translate(74.250826 -14.943915) scale(0.697382)"/>
      <use xlink:href="#CMMI12-79" transform="translate(113.054485 -14.943915) scale(0.697382)"/>
      <use xlink:href="#CMR17-32" transform="translate(146.349262 -25.404611) scale(0.498132)"/>
     </g>
    </g>
   </g>
  </g>
  <g id="axes_6">
   <g id="patch_32">
    <path d="M 34.401983 450.72 
L 237.311074 450.72 
L 237.311074 354.302609 
L 34.401983 354.302609 
z
" style="fill: #ffffff"/>
   </g>
   <g id="matplotlib.axis_11">
    <g id="xtick_27">
     <g id="line2d_93">
      <path d="M 43.625124 450.72 
L 43.625124 354.302609 
" clip-path="url(#p87d8703954)" style="fill: none; stroke: #b0b0b0; stroke-width: 0.8; stroke-linecap: square"/>
     </g>
     <g id="line2d_94">
      <g>
       <use xlink:href="#m807cf02230" x="43.625124" y="450.72" style="stroke: #000000; stroke-width: 0.8"/>
      </g>
     </g>
     <g id="text_47">
      <!-- $\mathdefault{0}$ -->
      <g transform="translate(39.72313 468.789588) scale(0.16 -0.16)">
       <use xlink:href="#CMR17-30" transform="scale(0.996264)"/>
      </g>
     </g>
    </g>
    <g id="xtick_28">
     <g id="line2d_95">
      <path d="M 105.318371 450.72 
L 105.318371 354.302609 
" clip-path="url(#p87d8703954)" style="fill: none; stroke: #b0b0b0; stroke-width: 0.8; stroke-linecap: square"/>
     </g>
     <g id="line2d_96">
      <g>
       <use xlink:href="#m807cf02230" x="105.318371" y="450.72" style="stroke: #000000; stroke-width: 0.8"/>
      </g>
     </g>
     <g id="text_48">
      <!-- $\mathdefault{2}$ -->
      <g transform="translate(101.416378 468.789588) scale(0.16 -0.16)">
       <use xlink:href="#CMR17-32" transform="scale(0.996264)"/>
      </g>
     </g>
    </g>
    <g id="xtick_29">
     <g id="line2d_97">
      <path d="M 167.011618 450.72 
L 167.011618 354.302609 
" clip-path="url(#p87d8703954)" style="fill: none; stroke: #b0b0b0; stroke-width: 0.8; stroke-linecap: square"/>
     </g>
     <g id="line2d_98">
      <g>
       <use xlink:href="#m807cf02230" x="167.011618" y="450.72" style="stroke: #000000; stroke-width: 0.8"/>
      </g>
     </g>
     <g id="text_49">
      <!-- $\mathdefault{4}$ -->
      <g transform="translate(163.109625 468.789588) scale(0.16 -0.16)">
       <use xlink:href="#CMR17-34" transform="scale(0.996264)"/>
      </g>
     </g>
    </g>
    <g id="xtick_30">
     <g id="line2d_99">
      <path d="M 228.704866 450.72 
L 228.704866 354.302609 
" clip-path="url(#p87d8703954)" style="fill: none; stroke: #b0b0b0; stroke-width: 0.8; stroke-linecap: square"/>
     </g>
     <g id="line2d_100">
      <g>
       <use xlink:href="#m807cf02230" x="228.704866" y="450.72" style="stroke: #000000; stroke-width: 0.8"/>
      </g>
     </g>
     <g id="text_50">
      <!-- $\mathdefault{6}$ -->
      <g transform="translate(224.802872 468.789588) scale(0.16 -0.16)">
       <use xlink:href="#CMR17-36" transform="scale(0.996264)"/>
      </g>
     </g>
    </g>
   </g>
   <g id="matplotlib.axis_12">
    <g id="ytick_16">
     <g id="line2d_101">
      <path d="M 34.401983 441.078261 
L 237.311074 441.078261 
" clip-path="url(#p87d8703954)" style="fill: none; stroke: #b0b0b0; stroke-width: 0.8; stroke-linecap: square"/>
     </g>
     <g id="line2d_102">
      <g>
       <use xlink:href="#mfdf7d22760" x="34.401983" y="441.078261" style="stroke: #000000; stroke-width: 0.8"/>
      </g>
     </g>
     <g id="text_51">
      <!-- $\mathdefault{−2}$ -->
      <g transform="translate(7.2 446.613055) scale(0.16 -0.16)">
       <use xlink:href="#CMSY10-0" transform="scale(0.996264)"/>
       <use xlink:href="#CMR17-32" transform="translate(77.487468 0) scale(0.996264)"/>
      </g>
     </g>
    </g>
    <g id="ytick_17">
     <g id="line2d_103">
      <path d="M 34.401983 402.511304 
L 237.311074 402.511304 
" clip-path="url(#p87d8703954)" style="fill: none; stroke: #b0b0b0; stroke-width: 0.8; stroke-linecap: square"/>
     </g>
     <g id="line2d_104">
      <g>
       <use xlink:href="#mfdf7d22760" x="34.401983" y="402.511304" style="stroke: #000000; stroke-width: 0.8"/>
      </g>
     </g>
     <g id="text_52">
      <!-- $\mathdefault{0}$ -->
      <g transform="translate(19.597996 408.046098) scale(0.16 -0.16)">
       <use xlink:href="#CMR17-30" transform="scale(0.996264)"/>
      </g>
     </g>
    </g>
    <g id="ytick_18">
     <g id="line2d_105">
      <path d="M 34.401983 363.944348 
L 237.311074 363.944348 
" clip-path="url(#p87d8703954)" style="fill: none; stroke: #b0b0b0; stroke-width: 0.8; stroke-linecap: square"/>
     </g>
     <g id="line2d_106">
      <g>
       <use xlink:href="#mfdf7d22760" x="34.401983" y="363.944348" style="stroke: #000000; stroke-width: 0.8"/>
      </g>
     </g>
     <g id="text_53">
      <!-- $\mathdefault{2}$ -->
      <g transform="translate(19.597996 369.479142) scale(0.16 -0.16)">
       <use xlink:href="#CMR17-32" transform="scale(0.996264)"/>
      </g>
     </g>
    </g>
   </g>
   <g id="line2d_107">
    <path d="M 43.625124 402.511304 
L 46.092853 393.221418 
L 47.326718 389.310855 
L 48.560583 386.229725 
L 49.177516 385.063092 
L 49.794448 384.171627 
L 50.411381 383.56939 
L 51.028313 383.265878 
L 51.645246 383.265878 
L 52.262178 383.56939 
L 52.879111 384.171627 
L 53.496043 385.063092 
L 54.112976 386.229725 
L 55.346841 389.310855 
L 56.580706 393.221418 
L 58.431503 400.094444 
L 61.516165 411.801191 
L 62.75003 415.711754 
L 63.983895 418.792884 
L 64.600828 419.959517 
L 65.21776 420.850982 
L 65.834693 421.453219 
L 66.451625 421.756731 
L 67.068558 421.756731 
L 67.68549 421.453219 
L 68.302423 420.850982 
L 68.919355 419.959517 
L 69.536287 418.792884 
L 70.770152 415.711754 
L 72.004017 411.801191 
L 73.854815 404.928165 
L 76.939477 393.221418 
L 78.173342 389.310855 
L 79.407207 386.229725 
L 80.02414 385.063092 
L 80.641072 384.171627 
L 81.258004 383.56939 
L 81.874937 383.265878 
L 82.491869 383.265878 
L 83.108802 383.56939 
L 83.725734 384.171627 
L 84.342667 385.063092 
L 84.959599 386.229725 
L 86.193464 389.310855 
L 87.427329 393.221418 
L 89.278127 400.094444 
L 92.362789 411.801191 
L 93.596654 415.711754 
L 94.830519 418.792884 
L 95.447451 419.959517 
L 96.064384 420.850982 
L 96.681316 421.453219 
L 97.298249 421.756731 
L 97.915181 421.756731 
L 98.532114 421.453219 
L 99.149046 420.850982 
L 99.765979 419.959517 
L 100.382911 418.792884 
L 101.616776 415.711754 
L 102.850641 411.801191 
L 104.701439 404.928165 
L 107.786101 393.221418 
L 109.019966 389.310855 
L 110.253831 386.229725 
L 110.870763 385.063092 
L 111.487696 384.171627 
L 112.104628 383.56939 
L 112.721561 383.265878 
L 113.338493 383.265878 
L 113.955426 383.56939 
L 114.572358 384.171627 
L 115.189291 385.063092 
L 115.806223 386.229725 
L 117.040088 389.310855 
L 118.273953 393.221418 
L 120.12475 400.094444 
L 123.209413 411.801191 
L 124.443278 415.711754 
L 125.677143 418.792884 
L 126.294075 419.959517 
L 126.911008 420.850982 
L 127.52794 421.453219 
L 128.144873 421.756731 
L 128.761805 421.756731 
L 129.378738 421.453219 
L 129.99567 420.850982 
L 130.612602 419.959517 
L 131.229535 418.792884 
L 132.4634 415.711754 
L 133.697265 411.801191 
L 135.548062 404.928165 
L 138.632725 393.221418 
L 139.86659 389.310855 
L 141.100455 386.229725 
L 141.717387 385.063092 
L 142.334319 384.171627 
L 142.951252 383.56939 
L 143.568184 383.265878 
L 144.185117 383.265878 
L 144.802049 383.56939 
L 145.418982 384.171627 
L 146.035914 385.063092 
L 146.652847 386.229725 
L 147.886712 389.310855 
L 149.120577 393.221418 
L 150.971374 400.094444 
L 154.056036 411.801191 
L 155.289901 415.711754 
L 156.523766 418.792884 
L 157.140699 419.959517 
L 157.757631 420.850982 
L 158.374564 421.453219 
L 158.991496 421.756731 
L 159.608429 421.756731 
L 160.225361 421.453219 
L 160.842294 420.850982 
L 161.459226 419.959517 
L 162.076159 418.792884 
L 163.310024 415.711754 
L 164.543889 411.801191 
L 166.394686 404.928165 
L 169.479348 393.221418 
L 170.713213 389.310855 
L 171.947078 386.229725 
L 172.564011 385.063092 
L 173.180943 384.171627 
L 173.797876 383.56939 
L 174.414808 383.265878 
L 175.031741 383.265878 
L 175.648673 383.56939 
L 176.265606 384.171627 
L 176.882538 385.063092 
L 177.499471 386.229725 
L 178.733335 389.310855 
L 179.9672 393.221418 
L 181.817998 400.094444 
L 184.90266 411.801191 
L 186.136525 415.711754 
L 187.37039 418.792884 
L 187.987323 419.959517 
L 188.604255 420.850982 
L 189.221188 421.453219 
L 189.83812 421.756731 
L 190.455053 421.756731 
L 191.071985 421.453219 
L 191.688917 420.850982 
L 192.30585 419.959517 
L 192.922782 418.792884 
L 194.156647 415.711754 
L 195.390512 411.801191 
L 197.24131 404.928165 
L 200.325972 393.221418 
L 201.559837 389.310855 
L 202.793702 386.229725 
L 203.410634 385.063092 
L 204.027567 384.171627 
L 204.644499 383.56939 
L 205.261432 383.265878 
L 205.878364 383.265878 
L 206.495297 383.56939 
L 207.112229 384.171627 
L 207.729162 385.063092 
L 208.346094 386.229725 
L 209.579959 389.310855 
L 210.813824 393.221418 
L 212.664622 400.094444 
L 215.749284 411.801191 
L 216.983149 415.711754 
L 218.217014 418.792884 
L 218.833946 419.959517 
L 219.450879 420.850982 
L 220.067811 421.453219 
L 220.684744 421.756731 
L 221.301676 421.756731 
L 221.918609 421.453219 
L 222.535541 420.850982 
L 223.152474 419.959517 
L 223.769406 418.792884 
L 225.003271 415.711754 
L 226.237136 411.801191 
L 228.087933 404.928165 
L 228.087933 404.928165 
" clip-path="url(#p87d8703954)" style="fill: none; stroke: #d62728; stroke-width: 1.5; stroke-linecap: square"/>
   </g>
   <g id="patch_33">
    <path d="M 34.401983 450.72 
L 34.401983 354.302609 
" style="fill: none; stroke: #000000; stroke-width: 0.8; stroke-linejoin: miter; stroke-linecap: square"/>
   </g>
   <g id="patch_34">
    <path d="M 237.311074 450.72 
L 237.311074 354.302609 
" style="fill: none; stroke: #000000; stroke-width: 0.8; stroke-linejoin: miter; stroke-linecap: square"/>
   </g>
   <g id="patch_35">
    <path d="M 34.401983 450.72 
L 237.311074 450.72 
" style="fill: none; stroke: #000000; stroke-width: 0.8; stroke-linejoin: miter; stroke-linecap: square"/>
   </g>
   <g id="patch_36">
    <path d="M 34.401983 354.302609 
L 237.311074 354.302609 
" style="fill: none; stroke: #000000; stroke-width: 0.8; stroke-linejoin: miter; stroke-linecap: square"/>
   </g>
   <g id="legend_6">
    <g id="patch_37">
     <path d="M 45.601983 391.042833 
L 188.939895 391.042833 
Q 192.139895 391.042833 192.139895 387.842833 
L 192.139895 365.502609 
Q 192.139895 362.302609 188.939895 362.302609 
L 45.601983 362.302609 
Q 42.401983 362.302609 42.401983 365.502609 
L 42.401983 387.842833 
Q 42.401983 391.042833 45.601983 391.042833 
z
" style="fill: #ffffff; opacity: 0.8; stroke: #cccccc; stroke-linejoin: miter"/>
    </g>
    <g id="line2d_108">
     <path d="M 48.801983 375.057777 
L 64.801983 375.057777 
L 80.801983 375.057777 
" style="fill: none; stroke: #d62728; stroke-width: 1.5; stroke-linecap: square"/>
    </g>
    <g id="text_54">
     <!-- $y_3$ ($f=1$ Hz) -->
     <g transform="translate(93.601983 380.657777) scale(0.16 -0.16)">
      <defs>
       <path id="CMR17-33" d="M 1414 2176 
C 1984 2176 2234 1673 2234 1094 
C 2234 322 1824 25 1453 25 
C 1114 25 563 193 390 691 
C 422 678 454 678 486 678 
C 640 678 755 780 755 947 
C 755 1132 614 1216 486 1216 
C 378 1216 211 1164 211 927 
C 211 335 787 -128 1466 -128 
C 2176 -128 2720 432 2720 1087 
C 2720 1718 2208 2176 1600 2246 
C 2086 2347 2554 2776 2554 3353 
C 2554 3856 2048 4224 1472 4224 
C 890 4224 378 3862 378 3347 
C 378 3123 544 3084 627 3084 
C 762 3084 877 3167 877 3334 
C 877 3500 762 3584 627 3584 
C 602 3584 570 3584 544 3571 
C 730 3999 1235 4076 1459 4076 
C 1683 4076 2106 3966 2106 3347 
C 2106 3167 2080 2851 1862 2574 
C 1670 2329 1453 2316 1242 2297 
C 1210 2297 1062 2284 1037 2284 
C 992 2278 966 2272 966 2227 
C 966 2182 973 2176 1101 2176 
L 1414 2176 
z
" transform="scale(0.015625)"/>
      </defs>
      <use xlink:href="#CMMI12-79" transform="scale(0.996264)"/>
      <use xlink:href="#CMR17-33" transform="translate(47.564188 -14.943915) scale(0.697382)"/>
      <use xlink:href="#CMSS17-28" transform="translate(111.274615 0) scale(0.996264)"/>
      <use xlink:href="#CMMI12-66" transform="translate(147.708529 0) scale(0.996264)"/>
      <use xlink:href="#CMR17-3d" transform="translate(234.102842 0) scale(0.996264)"/>
      <use xlink:href="#CMR17-31" transform="translate(333.49164 0) scale(0.996264)"/>
      <use xlink:href="#CMSS17-48" transform="translate(410.411229 0) scale(0.996264)"/>
      <use xlink:href="#CMSS17-7a" transform="translate(476.472749 0) scale(0.996264)"/>
      <use xlink:href="#CMSS17-29" transform="translate(517.15062 0) scale(0.996264)"/>
     </g>
    </g>
   </g>
  </g>
  <g id="axes_7">
   <g id="patch_38">
    <path d="M 298.183801 450.72 
L 704.001983 450.72 
L 704.001983 354.302609 
L 298.183801 354.302609 
z
" style="fill: #ffffff"/>
   </g>
   <g id="matplotlib.axis_13">
    <g id="xtick_31">
     <g id="line2d_109">
      <path d="M 316.630082 450.72 
L 316.630082 354.302609 
" clip-path="url(#p4bfdb06d59)" style="fill: none; stroke: #b0b0b0; stroke-width: 0.8; stroke-linecap: square"/>
     </g>
     <g id="line2d_110">
      <g>
       <use xlink:href="#m807cf02230" x="316.630082" y="450.72" style="stroke: #000000; stroke-width: 0.8"/>
      </g>
     </g>
     <g id="text_55">
      <!-- $\mathdefault{−6}$ -->
      <g transform="translate(306.529091 468.789588) scale(0.16 -0.16)">
       <use xlink:href="#CMSY10-0" transform="scale(0.996264)"/>
       <use xlink:href="#CMR17-36" transform="translate(77.487468 0) scale(0.996264)"/>
      </g>
     </g>
    </g>
    <g id="xtick_32">
     <g id="line2d_111">
      <path d="M 378.32333 450.72 
L 378.32333 354.302609 
" clip-path="url(#p4bfdb06d59)" style="fill: none; stroke: #b0b0b0; stroke-width: 0.8; stroke-linecap: square"/>
     </g>
     <g id="line2d_112">
      <g>
       <use xlink:href="#m807cf02230" x="378.32333" y="450.72" style="stroke: #000000; stroke-width: 0.8"/>
      </g>
     </g>
     <g id="text_56">
      <!-- $\mathdefault{−4}$ -->
      <g transform="translate(368.222338 468.789588) scale(0.16 -0.16)">
       <use xlink:href="#CMSY10-0" transform="scale(0.996264)"/>
       <use xlink:href="#CMR17-34" transform="translate(77.487468 0) scale(0.996264)"/>
      </g>
     </g>
    </g>
    <g id="xtick_33">
     <g id="line2d_113">
      <path d="M 440.016577 450.72 
L 440.016577 354.302609 
" clip-path="url(#p4bfdb06d59)" style="fill: none; stroke: #b0b0b0; stroke-width: 0.8; stroke-linecap: square"/>
     </g>
     <g id="line2d_114">
      <g>
       <use xlink:href="#m807cf02230" x="440.016577" y="450.72" style="stroke: #000000; stroke-width: 0.8"/>
      </g>
     </g>
     <g id="text_57">
      <!-- $\mathdefault{−2}$ -->
      <g transform="translate(429.915586 468.789588) scale(0.16 -0.16)">
       <use xlink:href="#CMSY10-0" transform="scale(0.996264)"/>
       <use xlink:href="#CMR17-32" transform="translate(77.487468 0) scale(0.996264)"/>
      </g>
     </g>
    </g>
    <g id="xtick_34">
     <g id="line2d_115">
      <path d="M 501.709825 450.72 
L 501.709825 354.302609 
" clip-path="url(#p4bfdb06d59)" style="fill: none; stroke: #b0b0b0; stroke-width: 0.8; stroke-linecap: square"/>
     </g>
     <g id="line2d_116">
      <g>
       <use xlink:href="#m807cf02230" x="501.709825" y="450.72" style="stroke: #000000; stroke-width: 0.8"/>
      </g>
     </g>
     <g id="text_58">
      <!-- $\mathdefault{0}$ -->
      <g transform="translate(497.807831 468.789588) scale(0.16 -0.16)">
       <use xlink:href="#CMR17-30" transform="scale(0.996264)"/>
      </g>
     </g>
    </g>
    <g id="xtick_35">
     <g id="line2d_117">
      <path d="M 563.403072 450.72 
L 563.403072 354.302609 
" clip-path="url(#p4bfdb06d59)" style="fill: none; stroke: #b0b0b0; stroke-width: 0.8; stroke-linecap: square"/>
     </g>
     <g id="line2d_118">
      <g>
       <use xlink:href="#m807cf02230" x="563.403072" y="450.72" style="stroke: #000000; stroke-width: 0.8"/>
      </g>
     </g>
     <g id="text_59">
      <!-- $\mathdefault{2}$ -->
      <g transform="translate(559.501079 468.789588) scale(0.16 -0.16)">
       <use xlink:href="#CMR17-32" transform="scale(0.996264)"/>
      </g>
     </g>
    </g>
    <g id="xtick_36">
     <g id="line2d_119">
      <path d="M 625.09632 450.72 
L 625.09632 354.302609 
" clip-path="url(#p4bfdb06d59)" style="fill: none; stroke: #b0b0b0; stroke-width: 0.8; stroke-linecap: square"/>
     </g>
     <g id="line2d_120">
      <g>
       <use xlink:href="#m807cf02230" x="625.09632" y="450.72" style="stroke: #000000; stroke-width: 0.8"/>
      </g>
     </g>
     <g id="text_60">
      <!-- $\mathdefault{4}$ -->
      <g transform="translate(621.194326 468.789588) scale(0.16 -0.16)">
       <use xlink:href="#CMR17-34" transform="scale(0.996264)"/>
      </g>
     </g>
    </g>
    <g id="xtick_37">
     <g id="line2d_121">
      <path d="M 686.789567 450.72 
L 686.789567 354.302609 
" clip-path="url(#p4bfdb06d59)" style="fill: none; stroke: #b0b0b0; stroke-width: 0.8; stroke-linecap: square"/>
     </g>
     <g id="line2d_122">
      <g>
       <use xlink:href="#m807cf02230" x="686.789567" y="450.72" style="stroke: #000000; stroke-width: 0.8"/>
      </g>
     </g>
     <g id="text_61">
      <!-- $\mathdefault{6}$ -->
      <g transform="translate(682.887573 468.789588) scale(0.16 -0.16)">
       <use xlink:href="#CMR17-36" transform="scale(0.996264)"/>
      </g>
     </g>
    </g>
   </g>
   <g id="matplotlib.axis_14">
    <g id="ytick_19">
     <g id="line2d_123">
      <path d="M 298.183801 450.72 
L 704.001983 450.72 
" clip-path="url(#p4bfdb06d59)" style="fill: none; stroke: #b0b0b0; stroke-width: 0.8; stroke-linecap: square"/>
     </g>
     <g id="line2d_124">
      <g>
       <use xlink:href="#mfdf7d22760" x="298.183801" y="450.72" style="stroke: #000000; stroke-width: 0.8"/>
      </g>
     </g>
     <g id="text_62">
      <!-- $\mathdefault{−200}$ -->
      <g transform="translate(255.373844 456.254794) scale(0.16 -0.16)">
       <use xlink:href="#CMSY10-0" transform="scale(0.996264)"/>
       <use xlink:href="#CMR17-32" transform="translate(77.487468 0) scale(0.996264)"/>
       <use xlink:href="#CMR17-30" transform="translate(123.177945 0) scale(0.996264)"/>
       <use xlink:href="#CMR17-30" transform="translate(168.868422 0) scale(0.996264)"/>
      </g>
     </g>
    </g>
    <g id="ytick_20">
     <g id="line2d_125">
      <path d="M 298.183801 402.511304 
L 704.001983 402.511304 
" clip-path="url(#p4bfdb06d59)" style="fill: none; stroke: #b0b0b0; stroke-width: 0.8; stroke-linecap: square"/>
     </g>
     <g id="line2d_126">
      <g>
       <use xlink:href="#mfdf7d22760" x="298.183801" y="402.511304" style="stroke: #000000; stroke-width: 0.8"/>
      </g>
     </g>
     <g id="text_63">
      <!-- $\mathdefault{0}$ -->
      <g transform="translate(283.379814 408.046098) scale(0.16 -0.16)">
       <use xlink:href="#CMR17-30" transform="scale(0.996264)"/>
      </g>
     </g>
    </g>
    <g id="ytick_21">
     <g id="line2d_127">
      <path d="M 298.183801 354.302609 
L 704.001983 354.302609 
" clip-path="url(#p4bfdb06d59)" style="fill: none; stroke: #b0b0b0; stroke-width: 0.8; stroke-linecap: square"/>
     </g>
     <g id="line2d_128">
      <g>
       <use xlink:href="#mfdf7d22760" x="298.183801" y="354.302609" style="stroke: #000000; stroke-width: 0.8"/>
      </g>
     </g>
     <g id="text_64">
      <!-- $\mathdefault{200}$ -->
      <g transform="translate(267.77184 359.837403) scale(0.16 -0.16)">
       <use xlink:href="#CMR17-32" transform="scale(0.996264)"/>
       <use xlink:href="#CMR17-30" transform="translate(45.690477 0) scale(0.996264)"/>
       <use xlink:href="#CMR17-30" transform="translate(91.380954 0) scale(0.996264)"/>
      </g>
     </g>
    </g>
   </g>
   <g id="line2d_129">
    <path d="M 316.630082 402.520014 
L 317.863947 402.727786 
L 322.799407 403.823517 
L 329.585664 406.208401 
L 331.436462 406.545371 
L 332.670327 406.572909 
L 333.904192 406.433672 
L 335.138056 406.079696 
L 336.371921 405.572562 
L 337.605786 404.849399 
L 346.242841 398.95768 
L 348.093638 398.016814 
L 349.944436 397.254222 
L 351.178301 396.920822 
L 352.412166 396.801895 
L 353.646031 396.997552 
L 354.879896 397.420796 
L 356.730693 398.405957 
L 357.964558 399.123778 
L 361.666153 401.729918 
L 364.133883 403.560422 
L 365.98468 404.558063 
L 367.218545 405.002733 
L 368.45241 405.244767 
L 369.686275 405.224622 
L 372.154005 404.754454 
L 373.38787 404.108534 
L 375.8556 402.687873 
L 378.940262 401.322064 
L 380.174127 400.969522 
L 381.407992 400.878082 
L 382.024925 400.904721 
L 383.875722 401.378855 
L 385.726519 402.21557 
L 386.960384 402.998437 
L 392.512777 407.140238 
L 393.746642 407.798896 
L 394.980506 408.265795 
L 396.214371 408.490174 
L 397.448236 408.503935 
L 398.682101 408.093043 
L 399.915966 407.296559 
L 401.149831 406.088326 
L 403.000629 403.928583 
L 407.936088 397.879755 
L 409.169953 396.718021 
L 410.403818 395.814539 
L 411.637683 395.259651 
L 412.871548 395.15022 
L 414.105413 395.344922 
L 414.722346 395.507726 
L 415.956211 396.136485 
L 417.190076 397.050993 
L 419.040873 398.780892 
L 424.593265 404.436538 
L 425.82713 405.259436 
L 427.060995 405.78812 
L 428.29486 405.979651 
L 429.528725 405.947742 
L 430.76259 405.713736 
L 431.996455 405.182497 
L 435.081117 403.396941 
L 438.16578 401.483239 
L 439.399645 400.977421 
L 440.63351 400.681761 
L 442.484307 400.476175 
L 443.718172 400.648542 
L 445.568969 401.283479 
L 448.036699 402.482907 
L 449.887497 403.790708 
L 452.972159 406.026578 
L 454.822957 407.227833 
L 456.673754 407.851424 
L 457.290686 407.945779 
L 457.907619 407.911853 
L 459.141484 407.492899 
L 460.992281 406.281178 
L 462.843079 404.614144 
L 464.693876 402.598061 
L 469.629336 397.13447 
L 471.480133 395.741888 
L 472.713998 395.064377 
L 473.330931 394.853116 
L 474.564796 394.787021 
L 475.181728 394.876951 
L 476.415593 395.396721 
L 477.649458 396.309284 
L 479.500256 398.213623 
L 484.435715 404.295755 
L 485.66958 405.258153 
L 486.903445 405.957154 
L 488.13731 406.489028 
L 489.371175 406.752237 
L 490.60504 406.858692 
L 491.838905 406.705548 
L 493.07277 406.249037 
L 494.306635 405.57449 
L 496.157432 404.217583 
L 499.859027 401.384215 
L 501.709825 400.45571 
L 504.177555 399.299276 
L 506.028352 398.80082 
L 507.262217 398.643622 
L 509.729947 398.646649 
L 512.197677 398.966576 
L 514.048474 399.414214 
L 517.750069 400.737159 
L 525.153259 403.788441 
L 527.620989 404.285124 
L 530.088718 404.516492 
L 533.790313 404.788389 
L 538.725773 405.444533 
L 541.193503 405.351192 
L 546.128963 404.87027 
L 547.362828 404.580245 
L 549.213625 403.954144 
L 554.766017 402.193504 
L 557.85068 401.519573 
L 560.31841 401.54548 
L 566.487734 401.28463 
L 568.338532 401.006915 
L 572.040127 400.395751 
L 574.507857 399.865028 
L 579.443316 399.234094 
L 582.527979 399.412912 
L 583.761844 399.755736 
L 584.995709 400.306573 
L 586.846506 401.520052 
L 593.015831 405.669654 
L 594.249696 406.257702 
L 596.100493 406.880258 
L 597.334358 407.006714 
L 599.802088 406.790049 
L 601.652885 406.302073 
L 604.737548 404.971298 
L 610.28994 402.420532 
L 612.140738 402.01494 
L 613.991535 401.921572 
L 616.459265 401.937453 
L 619.543927 402.217868 
L 623.245522 402.390235 
L 624.479387 402.271156 
L 628.797914 401.479828 
L 630.648712 401.014297 
L 631.882577 400.768321 
L 633.733374 400.500508 
L 636.201104 400.011883 
L 638.051902 399.802978 
L 640.519631 399.597168 
L 642.370429 399.733987 
L 643.604294 400.124577 
L 645.455091 401.122458 
L 648.539754 402.960362 
L 652.241348 405.165651 
L 654.092146 406.168096 
L 655.326011 406.60814 
L 658.410673 407.389041 
L 659.644538 407.341349 
L 660.878403 407.106005 
L 662.112268 406.6169 
L 663.346133 405.956311 
L 665.19693 404.722492 
L 668.898525 402.151437 
L 670.13239 401.67739 
L 671.983188 401.352913 
L 674.450918 401.130267 
L 676.918647 401.041894 
L 679.386377 401.363802 
L 684.93877 402.489259 
L 685.555702 402.511304 
L 685.555702 402.511304 
" clip-path="url(#p4bfdb06d59)" style="fill: none; stroke: #d62728; stroke-width: 1.5; stroke-linecap: square"/>
   </g>
   <g id="patch_39">
    <path d="M 298.183801 450.72 
L 298.183801 354.302609 
" style="fill: none; stroke: #000000; stroke-width: 0.8; stroke-linejoin: miter; stroke-linecap: square"/>
   </g>
   <g id="patch_40">
    <path d="M 704.001983 450.72 
L 704.001983 354.302609 
" style="fill: none; stroke: #000000; stroke-width: 0.8; stroke-linejoin: miter; stroke-linecap: square"/>
   </g>
   <g id="patch_41">
    <path d="M 298.183801 450.72 
L 704.001983 450.72 
" style="fill: none; stroke: #000000; stroke-width: 0.8; stroke-linejoin: miter; stroke-linecap: square"/>
   </g>
   <g id="patch_42">
    <path d="M 298.183801 354.302609 
L 704.001983 354.302609 
" style="fill: none; stroke: #000000; stroke-width: 0.8; stroke-linejoin: miter; stroke-linecap: square"/>
   </g>
   <g id="legend_7">
    <g id="patch_43">
     <path d="M 309.383801 390.863265 
L 388.545899 390.863265 
Q 391.745899 390.863265 391.745899 387.663265 
L 391.745899 365.502609 
Q 391.745899 362.302609 388.545899 362.302609 
L 309.383801 362.302609 
Q 306.183801 362.302609 306.183801 365.502609 
L 306.183801 387.663265 
Q 306.183801 390.863265 309.383801 390.863265 
z
" style="fill: #ffffff; opacity: 0.8; stroke: #cccccc; stroke-linejoin: miter"/>
    </g>
    <g id="line2d_130">
     <path d="M 312.583801 374.302609 
L 328.583801 374.302609 
L 344.583801 374.302609 
" style="fill: none; stroke: #d62728; stroke-width: 1.5; stroke-linecap: square"/>
    </g>
    <g id="text_65">
     <!-- $R_{xy_3}$ -->
     <g transform="translate(357.383801 379.902609) scale(0.16 -0.16)">
      <use xlink:href="#CMMI12-52" transform="scale(0.996264)"/>
      <use xlink:href="#CMMI12-78" transform="translate(74.250826 -14.943915) scale(0.697382)"/>
      <use xlink:href="#CMMI12-79" transform="translate(113.054485 -14.943915) scale(0.697382)"/>
      <use xlink:href="#CMR17-33" transform="translate(146.349262 -25.404611) scale(0.498132)"/>
     </g>
    </g>
   </g>
  </g>
 </g>
 <defs>
  <clipPath id="p2a10ef26bc">
   <rect x="34.401983" y="7.2" width="202.909091" height="96.417391"/>
  </clipPath>
  <clipPath id="p834afbe1df">
   <rect x="34.401983" y="122.90087" width="202.909091" height="96.417391"/>
  </clipPath>
  <clipPath id="p7d3623aeb0">
   <rect x="298.183801" y="122.90087" width="405.818182" height="96.417391"/>
  </clipPath>
  <clipPath id="pd4351f7a6f">
   <rect x="34.401983" y="238.601739" width="202.909091" height="96.417391"/>
  </clipPath>
  <clipPath id="pef063a8c78">
   <rect x="298.183801" y="238.601739" width="405.818182" height="96.417391"/>
  </clipPath>
  <clipPath id="p87d8703954">
   <rect x="34.401983" y="354.302609" width="202.909091" height="96.417391"/>
  </clipPath>
  <clipPath id="p4bfdb06d59">
   <rect x="298.183801" y="354.302609" width="405.818182" height="96.417391"/>
  </clipPath>
 </defs>
</svg>
