<?xml version="1.0" encoding="utf-8" standalone="no"?>
<!DOCTYPE svg PUBLIC "-//W3C//DTD SVG 1.1//EN"
  "http://www.w3.org/Graphics/SVG/1.1/DTD/svg11.dtd">
<svg height="236.101644pt" version="1.1" viewBox="0 0 878.601983 236.101644" width="878.601983pt" xmlns="http://www.w3.org/2000/svg" xmlns:xlink="http://www.w3.org/1999/xlink">
 <metadata>
  <rdf:RDF xmlns:cc="http://creativecommons.org/ns#" xmlns:dc="http://purl.org/dc/elements/1.1/" xmlns:rdf="http://www.w3.org/1999/02/22-rdf-syntax-ns#">
   <cc:Work>
    <dc:type rdf:resource="http://purl.org/dc/dcmitype/StillImage"/>
    <dc:date>2021-11-08T14:23:11.381404</dc:date>
    <dc:format>image/svg+xml</dc:format>
    <dc:creator>
     <cc:Agent>
      <dc:title>Matplotlib v3.4.3, https://matplotlib.org/</dc:title>
     </cc:Agent>
    </dc:creator>
   </cc:Work>
  </rdf:RDF>
 </metadata>
 <defs>
  <style type="text/css">*{stroke-linecap:butt;stroke-linejoin:round;}</style>
 </defs>
 <g id="figure_1">
  <g id="patch_1">
   <path d="M 0 236.101644 
L 878.601983 236.101644 
L 878.601983 -0 
L 0 -0 
z
" style="fill:none;"/>
  </g>
  <g id="axes_1">
   <g id="patch_2">
    <path d="M 34.401983 189.563515 
L 280.578454 189.563515 
L 280.578454 26.483515 
L 34.401983 26.483515 
z
" style="fill:#ffffff;"/>
   </g>
   <g id="matplotlib.axis_1">
    <g id="xtick_1">
     <g id="line2d_1">
      <path clip-path="url(#p34d7f83ee8)" d="M 45.591823 189.563515 
L 45.591823 26.483515 
" style="fill:none;stroke:#b0b0b0;stroke-linecap:square;stroke-width:0.8;"/>
     </g>
     <g id="line2d_2">
      <defs>
       <path d="M 0 0 
L 0 3.5 
" id="m8de0350ab8" style="stroke:#000000;stroke-width:0.8;"/>
      </defs>
      <g>
       <use style="stroke:#000000;stroke-width:0.8;" x="45.591823" xlink:href="#m8de0350ab8" y="189.563515"/>
      </g>
     </g>
     <g id="text_1">
      <!-- $\mathdefault{0}$ -->
      <g transform="translate(41.689829 207.633103)scale(0.16 -0.16)">
       <defs>
        <path d="M 2688 2025 
C 2688 2416 2682 3080 2413 3591 
C 2176 4039 1798 4198 1466 4198 
C 1158 4198 768 4058 525 3597 
C 269 3118 243 2524 243 2025 
C 243 1661 250 1106 448 619 
C 723 -39 1216 -128 1466 -128 
C 1760 -128 2208 -7 2470 600 
C 2662 1042 2688 1559 2688 2025 
z
M 1466 -26 
C 1056 -26 813 325 723 812 
C 653 1188 653 1738 653 2096 
C 653 2588 653 2997 736 3387 
C 858 3929 1216 4096 1466 4096 
C 1728 4096 2067 3923 2189 3400 
C 2272 3036 2278 2607 2278 2096 
C 2278 1680 2278 1169 2202 792 
C 2067 95 1690 -26 1466 -26 
z
" id="CMR17-30" transform="scale(0.015625)"/>
       </defs>
       <use transform="scale(0.996264)" xlink:href="#CMR17-30"/>
      </g>
     </g>
    </g>
    <g id="xtick_2">
     <g id="line2d_3">
      <path clip-path="url(#p34d7f83ee8)" d="M 101.892902 189.563515 
L 101.892902 26.483515 
" style="fill:none;stroke:#b0b0b0;stroke-linecap:square;stroke-width:0.8;"/>
     </g>
     <g id="line2d_4">
      <g>
       <use style="stroke:#000000;stroke-width:0.8;" x="101.892902" xlink:href="#m8de0350ab8" y="189.563515"/>
      </g>
     </g>
     <g id="text_2">
      <!-- $\mathdefault{2}$ -->
      <g transform="translate(97.990909 207.633103)scale(0.16 -0.16)">
       <defs>
        <path d="M 2669 989 
L 2554 989 
C 2490 536 2438 459 2413 420 
C 2381 369 1920 369 1830 369 
L 602 369 
C 832 619 1280 1072 1824 1597 
C 2214 1967 2669 2402 2669 3035 
C 2669 3790 2067 4224 1395 4224 
C 691 4224 262 3604 262 3030 
C 262 2780 448 2748 525 2748 
C 589 2748 781 2787 781 3010 
C 781 3207 614 3264 525 3264 
C 486 3264 448 3258 422 3245 
C 544 3790 915 4058 1306 4058 
C 1862 4058 2227 3617 2227 3035 
C 2227 2479 1901 2000 1536 1584 
L 262 146 
L 262 0 
L 2515 0 
L 2669 989 
z
" id="CMR17-32" transform="scale(0.015625)"/>
       </defs>
       <use transform="scale(0.996264)" xlink:href="#CMR17-32"/>
      </g>
     </g>
    </g>
    <g id="xtick_3">
     <g id="line2d_5">
      <path clip-path="url(#p34d7f83ee8)" d="M 158.193982 189.563515 
L 158.193982 26.483515 
" style="fill:none;stroke:#b0b0b0;stroke-linecap:square;stroke-width:0.8;"/>
     </g>
     <g id="line2d_6">
      <g>
       <use style="stroke:#000000;stroke-width:0.8;" x="158.193982" xlink:href="#m8de0350ab8" y="189.563515"/>
      </g>
     </g>
     <g id="text_3">
      <!-- $\mathdefault{4}$ -->
      <g transform="translate(154.291988 207.633103)scale(0.16 -0.16)">
       <defs>
        <path d="M 2150 4122 
C 2150 4256 2144 4256 2029 4256 
L 128 1254 
L 128 1088 
L 1779 1088 
L 1779 457 
C 1779 224 1766 160 1318 160 
L 1197 160 
L 1197 0 
C 1402 0 1747 0 1965 0 
C 2182 0 2528 0 2733 0 
L 2733 160 
L 2611 160 
C 2163 160 2150 224 2150 457 
L 2150 1088 
L 2803 1088 
L 2803 1254 
L 2150 1254 
L 2150 4122 
z
M 1798 3703 
L 1798 1254 
L 256 1254 
L 1798 3703 
z
" id="CMR17-34" transform="scale(0.015625)"/>
       </defs>
       <use transform="scale(0.996264)" xlink:href="#CMR17-34"/>
      </g>
     </g>
    </g>
    <g id="xtick_4">
     <g id="line2d_7">
      <path clip-path="url(#p34d7f83ee8)" d="M 214.495061 189.563515 
L 214.495061 26.483515 
" style="fill:none;stroke:#b0b0b0;stroke-linecap:square;stroke-width:0.8;"/>
     </g>
     <g id="line2d_8">
      <g>
       <use style="stroke:#000000;stroke-width:0.8;" x="214.495061" xlink:href="#m8de0350ab8" y="189.563515"/>
      </g>
     </g>
     <g id="text_4">
      <!-- $\mathdefault{6}$ -->
      <g transform="translate(210.593068 207.633103)scale(0.16 -0.16)">
       <defs>
        <path d="M 678 2176 
C 678 3690 1395 4032 1811 4032 
C 1946 4032 2272 4009 2400 3776 
C 2298 3776 2106 3776 2106 3553 
C 2106 3381 2246 3323 2336 3323 
C 2394 3323 2566 3348 2566 3560 
C 2566 3954 2246 4179 1805 4179 
C 1043 4179 243 3390 243 1984 
C 243 253 966 -128 1478 -128 
C 2099 -128 2688 427 2688 1283 
C 2688 2081 2170 2662 1517 2662 
C 1126 2662 838 2407 678 1960 
L 678 2176 
z
M 1478 25 
C 691 25 691 1200 691 1436 
C 691 1896 909 2560 1504 2560 
C 1613 2560 1926 2560 2138 2120 
C 2253 1870 2253 1609 2253 1289 
C 2253 944 2253 690 2118 434 
C 1978 171 1773 25 1478 25 
z
" id="CMR17-36" transform="scale(0.015625)"/>
       </defs>
       <use transform="scale(0.996264)" xlink:href="#CMR17-36"/>
      </g>
     </g>
    </g>
    <g id="xtick_5">
     <g id="line2d_9">
      <path clip-path="url(#p34d7f83ee8)" d="M 270.796141 189.563515 
L 270.796141 26.483515 
" style="fill:none;stroke:#b0b0b0;stroke-linecap:square;stroke-width:0.8;"/>
     </g>
     <g id="line2d_10">
      <g>
       <use style="stroke:#000000;stroke-width:0.8;" x="270.796141" xlink:href="#m8de0350ab8" y="189.563515"/>
      </g>
     </g>
     <g id="text_5">
      <!-- $\mathdefault{8}$ -->
      <g transform="translate(266.894148 207.633103)scale(0.16 -0.16)">
       <defs>
        <path d="M 1741 2264 
C 2144 2467 2554 2773 2554 3263 
C 2554 3841 1990 4179 1472 4179 
C 890 4179 378 3759 378 3180 
C 378 3021 416 2747 666 2505 
C 730 2442 998 2251 1171 2130 
C 883 1983 211 1634 211 934 
C 211 279 838 -128 1459 -128 
C 2144 -128 2720 362 2720 1010 
C 2720 1590 2330 1857 2074 2029 
L 1741 2264 
z
M 902 2822 
C 851 2854 595 3051 595 3351 
C 595 3739 998 4032 1459 4032 
C 1965 4032 2336 3676 2336 3262 
C 2336 2669 1670 2331 1638 2331 
C 1632 2331 1626 2331 1574 2370 
L 902 2822 
z
M 2080 1519 
C 2176 1449 2483 1240 2483 851 
C 2483 381 2010 25 1472 25 
C 890 25 448 438 448 940 
C 448 1443 838 1862 1280 2060 
L 2080 1519 
z
" id="CMR17-38" transform="scale(0.015625)"/>
       </defs>
       <use transform="scale(0.996264)" xlink:href="#CMR17-38"/>
      </g>
     </g>
    </g>
    <g id="text_6">
     <!-- Signal reçu -->
     <g transform="translate(121.64817 225.802168)scale(0.16 -0.16)">
      <defs>
       <path d="M 2797 4169 
C 2515 4334 2208 4480 1690 4480 
C 864 4480 333 3879 333 3266 
C 333 3025 403 2753 653 2475 
C 902 2196 1184 2121 1542 2033 
C 1690 1994 1939 1924 1984 1906 
C 2342 1767 2515 1444 2515 1140 
C 2515 742 2202 318 1645 318 
C 1453 318 890 318 358 819 
L 269 318 
C 794 -64 1363 -128 1651 -128 
C 2438 -128 3002 488 3002 1186 
C 3002 1440 2925 1763 2656 2061 
C 2394 2347 2163 2410 1638 2549 
C 1338 2626 1146 2677 986 2873 
C 877 3013 819 3146 819 3317 
C 819 3673 1126 4060 1690 4060 
C 1971 4060 2336 4002 2707 3660 
L 2797 4169 
z
" id="CMSS17-53" transform="scale(0.015625)"/>
       <path d="M 979 4183 
L 442 4183 
L 442 3648 
L 979 3648 
L 979 4183 
z
M 947 2739 
L 474 2739 
L 474 0 
L 947 0 
L 947 2739 
z
" id="CMSS17-69" transform="scale(0.015625)"/>
       <path d="M 2848 2808 
C 2483 2808 2170 2738 1914 2617 
C 1702 2777 1485 2808 1338 2808 
C 781 2808 358 2349 358 1814 
C 358 1468 550 1207 563 1195 
C 448 1035 384 863 384 672 
C 384 448 474 289 544 200 
C 211 -3 166 -314 166 -435 
C 166 -898 749 -1280 1498 -1280 
C 2253 -1280 2835 -898 2835 -428 
C 2835 448 1856 448 1587 448 
L 1069 448 
C 973 448 717 448 717 791 
C 717 921 774 1004 781 1010 
C 877 940 1075 832 1338 832 
C 1869 832 2310 1278 2310 1827 
C 2310 2132 2170 2355 2112 2432 
L 2131 2432 
C 2150 2432 2419 2432 2515 2432 
C 2720 2432 2739 2429 2918 2419 
L 2848 2808 
z
M 1338 1182 
C 1120 1182 813 1315 813 1823 
C 813 2375 1165 2464 1331 2464 
C 1549 2464 1856 2331 1856 1823 
C 1856 1271 1504 1182 1338 1182 
z
M 1581 -10 
C 1734 -10 2381 -10 2381 -442 
C 2381 -714 1984 -929 1504 -929 
C 1018 -929 621 -720 621 -435 
C 621 -403 621 -10 1062 -10 
L 1581 -10 
z
" id="CMSS17-67" transform="scale(0.015625)"/>
       <path d="M 2618 1877 
C 2618 2283 2522 2816 1798 2816 
C 1389 2816 1120 2606 941 2389 
L 941 2758 
L 474 2758 
L 474 0 
L 960 0 
L 960 1559 
C 960 1964 1114 2428 1549 2428 
C 2112 2428 2131 2048 2131 1829 
L 2131 0 
L 2618 0 
L 2618 1877 
z
" id="CMSS17-6e" transform="scale(0.015625)"/>
       <path d="M 2406 1791 
C 2406 2392 1978 2808 1402 2808 
C 1120 2808 813 2757 461 2553 
L 499 2135 
C 659 2248 934 2432 1395 2432 
C 1722 2432 1920 2180 1920 1782 
L 1920 1536 
C 896 1536 256 1238 256 726 
C 256 461 416 -64 947 -64 
C 1043 -64 1562 -64 1933 217 
L 1933 -19 
L 2406 -19 
L 2406 1791 
z
M 1920 816 
C 1920 701 1920 548 1728 434 
C 1562 325 1350 325 1261 325 
C 941 325 723 511 723 744 
C 723 1211 1722 1211 1920 1211 
L 1920 816 
z
" id="CMSS17-61" transform="scale(0.015625)"/>
       <path d="M 947 4416 
L 474 4416 
L 474 0 
L 947 0 
L 947 4416 
z
" id="CMSS17-6c" transform="scale(0.015625)"/>
       <path d="M 954 1363 
C 954 1965 1395 2368 1958 2368 
L 1958 2789 
C 1549 2789 1165 2585 934 2253 
L 934 2758 
L 480 2758 
L 480 0 
L 954 0 
L 954 1363 
z
" id="CMSS17-72" transform="scale(0.015625)"/>
       <path d="M 2502 1377 
C 2502 1590 2490 2003 2285 2345 
C 2061 2713 1696 2816 1421 2816 
C 755 2816 192 2188 192 1375 
C 192 582 774 -64 1510 -64 
C 1798 -64 2150 19 2470 248 
C 2470 274 2458 414 2451 420 
C 2451 433 2432 630 2432 656 
C 2125 407 1773 325 1517 325 
C 1107 325 666 667 646 1377 
L 2502 1377 
z
M 698 1728 
C 781 2084 1062 2421 1421 2421 
C 1517 2421 1965 2421 2080 1728 
L 698 1728 
z
" id="CMSS17-65" transform="scale(0.015625)"/>
       <path d="M 1696 -160 
L 1306 -160 
L 864 -1216 
L 1299 -1216 
L 1696 -160 
z
" id="CMSS17-18" transform="scale(0.015625)"/>
       <path d="M 2464 2541 
C 2464 2585 2170 2714 2093 2739 
C 1882 2816 1613 2816 1542 2816 
C 710 2816 211 2093 211 1363 
C 211 595 768 -64 1517 -64 
C 1946 -64 2253 76 2502 242 
L 2464 664 
C 2189 453 1869 337 1523 337 
C 1024 337 698 774 698 1369 
C 698 1831 909 2414 1549 2414 
C 1901 2414 2099 2343 2394 2145 
L 2464 2541 
z
" id="CMSS17-63" transform="scale(0.015625)"/>
       <path d="M 2618 2739 
L 2131 2739 
L 2131 972 
C 2131 498 1786 306 1421 306 
C 998 306 960 447 960 709 
L 960 2739 
L 474 2739 
L 474 678 
C 474 179 646 -64 1088 -64 
C 1306 -64 1798 -13 2144 306 
L 2144 0 
L 2618 0 
L 2618 2739 
z
" id="CMSS17-75" transform="scale(0.015625)"/>
      </defs>
      <use transform="scale(0.996264)" xlink:href="#CMSS17-53"/>
      <use transform="translate(52.048516 0)scale(0.996264)" xlink:href="#CMSS17-69"/>
      <use transform="translate(74.229239 0)scale(0.996264)" xlink:href="#CMSS17-67"/>
      <use transform="translate(121.072863 0)scale(0.996264)" xlink:href="#CMSS17-6e"/>
      <use transform="translate(169.277806 0)scale(0.996264)" xlink:href="#CMSS17-61"/>
      <use transform="translate(214.199726 0)scale(0.996264)" xlink:href="#CMSS17-6c"/>
      <use transform="translate(267.609562 0)scale(0.996264)" xlink:href="#CMSS17-72"/>
      <use transform="translate(299.519335 0)scale(0.996264)" xlink:href="#CMSS17-65"/>
      <use transform="translate(341.158157 0)scale(0.996264)" xlink:href="#CMSS17-18"/>
      <use transform="translate(341.158157 0)scale(0.996264)" xlink:href="#CMSS17-63"/>
      <use transform="translate(382.796979 0)scale(0.996264)" xlink:href="#CMSS17-75"/>
     </g>
    </g>
   </g>
   <g id="matplotlib.axis_2">
    <g id="ytick_1">
     <g id="line2d_11">
      <path clip-path="url(#p34d7f83ee8)" d="M 34.401983 182.150788 
L 280.578454 182.150788 
" style="fill:none;stroke:#b0b0b0;stroke-linecap:square;stroke-width:0.8;"/>
     </g>
     <g id="line2d_12">
      <defs>
       <path d="M 0 0 
L -3.5 0 
" id="m47e8a5f4b5" style="stroke:#000000;stroke-width:0.8;"/>
      </defs>
      <g>
       <use style="stroke:#000000;stroke-width:0.8;" x="34.401983" xlink:href="#m47e8a5f4b5" y="182.150788"/>
      </g>
     </g>
     <g id="text_7">
      <!-- $\mathdefault{−2}$ -->
      <g transform="translate(7.2 187.685582)scale(0.16 -0.16)">
       <defs>
        <path d="M 4218 1472 
C 4326 1472 4442 1472 4442 1600 
C 4442 1728 4326 1728 4218 1728 
L 755 1728 
C 646 1728 531 1728 531 1600 
C 531 1472 646 1472 755 1472 
L 4218 1472 
z
" id="CMSY10-0" transform="scale(0.015625)"/>
       </defs>
       <use transform="scale(0.996264)" xlink:href="#CMSY10-0"/>
       <use transform="translate(77.487468 0)scale(0.996264)" xlink:href="#CMR17-32"/>
      </g>
     </g>
    </g>
    <g id="ytick_2">
     <g id="line2d_13">
      <path clip-path="url(#p34d7f83ee8)" d="M 34.401983 145.087151 
L 280.578454 145.087151 
" style="fill:none;stroke:#b0b0b0;stroke-linecap:square;stroke-width:0.8;"/>
     </g>
     <g id="line2d_14">
      <g>
       <use style="stroke:#000000;stroke-width:0.8;" x="34.401983" xlink:href="#m47e8a5f4b5" y="145.087151"/>
      </g>
     </g>
     <g id="text_8">
      <!-- $\mathdefault{−1}$ -->
      <g transform="translate(7.2 150.621946)scale(0.16 -0.16)">
       <defs>
        <path d="M 1702 4058 
C 1702 4192 1696 4192 1606 4192 
C 1357 3916 979 3827 621 3827 
C 602 3827 570 3827 563 3808 
C 557 3795 557 3782 557 3648 
C 755 3648 1088 3686 1344 3839 
L 1344 461 
C 1344 236 1331 160 781 160 
L 589 160 
L 589 0 
C 896 0 1216 0 1523 0 
C 1830 0 2150 0 2458 0 
L 2458 160 
L 2266 160 
C 1715 160 1702 230 1702 458 
L 1702 4058 
z
" id="CMR17-31" transform="scale(0.015625)"/>
       </defs>
       <use transform="scale(0.996264)" xlink:href="#CMSY10-0"/>
       <use transform="translate(77.487468 0)scale(0.996264)" xlink:href="#CMR17-31"/>
      </g>
     </g>
    </g>
    <g id="ytick_3">
     <g id="line2d_15">
      <path clip-path="url(#p34d7f83ee8)" d="M 34.401983 108.023515 
L 280.578454 108.023515 
" style="fill:none;stroke:#b0b0b0;stroke-linecap:square;stroke-width:0.8;"/>
     </g>
     <g id="line2d_16">
      <g>
       <use style="stroke:#000000;stroke-width:0.8;" x="34.401983" xlink:href="#m47e8a5f4b5" y="108.023515"/>
      </g>
     </g>
     <g id="text_9">
      <!-- $\mathdefault{0}$ -->
      <g transform="translate(19.597996 113.558309)scale(0.16 -0.16)">
       <use transform="scale(0.996264)" xlink:href="#CMR17-30"/>
      </g>
     </g>
    </g>
    <g id="ytick_4">
     <g id="line2d_17">
      <path clip-path="url(#p34d7f83ee8)" d="M 34.401983 70.959879 
L 280.578454 70.959879 
" style="fill:none;stroke:#b0b0b0;stroke-linecap:square;stroke-width:0.8;"/>
     </g>
     <g id="line2d_18">
      <g>
       <use style="stroke:#000000;stroke-width:0.8;" x="34.401983" xlink:href="#m47e8a5f4b5" y="70.959879"/>
      </g>
     </g>
     <g id="text_10">
      <!-- $\mathdefault{1}$ -->
      <g transform="translate(19.597996 76.494673)scale(0.16 -0.16)">
       <use transform="scale(0.996264)" xlink:href="#CMR17-31"/>
      </g>
     </g>
    </g>
    <g id="ytick_5">
     <g id="line2d_19">
      <path clip-path="url(#p34d7f83ee8)" d="M 34.401983 33.896242 
L 280.578454 33.896242 
" style="fill:none;stroke:#b0b0b0;stroke-linecap:square;stroke-width:0.8;"/>
     </g>
     <g id="line2d_20">
      <g>
       <use style="stroke:#000000;stroke-width:0.8;" x="34.401983" xlink:href="#m47e8a5f4b5" y="33.896242"/>
      </g>
     </g>
     <g id="text_11">
      <!-- $\mathdefault{2}$ -->
      <g transform="translate(19.597996 39.431036)scale(0.16 -0.16)">
       <use transform="scale(0.996264)" xlink:href="#CMR17-32"/>
      </g>
     </g>
    </g>
   </g>
   <g id="line2d_21">
    <path clip-path="url(#p34d7f83ee8)" d="M 45.591823 66.447588 
L 46.99935 46.774866 
L 48.406877 76.522166 
L 49.814404 66.198769 
L 51.221931 72.2666 
L 52.629458 82.936873 
L 54.036985 96.108263 
L 55.444512 44.594241 
L 56.852039 35.085768 
L 58.259566 108.228021 
L 59.667093 101.655449 
L 61.07462 34.758949 
L 62.482146 55.854245 
L 63.889673 48.68019 
L 65.2972 56.024141 
L 66.704727 47.129992 
L 68.112254 80.352497 
L 69.519781 55.907027 
L 70.927308 97.924978 
L 72.334835 49.604771 
L 73.742362 136.150715 
L 75.149889 169.043222 
L 76.557416 141.843569 
L 77.964943 160.443354 
L 79.37247 127.820293 
L 80.779997 143.725712 
L 82.187524 147.306468 
L 83.595051 140.954982 
L 85.002578 171.65523 
L 86.410105 169.921855 
L 87.817632 141.535749 
L 89.225159 132.019315 
L 90.632686 94.700888 
L 92.040213 145.215056 
L 93.44774 111.693445 
L 94.855267 127.242466 
L 96.262794 127.761207 
L 97.670321 184.119021 
L 99.077848 105.293419 
L 100.485375 165.449438 
L 101.892902 155.286347 
L 103.300429 134.220932 
L 104.707956 178.514564 
L 106.115483 152.677071 
L 107.52301 113.290758 
L 108.930537 157.276216 
L 110.338064 165.672069 
L 111.745591 135.415538 
L 113.153118 132.564436 
L 114.560645 158.670572 
L 115.968172 161.462972 
L 117.375699 168.608348 
L 118.783226 132.822058 
L 120.190753 153.245919 
L 121.59828 144.846854 
L 123.005807 161.356582 
L 125.820861 100.726729 
L 127.228388 145.350545 
L 128.635915 140.469306 
L 130.043442 83.566539 
L 131.450969 79.196279 
L 132.858496 84.644976 
L 134.266023 81.989257 
L 135.67355 77.615277 
L 137.081077 60.264555 
L 138.488604 66.657325 
L 139.896131 48.353812 
L 141.303658 56.690586 
L 142.711185 67.680503 
L 144.118712 72.887596 
L 145.526239 55.877626 
L 146.933766 53.032104 
L 148.341293 85.694159 
L 149.74882 76.569422 
L 151.156347 72.126216 
L 153.971401 85.425489 
L 155.378928 22.735504 
L 156.786455 92.608655 
L 158.193982 87.842566 
L 159.601509 81.732501 
L 161.009036 80.912985 
L 162.416563 70.079716 
L 163.82409 74.314564 
L 165.231617 94.01965 
L 166.639144 94.502728 
L 168.046671 48.442949 
L 169.454198 108.869608 
L 170.861725 92.422965 
L 172.269252 33.91495 
L 173.676779 48.893396 
L 175.084306 50.246481 
L 176.491833 97.568488 
L 177.89936 77.29052 
L 179.306887 67.024045 
L 180.714414 85.354511 
L 182.121941 40.888443 
L 183.529468 58.528929 
L 184.936995 57.503653 
L 186.344522 136.363127 
L 187.752049 128.028061 
L 189.159576 140.526936 
L 190.567103 168.440355 
L 191.97463 190.481122 
L 193.382157 144.818585 
L 194.789684 105.276229 
L 196.197211 180.510691 
L 197.604738 144.671959 
L 199.012265 155.420193 
L 200.419792 159.380508 
L 203.234846 149.502465 
L 204.642373 143.299896 
L 206.049899 145.77544 
L 207.457426 138.758349 
L 208.864953 160.492391 
L 210.27248 148.31859 
L 211.680007 133.452302 
L 213.087534 157.242767 
L 214.495061 75.923573 
L 215.902588 67.097398 
L 217.310115 23.188819 
L 218.717642 51.611169 
L 220.125169 60.063272 
L 221.532696 113.693934 
L 222.940223 42.587779 
L 224.34775 58.268694 
L 225.755277 85.99235 
L 227.162804 59.066011 
L 228.570331 47.760803 
L 229.977858 71.506294 
L 231.385385 75.067993 
L 232.792912 66.906473 
L 234.200439 71.246802 
L 235.607966 49.889167 
L 237.015493 59.245067 
L 238.42302 43.351557 
L 239.830547 74.796826 
L 241.238074 79.16875 
L 242.645601 147.079699 
L 244.053128 169.51913 
L 245.460655 126.939249 
L 246.868182 149.203173 
L 248.275709 112.341213 
L 249.683236 159.851966 
L 251.090763 141.015633 
L 252.49829 157.724904 
L 253.905817 147.216525 
L 255.313344 145.30066 
L 256.720871 133.775783 
L 258.128398 114.547748 
L 259.535925 123.78196 
L 260.943452 147.591192 
L 262.350979 144.404379 
L 263.758506 155.8418 
L 265.166033 151.57715 
L 266.57356 128.327486 
L 267.981087 147.080403 
L 269.388614 180.89326 
L 269.388614 180.89326 
" style="fill:none;stroke:#1f77b4;stroke-linecap:square;stroke-width:1.5;"/>
   </g>
   <g id="patch_3">
    <path d="M 34.401983 189.563515 
L 34.401983 26.483515 
" style="fill:none;stroke:#000000;stroke-linecap:square;stroke-linejoin:miter;stroke-width:0.8;"/>
   </g>
   <g id="patch_4">
    <path d="M 280.578454 189.563515 
L 280.578454 26.483515 
" style="fill:none;stroke:#000000;stroke-linecap:square;stroke-linejoin:miter;stroke-width:0.8;"/>
   </g>
   <g id="patch_5">
    <path d="M 34.401983 189.563515 
L 280.578454 189.563515 
" style="fill:none;stroke:#000000;stroke-linecap:square;stroke-linejoin:miter;stroke-width:0.8;"/>
   </g>
   <g id="patch_6">
    <path d="M 34.401983 26.483515 
L 280.578454 26.483515 
" style="fill:none;stroke:#000000;stroke-linecap:square;stroke-linejoin:miter;stroke-width:0.8;"/>
   </g>
   <g id="text_12">
    <!-- 1 -->
    <g style="fill:#ff7f0e;" transform="translate(55.765099 112.008571)scale(0.16 -0.16)">
     <defs>
      <path d="M 1818 4288 
L 1696 4288 
C 1350 3940 947 3890 538 3890 
L 538 3520 
C 723 3520 1024 3520 1325 3667 
L 1325 369 
L 570 369 
L 570 0 
L 2573 0 
L 2573 369 
L 1818 369 
L 1818 4288 
z
" id="CMSS17-31" transform="scale(0.015625)"/>
     </defs>
     <use transform="scale(0.996264)" xlink:href="#CMSS17-31"/>
    </g>
   </g>
   <g id="text_13">
    <!-- 0 -->
    <g style="fill:#ff7f0e;" transform="translate(83.915639 112.008571)scale(0.16 -0.16)">
     <defs>
      <path d="M 2758 2044 
C 2758 2405 2752 3077 2490 3596 
C 2227 4096 1805 4229 1504 4229 
C 1069 4229 698 3975 506 3570 
C 301 3146 243 2709 243 2044 
C 243 1589 262 1031 493 543 
C 755 5 1197 -128 1498 -128 
C 1894 -128 2278 81 2496 518 
C 2720 974 2758 1474 2758 2044 
z
M 1498 261 
C 1011 261 864 811 819 995 
C 742 1310 730 1614 730 2114 
C 730 2506 730 2948 851 3297 
C 998 3701 1254 3840 1498 3840 
C 1971 3840 2125 3372 2176 3208 
C 2272 2873 2272 2481 2272 2114 
C 2272 1526 2272 261 1498 261 
z
" id="CMSS17-30" transform="scale(0.015625)"/>
     </defs>
     <use transform="scale(0.996264)" xlink:href="#CMSS17-30"/>
    </g>
   </g>
   <g id="text_14">
    <!-- 0 -->
    <g style="fill:#ff7f0e;" transform="translate(112.066179 112.008571)scale(0.16 -0.16)">
     <use transform="scale(0.996264)" xlink:href="#CMSS17-30"/>
    </g>
   </g>
   <g id="text_15">
    <!-- 1 -->
    <g style="fill:#ff7f0e;" transform="translate(140.216718 112.008571)scale(0.16 -0.16)">
     <use transform="scale(0.996264)" xlink:href="#CMSS17-31"/>
    </g>
   </g>
   <g id="text_16">
    <!-- 1 -->
    <g style="fill:#ff7f0e;" transform="translate(168.367258 112.008571)scale(0.16 -0.16)">
     <use transform="scale(0.996264)" xlink:href="#CMSS17-31"/>
    </g>
   </g>
   <g id="text_17">
    <!-- 0 -->
    <g style="fill:#ff7f0e;" transform="translate(196.517798 112.008571)scale(0.16 -0.16)">
     <use transform="scale(0.996264)" xlink:href="#CMSS17-30"/>
    </g>
   </g>
   <g id="text_18">
    <!-- 1 -->
    <g style="fill:#ff7f0e;" transform="translate(224.668338 112.008571)scale(0.16 -0.16)">
     <use transform="scale(0.996264)" xlink:href="#CMSS17-31"/>
    </g>
   </g>
   <g id="text_19">
    <!-- 0 -->
    <g style="fill:#ff7f0e;" transform="translate(252.818878 112.008571)scale(0.16 -0.16)">
     <use transform="scale(0.996264)" xlink:href="#CMSS17-30"/>
    </g>
   </g>
   <g id="text_20">
    <!-- $x$ -->
    <g transform="translate(152.168553 20.483515)scale(0.192 -0.192)">
     <defs>
      <path d="M 3034 2606 
C 2829 2567 2752 2414 2752 2293 
C 2752 2139 2874 2088 2963 2088 
C 3155 2088 3290 2254 3290 2427 
C 3290 2695 2982 2816 2714 2816 
C 2323 2816 2106 2433 2048 2312 
C 1901 2816 1504 2816 1389 2816 
C 736 2816 390 1980 390 1839 
C 390 1814 416 1782 461 1782 
C 512 1782 525 1820 538 1846 
C 755 2555 1184 2689 1370 2689 
C 1658 2689 1715 2420 1715 2267 
C 1715 2127 1677 1980 1600 1673 
L 1382 798 
C 1286 415 1101 64 762 64 
C 730 64 570 64 435 147 
C 666 192 717 383 717 460 
C 717 588 621 664 499 664 
C 346 664 179 530 179 326 
C 179 57 480 -64 755 -64 
C 1062 -64 1280 179 1414 441 
C 1517 64 1837 -64 2074 -64 
C 2726 -64 3072 773 3072 913 
C 3072 945 3046 971 3008 971 
C 2950 971 2944 939 2925 888 
C 2752 326 2381 64 2093 64 
C 1869 64 1747 230 1747 492 
C 1747 632 1773 734 1875 1156 
L 2099 2024 
C 2195 2408 2413 2689 2707 2689 
C 2720 2689 2899 2689 3034 2606 
z
" id="CMMI12-78" transform="scale(0.015625)"/>
     </defs>
     <use transform="scale(0.996264)" xlink:href="#CMMI12-78"/>
    </g>
   </g>
  </g>
  <g id="axes_2">
   <g id="patch_7">
    <path d="M 329.813748 189.563515 
L 575.990218 189.563515 
L 575.990218 26.483515 
L 329.813748 26.483515 
z
" style="fill:#ffffff;"/>
   </g>
   <g id="matplotlib.axis_3">
    <g id="xtick_6">
     <g id="line2d_22">
      <path clip-path="url(#p2e7b5f18e0)" d="M 341.003587 189.563515 
L 341.003587 26.483515 
" style="fill:none;stroke:#b0b0b0;stroke-linecap:square;stroke-width:0.8;"/>
     </g>
     <g id="line2d_23">
      <g>
       <use style="stroke:#000000;stroke-width:0.8;" x="341.003587" xlink:href="#m8de0350ab8" y="189.563515"/>
      </g>
     </g>
     <g id="text_21">
      <!-- $\mathdefault{−4}$ -->
      <g transform="translate(330.902596 207.633103)scale(0.16 -0.16)">
       <use transform="scale(0.996264)" xlink:href="#CMSY10-0"/>
       <use transform="translate(77.487468 0)scale(0.996264)" xlink:href="#CMR17-34"/>
      </g>
     </g>
    </g>
    <g id="xtick_7">
     <g id="line2d_24">
      <path clip-path="url(#p2e7b5f18e0)" d="M 396.952785 189.563515 
L 396.952785 26.483515 
" style="fill:none;stroke:#b0b0b0;stroke-linecap:square;stroke-width:0.8;"/>
     </g>
     <g id="line2d_25">
      <g>
       <use style="stroke:#000000;stroke-width:0.8;" x="396.952785" xlink:href="#m8de0350ab8" y="189.563515"/>
      </g>
     </g>
     <g id="text_22">
      <!-- $\mathdefault{−2}$ -->
      <g transform="translate(386.851794 207.633103)scale(0.16 -0.16)">
       <use transform="scale(0.996264)" xlink:href="#CMSY10-0"/>
       <use transform="translate(77.487468 0)scale(0.996264)" xlink:href="#CMR17-32"/>
      </g>
     </g>
    </g>
    <g id="xtick_8">
     <g id="line2d_26">
      <path clip-path="url(#p2e7b5f18e0)" d="M 452.901983 189.563515 
L 452.901983 26.483515 
" style="fill:none;stroke:#b0b0b0;stroke-linecap:square;stroke-width:0.8;"/>
     </g>
     <g id="line2d_27">
      <g>
       <use style="stroke:#000000;stroke-width:0.8;" x="452.901983" xlink:href="#m8de0350ab8" y="189.563515"/>
      </g>
     </g>
     <g id="text_23">
      <!-- $\mathdefault{0}$ -->
      <g transform="translate(448.99999 207.633103)scale(0.16 -0.16)">
       <use transform="scale(0.996264)" xlink:href="#CMR17-30"/>
      </g>
     </g>
    </g>
    <g id="xtick_9">
     <g id="line2d_28">
      <path clip-path="url(#p2e7b5f18e0)" d="M 508.851181 189.563515 
L 508.851181 26.483515 
" style="fill:none;stroke:#b0b0b0;stroke-linecap:square;stroke-width:0.8;"/>
     </g>
     <g id="line2d_29">
      <g>
       <use style="stroke:#000000;stroke-width:0.8;" x="508.851181" xlink:href="#m8de0350ab8" y="189.563515"/>
      </g>
     </g>
     <g id="text_24">
      <!-- $\mathdefault{2}$ -->
      <g transform="translate(504.949187 207.633103)scale(0.16 -0.16)">
       <use transform="scale(0.996264)" xlink:href="#CMR17-32"/>
      </g>
     </g>
    </g>
    <g id="xtick_10">
     <g id="line2d_30">
      <path clip-path="url(#p2e7b5f18e0)" d="M 564.800379 189.563515 
L 564.800379 26.483515 
" style="fill:none;stroke:#b0b0b0;stroke-linecap:square;stroke-width:0.8;"/>
     </g>
     <g id="line2d_31">
      <g>
       <use style="stroke:#000000;stroke-width:0.8;" x="564.800379" xlink:href="#m8de0350ab8" y="189.563515"/>
      </g>
     </g>
     <g id="text_25">
      <!-- $\mathdefault{4}$ -->
      <g transform="translate(560.898385 207.633103)scale(0.16 -0.16)">
       <use transform="scale(0.996264)" xlink:href="#CMR17-34"/>
      </g>
     </g>
    </g>
    <g id="text_26">
     <!-- Motif à chercher -->
     <g transform="translate(399.067402 225.802168)scale(0.16 -0.16)">
      <defs>
       <path d="M 3194 2371 
L 2886 1473 
C 2835 1307 2662 791 2624 587 
L 2618 587 
C 2598 715 2560 849 2458 1174 
C 2400 1365 2336 1562 2272 1741 
L 1325 4416 
L 576 4416 
L 576 0 
L 1075 0 
L 1075 3900 
L 1082 3900 
C 1082 3894 1139 3613 1530 2499 
L 2374 96 
L 2848 96 
L 3610 2231 
C 3661 2378 3821 2843 3891 3066 
C 3955 3257 4115 3728 4154 3913 
L 4160 3913 
L 4160 0 
L 4666 0 
L 4666 4416 
L 3923 4416 
L 3194 2371 
z
" id="CMSS17-4d" transform="scale(0.015625)"/>
       <path d="M 2829 1356 
C 2829 2176 2221 2816 1504 2816 
C 768 2816 173 2157 173 1356 
C 173 544 787 -64 1498 -64 
C 2227 -64 2829 563 2829 1356 
z
M 1504 337 
C 1050 337 659 709 659 1408 
C 659 2151 1114 2427 1498 2427 
C 1914 2427 2342 2126 2342 1408 
C 2342 683 1926 337 1504 337 
z
" id="CMSS17-6f" transform="scale(0.015625)"/>
       <path d="M 1069 2368 
L 1901 2368 
L 1901 2737 
L 1069 2737 
L 1069 3520 
L 614 3520 
L 614 2737 
L 109 2737 
L 109 2368 
L 602 2368 
L 602 749 
C 602 384 685 -64 1107 -64 
C 1427 -64 1722 25 2003 172 
L 1901 548 
C 1747 414 1562 337 1363 337 
C 1082 337 1069 696 1069 856 
L 1069 2368 
z
" id="CMSS17-74" transform="scale(0.015625)"/>
       <path d="M 1075 2368 
L 1722 2368 
L 1722 2737 
L 1062 2737 
L 1062 3559 
C 1062 4014 1408 4092 1606 4092 
C 1670 4092 1850 4092 2080 4009 
L 2080 4429 
C 1933 4461 1754 4480 1613 4480 
C 1018 4480 602 3993 602 3359 
L 602 2737 
L 160 2737 
L 160 2368 
L 602 2368 
L 602 0 
L 1075 0 
L 1075 2368 
z
" id="CMSS17-66" transform="scale(0.015625)"/>
       <path d="M 1389 3328 
L 1779 3328 
L 986 4448 
L 499 4448 
L 1389 3328 
z
" id="CMSS17-12" transform="scale(0.015625)"/>
       <path d="M 2618 1891 
C 2618 2292 2522 2820 1798 2820 
C 1395 2820 1133 2623 947 2407 
L 947 4448 
L 474 4448 
L 474 32 
L 960 32 
L 960 1573 
C 960 1973 1114 2432 1549 2432 
C 2112 2432 2131 2056 2131 1839 
L 2131 32 
L 2618 32 
L 2618 1891 
z
" id="CMSS17-68" transform="scale(0.015625)"/>
      </defs>
      <use transform="scale(0.996264)" xlink:href="#CMSS17-4d"/>
      <use transform="translate(81.67603 0)scale(0.996264)" xlink:href="#CMSS17-6f"/>
      <use transform="translate(128.519653 0)scale(0.996264)" xlink:href="#CMSS17-74"/>
      <use transform="translate(162.35122 0)scale(0.996264)" xlink:href="#CMSS17-69"/>
      <use transform="translate(184.531943 0)scale(0.996264)" xlink:href="#CMSS17-66"/>
      <use transform="translate(243.426856 0)scale(0.996264)" xlink:href="#CMSS17-12"/>
      <use transform="translate(244.387715 0)scale(0.996264)" xlink:href="#CMSS17-61"/>
      <use transform="translate(320.538748 0)scale(0.996264)" xlink:href="#CMSS17-63"/>
      <use transform="translate(362.17757 0)scale(0.996264)" xlink:href="#CMSS17-68"/>
      <use transform="translate(410.382513 0)scale(0.996264)" xlink:href="#CMSS17-65"/>
      <use transform="translate(452.021335 0)scale(0.996264)" xlink:href="#CMSS17-72"/>
      <use transform="translate(483.931108 0)scale(0.996264)" xlink:href="#CMSS17-63"/>
      <use transform="translate(525.56993 0)scale(0.996264)" xlink:href="#CMSS17-68"/>
      <use transform="translate(573.774873 0)scale(0.996264)" xlink:href="#CMSS17-65"/>
      <use transform="translate(615.413695 0)scale(0.996264)" xlink:href="#CMSS17-72"/>
     </g>
    </g>
   </g>
   <g id="matplotlib.axis_4">
    <g id="ytick_6">
     <g id="line2d_32">
      <path clip-path="url(#p2e7b5f18e0)" d="M 329.813748 182.150788 
L 575.990218 182.150788 
" style="fill:none;stroke:#b0b0b0;stroke-linecap:square;stroke-width:0.8;"/>
     </g>
     <g id="line2d_33">
      <g>
       <use style="stroke:#000000;stroke-width:0.8;" x="329.813748" xlink:href="#m47e8a5f4b5" y="182.150788"/>
      </g>
     </g>
     <g id="text_27">
      <!-- $\mathdefault{−2}$ -->
      <g transform="translate(302.611765 187.685582)scale(0.16 -0.16)">
       <use transform="scale(0.996264)" xlink:href="#CMSY10-0"/>
       <use transform="translate(77.487468 0)scale(0.996264)" xlink:href="#CMR17-32"/>
      </g>
     </g>
    </g>
    <g id="ytick_7">
     <g id="line2d_34">
      <path clip-path="url(#p2e7b5f18e0)" d="M 329.813748 145.087151 
L 575.990218 145.087151 
" style="fill:none;stroke:#b0b0b0;stroke-linecap:square;stroke-width:0.8;"/>
     </g>
     <g id="line2d_35">
      <g>
       <use style="stroke:#000000;stroke-width:0.8;" x="329.813748" xlink:href="#m47e8a5f4b5" y="145.087151"/>
      </g>
     </g>
     <g id="text_28">
      <!-- $\mathdefault{−1}$ -->
      <g transform="translate(302.611765 150.621946)scale(0.16 -0.16)">
       <use transform="scale(0.996264)" xlink:href="#CMSY10-0"/>
       <use transform="translate(77.487468 0)scale(0.996264)" xlink:href="#CMR17-31"/>
      </g>
     </g>
    </g>
    <g id="ytick_8">
     <g id="line2d_36">
      <path clip-path="url(#p2e7b5f18e0)" d="M 329.813748 108.023515 
L 575.990218 108.023515 
" style="fill:none;stroke:#b0b0b0;stroke-linecap:square;stroke-width:0.8;"/>
     </g>
     <g id="line2d_37">
      <g>
       <use style="stroke:#000000;stroke-width:0.8;" x="329.813748" xlink:href="#m47e8a5f4b5" y="108.023515"/>
      </g>
     </g>
     <g id="text_29">
      <!-- $\mathdefault{0}$ -->
      <g transform="translate(315.009761 113.558309)scale(0.16 -0.16)">
       <use transform="scale(0.996264)" xlink:href="#CMR17-30"/>
      </g>
     </g>
    </g>
    <g id="ytick_9">
     <g id="line2d_38">
      <path clip-path="url(#p2e7b5f18e0)" d="M 329.813748 70.959879 
L 575.990218 70.959879 
" style="fill:none;stroke:#b0b0b0;stroke-linecap:square;stroke-width:0.8;"/>
     </g>
     <g id="line2d_39">
      <g>
       <use style="stroke:#000000;stroke-width:0.8;" x="329.813748" xlink:href="#m47e8a5f4b5" y="70.959879"/>
      </g>
     </g>
     <g id="text_30">
      <!-- $\mathdefault{1}$ -->
      <g transform="translate(315.009761 76.494673)scale(0.16 -0.16)">
       <use transform="scale(0.996264)" xlink:href="#CMR17-31"/>
      </g>
     </g>
    </g>
    <g id="ytick_10">
     <g id="line2d_40">
      <path clip-path="url(#p2e7b5f18e0)" d="M 329.813748 33.896242 
L 575.990218 33.896242 
" style="fill:none;stroke:#b0b0b0;stroke-linecap:square;stroke-width:0.8;"/>
     </g>
     <g id="line2d_41">
      <g>
       <use style="stroke:#000000;stroke-width:0.8;" x="329.813748" xlink:href="#m47e8a5f4b5" y="33.896242"/>
      </g>
     </g>
     <g id="text_31">
      <!-- $\mathdefault{2}$ -->
      <g transform="translate(315.009761 39.431036)scale(0.16 -0.16)">
       <use transform="scale(0.996264)" xlink:href="#CMR17-32"/>
      </g>
     </g>
    </g>
   </g>
   <g id="line2d_42">
    <path clip-path="url(#p2e7b5f18e0)" d="M 341.003587 108.023515 
L 452.901983 108.023515 
L 452.901983 70.959879 
L 480.876582 70.959879 
L 480.876582 108.023515 
L 564.800379 108.023515 
" style="fill:none;stroke:#1f77b4;stroke-linecap:square;stroke-width:1.5;"/>
   </g>
   <g id="patch_8">
    <path d="M 329.813748 189.563515 
L 329.813748 26.483515 
" style="fill:none;stroke:#000000;stroke-linecap:square;stroke-linejoin:miter;stroke-width:0.8;"/>
   </g>
   <g id="patch_9">
    <path d="M 575.990218 189.563515 
L 575.990218 26.483515 
" style="fill:none;stroke:#000000;stroke-linecap:square;stroke-linejoin:miter;stroke-width:0.8;"/>
   </g>
   <g id="patch_10">
    <path d="M 329.813748 189.563515 
L 575.990218 189.563515 
" style="fill:none;stroke:#000000;stroke-linecap:square;stroke-linejoin:miter;stroke-width:0.8;"/>
   </g>
   <g id="patch_11">
    <path d="M 329.813748 26.483515 
L 575.990218 26.483515 
" style="fill:none;stroke:#000000;stroke-linecap:square;stroke-linejoin:miter;stroke-width:0.8;"/>
   </g>
   <g id="text_32">
    <!-- $y$ -->
    <g transform="translate(448.335824 20.483515)scale(0.192 -0.192)">
     <defs>
      <path d="M 1683 -700 
C 1510 -939 1261 -1152 947 -1152 
C 870 -1152 563 -1152 467 -889 
C 486 -895 518 -895 531 -895 
C 723 -895 851 -729 851 -582 
C 851 -435 730 -384 634 -384 
C 531 -384 307 -458 307 -759 
C 307 -1071 582 -1286 947 -1286 
C 1587 -1286 2234 -700 2413 6 
L 3040 2485 
C 3046 2517 3059 2556 3059 2594 
C 3059 2689 2982 2753 2886 2753 
C 2829 2753 2694 2727 2643 2535 
L 2170 658 
C 2138 543 2138 530 2086 460 
C 1958 281 1747 64 1440 64 
C 1082 64 1050 415 1050 588 
C 1050 952 1222 1443 1395 1903 
C 1466 2088 1504 2178 1504 2305 
C 1504 2574 1312 2816 998 2816 
C 410 2816 173 1890 173 1839 
C 173 1814 198 1782 243 1782 
C 301 1782 307 1807 333 1897 
C 486 2433 730 2689 979 2689 
C 1037 2689 1146 2689 1146 2478 
C 1146 2312 1075 2127 979 1884 
C 666 1047 666 837 666 683 
C 666 77 1101 -64 1421 -64 
C 1606 -64 1837 -6 2061 230 
L 2067 224 
C 1971 -147 1907 -392 1683 -700 
z
" id="CMMI12-79" transform="scale(0.015625)"/>
     </defs>
     <use transform="scale(0.996264)" xlink:href="#CMMI12-79"/>
    </g>
   </g>
  </g>
  <g id="axes_3">
   <g id="patch_12">
    <path d="M 625.225512 189.563515 
L 871.401983 189.563515 
L 871.401983 26.483515 
L 625.225512 26.483515 
z
" style="fill:#ffffff;"/>
   </g>
   <g id="matplotlib.axis_5">
    <g id="xtick_11">
     <g id="line2d_43">
      <path clip-path="url(#pfd0c7766f2)" d="M 636.415352 189.563515 
L 636.415352 26.483515 
" style="fill:none;stroke:#b0b0b0;stroke-linecap:square;stroke-width:0.8;"/>
     </g>
     <g id="line2d_44">
      <g>
       <use style="stroke:#000000;stroke-width:0.8;" x="636.415352" xlink:href="#m8de0350ab8" y="189.563515"/>
      </g>
     </g>
     <g id="text_33">
      <!-- $\mathdefault{0}$ -->
      <g transform="translate(632.513359 207.633103)scale(0.16 -0.16)">
       <use transform="scale(0.996264)" xlink:href="#CMR17-30"/>
      </g>
     </g>
    </g>
    <g id="xtick_12">
     <g id="line2d_45">
      <path clip-path="url(#pfd0c7766f2)" d="M 692.716432 189.563515 
L 692.716432 26.483515 
" style="fill:none;stroke:#b0b0b0;stroke-linecap:square;stroke-width:0.8;"/>
     </g>
     <g id="line2d_46">
      <g>
       <use style="stroke:#000000;stroke-width:0.8;" x="692.716432" xlink:href="#m8de0350ab8" y="189.563515"/>
      </g>
     </g>
     <g id="text_34">
      <!-- $\mathdefault{2}$ -->
      <g transform="translate(688.814438 207.633103)scale(0.16 -0.16)">
       <use transform="scale(0.996264)" xlink:href="#CMR17-32"/>
      </g>
     </g>
    </g>
    <g id="xtick_13">
     <g id="line2d_47">
      <path clip-path="url(#pfd0c7766f2)" d="M 749.017511 189.563515 
L 749.017511 26.483515 
" style="fill:none;stroke:#b0b0b0;stroke-linecap:square;stroke-width:0.8;"/>
     </g>
     <g id="line2d_48">
      <g>
       <use style="stroke:#000000;stroke-width:0.8;" x="749.017511" xlink:href="#m8de0350ab8" y="189.563515"/>
      </g>
     </g>
     <g id="text_35">
      <!-- $\mathdefault{4}$ -->
      <g transform="translate(745.115518 207.633103)scale(0.16 -0.16)">
       <use transform="scale(0.996264)" xlink:href="#CMR17-34"/>
      </g>
     </g>
    </g>
    <g id="xtick_14">
     <g id="line2d_49">
      <path clip-path="url(#pfd0c7766f2)" d="M 805.318591 189.563515 
L 805.318591 26.483515 
" style="fill:none;stroke:#b0b0b0;stroke-linecap:square;stroke-width:0.8;"/>
     </g>
     <g id="line2d_50">
      <g>
       <use style="stroke:#000000;stroke-width:0.8;" x="805.318591" xlink:href="#m8de0350ab8" y="189.563515"/>
      </g>
     </g>
     <g id="text_36">
      <!-- $\mathdefault{6}$ -->
      <g transform="translate(801.416597 207.633103)scale(0.16 -0.16)">
       <use transform="scale(0.996264)" xlink:href="#CMR17-36"/>
      </g>
     </g>
    </g>
    <g id="xtick_15">
     <g id="line2d_51">
      <path clip-path="url(#pfd0c7766f2)" d="M 861.61967 189.563515 
L 861.61967 26.483515 
" style="fill:none;stroke:#b0b0b0;stroke-linecap:square;stroke-width:0.8;"/>
     </g>
     <g id="line2d_52">
      <g>
       <use style="stroke:#000000;stroke-width:0.8;" x="861.61967" xlink:href="#m8de0350ab8" y="189.563515"/>
      </g>
     </g>
     <g id="text_37">
      <!-- $\mathdefault{8}$ -->
      <g transform="translate(857.717677 207.633103)scale(0.16 -0.16)">
       <use transform="scale(0.996264)" xlink:href="#CMR17-38"/>
      </g>
     </g>
    </g>
    <g id="text_38">
     <!-- Intercorrélation -->
     <g transform="translate(699.192935 225.802168)scale(0.16 -0.16)">
      <defs>
       <path d="M 1094 4416 
L 557 4416 
L 557 0 
L 1094 0 
L 1094 4416 
z
" id="CMSS17-49" transform="scale(0.015625)"/>
       <path d="M 2502 4448 
L 2016 4448 
L 1222 3328 
L 1613 3328 
L 2502 4448 
z
" id="CMSS17-13" transform="scale(0.015625)"/>
      </defs>
      <use transform="scale(0.996264)" xlink:href="#CMSS17-49"/>
      <use transform="translate(25.783926 0)scale(0.996264)" xlink:href="#CMSS17-6e"/>
      <use transform="translate(73.988869 0)scale(0.996264)" xlink:href="#CMSS17-74"/>
      <use transform="translate(107.820435 0)scale(0.996264)" xlink:href="#CMSS17-65"/>
      <use transform="translate(149.459257 0)scale(0.996264)" xlink:href="#CMSS17-72"/>
      <use transform="translate(181.36903 0)scale(0.996264)" xlink:href="#CMSS17-63"/>
      <use transform="translate(223.007852 0)scale(0.996264)" xlink:href="#CMSS17-6f"/>
      <use transform="translate(267.249022 0)scale(0.996264)" xlink:href="#CMSS17-72"/>
      <use transform="translate(299.158794 0)scale(0.996264)" xlink:href="#CMSS17-72"/>
      <use transform="translate(328.466158 0)scale(0.996264)" xlink:href="#CMSS17-13"/>
      <use transform="translate(331.068567 0)scale(0.996264)" xlink:href="#CMSS17-65"/>
      <use transform="translate(372.707389 0)scale(0.996264)" xlink:href="#CMSS17-6c"/>
      <use transform="translate(394.888112 0)scale(0.996264)" xlink:href="#CMSS17-61"/>
      <use transform="translate(439.810032 0)scale(0.996264)" xlink:href="#CMSS17-74"/>
      <use transform="translate(473.641599 0)scale(0.996264)" xlink:href="#CMSS17-69"/>
      <use transform="translate(495.822322 0)scale(0.996264)" xlink:href="#CMSS17-6f"/>
      <use transform="translate(542.665946 0)scale(0.996264)" xlink:href="#CMSS17-6e"/>
     </g>
    </g>
   </g>
   <g id="matplotlib.axis_6">
    <g id="ytick_11">
     <g id="line2d_53">
      <path clip-path="url(#pfd0c7766f2)" d="M 625.225512 182.150788 
L 871.401983 182.150788 
" style="fill:none;stroke:#b0b0b0;stroke-linecap:square;stroke-width:0.8;"/>
     </g>
     <g id="line2d_54">
      <g>
       <use style="stroke:#000000;stroke-width:0.8;" x="625.225512" xlink:href="#m47e8a5f4b5" y="182.150788"/>
      </g>
     </g>
     <g id="text_39">
      <!-- $\mathdefault{−2}$ -->
      <g transform="translate(598.023529 187.685582)scale(0.16 -0.16)">
       <use transform="scale(0.996264)" xlink:href="#CMSY10-0"/>
       <use transform="translate(77.487468 0)scale(0.996264)" xlink:href="#CMR17-32"/>
      </g>
     </g>
    </g>
    <g id="ytick_12">
     <g id="line2d_55">
      <path clip-path="url(#pfd0c7766f2)" d="M 625.225512 145.087151 
L 871.401983 145.087151 
" style="fill:none;stroke:#b0b0b0;stroke-linecap:square;stroke-width:0.8;"/>
     </g>
     <g id="line2d_56">
      <g>
       <use style="stroke:#000000;stroke-width:0.8;" x="625.225512" xlink:href="#m47e8a5f4b5" y="145.087151"/>
      </g>
     </g>
     <g id="text_40">
      <!-- $\mathdefault{−1}$ -->
      <g transform="translate(598.023529 150.621946)scale(0.16 -0.16)">
       <use transform="scale(0.996264)" xlink:href="#CMSY10-0"/>
       <use transform="translate(77.487468 0)scale(0.996264)" xlink:href="#CMR17-31"/>
      </g>
     </g>
    </g>
    <g id="ytick_13">
     <g id="line2d_57">
      <path clip-path="url(#pfd0c7766f2)" d="M 625.225512 108.023515 
L 871.401983 108.023515 
" style="fill:none;stroke:#b0b0b0;stroke-linecap:square;stroke-width:0.8;"/>
     </g>
     <g id="line2d_58">
      <g>
       <use style="stroke:#000000;stroke-width:0.8;" x="625.225512" xlink:href="#m47e8a5f4b5" y="108.023515"/>
      </g>
     </g>
     <g id="text_41">
      <!-- $\mathdefault{0}$ -->
      <g transform="translate(610.421525 113.558309)scale(0.16 -0.16)">
       <use transform="scale(0.996264)" xlink:href="#CMR17-30"/>
      </g>
     </g>
    </g>
    <g id="ytick_14">
     <g id="line2d_59">
      <path clip-path="url(#pfd0c7766f2)" d="M 625.225512 70.959879 
L 871.401983 70.959879 
" style="fill:none;stroke:#b0b0b0;stroke-linecap:square;stroke-width:0.8;"/>
     </g>
     <g id="line2d_60">
      <g>
       <use style="stroke:#000000;stroke-width:0.8;" x="625.225512" xlink:href="#m47e8a5f4b5" y="70.959879"/>
      </g>
     </g>
     <g id="text_42">
      <!-- $\mathdefault{1}$ -->
      <g transform="translate(610.421525 76.494673)scale(0.16 -0.16)">
       <use transform="scale(0.996264)" xlink:href="#CMR17-31"/>
      </g>
     </g>
    </g>
    <g id="ytick_15">
     <g id="line2d_61">
      <path clip-path="url(#pfd0c7766f2)" d="M 625.225512 33.896242 
L 871.401983 33.896242 
" style="fill:none;stroke:#b0b0b0;stroke-linecap:square;stroke-width:0.8;"/>
     </g>
     <g id="line2d_62">
      <g>
       <use style="stroke:#000000;stroke-width:0.8;" x="625.225512" xlink:href="#m47e8a5f4b5" y="33.896242"/>
      </g>
     </g>
     <g id="text_43">
      <!-- $\mathdefault{2}$ -->
      <g transform="translate(610.421525 39.431036)scale(0.16 -0.16)">
       <use transform="scale(0.996264)" xlink:href="#CMR17-32"/>
      </g>
     </g>
    </g>
   </g>
   <g id="line2d_63">
    <path clip-path="url(#pfd0c7766f2)" d="M 636.415352 88.769915 
L 637.822879 88.451512 
L 639.230406 84.788284 
L 640.637933 82.17982 
L 642.04546 79.212654 
L 643.452987 76.612685 
L 644.860514 73.568009 
L 646.268041 72.184458 
L 647.675568 69.578634 
L 649.083095 69.073707 
L 650.490622 66.15277 
L 651.898149 69.637926 
L 653.305676 75.751344 
L 654.713203 79.017414 
L 656.12073 83.729643 
L 657.528257 86.507328 
L 658.935784 89.54677 
L 660.343311 92.10668 
L 661.750838 96.924717 
L 663.158365 103.75319 
L 664.565892 106.837882 
L 665.973419 108.831897 
L 667.380946 113.694915 
L 668.788473 115.637247 
L 670.196 120.463991 
L 671.603527 123.247456 
L 673.011054 127.25308 
L 674.418581 129.623515 
L 675.826108 136.034115 
L 677.233635 136.402537 
L 678.641162 142.19477 
L 680.048689 143.151552 
L 681.456216 141.410437 
L 682.863743 143.243987 
L 684.27127 142.855673 
L 685.678797 142.129196 
L 687.086324 142.806721 
L 688.493851 143.725001 
L 689.901378 143.448029 
L 691.308905 141.49349 
L 692.716432 140.930925 
L 694.123959 141.927287 
L 696.939013 145.662797 
L 698.34654 146.06434 
L 701.161594 149.427716 
L 702.569121 149.605128 
L 703.976648 145.435513 
L 705.384175 147.43837 
L 706.791702 146.189363 
L 708.199229 142.603373 
L 709.606756 139.85214 
L 711.014283 135.158661 
L 712.421809 131.62427 
L 713.829336 129.840496 
L 718.051917 115.686089 
L 719.459444 111.892397 
L 722.274498 102.914124 
L 723.682025 97.277588 
L 725.089552 93.288091 
L 727.904606 86.496631 
L 729.312133 82.035113 
L 730.71966 79.410258 
L 732.127187 78.645196 
L 733.534714 72.514444 
L 734.942241 70.121412 
L 737.757295 70.462024 
L 739.164822 70.275425 
L 740.572349 69.679948 
L 741.979876 69.514912 
L 743.387403 71.202667 
L 744.79493 72.594937 
L 746.202457 72.599394 
L 747.609984 75.208345 
L 749.017511 76.445468 
L 750.425038 74.496836 
L 751.832565 74.147624 
L 753.240092 74.008343 
L 754.647619 74.602059 
L 756.055146 74.638114 
L 757.462673 74.383006 
L 758.8702 74.710114 
L 760.277727 72.483261 
L 761.685254 74.272933 
L 763.092781 72.517682 
L 765.907835 77.258488 
L 767.315362 80.239186 
L 768.722889 85.157218 
L 770.130416 90.965546 
L 771.537943 93.505493 
L 772.94547 94.044168 
L 774.352997 100.647555 
L 775.760524 102.437672 
L 777.168051 105.587534 
L 778.575578 111.860812 
L 781.390632 122.092511 
L 782.798159 124.379081 
L 785.613213 131.390042 
L 787.02074 135.146936 
L 788.428267 140.518444 
L 789.835794 144.264612 
L 791.243321 149.251568 
L 794.058375 143.183057 
L 796.873429 131.474692 
L 798.280956 124.9538 
L 799.688483 123.397567 
L 801.09601 120.263145 
L 802.503537 114.151045 
L 803.911064 111.217064 
L 805.318591 106.399355 
L 806.726118 100.81837 
L 808.133645 96.680115 
L 812.356226 85.412288 
L 813.763753 80.968829 
L 816.578807 70.658111 
L 817.986334 67.725337 
L 819.393861 63.821636 
L 820.801388 67.379443 
L 825.023969 82.567651 
L 826.431496 85.181548 
L 827.839023 87.48945 
L 830.654077 97.383653 
L 832.061604 100.444862 
L 834.876658 109.057343 
L 836.284185 111.209416 
L 837.691712 113.645114 
L 839.099239 117.67935 
L 840.506766 121.337229 
L 841.914293 126.634861 
L 844.729347 135.500261 
L 846.136874 139.11444 
L 847.544401 144.200666 
L 848.951928 142.247856 
L 850.359455 139.173076 
L 851.766982 138.227289 
L 853.174509 136.168306 
L 854.582036 135.952421 
L 855.989562 133.360999 
L 857.397089 131.711393 
L 858.804616 129.226323 
L 860.212143 127.266673 
L 860.212143 127.266673 
" style="fill:none;stroke:#1f77b4;stroke-linecap:square;stroke-width:1.5;"/>
   </g>
   <g id="line2d_64">
    <defs>
     <path d="M 0 3 
C 0.795609 3 1.55874 2.683901 2.12132 2.12132 
C 2.683901 1.55874 3 0.795609 3 0 
C 3 -0.795609 2.683901 -1.55874 2.12132 -2.12132 
C 1.55874 -2.683901 0.795609 -3 0 -3 
C -0.795609 -3 -1.55874 -2.683901 -2.12132 -2.12132 
C -2.683901 -1.55874 -3 -0.795609 -3 0 
C -3 0.795609 -2.683901 1.55874 -2.12132 2.12132 
C -1.55874 2.683901 -0.795609 3 0 3 
z
" id="mc07c47f650" style="stroke:#ff7f0e;"/>
    </defs>
    <g clip-path="url(#pfd0c7766f2)">
     <use style="fill:#ff7f0e;stroke:#ff7f0e;" x="650.490622" xlink:href="#mc07c47f650" y="66.15277"/>
    </g>
   </g>
   <g id="line2d_65">
    <g clip-path="url(#pfd0c7766f2)">
     <use style="fill:#ff7f0e;stroke:#ff7f0e;" x="678.641162" xlink:href="#mc07c47f650" y="142.19477"/>
    </g>
   </g>
   <g id="line2d_66">
    <g clip-path="url(#pfd0c7766f2)">
     <use style="fill:#ff7f0e;stroke:#ff7f0e;" x="706.791702" xlink:href="#mc07c47f650" y="146.189363"/>
    </g>
   </g>
   <g id="line2d_67">
    <g clip-path="url(#pfd0c7766f2)">
     <use style="fill:#ff7f0e;stroke:#ff7f0e;" x="734.942241" xlink:href="#mc07c47f650" y="70.121412"/>
    </g>
   </g>
   <g id="line2d_68">
    <g clip-path="url(#pfd0c7766f2)">
     <use style="fill:#ff7f0e;stroke:#ff7f0e;" x="763.092781" xlink:href="#mc07c47f650" y="72.517682"/>
    </g>
   </g>
   <g id="line2d_69">
    <g clip-path="url(#pfd0c7766f2)">
     <use style="fill:#ff7f0e;stroke:#ff7f0e;" x="791.243321" xlink:href="#mc07c47f650" y="149.251568"/>
    </g>
   </g>
   <g id="line2d_70">
    <g clip-path="url(#pfd0c7766f2)">
     <use style="fill:#ff7f0e;stroke:#ff7f0e;" x="819.393861" xlink:href="#mc07c47f650" y="63.821636"/>
    </g>
   </g>
   <g id="line2d_71">
    <g clip-path="url(#pfd0c7766f2)">
     <use style="fill:#ff7f0e;stroke:#ff7f0e;" x="847.544401" xlink:href="#mc07c47f650" y="144.200666"/>
    </g>
   </g>
   <g id="patch_13">
    <path d="M 625.225512 189.563515 
L 625.225512 26.483515 
" style="fill:none;stroke:#000000;stroke-linecap:square;stroke-linejoin:miter;stroke-width:0.8;"/>
   </g>
   <g id="patch_14">
    <path d="M 871.401983 189.563515 
L 871.401983 26.483515 
" style="fill:none;stroke:#000000;stroke-linecap:square;stroke-linejoin:miter;stroke-width:0.8;"/>
   </g>
   <g id="patch_15">
    <path d="M 625.225512 189.563515 
L 871.401983 189.563515 
" style="fill:none;stroke:#000000;stroke-linecap:square;stroke-linejoin:miter;stroke-width:0.8;"/>
   </g>
   <g id="patch_16">
    <path d="M 625.225512 26.483515 
L 871.401983 26.483515 
" style="fill:none;stroke:#000000;stroke-linecap:square;stroke-linejoin:miter;stroke-width:0.8;"/>
   </g>
   <g id="text_44">
    <!-- 1 -->
    <g style="fill:#ff7f0e;" transform="translate(656.12073 63.053294)scale(0.16 -0.16)">
     <use transform="scale(0.996264)" xlink:href="#CMSS17-31"/>
    </g>
   </g>
   <g id="text_45">
    <!-- 0 -->
    <g style="fill:#ff7f0e;" transform="translate(684.27127 139.095294)scale(0.16 -0.16)">
     <use transform="scale(0.996264)" xlink:href="#CMSS17-30"/>
    </g>
   </g>
   <g id="text_46">
    <!-- 0 -->
    <g style="fill:#ff7f0e;" transform="translate(712.421809 143.089887)scale(0.16 -0.16)">
     <use transform="scale(0.996264)" xlink:href="#CMSS17-30"/>
    </g>
   </g>
   <g id="text_47">
    <!-- 1 -->
    <g style="fill:#ff7f0e;" transform="translate(740.572349 67.021936)scale(0.16 -0.16)">
     <use transform="scale(0.996264)" xlink:href="#CMSS17-31"/>
    </g>
   </g>
   <g id="text_48">
    <!-- 1 -->
    <g style="fill:#ff7f0e;" transform="translate(768.722889 69.418206)scale(0.16 -0.16)">
     <use transform="scale(0.996264)" xlink:href="#CMSS17-31"/>
    </g>
   </g>
   <g id="text_49">
    <!-- 0 -->
    <g style="fill:#ff7f0e;" transform="translate(796.873429 146.152092)scale(0.16 -0.16)">
     <use transform="scale(0.996264)" xlink:href="#CMSS17-30"/>
    </g>
   </g>
   <g id="text_50">
    <!-- 1 -->
    <g style="fill:#ff7f0e;" transform="translate(825.023969 60.72216)scale(0.16 -0.16)">
     <use transform="scale(0.996264)" xlink:href="#CMSS17-31"/>
    </g>
   </g>
   <g id="text_51">
    <!-- 0 -->
    <g style="fill:#ff7f0e;" transform="translate(853.174509 141.101189)scale(0.16 -0.16)">
     <use transform="scale(0.996264)" xlink:href="#CMSS17-30"/>
    </g>
   </g>
   <g id="text_52">
    <!-- $R_{xy}$ -->
    <g transform="translate(734.264238 20.483515)scale(0.192 -0.192)">
     <defs>
      <path d="M 2355 3924 
C 2413 4160 2438 4160 2688 4160 
L 3149 4160 
C 3699 4160 4109 3995 4109 3499 
C 4109 3175 3942 2240 2656 2240 
L 1933 2240 
L 2355 3924 
z
M 3245 2169 
C 4038 2341 4659 2851 4659 3398 
C 4659 3894 4154 4352 3264 4352 
L 1530 4352 
C 1402 4352 1344 4352 1344 4226 
C 1344 4160 1389 4160 1510 4160 
C 1894 4160 1894 4112 1894 4045 
C 1894 4033 1894 3994 1869 3899 
L 1005 479 
C 947 256 934 192 493 192 
C 346 192 301 192 301 71 
C 301 7 371 7 390 7 
C 506 7 640 7 762 7 
L 1517 7 
C 1632 7 1766 7 1882 7 
C 1933 7 2003 7 2003 128 
C 2003 192 1946 192 1850 192 
C 1459 192 1459 243 1459 306 
C 1459 313 1459 357 1472 407 
L 1901 2112 
L 2669 2112 
C 3277 2112 3392 1731 3392 1522 
C 3392 1427 3328 1179 3283 1014 
C 3213 723 3194 652 3194 532 
C 3194 82 3565 -128 3994 -128 
C 4512 -128 4736 501 4736 591 
C 4736 635 4704 654 4666 654 
C 4614 654 4602 616 4589 565 
C 4435 114 4173 0 4013 0 
C 3853 0 3750 70 3750 356 
C 3750 509 3827 1088 3834 1120 
C 3866 1355 3866 1380 3866 1432 
C 3866 1896 3488 2093 3245 2169 
z
" id="CMMI12-52" transform="scale(0.015625)"/>
     </defs>
     <use transform="scale(0.996264)" xlink:href="#CMMI12-52"/>
     <use transform="translate(74.250826 -14.943915)scale(0.697382)" xlink:href="#CMMI12-78"/>
     <use transform="translate(113.054485 -14.943915)scale(0.697382)" xlink:href="#CMMI12-79"/>
    </g>
   </g>
  </g>
 </g>
 <defs>
  <clipPath id="p34d7f83ee8">
   <rect height="163.08" width="246.176471" x="34.401983" y="26.483515"/>
  </clipPath>
  <clipPath id="p2e7b5f18e0">
   <rect height="163.08" width="246.176471" x="329.813748" y="26.483515"/>
  </clipPath>
  <clipPath id="pfd0c7766f2">
   <rect height="163.08" width="246.176471" x="625.225512" y="26.483515"/>
  </clipPath>
 </defs>
</svg>
