<?xml version="1.0" encoding="utf-8" standalone="no"?>
<!DOCTYPE svg PUBLIC "-//W3C//DTD SVG 1.1//EN"
  "http://www.w3.org/Graphics/SVG/1.1/DTD/svg11.dtd">
<svg height="229.829064pt" version="1.1" viewBox="0 0 882.656131 229.829064" width="882.656131pt" xmlns="http://www.w3.org/2000/svg" xmlns:xlink="http://www.w3.org/1999/xlink">
 <metadata>
  <rdf:RDF xmlns:cc="http://creativecommons.org/ns#" xmlns:dc="http://purl.org/dc/elements/1.1/" xmlns:rdf="http://www.w3.org/1999/02/22-rdf-syntax-ns#">
   <cc:Work>
    <dc:type rdf:resource="http://purl.org/dc/dcmitype/StillImage"/>
    <dc:date>2021-12-14T17:05:38.259975</dc:date>
    <dc:format>image/svg+xml</dc:format>
    <dc:creator>
     <cc:Agent>
      <dc:title>Matplotlib v3.4.3, https://matplotlib.org/</dc:title>
     </cc:Agent>
    </dc:creator>
   </cc:Work>
  </rdf:RDF>
 </metadata>
 <defs>
  <style type="text/css">*{stroke-linecap:butt;stroke-linejoin:round;}</style>
 </defs>
 <g id="figure_1">
  <g id="patch_1">
   <path d="M 0 229.829064 
L 882.656131 229.829064 
L 882.656131 0 
L 0 0 
z
" style="fill:none;"/>
  </g>
  <g id="axes_1">
   <g id="patch_2">
    <path d="M 38.456131 197.46 
L 875.456131 197.46 
L 875.456131 7.2 
L 38.456131 7.2 
z
" style="fill:#ffffff;"/>
   </g>
   <g id="matplotlib.axis_1">
    <g id="xtick_1">
     <g id="line2d_1">
      <path clip-path="url(#p2ce64d5779)" d="M 76.501586 197.46 
L 76.501586 7.2 
" style="fill:none;stroke:#b0b0b0;stroke-linecap:square;stroke-width:0.8;"/>
     </g>
     <g id="line2d_2">
      <defs>
       <path d="M 0 0 
L 0 3.5 
" id="mbe8f6c52cf" style="stroke:#000000;stroke-width:0.8;"/>
      </defs>
      <g>
       <use style="stroke:#000000;stroke-width:0.8;" x="76.501586" xlink:href="#mbe8f6c52cf" y="197.46"/>
      </g>
     </g>
    </g>
    <g id="xtick_2">
     <g id="line2d_3">
      <path clip-path="url(#p2ce64d5779)" d="M 106.968416 197.46 
L 106.968416 7.2 
" style="fill:none;stroke:#b0b0b0;stroke-linecap:square;stroke-width:0.8;"/>
     </g>
     <g id="line2d_4">
      <g>
       <use style="stroke:#000000;stroke-width:0.8;" x="106.968416" xlink:href="#mbe8f6c52cf" y="197.46"/>
      </g>
     </g>
    </g>
    <g id="xtick_3">
     <g id="line2d_5">
      <path clip-path="url(#p2ce64d5779)" d="M 137.435247 197.46 
L 137.435247 7.2 
" style="fill:none;stroke:#b0b0b0;stroke-linecap:square;stroke-width:0.8;"/>
     </g>
     <g id="line2d_6">
      <g>
       <use style="stroke:#000000;stroke-width:0.8;" x="137.435247" xlink:href="#mbe8f6c52cf" y="197.46"/>
      </g>
     </g>
    </g>
    <g id="xtick_4">
     <g id="line2d_7">
      <path clip-path="url(#p2ce64d5779)" d="M 167.902077 197.46 
L 167.902077 7.2 
" style="fill:none;stroke:#b0b0b0;stroke-linecap:square;stroke-width:0.8;"/>
     </g>
     <g id="line2d_8">
      <g>
       <use style="stroke:#000000;stroke-width:0.8;" x="167.902077" xlink:href="#mbe8f6c52cf" y="197.46"/>
      </g>
     </g>
    </g>
    <g id="xtick_5">
     <g id="line2d_9">
      <path clip-path="url(#p2ce64d5779)" d="M 198.368908 197.46 
L 198.368908 7.2 
" style="fill:none;stroke:#b0b0b0;stroke-linecap:square;stroke-width:0.8;"/>
     </g>
     <g id="line2d_10">
      <g>
       <use style="stroke:#000000;stroke-width:0.8;" x="198.368908" xlink:href="#mbe8f6c52cf" y="197.46"/>
      </g>
     </g>
    </g>
    <g id="xtick_6">
     <g id="line2d_11">
      <path clip-path="url(#p2ce64d5779)" d="M 228.835738 197.46 
L 228.835738 7.2 
" style="fill:none;stroke:#b0b0b0;stroke-linecap:square;stroke-width:0.8;"/>
     </g>
     <g id="line2d_12">
      <g>
       <use style="stroke:#000000;stroke-width:0.8;" x="228.835738" xlink:href="#mbe8f6c52cf" y="197.46"/>
      </g>
     </g>
    </g>
    <g id="xtick_7">
     <g id="line2d_13">
      <path clip-path="url(#p2ce64d5779)" d="M 259.302569 197.46 
L 259.302569 7.2 
" style="fill:none;stroke:#b0b0b0;stroke-linecap:square;stroke-width:0.8;"/>
     </g>
     <g id="line2d_14">
      <g>
       <use style="stroke:#000000;stroke-width:0.8;" x="259.302569" xlink:href="#mbe8f6c52cf" y="197.46"/>
      </g>
     </g>
    </g>
    <g id="xtick_8">
     <g id="line2d_15">
      <path clip-path="url(#p2ce64d5779)" d="M 289.769399 197.46 
L 289.769399 7.2 
" style="fill:none;stroke:#b0b0b0;stroke-linecap:square;stroke-width:0.8;"/>
     </g>
     <g id="line2d_16">
      <g>
       <use style="stroke:#000000;stroke-width:0.8;" x="289.769399" xlink:href="#mbe8f6c52cf" y="197.46"/>
      </g>
     </g>
    </g>
    <g id="xtick_9">
     <g id="line2d_17">
      <path clip-path="url(#p2ce64d5779)" d="M 320.236229 197.46 
L 320.236229 7.2 
" style="fill:none;stroke:#b0b0b0;stroke-linecap:square;stroke-width:0.8;"/>
     </g>
     <g id="line2d_18">
      <g>
       <use style="stroke:#000000;stroke-width:0.8;" x="320.236229" xlink:href="#mbe8f6c52cf" y="197.46"/>
      </g>
     </g>
    </g>
    <g id="xtick_10">
     <g id="line2d_19">
      <path clip-path="url(#p2ce64d5779)" d="M 350.70306 197.46 
L 350.70306 7.2 
" style="fill:none;stroke:#b0b0b0;stroke-linecap:square;stroke-width:0.8;"/>
     </g>
     <g id="line2d_20">
      <g>
       <use style="stroke:#000000;stroke-width:0.8;" x="350.70306" xlink:href="#mbe8f6c52cf" y="197.46"/>
      </g>
     </g>
    </g>
    <g id="xtick_11">
     <g id="line2d_21">
      <path clip-path="url(#p2ce64d5779)" d="M 381.16989 197.46 
L 381.16989 7.2 
" style="fill:none;stroke:#b0b0b0;stroke-linecap:square;stroke-width:0.8;"/>
     </g>
     <g id="line2d_22">
      <g>
       <use style="stroke:#000000;stroke-width:0.8;" x="381.16989" xlink:href="#mbe8f6c52cf" y="197.46"/>
      </g>
     </g>
    </g>
    <g id="xtick_12">
     <g id="line2d_23">
      <path clip-path="url(#p2ce64d5779)" d="M 411.636721 197.46 
L 411.636721 7.2 
" style="fill:none;stroke:#b0b0b0;stroke-linecap:square;stroke-width:0.8;"/>
     </g>
     <g id="line2d_24">
      <g>
       <use style="stroke:#000000;stroke-width:0.8;" x="411.636721" xlink:href="#mbe8f6c52cf" y="197.46"/>
      </g>
     </g>
    </g>
    <g id="xtick_13">
     <g id="line2d_25">
      <path clip-path="url(#p2ce64d5779)" d="M 442.103551 197.46 
L 442.103551 7.2 
" style="fill:none;stroke:#b0b0b0;stroke-linecap:square;stroke-width:0.8;"/>
     </g>
     <g id="line2d_26">
      <g>
       <use style="stroke:#000000;stroke-width:0.8;" x="442.103551" xlink:href="#mbe8f6c52cf" y="197.46"/>
      </g>
     </g>
    </g>
    <g id="xtick_14">
     <g id="line2d_27">
      <path clip-path="url(#p2ce64d5779)" d="M 472.570382 197.46 
L 472.570382 7.2 
" style="fill:none;stroke:#b0b0b0;stroke-linecap:square;stroke-width:0.8;"/>
     </g>
     <g id="line2d_28">
      <g>
       <use style="stroke:#000000;stroke-width:0.8;" x="472.570382" xlink:href="#mbe8f6c52cf" y="197.46"/>
      </g>
     </g>
    </g>
    <g id="xtick_15">
     <g id="line2d_29">
      <path clip-path="url(#p2ce64d5779)" d="M 503.037212 197.46 
L 503.037212 7.2 
" style="fill:none;stroke:#b0b0b0;stroke-linecap:square;stroke-width:0.8;"/>
     </g>
     <g id="line2d_30">
      <g>
       <use style="stroke:#000000;stroke-width:0.8;" x="503.037212" xlink:href="#mbe8f6c52cf" y="197.46"/>
      </g>
     </g>
    </g>
    <g id="xtick_16">
     <g id="line2d_31">
      <path clip-path="url(#p2ce64d5779)" d="M 533.504043 197.46 
L 533.504043 7.2 
" style="fill:none;stroke:#b0b0b0;stroke-linecap:square;stroke-width:0.8;"/>
     </g>
     <g id="line2d_32">
      <g>
       <use style="stroke:#000000;stroke-width:0.8;" x="533.504043" xlink:href="#mbe8f6c52cf" y="197.46"/>
      </g>
     </g>
    </g>
    <g id="xtick_17">
     <g id="line2d_33">
      <path clip-path="url(#p2ce64d5779)" d="M 563.970873 197.46 
L 563.970873 7.2 
" style="fill:none;stroke:#b0b0b0;stroke-linecap:square;stroke-width:0.8;"/>
     </g>
     <g id="line2d_34">
      <g>
       <use style="stroke:#000000;stroke-width:0.8;" x="563.970873" xlink:href="#mbe8f6c52cf" y="197.46"/>
      </g>
     </g>
    </g>
    <g id="xtick_18">
     <g id="line2d_35">
      <path clip-path="url(#p2ce64d5779)" d="M 594.437704 197.46 
L 594.437704 7.2 
" style="fill:none;stroke:#b0b0b0;stroke-linecap:square;stroke-width:0.8;"/>
     </g>
     <g id="line2d_36">
      <g>
       <use style="stroke:#000000;stroke-width:0.8;" x="594.437704" xlink:href="#mbe8f6c52cf" y="197.46"/>
      </g>
     </g>
    </g>
    <g id="xtick_19">
     <g id="line2d_37">
      <path clip-path="url(#p2ce64d5779)" d="M 624.904534 197.46 
L 624.904534 7.2 
" style="fill:none;stroke:#b0b0b0;stroke-linecap:square;stroke-width:0.8;"/>
     </g>
     <g id="line2d_38">
      <g>
       <use style="stroke:#000000;stroke-width:0.8;" x="624.904534" xlink:href="#mbe8f6c52cf" y="197.46"/>
      </g>
     </g>
    </g>
    <g id="xtick_20">
     <g id="line2d_39">
      <path clip-path="url(#p2ce64d5779)" d="M 655.371365 197.46 
L 655.371365 7.2 
" style="fill:none;stroke:#b0b0b0;stroke-linecap:square;stroke-width:0.8;"/>
     </g>
     <g id="line2d_40">
      <g>
       <use style="stroke:#000000;stroke-width:0.8;" x="655.371365" xlink:href="#mbe8f6c52cf" y="197.46"/>
      </g>
     </g>
    </g>
    <g id="xtick_21">
     <g id="line2d_41">
      <path clip-path="url(#p2ce64d5779)" d="M 685.838195 197.46 
L 685.838195 7.2 
" style="fill:none;stroke:#b0b0b0;stroke-linecap:square;stroke-width:0.8;"/>
     </g>
     <g id="line2d_42">
      <g>
       <use style="stroke:#000000;stroke-width:0.8;" x="685.838195" xlink:href="#mbe8f6c52cf" y="197.46"/>
      </g>
     </g>
    </g>
    <g id="xtick_22">
     <g id="line2d_43">
      <path clip-path="url(#p2ce64d5779)" d="M 716.305026 197.46 
L 716.305026 7.2 
" style="fill:none;stroke:#b0b0b0;stroke-linecap:square;stroke-width:0.8;"/>
     </g>
     <g id="line2d_44">
      <g>
       <use style="stroke:#000000;stroke-width:0.8;" x="716.305026" xlink:href="#mbe8f6c52cf" y="197.46"/>
      </g>
     </g>
    </g>
    <g id="xtick_23">
     <g id="line2d_45">
      <path clip-path="url(#p2ce64d5779)" d="M 746.771856 197.46 
L 746.771856 7.2 
" style="fill:none;stroke:#b0b0b0;stroke-linecap:square;stroke-width:0.8;"/>
     </g>
     <g id="line2d_46">
      <g>
       <use style="stroke:#000000;stroke-width:0.8;" x="746.771856" xlink:href="#mbe8f6c52cf" y="197.46"/>
      </g>
     </g>
    </g>
    <g id="xtick_24">
     <g id="line2d_47">
      <path clip-path="url(#p2ce64d5779)" d="M 777.238686 197.46 
L 777.238686 7.2 
" style="fill:none;stroke:#b0b0b0;stroke-linecap:square;stroke-width:0.8;"/>
     </g>
     <g id="line2d_48">
      <g>
       <use style="stroke:#000000;stroke-width:0.8;" x="777.238686" xlink:href="#mbe8f6c52cf" y="197.46"/>
      </g>
     </g>
    </g>
    <g id="xtick_25">
     <g id="line2d_49">
      <path clip-path="url(#p2ce64d5779)" d="M 807.705517 197.46 
L 807.705517 7.2 
" style="fill:none;stroke:#b0b0b0;stroke-linecap:square;stroke-width:0.8;"/>
     </g>
     <g id="line2d_50">
      <g>
       <use style="stroke:#000000;stroke-width:0.8;" x="807.705517" xlink:href="#mbe8f6c52cf" y="197.46"/>
      </g>
     </g>
    </g>
    <g id="text_1">
     <!-- $t$ -->
     <g transform="translate(454.138025 219.529588)scale(0.16 -0.16)">
      <defs>
       <path d="M 1286 2566 
L 1875 2566 
C 1997 2566 2061 2566 2061 2681 
C 2061 2752 2022 2752 1894 2752 
L 1331 2752 
L 1568 3692 
C 1594 3781 1594 3794 1594 3840 
C 1594 3943 1510 4000 1427 4000 
C 1376 4000 1229 3981 1178 3775 
L 928 2752 
L 326 2752 
C 198 2752 141 2752 141 2630 
C 141 2566 186 2566 307 2566 
L 877 2566 
L 454 881 
C 403 658 384 594 384 511 
C 384 211 595 -64 954 -64 
C 1600 -64 1946 868 1946 912 
C 1946 951 1920 970 1882 970 
C 1869 970 1843 970 1830 944 
C 1824 938 1818 931 1773 829 
C 1638 511 1344 64 973 64 
C 781 64 768 224 768 364 
C 768 370 768 492 787 568 
L 1286 2566 
z
" id="CMMI12-74" transform="scale(0.015625)"/>
      </defs>
      <use transform="scale(0.996264)" xlink:href="#CMMI12-74"/>
     </g>
    </g>
   </g>
   <g id="matplotlib.axis_2">
    <g id="ytick_1">
     <g id="line2d_51">
      <path clip-path="url(#p2ce64d5779)" d="M 38.456131 159.036087 
L 875.456131 159.036087 
" style="fill:none;stroke:#b0b0b0;stroke-linecap:square;stroke-width:0.8;"/>
     </g>
     <g id="line2d_52">
      <defs>
       <path d="M 0 0 
L -3.5 0 
" id="m5ff3879099" style="stroke:#000000;stroke-width:0.8;"/>
      </defs>
      <g>
       <use style="stroke:#000000;stroke-width:0.8;" x="38.456131" xlink:href="#m5ff3879099" y="159.036087"/>
      </g>
     </g>
     <g id="text_2">
      <!-- $\mathdefault{−0.5}$ -->
      <g transform="translate(7.2 163.187177)scale(0.12 -0.12)">
       <defs>
        <path d="M 4218 1472 
C 4326 1472 4442 1472 4442 1600 
C 4442 1728 4326 1728 4218 1728 
L 755 1728 
C 646 1728 531 1728 531 1600 
C 531 1472 646 1472 755 1472 
L 4218 1472 
z
" id="CMSY10-0" transform="scale(0.015625)"/>
        <path d="M 2688 2025 
C 2688 2416 2682 3080 2413 3591 
C 2176 4039 1798 4198 1466 4198 
C 1158 4198 768 4058 525 3597 
C 269 3118 243 2524 243 2025 
C 243 1661 250 1106 448 619 
C 723 -39 1216 -128 1466 -128 
C 1760 -128 2208 -7 2470 600 
C 2662 1042 2688 1559 2688 2025 
z
M 1466 -26 
C 1056 -26 813 325 723 812 
C 653 1188 653 1738 653 2096 
C 653 2588 653 2997 736 3387 
C 858 3929 1216 4096 1466 4096 
C 1728 4096 2067 3923 2189 3400 
C 2272 3036 2278 2607 2278 2096 
C 2278 1680 2278 1169 2202 792 
C 2067 95 1690 -26 1466 -26 
z
" id="CMR17-30" transform="scale(0.015625)"/>
        <path d="M 1178 307 
C 1178 492 1024 619 870 619 
C 685 619 557 466 557 313 
C 557 128 710 0 864 0 
C 1050 0 1178 153 1178 307 
z
" id="CMMI12-3a" transform="scale(0.015625)"/>
        <path d="M 730 3692 
C 794 3666 1056 3584 1325 3584 
C 1920 3584 2246 3911 2432 4100 
C 2432 4157 2432 4192 2394 4192 
C 2387 4192 2374 4192 2323 4163 
C 2099 4058 1837 3973 1517 3973 
C 1325 3973 1037 3999 723 4139 
C 653 4171 640 4171 634 4171 
C 602 4171 595 4164 595 4037 
L 595 2203 
C 595 2089 595 2057 659 2057 
C 691 2057 704 2070 736 2114 
C 941 2401 1222 2522 1542 2522 
C 1766 2522 2246 2382 2246 1289 
C 2246 1085 2246 715 2054 421 
C 1894 159 1645 25 1370 25 
C 947 25 518 320 403 814 
C 429 807 480 795 506 795 
C 589 795 749 840 749 1038 
C 749 1210 627 1280 506 1280 
C 358 1280 262 1190 262 1011 
C 262 454 704 -128 1382 -128 
C 2042 -128 2669 440 2669 1264 
C 2669 2030 2170 2624 1549 2624 
C 1222 2624 947 2503 730 2274 
L 730 3692 
z
" id="CMR17-35" transform="scale(0.015625)"/>
       </defs>
       <use transform="scale(0.996264)" xlink:href="#CMSY10-0"/>
       <use transform="translate(77.487468 0)scale(0.996264)" xlink:href="#CMR17-30"/>
       <use transform="translate(123.177945 0)scale(0.996264)" xlink:href="#CMMI12-3a"/>
       <use transform="translate(150.275122 0)scale(0.996264)" xlink:href="#CMR17-35"/>
      </g>
     </g>
    </g>
    <g id="ytick_2">
     <g id="line2d_53">
      <path clip-path="url(#p2ce64d5779)" d="M 38.456131 111.306742 
L 875.456131 111.306742 
" style="fill:none;stroke:#b0b0b0;stroke-linecap:square;stroke-width:0.8;"/>
     </g>
     <g id="line2d_54">
      <g>
       <use style="stroke:#000000;stroke-width:0.8;" x="38.456131" xlink:href="#m5ff3879099" y="111.306742"/>
      </g>
     </g>
     <g id="text_3">
      <!-- $\mathdefault{0.0}$ -->
      <g transform="translate(16.498489 115.457832)scale(0.12 -0.12)">
       <use transform="scale(0.996264)" xlink:href="#CMR17-30"/>
       <use transform="translate(45.690477 0)scale(0.996264)" xlink:href="#CMMI12-3a"/>
       <use transform="translate(72.787654 0)scale(0.996264)" xlink:href="#CMR17-30"/>
      </g>
     </g>
    </g>
    <g id="ytick_3">
     <g id="line2d_55">
      <path clip-path="url(#p2ce64d5779)" d="M 38.456131 63.577397 
L 875.456131 63.577397 
" style="fill:none;stroke:#b0b0b0;stroke-linecap:square;stroke-width:0.8;"/>
     </g>
     <g id="line2d_56">
      <g>
       <use style="stroke:#000000;stroke-width:0.8;" x="38.456131" xlink:href="#m5ff3879099" y="63.577397"/>
      </g>
     </g>
     <g id="text_4">
      <!-- $\mathdefault{0.5}$ -->
      <g transform="translate(16.498489 67.728487)scale(0.12 -0.12)">
       <use transform="scale(0.996264)" xlink:href="#CMR17-30"/>
       <use transform="translate(45.690477 0)scale(0.996264)" xlink:href="#CMMI12-3a"/>
       <use transform="translate(72.787654 0)scale(0.996264)" xlink:href="#CMR17-35"/>
      </g>
     </g>
    </g>
    <g id="ytick_4">
     <g id="line2d_57">
      <path clip-path="url(#p2ce64d5779)" d="M 38.456131 15.848051 
L 875.456131 15.848051 
" style="fill:none;stroke:#b0b0b0;stroke-linecap:square;stroke-width:0.8;"/>
     </g>
     <g id="line2d_58">
      <g>
       <use style="stroke:#000000;stroke-width:0.8;" x="38.456131" xlink:href="#m5ff3879099" y="15.848051"/>
      </g>
     </g>
     <g id="text_5">
      <!-- $\mathdefault{1.0}$ -->
      <g transform="translate(16.498489 19.999141)scale(0.12 -0.12)">
       <defs>
        <path d="M 1702 4058 
C 1702 4192 1696 4192 1606 4192 
C 1357 3916 979 3827 621 3827 
C 602 3827 570 3827 563 3808 
C 557 3795 557 3782 557 3648 
C 755 3648 1088 3686 1344 3839 
L 1344 461 
C 1344 236 1331 160 781 160 
L 589 160 
L 589 0 
C 896 0 1216 0 1523 0 
C 1830 0 2150 0 2458 0 
L 2458 160 
L 2266 160 
C 1715 160 1702 230 1702 458 
L 1702 4058 
z
" id="CMR17-31" transform="scale(0.015625)"/>
       </defs>
       <use transform="scale(0.996264)" xlink:href="#CMR17-31"/>
       <use transform="translate(45.690477 0)scale(0.996264)" xlink:href="#CMMI12-3a"/>
       <use transform="translate(72.787654 0)scale(0.996264)" xlink:href="#CMR17-30"/>
      </g>
     </g>
    </g>
   </g>
   <g id="line2d_59">
    <path clip-path="url(#p2ce64d5779)" d="M 76.501586 43.807254 
L 90.211659 39.911273 
L 103.160062 36.463722 
L 116.108465 33.252647 
L 128.295198 30.455575 
L 140.48193 27.884799 
L 152.668662 25.547515 
L 164.093723 23.574196 
L 175.518785 21.816705 
L 186.943846 20.279364 
L 198.368908 18.965957 
L 209.793969 17.879713 
L 221.21903 17.023306 
L 232.644092 16.398842 
L 244.069153 16.007857 
L 255.494215 15.851314 
L 266.919276 15.929596 
L 278.344338 16.242512 
L 289.769399 16.789292 
L 301.19446 17.568591 
L 312.619522 18.578492 
L 324.044583 19.816509 
L 335.469645 21.279599 
L 346.894706 22.96416 
L 358.319768 24.86605 
L 370.5065 27.128995 
L 382.693232 29.627547 
L 394.879964 32.354713 
L 407.066696 35.30286 
L 420.015099 38.668155 
L 432.963502 42.262961 
L 446.673576 46.306751 
L 460.38365 50.580782 
L 474.855394 55.325302 
L 490.088809 60.557847 
L 506.083895 66.290428 
L 522.840652 72.528265 
L 541.12075 79.565994 
L 562.447532 88.026059 
L 587.582667 98.247267 
L 630.236229 115.882292 
L 666.796426 130.89633 
L 690.40822 140.3544 
L 710.211659 148.055824 
L 728.491758 154.925113 
L 745.248514 160.981749 
L 760.48193 166.260539 
L 774.953674 171.053158 
L 789.425419 175.609984 
L 803.135492 179.693165 
L 816.083895 183.327314 
L 829.032298 186.733905 
L 837.410677 188.811818 
L 837.410677 188.811818 
" style="fill:none;stroke:#1f77b4;stroke-linecap:square;stroke-width:1.5;"/>
   </g>
   <g id="line2d_60">
    <path clip-path="url(#p2ce64d5779)" d="M 76.501586 111.306742 
L 76.501586 43.807254 
" style="fill:none;stroke:#ff7f0e;stroke-linecap:square;stroke-width:1.5;"/>
   </g>
   <g id="line2d_61">
    <defs>
     <path d="M 0 -4 
L -4 4 
L 4 4 
z
" id="mec0a3671bc" style="stroke:#ff7f0e;stroke-linejoin:miter;"/>
    </defs>
    <g clip-path="url(#p2ce64d5779)">
     <use style="fill:#ff7f0e;stroke:#ff7f0e;stroke-linejoin:miter;" x="76.501586" xlink:href="#mec0a3671bc" y="43.807254"/>
    </g>
   </g>
   <g id="line2d_62">
    <path clip-path="url(#p2ce64d5779)" d="M 106.968416 111.306742 
L 106.968416 35.494271 
" style="fill:none;stroke:#ff7f0e;stroke-linecap:square;stroke-width:1.5;"/>
   </g>
   <g id="line2d_63">
    <g clip-path="url(#p2ce64d5779)">
     <use style="fill:#ff7f0e;stroke:#ff7f0e;stroke-linejoin:miter;" x="106.968416" xlink:href="#mec0a3671bc" y="35.494271"/>
    </g>
   </g>
   <g id="line2d_64">
    <path clip-path="url(#p2ce64d5779)" d="M 137.435247 111.306742 
L 137.435247 28.505873 
" style="fill:none;stroke:#ff7f0e;stroke-linecap:square;stroke-width:1.5;"/>
   </g>
   <g id="line2d_65">
    <g clip-path="url(#p2ce64d5779)">
     <use style="fill:#ff7f0e;stroke:#ff7f0e;stroke-linejoin:miter;" x="137.435247" xlink:href="#mec0a3671bc" y="28.505873"/>
    </g>
   </g>
   <g id="line2d_66">
    <path clip-path="url(#p2ce64d5779)" d="M 167.902077 111.306742 
L 167.902077 22.96416 
" style="fill:none;stroke:#ff7f0e;stroke-linecap:square;stroke-width:1.5;"/>
   </g>
   <g id="line2d_67">
    <g clip-path="url(#p2ce64d5779)">
     <use style="fill:#ff7f0e;stroke:#ff7f0e;stroke-linejoin:miter;" x="167.902077" xlink:href="#mec0a3671bc" y="22.96416"/>
    </g>
   </g>
   <g id="line2d_68">
    <path clip-path="url(#p2ce64d5779)" d="M 198.368908 111.306742 
L 198.368908 18.965957 
" style="fill:none;stroke:#ff7f0e;stroke-linecap:square;stroke-width:1.5;"/>
   </g>
   <g id="line2d_69">
    <g clip-path="url(#p2ce64d5779)">
     <use style="fill:#ff7f0e;stroke:#ff7f0e;stroke-linejoin:miter;" x="198.368908" xlink:href="#mec0a3671bc" y="18.965957"/>
    </g>
   </g>
   <g id="line2d_70">
    <path clip-path="url(#p2ce64d5779)" d="M 228.835738 111.306742 
L 228.835738 16.581119 
" style="fill:none;stroke:#ff7f0e;stroke-linecap:square;stroke-width:1.5;"/>
   </g>
   <g id="line2d_71">
    <g clip-path="url(#p2ce64d5779)">
     <use style="fill:#ff7f0e;stroke:#ff7f0e;stroke-linejoin:miter;" x="228.835738" xlink:href="#mec0a3671bc" y="16.581119"/>
    </g>
   </g>
   <g id="line2d_72">
    <path clip-path="url(#p2ce64d5779)" d="M 259.302569 111.306742 
L 259.302569 15.851314 
" style="fill:none;stroke:#ff7f0e;stroke-linecap:square;stroke-width:1.5;"/>
   </g>
   <g id="line2d_73">
    <g clip-path="url(#p2ce64d5779)">
     <use style="fill:#ff7f0e;stroke:#ff7f0e;stroke-linejoin:miter;" x="259.302569" xlink:href="#mec0a3671bc" y="15.851314"/>
    </g>
   </g>
   <g id="line2d_74">
    <path clip-path="url(#p2ce64d5779)" d="M 289.769399 111.306742 
L 289.769399 16.789292 
" style="fill:none;stroke:#ff7f0e;stroke-linecap:square;stroke-width:1.5;"/>
   </g>
   <g id="line2d_75">
    <g clip-path="url(#p2ce64d5779)">
     <use style="fill:#ff7f0e;stroke:#ff7f0e;stroke-linejoin:miter;" x="289.769399" xlink:href="#mec0a3671bc" y="16.789292"/>
    </g>
   </g>
   <g id="line2d_76">
    <path clip-path="url(#p2ce64d5779)" d="M 320.236229 111.306742 
L 320.236229 19.378667 
" style="fill:none;stroke:#ff7f0e;stroke-linecap:square;stroke-width:1.5;"/>
   </g>
   <g id="line2d_77">
    <g clip-path="url(#p2ce64d5779)">
     <use style="fill:#ff7f0e;stroke:#ff7f0e;stroke-linejoin:miter;" x="320.236229" xlink:href="#mec0a3671bc" y="19.378667"/>
    </g>
   </g>
   <g id="line2d_78">
    <path clip-path="url(#p2ce64d5779)" d="M 350.70306 111.306742 
L 350.70306 23.574196 
" style="fill:none;stroke:#ff7f0e;stroke-linecap:square;stroke-width:1.5;"/>
   </g>
   <g id="line2d_79">
    <g clip-path="url(#p2ce64d5779)">
     <use style="fill:#ff7f0e;stroke:#ff7f0e;stroke-linejoin:miter;" x="350.70306" xlink:href="#mec0a3671bc" y="23.574196"/>
    </g>
   </g>
   <g id="line2d_80">
    <path clip-path="url(#p2ce64d5779)" d="M 381.16989 111.306742 
L 381.16989 29.302576 
" style="fill:none;stroke:#ff7f0e;stroke-linecap:square;stroke-width:1.5;"/>
   </g>
   <g id="line2d_81">
    <g clip-path="url(#p2ce64d5779)">
     <use style="fill:#ff7f0e;stroke:#ff7f0e;stroke-linejoin:miter;" x="381.16989" xlink:href="#mec0a3671bc" y="29.302576"/>
    </g>
   </g>
   <g id="line2d_82">
    <path clip-path="url(#p2ce64d5779)" d="M 411.636721 111.306742 
L 411.636721 36.463722 
" style="fill:none;stroke:#ff7f0e;stroke-linecap:square;stroke-width:1.5;"/>
   </g>
   <g id="line2d_83">
    <g clip-path="url(#p2ce64d5779)">
     <use style="fill:#ff7f0e;stroke:#ff7f0e;stroke-linejoin:miter;" x="411.636721" xlink:href="#mec0a3671bc" y="36.463722"/>
    </g>
   </g>
   <g id="line2d_84">
    <path clip-path="url(#p2ce64d5779)" d="M 442.103551 111.306742 
L 442.103551 44.932514 
" style="fill:none;stroke:#ff7f0e;stroke-linecap:square;stroke-width:1.5;"/>
   </g>
   <g id="line2d_85">
    <g clip-path="url(#p2ce64d5779)">
     <use style="fill:#ff7f0e;stroke:#ff7f0e;stroke-linejoin:miter;" x="442.103551" xlink:href="#mec0a3671bc" y="44.932514"/>
    </g>
   </g>
   <g id="line2d_86">
    <path clip-path="url(#p2ce64d5779)" d="M 472.570382 111.306742 
L 472.570382 54.560988 
" style="fill:none;stroke:#ff7f0e;stroke-linecap:square;stroke-width:1.5;"/>
   </g>
   <g id="line2d_87">
    <g clip-path="url(#p2ce64d5779)">
     <use style="fill:#ff7f0e;stroke:#ff7f0e;stroke-linejoin:miter;" x="472.570382" xlink:href="#mec0a3671bc" y="54.560988"/>
    </g>
   </g>
   <g id="line2d_88">
    <path clip-path="url(#p2ce64d5779)" d="M 503.037212 111.306742 
L 503.037212 65.180915 
" style="fill:none;stroke:#ff7f0e;stroke-linecap:square;stroke-width:1.5;"/>
   </g>
   <g id="line2d_89">
    <g clip-path="url(#p2ce64d5779)">
     <use style="fill:#ff7f0e;stroke:#ff7f0e;stroke-linejoin:miter;" x="503.037212" xlink:href="#mec0a3671bc" y="65.180915"/>
    </g>
   </g>
   <g id="line2d_90">
    <path clip-path="url(#p2ce64d5779)" d="M 533.504043 111.306742 
L 533.504043 76.606747 
" style="fill:none;stroke:#ff7f0e;stroke-linecap:square;stroke-width:1.5;"/>
   </g>
   <g id="line2d_91">
    <g clip-path="url(#p2ce64d5779)">
     <use style="fill:#ff7f0e;stroke:#ff7f0e;stroke-linejoin:miter;" x="533.504043" xlink:href="#mec0a3671bc" y="76.606747"/>
    </g>
   </g>
   <g id="line2d_92">
    <path clip-path="url(#p2ce64d5779)" d="M 563.970873 111.306742 
L 563.970873 88.638852 
" style="fill:none;stroke:#ff7f0e;stroke-linecap:square;stroke-width:1.5;"/>
   </g>
   <g id="line2d_93">
    <g clip-path="url(#p2ce64d5779)">
     <use style="fill:#ff7f0e;stroke:#ff7f0e;stroke-linejoin:miter;" x="563.970873" xlink:href="#mec0a3671bc" y="88.638852"/>
    </g>
   </g>
   <g id="line2d_94">
    <path clip-path="url(#p2ce64d5779)" d="M 594.437704 111.306742 
L 594.437704 101.067008 
" style="fill:none;stroke:#ff7f0e;stroke-linecap:square;stroke-width:1.5;"/>
   </g>
   <g id="line2d_95">
    <g clip-path="url(#p2ce64d5779)">
     <use style="fill:#ff7f0e;stroke:#ff7f0e;stroke-linejoin:miter;" x="594.437704" xlink:href="#mec0a3671bc" y="101.067008"/>
    </g>
   </g>
   <g id="line2d_96">
    <path clip-path="url(#p2ce64d5779)" d="M 624.904534 111.306742 
L 624.904534 113.67407 
" style="fill:none;stroke:#ff7f0e;stroke-linecap:square;stroke-width:1.5;"/>
   </g>
   <g id="line2d_97">
    <defs>
     <path d="M -0 4 
L 4 -4 
L -4 -4 
z
" id="mfbf1131554" style="stroke:#ff7f0e;stroke-linejoin:miter;"/>
    </defs>
    <g clip-path="url(#p2ce64d5779)">
     <use style="fill:#ff7f0e;stroke:#ff7f0e;stroke-linejoin:miter;" x="624.904534" xlink:href="#mfbf1131554" y="113.67407"/>
    </g>
   </g>
   <g id="line2d_98">
    <path clip-path="url(#p2ce64d5779)" d="M 655.371365 111.306742 
L 655.371365 126.239771 
" style="fill:none;stroke:#ff7f0e;stroke-linecap:square;stroke-width:1.5;"/>
   </g>
   <g id="line2d_99">
    <g clip-path="url(#p2ce64d5779)">
     <use style="fill:#ff7f0e;stroke:#ff7f0e;stroke-linejoin:miter;" x="655.371365" xlink:href="#mfbf1131554" y="126.239771"/>
    </g>
   </g>
   <g id="line2d_100">
    <path clip-path="url(#p2ce64d5779)" d="M 685.838195 111.306742 
L 685.838195 138.544564 
" style="fill:none;stroke:#ff7f0e;stroke-linecap:square;stroke-width:1.5;"/>
   </g>
   <g id="line2d_101">
    <g clip-path="url(#p2ce64d5779)">
     <use style="fill:#ff7f0e;stroke:#ff7f0e;stroke-linejoin:miter;" x="685.838195" xlink:href="#mfbf1131554" y="138.544564"/>
    </g>
   </g>
   <g id="line2d_102">
    <path clip-path="url(#p2ce64d5779)" d="M 716.305026 111.306742 
L 716.305026 150.373462 
" style="fill:none;stroke:#ff7f0e;stroke-linecap:square;stroke-width:1.5;"/>
   </g>
   <g id="line2d_103">
    <g clip-path="url(#p2ce64d5779)">
     <use style="fill:#ff7f0e;stroke:#ff7f0e;stroke-linejoin:miter;" x="716.305026" xlink:href="#mfbf1131554" y="150.373462"/>
    </g>
   </g>
   <g id="line2d_104">
    <path clip-path="url(#p2ce64d5779)" d="M 746.771856 111.306742 
L 746.771856 161.519791 
" style="fill:none;stroke:#ff7f0e;stroke-linecap:square;stroke-width:1.5;"/>
   </g>
   <g id="line2d_105">
    <g clip-path="url(#p2ce64d5779)">
     <use style="fill:#ff7f0e;stroke:#ff7f0e;stroke-linejoin:miter;" x="746.771856" xlink:href="#mfbf1131554" y="161.519791"/>
    </g>
   </g>
   <g id="line2d_106">
    <path clip-path="url(#p2ce64d5779)" d="M 777.238686 111.306742 
L 777.238686 171.788805 
" style="fill:none;stroke:#ff7f0e;stroke-linecap:square;stroke-width:1.5;"/>
   </g>
   <g id="line2d_107">
    <g clip-path="url(#p2ce64d5779)">
     <use style="fill:#ff7f0e;stroke:#ff7f0e;stroke-linejoin:miter;" x="777.238686" xlink:href="#mfbf1131554" y="171.788805"/>
    </g>
   </g>
   <g id="line2d_108">
    <path clip-path="url(#p2ce64d5779)" d="M 807.705517 111.306742 
L 807.705517 181.001085 
" style="fill:none;stroke:#ff7f0e;stroke-linecap:square;stroke-width:1.5;"/>
   </g>
   <g id="line2d_109">
    <g clip-path="url(#p2ce64d5779)">
     <use style="fill:#ff7f0e;stroke:#ff7f0e;stroke-linejoin:miter;" x="807.705517" xlink:href="#mfbf1131554" y="181.001085"/>
    </g>
   </g>
   <g id="line2d_110">
    <path clip-path="url(#p2ce64d5779)" d="M 106.968416 120.852611 
L 137.435247 120.852611 
" style="fill:none;stroke:#000000;stroke-linecap:square;stroke-width:0.8;"/>
    <defs>
     <path d="M 0 3 
L 0 -3 
" id="m098db9ae6a" style="stroke:#000000;"/>
    </defs>
    <g clip-path="url(#p2ce64d5779)">
     <use style="stroke:#000000;" x="106.968416" xlink:href="#m098db9ae6a" y="120.852611"/>
     <use style="stroke:#000000;" x="137.435247" xlink:href="#m098db9ae6a" y="120.852611"/>
    </g>
   </g>
   <g id="patch_3">
    <path d="M 38.456131 197.46 
L 38.456131 7.2 
" style="fill:none;stroke:#000000;stroke-linecap:square;stroke-linejoin:miter;stroke-width:0.8;"/>
   </g>
   <g id="patch_4">
    <path d="M 875.456131 197.46 
L 875.456131 7.2 
" style="fill:none;stroke:#000000;stroke-linecap:square;stroke-linejoin:miter;stroke-width:0.8;"/>
   </g>
   <g id="patch_5">
    <path d="M 38.456131 197.46 
L 875.456131 197.46 
" style="fill:none;stroke:#000000;stroke-linecap:square;stroke-linejoin:miter;stroke-width:0.8;"/>
   </g>
   <g id="patch_6">
    <path d="M 38.456131 7.2 
L 875.456131 7.2 
" style="fill:none;stroke:#000000;stroke-linecap:square;stroke-linejoin:miter;stroke-width:0.8;"/>
   </g>
   <g id="text_6">
    <!-- $T_e$ -->
    <g transform="translate(114.207739 142.85178)scale(0.18 -0.18)">
     <defs>
      <path d="M 2669 3910 
C 2707 4064 2720 4121 2816 4147 
C 2867 4160 3078 4160 3213 4160 
C 3853 4160 4154 4134 4154 3634 
C 4154 3537 4128 3295 4090 3057 
L 4083 2980 
C 4083 2954 4109 2916 4147 2916 
C 4211 2916 4211 2948 4230 3050 
L 4416 4184 
C 4429 4243 4429 4256 4429 4275 
C 4429 4345 4390 4345 4262 4345 
L 762 4345 
C 614 4345 608 4339 570 4224 
L 179 3070 
C 173 3056 154 2986 154 2980 
C 154 2948 179 2916 218 2916 
C 269 2916 282 2941 307 3024 
C 576 3801 710 4160 1562 4160 
L 1990 4160 
C 2144 4160 2208 4160 2208 4089 
C 2208 4069 2208 4057 2176 3941 
L 1318 499 
C 1254 249 1242 185 563 185 
C 403 185 358 185 358 64 
C 358 0 429 0 461 0 
C 621 0 787 0 947 0 
L 1946 0 
C 2106 0 2278 0 2438 0 
C 2509 0 2573 0 2573 121 
C 2573 185 2528 185 2362 185 
C 1786 185 1786 243 1786 339 
C 1786 346 1786 391 1811 494 
L 2669 3910 
z
" id="CMMI12-54" transform="scale(0.015625)"/>
      <path d="M 1146 1479 
C 1318 1479 1754 1479 2061 1595 
C 2547 1783 2592 2158 2592 2274 
C 2592 2558 2349 2816 1926 2816 
C 1254 2816 288 2210 288 1073 
C 288 402 672 -64 1254 -64 
C 2125 -64 2675 609 2675 692 
C 2675 730 2637 762 2611 762 
C 2592 762 2586 756 2528 699 
C 2118 159 1510 64 1267 64 
C 902 64 710 350 710 822 
C 710 911 710 1071 806 1479 
L 1146 1479 
z
M 838 1600 
C 1114 2592 1722 2689 1926 2689 
C 2208 2689 2400 2522 2400 2277 
C 2400 1600 1376 1600 1107 1600 
L 838 1600 
z
" id="CMMI12-65" transform="scale(0.015625)"/>
     </defs>
     <use transform="scale(0.996264)" xlink:href="#CMMI12-54"/>
     <use transform="translate(57.175044 -14.943915)scale(0.697382)" xlink:href="#CMMI12-65"/>
    </g>
   </g>
   <g id="legend_1">
    <g id="patch_7">
     <path d="M 780.333732 67.880448 
L 864.256131 67.880448 
Q 867.456131 67.880448 867.456131 64.680448 
L 867.456131 18.4 
Q 867.456131 15.2 864.256131 15.2 
L 780.333732 15.2 
Q 777.133732 15.2 777.133732 18.4 
L 777.133732 64.680448 
Q 777.133732 67.880448 780.333732 67.880448 
z
" style="fill:#ffffff;opacity:0.8;stroke:#cccccc;stroke-linejoin:miter;"/>
    </g>
    <g id="line2d_111">
     <path d="M 783.533732 27.955168 
L 815.533732 27.955168 
" style="fill:none;stroke:#1f77b4;stroke-linecap:square;stroke-width:1.5;"/>
    </g>
    <g id="line2d_112"/>
    <g id="text_7">
     <!-- $x(t)$ -->
     <g transform="translate(828.333732 33.555168)scale(0.16 -0.16)">
      <defs>
       <path d="M 3034 2606 
C 2829 2567 2752 2414 2752 2293 
C 2752 2139 2874 2088 2963 2088 
C 3155 2088 3290 2254 3290 2427 
C 3290 2695 2982 2816 2714 2816 
C 2323 2816 2106 2433 2048 2312 
C 1901 2816 1504 2816 1389 2816 
C 736 2816 390 1980 390 1839 
C 390 1814 416 1782 461 1782 
C 512 1782 525 1820 538 1846 
C 755 2555 1184 2689 1370 2689 
C 1658 2689 1715 2420 1715 2267 
C 1715 2127 1677 1980 1600 1673 
L 1382 798 
C 1286 415 1101 64 762 64 
C 730 64 570 64 435 147 
C 666 192 717 383 717 460 
C 717 588 621 664 499 664 
C 346 664 179 530 179 326 
C 179 57 480 -64 755 -64 
C 1062 -64 1280 179 1414 441 
C 1517 64 1837 -64 2074 -64 
C 2726 -64 3072 773 3072 913 
C 3072 945 3046 971 3008 971 
C 2950 971 2944 939 2925 888 
C 2752 326 2381 64 2093 64 
C 1869 64 1747 230 1747 492 
C 1747 632 1773 734 1875 1156 
L 2099 2024 
C 2195 2408 2413 2689 2707 2689 
C 2720 2689 2899 2689 3034 2606 
z
" id="CMMI12-78" transform="scale(0.015625)"/>
       <path d="M 1958 -1561 
C 1958 -1555 1958 -1542 1939 -1523 
C 1645 -1224 858 -407 858 1581 
C 858 3569 1632 4379 1946 4697 
C 1946 4704 1958 4717 1958 4736 
C 1958 4755 1939 4768 1914 4768 
C 1843 4768 1299 4296 986 3594 
C 666 2887 576 2199 576 1588 
C 576 1128 621 351 1005 -471 
C 1312 -1135 1837 -1600 1914 -1600 
C 1946 -1600 1958 -1587 1958 -1561 
z
" id="CMR17-28" transform="scale(0.015625)"/>
       <path d="M 1683 1581 
C 1683 2040 1638 2817 1254 3639 
C 947 4303 422 4768 346 4768 
C 326 4768 301 4761 301 4729 
C 301 4717 307 4710 314 4697 
C 621 4378 1402 3568 1402 1584 
C 1402 -407 627 -1217 314 -1537 
C 307 -1549 301 -1556 301 -1568 
C 301 -1600 326 -1600 346 -1600 
C 416 -1600 960 -1128 1274 -426 
C 1594 281 1683 969 1683 1581 
z
" id="CMR17-29" transform="scale(0.015625)"/>
      </defs>
      <use transform="scale(0.996264)" xlink:href="#CMMI12-78"/>
      <use transform="translate(55.43406 0)scale(0.996264)" xlink:href="#CMR17-28"/>
      <use transform="translate(90.714827 0)scale(0.996264)" xlink:href="#CMMI12-74"/>
      <use transform="translate(125.941158 0)scale(0.996264)" xlink:href="#CMR17-29"/>
     </g>
    </g>
    <g id="line2d_113">
     <path d="M 783.533732 51.895392 
L 815.533732 51.895392 
" style="fill:none;stroke:#ff7f0e;stroke-linecap:square;stroke-width:1.5;"/>
    </g>
    <g id="line2d_114"/>
    <g id="text_8">
     <!-- $x^*(t)$ -->
     <g transform="translate(828.333732 57.495392)scale(0.16 -0.16)">
      <defs>
       <path d="M 1760 2719 
C 1766 2808 1766 2962 1600 2962 
C 1498 2962 1414 2879 1434 2795 
L 1434 2712 
L 1523 1720 
L 704 2316 
C 646 2348 634 2360 589 2360 
C 499 2360 416 2271 416 2181 
C 416 2079 480 2053 544 2021 
L 1453 1586 
L 570 1158 
C 467 1107 416 1081 416 985 
C 416 889 499 806 589 806 
C 634 806 646 806 806 928 
L 1523 1446 
L 1427 371 
C 1427 236 1542 204 1594 204 
C 1670 204 1766 248 1766 371 
L 1670 1446 
L 2490 851 
C 2547 819 2560 806 2605 806 
C 2694 806 2778 896 2778 985 
C 2778 1081 2720 1113 2643 1152 
C 2259 1343 2246 1343 1741 1580 
L 2624 2008 
C 2726 2060 2778 2085 2778 2181 
C 2778 2277 2694 2360 2605 2360 
C 2560 2360 2547 2360 2387 2239 
L 1670 1720 
L 1760 2719 
z
" id="CMSY10-3" transform="scale(0.015625)"/>
      </defs>
      <use transform="scale(0.996264)" xlink:href="#CMMI12-78"/>
      <use transform="translate(55.43406 36.153639)scale(0.697382)" xlink:href="#CMSY10-3"/>
      <use transform="translate(90.801401 0)scale(0.996264)" xlink:href="#CMR17-28"/>
      <use transform="translate(126.082169 0)scale(0.996264)" xlink:href="#CMMI12-74"/>
      <use transform="translate(161.308499 0)scale(0.996264)" xlink:href="#CMR17-29"/>
     </g>
    </g>
   </g>
  </g>
 </g>
 <defs>
  <clipPath id="p2ce64d5779">
   <rect height="190.26" width="837" x="38.456131" y="7.2"/>
  </clipPath>
 </defs>
</svg>
