<?xml version="1.0" encoding="utf-8" standalone="no"?>
<!DOCTYPE svg PUBLIC "-//W3C//DTD SVG 1.1//EN"
  "http://www.w3.org/Graphics/SVG/1.1/DTD/svg11.dtd">
<svg height="216.818129pt" version="1.1" viewBox="0 0 864.25299 216.818129" width="864.25299pt" xmlns="http://www.w3.org/2000/svg" xmlns:xlink="http://www.w3.org/1999/xlink">
 <metadata>
  <rdf:RDF xmlns:cc="http://creativecommons.org/ns#" xmlns:dc="http://purl.org/dc/elements/1.1/" xmlns:rdf="http://www.w3.org/1999/02/22-rdf-syntax-ns#">
   <cc:Work>
    <dc:type rdf:resource="http://purl.org/dc/dcmitype/StillImage"/>
    <dc:date>2021-12-15T11:47:39.461853</dc:date>
    <dc:format>image/svg+xml</dc:format>
    <dc:creator>
     <cc:Agent>
      <dc:title>Matplotlib v3.4.3, https://matplotlib.org/</dc:title>
     </cc:Agent>
    </dc:creator>
   </cc:Work>
  </rdf:RDF>
 </metadata>
 <defs>
  <style type="text/css">*{stroke-linecap:butt;stroke-linejoin:round;}</style>
 </defs>
 <g id="figure_1">
  <g id="patch_1">
   <path d="M 0 216.818129 
L 864.25299 216.818129 
L 864.25299 0 
L 0 0 
z
" style="fill:none;"/>
  </g>
  <g id="axes_1">
   <g id="patch_2">
    <path d="M 20.05299 170.28 
L 857.05299 170.28 
L 857.05299 7.2 
L 20.05299 7.2 
z
" style="fill:#ffffff;"/>
   </g>
   <g id="matplotlib.axis_1">
    <g id="xtick_1">
     <g id="line2d_1">
      <path clip-path="url(#p5ea67bafbb)" d="M 81.876854 170.28 
L 81.876854 7.2 
" style="fill:none;stroke:#b0b0b0;stroke-linecap:square;stroke-width:0.8;"/>
     </g>
     <g id="line2d_2">
      <defs>
       <path d="M 0 0 
L 0 3.5 
" id="m68e2685a3e" style="stroke:#000000;stroke-width:0.8;"/>
      </defs>
      <g>
       <use style="stroke:#000000;stroke-width:0.8;" x="81.876854" xlink:href="#m68e2685a3e" y="170.28"/>
      </g>
     </g>
     <g id="text_1">
      <!-- $-5f_e$ -->
      <g transform="translate(65.331447 188.349588)scale(0.16 -0.16)">
       <defs>
        <path d="M 4218 1472 
C 4326 1472 4442 1472 4442 1600 
C 4442 1728 4326 1728 4218 1728 
L 755 1728 
C 646 1728 531 1728 531 1600 
C 531 1472 646 1472 755 1472 
L 4218 1472 
z
" id="CMSY10-0" transform="scale(0.015625)"/>
        <path d="M 730 3692 
C 794 3666 1056 3584 1325 3584 
C 1920 3584 2246 3911 2432 4100 
C 2432 4157 2432 4192 2394 4192 
C 2387 4192 2374 4192 2323 4163 
C 2099 4058 1837 3973 1517 3973 
C 1325 3973 1037 3999 723 4139 
C 653 4171 640 4171 634 4171 
C 602 4171 595 4164 595 4037 
L 595 2203 
C 595 2089 595 2057 659 2057 
C 691 2057 704 2070 736 2114 
C 941 2401 1222 2522 1542 2522 
C 1766 2522 2246 2382 2246 1289 
C 2246 1085 2246 715 2054 421 
C 1894 159 1645 25 1370 25 
C 947 25 518 320 403 814 
C 429 807 480 795 506 795 
C 589 795 749 840 749 1038 
C 749 1210 627 1280 506 1280 
C 358 1280 262 1190 262 1011 
C 262 454 704 -128 1382 -128 
C 2042 -128 2669 440 2669 1264 
C 2669 2030 2170 2624 1549 2624 
C 1222 2624 947 2503 730 2274 
L 730 3692 
z
" id="CMR17-35" transform="scale(0.015625)"/>
        <path d="M 2854 2566 
C 2982 2566 3034 2566 3034 2688 
C 3034 2752 2982 2752 2867 2752 
L 2349 2752 
C 2470 3429 2560 3897 2611 4107 
C 2650 4265 2784 4416 2950 4416 
C 3085 4416 3219 4358 3283 4298 
C 3034 4272 2957 4082 2957 3969 
C 2957 3837 3053 3759 3174 3759 
C 3302 3759 3494 3870 3494 4119 
C 3494 4393 3226 4544 2944 4544 
C 2669 4544 2400 4334 2272 4078 
C 2157 3848 2093 3611 1946 2752 
L 1517 2752 
C 1395 2752 1331 2752 1331 2637 
C 1331 2566 1370 2566 1498 2566 
L 1907 2566 
C 1792 1976 1530 542 1382 -137 
C 1274 -689 1178 -1152 858 -1152 
C 838 -1152 653 -1152 538 -1031 
C 864 -1005 864 -726 864 -720 
C 864 -593 768 -517 646 -517 
C 518 -517 326 -625 326 -867 
C 326 -1140 608 -1280 858 -1280 
C 1510 -1280 1779 -118 1850 199 
C 1965 688 2278 2376 2310 2566 
L 2854 2566 
z
" id="CMMI12-66" transform="scale(0.015625)"/>
        <path d="M 1146 1479 
C 1318 1479 1754 1479 2061 1595 
C 2547 1783 2592 2158 2592 2274 
C 2592 2558 2349 2816 1926 2816 
C 1254 2816 288 2210 288 1073 
C 288 402 672 -64 1254 -64 
C 2125 -64 2675 609 2675 692 
C 2675 730 2637 762 2611 762 
C 2592 762 2586 756 2528 699 
C 2118 159 1510 64 1267 64 
C 902 64 710 350 710 822 
C 710 911 710 1071 806 1479 
L 1146 1479 
z
M 838 1600 
C 1114 2592 1722 2689 1926 2689 
C 2208 2689 2400 2522 2400 2277 
C 2400 1600 1376 1600 1107 1600 
L 838 1600 
z
" id="CMMI12-65" transform="scale(0.015625)"/>
       </defs>
       <use transform="scale(0.996264)" xlink:href="#CMSY10-0"/>
       <use transform="translate(77.487468 0)scale(0.996264)" xlink:href="#CMR17-35"/>
       <use transform="translate(123.177945 0)scale(0.996264)" xlink:href="#CMMI12-66"/>
       <use transform="translate(171.261182 -14.943915)scale(0.697382)" xlink:href="#CMMI12-65"/>
      </g>
     </g>
    </g>
    <g id="xtick_2">
     <g id="line2d_3">
      <path clip-path="url(#p5ea67bafbb)" d="M 153.212081 170.28 
L 153.212081 7.2 
" style="fill:none;stroke:#b0b0b0;stroke-linecap:square;stroke-width:0.8;"/>
     </g>
     <g id="line2d_4">
      <g>
       <use style="stroke:#000000;stroke-width:0.8;" x="153.212081" xlink:href="#m68e2685a3e" y="170.28"/>
      </g>
     </g>
     <g id="text_2">
      <!-- $-4f_e$ -->
      <g transform="translate(136.666674 188.349588)scale(0.16 -0.16)">
       <defs>
        <path d="M 2150 4122 
C 2150 4256 2144 4256 2029 4256 
L 128 1254 
L 128 1088 
L 1779 1088 
L 1779 457 
C 1779 224 1766 160 1318 160 
L 1197 160 
L 1197 0 
C 1402 0 1747 0 1965 0 
C 2182 0 2528 0 2733 0 
L 2733 160 
L 2611 160 
C 2163 160 2150 224 2150 457 
L 2150 1088 
L 2803 1088 
L 2803 1254 
L 2150 1254 
L 2150 4122 
z
M 1798 3703 
L 1798 1254 
L 256 1254 
L 1798 3703 
z
" id="CMR17-34" transform="scale(0.015625)"/>
       </defs>
       <use transform="scale(0.996264)" xlink:href="#CMSY10-0"/>
       <use transform="translate(77.487468 0)scale(0.996264)" xlink:href="#CMR17-34"/>
       <use transform="translate(123.177945 0)scale(0.996264)" xlink:href="#CMMI12-66"/>
       <use transform="translate(171.261182 -14.943915)scale(0.697382)" xlink:href="#CMMI12-65"/>
      </g>
     </g>
    </g>
    <g id="xtick_3">
     <g id="line2d_5">
      <path clip-path="url(#p5ea67bafbb)" d="M 224.547308 170.28 
L 224.547308 7.2 
" style="fill:none;stroke:#b0b0b0;stroke-linecap:square;stroke-width:0.8;"/>
     </g>
     <g id="line2d_6">
      <g>
       <use style="stroke:#000000;stroke-width:0.8;" x="224.547308" xlink:href="#m68e2685a3e" y="170.28"/>
      </g>
     </g>
     <g id="text_3">
      <!-- $-3f_e$ -->
      <g transform="translate(208.001901 188.349588)scale(0.16 -0.16)">
       <defs>
        <path d="M 1414 2157 
C 1984 2157 2234 1662 2234 1090 
C 2234 320 1824 25 1453 25 
C 1114 25 563 194 390 693 
C 422 680 454 680 486 680 
C 640 680 755 782 755 948 
C 755 1133 614 1216 486 1216 
C 378 1216 211 1165 211 926 
C 211 335 787 -128 1466 -128 
C 2176 -128 2720 430 2720 1085 
C 2720 1707 2208 2157 1600 2227 
C 2086 2328 2554 2756 2554 3329 
C 2554 3820 2048 4179 1472 4179 
C 890 4179 378 3829 378 3329 
C 378 3110 544 3072 627 3072 
C 762 3072 877 3155 877 3321 
C 877 3486 762 3569 627 3569 
C 602 3569 570 3569 544 3557 
C 730 3959 1235 4032 1459 4032 
C 1683 4032 2106 3925 2106 3320 
C 2106 3143 2080 2828 1862 2550 
C 1670 2304 1453 2304 1242 2284 
C 1210 2284 1062 2269 1037 2269 
C 992 2263 966 2257 966 2208 
C 966 2163 973 2157 1101 2157 
L 1414 2157 
z
" id="CMR17-33" transform="scale(0.015625)"/>
       </defs>
       <use transform="scale(0.996264)" xlink:href="#CMSY10-0"/>
       <use transform="translate(77.487468 0)scale(0.996264)" xlink:href="#CMR17-33"/>
       <use transform="translate(123.177945 0)scale(0.996264)" xlink:href="#CMMI12-66"/>
       <use transform="translate(171.261182 -14.943915)scale(0.697382)" xlink:href="#CMMI12-65"/>
      </g>
     </g>
    </g>
    <g id="xtick_4">
     <g id="line2d_7">
      <path clip-path="url(#p5ea67bafbb)" d="M 295.882536 170.28 
L 295.882536 7.2 
" style="fill:none;stroke:#b0b0b0;stroke-linecap:square;stroke-width:0.8;"/>
     </g>
     <g id="line2d_8">
      <g>
       <use style="stroke:#000000;stroke-width:0.8;" x="295.882536" xlink:href="#m68e2685a3e" y="170.28"/>
      </g>
     </g>
     <g id="text_4">
      <!-- $-2f_e$ -->
      <g transform="translate(279.337129 188.349588)scale(0.16 -0.16)">
       <defs>
        <path d="M 2669 989 
L 2554 989 
C 2490 536 2438 459 2413 420 
C 2381 369 1920 369 1830 369 
L 602 369 
C 832 619 1280 1072 1824 1597 
C 2214 1967 2669 2402 2669 3035 
C 2669 3790 2067 4224 1395 4224 
C 691 4224 262 3604 262 3030 
C 262 2780 448 2748 525 2748 
C 589 2748 781 2787 781 3010 
C 781 3207 614 3264 525 3264 
C 486 3264 448 3258 422 3245 
C 544 3790 915 4058 1306 4058 
C 1862 4058 2227 3617 2227 3035 
C 2227 2479 1901 2000 1536 1584 
L 262 146 
L 262 0 
L 2515 0 
L 2669 989 
z
" id="CMR17-32" transform="scale(0.015625)"/>
       </defs>
       <use transform="scale(0.996264)" xlink:href="#CMSY10-0"/>
       <use transform="translate(77.487468 0)scale(0.996264)" xlink:href="#CMR17-32"/>
       <use transform="translate(123.177945 0)scale(0.996264)" xlink:href="#CMMI12-66"/>
       <use transform="translate(171.261182 -14.943915)scale(0.697382)" xlink:href="#CMMI12-65"/>
      </g>
     </g>
    </g>
    <g id="xtick_5">
     <g id="line2d_9">
      <path clip-path="url(#p5ea67bafbb)" d="M 367.217763 170.28 
L 367.217763 7.2 
" style="fill:none;stroke:#b0b0b0;stroke-linecap:square;stroke-width:0.8;"/>
     </g>
     <g id="line2d_10">
      <g>
       <use style="stroke:#000000;stroke-width:0.8;" x="367.217763" xlink:href="#m68e2685a3e" y="170.28"/>
      </g>
     </g>
     <g id="text_5">
      <!-- $f_e$ -->
      <g transform="translate(360.773347 188.349588)scale(0.16 -0.16)">
       <use transform="scale(0.996264)" xlink:href="#CMMI12-66"/>
       <use transform="translate(48.083238 -14.943915)scale(0.697382)" xlink:href="#CMMI12-65"/>
      </g>
     </g>
    </g>
    <g id="xtick_6">
     <g id="line2d_11">
      <path clip-path="url(#p5ea67bafbb)" d="M 438.55299 170.28 
L 438.55299 7.2 
" style="fill:none;stroke:#b0b0b0;stroke-linecap:square;stroke-width:0.8;"/>
     </g>
     <g id="line2d_12">
      <g>
       <use style="stroke:#000000;stroke-width:0.8;" x="438.55299" xlink:href="#m68e2685a3e" y="170.28"/>
      </g>
     </g>
     <g id="text_6">
      <!-- $0$ -->
      <g transform="translate(434.650997 188.349588)scale(0.16 -0.16)">
       <defs>
        <path d="M 2688 2025 
C 2688 2416 2682 3080 2413 3591 
C 2176 4039 1798 4198 1466 4198 
C 1158 4198 768 4058 525 3597 
C 269 3118 243 2524 243 2025 
C 243 1661 250 1106 448 619 
C 723 -39 1216 -128 1466 -128 
C 1760 -128 2208 -7 2470 600 
C 2662 1042 2688 1559 2688 2025 
z
M 1466 -26 
C 1056 -26 813 325 723 812 
C 653 1188 653 1738 653 2096 
C 653 2588 653 2997 736 3387 
C 858 3929 1216 4096 1466 4096 
C 1728 4096 2067 3923 2189 3400 
C 2272 3036 2278 2607 2278 2096 
C 2278 1680 2278 1169 2202 792 
C 2067 95 1690 -26 1466 -26 
z
" id="CMR17-30" transform="scale(0.015625)"/>
       </defs>
       <use transform="scale(0.996264)" xlink:href="#CMR17-30"/>
      </g>
     </g>
    </g>
    <g id="xtick_7">
     <g id="line2d_13">
      <path clip-path="url(#p5ea67bafbb)" d="M 509.888218 170.28 
L 509.888218 7.2 
" style="fill:none;stroke:#b0b0b0;stroke-linecap:square;stroke-width:0.8;"/>
     </g>
     <g id="line2d_14">
      <g>
       <use style="stroke:#000000;stroke-width:0.8;" x="509.888218" xlink:href="#m68e2685a3e" y="170.28"/>
      </g>
     </g>
     <g id="text_7">
      <!-- $f_e$ -->
      <g transform="translate(503.443802 188.349588)scale(0.16 -0.16)">
       <use transform="scale(0.996264)" xlink:href="#CMMI12-66"/>
       <use transform="translate(48.083238 -14.943915)scale(0.697382)" xlink:href="#CMMI12-65"/>
      </g>
     </g>
    </g>
    <g id="xtick_8">
     <g id="line2d_15">
      <path clip-path="url(#p5ea67bafbb)" d="M 581.223445 170.28 
L 581.223445 7.2 
" style="fill:none;stroke:#b0b0b0;stroke-linecap:square;stroke-width:0.8;"/>
     </g>
     <g id="line2d_16">
      <g>
       <use style="stroke:#000000;stroke-width:0.8;" x="581.223445" xlink:href="#m68e2685a3e" y="170.28"/>
      </g>
     </g>
     <g id="text_8">
      <!-- $2f_e$ -->
      <g transform="translate(570.877036 188.349588)scale(0.16 -0.16)">
       <use transform="scale(0.996264)" xlink:href="#CMR17-32"/>
       <use transform="translate(45.690477 0)scale(0.996264)" xlink:href="#CMMI12-66"/>
       <use transform="translate(93.773715 -14.943915)scale(0.697382)" xlink:href="#CMMI12-65"/>
      </g>
     </g>
    </g>
    <g id="xtick_9">
     <g id="line2d_17">
      <path clip-path="url(#p5ea67bafbb)" d="M 652.558672 170.28 
L 652.558672 7.2 
" style="fill:none;stroke:#b0b0b0;stroke-linecap:square;stroke-width:0.8;"/>
     </g>
     <g id="line2d_18">
      <g>
       <use style="stroke:#000000;stroke-width:0.8;" x="652.558672" xlink:href="#m68e2685a3e" y="170.28"/>
      </g>
     </g>
     <g id="text_9">
      <!-- $3f_e$ -->
      <g transform="translate(642.212263 188.349588)scale(0.16 -0.16)">
       <use transform="scale(0.996264)" xlink:href="#CMR17-33"/>
       <use transform="translate(45.690477 0)scale(0.996264)" xlink:href="#CMMI12-66"/>
       <use transform="translate(93.773715 -14.943915)scale(0.697382)" xlink:href="#CMMI12-65"/>
      </g>
     </g>
    </g>
    <g id="xtick_10">
     <g id="line2d_19">
      <path clip-path="url(#p5ea67bafbb)" d="M 723.893899 170.28 
L 723.893899 7.2 
" style="fill:none;stroke:#b0b0b0;stroke-linecap:square;stroke-width:0.8;"/>
     </g>
     <g id="line2d_20">
      <g>
       <use style="stroke:#000000;stroke-width:0.8;" x="723.893899" xlink:href="#m68e2685a3e" y="170.28"/>
      </g>
     </g>
     <g id="text_10">
      <!-- $5f_e$ -->
      <g transform="translate(713.54749 188.349588)scale(0.16 -0.16)">
       <use transform="scale(0.996264)" xlink:href="#CMR17-35"/>
       <use transform="translate(45.690477 0)scale(0.996264)" xlink:href="#CMMI12-66"/>
       <use transform="translate(93.773715 -14.943915)scale(0.697382)" xlink:href="#CMMI12-65"/>
      </g>
     </g>
    </g>
    <g id="xtick_11">
     <g id="line2d_21">
      <path clip-path="url(#p5ea67bafbb)" d="M 795.229127 170.28 
L 795.229127 7.2 
" style="fill:none;stroke:#b0b0b0;stroke-linecap:square;stroke-width:0.8;"/>
     </g>
     <g id="line2d_22">
      <g>
       <use style="stroke:#000000;stroke-width:0.8;" x="795.229127" xlink:href="#m68e2685a3e" y="170.28"/>
      </g>
     </g>
     <g id="text_11">
      <!-- $5f_e$ -->
      <g transform="translate(784.882718 188.349588)scale(0.16 -0.16)">
       <use transform="scale(0.996264)" xlink:href="#CMR17-35"/>
       <use transform="translate(45.690477 0)scale(0.996264)" xlink:href="#CMMI12-66"/>
       <use transform="translate(93.773715 -14.943915)scale(0.697382)" xlink:href="#CMMI12-65"/>
      </g>
     </g>
    </g>
    <g id="text_12">
     <!-- $f$ -->
     <g transform="translate(434.706331 206.518653)scale(0.16 -0.16)">
      <use transform="scale(0.996264)" xlink:href="#CMMI12-66"/>
     </g>
    </g>
   </g>
   <g id="matplotlib.axis_2">
    <g id="ytick_1">
     <g id="line2d_23">
      <path clip-path="url(#p5ea67bafbb)" d="M 20.05299 124.407614 
L 857.05299 124.407614 
" style="fill:none;stroke:#b0b0b0;stroke-linecap:square;stroke-width:0.8;"/>
     </g>
     <g id="line2d_24">
      <defs>
       <path d="M 0 0 
L -3.5 0 
" id="m829ffdc24f" style="stroke:#000000;stroke-width:0.8;"/>
      </defs>
      <g>
       <use style="stroke:#000000;stroke-width:0.8;" x="20.05299" xlink:href="#m829ffdc24f" y="124.407614"/>
      </g>
     </g>
     <g id="text_13">
      <!-- $\mathdefault{0}$ -->
      <g transform="translate(7.2 128.558704)scale(0.12 -0.12)">
       <use transform="scale(0.996264)" xlink:href="#CMR17-30"/>
      </g>
     </g>
    </g>
    <g id="ytick_2">
     <g id="line2d_25">
      <path clip-path="url(#p5ea67bafbb)" d="M 20.05299 76.850795 
L 857.05299 76.850795 
" style="fill:none;stroke:#b0b0b0;stroke-linecap:square;stroke-width:0.8;"/>
     </g>
     <g id="line2d_26">
      <g>
       <use style="stroke:#000000;stroke-width:0.8;" x="20.05299" xlink:href="#m829ffdc24f" y="76.850795"/>
      </g>
     </g>
     <g id="text_14">
      <!-- $\mathdefault{1}$ -->
      <g transform="translate(7.2 81.001885)scale(0.12 -0.12)">
       <defs>
        <path d="M 1702 4058 
C 1702 4192 1696 4192 1606 4192 
C 1357 3916 979 3827 621 3827 
C 602 3827 570 3827 563 3808 
C 557 3795 557 3782 557 3648 
C 755 3648 1088 3686 1344 3839 
L 1344 461 
C 1344 236 1331 160 781 160 
L 589 160 
L 589 0 
C 896 0 1216 0 1523 0 
C 1830 0 2150 0 2458 0 
L 2458 160 
L 2266 160 
C 1715 160 1702 230 1702 458 
L 1702 4058 
z
" id="CMR17-31" transform="scale(0.015625)"/>
       </defs>
       <use transform="scale(0.996264)" xlink:href="#CMR17-31"/>
      </g>
     </g>
    </g>
    <g id="ytick_3">
     <g id="line2d_27">
      <path clip-path="url(#p5ea67bafbb)" d="M 20.05299 29.293977 
L 857.05299 29.293977 
" style="fill:none;stroke:#b0b0b0;stroke-linecap:square;stroke-width:0.8;"/>
     </g>
     <g id="line2d_28">
      <g>
       <use style="stroke:#000000;stroke-width:0.8;" x="20.05299" xlink:href="#m829ffdc24f" y="29.293977"/>
      </g>
     </g>
     <g id="text_15">
      <!-- $\mathdefault{2}$ -->
      <g transform="translate(7.2 33.445067)scale(0.12 -0.12)">
       <use transform="scale(0.996264)" xlink:href="#CMR17-32"/>
      </g>
     </g>
    </g>
   </g>
   <g id="line2d_29">
    <path clip-path="url(#p5ea67bafbb)" d="M 58.098445 83.222201 
L 60.476286 81.938017 
L 62.854127 80.82107 
L 65.231968 79.858778 
L 67.609808 79.0413 
L 69.987649 78.360922 
L 72.36549 77.811638 
L 74.743331 77.388853 
L 77.121172 77.089177 
L 79.499013 76.910279 
L 81.876854 76.850795 
L 84.254695 76.910279 
L 86.632536 77.089177 
L 89.010377 77.388853 
L 91.388218 77.811638 
L 93.766058 78.360922 
L 96.143899 79.0413 
L 98.52174 79.858778 
L 100.899581 80.82107 
L 103.277422 81.938017 
L 105.655263 83.222201 
L 108.033104 69.840228 
L 110.410945 65.632623 
L 112.788786 63.215452 
L 115.166627 61.911161 
L 117.544468 61.495857 
L 119.922308 61.911161 
L 122.300149 63.215452 
L 124.67799 65.632623 
L 127.055831 69.840228 
L 129.433672 83.222196 
L 131.811513 81.938017 
L 134.189354 80.82107 
L 136.567195 79.858778 
L 138.945036 79.0413 
L 141.322877 78.360922 
L 143.700718 77.811638 
L 146.078558 77.388853 
L 148.456399 77.089177 
L 150.83424 76.910279 
L 153.212081 76.850795 
L 155.589922 76.910279 
L 157.967763 77.089177 
L 160.345604 77.388853 
L 162.723445 77.811638 
L 165.101286 78.360922 
L 167.479127 79.0413 
L 169.856968 79.858778 
L 172.234808 80.82107 
L 174.612649 81.938017 
L 176.99049 83.222201 
L 179.368331 69.840228 
L 181.746172 65.632623 
L 184.124013 63.215452 
L 186.501854 61.911161 
L 188.879695 61.495857 
L 191.257536 61.911161 
L 193.635377 63.215452 
L 196.013218 65.632623 
L 198.391058 69.840228 
L 200.768899 83.222194 
L 203.14674 81.938017 
L 205.524581 80.82107 
L 207.902422 79.858778 
L 210.280263 79.0413 
L 212.658104 78.360922 
L 215.035945 77.811638 
L 217.413786 77.388853 
L 219.791627 77.089177 
L 222.169468 76.910279 
L 224.547308 76.850795 
L 226.925149 76.910279 
L 229.30299 77.089177 
L 231.680831 77.388853 
L 234.058672 77.811638 
L 236.436513 78.360922 
L 238.814354 79.0413 
L 241.192195 79.858778 
L 243.570036 80.82107 
L 245.947877 81.938017 
L 248.325718 83.222201 
L 250.703558 69.840228 
L 253.081399 65.632623 
L 255.45924 63.215452 
L 257.837081 61.911161 
L 260.214922 61.495857 
L 262.592763 61.911161 
L 264.970604 63.215452 
L 267.348445 65.632623 
L 269.726286 69.840228 
L 272.104127 83.222192 
L 274.481968 81.938017 
L 276.859808 80.82107 
L 279.237649 79.858778 
L 281.61549 79.0413 
L 283.993331 78.360922 
L 286.371172 77.811638 
L 288.749013 77.388853 
L 291.126854 77.089177 
L 293.504695 76.910279 
L 295.882536 76.850795 
L 298.260377 76.910279 
L 300.638218 77.089177 
L 303.016058 77.388853 
L 305.393899 77.811638 
L 307.77174 78.360922 
L 310.149581 79.0413 
L 312.527422 79.858778 
L 314.905263 80.82107 
L 317.283104 81.938017 
L 319.660945 83.222201 
L 322.038786 69.840228 
L 324.416627 65.632623 
L 326.794468 63.215452 
L 329.172308 61.911161 
L 331.550149 61.495857 
L 333.92799 61.911161 
L 336.305831 63.215452 
L 338.683672 65.632623 
L 341.061513 69.840228 
L 343.439354 83.222191 
L 345.817195 81.938017 
L 348.195036 80.82107 
L 350.572877 79.858778 
L 352.950718 79.0413 
L 355.328558 78.360922 
L 357.706399 77.811638 
L 360.08424 77.388853 
L 362.462081 77.089177 
L 364.839922 76.910279 
L 367.217763 76.850795 
L 369.595604 76.910279 
L 371.973445 77.089177 
L 374.351286 77.388853 
L 376.729127 77.811638 
L 379.106968 78.360922 
L 381.484808 79.0413 
L 383.862649 79.858778 
L 386.24049 80.82107 
L 388.618331 81.938017 
L 390.996172 83.222201 
L 393.374013 69.840228 
L 395.751854 65.632623 
L 398.129695 63.215452 
L 400.507536 61.911161 
L 402.885377 61.495857 
L 405.263218 61.911161 
L 407.641058 63.215452 
L 410.018899 65.632623 
L 412.39674 69.840228 
L 414.774581 83.22219 
L 417.152422 81.938017 
L 419.530263 80.82107 
L 421.908104 79.858778 
L 424.285945 79.0413 
L 426.663786 78.360922 
L 429.041627 77.811638 
L 431.419468 77.388853 
L 433.797308 77.089177 
L 436.175149 76.910279 
L 438.55299 76.850795 
L 440.930831 76.910279 
L 443.308672 77.089177 
L 445.686513 77.388853 
L 448.064354 77.811638 
L 450.442195 78.360922 
L 452.820036 79.0413 
L 455.197877 79.858778 
L 457.575718 80.82107 
L 459.953558 81.938017 
L 462.331399 83.222201 
L 464.70924 69.840228 
L 467.087081 65.632623 
L 469.464922 63.215452 
L 471.842763 61.911161 
L 474.220604 61.495857 
L 476.598445 61.911161 
L 478.976286 63.215452 
L 481.354127 65.632623 
L 483.731968 69.840228 
L 486.109808 83.222189 
L 488.487649 81.938017 
L 490.86549 80.82107 
L 493.243331 79.858778 
L 495.621172 79.0413 
L 497.999013 78.360922 
L 500.376854 77.811638 
L 502.754695 77.388853 
L 505.132536 77.089177 
L 507.510377 76.910279 
L 509.888218 76.850795 
L 512.266058 76.910279 
L 514.643899 77.089177 
L 517.02174 77.388853 
L 519.399581 77.811638 
L 521.777422 78.360922 
L 524.155263 79.0413 
L 526.533104 79.858778 
L 528.910945 80.82107 
L 531.288786 81.938017 
L 533.666627 83.222201 
L 536.044468 69.840228 
L 538.422308 65.632623 
L 540.800149 63.215452 
L 543.17799 61.911161 
L 545.555831 61.495857 
L 547.933672 61.911161 
L 550.311513 63.215452 
L 552.689354 65.632623 
L 555.067195 69.840228 
L 557.445036 83.222188 
L 559.822877 81.938017 
L 562.200718 80.82107 
L 564.578558 79.858778 
L 566.956399 79.0413 
L 569.33424 78.360922 
L 571.712081 77.811638 
L 574.089922 77.388853 
L 576.467763 77.089177 
L 578.845604 76.910279 
L 581.223445 76.850795 
L 583.601286 76.910279 
L 585.979127 77.089177 
L 588.356968 77.388853 
L 590.734808 77.811638 
L 593.112649 78.360922 
L 595.49049 79.0413 
L 597.868331 79.858778 
L 600.246172 80.82107 
L 602.624013 81.938017 
L 605.001854 83.222201 
L 607.379695 69.840228 
L 609.757536 65.632623 
L 612.135377 63.215452 
L 614.513218 61.911161 
L 616.891058 61.495857 
L 619.268899 61.911161 
L 621.64674 63.215452 
L 624.024581 65.632623 
L 626.402422 69.840228 
L 628.780263 83.222187 
L 631.158104 81.938017 
L 633.535945 80.82107 
L 635.913786 79.858778 
L 638.291627 79.0413 
L 640.669468 78.360922 
L 643.047308 77.811638 
L 645.425149 77.388853 
L 647.80299 77.089177 
L 650.180831 76.910279 
L 652.558672 76.850795 
L 654.936513 76.910279 
L 657.314354 77.089177 
L 659.692195 77.388853 
L 662.070036 77.811638 
L 664.447877 78.360922 
L 666.825718 79.0413 
L 669.203558 79.858778 
L 671.581399 80.82107 
L 673.95924 81.938017 
L 676.337081 83.222201 
L 678.714922 69.840228 
L 681.092763 65.632623 
L 683.470604 63.215452 
L 685.848445 61.911161 
L 688.226286 61.495857 
L 690.604127 61.911161 
L 692.981968 63.215452 
L 695.359808 65.632623 
L 697.737649 69.840228 
L 700.11549 83.222186 
L 702.493331 81.938017 
L 704.871172 80.82107 
L 707.249013 79.858778 
L 709.626854 79.0413 
L 712.004695 78.360922 
L 714.382536 77.811638 
L 716.760377 77.388853 
L 719.138218 77.089177 
L 721.516058 76.910279 
L 723.893899 76.850795 
L 726.27174 76.910279 
L 728.649581 77.089177 
L 731.027422 77.388853 
L 733.405263 77.811638 
L 735.783104 78.360922 
L 738.160945 79.0413 
L 740.538786 79.858778 
L 742.916627 80.82107 
L 745.294468 81.938017 
L 747.672308 83.222201 
L 750.050149 69.840228 
L 752.42799 65.632623 
L 754.805831 63.215452 
L 757.183672 61.911161 
L 759.561513 61.495857 
L 761.939354 61.911161 
L 764.317195 63.215452 
L 766.695036 65.632623 
L 769.072877 69.840228 
L 771.450718 83.222185 
L 773.828558 81.938017 
L 776.206399 80.82107 
L 778.58424 79.858778 
L 780.962081 79.0413 
L 783.339922 78.360922 
L 785.717763 77.811638 
L 788.095604 77.388853 
L 790.473445 77.089177 
L 792.851286 76.910279 
L 795.229127 76.850795 
L 797.606968 76.910279 
L 799.984808 77.089177 
L 802.362649 77.388853 
L 804.74049 77.811638 
L 807.118331 78.360922 
L 809.496172 79.0413 
L 811.874013 79.858778 
L 814.251854 80.82107 
L 816.629695 81.938017 
L 816.629695 81.938017 
" style="fill:none;stroke:#ff7f0e;stroke-linecap:square;stroke-width:1.5;"/>
   </g>
   <g id="line2d_30">
    <path clip-path="url(#p5ea67bafbb)" d="M 58.098445 124.407614 
L 402.885377 124.407614 
L 402.885377 53.072386 
L 474.220604 53.072386 
L 474.220604 124.407614 
L 819.007536 124.407614 
" style="fill:none;stroke:#550055;stroke-dasharray:5.55,2.4;stroke-dashoffset:0;stroke-width:1.5;"/>
   </g>
   <g id="patch_3">
    <path d="M 20.05299 170.28 
L 20.05299 7.2 
" style="fill:none;stroke:#000000;stroke-linecap:square;stroke-linejoin:miter;stroke-width:0.8;"/>
   </g>
   <g id="patch_4">
    <path d="M 857.05299 170.28 
L 857.05299 7.2 
" style="fill:none;stroke:#000000;stroke-linecap:square;stroke-linejoin:miter;stroke-width:0.8;"/>
   </g>
   <g id="patch_5">
    <path d="M 20.05299 170.28 
L 857.05299 170.28 
" style="fill:none;stroke:#000000;stroke-linecap:square;stroke-linejoin:miter;stroke-width:0.8;"/>
   </g>
   <g id="patch_6">
    <path d="M 20.05299 7.2 
L 857.05299 7.2 
" style="fill:none;stroke:#000000;stroke-linecap:square;stroke-linejoin:miter;stroke-width:0.8;"/>
   </g>
   <g id="text_16">
    <!-- $-f_c$ -->
    <g transform="translate(388.939087 139.238755)scale(0.18 -0.18)">
     <defs>
      <path d="M 2502 2431 
C 2381 2431 2323 2431 2234 2355 
C 2195 2323 2125 2227 2125 2125 
C 2125 1997 2221 1920 2342 1920 
C 2496 1920 2669 2044 2669 2292 
C 2669 2588 2374 2816 1933 2816 
C 1094 2816 256 1903 256 996 
C 256 441 602 -64 1254 -64 
C 2125 -64 2675 622 2675 706 
C 2675 744 2637 776 2611 776 
C 2592 776 2586 770 2528 713 
C 2118 162 1510 64 1267 64 
C 826 64 685 446 685 764 
C 685 988 794 1605 1024 2039 
C 1190 2338 1536 2682 1939 2682 
C 2022 2682 2374 2682 2502 2431 
z
" id="CMMI12-63" transform="scale(0.015625)"/>
     </defs>
     <use transform="scale(0.996264)" xlink:href="#CMSY10-0"/>
     <use transform="translate(77.487468 0)scale(0.996264)" xlink:href="#CMMI12-66"/>
     <use transform="translate(125.570705 -14.943915)scale(0.697382)" xlink:href="#CMMI12-63"/>
    </g>
   </g>
   <g id="text_17">
    <!-- $f_c$ -->
    <g transform="translate(467.248185 139.238755)scale(0.18 -0.18)">
     <use transform="scale(0.996264)" xlink:href="#CMMI12-66"/>
     <use transform="translate(48.083238 -14.943915)scale(0.697382)" xlink:href="#CMMI12-63"/>
    </g>
   </g>
   <g id="legend_1">
    <g id="patch_7">
     <path d="M 752.834194 43.940224 
L 845.85299 43.940224 
Q 849.05299 43.940224 849.05299 40.740224 
L 849.05299 18.4 
Q 849.05299 15.2 845.85299 15.2 
L 752.834194 15.2 
Q 749.634194 15.2 749.634194 18.4 
L 749.634194 40.740224 
Q 749.634194 43.940224 752.834194 43.940224 
z
" style="fill:#ffffff;opacity:0.8;stroke:#cccccc;stroke-linejoin:miter;"/>
    </g>
    <g id="line2d_31">
     <path d="M 756.034194 27.955168 
L 788.034194 27.955168 
" style="fill:none;stroke:#ff7f0e;stroke-linecap:square;stroke-width:1.5;"/>
    </g>
    <g id="line2d_32"/>
    <g id="text_18">
     <!-- $X^*(f)$ -->
     <g transform="translate(800.834194 33.555168)scale(0.16 -0.16)">
      <defs>
       <path d="M 3040 2596 
L 2438 3994 
C 2522 4147 2714 4172 2790 4179 
C 2829 4179 2899 4179 2899 4292 
C 2899 4364 2842 4364 2803 4364 
C 2694 4364 2566 4364 2458 4364 
L 2086 4364 
C 1696 4364 1414 4364 1408 4364 
C 1357 4364 1293 4364 1293 4243 
C 1293 4179 1350 4179 1434 4179 
C 1805 4179 1830 4115 1894 3962 
L 2656 2185 
L 1267 693 
C 1037 442 762 198 288 198 
C 211 192 160 192 160 68 
C 160 48 166 0 237 0 
C 326 0 422 0 512 0 
L 813 0 
C 1018 0 1242 0 1440 0 
C 1485 0 1562 0 1562 115 
C 1562 179 1517 185 1478 185 
C 1350 198 1267 268 1267 370 
C 1267 479 1344 557 1530 748 
L 2099 1368 
C 2240 1516 2579 1886 2720 2026 
L 3392 453 
C 3398 441 3424 377 3424 370 
C 3424 313 3283 198 3078 198 
C 3040 198 2970 198 2970 71 
C 2970 0 3034 0 3066 0 
C 3174 0 3302 0 3411 0 
L 4115 0 
C 4230 0 4352 0 4461 0 
C 4506 0 4576 0 4576 130 
C 4576 198 4512 198 4454 198 
C 4070 198 4058 230 3949 465 
L 3104 2441 
L 3917 3316 
C 3981 3381 4128 3542 4186 3606 
C 4461 3896 4717 4160 5235 4160 
C 5299 4179 5363 4179 5363 4292 
C 5363 4364 5306 4364 5280 4364 
C 5190 4364 5094 4364 5005 4364 
L 4710 4364 
C 4506 4364 4282 4364 4083 4364 
C 4038 4364 3962 4364 3962 4249 
C 3962 4185 4006 4179 4045 4179 
C 4147 4167 4256 4116 4256 3994 
L 4250 3982 
C 4243 3937 4230 3873 4160 3797 
L 3040 2596 
z
" id="CMMI12-58" transform="scale(0.015625)"/>
       <path d="M 1760 2719 
C 1766 2808 1766 2962 1600 2962 
C 1498 2962 1414 2879 1434 2795 
L 1434 2712 
L 1523 1720 
L 704 2316 
C 646 2348 634 2360 589 2360 
C 499 2360 416 2271 416 2181 
C 416 2079 480 2053 544 2021 
L 1453 1586 
L 570 1158 
C 467 1107 416 1081 416 985 
C 416 889 499 806 589 806 
C 634 806 646 806 806 928 
L 1523 1446 
L 1427 371 
C 1427 236 1542 204 1594 204 
C 1670 204 1766 248 1766 371 
L 1670 1446 
L 2490 851 
C 2547 819 2560 806 2605 806 
C 2694 806 2778 896 2778 985 
C 2778 1081 2720 1113 2643 1152 
C 2259 1343 2246 1343 1741 1580 
L 2624 2008 
C 2726 2060 2778 2085 2778 2181 
C 2778 2277 2694 2360 2605 2360 
C 2560 2360 2547 2360 2387 2239 
L 1670 1720 
L 1760 2719 
z
" id="CMSY10-3" transform="scale(0.015625)"/>
       <path d="M 1958 -1561 
C 1958 -1555 1958 -1542 1939 -1523 
C 1645 -1224 858 -407 858 1581 
C 858 3569 1632 4379 1946 4697 
C 1946 4704 1958 4717 1958 4736 
C 1958 4755 1939 4768 1914 4768 
C 1843 4768 1299 4296 986 3594 
C 666 2887 576 2199 576 1588 
C 576 1128 621 351 1005 -471 
C 1312 -1135 1837 -1600 1914 -1600 
C 1946 -1600 1958 -1587 1958 -1561 
z
" id="CMR17-28" transform="scale(0.015625)"/>
       <path d="M 1683 1581 
C 1683 2040 1638 2817 1254 3639 
C 947 4303 422 4768 346 4768 
C 326 4768 301 4761 301 4729 
C 301 4717 307 4710 314 4697 
C 621 4378 1402 3568 1402 1584 
C 1402 -407 627 -1217 314 -1537 
C 307 -1549 301 -1556 301 -1568 
C 301 -1600 326 -1600 346 -1600 
C 416 -1600 960 -1128 1274 -426 
C 1594 281 1683 969 1683 1581 
z
" id="CMR17-29" transform="scale(0.015625)"/>
      </defs>
      <use transform="scale(0.996264)" xlink:href="#CMMI12-58"/>
      <use transform="translate(88.792562 36.153639)scale(0.697382)" xlink:href="#CMSY10-3"/>
      <use transform="translate(124.159904 0)scale(0.996264)" xlink:href="#CMR17-28"/>
      <use transform="translate(159.440672 0)scale(0.996264)" xlink:href="#CMMI12-66"/>
      <use transform="translate(218.160977 0)scale(0.996264)" xlink:href="#CMR17-29"/>
     </g>
    </g>
   </g>
  </g>
 </g>
 <defs>
  <clipPath id="p5ea67bafbb">
   <rect height="163.08" width="837" x="20.05299" y="7.2"/>
  </clipPath>
 </defs>
</svg>
