<?xml version="1.0" encoding="utf-8" standalone="no"?>
<!DOCTYPE svg PUBLIC "-//W3C//DTD SVG 1.1//EN"
  "http://www.w3.org/Graphics/SVG/1.1/DTD/svg11.dtd">
<svg height="216.818129pt" version="1.1" viewBox="0 0 594.55148 216.818129" width="594.55148pt" xmlns="http://www.w3.org/2000/svg" xmlns:xlink="http://www.w3.org/1999/xlink">
 <metadata>
  <rdf:RDF xmlns:cc="http://creativecommons.org/ns#" xmlns:dc="http://purl.org/dc/elements/1.1/" xmlns:rdf="http://www.w3.org/1999/02/22-rdf-syntax-ns#">
   <cc:Work>
    <dc:type rdf:resource="http://purl.org/dc/dcmitype/StillImage"/>
    <dc:date>2023-12-04T08:20:20.643716</dc:date>
    <dc:format>image/svg+xml</dc:format>
    <dc:creator>
     <cc:Agent>
      <dc:title>Matplotlib v3.4.3, https://matplotlib.org/</dc:title>
     </cc:Agent>
    </dc:creator>
   </cc:Work>
  </rdf:RDF>
 </metadata>
 <defs>
  <style type="text/css">*{stroke-linecap:butt;stroke-linejoin:round;}</style>
 </defs>
 <g id="figure_1">
  <g id="patch_1">
   <path d="M 0 216.818129 
L 594.55148 216.818129 
L 594.55148 0 
L 0 0 
z
" style="fill:none;"/>
  </g>
  <g id="axes_1">
   <g id="patch_2">
    <path d="M 29.35148 170.28 
L 587.35148 170.28 
L 587.35148 7.2 
L 29.35148 7.2 
z
" style="fill:#ffffff;"/>
   </g>
   <g id="matplotlib.axis_1">
    <g id="xtick_1">
     <g id="line2d_1">
      <path clip-path="url(#pef2cae14d4)" d="M 118.124207 170.28 
L 118.124207 7.2 
" style="fill:none;stroke:#b0b0b0;stroke-linecap:square;stroke-width:0.8;"/>
     </g>
     <g id="line2d_2">
      <defs>
       <path d="M 0 0 
L 0 3.5 
" id="meb166b7cb6" style="stroke:#000000;stroke-width:0.8;"/>
      </defs>
      <g>
       <use style="stroke:#000000;stroke-width:0.8;" x="118.124207" xlink:href="#meb166b7cb6" y="170.28"/>
      </g>
     </g>
     <g id="text_1">
      <!-- $-2f_e$ -->
      <g transform="translate(101.5788 188.349588)scale(0.16 -0.16)">
       <defs>
        <path d="M 4218 1472 
C 4326 1472 4442 1472 4442 1600 
C 4442 1728 4326 1728 4218 1728 
L 755 1728 
C 646 1728 531 1728 531 1600 
C 531 1472 646 1472 755 1472 
L 4218 1472 
z
" id="CMSY10-0" transform="scale(0.015625)"/>
        <path d="M 2669 990 
L 2554 990 
C 2490 537 2438 460 2413 422 
C 2381 371 1920 371 1830 371 
L 602 371 
C 832 620 1280 1073 1824 1596 
C 2214 1966 2669 2400 2669 3033 
C 2669 3788 2067 4224 1395 4224 
C 691 4224 262 3603 262 3027 
C 262 2777 448 2745 525 2745 
C 589 2745 781 2783 781 3007 
C 781 3206 614 3264 525 3264 
C 486 3264 448 3257 422 3244 
C 544 3788 915 4057 1306 4057 
C 1862 4057 2227 3616 2227 3033 
C 2227 2477 1901 1998 1536 1583 
L 262 147 
L 262 0 
L 2515 0 
L 2669 990 
z
" id="CMR17-32" transform="scale(0.015625)"/>
        <path d="M 2854 2566 
C 2982 2566 3034 2566 3034 2687 
C 3034 2752 2982 2752 2867 2752 
L 2349 2752 
C 2470 3398 2560 3846 2611 4051 
C 2650 4204 2784 4351 2950 4351 
C 3085 4351 3219 4294 3283 4236 
C 3034 4211 2957 4025 2957 3916 
C 2957 3788 3053 3712 3174 3712 
C 3302 3712 3494 3820 3494 4064 
C 3494 4332 3226 4480 2944 4480 
C 2669 4480 2400 4275 2272 4025 
C 2157 3801 2093 3573 1946 2752 
L 1517 2752 
C 1395 2752 1331 2752 1331 2636 
C 1331 2566 1370 2566 1498 2566 
L 1907 2566 
C 1792 1977 1530 545 1382 -132 
C 1274 -685 1178 -1152 858 -1152 
C 838 -1152 653 -1152 538 -1031 
C 864 -1005 864 -724 864 -717 
C 864 -589 768 -512 646 -512 
C 518 -512 326 -621 326 -865 
C 326 -1140 608 -1280 858 -1280 
C 1510 -1280 1779 -113 1850 203 
C 1965 691 2278 2376 2310 2566 
L 2854 2566 
z
" id="CMMI12-66" transform="scale(0.015625)"/>
        <path d="M 1146 1472 
C 1318 1472 1754 1484 2061 1600 
C 2547 1786 2592 2160 2592 2275 
C 2592 2559 2349 2816 1926 2816 
C 1254 2816 288 2205 288 1066 
C 288 400 672 -64 1254 -64 
C 2125 -64 2675 609 2675 691 
C 2675 729 2637 761 2611 761 
C 2592 761 2586 755 2528 698 
C 2118 159 1510 64 1267 64 
C 902 64 710 349 710 818 
C 710 907 710 1066 806 1472 
L 1146 1472 
z
M 838 1600 
C 1114 2591 1722 2687 1926 2687 
C 2208 2687 2400 2520 2400 2275 
C 2400 1600 1376 1600 1107 1600 
L 838 1600 
z
" id="CMMI12-65" transform="scale(0.015625)"/>
       </defs>
       <use transform="scale(0.996264)" xlink:href="#CMSY10-0"/>
       <use transform="translate(77.487468 0)scale(0.996264)" xlink:href="#CMR17-32"/>
       <use transform="translate(123.177945 0)scale(0.996264)" xlink:href="#CMMI12-66"/>
       <use transform="translate(171.261182 -14.943915)scale(0.697382)" xlink:href="#CMMI12-65"/>
      </g>
     </g>
    </g>
    <g id="xtick_2">
     <g id="line2d_3">
      <path clip-path="url(#pef2cae14d4)" d="M 213.237843 170.28 
L 213.237843 7.2 
" style="fill:none;stroke:#b0b0b0;stroke-linecap:square;stroke-width:0.8;"/>
     </g>
     <g id="line2d_4">
      <g>
       <use style="stroke:#000000;stroke-width:0.8;" x="213.237843" xlink:href="#meb166b7cb6" y="170.28"/>
      </g>
     </g>
     <g id="text_2">
      <!-- $f_e$ -->
      <g transform="translate(206.793428 188.349588)scale(0.16 -0.16)">
       <use transform="scale(0.996264)" xlink:href="#CMMI12-66"/>
       <use transform="translate(48.083238 -14.943915)scale(0.697382)" xlink:href="#CMMI12-65"/>
      </g>
     </g>
    </g>
    <g id="xtick_3">
     <g id="line2d_5">
      <path clip-path="url(#pef2cae14d4)" d="M 308.35148 170.28 
L 308.35148 7.2 
" style="fill:none;stroke:#b0b0b0;stroke-linecap:square;stroke-width:0.8;"/>
     </g>
     <g id="line2d_6">
      <g>
       <use style="stroke:#000000;stroke-width:0.8;" x="308.35148" xlink:href="#meb166b7cb6" y="170.28"/>
      </g>
     </g>
     <g id="text_3">
      <!-- $0$ -->
      <g transform="translate(304.449486 188.349588)scale(0.16 -0.16)">
       <defs>
        <path d="M 2688 2038 
C 2688 2430 2682 3099 2413 3613 
C 2176 4063 1798 4224 1466 4224 
C 1158 4224 768 4082 525 3620 
C 269 3137 243 2539 243 2038 
C 243 1671 250 1112 448 623 
C 723 -39 1216 -128 1466 -128 
C 1760 -128 2208 -7 2470 604 
C 2662 1048 2688 1568 2688 2038 
z
M 1466 -26 
C 1056 -26 813 328 723 816 
C 653 1196 653 1749 653 2109 
C 653 2604 653 3015 736 3407 
C 858 3954 1216 4121 1466 4121 
C 1728 4121 2067 3947 2189 3420 
C 2272 3054 2278 2623 2278 2109 
C 2278 1691 2278 1176 2202 797 
C 2067 96 1690 -26 1466 -26 
z
" id="CMR17-30" transform="scale(0.015625)"/>
       </defs>
       <use transform="scale(0.996264)" xlink:href="#CMR17-30"/>
      </g>
     </g>
    </g>
    <g id="xtick_4">
     <g id="line2d_7">
      <path clip-path="url(#pef2cae14d4)" d="M 403.465116 170.28 
L 403.465116 7.2 
" style="fill:none;stroke:#b0b0b0;stroke-linecap:square;stroke-width:0.8;"/>
     </g>
     <g id="line2d_8">
      <g>
       <use style="stroke:#000000;stroke-width:0.8;" x="403.465116" xlink:href="#meb166b7cb6" y="170.28"/>
      </g>
     </g>
     <g id="text_4">
      <!-- $f_e$ -->
      <g transform="translate(397.0207 188.349588)scale(0.16 -0.16)">
       <use transform="scale(0.996264)" xlink:href="#CMMI12-66"/>
       <use transform="translate(48.083238 -14.943915)scale(0.697382)" xlink:href="#CMMI12-65"/>
      </g>
     </g>
    </g>
    <g id="xtick_5">
     <g id="line2d_9">
      <path clip-path="url(#pef2cae14d4)" d="M 498.578752 170.28 
L 498.578752 7.2 
" style="fill:none;stroke:#b0b0b0;stroke-linecap:square;stroke-width:0.8;"/>
     </g>
     <g id="line2d_10">
      <g>
       <use style="stroke:#000000;stroke-width:0.8;" x="498.578752" xlink:href="#meb166b7cb6" y="170.28"/>
      </g>
     </g>
     <g id="text_5">
      <!-- $2f_e$ -->
      <g transform="translate(488.232343 188.349588)scale(0.16 -0.16)">
       <use transform="scale(0.996264)" xlink:href="#CMR17-32"/>
       <use transform="translate(45.690477 0)scale(0.996264)" xlink:href="#CMMI12-66"/>
       <use transform="translate(93.773715 -14.943915)scale(0.697382)" xlink:href="#CMMI12-65"/>
      </g>
     </g>
    </g>
    <g id="text_6">
     <!-- $f$ -->
     <g transform="translate(304.504821 206.518653)scale(0.16 -0.16)">
      <use transform="scale(0.996264)" xlink:href="#CMMI12-66"/>
     </g>
    </g>
   </g>
   <g id="matplotlib.axis_2">
    <g id="ytick_1">
     <g id="line2d_11">
      <path clip-path="url(#pef2cae14d4)" d="M 29.35148 144.222955 
L 587.35148 144.222955 
" style="fill:none;stroke:#b0b0b0;stroke-linecap:square;stroke-width:0.8;"/>
     </g>
     <g id="line2d_12">
      <defs>
       <path d="M 0 0 
L -3.5 0 
" id="m3aa07c3025" style="stroke:#000000;stroke-width:0.8;"/>
      </defs>
      <g>
       <use style="stroke:#000000;stroke-width:0.8;" x="29.35148" xlink:href="#m3aa07c3025" y="144.222955"/>
      </g>
     </g>
     <g id="text_7">
      <!-- $\mathdefault{−1}$ -->
      <g transform="translate(7.2 148.374044)scale(0.12 -0.12)">
       <defs>
        <path d="M 1702 4083 
C 1702 4217 1696 4224 1606 4224 
C 1357 3927 979 3833 621 3820 
C 602 3820 570 3820 563 3808 
C 557 3795 557 3782 557 3648 
C 755 3648 1088 3686 1344 3839 
L 1344 467 
C 1344 243 1331 166 781 166 
L 589 166 
L 589 0 
C 896 6 1216 12 1523 12 
C 1830 12 2150 6 2458 0 
L 2458 166 
L 2266 166 
C 1715 166 1702 236 1702 467 
L 1702 4083 
z
" id="CMR17-31" transform="scale(0.015625)"/>
       </defs>
       <use transform="scale(0.996264)" xlink:href="#CMSY10-0"/>
       <use transform="translate(77.487468 0)scale(0.996264)" xlink:href="#CMR17-31"/>
      </g>
     </g>
    </g>
    <g id="ytick_2">
     <g id="line2d_13">
      <path clip-path="url(#pef2cae14d4)" d="M 29.35148 112.518409 
L 587.35148 112.518409 
" style="fill:none;stroke:#b0b0b0;stroke-linecap:square;stroke-width:0.8;"/>
     </g>
     <g id="line2d_14">
      <g>
       <use style="stroke:#000000;stroke-width:0.8;" x="29.35148" xlink:href="#m3aa07c3025" y="112.518409"/>
      </g>
     </g>
     <g id="text_8">
      <!-- $\mathdefault{0}$ -->
      <g transform="translate(16.498489 116.669499)scale(0.12 -0.12)">
       <use transform="scale(0.996264)" xlink:href="#CMR17-30"/>
      </g>
     </g>
    </g>
    <g id="ytick_3">
     <g id="line2d_15">
      <path clip-path="url(#pef2cae14d4)" d="M 29.35148 80.813864 
L 587.35148 80.813864 
" style="fill:none;stroke:#b0b0b0;stroke-linecap:square;stroke-width:0.8;"/>
     </g>
     <g id="line2d_16">
      <g>
       <use style="stroke:#000000;stroke-width:0.8;" x="29.35148" xlink:href="#m3aa07c3025" y="80.813864"/>
      </g>
     </g>
     <g id="text_9">
      <!-- $\mathdefault{1}$ -->
      <g transform="translate(16.498489 84.964954)scale(0.12 -0.12)">
       <use transform="scale(0.996264)" xlink:href="#CMR17-31"/>
      </g>
     </g>
    </g>
    <g id="ytick_4">
     <g id="line2d_17">
      <path clip-path="url(#pef2cae14d4)" d="M 29.35148 49.109318 
L 587.35148 49.109318 
" style="fill:none;stroke:#b0b0b0;stroke-linecap:square;stroke-width:0.8;"/>
     </g>
     <g id="line2d_18">
      <g>
       <use style="stroke:#000000;stroke-width:0.8;" x="29.35148" xlink:href="#m3aa07c3025" y="49.109318"/>
      </g>
     </g>
     <g id="text_10">
      <!-- $\mathdefault{2}$ -->
      <g transform="translate(16.498489 53.260408)scale(0.12 -0.12)">
       <use transform="scale(0.996264)" xlink:href="#CMR17-32"/>
      </g>
     </g>
    </g>
    <g id="ytick_5">
     <g id="line2d_19">
      <path clip-path="url(#pef2cae14d4)" d="M 29.35148 17.404773 
L 587.35148 17.404773 
" style="fill:none;stroke:#b0b0b0;stroke-linecap:square;stroke-width:0.8;"/>
     </g>
     <g id="line2d_20">
      <g>
       <use style="stroke:#000000;stroke-width:0.8;" x="29.35148" xlink:href="#m3aa07c3025" y="17.404773"/>
      </g>
     </g>
     <g id="text_11">
      <!-- $\mathdefault{3}$ -->
      <g transform="translate(16.498489 21.555863)scale(0.12 -0.12)">
       <defs>
        <path d="M 1414 2176 
C 1984 2176 2234 1673 2234 1094 
C 2234 322 1824 25 1453 25 
C 1114 25 563 193 390 691 
C 422 678 454 678 486 678 
C 640 678 755 780 755 947 
C 755 1132 614 1216 486 1216 
C 378 1216 211 1164 211 927 
C 211 335 787 -128 1466 -128 
C 2176 -128 2720 432 2720 1087 
C 2720 1718 2208 2176 1600 2246 
C 2086 2347 2554 2776 2554 3353 
C 2554 3856 2048 4224 1472 4224 
C 890 4224 378 3862 378 3347 
C 378 3123 544 3084 627 3084 
C 762 3084 877 3167 877 3334 
C 877 3500 762 3584 627 3584 
C 602 3584 570 3584 544 3571 
C 730 3999 1235 4076 1459 4076 
C 1683 4076 2106 3966 2106 3347 
C 2106 3167 2080 2851 1862 2574 
C 1670 2329 1453 2316 1242 2297 
C 1210 2297 1062 2284 1037 2284 
C 992 2278 966 2272 966 2227 
C 966 2182 973 2176 1101 2176 
L 1414 2176 
z
" id="CMR17-33" transform="scale(0.015625)"/>
       </defs>
       <use transform="scale(0.996264)" xlink:href="#CMR17-33"/>
      </g>
     </g>
    </g>
   </g>
   <g id="line2d_21">
    <path clip-path="url(#pef2cae14d4)" d="M 54.715116 112.518409 
L 86.419661 112.518409 
L 88.004889 102.618668 
L 89.590116 98.698718 
L 91.175343 95.817003 
L 92.760571 93.495682 
L 94.345798 91.547823 
L 95.931025 89.876835 
L 97.516252 88.42504 
L 99.10148 87.154773 
L 100.686707 86.039893 
L 103.857161 84.205345 
L 107.027616 82.819186 
L 110.198071 81.820615 
L 113.368525 81.172569 
L 116.53898 80.853519 
L 119.709434 80.853519 
L 122.879889 81.172569 
L 126.050343 81.820615 
L 129.220798 82.819186 
L 132.391252 84.205345 
L 135.561707 86.039893 
L 137.146934 87.154773 
L 138.732161 88.42504 
L 140.317389 89.876835 
L 141.902616 91.547823 
L 143.487843 93.495682 
L 145.073071 95.817003 
L 146.658298 98.698718 
L 148.243525 102.618668 
L 149.828752 112.518404 
L 181.533298 112.518409 
L 183.118525 102.618668 
L 184.703752 98.698718 
L 186.28898 95.817003 
L 187.874207 93.495682 
L 189.459434 91.547823 
L 191.044661 89.876835 
L 192.629889 88.42504 
L 194.215116 87.154773 
L 195.800343 86.039893 
L 198.970798 84.205345 
L 202.141252 82.819186 
L 205.311707 81.820615 
L 208.482161 81.172569 
L 211.652616 80.853519 
L 214.823071 80.853519 
L 217.993525 81.172569 
L 221.16398 81.820615 
L 224.334434 82.819186 
L 227.504889 84.205345 
L 230.675343 86.039893 
L 232.260571 87.154773 
L 233.845798 88.42504 
L 235.431025 89.876835 
L 237.016252 91.547823 
L 238.60148 93.495682 
L 240.186707 95.817003 
L 241.771934 98.698718 
L 243.357161 102.618668 
L 244.942389 112.518403 
L 276.646934 112.518409 
L 278.232161 102.618668 
L 279.817389 98.698718 
L 281.402616 95.817003 
L 282.987843 93.495682 
L 284.573071 91.547823 
L 286.158298 89.876835 
L 287.743525 88.42504 
L 289.328752 87.154773 
L 290.91398 86.039893 
L 294.084434 84.205345 
L 297.254889 82.819186 
L 300.425343 81.820615 
L 303.595798 81.172569 
L 306.766252 80.853519 
L 309.936707 80.853519 
L 313.107161 81.172569 
L 316.277616 81.820615 
L 319.448071 82.819186 
L 322.618525 84.205345 
L 325.78898 86.039893 
L 327.374207 87.154773 
L 328.959434 88.42504 
L 330.544661 89.876835 
L 332.129889 91.547823 
L 333.715116 93.495682 
L 335.300343 95.817003 
L 336.885571 98.698718 
L 338.470798 102.618668 
L 340.056025 112.518401 
L 371.760571 112.518409 
L 373.345798 102.618668 
L 374.931025 98.698718 
L 376.516252 95.817003 
L 378.10148 93.495682 
L 379.686707 91.547823 
L 381.271934 89.876835 
L 382.857161 88.42504 
L 384.442389 87.154773 
L 386.027616 86.039893 
L 389.198071 84.205345 
L 392.368525 82.819186 
L 395.53898 81.820615 
L 398.709434 81.172569 
L 401.879889 80.853519 
L 405.050343 80.853519 
L 408.220798 81.172569 
L 411.391252 81.820615 
L 414.561707 82.819186 
L 417.732161 84.205345 
L 420.902616 86.039893 
L 422.487843 87.154773 
L 424.073071 88.42504 
L 425.658298 89.876835 
L 427.243525 91.547823 
L 428.828752 93.495682 
L 430.41398 95.817003 
L 431.999207 98.698718 
L 433.584434 102.618668 
L 435.169661 112.5184 
L 466.874207 112.518409 
L 468.459434 102.618668 
L 470.044661 98.698718 
L 471.629889 95.817003 
L 473.215116 93.495682 
L 474.800343 91.547823 
L 476.385571 89.876835 
L 477.970798 88.42504 
L 479.556025 87.154773 
L 481.141252 86.039893 
L 484.311707 84.205345 
L 487.482161 82.819186 
L 490.652616 81.820615 
L 493.823071 81.172569 
L 496.993525 80.853519 
L 500.16398 80.853519 
L 503.334434 81.172569 
L 506.504889 81.820615 
L 509.675343 82.819186 
L 512.845798 84.205345 
L 516.016252 86.039893 
L 517.60148 87.154773 
L 519.186707 88.42504 
L 520.771934 89.876835 
L 522.357161 91.547823 
L 523.942389 93.495682 
L 525.527616 95.817003 
L 527.112843 98.698718 
L 528.698071 102.618668 
L 530.283298 112.518399 
L 560.402616 112.518409 
L 560.402616 112.518409 
" style="fill:none;stroke:#ff7f0e;stroke-linecap:square;stroke-width:1.5;"/>
   </g>
   <g id="line2d_22">
    <path clip-path="url(#pef2cae14d4)" d="M 54.715116 112.518409 
L 260.794661 112.518409 
L 260.794661 64.961591 
L 355.908298 64.961591 
L 355.908298 112.518409 
L 561.987843 112.518409 
" style="fill:none;stroke:#550055;stroke-dasharray:5.55,2.4;stroke-dashoffset:0;stroke-width:1.5;"/>
   </g>
   <g id="patch_3">
    <path d="M 29.35148 170.28 
L 29.35148 7.2 
" style="fill:none;stroke:#000000;stroke-linecap:square;stroke-linejoin:miter;stroke-width:0.8;"/>
   </g>
   <g id="patch_4">
    <path d="M 587.35148 170.28 
L 587.35148 7.2 
" style="fill:none;stroke:#000000;stroke-linecap:square;stroke-linejoin:miter;stroke-width:0.8;"/>
   </g>
   <g id="patch_5">
    <path d="M 29.35148 170.28 
L 587.35148 170.28 
" style="fill:none;stroke:#000000;stroke-linecap:square;stroke-linejoin:miter;stroke-width:0.8;"/>
   </g>
   <g id="patch_6">
    <path d="M 29.35148 7.2 
L 587.35148 7.2 
" style="fill:none;stroke:#000000;stroke-linecap:square;stroke-linejoin:miter;stroke-width:0.8;"/>
   </g>
   <g id="text_12">
    <!-- $-f_c$ -->
    <g transform="translate(246.848372 126.556936)scale(0.18 -0.18)">
     <defs>
      <path d="M 2502 2432 
C 2381 2432 2323 2432 2234 2355 
C 2195 2323 2125 2227 2125 2124 
C 2125 1996 2221 1919 2342 1919 
C 2496 1919 2669 2047 2669 2303 
C 2669 2591 2374 2816 1933 2816 
C 1094 2816 256 1932 256 1011 
C 256 446 602 -64 1254 -64 
C 2125 -64 2675 622 2675 706 
C 2675 745 2637 777 2611 777 
C 2592 777 2586 771 2528 712 
C 2118 161 1510 64 1267 64 
C 826 64 685 453 685 777 
C 685 1004 794 1634 1024 2073 
C 1190 2374 1536 2687 1939 2687 
C 2022 2687 2374 2676 2502 2432 
z
" id="CMMI12-63" transform="scale(0.015625)"/>
     </defs>
     <use transform="scale(0.996264)" xlink:href="#CMSY10-0"/>
     <use transform="translate(77.487468 0)scale(0.996264)" xlink:href="#CMMI12-66"/>
     <use transform="translate(125.570705 -14.943915)scale(0.697382)" xlink:href="#CMMI12-63"/>
    </g>
   </g>
   <g id="text_13">
    <!-- $f_c$ -->
    <g transform="translate(348.935879 126.556936)scale(0.18 -0.18)">
     <use transform="scale(0.996264)" xlink:href="#CMMI12-66"/>
     <use transform="translate(48.083238 -14.943915)scale(0.697382)" xlink:href="#CMMI12-63"/>
    </g>
   </g>
   <g id="legend_1">
    <g id="patch_7">
     <path d="M 483.132684 43.940224 
L 576.15148 43.940224 
Q 579.35148 43.940224 579.35148 40.740224 
L 579.35148 18.4 
Q 579.35148 15.2 576.15148 15.2 
L 483.132684 15.2 
Q 479.932684 15.2 479.932684 18.4 
L 479.932684 40.740224 
Q 479.932684 43.940224 483.132684 43.940224 
z
" style="fill:#ffffff;opacity:0.8;stroke:#cccccc;stroke-linejoin:miter;"/>
    </g>
    <g id="line2d_23">
     <path d="M 486.332684 27.955168 
L 518.332684 27.955168 
" style="fill:none;stroke:#ff7f0e;stroke-linecap:square;stroke-width:1.5;"/>
    </g>
    <g id="line2d_24"/>
    <g id="text_14">
     <!-- $X^*(f)$ -->
     <g transform="translate(531.132684 33.555168)scale(0.16 -0.16)">
      <defs>
       <path d="M 3040 2586 
L 2438 3981 
C 2522 4134 2714 4159 2790 4166 
C 2829 4166 2899 4172 2899 4281 
C 2899 4352 2842 4352 2803 4352 
C 2694 4352 2566 4339 2458 4339 
L 2086 4339 
C 1696 4339 1414 4352 1408 4352 
C 1357 4352 1293 4352 1293 4230 
C 1293 4166 1350 4166 1434 4166 
C 1805 4166 1830 4102 1894 3949 
L 2656 2179 
L 1267 701 
C 1037 453 762 211 288 185 
C 211 179 160 179 160 64 
C 160 44 166 0 237 0 
C 326 0 422 12 512 12 
L 813 12 
C 1018 12 1242 0 1440 0 
C 1485 0 1562 0 1562 115 
C 1562 179 1517 185 1478 185 
C 1350 198 1267 268 1267 370 
C 1267 478 1344 555 1530 746 
L 2099 1363 
C 2240 1510 2579 1879 2720 2019 
L 3392 453 
C 3398 440 3424 376 3424 370 
C 3424 312 3283 198 3078 185 
C 3040 185 2970 179 2970 64 
C 2970 0 3034 0 3066 0 
C 3174 0 3302 12 3411 12 
L 4115 12 
C 4230 12 4352 0 4461 0 
C 4506 0 4576 0 4576 121 
C 4576 185 4512 185 4454 185 
C 4070 191 4058 223 3949 459 
L 3104 2433 
L 3917 3300 
C 3981 3363 4128 3523 4186 3586 
C 4461 3873 4717 4134 5235 4166 
C 5299 4172 5363 4172 5363 4281 
C 5363 4352 5306 4352 5280 4352 
C 5190 4352 5094 4339 5005 4339 
L 4710 4339 
C 4506 4339 4282 4352 4083 4352 
C 4038 4352 3962 4352 3962 4236 
C 3962 4172 4006 4166 4045 4166 
C 4147 4153 4256 4102 4256 3981 
L 4250 3968 
C 4243 3924 4230 3860 4160 3784 
L 3040 2586 
z
" id="CMMI12-58" transform="scale(0.015625)"/>
       <path d="M 1760 2762 
C 1766 2853 1766 3008 1600 3008 
C 1498 3008 1414 2924 1434 2840 
L 1434 2755 
L 1523 1740 
L 704 2349 
C 646 2382 634 2395 589 2395 
C 499 2395 416 2303 416 2212 
C 416 2107 480 2081 544 2048 
L 1453 1603 
L 570 1164 
C 467 1112 416 1085 416 987 
C 416 889 499 804 589 804 
C 634 804 646 804 806 928 
L 1523 1459 
L 1427 359 
C 1427 224 1542 192 1594 192 
C 1670 192 1766 236 1766 359 
L 1670 1459 
L 2490 850 
C 2547 817 2560 804 2605 804 
C 2694 804 2778 896 2778 987 
C 2778 1085 2720 1118 2643 1157 
C 2259 1354 2246 1354 1741 1596 
L 2624 2035 
C 2726 2087 2778 2113 2778 2212 
C 2778 2310 2694 2395 2605 2395 
C 2560 2395 2547 2395 2387 2271 
L 1670 1740 
L 1760 2762 
z
" id="CMSY10-3" transform="scale(0.015625)"/>
       <path d="M 1958 -1562 
C 1958 -1556 1958 -1543 1939 -1524 
C 1645 -1223 858 -403 858 1596 
C 858 3595 1632 4408 1946 4729 
C 1946 4735 1958 4748 1958 4767 
C 1958 4787 1939 4800 1914 4800 
C 1843 4800 1299 4325 986 3620 
C 666 2909 576 2218 576 1603 
C 576 1141 621 360 1005 -467 
C 1312 -1133 1837 -1600 1914 -1600 
C 1946 -1600 1958 -1588 1958 -1562 
z
" id="CMR17-28" transform="scale(0.015625)"/>
       <path d="M 1683 1596 
C 1683 2057 1638 2839 1254 3665 
C 947 4332 422 4800 346 4800 
C 326 4800 301 4793 301 4761 
C 301 4748 307 4742 314 4729 
C 621 4408 1402 3595 1402 1603 
C 1402 -396 627 -1210 314 -1530 
C 307 -1543 301 -1549 301 -1562 
C 301 -1594 326 -1600 346 -1600 
C 416 -1600 960 -1127 1274 -422 
C 1594 289 1683 981 1683 1596 
z
" id="CMR17-29" transform="scale(0.015625)"/>
      </defs>
      <use transform="scale(0.996264)" xlink:href="#CMMI12-58"/>
      <use transform="translate(88.792562 36.153639)scale(0.697382)" xlink:href="#CMSY10-3"/>
      <use transform="translate(124.159904 0)scale(0.996264)" xlink:href="#CMR17-28"/>
      <use transform="translate(159.440672 0)scale(0.996264)" xlink:href="#CMMI12-66"/>
      <use transform="translate(218.160977 0)scale(0.996264)" xlink:href="#CMR17-29"/>
     </g>
    </g>
   </g>
  </g>
 </g>
 <defs>
  <clipPath id="pef2cae14d4">
   <rect height="163.08" width="558" x="29.35148" y="7.2"/>
  </clipPath>
 </defs>
</svg>
