<?xml version="1.0" encoding="utf-8" standalone="no"?>
<!DOCTYPE svg PUBLIC "-//W3C//DTD SVG 1.1//EN"
  "http://www.w3.org/Graphics/SVG/1.1/DTD/svg11.dtd">
<svg height="286.980513pt" version="1.1" viewBox="0 0 885.948131 286.980513" width="885.948131pt" xmlns="http://www.w3.org/2000/svg" xmlns:xlink="http://www.w3.org/1999/xlink">
 <metadata>
  <rdf:RDF xmlns:cc="http://creativecommons.org/ns#" xmlns:dc="http://purl.org/dc/elements/1.1/" xmlns:rdf="http://www.w3.org/1999/02/22-rdf-syntax-ns#">
   <cc:Work>
    <dc:type rdf:resource="http://purl.org/dc/dcmitype/StillImage"/>
    <dc:date>2021-10-19T23:03:56.529974</dc:date>
    <dc:format>image/svg+xml</dc:format>
    <dc:creator>
     <cc:Agent>
      <dc:title>Matplotlib v3.4.3, https://matplotlib.org/</dc:title>
     </cc:Agent>
    </dc:creator>
   </cc:Work>
  </rdf:RDF>
 </metadata>
 <defs>
  <style type="text/css">*{stroke-linecap:butt;stroke-linejoin:round;}</style>
 </defs>
 <g id="figure_1">
  <g id="patch_1">
   <path d="M 0 286.980513 
L 885.948131 286.980513 
L 885.948131 0 
L 0 0 
z
" style="fill:none;"/>
  </g>
  <g id="patch_2">
   <path d="M 7.2 270.999525 
L 253.376471 270.999525 
L 253.376471 24.823055 
L 7.2 24.823055 
z
" style="fill:#ffffff;"/>
  </g>
  <g id="pane3d_1">
   <g id="patch_3">
    <path d="M 25.788021 210.300297 
L 107.083532 142.156788 
L 105.953446 43.881667 
L 20.767526 106.046471 
" style="fill:#f2f2f2;opacity:0.5;stroke:#f2f2f2;stroke-linejoin:miter;"/>
   </g>
  </g>
  <g id="pane3d_2">
   <g id="patch_4">
    <path d="M 107.083532 142.156788 
L 237.533819 180.073537 
L 242.18913 78.413442 
L 105.953446 43.881667 
" style="fill:#e6e6e6;opacity:0.5;stroke:#e6e6e6;stroke-linejoin:miter;"/>
   </g>
  </g>
  <g id="pane3d_3">
   <g id="patch_5">
    <path d="M 25.788021 210.300297 
L 164.071698 255.463745 
L 237.533819 180.073537 
L 107.083532 142.156788 
" style="fill:#ececec;opacity:0.5;stroke:#ececec;stroke-linejoin:miter;"/>
   </g>
  </g>
  <g id="axis3d_1">
   <g id="line2d_1">
    <path d="M 25.788021 210.300297 
L 164.071698 255.463745 
" style="fill:none;stroke:#000000;stroke-linecap:square;stroke-width:0.8;"/>
   </g>
   <g id="text_1">
    <!-- $n$ -->
    <g transform="translate(72.728555 271.069391)scale(0.14 -0.14)">
     <defs>
      <path d="M 1318 1871 
C 1331 1910 1491 2229 1728 2433 
C 1894 2586 2112 2689 2362 2689 
C 2618 2689 2707 2497 2707 2242 
C 2707 1878 2445 1150 2317 805 
C 2259 651 2227 568 2227 453 
C 2227 166 2426 -64 2733 -64 
C 3328 -64 3552 875 3552 913 
C 3552 945 3526 971 3488 971 
C 3430 971 3424 952 3392 843 
C 3245 319 3002 64 2752 64 
C 2688 64 2586 64 2586 269 
C 2586 429 2656 621 2694 710 
C 2822 1063 3091 1780 3091 2145 
C 3091 2528 2867 2816 2381 2816 
C 1811 2816 1510 2415 1395 2255 
C 1376 2618 1114 2816 832 2816 
C 627 2816 486 2695 378 2478 
C 262 2248 173 1865 173 1839 
C 173 1814 198 1782 243 1782 
C 294 1782 301 1788 339 1935 
C 442 2325 557 2689 813 2689 
C 960 2689 1011 2586 1011 2395 
C 1011 2254 947 2005 902 1807 
L 723 1118 
C 698 996 627 709 595 594 
C 550 428 480 128 480 96 
C 480 6 550 -64 646 -64 
C 723 -64 813 -26 864 70 
C 877 102 934 326 966 453 
L 1107 1028 
L 1318 1871 
z
" id="CMMI12-6e" transform="scale(0.015625)"/>
     </defs>
     <use transform="scale(0.996264)" xlink:href="#CMMI12-6e"/>
    </g>
   </g>
   <g id="Line3DCollection_1">
    <path d="M 34.163206 213.035632 
L 115.017119 144.462769 
L 114.222471 45.977624 
" style="fill:none;stroke:#b0b0b0;stroke-width:0.8;"/>
    <path d="M 57.466735 220.646565 
L 137.06957 150.872546 
L 137.218464 51.806438 
" style="fill:none;stroke:#b0b0b0;stroke-width:0.8;"/>
    <path d="M 81.198099 228.397228 
L 159.493149 157.390195 
L 160.61829 57.737611 
" style="fill:none;stroke:#b0b0b0;stroke-width:0.8;"/>
    <path d="M 105.369191 236.291507 
L 182.297304 164.018462 
L 184.432681 63.773865 
" style="fill:none;stroke:#b0b0b0;stroke-width:0.8;"/>
    <path d="M 129.992345 244.333429 
L 205.491807 170.760189 
L 208.672753 69.918017 
" style="fill:none;stroke:#b0b0b0;stroke-width:0.8;"/>
    <path d="M 155.080364 252.527176 
L 229.086766 177.618312 
L 233.350022 76.172985 
" style="fill:none;stroke:#b0b0b0;stroke-width:0.8;"/>
   </g>
   <g id="xtick_1">
    <g id="line2d_2">
     <path clip-path="url(#p94b4a92824)" d="M 133.614944 144.584581 
" style="fill:none;stroke:#b0b0b0;stroke-linecap:square;stroke-width:0.8;"/>
    </g>
    <g id="line2d_3">
     <path d="M 34.867278 212.438504 
L 32.752042 214.232452 
" style="fill:none;stroke:#000000;stroke-linecap:square;stroke-width:0.8;"/>
    </g>
    <g id="text_2">
     <!-- $\mathdefault{0.0}$ -->
     <g transform="translate(19.153069 237.053255)scale(0.12 -0.12)">
      <defs>
       <path d="M 2688 2025 
C 2688 2416 2682 3080 2413 3591 
C 2176 4039 1798 4198 1466 4198 
C 1158 4198 768 4058 525 3597 
C 269 3118 243 2524 243 2025 
C 243 1661 250 1106 448 619 
C 723 -39 1216 -128 1466 -128 
C 1760 -128 2208 -7 2470 600 
C 2662 1042 2688 1559 2688 2025 
z
M 1466 -26 
C 1056 -26 813 325 723 812 
C 653 1188 653 1738 653 2096 
C 653 2588 653 2997 736 3387 
C 858 3929 1216 4096 1466 4096 
C 1728 4096 2067 3923 2189 3400 
C 2272 3036 2278 2607 2278 2096 
C 2278 1680 2278 1169 2202 792 
C 2067 95 1690 -26 1466 -26 
z
" id="CMR17-30" transform="scale(0.015625)"/>
       <path d="M 1178 307 
C 1178 492 1024 619 870 619 
C 685 619 557 466 557 313 
C 557 128 710 0 864 0 
C 1050 0 1178 153 1178 307 
z
" id="CMMI12-3a" transform="scale(0.015625)"/>
      </defs>
      <use transform="scale(0.996264)" xlink:href="#CMR17-30"/>
      <use transform="translate(45.690477 0)scale(0.996264)" xlink:href="#CMMI12-3a"/>
      <use transform="translate(72.787654 0)scale(0.996264)" xlink:href="#CMR17-30"/>
     </g>
    </g>
   </g>
   <g id="xtick_2">
    <g id="line2d_4">
     <path clip-path="url(#p94b4a92824)" d="M 133.614944 144.584581 
" style="fill:none;stroke:#b0b0b0;stroke-linecap:square;stroke-width:0.8;"/>
    </g>
    <g id="line2d_5">
     <path d="M 58.160424 220.038528 
L 56.076353 221.865272 
" style="fill:none;stroke:#000000;stroke-linecap:square;stroke-width:0.8;"/>
    </g>
    <g id="text_3">
     <!-- $\mathdefault{0.2}$ -->
     <g transform="translate(42.482338 244.838588)scale(0.12 -0.12)">
      <defs>
       <path d="M 2669 989 
L 2554 989 
C 2490 536 2438 459 2413 420 
C 2381 369 1920 369 1830 369 
L 602 369 
C 832 619 1280 1072 1824 1597 
C 2214 1967 2669 2402 2669 3035 
C 2669 3790 2067 4224 1395 4224 
C 691 4224 262 3604 262 3030 
C 262 2780 448 2748 525 2748 
C 589 2748 781 2787 781 3010 
C 781 3207 614 3264 525 3264 
C 486 3264 448 3258 422 3245 
C 544 3790 915 4058 1306 4058 
C 1862 4058 2227 3617 2227 3035 
C 2227 2479 1901 2000 1536 1584 
L 262 146 
L 262 0 
L 2515 0 
L 2669 989 
z
" id="CMR17-32" transform="scale(0.015625)"/>
      </defs>
      <use transform="scale(0.996264)" xlink:href="#CMR17-30"/>
      <use transform="translate(45.690477 0)scale(0.996264)" xlink:href="#CMMI12-3a"/>
      <use transform="translate(72.787654 0)scale(0.996264)" xlink:href="#CMR17-32"/>
     </g>
    </g>
   </g>
   <g id="xtick_3">
    <g id="line2d_6">
     <path clip-path="url(#p94b4a92824)" d="M 133.614944 144.584581 
" style="fill:none;stroke:#b0b0b0;stroke-linecap:square;stroke-width:0.8;"/>
    </g>
    <g id="line2d_7">
     <path d="M 81.880905 227.777981 
L 79.829504 229.638429 
" style="fill:none;stroke:#000000;stroke-linecap:square;stroke-width:0.8;"/>
    </g>
    <g id="text_4">
     <!-- $\mathdefault{0.4}$ -->
     <g transform="translate(66.241668 252.76744)scale(0.12 -0.12)">
      <defs>
       <path d="M 2150 4122 
C 2150 4256 2144 4256 2029 4256 
L 128 1254 
L 128 1088 
L 1779 1088 
L 1779 457 
C 1779 224 1766 160 1318 160 
L 1197 160 
L 1197 0 
C 1402 0 1747 0 1965 0 
C 2182 0 2528 0 2733 0 
L 2733 160 
L 2611 160 
C 2163 160 2150 224 2150 457 
L 2150 1088 
L 2803 1088 
L 2803 1254 
L 2150 1254 
L 2150 4122 
z
M 1798 3703 
L 1798 1254 
L 256 1254 
L 1798 3703 
z
" id="CMR17-34" transform="scale(0.015625)"/>
      </defs>
      <use transform="scale(0.996264)" xlink:href="#CMR17-30"/>
      <use transform="translate(45.690477 0)scale(0.996264)" xlink:href="#CMMI12-3a"/>
      <use transform="translate(72.787654 0)scale(0.996264)" xlink:href="#CMR17-34"/>
     </g>
    </g>
   </g>
   <g id="xtick_4">
    <g id="line2d_8">
     <path clip-path="url(#p94b4a92824)" d="M 133.614944 144.584581 
" style="fill:none;stroke:#b0b0b0;stroke-linecap:square;stroke-width:0.8;"/>
    </g>
    <g id="line2d_9">
     <path d="M 106.040589 235.660736 
L 104.023433 237.55583 
" style="fill:none;stroke:#000000;stroke-linecap:square;stroke-width:0.8;"/>
    </g>
    <g id="text_5">
     <!-- $\mathdefault{0.6}$ -->
     <g transform="translate(90.443063 260.843815)scale(0.12 -0.12)">
      <defs>
       <path d="M 678 2176 
C 678 3690 1395 4032 1811 4032 
C 1946 4032 2272 4009 2400 3776 
C 2298 3776 2106 3776 2106 3553 
C 2106 3381 2246 3323 2336 3323 
C 2394 3323 2566 3348 2566 3560 
C 2566 3954 2246 4179 1805 4179 
C 1043 4179 243 3390 243 1984 
C 243 253 966 -128 1478 -128 
C 2099 -128 2688 427 2688 1283 
C 2688 2081 2170 2662 1517 2662 
C 1126 2662 838 2407 678 1960 
L 678 2176 
z
M 1478 25 
C 691 25 691 1200 691 1436 
C 691 1896 909 2560 1504 2560 
C 1613 2560 1926 2560 2138 2120 
C 2253 1870 2253 1609 2253 1289 
C 2253 944 2253 690 2118 434 
C 1978 171 1773 25 1478 25 
z
" id="CMR17-36" transform="scale(0.015625)"/>
      </defs>
      <use transform="scale(0.996264)" xlink:href="#CMR17-30"/>
      <use transform="translate(45.690477 0)scale(0.996264)" xlink:href="#CMMI12-3a"/>
      <use transform="translate(72.787654 0)scale(0.996264)" xlink:href="#CMR17-36"/>
     </g>
    </g>
   </g>
   <g id="xtick_5">
    <g id="line2d_10">
     <path clip-path="url(#p94b4a92824)" d="M 133.614944 144.584581 
" style="fill:none;stroke:#b0b0b0;stroke-linecap:square;stroke-width:0.8;"/>
    </g>
    <g id="line2d_11">
     <path d="M 130.651788 243.690811 
L 128.670524 245.621527 
" style="fill:none;stroke:#000000;stroke-linecap:square;stroke-width:0.8;"/>
    </g>
    <g id="text_6">
     <!-- $\mathdefault{0.8}$ -->
     <g transform="translate(115.098975 269.07187)scale(0.12 -0.12)">
      <defs>
       <path d="M 1741 2264 
C 2144 2467 2554 2773 2554 3263 
C 2554 3841 1990 4179 1472 4179 
C 890 4179 378 3759 378 3180 
C 378 3021 416 2747 666 2505 
C 730 2442 998 2251 1171 2130 
C 883 1983 211 1634 211 934 
C 211 279 838 -128 1459 -128 
C 2144 -128 2720 362 2720 1010 
C 2720 1590 2330 1857 2074 2029 
L 1741 2264 
z
M 902 2822 
C 851 2854 595 3051 595 3351 
C 595 3739 998 4032 1459 4032 
C 1965 4032 2336 3676 2336 3262 
C 2336 2669 1670 2331 1638 2331 
C 1632 2331 1626 2331 1574 2370 
L 902 2822 
z
M 2080 1519 
C 2176 1449 2483 1240 2483 851 
C 2483 381 2010 25 1472 25 
C 890 25 448 438 448 940 
C 448 1443 838 1862 1280 2060 
L 2080 1519 
z
" id="CMR17-38" transform="scale(0.015625)"/>
      </defs>
      <use transform="scale(0.996264)" xlink:href="#CMR17-30"/>
      <use transform="translate(45.690477 0)scale(0.996264)" xlink:href="#CMMI12-3a"/>
      <use transform="translate(72.787654 0)scale(0.996264)" xlink:href="#CMR17-38"/>
     </g>
    </g>
   </g>
   <g id="xtick_6">
    <g id="line2d_12">
     <path clip-path="url(#p94b4a92824)" d="M 133.614944 144.584581 
" style="fill:none;stroke:#b0b0b0;stroke-linecap:square;stroke-width:0.8;"/>
    </g>
    <g id="line2d_13">
     <path d="M 155.727279 251.872373 
L 153.783628 253.839725 
" style="fill:none;stroke:#000000;stroke-linecap:square;stroke-width:0.8;"/>
    </g>
    <g id="text_7">
     <!-- $\mathdefault{1.0}$ -->
     <g transform="translate(140.22233 277.455917)scale(0.12 -0.12)">
      <defs>
       <path d="M 1702 4058 
C 1702 4192 1696 4192 1606 4192 
C 1357 3916 979 3827 621 3827 
C 602 3827 570 3827 563 3808 
C 557 3795 557 3782 557 3648 
C 755 3648 1088 3686 1344 3839 
L 1344 461 
C 1344 236 1331 160 781 160 
L 589 160 
L 589 0 
C 896 0 1216 0 1523 0 
C 1830 0 2150 0 2458 0 
L 2458 160 
L 2266 160 
C 1715 160 1702 230 1702 458 
L 1702 4058 
z
" id="CMR17-31" transform="scale(0.015625)"/>
      </defs>
      <use transform="scale(0.996264)" xlink:href="#CMR17-31"/>
      <use transform="translate(45.690477 0)scale(0.996264)" xlink:href="#CMMI12-3a"/>
      <use transform="translate(72.787654 0)scale(0.996264)" xlink:href="#CMR17-30"/>
     </g>
    </g>
   </g>
  </g>
  <g id="axis3d_2">
   <g id="line2d_14">
    <path d="M 237.533819 180.073537 
L 164.071698 255.463745 
" style="fill:none;stroke:#000000;stroke-linecap:square;stroke-width:0.8;"/>
   </g>
   <g id="text_8">
    <!-- $\mathrm{Re}(x)$ -->
    <g transform="translate(219.877816 258.884315)rotate(-45.742112)scale(0.14 -0.14)">
     <defs>
      <path d="M 2509 2146 
C 3117 2268 3629 2676 3629 3186 
C 3629 3785 2950 4326 2054 4326 
L 333 4326 
L 333 4160 
C 774 4160 845 4160 845 3873 
L 845 415 
C 845 128 774 128 333 128 
L 333 -26 
C 518 -26 851 -26 1050 -26 
C 1248 -26 1581 -26 1766 -26 
L 1766 128 
C 1325 128 1254 128 1254 417 
L 1254 2112 
L 2003 2112 
C 2368 2112 2573 1964 2662 1881 
C 2918 1632 2918 1459 2918 1024 
C 2918 595 2918 377 3110 160 
C 3354 -102 3680 -128 3821 -128 
C 4294 -128 4365 396 4365 503 
C 4365 540 4365 585 4307 585 
C 4256 585 4250 547 4250 522 
C 4218 112 4032 -26 3834 -26 
C 3482 -26 3443 375 3405 764 
C 3386 898 3373 993 3360 1133 
C 3322 1452 3270 1917 2509 2146 
z
M 1984 2214 
L 1254 2214 
L 1254 3913 
C 1254 4129 1267 4160 1523 4160 
L 1990 4160 
C 2522 4160 3142 3977 3142 3190 
C 3142 2372 2464 2214 1984 2214 
z
" id="CMR17-52" transform="scale(0.015625)"/>
      <path d="M 2438 1472 
C 2464 1498 2464 1511 2464 1576 
C 2464 2238 2118 2816 1389 2816 
C 710 2816 173 2169 173 1383 
C 173 551 781 -64 1459 -64 
C 2176 -64 2458 607 2458 740 
C 2458 784 2419 784 2406 784 
C 2362 784 2355 771 2330 696 
C 2189 265 1837 51 1504 51 
C 1229 51 954 203 781 480 
C 582 803 582 1176 582 1472 
L 2438 1472 
z
M 589 1568 
C 634 2505 1126 2714 1382 2714 
C 1818 2714 2112 2297 2118 1568 
L 589 1568 
z
" id="CMR17-65" transform="scale(0.015625)"/>
      <path d="M 1958 -1561 
C 1958 -1555 1958 -1542 1939 -1523 
C 1645 -1224 858 -407 858 1581 
C 858 3569 1632 4379 1946 4697 
C 1946 4704 1958 4717 1958 4736 
C 1958 4755 1939 4768 1914 4768 
C 1843 4768 1299 4296 986 3594 
C 666 2887 576 2199 576 1588 
C 576 1128 621 351 1005 -471 
C 1312 -1135 1837 -1600 1914 -1600 
C 1946 -1600 1958 -1587 1958 -1561 
z
" id="CMR17-28" transform="scale(0.015625)"/>
      <path d="M 3034 2606 
C 2829 2567 2752 2414 2752 2293 
C 2752 2139 2874 2088 2963 2088 
C 3155 2088 3290 2254 3290 2427 
C 3290 2695 2982 2816 2714 2816 
C 2323 2816 2106 2433 2048 2312 
C 1901 2816 1504 2816 1389 2816 
C 736 2816 390 1980 390 1839 
C 390 1814 416 1782 461 1782 
C 512 1782 525 1820 538 1846 
C 755 2555 1184 2689 1370 2689 
C 1658 2689 1715 2420 1715 2267 
C 1715 2127 1677 1980 1600 1673 
L 1382 798 
C 1286 415 1101 64 762 64 
C 730 64 570 64 435 147 
C 666 192 717 383 717 460 
C 717 588 621 664 499 664 
C 346 664 179 530 179 326 
C 179 57 480 -64 755 -64 
C 1062 -64 1280 179 1414 441 
C 1517 64 1837 -64 2074 -64 
C 2726 -64 3072 773 3072 913 
C 3072 945 3046 971 3008 971 
C 2950 971 2944 939 2925 888 
C 2752 326 2381 64 2093 64 
C 1869 64 1747 230 1747 492 
C 1747 632 1773 734 1875 1156 
L 2099 2024 
C 2195 2408 2413 2689 2707 2689 
C 2720 2689 2899 2689 3034 2606 
z
" id="CMMI12-78" transform="scale(0.015625)"/>
      <path d="M 1683 1581 
C 1683 2040 1638 2817 1254 3639 
C 947 4303 422 4768 346 4768 
C 326 4768 301 4761 301 4729 
C 301 4717 307 4710 314 4697 
C 621 4378 1402 3568 1402 1584 
C 1402 -407 627 -1217 314 -1537 
C 307 -1549 301 -1556 301 -1568 
C 301 -1600 326 -1600 346 -1600 
C 416 -1600 960 -1128 1274 -426 
C 1594 281 1683 969 1683 1581 
z
" id="CMR17-29" transform="scale(0.015625)"/>
     </defs>
     <use transform="scale(0.996264)" xlink:href="#CMR17-52"/>
     <use transform="translate(67.791102 0)scale(0.996264)" xlink:href="#CMR17-65"/>
     <use transform="translate(108.276762 0)scale(0.996264)" xlink:href="#CMR17-28"/>
     <use transform="translate(143.55753 0)scale(0.996264)" xlink:href="#CMMI12-78"/>
     <use transform="translate(198.99159 0)scale(0.996264)" xlink:href="#CMR17-29"/>
    </g>
   </g>
   <g id="Line3DCollection_2">
    <path d="M 26.658344 101.747621 
L 31.389969 205.604633 
L 169.154708 250.247327 
" style="fill:none;stroke:#b0b0b0;stroke-width:0.8;"/>
    <path d="M 46.338948 87.385612 
L 50.126807 189.899045 
L 186.133363 232.82305 
" style="fill:none;stroke:#b0b0b0;stroke-width:0.8;"/>
    <path d="M 65.255414 73.581237 
L 68.167137 174.777282 
L 202.44822 216.079993 
" style="fill:none;stroke:#b0b0b0;stroke-width:0.8;"/>
    <path d="M 83.451399 60.302636 
L 85.549088 160.207386 
L 218.13746 199.978973 
" style="fill:none;stroke:#b0b0b0;stroke-width:0.8;"/>
    <path d="M 100.967294 47.520334 
L 102.308055 146.159687 
L 233.236392 184.483755 
" style="fill:none;stroke:#b0b0b0;stroke-width:0.8;"/>
   </g>
   <g id="xtick_7">
    <g id="line2d_15">
     <path clip-path="url(#p94b4a92824)" d="M 133.614944 144.584581 
" style="fill:none;stroke:#b0b0b0;stroke-linecap:square;stroke-width:0.8;"/>
    </g>
    <g id="line2d_16">
     <path d="M 167.99376 249.871121 
L 171.479606 251.00071 
" style="fill:none;stroke:#000000;stroke-linecap:square;stroke-width:0.8;"/>
    </g>
    <g id="text_9">
     <!-- $\mathdefault{−1.0}$ -->
     <g transform="translate(169.907901 271.97345)scale(0.12 -0.12)">
      <defs>
       <path d="M 4218 1472 
C 4326 1472 4442 1472 4442 1600 
C 4442 1728 4326 1728 4218 1728 
L 755 1728 
C 646 1728 531 1728 531 1600 
C 531 1472 646 1472 755 1472 
L 4218 1472 
z
" id="CMSY10-0" transform="scale(0.015625)"/>
      </defs>
      <use transform="scale(0.996264)" xlink:href="#CMSY10-0"/>
      <use transform="translate(77.487468 0)scale(0.996264)" xlink:href="#CMR17-31"/>
      <use transform="translate(123.177945 0)scale(0.996264)" xlink:href="#CMMI12-3a"/>
      <use transform="translate(150.275122 0)scale(0.996264)" xlink:href="#CMR17-30"/>
     </g>
    </g>
   </g>
   <g id="xtick_8">
    <g id="line2d_17">
     <path clip-path="url(#p94b4a92824)" d="M 133.614944 144.584581 
" style="fill:none;stroke:#b0b0b0;stroke-linecap:square;stroke-width:0.8;"/>
    </g>
    <g id="line2d_18">
     <path d="M 184.988389 232.461693 
L 188.426213 233.546679 
" style="fill:none;stroke:#000000;stroke-linecap:square;stroke-width:0.8;"/>
    </g>
    <g id="text_10">
     <!-- $\mathdefault{−0.5}$ -->
     <g transform="translate(186.640341 254.270306)scale(0.12 -0.12)">
      <defs>
       <path d="M 730 3692 
C 794 3666 1056 3584 1325 3584 
C 1920 3584 2246 3911 2432 4100 
C 2432 4157 2432 4192 2394 4192 
C 2387 4192 2374 4192 2323 4163 
C 2099 4058 1837 3973 1517 3973 
C 1325 3973 1037 3999 723 4139 
C 653 4171 640 4171 634 4171 
C 602 4171 595 4164 595 4037 
L 595 2203 
C 595 2089 595 2057 659 2057 
C 691 2057 704 2070 736 2114 
C 941 2401 1222 2522 1542 2522 
C 1766 2522 2246 2382 2246 1289 
C 2246 1085 2246 715 2054 421 
C 1894 159 1645 25 1370 25 
C 947 25 518 320 403 814 
C 429 807 480 795 506 795 
C 589 795 749 840 749 1038 
C 749 1210 627 1280 506 1280 
C 358 1280 262 1190 262 1011 
C 262 454 704 -128 1382 -128 
C 2042 -128 2669 440 2669 1264 
C 2669 2030 2170 2624 1549 2624 
C 1222 2624 947 2503 730 2274 
L 730 3692 
z
" id="CMR17-35" transform="scale(0.015625)"/>
      </defs>
      <use transform="scale(0.996264)" xlink:href="#CMSY10-0"/>
      <use transform="translate(77.487468 0)scale(0.996264)" xlink:href="#CMR17-30"/>
      <use transform="translate(123.177945 0)scale(0.996264)" xlink:href="#CMMI12-3a"/>
      <use transform="translate(150.275122 0)scale(0.996264)" xlink:href="#CMR17-35"/>
     </g>
    </g>
   </g>
   <g id="xtick_9">
    <g id="line2d_19">
     <path clip-path="url(#p94b4a92824)" d="M 133.614944 144.584581 
" style="fill:none;stroke:#b0b0b0;stroke-linecap:square;stroke-width:0.8;"/>
    </g>
    <g id="line2d_20">
     <path d="M 201.31887 215.732623 
L 204.709726 216.775596 
" style="fill:none;stroke:#000000;stroke-linecap:square;stroke-width:0.8;"/>
    </g>
    <g id="text_11">
     <!-- $\mathdefault{0.0}$ -->
     <g transform="translate(207.367446 237.259715)scale(0.12 -0.12)">
      <use transform="scale(0.996264)" xlink:href="#CMR17-30"/>
      <use transform="translate(45.690477 0)scale(0.996264)" xlink:href="#CMMI12-3a"/>
      <use transform="translate(72.787654 0)scale(0.996264)" xlink:href="#CMR17-30"/>
     </g>
    </g>
   </g>
   <g id="xtick_10">
    <g id="line2d_21">
     <path clip-path="url(#p94b4a92824)" d="M 133.614944 144.584581 
" style="fill:none;stroke:#b0b0b0;stroke-linecap:square;stroke-width:0.8;"/>
    </g>
    <g id="line2d_22">
     <path d="M 217.023389 199.644793 
L 220.368317 200.648147 
" style="fill:none;stroke:#000000;stroke-linecap:square;stroke-width:0.8;"/>
    </g>
    <g id="text_12">
     <!-- $\mathdefault{0.5}$ -->
     <g transform="translate(222.828401 220.901819)scale(0.12 -0.12)">
      <use transform="scale(0.996264)" xlink:href="#CMR17-30"/>
      <use transform="translate(45.690477 0)scale(0.996264)" xlink:href="#CMMI12-3a"/>
      <use transform="translate(72.787654 0)scale(0.996264)" xlink:href="#CMR17-35"/>
     </g>
    </g>
   </g>
   <g id="xtick_11">
    <g id="line2d_23">
     <path clip-path="url(#p94b4a92824)" d="M 133.614944 144.584581 
" style="fill:none;stroke:#b0b0b0;stroke-linecap:square;stroke-width:0.8;"/>
    </g>
    <g id="line2d_24">
     <path d="M 232.13726 184.162028 
L 235.437283 185.127978 
" style="fill:none;stroke:#000000;stroke-linecap:square;stroke-width:0.8;"/>
    </g>
    <g id="text_13">
     <!-- $\mathdefault{1.0}$ -->
     <g transform="translate(237.70729 205.159757)scale(0.12 -0.12)">
      <use transform="scale(0.996264)" xlink:href="#CMR17-31"/>
      <use transform="translate(45.690477 0)scale(0.996264)" xlink:href="#CMMI12-3a"/>
      <use transform="translate(72.787654 0)scale(0.996264)" xlink:href="#CMR17-30"/>
     </g>
    </g>
   </g>
  </g>
  <g id="axis3d_3">
   <g id="line2d_25">
    <path d="M 237.533819 180.073537 
L 242.18913 78.413442 
" style="fill:none;stroke:#000000;stroke-linecap:square;stroke-width:0.8;"/>
   </g>
   <g id="text_14">
    <!-- $\mathrm{Im}(x)$ -->
    <g transform="translate(282.854411 142.437266)rotate(-87.378092)scale(0.14 -0.14)">
     <defs>
      <path d="M 1261 3905 
C 1261 4192 1338 4192 1798 4192 
L 1798 4352 
C 1594 4352 1267 4352 1050 4352 
C 832 4352 506 4352 301 4352 
L 301 4192 
C 762 4192 838 4192 838 3905 
L 838 447 
C 838 160 762 160 301 160 
L 301 0 
C 506 0 832 0 1050 0 
C 1267 0 1594 0 1798 0 
L 1798 160 
C 1338 160 1261 160 1261 447 
L 1261 3905 
z
" id="CMR17-49" transform="scale(0.015625)"/>
      <path d="M 4326 1933 
C 4326 2252 4269 2790 3507 2790 
C 3072 2790 2771 2496 2656 2151 
L 2650 2151 
C 2573 2676 2195 2790 1837 2790 
C 1331 2790 1069 2400 973 2144 
L 966 2144 
L 966 2790 
L 211 2720 
L 211 2554 
C 589 2554 646 2515 646 2208 
L 646 428 
C 646 184 621 153 211 153 
L 211 -13 
C 365 0 646 0 813 0 
C 979 0 1267 0 1421 -13 
L 1421 153 
C 1011 153 986 178 986 428 
L 986 1658 
C 986 2247 1344 2688 1792 2688 
C 2266 2688 2317 2266 2317 1958 
L 2317 428 
C 2317 184 2291 153 1882 153 
L 1882 -13 
C 2035 0 2317 0 2483 0 
C 2650 0 2938 0 3091 -13 
L 3091 153 
C 2682 153 2656 178 2656 428 
L 2656 1658 
C 2656 2247 3014 2688 3462 2688 
C 3936 2688 3987 2266 3987 1958 
L 3987 428 
C 3987 184 3962 153 3552 153 
L 3552 -13 
C 3706 0 3987 0 4154 0 
C 4320 0 4608 0 4762 -13 
L 4762 153 
C 4352 153 4326 178 4326 428 
L 4326 1933 
z
" id="CMR17-6d" transform="scale(0.015625)"/>
     </defs>
     <use transform="scale(0.996264)" xlink:href="#CMR17-49"/>
     <use transform="translate(32.638409 0)scale(0.996264)" xlink:href="#CMR17-6d"/>
     <use transform="translate(109.557999 0)scale(0.996264)" xlink:href="#CMR17-28"/>
     <use transform="translate(144.838767 0)scale(0.996264)" xlink:href="#CMMI12-78"/>
     <use transform="translate(200.272826 0)scale(0.996264)" xlink:href="#CMR17-29"/>
    </g>
   </g>
   <g id="Line3DCollection_3">
    <path d="M 238.705277 154.491896 
L 106.798709 117.38785 
L 24.526263 184.099062 
" style="fill:none;stroke:#b0b0b0;stroke-width:0.8;"/>
    <path d="M 239.81048 130.357077 
L 106.530272 94.043894 
L 23.334884 159.359308 
" style="fill:none;stroke:#b0b0b0;stroke-width:0.8;"/>
    <path d="M 240.939177 105.709225 
L 106.256406 70.227855 
L 22.117195 134.073211 
" style="fill:none;stroke:#b0b0b0;stroke-width:0.8;"/>
   </g>
   <g id="xtick_12">
    <g id="line2d_26">
     <path clip-path="url(#p94b4a92824)" d="M 133.614944 144.584581 
" style="fill:none;stroke:#b0b0b0;stroke-linecap:square;stroke-width:0.8;"/>
    </g>
    <g id="line2d_27">
     <path d="M 237.597634 154.180327 
L 240.923227 155.115785 
" style="fill:none;stroke:#000000;stroke-linecap:square;stroke-width:0.8;"/>
    </g>
    <g id="text_15">
     <!-- $\mathdefault{−0.5}$ -->
     <g transform="translate(245.022572 160.244271)scale(0.12 -0.12)">
      <use transform="scale(0.996264)" xlink:href="#CMSY10-0"/>
      <use transform="translate(77.487468 0)scale(0.996264)" xlink:href="#CMR17-30"/>
      <use transform="translate(123.177945 0)scale(0.996264)" xlink:href="#CMMI12-3a"/>
      <use transform="translate(150.275122 0)scale(0.996264)" xlink:href="#CMR17-35"/>
     </g>
    </g>
   </g>
   <g id="xtick_13">
    <g id="line2d_28">
     <path clip-path="url(#p94b4a92824)" d="M 133.614944 144.584581 
" style="fill:none;stroke:#b0b0b0;stroke-linecap:square;stroke-width:0.8;"/>
    </g>
    <g id="line2d_29">
     <path d="M 238.690746 130.051997 
L 242.052671 130.967978 
" style="fill:none;stroke:#000000;stroke-linecap:square;stroke-width:0.8;"/>
    </g>
    <g id="text_16">
     <!-- $\mathdefault{0.0}$ -->
     <g transform="translate(250.966703 136.162634)scale(0.12 -0.12)">
      <use transform="scale(0.996264)" xlink:href="#CMR17-30"/>
      <use transform="translate(45.690477 0)scale(0.996264)" xlink:href="#CMMI12-3a"/>
      <use transform="translate(72.787654 0)scale(0.996264)" xlink:href="#CMR17-30"/>
     </g>
    </g>
   </g>
   <g id="xtick_14">
    <g id="line2d_30">
     <path clip-path="url(#p94b4a92824)" d="M 133.614944 144.584581 
" style="fill:none;stroke:#b0b0b0;stroke-linecap:square;stroke-width:0.8;"/>
    </g>
    <g id="line2d_31">
     <path d="M 239.807085 105.410982 
L 243.206142 106.306443 
" style="fill:none;stroke:#000000;stroke-linecap:square;stroke-width:0.8;"/>
    </g>
    <g id="text_17">
     <!-- $\mathdefault{0.5}$ -->
     <g transform="translate(252.289022 111.570809)scale(0.12 -0.12)">
      <use transform="scale(0.996264)" xlink:href="#CMR17-30"/>
      <use transform="translate(45.690477 0)scale(0.996264)" xlink:href="#CMMI12-3a"/>
      <use transform="translate(72.787654 0)scale(0.996264)" xlink:href="#CMR17-35"/>
     </g>
    </g>
   </g>
  </g>
  <g id="axes_1">
   <g id="line2d_32">
    <path clip-path="url(#p94b4a92824)" d="M 109.777832 100.103924 
L 110.458543 95.7125 
L 110.805931 91.612181 
L 110.849457 88.753601 
L 110.709436 86.099882 
L 110.389045 83.667485 
L 109.892358 81.472055 
L 109.224363 79.528323 
L 108.390967 77.850016 
L 107.399004 76.449746 
L 106.256241 75.33891 
L 104.971368 74.527585 
L 104.040543 74.157428 
L 103.053881 73.926449 
L 101.476337 73.844937 
L 99.79217 74.085606 
L 98.013883 74.65159 
L 96.154762 75.544159 
L 94.228828 76.762639 
L 92.250765 78.304345 
L 90.23585 80.164514 
L 88.199863 82.336273 
L 86.158992 84.810606 
L 84.129725 87.576355 
L 82.12874 90.620231 
L 80.172773 93.926858 
L 78.278498 97.47883 
L 76.462383 101.256804 
L 74.740557 105.239606 
L 73.128665 109.404371 
L 71.641732 113.726702 
L 70.294025 118.180847 
L 69.098918 122.739906 
L 68.06877 127.376047 
L 67.214808 132.060737 
L 66.547024 136.76499 
L 66.074081 141.459616 
L 65.803238 146.115478 
L 65.740293 150.703745 
L 65.88953 155.196144 
L 66.253705 159.565203 
L 66.834026 163.784478 
L 67.630168 167.828773 
L 68.640299 171.674333 
L 69.861117 175.299023 
L 71.287911 178.682481 
L 72.914626 181.806249 
L 74.73395 184.653875 
L 76.737398 187.211 
L 78.915416 189.465408 
L 80.459254 190.795122 
L 82.072688 191.983354 
L 83.752231 193.028099 
L 85.494257 193.92778 
L 87.295014 194.681246 
L 89.15064 195.287759 
L 91.057177 195.746994 
L 93.010586 196.059024 
L 95.006761 196.224312 
L 98.072099 196.199052 
L 101.210092 195.849991 
L 104.406432 195.183276 
L 107.646785 194.206709 
L 110.916881 192.929645 
L 114.202584 191.362876 
L 117.489961 189.518524 
L 120.765349 187.409928 
L 124.015405 185.051533 
L 127.227157 182.45879 
L 130.388047 179.648046 
L 133.485969 176.63645 
L 136.5093 173.441862 
L 139.446929 170.082756 
L 143.21226 165.38096 
L 146.782988 160.466833 
L 150.137439 155.387798 
L 153.25584 150.192126 
L 156.120382 144.928661 
L 158.715271 139.646568 
L 161.026781 134.395088 
L 163.043311 129.223292 
L 164.755445 124.179845 
L 166.15601 119.312748 
L 167.240148 114.669083 
L 168.00539 110.294728 
L 168.451726 106.234062 
L 168.58169 102.529636 
L 168.474541 100.009481 
L 168.195434 97.728586 
L 167.748399 95.702159 
L 167.138343 93.944407 
L 166.371062 92.468432 
L 165.453251 91.286124 
L 164.3925 90.408056 
L 163.610075 89.996276 
L 162.770609 89.726142 
L 161.877007 89.599668 
L 160.441875 89.682908 
L 158.902981 90.097294 
L 157.27222 90.845185 
L 155.562251 91.926995 
L 153.786453 93.341122 
L 151.958856 95.08387 
L 150.094073 97.149402 
L 148.207212 99.529698 
L 146.313789 102.214538 
L 144.429621 105.191506 
L 141.959474 109.589695 
L 139.572329 114.440623 
L 137.305956 119.697503 
L 135.197252 125.307653 
L 133.281671 131.213112 
L 131.592652 137.351389 
L 130.161073 143.656326 
L 129.273187 148.453055 
L 128.556265 153.275129 
L 128.019532 158.092579 
L 127.670914 162.875434 
L 127.516967 167.593987 
L 127.562828 172.219057 
L 127.81218 176.722242 
L 128.267228 181.076158 
L 128.928704 185.25467 
L 129.795876 189.233097 
L 130.866586 192.988399 
L 132.137287 196.499344 
L 133.603112 199.746645 
L 135.257938 202.713074 
L 137.094471 205.38355 
L 139.104336 207.7452 
L 140.535959 209.142721 
L 142.037483 210.395624 
L 143.605753 211.501762 
L 145.23747 212.45943 
L 146.9292 213.267363 
L 148.677391 213.924724 
L 150.47839 214.431104 
L 152.32845 214.786506 
L 154.223751 214.991337 
L 156.160406 215.0464 
L 159.134309 214.850863 
L 162.178961 214.326615 
L 165.280826 213.480936 
L 168.426345 212.322746 
L 171.602015 210.862496 
L 174.794459 209.112047 
L 177.990492 207.084556 
L 181.177176 204.794361 
L 184.341873 202.25687 
L 187.47229 199.488451 
L 190.556516 196.50633 
L 193.583063 193.328487 
L 196.540887 189.973571 
L 200.35956 185.258194 
L 204.013666 180.309133 
L 207.481192 175.174502 
L 210.741838 169.903344 
L 213.77708 164.545354 
L 216.570224 159.150612 
L 219.106456 153.769342 
L 221.372895 148.451663 
L 223.35865 143.247353 
L 225.054875 138.205601 
L 226.454839 133.374754 
L 226.454839 133.374754 
" style="fill:none;stroke:#1f77b4;stroke-linecap:square;stroke-width:1.5;"/>
   </g>
   <g id="text_18">
    <!-- $f = 2, \varphi = 0$ -->
    <g transform="translate(86.077773 18.823055)scale(0.168 -0.168)">
     <defs>
      <path d="M 2854 2566 
C 2982 2566 3034 2566 3034 2688 
C 3034 2752 2982 2752 2867 2752 
L 2349 2752 
C 2470 3429 2560 3897 2611 4107 
C 2650 4265 2784 4416 2950 4416 
C 3085 4416 3219 4358 3283 4298 
C 3034 4272 2957 4082 2957 3969 
C 2957 3837 3053 3759 3174 3759 
C 3302 3759 3494 3870 3494 4119 
C 3494 4393 3226 4544 2944 4544 
C 2669 4544 2400 4334 2272 4078 
C 2157 3848 2093 3611 1946 2752 
L 1517 2752 
C 1395 2752 1331 2752 1331 2637 
C 1331 2566 1370 2566 1498 2566 
L 1907 2566 
C 1792 1976 1530 542 1382 -137 
C 1274 -689 1178 -1152 858 -1152 
C 838 -1152 653 -1152 538 -1031 
C 864 -1005 864 -726 864 -720 
C 864 -593 768 -517 646 -517 
C 518 -517 326 -625 326 -867 
C 326 -1140 608 -1280 858 -1280 
C 1510 -1280 1779 -118 1850 199 
C 1965 688 2278 2376 2310 2566 
L 2854 2566 
z
" id="CMMI12-66" transform="scale(0.015625)"/>
      <path d="M 4115 2017 
C 4211 2017 4307 2017 4307 2125 
C 4307 2240 4198 2240 4090 2240 
L 512 2240 
C 403 2240 294 2240 294 2125 
C 294 2017 390 2017 486 2017 
L 4115 2017 
z
M 4090 896 
C 4198 896 4307 896 4307 1011 
C 4307 1119 4211 1119 4115 1119 
L 486 1119 
C 390 1119 294 1119 294 1011 
C 294 896 403 896 512 896 
L 4090 896 
z
" id="CMR17-3d" transform="scale(0.015625)"/>
      <path d="M 1248 -31 
C 1248 343 1126 619 864 619 
C 659 619 557 453 557 313 
C 557 172 653 0 870 0 
C 954 0 1024 26 1082 83 
C 1094 96 1101 96 1107 96 
C 1120 96 1120 5 1120 -27 
C 1120 -240 1082 -659 710 -1080 
C 640 -1157 640 -1170 640 -1183 
C 640 -1216 672 -1248 704 -1248 
C 755 -1248 1248 -771 1248 -31 
z
" id="CMMI12-3b" transform="scale(0.015625)"/>
      <path d="M 1926 280 
C 1818 280 1722 280 1722 312 
C 1722 325 1830 926 1869 1067 
C 2074 1884 2560 2472 3117 2472 
C 3533 2472 3725 2159 3725 1808 
C 3725 1080 2906 280 1926 280 
z
M 1651 -51 
C 1690 -57 1754 -64 1869 -64 
C 2918 -64 3885 945 3885 1954 
C 3885 2344 3712 2816 3174 2816 
C 2253 2816 1862 1519 1504 318 
C 768 458 461 848 461 1276 
C 461 1449 595 2133 966 2592 
C 1037 2676 1037 2689 1037 2702 
C 1037 2753 986 2753 973 2753 
C 800 2753 314 1820 314 1213 
C 314 497 877 107 1395 -7 
L 1062 -1088 
C 1030 -1184 1030 -1196 1030 -1222 
C 1030 -1376 1184 -1376 1197 -1376 
C 1261 -1376 1376 -1351 1427 -1223 
C 1446 -1166 1626 -178 1651 -51 
z
" id="CMMI12-27" transform="scale(0.015625)"/>
     </defs>
     <use transform="scale(0.996264)" xlink:href="#CMMI12-66"/>
     <use transform="translate(86.394314 0)scale(0.996264)" xlink:href="#CMR17-3d"/>
     <use transform="translate(185.783111 0)scale(0.996264)" xlink:href="#CMR17-32"/>
     <use transform="translate(231.473588 0)scale(0.996264)" xlink:href="#CMMI12-3b"/>
     <use transform="translate(275.17517 0)scale(0.996264)" xlink:href="#CMMI12-27"/>
     <use transform="translate(366.752243 0)scale(0.996264)" xlink:href="#CMR17-3d"/>
     <use transform="translate(466.14104 0)scale(0.996264)" xlink:href="#CMR17-30"/>
    </g>
   </g>
  </g>
  <g id="patch_6">
   <path d="M 302.611765 270.999525 
L 548.788235 270.999525 
L 548.788235 24.823055 
L 302.611765 24.823055 
z
" style="fill:#ffffff;"/>
  </g>
  <g id="pane3d_4">
   <g id="patch_7">
    <path d="M 321.199786 210.300297 
L 402.495296 142.156788 
L 401.365211 43.881667 
L 316.179291 106.046471 
" style="fill:#f2f2f2;opacity:0.5;stroke:#f2f2f2;stroke-linejoin:miter;"/>
   </g>
  </g>
  <g id="pane3d_5">
   <g id="patch_8">
    <path d="M 402.495296 142.156788 
L 532.945584 180.073537 
L 537.600895 78.413442 
L 401.365211 43.881667 
" style="fill:#e6e6e6;opacity:0.5;stroke:#e6e6e6;stroke-linejoin:miter;"/>
   </g>
  </g>
  <g id="pane3d_6">
   <g id="patch_9">
    <path d="M 321.199786 210.300297 
L 459.483462 255.463745 
L 532.945584 180.073537 
L 402.495296 142.156788 
" style="fill:#ececec;opacity:0.5;stroke:#ececec;stroke-linejoin:miter;"/>
   </g>
  </g>
  <g id="axis3d_4">
   <g id="line2d_33">
    <path d="M 321.199786 210.300297 
L 459.483462 255.463745 
" style="fill:none;stroke:#000000;stroke-linecap:square;stroke-width:0.8;"/>
   </g>
   <g id="text_19">
    <!-- $n$ -->
    <g transform="translate(368.140319 271.069391)scale(0.14 -0.14)">
     <use transform="scale(0.996264)" xlink:href="#CMMI12-6e"/>
    </g>
   </g>
   <g id="Line3DCollection_4">
    <path d="M 329.574971 213.035632 
L 410.428883 144.462769 
L 409.634236 45.977624 
" style="fill:none;stroke:#b0b0b0;stroke-width:0.8;"/>
    <path d="M 352.8785 220.646565 
L 432.481334 150.872546 
L 432.630228 51.806438 
" style="fill:none;stroke:#b0b0b0;stroke-width:0.8;"/>
    <path d="M 376.609864 228.397228 
L 454.904913 157.390195 
L 456.030054 57.737611 
" style="fill:none;stroke:#b0b0b0;stroke-width:0.8;"/>
    <path d="M 400.780955 236.291507 
L 477.709068 164.018462 
L 479.844446 63.773865 
" style="fill:none;stroke:#b0b0b0;stroke-width:0.8;"/>
    <path d="M 425.40411 244.333429 
L 500.903571 170.760189 
L 504.084518 69.918017 
" style="fill:none;stroke:#b0b0b0;stroke-width:0.8;"/>
    <path d="M 450.492129 252.527176 
L 524.498531 177.618312 
L 528.761787 76.172985 
" style="fill:none;stroke:#b0b0b0;stroke-width:0.8;"/>
   </g>
   <g id="xtick_15">
    <g id="line2d_34">
     <path clip-path="url(#p34de4c7385)" d="M 429.026709 144.584581 
" style="fill:none;stroke:#b0b0b0;stroke-linecap:square;stroke-width:0.8;"/>
    </g>
    <g id="line2d_35">
     <path d="M 330.279042 212.438504 
L 328.163807 214.232452 
" style="fill:none;stroke:#000000;stroke-linecap:square;stroke-width:0.8;"/>
    </g>
    <g id="text_20">
     <!-- $\mathdefault{0.0}$ -->
     <g transform="translate(314.564833 237.053255)scale(0.12 -0.12)">
      <use transform="scale(0.996264)" xlink:href="#CMR17-30"/>
      <use transform="translate(45.690477 0)scale(0.996264)" xlink:href="#CMMI12-3a"/>
      <use transform="translate(72.787654 0)scale(0.996264)" xlink:href="#CMR17-30"/>
     </g>
    </g>
   </g>
   <g id="xtick_16">
    <g id="line2d_36">
     <path clip-path="url(#p34de4c7385)" d="M 429.026709 144.584581 
" style="fill:none;stroke:#b0b0b0;stroke-linecap:square;stroke-width:0.8;"/>
    </g>
    <g id="line2d_37">
     <path d="M 353.572189 220.038528 
L 351.488117 221.865272 
" style="fill:none;stroke:#000000;stroke-linecap:square;stroke-width:0.8;"/>
    </g>
    <g id="text_21">
     <!-- $\mathdefault{0.2}$ -->
     <g transform="translate(337.894102 244.838588)scale(0.12 -0.12)">
      <use transform="scale(0.996264)" xlink:href="#CMR17-30"/>
      <use transform="translate(45.690477 0)scale(0.996264)" xlink:href="#CMMI12-3a"/>
      <use transform="translate(72.787654 0)scale(0.996264)" xlink:href="#CMR17-32"/>
     </g>
    </g>
   </g>
   <g id="xtick_17">
    <g id="line2d_38">
     <path clip-path="url(#p34de4c7385)" d="M 429.026709 144.584581 
" style="fill:none;stroke:#b0b0b0;stroke-linecap:square;stroke-width:0.8;"/>
    </g>
    <g id="line2d_39">
     <path d="M 377.29267 227.777981 
L 375.241269 229.638429 
" style="fill:none;stroke:#000000;stroke-linecap:square;stroke-width:0.8;"/>
    </g>
    <g id="text_22">
     <!-- $\mathdefault{0.4}$ -->
     <g transform="translate(361.653433 252.76744)scale(0.12 -0.12)">
      <use transform="scale(0.996264)" xlink:href="#CMR17-30"/>
      <use transform="translate(45.690477 0)scale(0.996264)" xlink:href="#CMMI12-3a"/>
      <use transform="translate(72.787654 0)scale(0.996264)" xlink:href="#CMR17-34"/>
     </g>
    </g>
   </g>
   <g id="xtick_18">
    <g id="line2d_40">
     <path clip-path="url(#p34de4c7385)" d="M 429.026709 144.584581 
" style="fill:none;stroke:#b0b0b0;stroke-linecap:square;stroke-width:0.8;"/>
    </g>
    <g id="line2d_41">
     <path d="M 401.452353 235.660736 
L 399.435198 237.55583 
" style="fill:none;stroke:#000000;stroke-linecap:square;stroke-width:0.8;"/>
    </g>
    <g id="text_23">
     <!-- $\mathdefault{0.6}$ -->
     <g transform="translate(385.854827 260.843815)scale(0.12 -0.12)">
      <use transform="scale(0.996264)" xlink:href="#CMR17-30"/>
      <use transform="translate(45.690477 0)scale(0.996264)" xlink:href="#CMMI12-3a"/>
      <use transform="translate(72.787654 0)scale(0.996264)" xlink:href="#CMR17-36"/>
     </g>
    </g>
   </g>
   <g id="xtick_19">
    <g id="line2d_42">
     <path clip-path="url(#p34de4c7385)" d="M 429.026709 144.584581 
" style="fill:none;stroke:#b0b0b0;stroke-linecap:square;stroke-width:0.8;"/>
    </g>
    <g id="line2d_43">
     <path d="M 426.063553 243.690811 
L 424.082288 245.621527 
" style="fill:none;stroke:#000000;stroke-linecap:square;stroke-width:0.8;"/>
    </g>
    <g id="text_24">
     <!-- $\mathdefault{0.8}$ -->
     <g transform="translate(410.510739 269.07187)scale(0.12 -0.12)">
      <use transform="scale(0.996264)" xlink:href="#CMR17-30"/>
      <use transform="translate(45.690477 0)scale(0.996264)" xlink:href="#CMMI12-3a"/>
      <use transform="translate(72.787654 0)scale(0.996264)" xlink:href="#CMR17-38"/>
     </g>
    </g>
   </g>
   <g id="xtick_20">
    <g id="line2d_44">
     <path clip-path="url(#p34de4c7385)" d="M 429.026709 144.584581 
" style="fill:none;stroke:#b0b0b0;stroke-linecap:square;stroke-width:0.8;"/>
    </g>
    <g id="line2d_45">
     <path d="M 451.139044 251.872373 
L 449.195393 253.839725 
" style="fill:none;stroke:#000000;stroke-linecap:square;stroke-width:0.8;"/>
    </g>
    <g id="text_25">
     <!-- $\mathdefault{1.0}$ -->
     <g transform="translate(435.634094 277.455917)scale(0.12 -0.12)">
      <use transform="scale(0.996264)" xlink:href="#CMR17-31"/>
      <use transform="translate(45.690477 0)scale(0.996264)" xlink:href="#CMMI12-3a"/>
      <use transform="translate(72.787654 0)scale(0.996264)" xlink:href="#CMR17-30"/>
     </g>
    </g>
   </g>
  </g>
  <g id="axis3d_5">
   <g id="line2d_46">
    <path d="M 532.945584 180.073537 
L 459.483462 255.463745 
" style="fill:none;stroke:#000000;stroke-linecap:square;stroke-width:0.8;"/>
   </g>
   <g id="text_26">
    <!-- $\mathrm{Re}(x)$ -->
    <g transform="translate(515.28958 258.884315)rotate(-45.742112)scale(0.14 -0.14)">
     <use transform="scale(0.996264)" xlink:href="#CMR17-52"/>
     <use transform="translate(67.791102 0)scale(0.996264)" xlink:href="#CMR17-65"/>
     <use transform="translate(108.276762 0)scale(0.996264)" xlink:href="#CMR17-28"/>
     <use transform="translate(143.55753 0)scale(0.996264)" xlink:href="#CMMI12-78"/>
     <use transform="translate(198.99159 0)scale(0.996264)" xlink:href="#CMR17-29"/>
    </g>
   </g>
   <g id="Line3DCollection_5">
    <path d="M 322.057425 101.756877 
L 326.789669 205.614747 
L 464.555529 250.258558 
" style="fill:none;stroke:#b0b0b0;stroke-width:0.8;"/>
    <path d="M 341.741573 87.392282 
L 345.529862 189.906345 
L 481.537244 232.83114 
" style="fill:none;stroke:#b0b0b0;stroke-width:0.8;"/>
    <path d="M 360.66132 73.585513 
L 363.573309 174.78197 
L 497.854932 216.085178 
" style="fill:none;stroke:#b0b0b0;stroke-width:0.8;"/>
    <path d="M 378.860344 60.304694 
L 380.958158 160.209645 
L 513.546795 199.981467 
" style="fill:none;stroke:#b0b0b0;stroke-width:0.8;"/>
    <path d="M 396.379058 47.520334 
L 397.71982 146.159687 
L 528.648156 184.483755 
" style="fill:none;stroke:#b0b0b0;stroke-width:0.8;"/>
   </g>
   <g id="xtick_21">
    <g id="line2d_47">
     <path clip-path="url(#p34de4c7385)" d="M 429.026709 144.584581 
" style="fill:none;stroke:#b0b0b0;stroke-linecap:square;stroke-width:0.8;"/>
    </g>
    <g id="line2d_48">
     <path d="M 463.394571 249.882343 
L 466.880447 251.011961 
" style="fill:none;stroke:#000000;stroke-linecap:square;stroke-width:0.8;"/>
    </g>
    <g id="text_27">
     <!-- $\mathdefault{−1.0}$ -->
     <g transform="translate(465.30888 271.984861)scale(0.12 -0.12)">
      <use transform="scale(0.996264)" xlink:href="#CMSY10-0"/>
      <use transform="translate(77.487468 0)scale(0.996264)" xlink:href="#CMR17-31"/>
      <use transform="translate(123.177945 0)scale(0.996264)" xlink:href="#CMMI12-3a"/>
      <use transform="translate(150.275122 0)scale(0.996264)" xlink:href="#CMR17-30"/>
     </g>
    </g>
   </g>
   <g id="xtick_22">
    <g id="line2d_49">
     <path clip-path="url(#p34de4c7385)" d="M 429.026709 144.584581 
" style="fill:none;stroke:#b0b0b0;stroke-linecap:square;stroke-width:0.8;"/>
    </g>
    <g id="line2d_50">
     <path d="M 480.392262 232.469777 
L 483.830108 233.554783 
" style="fill:none;stroke:#000000;stroke-linecap:square;stroke-width:0.8;"/>
    </g>
    <g id="text_28">
     <!-- $\mathdefault{−0.5}$ -->
     <g transform="translate(482.044336 254.278526)scale(0.12 -0.12)">
      <use transform="scale(0.996264)" xlink:href="#CMSY10-0"/>
      <use transform="translate(77.487468 0)scale(0.996264)" xlink:href="#CMR17-30"/>
      <use transform="translate(123.177945 0)scale(0.996264)" xlink:href="#CMMI12-3a"/>
      <use transform="translate(150.275122 0)scale(0.996264)" xlink:href="#CMR17-35"/>
     </g>
    </g>
   </g>
   <g id="xtick_23">
    <g id="line2d_51">
     <path clip-path="url(#p34de4c7385)" d="M 429.026709 144.584581 
" style="fill:none;stroke:#b0b0b0;stroke-linecap:square;stroke-width:0.8;"/>
    </g>
    <g id="line2d_52">
     <path d="M 496.725578 215.737804 
L 500.116448 216.78079 
" style="fill:none;stroke:#000000;stroke-linecap:square;stroke-width:0.8;"/>
    </g>
    <g id="text_29">
     <!-- $\mathdefault{0.0}$ -->
     <g transform="translate(502.774231 237.264983)scale(0.12 -0.12)">
      <use transform="scale(0.996264)" xlink:href="#CMR17-30"/>
      <use transform="translate(45.690477 0)scale(0.996264)" xlink:href="#CMMI12-3a"/>
      <use transform="translate(72.787654 0)scale(0.996264)" xlink:href="#CMR17-30"/>
     </g>
    </g>
   </g>
   <g id="xtick_24">
    <g id="line2d_53">
     <path clip-path="url(#p34de4c7385)" d="M 429.026709 144.584581 
" style="fill:none;stroke:#b0b0b0;stroke-linecap:square;stroke-width:0.8;"/>
    </g>
    <g id="line2d_54">
     <path d="M 512.432721 199.647285 
L 515.777656 200.650645 
" style="fill:none;stroke:#000000;stroke-linecap:square;stroke-width:0.8;"/>
    </g>
    <g id="text_30">
     <!-- $\mathdefault{0.5}$ -->
     <g transform="translate(518.237771 220.904353)scale(0.12 -0.12)">
      <use transform="scale(0.996264)" xlink:href="#CMR17-30"/>
      <use transform="translate(45.690477 0)scale(0.996264)" xlink:href="#CMMI12-3a"/>
      <use transform="translate(72.787654 0)scale(0.996264)" xlink:href="#CMR17-35"/>
     </g>
    </g>
   </g>
   <g id="xtick_25">
    <g id="line2d_55">
     <path clip-path="url(#p34de4c7385)" d="M 429.026709 144.584581 
" style="fill:none;stroke:#b0b0b0;stroke-linecap:square;stroke-width:0.8;"/>
    </g>
    <g id="line2d_56">
     <path d="M 527.549025 184.162028 
L 530.849048 185.127978 
" style="fill:none;stroke:#000000;stroke-linecap:square;stroke-width:0.8;"/>
    </g>
    <g id="text_31">
     <!-- $\mathdefault{1.0}$ -->
     <g transform="translate(533.119054 205.159757)scale(0.12 -0.12)">
      <use transform="scale(0.996264)" xlink:href="#CMR17-31"/>
      <use transform="translate(45.690477 0)scale(0.996264)" xlink:href="#CMMI12-3a"/>
      <use transform="translate(72.787654 0)scale(0.996264)" xlink:href="#CMR17-30"/>
     </g>
    </g>
   </g>
  </g>
  <g id="axis3d_6">
   <g id="line2d_57">
    <path d="M 532.945584 180.073537 
L 537.600895 78.413442 
" style="fill:none;stroke:#000000;stroke-linecap:square;stroke-width:0.8;"/>
   </g>
   <g id="text_32">
    <!-- $\mathrm{Im}(x)$ -->
    <g transform="translate(578.266176 142.437266)rotate(-87.378092)scale(0.14 -0.14)">
     <use transform="scale(0.996264)" xlink:href="#CMR17-49"/>
     <use transform="translate(32.638409 0)scale(0.996264)" xlink:href="#CMR17-6d"/>
     <use transform="translate(109.557999 0)scale(0.996264)" xlink:href="#CMR17-28"/>
     <use transform="translate(144.838767 0)scale(0.996264)" xlink:href="#CMMI12-78"/>
     <use transform="translate(200.272826 0)scale(0.996264)" xlink:href="#CMR17-29"/>
    </g>
   </g>
   <g id="Line3DCollection_6">
    <path d="M 534.117042 154.491896 
L 402.210473 117.38785 
L 319.938027 184.099062 
" style="fill:none;stroke:#b0b0b0;stroke-width:0.8;"/>
    <path d="M 535.222245 130.357077 
L 401.942036 94.043894 
L 318.746648 159.359308 
" style="fill:none;stroke:#b0b0b0;stroke-width:0.8;"/>
    <path d="M 536.350942 105.709225 
L 401.668171 70.227855 
L 317.52896 134.073211 
" style="fill:none;stroke:#b0b0b0;stroke-width:0.8;"/>
   </g>
   <g id="xtick_26">
    <g id="line2d_58">
     <path clip-path="url(#p34de4c7385)" d="M 429.026709 144.584581 
" style="fill:none;stroke:#b0b0b0;stroke-linecap:square;stroke-width:0.8;"/>
    </g>
    <g id="line2d_59">
     <path d="M 533.009398 154.180327 
L 536.334992 155.115785 
" style="fill:none;stroke:#000000;stroke-linecap:square;stroke-width:0.8;"/>
    </g>
    <g id="text_33">
     <!-- $\mathdefault{−0.5}$ -->
     <g transform="translate(540.434337 160.244271)scale(0.12 -0.12)">
      <use transform="scale(0.996264)" xlink:href="#CMSY10-0"/>
      <use transform="translate(77.487468 0)scale(0.996264)" xlink:href="#CMR17-30"/>
      <use transform="translate(123.177945 0)scale(0.996264)" xlink:href="#CMMI12-3a"/>
      <use transform="translate(150.275122 0)scale(0.996264)" xlink:href="#CMR17-35"/>
     </g>
    </g>
   </g>
   <g id="xtick_27">
    <g id="line2d_60">
     <path clip-path="url(#p34de4c7385)" d="M 429.026709 144.584581 
" style="fill:none;stroke:#b0b0b0;stroke-linecap:square;stroke-width:0.8;"/>
    </g>
    <g id="line2d_61">
     <path d="M 534.102511 130.051997 
L 537.464435 130.967978 
" style="fill:none;stroke:#000000;stroke-linecap:square;stroke-width:0.8;"/>
    </g>
    <g id="text_34">
     <!-- $\mathdefault{0.0}$ -->
     <g transform="translate(546.378468 136.162634)scale(0.12 -0.12)">
      <use transform="scale(0.996264)" xlink:href="#CMR17-30"/>
      <use transform="translate(45.690477 0)scale(0.996264)" xlink:href="#CMMI12-3a"/>
      <use transform="translate(72.787654 0)scale(0.996264)" xlink:href="#CMR17-30"/>
     </g>
    </g>
   </g>
   <g id="xtick_28">
    <g id="line2d_62">
     <path clip-path="url(#p34de4c7385)" d="M 429.026709 144.584581 
" style="fill:none;stroke:#b0b0b0;stroke-linecap:square;stroke-width:0.8;"/>
    </g>
    <g id="line2d_63">
     <path d="M 535.21885 105.410982 
L 538.617907 106.306443 
" style="fill:none;stroke:#000000;stroke-linecap:square;stroke-width:0.8;"/>
    </g>
    <g id="text_35">
     <!-- $\mathdefault{0.5}$ -->
     <g transform="translate(547.700787 111.570809)scale(0.12 -0.12)">
      <use transform="scale(0.996264)" xlink:href="#CMR17-30"/>
      <use transform="translate(45.690477 0)scale(0.996264)" xlink:href="#CMMI12-3a"/>
      <use transform="translate(72.787654 0)scale(0.996264)" xlink:href="#CMR17-35"/>
     </g>
    </g>
   </g>
  </g>
  <g id="axes_2">
   <g id="line2d_64">
    <path clip-path="url(#p34de4c7385)" d="M 405.189597 100.103924 
L 405.421047 95.590022 
L 405.316537 91.367995 
L 404.878817 87.480027 
L 404.11342 83.96626 
L 403.028734 80.864434 
L 402.370074 79.479041 
L 401.636063 78.209501 
L 400.828576 77.059679 
L 399.949678 76.033216 
L 399.001621 75.133509 
L 397.986842 74.363706 
L 396.907969 73.726683 
L 395.767811 73.225036 
L 394.569362 72.861064 
L 393.315797 72.636758 
L 392.010468 72.553784 
L 390.656901 72.613475 
L 389.258789 72.816812 
L 387.819988 73.164418 
L 386.344511 73.656542 
L 384.83652 74.293054 
L 383.300313 75.07343 
L 381.740324 75.996745 
L 378.567314 78.26646 
L 375.355138 81.08658 
L 372.142775 84.434779 
L 368.970076 88.282035 
L 365.877247 92.592744 
L 362.904305 97.324976 
L 360.090486 102.43086 
L 357.473656 107.85711 
L 355.089703 113.545674 
L 352.971954 119.434513 
L 351.150627 125.458477 
L 349.652322 131.550271 
L 348.499584 137.641476 
L 347.710542 143.663609 
L 347.298632 149.549181 
L 347.272425 155.232733 
L 347.635546 160.651819 
L 348.386694 165.747908 
L 348.906052 168.157807 
L 349.51976 170.467185 
L 350.226338 172.670162 
L 351.024033 174.761235 
L 351.910835 176.735288 
L 352.884484 178.587601 
L 353.942483 180.313868 
L 355.082114 181.910195 
L 356.300447 183.373114 
L 357.59436 184.699581 
L 358.960548 185.886979 
L 360.395539 186.93312 
L 361.895713 187.836237 
L 363.457311 188.594987 
L 365.076453 189.208442 
L 366.749155 189.67608 
L 368.471339 189.997783 
L 370.238851 190.17382 
L 372.047472 190.204843 
L 373.892935 190.091872 
L 375.770936 189.836283 
L 377.677146 189.439798 
L 379.607225 188.904466 
L 381.556832 188.232657 
L 383.521639 187.42704 
L 385.497334 186.490572 
L 389.464322 184.238275 
L 393.424097 181.504643 
L 397.34386 178.322237 
L 401.191935 174.72686 
L 404.937961 170.757123 
L 408.553059 166.454043 
L 412.009964 161.86066 
L 415.283137 157.021688 
L 418.348863 151.983185 
L 421.185327 146.792256 
L 423.772685 141.496767 
L 426.093131 136.145086 
L 428.130953 130.785833 
L 429.872598 125.467633 
L 431.306732 120.238881 
L 432.424305 115.147499 
L 433.218625 110.240681 
L 433.685431 105.564635 
L 433.822971 101.164298 
L 433.632087 97.083035 
L 433.116294 93.362314 
L 432.28186 90.041352 
L 431.137875 87.156739 
L 430.453431 85.888681 
L 429.696319 84.742036 
L 428.868494 83.720457 
L 427.972096 82.827352 
L 427.009449 82.065873 
L 425.983063 81.438901 
L 424.895627 80.949031 
L 423.750017 80.598558 
L 422.549282 80.389463 
L 421.296653 80.323403 
L 419.995529 80.401691 
L 418.649479 80.625289 
L 417.262235 80.994793 
L 415.837682 81.510424 
L 414.379858 82.172013 
L 412.892939 82.978997 
L 409.849179 85.02486 
L 406.742276 87.635278 
L 403.609685 90.79077 
L 400.490028 94.465054 
L 397.422613 98.62511 
L 394.446918 103.23137 
L 391.602029 108.238045 
L 388.926062 113.593589 
L 386.455565 119.241305 
L 384.224933 125.120073 
L 382.265843 131.165194 
L 380.60672 137.309338 
L 379.272269 143.483555 
L 378.283071 149.61834 
L 377.655255 155.644714 
L 377.400273 161.495294 
L 377.524758 167.105318 
L 378.030491 172.413607 
L 378.914458 177.363425 
L 379.496062 179.687581 
L 380.169002 181.903233 
L 380.931635 184.004855 
L 381.782058 185.987314 
L 382.718126 187.845884 
L 383.737459 189.576255 
L 384.837454 191.174545 
L 386.015303 192.637297 
L 387.268002 193.961491 
L 388.592368 195.144537 
L 389.985051 196.184282 
L 391.442553 197.079002 
L 392.961237 197.8274 
L 394.537346 198.4286 
L 396.167014 198.882138 
L 397.846285 199.187958 
L 399.571122 199.346396 
L 401.337425 199.358173 
L 403.141041 199.224384 
L 404.977778 198.946483 
L 406.84342 198.526268 
L 408.733735 197.965874 
L 410.644487 197.267751 
L 412.57145 196.434655 
L 414.510415 195.46963 
L 418.407661 193.157332 
L 422.303259 190.360436 
L 426.165085 187.112211 
L 429.962076 183.449156 
L 433.664423 179.410566 
L 437.243728 175.038124 
L 440.673139 170.375515 
L 443.927462 165.468071 
L 446.983252 160.362444 
L 449.818889 155.106302 
L 452.414655 149.74805 
L 454.752787 144.336563 
L 456.817546 138.920942 
L 458.59527 133.550266 
L 460.074441 128.273358 
L 461.245747 123.13854 
L 462.102157 118.193381 
L 462.638992 113.484438 
L 462.854008 109.05697 
L 462.747477 104.954635 
L 462.322274 101.219165 
L 461.583954 97.890008 
L 460.540829 95.003949 
L 459.908334 93.73775 
L 459.204038 92.594706 
L 458.429782 91.578481 
L 457.587589 90.692495 
L 456.679663 89.939906 
L 455.708391 89.323595 
L 454.676338 88.846158 
L 453.586252 88.509884 
L 452.441055 88.316746 
L 451.243847 88.268387 
L 449.997895 88.366102 
L 448.706638 88.610832 
L 447.373674 89.003145 
L 446.002759 89.54323 
L 444.597796 90.230882 
L 443.162833 91.065495 
L 440.219752 93.171116 
L 437.208379 95.846914 
L 434.165205 99.072871 
L 431.12794 102.822085 
L 428.135056 107.060827 
L 425.225275 111.748741 
L 422.437026 116.839176 
L 419.807874 122.279668 
L 417.373933 128.012549 
L 415.169286 133.975696 
L 413.225424 140.103395 
L 411.570722 146.327301 
L 410.229961 152.577475 
L 409.223927 158.783467 
L 408.569082 164.875416 
L 408.277325 170.785137 
L 408.35585 176.447164 
L 408.807096 181.799722 
L 409.6288 186.785601 
L 410.176611 189.124596 
L 410.814131 191.352915 
L 411.539827 193.465009 
L 412.351916 195.455729 
L 413.248372 197.320343 
L 414.226935 199.054543 
L 415.285129 200.654453 
L 416.420271 202.116636 
L 417.629484 203.438093 
L 418.909713 204.616267 
L 420.257739 205.64904 
L 421.67019 206.534733 
L 423.14356 207.272098 
L 424.674219 207.860314 
L 426.25843 208.29898 
L 427.892363 208.588102 
L 429.572107 208.728086 
L 431.293684 208.719729 
L 433.053063 208.5642 
L 434.846172 208.263034 
L 436.668912 207.818112 
L 438.517164 207.231653 
L 440.386806 206.506194 
L 442.273719 205.64458 
L 446.082964 203.525699 
L 449.912413 200.903293 
L 453.730232 197.809575 
L 457.505478 194.280207 
L 461.208307 190.353852 
L 464.810139 186.071742 
L 468.283808 181.477282 
L 471.603676 176.61567 
L 474.745734 171.53356 
L 477.68769 166.278739 
L 480.409035 160.899842 
L 482.891113 155.446074 
L 485.117178 149.966958 
L 487.072453 144.51209 
L 488.744192 139.1309 
L 490.121743 133.872412 
L 491.196614 128.784997 
L 491.962549 123.916121 
L 492.415606 119.312066 
L 492.554236 115.017644 
L 492.379375 111.075873 
L 491.894523 107.52764 
L 491.10583 104.411325 
L 490.022167 101.762408 
L 489.373255 100.623414 
L 488.655195 99.613044 
L 487.869885 98.734725 
L 487.019405 97.991621 
L 486.106013 97.386616 
L 485.132144 96.922304 
L 484.100412 96.600967 
L 483.013605 96.424571 
L 481.874684 96.394741 
L 480.686781 96.512757 
L 479.453195 96.779533 
L 478.177385 97.195612 
L 476.862967 97.761147 
L 475.513707 98.475894 
L 472.726433 100.350011 
L 469.848394 102.807723 
L 466.914266 105.831936 
L 463.960208 109.39859 
L 461.023438 113.476661 
L 458.141769 118.0283 
L 455.353091 123.009098 
L 452.694821 128.368509 
L 450.20334 134.050401 
L 447.913413 139.993759 
L 445.857621 146.133506 
L 444.065824 152.401439 
L 442.564657 158.727248 
L 441.377093 165.039607 
L 440.522067 171.267282 
L 440.014191 177.340249 
L 439.863551 183.190787 
L 440.075606 188.754495 
L 440.651175 193.971234 
L 441.586521 198.785955 
L 442.186736 201.026921 
L 442.873519 203.149395 
L 443.645209 205.148214 
L 444.499906 207.01864 
L 445.43548 208.756368 
L 446.449586 210.357533 
L 447.539674 211.818714 
L 448.703002 213.13694 
L 449.936651 214.309687 
L 451.237538 215.334876 
L 452.602427 216.210874 
L 454.027948 216.936487 
L 455.510608 217.510951 
L 457.046805 217.933928 
L 458.63284 218.205493 
L 460.264936 218.326126 
L 461.939246 218.296697 
L 463.651867 218.118459 
L 465.398853 217.793027 
L 467.176227 217.322371 
L 468.979992 216.708796 
L 470.806143 215.95493 
L 472.650674 215.06371 
L 476.37893 212.882388 
L 480.133111 210.193865 
L 483.882166 207.031104 
L 487.595865 203.430515 
L 491.245008 199.431493 
L 494.801587 195.075988 
L 498.23893 190.408092 
L 501.531818 185.473672 
L 504.656584 180.320015 
L 507.591197 174.995518 
L 510.315327 169.549388 
L 512.810417 164.031377 
L 515.059737 158.491524 
L 517.048442 152.979909 
L 518.763635 147.546418 
L 520.194429 142.240504 
L 521.332011 137.110939 
L 521.788681 134.627281 
L 521.788681 134.627281 
" style="fill:none;stroke:#1f77b4;stroke-linecap:square;stroke-width:1.5;"/>
   </g>
   <g id="text_36">
    <!-- $f = 4, \varphi = 0$ -->
    <g transform="translate(381.489538 18.823055)scale(0.168 -0.168)">
     <use transform="scale(0.996264)" xlink:href="#CMMI12-66"/>
     <use transform="translate(86.394314 0)scale(0.996264)" xlink:href="#CMR17-3d"/>
     <use transform="translate(185.783111 0)scale(0.996264)" xlink:href="#CMR17-34"/>
     <use transform="translate(231.473588 0)scale(0.996264)" xlink:href="#CMMI12-3b"/>
     <use transform="translate(275.17517 0)scale(0.996264)" xlink:href="#CMMI12-27"/>
     <use transform="translate(366.752243 0)scale(0.996264)" xlink:href="#CMR17-3d"/>
     <use transform="translate(466.14104 0)scale(0.996264)" xlink:href="#CMR17-30"/>
    </g>
   </g>
  </g>
  <g id="patch_10">
   <path d="M 598.023529 270.999525 
L 844.2 270.999525 
L 844.2 24.823055 
L 598.023529 24.823055 
z
" style="fill:#ffffff;"/>
  </g>
  <g id="pane3d_7">
   <g id="patch_11">
    <path d="M 616.611551 210.300297 
L 697.907061 142.156788 
L 696.776976 43.881667 
L 611.591056 106.046471 
" style="fill:#f2f2f2;opacity:0.5;stroke:#f2f2f2;stroke-linejoin:miter;"/>
   </g>
  </g>
  <g id="pane3d_8">
   <g id="patch_12">
    <path d="M 697.907061 142.156788 
L 828.357349 180.073537 
L 833.01266 78.413442 
L 696.776976 43.881667 
" style="fill:#e6e6e6;opacity:0.5;stroke:#e6e6e6;stroke-linejoin:miter;"/>
   </g>
  </g>
  <g id="pane3d_9">
   <g id="patch_13">
    <path d="M 616.611551 210.300297 
L 754.895227 255.463745 
L 828.357349 180.073537 
L 697.907061 142.156788 
" style="fill:#ececec;opacity:0.5;stroke:#ececec;stroke-linejoin:miter;"/>
   </g>
  </g>
  <g id="axis3d_7">
   <g id="line2d_65">
    <path d="M 616.611551 210.300297 
L 754.895227 255.463745 
" style="fill:none;stroke:#000000;stroke-linecap:square;stroke-width:0.8;"/>
   </g>
   <g id="text_37">
    <!-- $n$ -->
    <g transform="translate(663.552084 271.069391)scale(0.14 -0.14)">
     <use transform="scale(0.996264)" xlink:href="#CMMI12-6e"/>
    </g>
   </g>
   <g id="Line3DCollection_7">
    <path d="M 624.986736 213.035632 
L 705.840648 144.462769 
L 705.046001 45.977624 
" style="fill:none;stroke:#b0b0b0;stroke-width:0.8;"/>
    <path d="M 648.290264 220.646565 
L 727.893099 150.872546 
L 728.041993 51.806438 
" style="fill:none;stroke:#b0b0b0;stroke-width:0.8;"/>
    <path d="M 672.021629 228.397228 
L 750.316678 157.390195 
L 751.441819 57.737611 
" style="fill:none;stroke:#b0b0b0;stroke-width:0.8;"/>
    <path d="M 696.19272 236.291507 
L 773.120833 164.018462 
L 775.25621 63.773865 
" style="fill:none;stroke:#b0b0b0;stroke-width:0.8;"/>
    <path d="M 720.815874 244.333429 
L 796.315336 170.760189 
L 799.496282 69.918017 
" style="fill:none;stroke:#b0b0b0;stroke-width:0.8;"/>
    <path d="M 745.903894 252.527176 
L 819.910296 177.618312 
L 824.173552 76.172985 
" style="fill:none;stroke:#b0b0b0;stroke-width:0.8;"/>
   </g>
   <g id="xtick_29">
    <g id="line2d_66">
     <path clip-path="url(#p869217697c)" d="M 724.438474 144.584581 
" style="fill:none;stroke:#b0b0b0;stroke-linecap:square;stroke-width:0.8;"/>
    </g>
    <g id="line2d_67">
     <path d="M 625.690807 212.438504 
L 623.575572 214.232452 
" style="fill:none;stroke:#000000;stroke-linecap:square;stroke-width:0.8;"/>
    </g>
    <g id="text_38">
     <!-- $\mathdefault{0.0}$ -->
     <g transform="translate(609.976598 237.053255)scale(0.12 -0.12)">
      <use transform="scale(0.996264)" xlink:href="#CMR17-30"/>
      <use transform="translate(45.690477 0)scale(0.996264)" xlink:href="#CMMI12-3a"/>
      <use transform="translate(72.787654 0)scale(0.996264)" xlink:href="#CMR17-30"/>
     </g>
    </g>
   </g>
   <g id="xtick_30">
    <g id="line2d_68">
     <path clip-path="url(#p869217697c)" d="M 724.438474 144.584581 
" style="fill:none;stroke:#b0b0b0;stroke-linecap:square;stroke-width:0.8;"/>
    </g>
    <g id="line2d_69">
     <path d="M 648.983954 220.038528 
L 646.899882 221.865272 
" style="fill:none;stroke:#000000;stroke-linecap:square;stroke-width:0.8;"/>
    </g>
    <g id="text_39">
     <!-- $\mathdefault{0.2}$ -->
     <g transform="translate(633.305867 244.838588)scale(0.12 -0.12)">
      <use transform="scale(0.996264)" xlink:href="#CMR17-30"/>
      <use transform="translate(45.690477 0)scale(0.996264)" xlink:href="#CMMI12-3a"/>
      <use transform="translate(72.787654 0)scale(0.996264)" xlink:href="#CMR17-32"/>
     </g>
    </g>
   </g>
   <g id="xtick_31">
    <g id="line2d_70">
     <path clip-path="url(#p869217697c)" d="M 724.438474 144.584581 
" style="fill:none;stroke:#b0b0b0;stroke-linecap:square;stroke-width:0.8;"/>
    </g>
    <g id="line2d_71">
     <path d="M 672.704434 227.777981 
L 670.653033 229.638429 
" style="fill:none;stroke:#000000;stroke-linecap:square;stroke-width:0.8;"/>
    </g>
    <g id="text_40">
     <!-- $\mathdefault{0.4}$ -->
     <g transform="translate(657.065197 252.76744)scale(0.12 -0.12)">
      <use transform="scale(0.996264)" xlink:href="#CMR17-30"/>
      <use transform="translate(45.690477 0)scale(0.996264)" xlink:href="#CMMI12-3a"/>
      <use transform="translate(72.787654 0)scale(0.996264)" xlink:href="#CMR17-34"/>
     </g>
    </g>
   </g>
   <g id="xtick_32">
    <g id="line2d_72">
     <path clip-path="url(#p869217697c)" d="M 724.438474 144.584581 
" style="fill:none;stroke:#b0b0b0;stroke-linecap:square;stroke-width:0.8;"/>
    </g>
    <g id="line2d_73">
     <path d="M 696.864118 235.660736 
L 694.846962 237.55583 
" style="fill:none;stroke:#000000;stroke-linecap:square;stroke-width:0.8;"/>
    </g>
    <g id="text_41">
     <!-- $\mathdefault{0.6}$ -->
     <g transform="translate(681.266592 260.843815)scale(0.12 -0.12)">
      <use transform="scale(0.996264)" xlink:href="#CMR17-30"/>
      <use transform="translate(45.690477 0)scale(0.996264)" xlink:href="#CMMI12-3a"/>
      <use transform="translate(72.787654 0)scale(0.996264)" xlink:href="#CMR17-36"/>
     </g>
    </g>
   </g>
   <g id="xtick_33">
    <g id="line2d_74">
     <path clip-path="url(#p869217697c)" d="M 724.438474 144.584581 
" style="fill:none;stroke:#b0b0b0;stroke-linecap:square;stroke-width:0.8;"/>
    </g>
    <g id="line2d_75">
     <path d="M 721.475317 243.690811 
L 719.494053 245.621527 
" style="fill:none;stroke:#000000;stroke-linecap:square;stroke-width:0.8;"/>
    </g>
    <g id="text_42">
     <!-- $\mathdefault{0.8}$ -->
     <g transform="translate(705.922504 269.07187)scale(0.12 -0.12)">
      <use transform="scale(0.996264)" xlink:href="#CMR17-30"/>
      <use transform="translate(45.690477 0)scale(0.996264)" xlink:href="#CMMI12-3a"/>
      <use transform="translate(72.787654 0)scale(0.996264)" xlink:href="#CMR17-38"/>
     </g>
    </g>
   </g>
   <g id="xtick_34">
    <g id="line2d_76">
     <path clip-path="url(#p869217697c)" d="M 724.438474 144.584581 
" style="fill:none;stroke:#b0b0b0;stroke-linecap:square;stroke-width:0.8;"/>
    </g>
    <g id="line2d_77">
     <path d="M 746.550808 251.872373 
L 744.607157 253.839725 
" style="fill:none;stroke:#000000;stroke-linecap:square;stroke-width:0.8;"/>
    </g>
    <g id="text_43">
     <!-- $\mathdefault{1.0}$ -->
     <g transform="translate(731.045859 277.455917)scale(0.12 -0.12)">
      <use transform="scale(0.996264)" xlink:href="#CMR17-31"/>
      <use transform="translate(45.690477 0)scale(0.996264)" xlink:href="#CMMI12-3a"/>
      <use transform="translate(72.787654 0)scale(0.996264)" xlink:href="#CMR17-30"/>
     </g>
    </g>
   </g>
  </g>
  <g id="axis3d_8">
   <g id="line2d_78">
    <path d="M 828.357349 180.073537 
L 754.895227 255.463745 
" style="fill:none;stroke:#000000;stroke-linecap:square;stroke-width:0.8;"/>
   </g>
   <g id="text_44">
    <!-- $\mathrm{Re}(x)$ -->
    <g transform="translate(810.701345 258.884315)rotate(-45.742112)scale(0.14 -0.14)">
     <use transform="scale(0.996264)" xlink:href="#CMR17-52"/>
     <use transform="translate(67.791102 0)scale(0.996264)" xlink:href="#CMR17-65"/>
     <use transform="translate(108.276762 0)scale(0.996264)" xlink:href="#CMR17-28"/>
     <use transform="translate(143.55753 0)scale(0.996264)" xlink:href="#CMMI12-78"/>
     <use transform="translate(198.99159 0)scale(0.996264)" xlink:href="#CMR17-29"/>
    </g>
   </g>
   <g id="Line3DCollection_8">
    <path d="M 617.469189 101.756877 
L 622.201433 205.614747 
L 759.967293 250.258558 
" style="fill:none;stroke:#b0b0b0;stroke-width:0.8;"/>
    <path d="M 637.153338 87.392282 
L 640.941627 189.906345 
L 776.949008 232.83114 
" style="fill:none;stroke:#b0b0b0;stroke-width:0.8;"/>
    <path d="M 656.073085 73.585513 
L 658.985074 174.78197 
L 793.266697 216.085178 
" style="fill:none;stroke:#b0b0b0;stroke-width:0.8;"/>
    <path d="M 674.272109 60.304694 
L 676.369922 160.209645 
L 808.958559 199.981467 
" style="fill:none;stroke:#b0b0b0;stroke-width:0.8;"/>
    <path d="M 691.790823 47.520334 
L 693.131585 146.159687 
L 824.059921 184.483755 
" style="fill:none;stroke:#b0b0b0;stroke-width:0.8;"/>
   </g>
   <g id="xtick_35">
    <g id="line2d_79">
     <path clip-path="url(#p869217697c)" d="M 724.438474 144.584581 
" style="fill:none;stroke:#b0b0b0;stroke-linecap:square;stroke-width:0.8;"/>
    </g>
    <g id="line2d_80">
     <path d="M 758.806335 249.882343 
L 762.292211 251.011961 
" style="fill:none;stroke:#000000;stroke-linecap:square;stroke-width:0.8;"/>
    </g>
    <g id="text_45">
     <!-- $\mathdefault{−1.0}$ -->
     <g transform="translate(760.720645 271.984861)scale(0.12 -0.12)">
      <use transform="scale(0.996264)" xlink:href="#CMSY10-0"/>
      <use transform="translate(77.487468 0)scale(0.996264)" xlink:href="#CMR17-31"/>
      <use transform="translate(123.177945 0)scale(0.996264)" xlink:href="#CMMI12-3a"/>
      <use transform="translate(150.275122 0)scale(0.996264)" xlink:href="#CMR17-30"/>
     </g>
    </g>
   </g>
   <g id="xtick_36">
    <g id="line2d_81">
     <path clip-path="url(#p869217697c)" d="M 724.438474 144.584581 
" style="fill:none;stroke:#b0b0b0;stroke-linecap:square;stroke-width:0.8;"/>
    </g>
    <g id="line2d_82">
     <path d="M 775.804027 232.469777 
L 779.241873 233.554783 
" style="fill:none;stroke:#000000;stroke-linecap:square;stroke-width:0.8;"/>
    </g>
    <g id="text_46">
     <!-- $\mathdefault{−0.5}$ -->
     <g transform="translate(777.4561 254.278526)scale(0.12 -0.12)">
      <use transform="scale(0.996264)" xlink:href="#CMSY10-0"/>
      <use transform="translate(77.487468 0)scale(0.996264)" xlink:href="#CMR17-30"/>
      <use transform="translate(123.177945 0)scale(0.996264)" xlink:href="#CMMI12-3a"/>
      <use transform="translate(150.275122 0)scale(0.996264)" xlink:href="#CMR17-35"/>
     </g>
    </g>
   </g>
   <g id="xtick_37">
    <g id="line2d_83">
     <path clip-path="url(#p869217697c)" d="M 724.438474 144.584581 
" style="fill:none;stroke:#b0b0b0;stroke-linecap:square;stroke-width:0.8;"/>
    </g>
    <g id="line2d_84">
     <path d="M 792.137342 215.737804 
L 795.528213 216.78079 
" style="fill:none;stroke:#000000;stroke-linecap:square;stroke-width:0.8;"/>
    </g>
    <g id="text_47">
     <!-- $\mathdefault{0.0}$ -->
     <g transform="translate(798.185996 237.264983)scale(0.12 -0.12)">
      <use transform="scale(0.996264)" xlink:href="#CMR17-30"/>
      <use transform="translate(45.690477 0)scale(0.996264)" xlink:href="#CMMI12-3a"/>
      <use transform="translate(72.787654 0)scale(0.996264)" xlink:href="#CMR17-30"/>
     </g>
    </g>
   </g>
   <g id="xtick_38">
    <g id="line2d_85">
     <path clip-path="url(#p869217697c)" d="M 724.438474 144.584581 
" style="fill:none;stroke:#b0b0b0;stroke-linecap:square;stroke-width:0.8;"/>
    </g>
    <g id="line2d_86">
     <path d="M 807.844486 199.647285 
L 811.189421 200.650645 
" style="fill:none;stroke:#000000;stroke-linecap:square;stroke-width:0.8;"/>
    </g>
    <g id="text_48">
     <!-- $\mathdefault{0.5}$ -->
     <g transform="translate(813.649536 220.904353)scale(0.12 -0.12)">
      <use transform="scale(0.996264)" xlink:href="#CMR17-30"/>
      <use transform="translate(45.690477 0)scale(0.996264)" xlink:href="#CMMI12-3a"/>
      <use transform="translate(72.787654 0)scale(0.996264)" xlink:href="#CMR17-35"/>
     </g>
    </g>
   </g>
   <g id="xtick_39">
    <g id="line2d_87">
     <path clip-path="url(#p869217697c)" d="M 724.438474 144.584581 
" style="fill:none;stroke:#b0b0b0;stroke-linecap:square;stroke-width:0.8;"/>
    </g>
    <g id="line2d_88">
     <path d="M 822.96079 184.162028 
L 826.260813 185.127978 
" style="fill:none;stroke:#000000;stroke-linecap:square;stroke-width:0.8;"/>
    </g>
    <g id="text_49">
     <!-- $\mathdefault{1.0}$ -->
     <g transform="translate(828.530819 205.159757)scale(0.12 -0.12)">
      <use transform="scale(0.996264)" xlink:href="#CMR17-31"/>
      <use transform="translate(45.690477 0)scale(0.996264)" xlink:href="#CMMI12-3a"/>
      <use transform="translate(72.787654 0)scale(0.996264)" xlink:href="#CMR17-30"/>
     </g>
    </g>
   </g>
  </g>
  <g id="axis3d_9">
   <g id="line2d_89">
    <path d="M 828.357349 180.073537 
L 833.01266 78.413442 
" style="fill:none;stroke:#000000;stroke-linecap:square;stroke-width:0.8;"/>
   </g>
   <g id="text_50">
    <!-- $\mathrm{Im}(x)$ -->
    <g transform="translate(873.677941 142.437266)rotate(-87.378092)scale(0.14 -0.14)">
     <use transform="scale(0.996264)" xlink:href="#CMR17-49"/>
     <use transform="translate(32.638409 0)scale(0.996264)" xlink:href="#CMR17-6d"/>
     <use transform="translate(109.557999 0)scale(0.996264)" xlink:href="#CMR17-28"/>
     <use transform="translate(144.838767 0)scale(0.996264)" xlink:href="#CMMI12-78"/>
     <use transform="translate(200.272826 0)scale(0.996264)" xlink:href="#CMR17-29"/>
    </g>
   </g>
   <g id="Line3DCollection_9">
    <path d="M 829.528806 154.491896 
L 697.622238 117.38785 
L 615.349792 184.099062 
" style="fill:none;stroke:#b0b0b0;stroke-width:0.8;"/>
    <path d="M 830.63401 130.357077 
L 697.353801 94.043894 
L 614.158413 159.359308 
" style="fill:none;stroke:#b0b0b0;stroke-width:0.8;"/>
    <path d="M 831.762706 105.709225 
L 697.079936 70.227855 
L 612.940724 134.073211 
" style="fill:none;stroke:#b0b0b0;stroke-width:0.8;"/>
   </g>
   <g id="xtick_40">
    <g id="line2d_90">
     <path clip-path="url(#p869217697c)" d="M 724.438474 144.584581 
" style="fill:none;stroke:#b0b0b0;stroke-linecap:square;stroke-width:0.8;"/>
    </g>
    <g id="line2d_91">
     <path d="M 828.421163 154.180327 
L 831.746757 155.115785 
" style="fill:none;stroke:#000000;stroke-linecap:square;stroke-width:0.8;"/>
    </g>
    <g id="text_51">
     <!-- $\mathdefault{−0.5}$ -->
     <g transform="translate(835.846101 160.244271)scale(0.12 -0.12)">
      <use transform="scale(0.996264)" xlink:href="#CMSY10-0"/>
      <use transform="translate(77.487468 0)scale(0.996264)" xlink:href="#CMR17-30"/>
      <use transform="translate(123.177945 0)scale(0.996264)" xlink:href="#CMMI12-3a"/>
      <use transform="translate(150.275122 0)scale(0.996264)" xlink:href="#CMR17-35"/>
     </g>
    </g>
   </g>
   <g id="xtick_41">
    <g id="line2d_92">
     <path clip-path="url(#p869217697c)" d="M 724.438474 144.584581 
" style="fill:none;stroke:#b0b0b0;stroke-linecap:square;stroke-width:0.8;"/>
    </g>
    <g id="line2d_93">
     <path d="M 829.514275 130.051997 
L 832.8762 130.967978 
" style="fill:none;stroke:#000000;stroke-linecap:square;stroke-width:0.8;"/>
    </g>
    <g id="text_52">
     <!-- $\mathdefault{0.0}$ -->
     <g transform="translate(841.790232 136.162634)scale(0.12 -0.12)">
      <use transform="scale(0.996264)" xlink:href="#CMR17-30"/>
      <use transform="translate(45.690477 0)scale(0.996264)" xlink:href="#CMMI12-3a"/>
      <use transform="translate(72.787654 0)scale(0.996264)" xlink:href="#CMR17-30"/>
     </g>
    </g>
   </g>
   <g id="xtick_42">
    <g id="line2d_94">
     <path clip-path="url(#p869217697c)" d="M 724.438474 144.584581 
" style="fill:none;stroke:#b0b0b0;stroke-linecap:square;stroke-width:0.8;"/>
    </g>
    <g id="line2d_95">
     <path d="M 830.630614 105.410982 
L 834.029672 106.306443 
" style="fill:none;stroke:#000000;stroke-linecap:square;stroke-width:0.8;"/>
    </g>
    <g id="text_53">
     <!-- $\mathdefault{0.5}$ -->
     <g transform="translate(843.112552 111.570809)scale(0.12 -0.12)">
      <use transform="scale(0.996264)" xlink:href="#CMR17-30"/>
      <use transform="translate(45.690477 0)scale(0.996264)" xlink:href="#CMMI12-3a"/>
      <use transform="translate(72.787654 0)scale(0.996264)" xlink:href="#CMR17-35"/>
     </g>
    </g>
   </g>
  </g>
  <g id="axes_3">
   <g id="line2d_96">
    <path clip-path="url(#p869217697c)" d="M 700.601362 100.103924 
L 700.928314 105.112928 
L 700.91894 110.327375 
L 700.579112 115.701337 
L 699.917213 121.188008 
L 698.944047 126.739957 
L 697.672759 132.30937 
L 696.118764 137.848291 
L 694.299668 143.308849 
L 692.235196 148.643511 
L 689.947123 153.805325 
L 687.459189 158.748192 
L 684.797017 163.427148 
L 681.988011 167.798676 
L 679.061243 171.821037 
L 676.047315 175.454634 
L 672.978205 178.662396 
L 669.88707 181.410193 
L 666.808032 183.667267 
L 663.775919 185.406689 
L 662.288464 186.075023 
L 660.825969 186.605811 
L 659.39285 186.996967 
L 657.993505 187.246731 
L 656.632299 187.353677 
L 655.313558 187.316735 
L 654.04155 187.135196 
L 652.820473 186.808724 
L 651.65444 186.337373 
L 650.547466 185.721588 
L 649.503452 184.96222 
L 648.52617 184.060531 
L 647.61925 183.018198 
L 646.786162 181.837322 
L 646.030201 180.520426 
L 645.354476 179.070456 
L 644.761892 177.490784 
L 644.255137 175.785201 
L 643.836667 173.957915 
L 643.273184 169.957096 
L 643.086018 165.529975 
L 643.285313 160.724174 
L 643.876512 155.592757 
L 644.860159 150.193562 
L 646.231793 144.588422 
L 647.981947 138.842271 
L 650.096238 133.022181 
L 652.555564 127.196339 
L 655.336397 121.432986 
L 658.411165 115.799369 
L 661.748707 110.360716 
L 665.3148 105.179268 
L 669.072727 100.313391 
L 672.983882 95.816795 
L 677.00838 91.737867 
L 681.105678 88.119134 
L 685.235158 84.996863 
L 689.356697 82.400791 
L 691.402212 81.307552 
L 693.431177 80.353992 
L 695.438937 79.541952 
L 697.420952 78.87286 
L 699.372815 78.347737 
L 701.290255 77.967205 
L 703.169151 77.731493 
L 705.005539 77.640447 
L 706.795618 77.693539 
L 708.535759 77.889882 
L 710.222508 78.228235 
L 711.852594 78.707022 
L 713.422926 79.324341 
L 714.930606 80.077978 
L 716.372922 80.96542 
L 717.747354 81.983871 
L 719.051576 83.130263 
L 720.283452 84.401272 
L 721.441041 85.79333 
L 722.522592 87.302639 
L 723.526546 88.925187 
L 724.451531 90.656756 
L 725.296365 92.492939 
L 726.060051 94.429153 
L 727.340898 98.58252 
L 728.289703 103.077083 
L 728.904901 107.87097 
L 729.187633 112.920538 
L 729.141658 118.180691 
L 728.773255 123.605159 
L 728.09114 129.146768 
L 727.106377 134.757696 
L 725.832296 140.389711 
L 724.284423 145.994408 
L 722.480401 151.523444 
L 720.439917 156.928783 
L 718.184635 162.162941 
L 715.738111 167.17926 
L 713.125709 171.932189 
L 710.374506 176.377594 
L 707.513173 180.4731 
L 704.571845 184.178445 
L 701.581964 187.455882 
L 698.576088 190.270588 
L 695.587676 192.59111 
L 692.650833 194.389824 
L 691.212516 195.086031 
L 689.800025 195.6434 
L 688.417672 196.059761 
L 687.069746 196.333274 
L 685.760504 196.462439 
L 684.494159 196.446108 
L 683.274864 196.283502 
L 682.106701 195.974219 
L 680.993664 195.518247 
L 679.939649 194.915974 
L 678.948437 194.168196 
L 678.023677 193.276126 
L 677.168878 192.2414 
L 676.387387 191.066079 
L 675.682378 189.752655 
L 675.056837 188.304052 
L 674.513548 186.723623 
L 674.05508 185.01515 
L 673.683771 183.182837 
L 673.210767 179.165583 
L 673.108212 174.713641 
L 673.385398 169.874892 
L 674.046978 164.702782 
L 675.092779 159.255653 
L 676.517711 153.595951 
L 678.311768 147.789328 
L 680.460139 141.903662 
L 682.943405 136.008013 
L 685.737841 130.171556 
L 688.815801 124.462505 
L 692.146177 118.947069 
L 695.694926 113.68847 
L 699.425636 108.746036 
L 703.300122 104.1744 
L 707.279039 100.022821 
L 711.322481 96.334639 
L 715.39057 93.146858 
L 719.443997 90.489875 
L 721.453211 89.368089 
L 723.444533 88.387342 
L 725.413428 87.549533 
L 727.355478 86.856145 
L 729.266401 86.308247 
L 731.142052 85.906504 
L 732.978438 85.651182 
L 734.771724 85.542162 
L 736.518238 85.578944 
L 738.214481 85.760664 
L 739.857129 86.086101 
L 741.443038 86.553695 
L 742.969248 87.161553 
L 744.432984 87.907469 
L 745.83166 88.788933 
L 747.162881 89.803149 
L 748.424439 90.947044 
L 749.614318 92.217288 
L 750.730692 93.610302 
L 751.771923 95.122275 
L 752.736561 96.749179 
L 753.62334 98.486779 
L 754.431181 100.330646 
L 755.806629 104.318586 
L 756.857845 108.674197 
L 757.58255 113.356368 
L 757.981147 118.322026 
L 758.05663 123.52646 
L 757.814489 128.92362 
L 757.262616 134.466395 
L 756.411214 140.10687 
L 755.272722 145.796576 
L 753.861729 151.486723 
L 752.1949 157.128442 
L 750.290907 162.673012 
L 748.170356 168.072116 
L 745.855709 173.278089 
L 743.371203 178.244203 
L 740.742764 182.924959 
L 737.997898 187.276414 
L 735.165571 191.256536 
L 732.276063 194.825578 
L 729.360803 197.946497 
L 726.452163 200.58538 
L 723.583232 202.711913 
L 720.787544 204.299846 
L 719.427695 204.884864 
L 718.098778 205.327475 
L 716.804972 205.625756 
L 715.550417 205.778125 
L 714.339206 205.783357 
L 713.175371 205.6406 
L 712.062872 205.34938 
L 711.005579 204.90962 
L 710.00726 204.321645 
L 709.071569 203.586195 
L 708.202027 202.704431 
L 707.402014 201.677942 
L 706.674746 200.508751 
L 706.02327 199.199317 
L 705.450443 197.752536 
L 704.95892 196.171743 
L 704.551144 194.460709 
L 703.995448 190.665138 
L 703.798124 186.404461 
L 703.969769 181.723755 
L 704.516514 176.674081 
L 705.439822 171.311872 
L 706.736357 165.698196 
L 708.39795 159.897902 
L 710.411668 153.97866 
L 712.759976 148.009938 
L 715.420993 142.061916 
L 718.368849 136.2044 
L 721.574102 130.505735 
L 725.004244 125.031769 
L 728.62424 119.844886 
L 732.397111 115.003134 
L 736.284535 110.559466 
L 740.247446 106.561114 
L 744.246617 103.049093 
L 748.24322 100.057856 
L 752.199333 97.615078 
L 754.150721 96.606135 
L 756.078414 95.741578 
L 757.978125 95.022946 
L 759.845702 94.451359 
L 761.677134 94.027527 
L 763.468564 93.751755 
L 765.216291 93.62396 
L 766.916782 93.643671 
L 768.566673 93.81005 
L 770.162776 94.121896 
L 771.702082 94.577664 
L 773.181765 95.175475 
L 774.599184 95.913129 
L 775.951885 96.788121 
L 777.237598 97.797653 
L 778.454245 98.938652 
L 779.599932 100.207779 
L 780.672955 101.601445 
L 781.671793 103.115829 
L 782.595109 104.746884 
L 783.44175 106.490357 
L 784.210742 108.341799 
L 785.512768 112.3499 
L 786.496902 116.732171 
L 787.161562 121.447254 
L 787.507783 126.451797 
L 787.539112 131.700781 
L 787.261513 137.147822 
L 786.683272 142.745443 
L 785.814913 148.44534 
L 784.669107 154.198623 
L 783.260598 159.956056 
L 781.606128 165.668291 
L 779.724362 171.286101 
L 777.635817 176.760628 
L 775.36279 182.04364 
L 772.929273 187.087806 
L 770.360865 191.846995 
L 767.684671 196.276607 
L 764.929175 200.33392 
L 762.124104 203.978479 
L 759.300258 207.172512 
L 756.48931 209.881369 
L 753.723581 212.073991 
L 751.035777 213.72339 
L 749.731348 214.337181 
L 748.458685 214.80714 
L 747.221844 215.131257 
L 746.024844 215.307867 
L 744.871653 215.335666 
L 743.766176 215.213721 
L 742.712242 214.941487 
L 741.713588 214.518816 
L 740.773851 213.94597 
L 739.896549 213.223627 
L 739.085068 212.352895 
L 738.34265 211.335314 
L 737.672376 210.172864 
L 737.077155 208.867969 
L 736.559709 207.423498 
L 736.122558 205.842763 
L 735.498147 202.287967 
L 735.219607 198.238852 
L 735.298654 193.737442 
L 735.742734 188.832128 
L 736.554789 183.577126 
L 737.733095 178.031804 
L 739.271201 172.25987 
L 741.157955 166.328457 
L 743.377628 160.307108 
L 745.910137 154.266708 
L 748.731355 148.278369 
L 751.813505 142.412322 
L 755.125629 136.736833 
L 758.634108 131.317174 
L 762.303222 126.214687 
L 766.095742 121.485945 
L 769.973518 117.182042 
L 773.898069 113.348022 
L 777.831137 110.022446 
L 781.735212 107.237104 
L 783.66498 106.055064 
L 785.574011 105.016867 
L 787.458033 104.124535 
L 789.312895 103.379665 
L 791.134585 102.78343 
L 792.919233 102.336586 
L 794.663124 102.039482 
L 796.362701 101.892068 
L 798.014574 101.893908 
L 799.615522 102.044189 
L 801.162501 102.341731 
L 802.652644 102.785008 
L 804.083267 103.372151 
L 805.451867 104.100971 
L 806.756128 104.968967 
L 807.993915 105.973342 
L 809.163282 107.111019 
L 810.262465 108.378654 
L 811.289886 109.772648 
L 812.244147 111.289167 
L 813.124031 112.92415 
L 813.9285 114.673324 
L 815.307915 118.496187 
L 816.377556 122.719856 
L 817.135269 127.303868 
L 817.39719 129.717747 
L 817.39719 129.717747 
" style="fill:none;stroke:#1f77b4;stroke-linecap:square;stroke-width:1.5;"/>
   </g>
   <g id="text_54">
    <!-- $f = -4, \varphi = 0$ -->
    <g transform="translate(670.392356 18.823055)scale(0.168 -0.168)">
     <use transform="scale(0.996264)" xlink:href="#CMMI12-66"/>
     <use transform="translate(86.394314 0)scale(0.996264)" xlink:href="#CMR17-3d"/>
     <use transform="translate(185.783111 0)scale(0.996264)" xlink:href="#CMSY10-0"/>
     <use transform="translate(263.270578 0)scale(0.996264)" xlink:href="#CMR17-34"/>
     <use transform="translate(308.961055 0)scale(0.996264)" xlink:href="#CMMI12-3b"/>
     <use transform="translate(352.662638 0)scale(0.996264)" xlink:href="#CMMI12-27"/>
     <use transform="translate(444.23971 0)scale(0.996264)" xlink:href="#CMR17-3d"/>
     <use transform="translate(543.628507 0)scale(0.996264)" xlink:href="#CMR17-30"/>
    </g>
   </g>
  </g>
 </g>
 <defs>
  <clipPath id="p94b4a92824">
   <rect height="246.176471" width="246.176471" x="7.2" y="24.823055"/>
  </clipPath>
  <clipPath id="p34de4c7385">
   <rect height="246.176471" width="246.176471" x="302.611765" y="24.823055"/>
  </clipPath>
  <clipPath id="p869217697c">
   <rect height="246.176471" width="246.176471" x="598.023529" y="24.823055"/>
  </clipPath>
 </defs>
</svg>
