<?xml version="1.0" encoding="utf-8" standalone="no"?>
<!DOCTYPE svg PUBLIC "-//W3C//DTD SVG 1.1//EN"
  "http://www.w3.org/Graphics/SVG/1.1/DTD/svg11.dtd">
<svg height="484.633073pt" version="1.1" viewBox="0 0 603.200686 484.633073" width="603.200686pt" xmlns="http://www.w3.org/2000/svg" xmlns:xlink="http://www.w3.org/1999/xlink">
 <metadata>
  <rdf:RDF xmlns:cc="http://creativecommons.org/ns#" xmlns:dc="http://purl.org/dc/elements/1.1/" xmlns:rdf="http://www.w3.org/1999/02/22-rdf-syntax-ns#">
   <cc:Work>
    <dc:type rdf:resource="http://purl.org/dc/dcmitype/StillImage"/>
    <dc:date>2023-10-12T15:00:27.207040</dc:date>
    <dc:format>image/svg+xml</dc:format>
    <dc:creator>
     <cc:Agent>
      <dc:title>Matplotlib v3.4.3, https://matplotlib.org/</dc:title>
     </cc:Agent>
    </dc:creator>
   </cc:Work>
  </rdf:RDF>
 </metadata>
 <defs>
  <style type="text/css">*{stroke-linecap:butt;stroke-linejoin:round;}</style>
 </defs>
 <g id="figure_1">
  <g id="patch_1">
   <path d="M -0 484.633073 
L 603.200686 484.633073 
L 603.200686 0 
L -0 0 
z
" style="fill:none;"/>
  </g>
  <g id="axes_1">
   <g id="patch_2">
    <path d="M 38.000686 135.105882 
L 596.000686 135.105882 
L 596.000686 7.2 
L 38.000686 7.2 
z
" style="fill:#ffffff;"/>
   </g>
   <g id="matplotlib.axis_1">
    <g id="xtick_1">
     <g id="line2d_1">
      <path clip-path="url(#p9f9d2437b6)" d="M 63.364323 135.105882 
L 63.364323 7.2 
" style="fill:none;stroke:#b0b0b0;stroke-linecap:square;stroke-width:0.8;"/>
     </g>
     <g id="line2d_2">
      <defs>
       <path d="M 0 0 
L 0 3.5 
" id="m56d17aaa02" style="stroke:#000000;stroke-width:0.8;"/>
      </defs>
      <g>
       <use style="stroke:#000000;stroke-width:0.8;" x="63.364323" xlink:href="#m56d17aaa02" y="135.105882"/>
      </g>
     </g>
    </g>
    <g id="xtick_2">
     <g id="line2d_3">
      <path clip-path="url(#p9f9d2437b6)" d="M 114.091595 135.105882 
L 114.091595 7.2 
" style="fill:none;stroke:#b0b0b0;stroke-linecap:square;stroke-width:0.8;"/>
     </g>
     <g id="line2d_4">
      <g>
       <use style="stroke:#000000;stroke-width:0.8;" x="114.091595" xlink:href="#m56d17aaa02" y="135.105882"/>
      </g>
     </g>
    </g>
    <g id="xtick_3">
     <g id="line2d_5">
      <path clip-path="url(#p9f9d2437b6)" d="M 164.818868 135.105882 
L 164.818868 7.2 
" style="fill:none;stroke:#b0b0b0;stroke-linecap:square;stroke-width:0.8;"/>
     </g>
     <g id="line2d_6">
      <g>
       <use style="stroke:#000000;stroke-width:0.8;" x="164.818868" xlink:href="#m56d17aaa02" y="135.105882"/>
      </g>
     </g>
    </g>
    <g id="xtick_4">
     <g id="line2d_7">
      <path clip-path="url(#p9f9d2437b6)" d="M 215.546141 135.105882 
L 215.546141 7.2 
" style="fill:none;stroke:#b0b0b0;stroke-linecap:square;stroke-width:0.8;"/>
     </g>
     <g id="line2d_8">
      <g>
       <use style="stroke:#000000;stroke-width:0.8;" x="215.546141" xlink:href="#m56d17aaa02" y="135.105882"/>
      </g>
     </g>
    </g>
    <g id="xtick_5">
     <g id="line2d_9">
      <path clip-path="url(#p9f9d2437b6)" d="M 266.273414 135.105882 
L 266.273414 7.2 
" style="fill:none;stroke:#b0b0b0;stroke-linecap:square;stroke-width:0.8;"/>
     </g>
     <g id="line2d_10">
      <g>
       <use style="stroke:#000000;stroke-width:0.8;" x="266.273414" xlink:href="#m56d17aaa02" y="135.105882"/>
      </g>
     </g>
     <g id="text_1">
      <!-- $t_0-T/2$ -->
      <g transform="translate(244.553943 151.072258)scale(0.12 -0.12)">
       <defs>
        <path d="M 1286 2566 
L 1875 2566 
C 1997 2566 2061 2566 2061 2681 
C 2061 2752 2022 2752 1894 2752 
L 1331 2752 
L 1568 3664 
C 1594 3752 1594 3764 1594 3808 
C 1594 3910 1510 3968 1427 3968 
C 1376 3968 1229 3948 1178 3746 
L 928 2752 
L 326 2752 
C 198 2752 141 2752 141 2630 
C 141 2566 186 2566 307 2566 
L 877 2566 
L 454 881 
C 403 657 384 593 384 510 
C 384 210 595 -64 954 -64 
C 1600 -64 1946 868 1946 913 
C 1946 951 1920 970 1882 970 
C 1869 970 1843 970 1830 944 
C 1824 938 1818 932 1773 830 
C 1638 510 1344 64 973 64 
C 781 64 768 223 768 364 
C 768 370 768 491 787 568 
L 1286 2566 
z
" id="CMMI12-74" transform="scale(0.015625)"/>
        <path d="M 2688 2038 
C 2688 2430 2682 3099 2413 3613 
C 2176 4063 1798 4224 1466 4224 
C 1158 4224 768 4082 525 3620 
C 269 3137 243 2539 243 2038 
C 243 1671 250 1112 448 623 
C 723 -39 1216 -128 1466 -128 
C 1760 -128 2208 -7 2470 604 
C 2662 1048 2688 1568 2688 2038 
z
M 1466 -26 
C 1056 -26 813 328 723 816 
C 653 1196 653 1749 653 2109 
C 653 2604 653 3015 736 3407 
C 858 3954 1216 4121 1466 4121 
C 1728 4121 2067 3947 2189 3420 
C 2272 3054 2278 2623 2278 2109 
C 2278 1691 2278 1176 2202 797 
C 2067 96 1690 -26 1466 -26 
z
" id="CMR17-30" transform="scale(0.015625)"/>
        <path d="M 4218 1472 
C 4326 1472 4442 1472 4442 1600 
C 4442 1728 4326 1728 4218 1728 
L 755 1728 
C 646 1728 531 1728 531 1600 
C 531 1472 646 1472 755 1472 
L 4218 1472 
z
" id="CMSY10-0" transform="scale(0.015625)"/>
        <path d="M 2669 3886 
C 2707 4038 2720 4096 2816 4121 
C 2867 4134 3078 4134 3213 4134 
C 3853 4134 4154 4109 4154 3612 
C 4154 3516 4128 3274 4090 3038 
L 4083 2962 
C 4083 2937 4109 2898 4147 2898 
C 4211 2898 4211 2930 4230 3032 
L 4416 4159 
C 4429 4217 4429 4230 4429 4249 
C 4429 4319 4390 4319 4262 4319 
L 762 4319 
C 614 4319 608 4313 570 4198 
L 179 3051 
C 173 3038 154 2968 154 2962 
C 154 2930 179 2898 218 2898 
C 269 2898 282 2924 307 3007 
C 576 3777 710 4134 1562 4134 
L 1990 4134 
C 2144 4134 2208 4134 2208 4064 
C 2208 4045 2208 4032 2176 3917 
L 1318 497 
C 1254 249 1242 185 563 185 
C 403 185 358 185 358 64 
C 358 0 429 0 461 0 
C 621 0 787 12 947 12 
L 1946 12 
C 2106 12 2278 0 2438 0 
C 2509 0 2573 0 2573 121 
C 2573 185 2528 185 2362 185 
C 1786 185 1786 242 1786 338 
C 1786 344 1786 389 1811 491 
L 2669 3886 
z
" id="CMMI12-54" transform="scale(0.015625)"/>
        <path d="M 2746 4563 
C 2746 4569 2784 4665 2784 4678 
C 2784 4755 2720 4800 2669 4800 
C 2637 4800 2579 4800 2528 4659 
L 384 -1364 
C 384 -1370 346 -1466 346 -1479 
C 346 -1556 410 -1600 461 -1600 
C 499 -1600 557 -1594 602 -1460 
L 2746 4563 
z
" id="CMMI12-3d" transform="scale(0.015625)"/>
        <path d="M 2669 990 
L 2554 990 
C 2490 537 2438 460 2413 422 
C 2381 371 1920 371 1830 371 
L 602 371 
C 832 620 1280 1073 1824 1596 
C 2214 1966 2669 2400 2669 3033 
C 2669 3788 2067 4224 1395 4224 
C 691 4224 262 3603 262 3027 
C 262 2777 448 2745 525 2745 
C 589 2745 781 2783 781 3007 
C 781 3206 614 3264 525 3264 
C 486 3264 448 3257 422 3244 
C 544 3788 915 4057 1306 4057 
C 1862 4057 2227 3616 2227 3033 
C 2227 2477 1901 1998 1536 1583 
L 262 147 
L 262 0 
L 2515 0 
L 2669 990 
z
" id="CMR17-32" transform="scale(0.015625)"/>
       </defs>
       <use transform="scale(0.996264)" xlink:href="#CMMI12-74"/>
       <use transform="translate(35.22633 -14.943915)scale(0.697382)" xlink:href="#CMR17-30"/>
       <use transform="translate(89.846851 0)scale(0.996264)" xlink:href="#CMSY10-0"/>
       <use transform="translate(189.473526 0)scale(0.996264)" xlink:href="#CMMI12-54"/>
       <use transform="translate(257.48744 0)scale(0.996264)" xlink:href="#CMMI12-3d"/>
       <use transform="translate(306.262359 0)scale(0.996264)" xlink:href="#CMR17-32"/>
      </g>
     </g>
    </g>
    <g id="xtick_6">
     <g id="line2d_11">
      <path clip-path="url(#p9f9d2437b6)" d="M 317.000686 135.105882 
L 317.000686 7.2 
" style="fill:none;stroke:#b0b0b0;stroke-linecap:square;stroke-width:0.8;"/>
     </g>
     <g id="line2d_12">
      <g>
       <use style="stroke:#000000;stroke-width:0.8;" x="317.000686" xlink:href="#m56d17aaa02" y="135.105882"/>
      </g>
     </g>
    </g>
    <g id="xtick_7">
     <g id="line2d_13">
      <path clip-path="url(#p9f9d2437b6)" d="M 367.727959 135.105882 
L 367.727959 7.2 
" style="fill:none;stroke:#b0b0b0;stroke-linecap:square;stroke-width:0.8;"/>
     </g>
     <g id="line2d_14">
      <g>
       <use style="stroke:#000000;stroke-width:0.8;" x="367.727959" xlink:href="#m56d17aaa02" y="135.105882"/>
      </g>
     </g>
    </g>
    <g id="xtick_8">
     <g id="line2d_15">
      <path clip-path="url(#p9f9d2437b6)" d="M 418.455232 135.105882 
L 418.455232 7.2 
" style="fill:none;stroke:#b0b0b0;stroke-linecap:square;stroke-width:0.8;"/>
     </g>
     <g id="line2d_16">
      <g>
       <use style="stroke:#000000;stroke-width:0.8;" x="418.455232" xlink:href="#m56d17aaa02" y="135.105882"/>
      </g>
     </g>
    </g>
    <g id="xtick_9">
     <g id="line2d_17">
      <path clip-path="url(#p9f9d2437b6)" d="M 469.182505 135.105882 
L 469.182505 7.2 
" style="fill:none;stroke:#b0b0b0;stroke-linecap:square;stroke-width:0.8;"/>
     </g>
     <g id="line2d_18">
      <g>
       <use style="stroke:#000000;stroke-width:0.8;" x="469.182505" xlink:href="#m56d17aaa02" y="135.105882"/>
      </g>
     </g>
     <g id="text_2">
      <!-- $t_0+T/2$ -->
      <g transform="translate(447.559953 151.072258)scale(0.12 -0.12)">
       <defs>
        <path d="M 2413 1472 
L 4109 1472 
C 4198 1472 4307 1472 4307 1580 
C 4307 1696 4205 1696 4109 1696 
L 2413 1696 
L 2413 3385 
C 2413 3475 2413 3584 2304 3584 
C 2189 3584 2189 3481 2189 3385 
L 2189 1696 
L 493 1696 
C 403 1696 294 1696 294 1587 
C 294 1472 397 1472 493 1472 
L 2189 1472 
L 2189 -194 
C 2189 -282 2189 -391 2298 -391 
C 2413 -391 2413 -289 2413 -194 
L 2413 1472 
z
" id="CMR17-2b" transform="scale(0.015625)"/>
       </defs>
       <use transform="scale(0.996264)" xlink:href="#CMMI12-74"/>
       <use transform="translate(35.22633 -14.943915)scale(0.697382)" xlink:href="#CMR17-30"/>
       <use transform="translate(89.846851 0)scale(0.996264)" xlink:href="#CMR17-2b"/>
       <use transform="translate(183.700847 0)scale(0.996264)" xlink:href="#CMMI12-54"/>
       <use transform="translate(251.714761 0)scale(0.996264)" xlink:href="#CMMI12-3d"/>
       <use transform="translate(300.48968 0)scale(0.996264)" xlink:href="#CMR17-32"/>
      </g>
     </g>
    </g>
    <g id="xtick_10">
     <g id="line2d_19">
      <path clip-path="url(#p9f9d2437b6)" d="M 519.909777 135.105882 
L 519.909777 7.2 
" style="fill:none;stroke:#b0b0b0;stroke-linecap:square;stroke-width:0.8;"/>
     </g>
     <g id="line2d_20">
      <g>
       <use style="stroke:#000000;stroke-width:0.8;" x="519.909777" xlink:href="#m56d17aaa02" y="135.105882"/>
      </g>
     </g>
    </g>
    <g id="xtick_11">
     <g id="line2d_21">
      <path clip-path="url(#p9f9d2437b6)" d="M 570.63705 135.105882 
L 570.63705 7.2 
" style="fill:none;stroke:#b0b0b0;stroke-linecap:square;stroke-width:0.8;"/>
     </g>
     <g id="line2d_22">
      <g>
       <use style="stroke:#000000;stroke-width:0.8;" x="570.63705" xlink:href="#m56d17aaa02" y="135.105882"/>
      </g>
     </g>
    </g>
   </g>
   <g id="matplotlib.axis_2">
    <g id="ytick_1">
     <g id="line2d_23">
      <path clip-path="url(#p9f9d2437b6)" d="M 38.000686 131.117 
L 596.000686 131.117 
" style="fill:none;stroke:#b0b0b0;stroke-linecap:square;stroke-width:0.8;"/>
     </g>
     <g id="line2d_24">
      <defs>
       <path d="M 0 0 
L -3.5 0 
" id="mf5697773f4" style="stroke:#000000;stroke-width:0.8;"/>
      </defs>
      <g>
       <use style="stroke:#000000;stroke-width:0.8;" x="38.000686" xlink:href="#mf5697773f4" y="131.117"/>
      </g>
     </g>
     <g id="text_3">
      <!-- $\mathdefault{0}$ -->
      <g transform="translate(25.147696 135.26809)scale(0.12 -0.12)">
       <use transform="scale(0.996264)" xlink:href="#CMR17-30"/>
      </g>
     </g>
    </g>
    <g id="ytick_2">
     <g id="line2d_25">
      <path clip-path="url(#p9f9d2437b6)" d="M 38.000686 80.389728 
L 596.000686 80.389728 
" style="fill:none;stroke:#b0b0b0;stroke-linecap:square;stroke-width:0.8;"/>
     </g>
     <g id="line2d_26">
      <g>
       <use style="stroke:#000000;stroke-width:0.8;" x="38.000686" xlink:href="#mf5697773f4" y="80.389728"/>
      </g>
     </g>
     <g id="text_4">
      <!-- $\mathdefault{1}$ -->
      <g transform="translate(25.147696 84.540818)scale(0.12 -0.12)">
       <defs>
        <path d="M 1702 4083 
C 1702 4217 1696 4224 1606 4224 
C 1357 3927 979 3833 621 3820 
C 602 3820 570 3820 563 3808 
C 557 3795 557 3782 557 3648 
C 755 3648 1088 3686 1344 3839 
L 1344 467 
C 1344 243 1331 166 781 166 
L 589 166 
L 589 0 
C 896 6 1216 12 1523 12 
C 1830 12 2150 6 2458 0 
L 2458 166 
L 2266 166 
C 1715 166 1702 236 1702 467 
L 1702 4083 
z
" id="CMR17-31" transform="scale(0.015625)"/>
       </defs>
       <use transform="scale(0.996264)" xlink:href="#CMR17-31"/>
      </g>
     </g>
    </g>
    <g id="ytick_3">
     <g id="line2d_27">
      <path clip-path="url(#p9f9d2437b6)" d="M 38.000686 29.662455 
L 596.000686 29.662455 
" style="fill:none;stroke:#b0b0b0;stroke-linecap:square;stroke-width:0.8;"/>
     </g>
     <g id="line2d_28">
      <g>
       <use style="stroke:#000000;stroke-width:0.8;" x="38.000686" xlink:href="#mf5697773f4" y="29.662455"/>
      </g>
     </g>
     <g id="text_5">
      <!-- $\mathdefault{2}$ -->
      <g transform="translate(25.147696 33.813545)scale(0.12 -0.12)">
       <use transform="scale(0.996264)" xlink:href="#CMR17-32"/>
      </g>
     </g>
    </g>
    <g id="text_6">
     <!-- $x(t)$ -->
     <g transform="translate(17.660772 82.810215)rotate(-90)scale(0.14 -0.14)">
      <defs>
       <path d="M 3034 2624 
C 2829 2585 2752 2431 2752 2310 
C 2752 2156 2874 2105 2963 2105 
C 3155 2105 3290 2271 3290 2444 
C 3290 2694 2982 2816 2714 2816 
C 2323 2816 2106 2451 2048 2329 
C 1901 2790 1504 2816 1389 2816 
C 736 2816 390 1993 390 1849 
C 390 1823 416 1790 461 1790 
C 512 1790 525 1829 538 1855 
C 755 2572 1184 2687 1370 2687 
C 1658 2687 1715 2438 1715 2284 
C 1715 2143 1677 1993 1600 1678 
L 1382 778 
C 1286 390 1101 64 762 64 
C 730 64 570 64 435 126 
C 666 166 717 358 717 435 
C 717 563 621 640 499 640 
C 346 640 179 505 179 300 
C 179 57 480 -64 755 -64 
C 1062 -64 1280 153 1414 415 
C 1517 64 1837 -64 2074 -64 
C 2726 -64 3072 751 3072 896 
C 3072 929 3046 955 3008 955 
C 2950 955 2944 922 2925 870 
C 2752 300 2381 64 2093 64 
C 1869 64 1747 204 1747 467 
C 1747 607 1773 712 1875 1146 
L 2099 2039 
C 2195 2425 2413 2687 2707 2687 
C 2720 2687 2899 2687 3034 2624 
z
" id="CMMI12-78" transform="scale(0.015625)"/>
       <path d="M 1958 -1562 
C 1958 -1556 1958 -1543 1939 -1524 
C 1645 -1223 858 -403 858 1596 
C 858 3595 1632 4408 1946 4729 
C 1946 4735 1958 4748 1958 4767 
C 1958 4787 1939 4800 1914 4800 
C 1843 4800 1299 4325 986 3620 
C 666 2909 576 2218 576 1603 
C 576 1141 621 360 1005 -467 
C 1312 -1133 1837 -1600 1914 -1600 
C 1946 -1600 1958 -1588 1958 -1562 
z
" id="CMR17-28" transform="scale(0.015625)"/>
       <path d="M 1683 1596 
C 1683 2057 1638 2839 1254 3665 
C 947 4332 422 4800 346 4800 
C 326 4800 301 4793 301 4761 
C 301 4748 307 4742 314 4729 
C 621 4408 1402 3595 1402 1603 
C 1402 -396 627 -1210 314 -1530 
C 307 -1543 301 -1549 301 -1562 
C 301 -1594 326 -1600 346 -1600 
C 416 -1600 960 -1127 1274 -422 
C 1594 289 1683 981 1683 1596 
z
" id="CMR17-29" transform="scale(0.015625)"/>
      </defs>
      <use transform="scale(0.996264)" xlink:href="#CMMI12-78"/>
      <use transform="translate(55.43406 0)scale(0.996264)" xlink:href="#CMR17-28"/>
      <use transform="translate(90.714827 0)scale(0.996264)" xlink:href="#CMMI12-74"/>
      <use transform="translate(125.941158 0)scale(0.996264)" xlink:href="#CMR17-29"/>
     </g>
    </g>
   </g>
   <g id="line2d_29">
    <path clip-path="url(#p9f9d2437b6)" d="M 63.364323 25.097865 
L 67.505324 25.433893 
L 71.646324 25.926146 
L 75.787325 26.539427 
L 79.928326 27.236585 
L 84.069327 27.979643 
L 88.210328 28.730937 
L 92.351328 29.454252 
L 96.492329 30.115905 
L 100.63333 30.685757 
L 104.774331 31.138127 
L 108.915332 31.45257 
L 113.056333 31.614522 
L 117.197333 31.615768 
L 121.338334 31.454737 
L 125.479335 31.136615 
L 129.620336 30.673262 
L 133.761337 30.082946 
L 137.902338 29.389895 
L 142.043338 28.623682 
L 146.184339 27.818458 
L 150.32534 27.012049 
L 154.466341 26.244949 
L 158.607342 25.559232 
L 162.748342 24.997407 
L 166.889343 24.601257 
L 171.030344 24.410681 
L 175.171345 24.462585 
L 179.312346 24.789832 
L 183.453347 25.420297 
L 187.594347 26.376046 
L 191.735348 27.672657 
L 195.876349 29.318707 
L 200.01735 31.315434 
L 204.158351 33.656595 
L 208.299351 36.328505 
L 212.440352 39.310272 
L 216.581353 42.574224 
L 220.722354 46.086495 
L 224.863355 49.807789 
L 229.004356 53.694269 
L 233.145356 57.698572 
L 237.286357 61.770911 
L 241.427358 65.860238 
L 245.568359 69.915444 
L 249.70936 73.886552 
L 253.85036 77.725885 
L 257.991361 81.389168 
L 262.132362 84.836548 
L 266.273363 88.03349 
L 266.273464 88.033565 
L 270.414464 90.951604 
L 274.555464 93.56897 
L 278.696464 95.870992 
L 282.837464 97.850346 
L 286.978463 99.507107 
L 291.119463 100.84861 
L 295.260463 101.889119 
L 299.401463 102.649324 
L 303.542462 103.155669 
L 307.683462 103.439538 
L 311.824462 103.536319 
L 315.965462 103.484359 
L 320.106462 103.323866 
L 324.247461 103.095754 
L 328.388461 102.84049 
L 332.529461 102.596955 
L 336.670461 102.401364 
L 340.811461 102.286261 
L 344.95246 102.279621 
L 349.09346 102.404093 
L 353.23446 102.676383 
L 357.37546 103.106813 
L 361.516459 103.699058 
L 365.657459 104.45007 
L 369.798459 105.350189 
L 373.939459 106.383446 
L 378.080459 107.528034 
L 382.221458 108.756953 
L 386.362458 110.038794 
L 390.503458 111.338659 
L 394.644458 112.619172 
L 398.785458 113.841569 
L 402.926457 114.966836 
L 407.067457 115.956855 
L 411.208457 116.775533 
L 415.349457 117.38989 
L 419.490456 117.771061 
L 423.631456 117.895201 
L 427.772456 117.744258 
L 431.913456 117.306593 
L 436.054456 116.577439 
L 440.195455 115.559175 
L 444.336455 114.261413 
L 448.477455 112.700893 
L 452.618455 110.901195 
L 456.759454 108.892258 
L 460.900454 106.70974 
L 465.041454 104.39422 
L 469.182454 101.990262 
L 469.182555 101.990203 
L 474.522266 98.83696 
L 479.861976 95.721792 
L 485.201686 92.751494 
L 490.541396 90.029463 
L 495.881107 87.651572 
L 501.220817 85.702357 
L 506.560527 84.251665 
L 511.900237 83.351914 
L 517.239948 83.0361 
L 522.579658 83.316603 
L 527.919368 84.184881 
L 533.259078 85.612029 
L 538.598789 87.550204 
L 543.938499 89.934835 
L 549.278209 92.687528 
L 554.617919 95.719533 
L 559.95763 98.935621 
L 565.29734 102.238204 
L 570.63705 105.531508 
" style="fill:none;stroke:#1f77b4;stroke-linecap:square;stroke-width:1.5;"/>
   </g>
   <g id="patch_3">
    <path d="M 38.000686 135.105882 
L 38.000686 7.2 
" style="fill:none;stroke:#000000;stroke-linecap:square;stroke-linejoin:miter;stroke-width:0.8;"/>
   </g>
   <g id="patch_4">
    <path d="M 596.000686 135.105882 
L 596.000686 7.2 
" style="fill:none;stroke:#000000;stroke-linecap:square;stroke-linejoin:miter;stroke-width:0.8;"/>
   </g>
   <g id="patch_5">
    <path d="M 38.000686 135.105882 
L 596.000686 135.105882 
" style="fill:none;stroke:#000000;stroke-linecap:square;stroke-linejoin:miter;stroke-width:0.8;"/>
   </g>
   <g id="patch_6">
    <path d="M 38.000686 7.2 
L 596.000686 7.2 
" style="fill:none;stroke:#000000;stroke-linecap:square;stroke-linejoin:miter;stroke-width:0.8;"/>
   </g>
  </g>
  <g id="axes_2">
   <g id="patch_7">
    <path d="M 38.000686 288.592941 
L 596.000686 288.592941 
L 596.000686 160.687059 
L 38.000686 160.687059 
z
" style="fill:#ffffff;"/>
   </g>
   <g id="matplotlib.axis_3">
    <g id="xtick_12">
     <g id="line2d_30">
      <path clip-path="url(#p29459520ad)" d="M 63.364323 288.592941 
L 63.364323 160.687059 
" style="fill:none;stroke:#b0b0b0;stroke-linecap:square;stroke-width:0.8;"/>
     </g>
     <g id="line2d_31">
      <g>
       <use style="stroke:#000000;stroke-width:0.8;" x="63.364323" xlink:href="#m56d17aaa02" y="288.592941"/>
      </g>
     </g>
    </g>
    <g id="xtick_13">
     <g id="line2d_32">
      <path clip-path="url(#p29459520ad)" d="M 114.091595 288.592941 
L 114.091595 160.687059 
" style="fill:none;stroke:#b0b0b0;stroke-linecap:square;stroke-width:0.8;"/>
     </g>
     <g id="line2d_33">
      <g>
       <use style="stroke:#000000;stroke-width:0.8;" x="114.091595" xlink:href="#m56d17aaa02" y="288.592941"/>
      </g>
     </g>
    </g>
    <g id="xtick_14">
     <g id="line2d_34">
      <path clip-path="url(#p29459520ad)" d="M 164.818868 288.592941 
L 164.818868 160.687059 
" style="fill:none;stroke:#b0b0b0;stroke-linecap:square;stroke-width:0.8;"/>
     </g>
     <g id="line2d_35">
      <g>
       <use style="stroke:#000000;stroke-width:0.8;" x="164.818868" xlink:href="#m56d17aaa02" y="288.592941"/>
      </g>
     </g>
    </g>
    <g id="xtick_15">
     <g id="line2d_36">
      <path clip-path="url(#p29459520ad)" d="M 215.546141 288.592941 
L 215.546141 160.687059 
" style="fill:none;stroke:#b0b0b0;stroke-linecap:square;stroke-width:0.8;"/>
     </g>
     <g id="line2d_37">
      <g>
       <use style="stroke:#000000;stroke-width:0.8;" x="215.546141" xlink:href="#m56d17aaa02" y="288.592941"/>
      </g>
     </g>
    </g>
    <g id="xtick_16">
     <g id="line2d_38">
      <path clip-path="url(#p29459520ad)" d="M 266.273414 288.592941 
L 266.273414 160.687059 
" style="fill:none;stroke:#b0b0b0;stroke-linecap:square;stroke-width:0.8;"/>
     </g>
     <g id="line2d_39">
      <g>
       <use style="stroke:#000000;stroke-width:0.8;" x="266.273414" xlink:href="#m56d17aaa02" y="288.592941"/>
      </g>
     </g>
     <g id="text_7">
      <!-- $t_0-T/2$ -->
      <g transform="translate(244.553943 304.559317)scale(0.12 -0.12)">
       <use transform="scale(0.996264)" xlink:href="#CMMI12-74"/>
       <use transform="translate(35.22633 -14.943915)scale(0.697382)" xlink:href="#CMR17-30"/>
       <use transform="translate(89.846851 0)scale(0.996264)" xlink:href="#CMSY10-0"/>
       <use transform="translate(189.473526 0)scale(0.996264)" xlink:href="#CMMI12-54"/>
       <use transform="translate(257.48744 0)scale(0.996264)" xlink:href="#CMMI12-3d"/>
       <use transform="translate(306.262359 0)scale(0.996264)" xlink:href="#CMR17-32"/>
      </g>
     </g>
    </g>
    <g id="xtick_17">
     <g id="line2d_40">
      <path clip-path="url(#p29459520ad)" d="M 317.000686 288.592941 
L 317.000686 160.687059 
" style="fill:none;stroke:#b0b0b0;stroke-linecap:square;stroke-width:0.8;"/>
     </g>
     <g id="line2d_41">
      <g>
       <use style="stroke:#000000;stroke-width:0.8;" x="317.000686" xlink:href="#m56d17aaa02" y="288.592941"/>
      </g>
     </g>
    </g>
    <g id="xtick_18">
     <g id="line2d_42">
      <path clip-path="url(#p29459520ad)" d="M 367.727959 288.592941 
L 367.727959 160.687059 
" style="fill:none;stroke:#b0b0b0;stroke-linecap:square;stroke-width:0.8;"/>
     </g>
     <g id="line2d_43">
      <g>
       <use style="stroke:#000000;stroke-width:0.8;" x="367.727959" xlink:href="#m56d17aaa02" y="288.592941"/>
      </g>
     </g>
    </g>
    <g id="xtick_19">
     <g id="line2d_44">
      <path clip-path="url(#p29459520ad)" d="M 418.455232 288.592941 
L 418.455232 160.687059 
" style="fill:none;stroke:#b0b0b0;stroke-linecap:square;stroke-width:0.8;"/>
     </g>
     <g id="line2d_45">
      <g>
       <use style="stroke:#000000;stroke-width:0.8;" x="418.455232" xlink:href="#m56d17aaa02" y="288.592941"/>
      </g>
     </g>
    </g>
    <g id="xtick_20">
     <g id="line2d_46">
      <path clip-path="url(#p29459520ad)" d="M 469.182505 288.592941 
L 469.182505 160.687059 
" style="fill:none;stroke:#b0b0b0;stroke-linecap:square;stroke-width:0.8;"/>
     </g>
     <g id="line2d_47">
      <g>
       <use style="stroke:#000000;stroke-width:0.8;" x="469.182505" xlink:href="#m56d17aaa02" y="288.592941"/>
      </g>
     </g>
     <g id="text_8">
      <!-- $t_0+T/2$ -->
      <g transform="translate(447.559953 304.559317)scale(0.12 -0.12)">
       <use transform="scale(0.996264)" xlink:href="#CMMI12-74"/>
       <use transform="translate(35.22633 -14.943915)scale(0.697382)" xlink:href="#CMR17-30"/>
       <use transform="translate(89.846851 0)scale(0.996264)" xlink:href="#CMR17-2b"/>
       <use transform="translate(183.700847 0)scale(0.996264)" xlink:href="#CMMI12-54"/>
       <use transform="translate(251.714761 0)scale(0.996264)" xlink:href="#CMMI12-3d"/>
       <use transform="translate(300.48968 0)scale(0.996264)" xlink:href="#CMR17-32"/>
      </g>
     </g>
    </g>
    <g id="xtick_21">
     <g id="line2d_48">
      <path clip-path="url(#p29459520ad)" d="M 519.909777 288.592941 
L 519.909777 160.687059 
" style="fill:none;stroke:#b0b0b0;stroke-linecap:square;stroke-width:0.8;"/>
     </g>
     <g id="line2d_49">
      <g>
       <use style="stroke:#000000;stroke-width:0.8;" x="519.909777" xlink:href="#m56d17aaa02" y="288.592941"/>
      </g>
     </g>
    </g>
    <g id="xtick_22">
     <g id="line2d_50">
      <path clip-path="url(#p29459520ad)" d="M 570.63705 288.592941 
L 570.63705 160.687059 
" style="fill:none;stroke:#b0b0b0;stroke-linecap:square;stroke-width:0.8;"/>
     </g>
     <g id="line2d_51">
      <g>
       <use style="stroke:#000000;stroke-width:0.8;" x="570.63705" xlink:href="#m56d17aaa02" y="288.592941"/>
      </g>
     </g>
    </g>
   </g>
   <g id="matplotlib.axis_4">
    <g id="ytick_4">
     <g id="line2d_52">
      <path clip-path="url(#p29459520ad)" d="M 38.000686 250.003636 
L 596.000686 250.003636 
" style="fill:none;stroke:#b0b0b0;stroke-linecap:square;stroke-width:0.8;"/>
     </g>
     <g id="line2d_53">
      <g>
       <use style="stroke:#000000;stroke-width:0.8;" x="38.000686" xlink:href="#mf5697773f4" y="250.003636"/>
      </g>
     </g>
     <g id="text_9">
      <!-- $\mathdefault{0}$ -->
      <g transform="translate(25.147696 254.154726)scale(0.12 -0.12)">
       <use transform="scale(0.996264)" xlink:href="#CMR17-30"/>
      </g>
     </g>
    </g>
    <g id="ytick_5">
     <g id="line2d_54">
      <path clip-path="url(#p29459520ad)" d="M 38.000686 199.276364 
L 596.000686 199.276364 
" style="fill:none;stroke:#b0b0b0;stroke-linecap:square;stroke-width:0.8;"/>
     </g>
     <g id="line2d_55">
      <g>
       <use style="stroke:#000000;stroke-width:0.8;" x="38.000686" xlink:href="#mf5697773f4" y="199.276364"/>
      </g>
     </g>
     <g id="text_10">
      <!-- $\mathdefault{1}$ -->
      <g transform="translate(25.147696 203.427454)scale(0.12 -0.12)">
       <use transform="scale(0.996264)" xlink:href="#CMR17-31"/>
      </g>
     </g>
    </g>
    <g id="text_11">
     <!-- $\mathrm{rect}((t-t_0)/T)$ -->
     <g transform="translate(17.660772 271.220747)rotate(-90)scale(0.14 -0.14)">
      <defs>
       <path d="M 960 1517 
C 960 2134 1222 2713 1702 2713 
C 1747 2713 1792 2707 1837 2687 
C 1837 2687 1696 2642 1696 2475 
C 1696 2321 1818 2257 1914 2257 
C 1990 2257 2131 2302 2131 2482 
C 2131 2687 1926 2816 1709 2816 
C 1222 2816 1011 2340 947 2115 
L 941 2115 
L 941 2816 
L 198 2745 
L 198 2578 
C 576 2578 634 2540 634 2231 
L 634 443 
C 634 198 608 166 198 166 
L 198 0 
C 352 12 646 12 813 12 
C 998 12 1325 12 1498 0 
L 1498 166 
C 1037 166 960 166 960 455 
L 960 1517 
z
" id="CMR17-72" transform="scale(0.015625)"/>
       <path d="M 2438 1503 
C 2464 1529 2464 1542 2464 1606 
C 2464 2251 2118 2816 1389 2816 
C 710 2816 173 2175 173 1394 
C 173 554 781 -64 1459 -64 
C 2176 -64 2458 619 2458 755 
C 2458 800 2419 800 2406 800 
C 2362 800 2355 787 2330 709 
C 2189 270 1837 51 1504 51 
C 1229 51 954 206 781 490 
C 582 819 582 1200 582 1503 
L 2438 1503 
z
M 589 1600 
C 634 2511 1126 2713 1382 2713 
C 1818 2713 2112 2308 2118 1600 
L 589 1600 
z
" id="CMR17-65" transform="scale(0.015625)"/>
       <path d="M 2234 2240 
C 2112 2240 1933 2240 1933 2015 
C 1933 1836 2080 1785 2163 1785 
C 2208 1785 2394 1804 2394 2028 
C 2394 2476 1958 2816 1466 2816 
C 787 2816 211 2201 211 1379 
C 211 521 813 -64 1466 -64 
C 2259 -64 2458 676 2458 747 
C 2458 773 2451 792 2406 792 
C 2362 792 2355 786 2330 702 
C 2163 180 1798 51 1523 51 
C 1114 51 621 431 621 1385 
C 621 2358 1094 2700 1472 2700 
C 1722 2700 2093 2582 2234 2240 
z
" id="CMR17-63" transform="scale(0.015625)"/>
       <path d="M 966 2585 
L 1862 2585 
L 1862 2752 
L 966 2752 
L 966 3968 
L 851 3968 
C 838 3292 614 2700 70 2687 
L 70 2585 
L 627 2585 
L 627 778 
C 627 655 627 -64 1370 -64 
C 1747 -64 1965 308 1965 784 
L 1965 1151 
L 1850 1151 
L 1850 790 
C 1850 347 1677 51 1408 51 
C 1222 51 966 179 966 765 
L 966 2585 
z
" id="CMR17-74" transform="scale(0.015625)"/>
      </defs>
      <use transform="scale(0.996264)" xlink:href="#CMR17-72"/>
      <use transform="translate(35.280768 0)scale(0.996264)" xlink:href="#CMR17-65"/>
      <use transform="translate(75.766428 0)scale(0.996264)" xlink:href="#CMR17-63"/>
      <use transform="translate(116.252089 0)scale(0.996264)" xlink:href="#CMR17-74"/>
      <use transform="translate(151.532857 0)scale(0.996264)" xlink:href="#CMR17-28"/>
      <use transform="translate(186.813624 0)scale(0.996264)" xlink:href="#CMR17-28"/>
      <use transform="translate(222.094392 0)scale(0.996264)" xlink:href="#CMMI12-74"/>
      <use transform="translate(279.459929 0)scale(0.996264)" xlink:href="#CMSY10-0"/>
      <use transform="translate(379.086604 0)scale(0.996264)" xlink:href="#CMMI12-74"/>
      <use transform="translate(414.312934 -14.943915)scale(0.697382)" xlink:href="#CMR17-30"/>
      <use transform="translate(446.794248 0)scale(0.996264)" xlink:href="#CMR17-29"/>
      <use transform="translate(482.075016 0)scale(0.996264)" xlink:href="#CMMI12-3d"/>
      <use transform="translate(530.849935 0)scale(0.996264)" xlink:href="#CMMI12-54"/>
      <use transform="translate(601.573567 0)scale(0.996264)" xlink:href="#CMR17-29"/>
     </g>
    </g>
   </g>
   <g id="line2d_56">
    <path clip-path="url(#p29459520ad)" d="M 63.364323 250.003636 
L 67.505324 250.003636 
L 71.646324 250.003636 
L 75.787325 250.003636 
L 79.928326 250.003636 
L 84.069327 250.003636 
L 88.210328 250.003636 
L 92.351328 250.003636 
L 96.492329 250.003636 
L 100.63333 250.003636 
L 104.774331 250.003636 
L 108.915332 250.003636 
L 113.056333 250.003636 
L 117.197333 250.003636 
L 121.338334 250.003636 
L 125.479335 250.003636 
L 129.620336 250.003636 
L 133.761337 250.003636 
L 137.902338 250.003636 
L 142.043338 250.003636 
L 146.184339 250.003636 
L 150.32534 250.003636 
L 154.466341 250.003636 
L 158.607342 250.003636 
L 162.748342 250.003636 
L 166.889343 250.003636 
L 171.030344 250.003636 
L 175.171345 250.003636 
L 179.312346 250.003636 
L 183.453347 250.003636 
L 187.594347 250.003636 
L 191.735348 250.003636 
L 195.876349 250.003636 
L 200.01735 250.003636 
L 204.158351 250.003636 
L 208.299351 250.003636 
L 212.440352 250.003636 
L 216.581353 250.003636 
L 220.722354 250.003636 
L 224.863355 250.003636 
L 229.004356 250.003636 
L 233.145356 250.003636 
L 237.286357 250.003636 
L 241.427358 250.003636 
L 245.568359 250.003636 
L 249.70936 250.003636 
L 253.85036 250.003636 
L 257.991361 250.003636 
L 262.132362 250.003636 
L 266.273363 250.003636 
L 266.273464 199.276364 
L 270.414464 199.276364 
L 274.555464 199.276364 
L 278.696464 199.276364 
L 282.837464 199.276364 
L 286.978463 199.276364 
L 291.119463 199.276364 
L 295.260463 199.276364 
L 299.401463 199.276364 
L 303.542462 199.276364 
L 307.683462 199.276364 
L 311.824462 199.276364 
L 315.965462 199.276364 
L 320.106462 199.276364 
L 324.247461 199.276364 
L 328.388461 199.276364 
L 332.529461 199.276364 
L 336.670461 199.276364 
L 340.811461 199.276364 
L 344.95246 199.276364 
L 349.09346 199.276364 
L 353.23446 199.276364 
L 357.37546 199.276364 
L 361.516459 199.276364 
L 365.657459 199.276364 
L 369.798459 199.276364 
L 373.939459 199.276364 
L 378.080459 199.276364 
L 382.221458 199.276364 
L 386.362458 199.276364 
L 390.503458 199.276364 
L 394.644458 199.276364 
L 398.785458 199.276364 
L 402.926457 199.276364 
L 407.067457 199.276364 
L 411.208457 199.276364 
L 415.349457 199.276364 
L 419.490456 199.276364 
L 423.631456 199.276364 
L 427.772456 199.276364 
L 431.913456 199.276364 
L 436.054456 199.276364 
L 440.195455 199.276364 
L 444.336455 199.276364 
L 448.477455 199.276364 
L 452.618455 199.276364 
L 456.759454 199.276364 
L 460.900454 199.276364 
L 465.041454 199.276364 
L 469.182454 199.276364 
L 469.182555 250.003636 
L 474.522266 250.003636 
L 479.861976 250.003636 
L 485.201686 250.003636 
L 490.541396 250.003636 
L 495.881107 250.003636 
L 501.220817 250.003636 
L 506.560527 250.003636 
L 511.900237 250.003636 
L 517.239948 250.003636 
L 522.579658 250.003636 
L 527.919368 250.003636 
L 533.259078 250.003636 
L 538.598789 250.003636 
L 543.938499 250.003636 
L 549.278209 250.003636 
L 554.617919 250.003636 
L 559.95763 250.003636 
L 565.29734 250.003636 
L 570.63705 250.003636 
" style="fill:none;stroke:#1f77b4;stroke-linecap:square;stroke-width:1.5;"/>
   </g>
   <g id="patch_8">
    <path d="M 38.000686 288.592941 
L 38.000686 160.687059 
" style="fill:none;stroke:#000000;stroke-linecap:square;stroke-linejoin:miter;stroke-width:0.8;"/>
   </g>
   <g id="patch_9">
    <path d="M 596.000686 288.592941 
L 596.000686 160.687059 
" style="fill:none;stroke:#000000;stroke-linecap:square;stroke-linejoin:miter;stroke-width:0.8;"/>
   </g>
   <g id="patch_10">
    <path d="M 38.000686 288.592941 
L 596.000686 288.592941 
" style="fill:none;stroke:#000000;stroke-linecap:square;stroke-linejoin:miter;stroke-width:0.8;"/>
   </g>
   <g id="patch_11">
    <path d="M 38.000686 160.687059 
L 596.000686 160.687059 
" style="fill:none;stroke:#000000;stroke-linecap:square;stroke-linejoin:miter;stroke-width:0.8;"/>
   </g>
  </g>
  <g id="axes_3">
   <g id="patch_12">
    <path d="M 38.000686 442.08 
L 596.000686 442.08 
L 596.000686 314.174118 
L 38.000686 314.174118 
z
" style="fill:#ffffff;"/>
   </g>
   <g id="matplotlib.axis_5">
    <g id="xtick_23">
     <g id="line2d_57">
      <path clip-path="url(#p231b970c23)" d="M 63.364323 442.08 
L 63.364323 314.174118 
" style="fill:none;stroke:#b0b0b0;stroke-linecap:square;stroke-width:0.8;"/>
     </g>
     <g id="line2d_58">
      <g>
       <use style="stroke:#000000;stroke-width:0.8;" x="63.364323" xlink:href="#m56d17aaa02" y="442.08"/>
      </g>
     </g>
    </g>
    <g id="xtick_24">
     <g id="line2d_59">
      <path clip-path="url(#p231b970c23)" d="M 114.091595 442.08 
L 114.091595 314.174118 
" style="fill:none;stroke:#b0b0b0;stroke-linecap:square;stroke-width:0.8;"/>
     </g>
     <g id="line2d_60">
      <g>
       <use style="stroke:#000000;stroke-width:0.8;" x="114.091595" xlink:href="#m56d17aaa02" y="442.08"/>
      </g>
     </g>
    </g>
    <g id="xtick_25">
     <g id="line2d_61">
      <path clip-path="url(#p231b970c23)" d="M 164.818868 442.08 
L 164.818868 314.174118 
" style="fill:none;stroke:#b0b0b0;stroke-linecap:square;stroke-width:0.8;"/>
     </g>
     <g id="line2d_62">
      <g>
       <use style="stroke:#000000;stroke-width:0.8;" x="164.818868" xlink:href="#m56d17aaa02" y="442.08"/>
      </g>
     </g>
    </g>
    <g id="xtick_26">
     <g id="line2d_63">
      <path clip-path="url(#p231b970c23)" d="M 215.546141 442.08 
L 215.546141 314.174118 
" style="fill:none;stroke:#b0b0b0;stroke-linecap:square;stroke-width:0.8;"/>
     </g>
     <g id="line2d_64">
      <g>
       <use style="stroke:#000000;stroke-width:0.8;" x="215.546141" xlink:href="#m56d17aaa02" y="442.08"/>
      </g>
     </g>
    </g>
    <g id="xtick_27">
     <g id="line2d_65">
      <path clip-path="url(#p231b970c23)" d="M 266.273414 442.08 
L 266.273414 314.174118 
" style="fill:none;stroke:#b0b0b0;stroke-linecap:square;stroke-width:0.8;"/>
     </g>
     <g id="line2d_66">
      <g>
       <use style="stroke:#000000;stroke-width:0.8;" x="266.273414" xlink:href="#m56d17aaa02" y="442.08"/>
      </g>
     </g>
     <g id="text_12">
      <!-- $t_0-T/2$ -->
      <g transform="translate(244.553943 458.046376)scale(0.12 -0.12)">
       <use transform="scale(0.996264)" xlink:href="#CMMI12-74"/>
       <use transform="translate(35.22633 -14.943915)scale(0.697382)" xlink:href="#CMR17-30"/>
       <use transform="translate(89.846851 0)scale(0.996264)" xlink:href="#CMSY10-0"/>
       <use transform="translate(189.473526 0)scale(0.996264)" xlink:href="#CMMI12-54"/>
       <use transform="translate(257.48744 0)scale(0.996264)" xlink:href="#CMMI12-3d"/>
       <use transform="translate(306.262359 0)scale(0.996264)" xlink:href="#CMR17-32"/>
      </g>
     </g>
    </g>
    <g id="xtick_28">
     <g id="line2d_67">
      <path clip-path="url(#p231b970c23)" d="M 317.000686 442.08 
L 317.000686 314.174118 
" style="fill:none;stroke:#b0b0b0;stroke-linecap:square;stroke-width:0.8;"/>
     </g>
     <g id="line2d_68">
      <g>
       <use style="stroke:#000000;stroke-width:0.8;" x="317.000686" xlink:href="#m56d17aaa02" y="442.08"/>
      </g>
     </g>
    </g>
    <g id="xtick_29">
     <g id="line2d_69">
      <path clip-path="url(#p231b970c23)" d="M 367.727959 442.08 
L 367.727959 314.174118 
" style="fill:none;stroke:#b0b0b0;stroke-linecap:square;stroke-width:0.8;"/>
     </g>
     <g id="line2d_70">
      <g>
       <use style="stroke:#000000;stroke-width:0.8;" x="367.727959" xlink:href="#m56d17aaa02" y="442.08"/>
      </g>
     </g>
    </g>
    <g id="xtick_30">
     <g id="line2d_71">
      <path clip-path="url(#p231b970c23)" d="M 418.455232 442.08 
L 418.455232 314.174118 
" style="fill:none;stroke:#b0b0b0;stroke-linecap:square;stroke-width:0.8;"/>
     </g>
     <g id="line2d_72">
      <g>
       <use style="stroke:#000000;stroke-width:0.8;" x="418.455232" xlink:href="#m56d17aaa02" y="442.08"/>
      </g>
     </g>
    </g>
    <g id="xtick_31">
     <g id="line2d_73">
      <path clip-path="url(#p231b970c23)" d="M 469.182505 442.08 
L 469.182505 314.174118 
" style="fill:none;stroke:#b0b0b0;stroke-linecap:square;stroke-width:0.8;"/>
     </g>
     <g id="line2d_74">
      <g>
       <use style="stroke:#000000;stroke-width:0.8;" x="469.182505" xlink:href="#m56d17aaa02" y="442.08"/>
      </g>
     </g>
     <g id="text_13">
      <!-- $t_0+T/2$ -->
      <g transform="translate(447.559953 458.046376)scale(0.12 -0.12)">
       <use transform="scale(0.996264)" xlink:href="#CMMI12-74"/>
       <use transform="translate(35.22633 -14.943915)scale(0.697382)" xlink:href="#CMR17-30"/>
       <use transform="translate(89.846851 0)scale(0.996264)" xlink:href="#CMR17-2b"/>
       <use transform="translate(183.700847 0)scale(0.996264)" xlink:href="#CMMI12-54"/>
       <use transform="translate(251.714761 0)scale(0.996264)" xlink:href="#CMMI12-3d"/>
       <use transform="translate(300.48968 0)scale(0.996264)" xlink:href="#CMR17-32"/>
      </g>
     </g>
    </g>
    <g id="xtick_32">
     <g id="line2d_75">
      <path clip-path="url(#p231b970c23)" d="M 519.909777 442.08 
L 519.909777 314.174118 
" style="fill:none;stroke:#b0b0b0;stroke-linecap:square;stroke-width:0.8;"/>
     </g>
     <g id="line2d_76">
      <g>
       <use style="stroke:#000000;stroke-width:0.8;" x="519.909777" xlink:href="#m56d17aaa02" y="442.08"/>
      </g>
     </g>
    </g>
    <g id="xtick_33">
     <g id="line2d_77">
      <path clip-path="url(#p231b970c23)" d="M 570.63705 442.08 
L 570.63705 314.174118 
" style="fill:none;stroke:#b0b0b0;stroke-linecap:square;stroke-width:0.8;"/>
     </g>
     <g id="line2d_78">
      <g>
       <use style="stroke:#000000;stroke-width:0.8;" x="570.63705" xlink:href="#m56d17aaa02" y="442.08"/>
      </g>
     </g>
    </g>
    <g id="text_14">
     <!-- $t$ -->
     <g transform="translate(314.534843 474.721045)scale(0.14 -0.14)">
      <use transform="scale(0.996264)" xlink:href="#CMMI12-74"/>
     </g>
    </g>
   </g>
   <g id="matplotlib.axis_6">
    <g id="ytick_6">
     <g id="line2d_79">
      <path clip-path="url(#p231b970c23)" d="M 38.000686 431.480218 
L 596.000686 431.480218 
" style="fill:none;stroke:#b0b0b0;stroke-linecap:square;stroke-width:0.8;"/>
     </g>
     <g id="line2d_80">
      <g>
       <use style="stroke:#000000;stroke-width:0.8;" x="38.000686" xlink:href="#mf5697773f4" y="431.480218"/>
      </g>
     </g>
     <g id="text_15">
      <!-- $\mathdefault{0}$ -->
      <g transform="translate(25.147696 435.631308)scale(0.12 -0.12)">
       <use transform="scale(0.996264)" xlink:href="#CMR17-30"/>
      </g>
     </g>
    </g>
    <g id="ytick_7">
     <g id="line2d_81">
      <path clip-path="url(#p231b970c23)" d="M 38.000686 380.752946 
L 596.000686 380.752946 
" style="fill:none;stroke:#b0b0b0;stroke-linecap:square;stroke-width:0.8;"/>
     </g>
     <g id="line2d_82">
      <g>
       <use style="stroke:#000000;stroke-width:0.8;" x="38.000686" xlink:href="#mf5697773f4" y="380.752946"/>
      </g>
     </g>
     <g id="text_16">
      <!-- $\mathdefault{1}$ -->
      <g transform="translate(25.147696 384.904036)scale(0.12 -0.12)">
       <use transform="scale(0.996264)" xlink:href="#CMR17-31"/>
      </g>
     </g>
    </g>
    <g id="ytick_8">
     <g id="line2d_83">
      <path clip-path="url(#p231b970c23)" d="M 38.000686 330.025673 
L 596.000686 330.025673 
" style="fill:none;stroke:#b0b0b0;stroke-linecap:square;stroke-width:0.8;"/>
     </g>
     <g id="line2d_84">
      <g>
       <use style="stroke:#000000;stroke-width:0.8;" x="38.000686" xlink:href="#mf5697773f4" y="330.025673"/>
      </g>
     </g>
     <g id="text_17">
      <!-- $\mathdefault{2}$ -->
      <g transform="translate(25.147696 334.176763)scale(0.12 -0.12)">
       <use transform="scale(0.996264)" xlink:href="#CMR17-32"/>
      </g>
     </g>
    </g>
    <g id="text_18">
     <!-- $\tilde{x}(t)$ -->
     <g transform="translate(17.660772 389.784333)rotate(-90)scale(0.14 -0.14)">
      <defs>
       <path d="M 2400 4198 
C 2182 3987 2061 3865 1862 3865 
C 1722 3865 1626 3936 1491 4032 
C 1363 4121 1261 4198 1120 4198 
C 890 4198 730 4012 461 3718 
L 531 3648 
C 749 3859 870 3980 1069 3980 
C 1210 3980 1306 3910 1440 3814 
C 1568 3724 1670 3648 1811 3648 
C 2042 3648 2202 3833 2470 4128 
L 2400 4198 
z
" id="CMR17-7e" transform="scale(0.015625)"/>
      </defs>
      <use transform="translate(7.581509 0.006461)scale(0.996264)" xlink:href="#CMR17-7e"/>
      <use transform="scale(0.996264)" xlink:href="#CMMI12-78"/>
      <use transform="translate(55.43406 0)scale(0.996264)" xlink:href="#CMR17-28"/>
      <use transform="translate(90.714827 0)scale(0.996264)" xlink:href="#CMMI12-74"/>
      <use transform="translate(125.941158 0)scale(0.996264)" xlink:href="#CMR17-29"/>
     </g>
    </g>
   </g>
   <g id="line2d_85">
    <path clip-path="url(#p231b970c23)" d="M 63.364323 325.461083 
L 67.505324 325.797111 
L 71.646324 326.289364 
L 75.787325 326.902645 
L 79.928326 327.599803 
L 84.069327 328.342861 
L 88.210328 329.094155 
L 92.351328 329.81747 
L 96.492329 330.479123 
L 100.63333 331.048975 
L 104.774331 331.501345 
L 108.915332 331.815788 
L 113.056333 331.97774 
L 117.197333 331.978986 
L 121.338334 331.817955 
L 125.479335 331.499833 
L 129.620336 331.03648 
L 133.761337 330.446164 
L 137.902338 329.753113 
L 142.043338 328.9869 
L 146.184339 328.181676 
L 150.32534 327.375267 
L 154.466341 326.608167 
L 158.607342 325.92245 
L 162.748342 325.360625 
L 166.889343 324.964475 
L 171.030344 324.773899 
L 175.171345 324.825803 
L 179.312346 325.15305 
L 183.453347 325.783515 
L 187.594347 326.739264 
L 191.735348 328.035875 
L 195.876349 329.681925 
L 200.01735 331.678652 
L 204.158351 334.019813 
L 208.299351 336.691722 
L 212.440352 339.67349 
L 216.581353 342.937442 
L 220.722354 346.449713 
L 224.863355 350.171007 
L 229.004356 354.057487 
L 233.145356 358.06179 
L 237.286357 362.134128 
L 241.427358 366.223456 
L 245.568359 370.278662 
L 249.70936 374.24977 
L 253.85036 378.089103 
L 257.991361 381.752386 
L 262.132362 385.199766 
L 266.273363 388.396708 
L 266.273464 388.396783 
L 270.414464 391.314822 
L 274.555464 393.932188 
L 278.696464 396.23421 
L 282.837464 398.213564 
L 286.978463 399.870325 
L 291.119463 401.211828 
L 295.260463 402.252337 
L 299.401463 403.012542 
L 303.542462 403.518887 
L 307.683462 403.802756 
L 311.824462 403.899537 
L 315.965462 403.847577 
L 320.106462 403.687084 
L 324.247461 403.458972 
L 328.388461 403.203708 
L 332.529461 402.960173 
L 336.670461 402.764582 
L 340.811461 402.649479 
L 344.95246 402.642839 
L 349.09346 402.767311 
L 353.23446 403.039601 
L 357.37546 403.470031 
L 361.516459 404.062276 
L 365.657459 404.813287 
L 369.798459 405.713407 
L 373.939459 406.746664 
L 378.080459 407.891252 
L 382.221458 409.120171 
L 386.362458 410.402012 
L 390.503458 411.701877 
L 394.644458 412.982389 
L 398.785458 414.204787 
L 402.926457 415.330054 
L 407.067457 416.320073 
L 411.208457 417.138751 
L 415.349457 417.753108 
L 419.490456 418.134279 
L 423.631456 418.258419 
L 427.772456 418.107476 
L 431.913456 417.669811 
L 436.054456 416.940657 
L 440.195455 415.922393 
L 444.336455 414.624631 
L 448.477455 413.064111 
L 452.618455 411.264413 
L 456.759454 409.255476 
L 460.900454 407.072958 
L 465.041454 404.757438 
L 469.182454 402.35348 
L 469.182555 402.353421 
L 474.522266 399.200178 
L 479.861976 396.08501 
L 485.201686 393.114712 
L 490.541396 390.392681 
L 495.881107 388.01479 
L 501.220817 386.065575 
L 506.560527 384.614883 
L 511.900237 383.715132 
L 517.239948 383.399318 
L 522.579658 383.679821 
L 527.919368 384.548099 
L 533.259078 385.975247 
L 538.598789 387.913422 
L 543.938499 390.298053 
L 549.278209 393.050746 
L 554.617919 396.082751 
L 559.95763 399.298839 
L 565.29734 402.601422 
L 570.63705 405.894726 
" style="fill:none;stroke:#1f77b4;stroke-linecap:square;stroke-opacity:0.3;stroke-width:1.5;"/>
   </g>
   <g id="line2d_86">
    <path clip-path="url(#p231b970c23)" d="M 63.364323 431.480218 
L 67.505324 431.480218 
L 71.646324 431.480218 
L 75.787325 431.480218 
L 79.928326 431.480218 
L 84.069327 431.480218 
L 88.210328 431.480218 
L 92.351328 431.480218 
L 96.492329 431.480218 
L 100.63333 431.480218 
L 104.774331 431.480218 
L 108.915332 431.480218 
L 113.056333 431.480218 
L 117.197333 431.480218 
L 121.338334 431.480218 
L 125.479335 431.480218 
L 129.620336 431.480218 
L 133.761337 431.480218 
L 137.902338 431.480218 
L 142.043338 431.480218 
L 146.184339 431.480218 
L 150.32534 431.480218 
L 154.466341 431.480218 
L 158.607342 431.480218 
L 162.748342 431.480218 
L 166.889343 431.480218 
L 171.030344 431.480218 
L 175.171345 431.480218 
L 179.312346 431.480218 
L 183.453347 431.480218 
L 187.594347 431.480218 
L 191.735348 431.480218 
L 195.876349 431.480218 
L 200.01735 431.480218 
L 204.158351 431.480218 
L 208.299351 431.480218 
L 212.440352 431.480218 
L 216.581353 431.480218 
L 220.722354 431.480218 
L 224.863355 431.480218 
L 229.004356 431.480218 
L 233.145356 431.480218 
L 237.286357 431.480218 
L 241.427358 431.480218 
L 245.568359 431.480218 
L 249.70936 431.480218 
L 253.85036 431.480218 
L 257.991361 431.480218 
L 262.132362 431.480218 
L 266.273363 431.480218 
L 266.273464 388.396783 
L 270.414464 391.314822 
L 274.555464 393.932188 
L 278.696464 396.23421 
L 282.837464 398.213564 
L 286.978463 399.870325 
L 291.119463 401.211828 
L 295.260463 402.252337 
L 299.401463 403.012542 
L 303.542462 403.518887 
L 307.683462 403.802756 
L 311.824462 403.899537 
L 315.965462 403.847577 
L 320.106462 403.687084 
L 324.247461 403.458972 
L 328.388461 403.203708 
L 332.529461 402.960173 
L 336.670461 402.764582 
L 340.811461 402.649479 
L 344.95246 402.642839 
L 349.09346 402.767311 
L 353.23446 403.039601 
L 357.37546 403.470031 
L 361.516459 404.062276 
L 365.657459 404.813287 
L 369.798459 405.713407 
L 373.939459 406.746664 
L 378.080459 407.891252 
L 382.221458 409.120171 
L 386.362458 410.402012 
L 390.503458 411.701877 
L 394.644458 412.982389 
L 398.785458 414.204787 
L 402.926457 415.330054 
L 407.067457 416.320073 
L 411.208457 417.138751 
L 415.349457 417.753108 
L 419.490456 418.134279 
L 423.631456 418.258419 
L 427.772456 418.107476 
L 431.913456 417.669811 
L 436.054456 416.940657 
L 440.195455 415.922393 
L 444.336455 414.624631 
L 448.477455 413.064111 
L 452.618455 411.264413 
L 456.759454 409.255476 
L 460.900454 407.072958 
L 465.041454 404.757438 
L 469.182454 402.35348 
L 469.182555 431.480218 
L 474.522266 431.480218 
L 479.861976 431.480218 
L 485.201686 431.480218 
L 490.541396 431.480218 
L 495.881107 431.480218 
L 501.220817 431.480218 
L 506.560527 431.480218 
L 511.900237 431.480218 
L 517.239948 431.480218 
L 522.579658 431.480218 
L 527.919368 431.480218 
L 533.259078 431.480218 
L 538.598789 431.480218 
L 543.938499 431.480218 
L 549.278209 431.480218 
L 554.617919 431.480218 
L 559.95763 431.480218 
L 565.29734 431.480218 
L 570.63705 431.480218 
" style="fill:none;stroke:#1f77b4;stroke-linecap:square;stroke-width:1.5;"/>
   </g>
   <g id="patch_13">
    <path d="M 38.000686 442.08 
L 38.000686 314.174118 
" style="fill:none;stroke:#000000;stroke-linecap:square;stroke-linejoin:miter;stroke-width:0.8;"/>
   </g>
   <g id="patch_14">
    <path d="M 596.000686 442.08 
L 596.000686 314.174118 
" style="fill:none;stroke:#000000;stroke-linecap:square;stroke-linejoin:miter;stroke-width:0.8;"/>
   </g>
   <g id="patch_15">
    <path d="M 38.000686 442.08 
L 596.000686 442.08 
" style="fill:none;stroke:#000000;stroke-linecap:square;stroke-linejoin:miter;stroke-width:0.8;"/>
   </g>
   <g id="patch_16">
    <path d="M 38.000686 314.174118 
L 596.000686 314.174118 
" style="fill:none;stroke:#000000;stroke-linecap:square;stroke-linejoin:miter;stroke-width:0.8;"/>
   </g>
  </g>
 </g>
 <defs>
  <clipPath id="p9f9d2437b6">
   <rect height="127.905882" width="558" x="38.000686" y="7.2"/>
  </clipPath>
  <clipPath id="p29459520ad">
   <rect height="127.905882" width="558" x="38.000686" y="160.687059"/>
  </clipPath>
  <clipPath id="p231b970c23">
   <rect height="127.905882" width="558" x="38.000686" y="314.174118"/>
  </clipPath>
 </defs>
</svg>
