<?xml version="1.0" encoding="utf-8" standalone="no"?>
<!DOCTYPE svg PUBLIC "-//W3C//DTD SVG 1.1//EN"
  "http://www.w3.org/Graphics/SVG/1.1/DTD/svg11.dtd">
<svg height="230.057598pt" version="1.1" viewBox="0 0 612.499176 230.057598" width="612.499176pt" xmlns="http://www.w3.org/2000/svg" xmlns:xlink="http://www.w3.org/1999/xlink">
 <metadata>
  <rdf:RDF xmlns:cc="http://creativecommons.org/ns#" xmlns:dc="http://purl.org/dc/elements/1.1/" xmlns:rdf="http://www.w3.org/1999/02/22-rdf-syntax-ns#">
   <cc:Work>
    <dc:type rdf:resource="http://purl.org/dc/dcmitype/StillImage"/>
    <dc:date>2021-10-19T23:03:55.746634</dc:date>
    <dc:format>image/svg+xml</dc:format>
    <dc:creator>
     <cc:Agent>
      <dc:title>Matplotlib v3.4.3, https://matplotlib.org/</dc:title>
     </cc:Agent>
    </dc:creator>
   </cc:Work>
  </rdf:RDF>
 </metadata>
 <defs>
  <style type="text/css">*{stroke-linecap:butt;stroke-linejoin:round;}</style>
 </defs>
 <g id="figure_1">
  <g id="patch_1">
   <path d="M 0 230.057598 
L 612.499176 230.057598 
L 612.499176 0 
L 0 0 
z
" style="fill:none;"/>
  </g>
  <g id="axes_1">
   <g id="patch_2">
    <path d="M 47.299176 188.832917 
L 300.935539 188.832917 
L 300.935539 25.752917 
L 47.299176 25.752917 
z
" style="fill:#ffffff;"/>
   </g>
   <g id="matplotlib.axis_1">
    <g id="xtick_1">
     <g id="line2d_1">
      <path clip-path="url(#p092aed97ae)" d="M 58.828101 188.832917 
L 58.828101 25.752917 
" style="fill:none;stroke:#b0b0b0;stroke-linecap:square;stroke-width:0.8;"/>
     </g>
     <g id="line2d_2">
      <defs>
       <path d="M 0 0 
L 0 3.5 
" id="m876a9a3c44" style="stroke:#000000;stroke-width:0.8;"/>
      </defs>
      <g>
       <use style="stroke:#000000;stroke-width:0.8;" x="58.828101" xlink:href="#m876a9a3c44" y="188.832917"/>
      </g>
     </g>
     <g id="text_1">
      <!-- $\mathdefault{−5}$ -->
      <g transform="translate(51.252362 204.135097)scale(0.12 -0.12)">
       <defs>
        <path d="M 4218 1472 
C 4326 1472 4442 1472 4442 1600 
C 4442 1728 4326 1728 4218 1728 
L 755 1728 
C 646 1728 531 1728 531 1600 
C 531 1472 646 1472 755 1472 
L 4218 1472 
z
" id="CMSY10-0" transform="scale(0.015625)"/>
        <path d="M 730 3692 
C 794 3666 1056 3584 1325 3584 
C 1920 3584 2246 3911 2432 4100 
C 2432 4157 2432 4192 2394 4192 
C 2387 4192 2374 4192 2323 4163 
C 2099 4058 1837 3973 1517 3973 
C 1325 3973 1037 3999 723 4139 
C 653 4171 640 4171 634 4171 
C 602 4171 595 4164 595 4037 
L 595 2203 
C 595 2089 595 2057 659 2057 
C 691 2057 704 2070 736 2114 
C 941 2401 1222 2522 1542 2522 
C 1766 2522 2246 2382 2246 1289 
C 2246 1085 2246 715 2054 421 
C 1894 159 1645 25 1370 25 
C 947 25 518 320 403 814 
C 429 807 480 795 506 795 
C 589 795 749 840 749 1038 
C 749 1210 627 1280 506 1280 
C 358 1280 262 1190 262 1011 
C 262 454 704 -128 1382 -128 
C 2042 -128 2669 440 2669 1264 
C 2669 2030 2170 2624 1549 2624 
C 1222 2624 947 2503 730 2274 
L 730 3692 
z
" id="CMR17-35" transform="scale(0.015625)"/>
       </defs>
       <use transform="scale(0.996264)" xlink:href="#CMSY10-0"/>
       <use transform="translate(77.487468 0)scale(0.996264)" xlink:href="#CMR17-35"/>
      </g>
     </g>
    </g>
    <g id="xtick_2">
     <g id="line2d_3">
      <path clip-path="url(#p092aed97ae)" d="M 81.909034 188.832917 
L 81.909034 25.752917 
" style="fill:none;stroke:#b0b0b0;stroke-linecap:square;stroke-width:0.8;"/>
     </g>
     <g id="line2d_4">
      <g>
       <use style="stroke:#000000;stroke-width:0.8;" x="81.909034" xlink:href="#m876a9a3c44" y="188.832917"/>
      </g>
     </g>
     <g id="text_2">
      <!-- $\mathdefault{−4}$ -->
      <g transform="translate(74.333294 204.135097)scale(0.12 -0.12)">
       <defs>
        <path d="M 2150 4122 
C 2150 4256 2144 4256 2029 4256 
L 128 1254 
L 128 1088 
L 1779 1088 
L 1779 457 
C 1779 224 1766 160 1318 160 
L 1197 160 
L 1197 0 
C 1402 0 1747 0 1965 0 
C 2182 0 2528 0 2733 0 
L 2733 160 
L 2611 160 
C 2163 160 2150 224 2150 457 
L 2150 1088 
L 2803 1088 
L 2803 1254 
L 2150 1254 
L 2150 4122 
z
M 1798 3703 
L 1798 1254 
L 256 1254 
L 1798 3703 
z
" id="CMR17-34" transform="scale(0.015625)"/>
       </defs>
       <use transform="scale(0.996264)" xlink:href="#CMSY10-0"/>
       <use transform="translate(77.487468 0)scale(0.996264)" xlink:href="#CMR17-34"/>
      </g>
     </g>
    </g>
    <g id="xtick_3">
     <g id="line2d_5">
      <path clip-path="url(#p092aed97ae)" d="M 104.989966 188.832917 
L 104.989966 25.752917 
" style="fill:none;stroke:#b0b0b0;stroke-linecap:square;stroke-width:0.8;"/>
     </g>
     <g id="line2d_6">
      <g>
       <use style="stroke:#000000;stroke-width:0.8;" x="104.989966" xlink:href="#m876a9a3c44" y="188.832917"/>
      </g>
     </g>
     <g id="text_3">
      <!-- $\mathdefault{−3}$ -->
      <g transform="translate(97.414226 204.135097)scale(0.12 -0.12)">
       <defs>
        <path d="M 1414 2157 
C 1984 2157 2234 1662 2234 1090 
C 2234 320 1824 25 1453 25 
C 1114 25 563 194 390 693 
C 422 680 454 680 486 680 
C 640 680 755 782 755 948 
C 755 1133 614 1216 486 1216 
C 378 1216 211 1165 211 926 
C 211 335 787 -128 1466 -128 
C 2176 -128 2720 430 2720 1085 
C 2720 1707 2208 2157 1600 2227 
C 2086 2328 2554 2756 2554 3329 
C 2554 3820 2048 4179 1472 4179 
C 890 4179 378 3829 378 3329 
C 378 3110 544 3072 627 3072 
C 762 3072 877 3155 877 3321 
C 877 3486 762 3569 627 3569 
C 602 3569 570 3569 544 3557 
C 730 3959 1235 4032 1459 4032 
C 1683 4032 2106 3925 2106 3320 
C 2106 3143 2080 2828 1862 2550 
C 1670 2304 1453 2304 1242 2284 
C 1210 2284 1062 2269 1037 2269 
C 992 2263 966 2257 966 2208 
C 966 2163 973 2157 1101 2157 
L 1414 2157 
z
" id="CMR17-33" transform="scale(0.015625)"/>
       </defs>
       <use transform="scale(0.996264)" xlink:href="#CMSY10-0"/>
       <use transform="translate(77.487468 0)scale(0.996264)" xlink:href="#CMR17-33"/>
      </g>
     </g>
    </g>
    <g id="xtick_4">
     <g id="line2d_7">
      <path clip-path="url(#p092aed97ae)" d="M 128.070898 188.832917 
L 128.070898 25.752917 
" style="fill:none;stroke:#b0b0b0;stroke-linecap:square;stroke-width:0.8;"/>
     </g>
     <g id="line2d_8">
      <g>
       <use style="stroke:#000000;stroke-width:0.8;" x="128.070898" xlink:href="#m876a9a3c44" y="188.832917"/>
      </g>
     </g>
     <g id="text_4">
      <!-- $\mathdefault{−2}$ -->
      <g transform="translate(120.495158 204.135097)scale(0.12 -0.12)">
       <defs>
        <path d="M 2669 989 
L 2554 989 
C 2490 536 2438 459 2413 420 
C 2381 369 1920 369 1830 369 
L 602 369 
C 832 619 1280 1072 1824 1597 
C 2214 1967 2669 2402 2669 3035 
C 2669 3790 2067 4224 1395 4224 
C 691 4224 262 3604 262 3030 
C 262 2780 448 2748 525 2748 
C 589 2748 781 2787 781 3010 
C 781 3207 614 3264 525 3264 
C 486 3264 448 3258 422 3245 
C 544 3790 915 4058 1306 4058 
C 1862 4058 2227 3617 2227 3035 
C 2227 2479 1901 2000 1536 1584 
L 262 146 
L 262 0 
L 2515 0 
L 2669 989 
z
" id="CMR17-32" transform="scale(0.015625)"/>
       </defs>
       <use transform="scale(0.996264)" xlink:href="#CMSY10-0"/>
       <use transform="translate(77.487468 0)scale(0.996264)" xlink:href="#CMR17-32"/>
      </g>
     </g>
    </g>
    <g id="xtick_5">
     <g id="line2d_9">
      <path clip-path="url(#p092aed97ae)" d="M 151.15183 188.832917 
L 151.15183 25.752917 
" style="fill:none;stroke:#b0b0b0;stroke-linecap:square;stroke-width:0.8;"/>
     </g>
     <g id="line2d_10">
      <g>
       <use style="stroke:#000000;stroke-width:0.8;" x="151.15183" xlink:href="#m876a9a3c44" y="188.832917"/>
      </g>
     </g>
     <g id="text_5">
      <!-- $\mathdefault{−1}$ -->
      <g transform="translate(143.57609 204.135097)scale(0.12 -0.12)">
       <defs>
        <path d="M 1702 4058 
C 1702 4192 1696 4192 1606 4192 
C 1357 3916 979 3827 621 3827 
C 602 3827 570 3827 563 3808 
C 557 3795 557 3782 557 3648 
C 755 3648 1088 3686 1344 3839 
L 1344 461 
C 1344 236 1331 160 781 160 
L 589 160 
L 589 0 
C 896 0 1216 0 1523 0 
C 1830 0 2150 0 2458 0 
L 2458 160 
L 2266 160 
C 1715 160 1702 230 1702 458 
L 1702 4058 
z
" id="CMR17-31" transform="scale(0.015625)"/>
       </defs>
       <use transform="scale(0.996264)" xlink:href="#CMSY10-0"/>
       <use transform="translate(77.487468 0)scale(0.996264)" xlink:href="#CMR17-31"/>
      </g>
     </g>
    </g>
    <g id="xtick_6">
     <g id="line2d_11">
      <path clip-path="url(#p092aed97ae)" d="M 174.232762 188.832917 
L 174.232762 25.752917 
" style="fill:none;stroke:#b0b0b0;stroke-linecap:square;stroke-width:0.8;"/>
     </g>
     <g id="line2d_12">
      <g>
       <use style="stroke:#000000;stroke-width:0.8;" x="174.232762" xlink:href="#m876a9a3c44" y="188.832917"/>
      </g>
     </g>
     <g id="text_6">
      <!-- $\mathdefault{0}$ -->
      <g transform="translate(171.306267 204.135097)scale(0.12 -0.12)">
       <defs>
        <path d="M 2688 2025 
C 2688 2416 2682 3080 2413 3591 
C 2176 4039 1798 4198 1466 4198 
C 1158 4198 768 4058 525 3597 
C 269 3118 243 2524 243 2025 
C 243 1661 250 1106 448 619 
C 723 -39 1216 -128 1466 -128 
C 1760 -128 2208 -7 2470 600 
C 2662 1042 2688 1559 2688 2025 
z
M 1466 -26 
C 1056 -26 813 325 723 812 
C 653 1188 653 1738 653 2096 
C 653 2588 653 2997 736 3387 
C 858 3929 1216 4096 1466 4096 
C 1728 4096 2067 3923 2189 3400 
C 2272 3036 2278 2607 2278 2096 
C 2278 1680 2278 1169 2202 792 
C 2067 95 1690 -26 1466 -26 
z
" id="CMR17-30" transform="scale(0.015625)"/>
       </defs>
       <use transform="scale(0.996264)" xlink:href="#CMR17-30"/>
      </g>
     </g>
    </g>
    <g id="xtick_7">
     <g id="line2d_13">
      <path clip-path="url(#p092aed97ae)" d="M 197.313694 188.832917 
L 197.313694 25.752917 
" style="fill:none;stroke:#b0b0b0;stroke-linecap:square;stroke-width:0.8;"/>
     </g>
     <g id="line2d_14">
      <g>
       <use style="stroke:#000000;stroke-width:0.8;" x="197.313694" xlink:href="#m876a9a3c44" y="188.832917"/>
      </g>
     </g>
     <g id="text_7">
      <!-- $\mathdefault{1}$ -->
      <g transform="translate(194.387199 204.135097)scale(0.12 -0.12)">
       <use transform="scale(0.996264)" xlink:href="#CMR17-31"/>
      </g>
     </g>
    </g>
    <g id="xtick_8">
     <g id="line2d_15">
      <path clip-path="url(#p092aed97ae)" d="M 220.394627 188.832917 
L 220.394627 25.752917 
" style="fill:none;stroke:#b0b0b0;stroke-linecap:square;stroke-width:0.8;"/>
     </g>
     <g id="line2d_16">
      <g>
       <use style="stroke:#000000;stroke-width:0.8;" x="220.394627" xlink:href="#m876a9a3c44" y="188.832917"/>
      </g>
     </g>
     <g id="text_8">
      <!-- $\mathdefault{2}$ -->
      <g transform="translate(217.468132 204.135097)scale(0.12 -0.12)">
       <use transform="scale(0.996264)" xlink:href="#CMR17-32"/>
      </g>
     </g>
    </g>
    <g id="xtick_9">
     <g id="line2d_17">
      <path clip-path="url(#p092aed97ae)" d="M 243.475559 188.832917 
L 243.475559 25.752917 
" style="fill:none;stroke:#b0b0b0;stroke-linecap:square;stroke-width:0.8;"/>
     </g>
     <g id="line2d_18">
      <g>
       <use style="stroke:#000000;stroke-width:0.8;" x="243.475559" xlink:href="#m876a9a3c44" y="188.832917"/>
      </g>
     </g>
     <g id="text_9">
      <!-- $\mathdefault{3}$ -->
      <g transform="translate(240.549064 204.135097)scale(0.12 -0.12)">
       <use transform="scale(0.996264)" xlink:href="#CMR17-33"/>
      </g>
     </g>
    </g>
    <g id="xtick_10">
     <g id="line2d_19">
      <path clip-path="url(#p092aed97ae)" d="M 266.556491 188.832917 
L 266.556491 25.752917 
" style="fill:none;stroke:#b0b0b0;stroke-linecap:square;stroke-width:0.8;"/>
     </g>
     <g id="line2d_20">
      <g>
       <use style="stroke:#000000;stroke-width:0.8;" x="266.556491" xlink:href="#m876a9a3c44" y="188.832917"/>
      </g>
     </g>
     <g id="text_10">
      <!-- $\mathdefault{4}$ -->
      <g transform="translate(263.629996 204.135097)scale(0.12 -0.12)">
       <use transform="scale(0.996264)" xlink:href="#CMR17-34"/>
      </g>
     </g>
    </g>
    <g id="xtick_11">
     <g id="line2d_21">
      <path clip-path="url(#p092aed97ae)" d="M 289.637423 188.832917 
L 289.637423 25.752917 
" style="fill:none;stroke:#b0b0b0;stroke-linecap:square;stroke-width:0.8;"/>
     </g>
     <g id="line2d_22">
      <g>
       <use style="stroke:#000000;stroke-width:0.8;" x="289.637423" xlink:href="#m876a9a3c44" y="188.832917"/>
      </g>
     </g>
     <g id="text_11">
      <!-- $\mathdefault{5}$ -->
      <g transform="translate(286.710928 204.135097)scale(0.12 -0.12)">
       <use transform="scale(0.996264)" xlink:href="#CMR17-35"/>
      </g>
     </g>
    </g>
    <g id="text_12">
     <!-- $t$ -->
     <g transform="translate(171.651515 220.145569)scale(0.14 -0.14)">
      <defs>
       <path d="M 1286 2566 
L 1875 2566 
C 1997 2566 2061 2566 2061 2681 
C 2061 2752 2022 2752 1894 2752 
L 1331 2752 
L 1568 3692 
C 1594 3781 1594 3794 1594 3840 
C 1594 3943 1510 4000 1427 4000 
C 1376 4000 1229 3981 1178 3775 
L 928 2752 
L 326 2752 
C 198 2752 141 2752 141 2630 
C 141 2566 186 2566 307 2566 
L 877 2566 
L 454 881 
C 403 658 384 594 384 511 
C 384 211 595 -64 954 -64 
C 1600 -64 1946 868 1946 912 
C 1946 951 1920 970 1882 970 
C 1869 970 1843 970 1830 944 
C 1824 938 1818 931 1773 829 
C 1638 511 1344 64 973 64 
C 781 64 768 224 768 364 
C 768 370 768 492 787 568 
L 1286 2566 
z
" id="CMMI12-74" transform="scale(0.015625)"/>
      </defs>
      <use transform="scale(0.996264)" xlink:href="#CMMI12-74"/>
     </g>
    </g>
   </g>
   <g id="matplotlib.axis_2">
    <g id="ytick_1">
     <g id="line2d_23">
      <path clip-path="url(#p092aed97ae)" d="M 47.299176 176.535714 
L 300.935539 176.535714 
" style="fill:none;stroke:#b0b0b0;stroke-linecap:square;stroke-width:0.8;"/>
     </g>
     <g id="line2d_24">
      <defs>
       <path d="M 0 0 
L -3.5 0 
" id="m0fbd6e71e2" style="stroke:#000000;stroke-width:0.8;"/>
      </defs>
      <g>
       <use style="stroke:#000000;stroke-width:0.8;" x="47.299176" xlink:href="#m0fbd6e71e2" y="176.535714"/>
      </g>
     </g>
     <g id="text_13">
      <!-- $\mathdefault{−3}$ -->
      <g transform="translate(25.147696 180.686804)scale(0.12 -0.12)">
       <use transform="scale(0.996264)" xlink:href="#CMSY10-0"/>
       <use transform="translate(77.487468 0)scale(0.996264)" xlink:href="#CMR17-33"/>
      </g>
     </g>
    </g>
    <g id="ytick_2">
     <g id="line2d_25">
      <path clip-path="url(#p092aed97ae)" d="M 47.299176 153.454782 
L 300.935539 153.454782 
" style="fill:none;stroke:#b0b0b0;stroke-linecap:square;stroke-width:0.8;"/>
     </g>
     <g id="line2d_26">
      <g>
       <use style="stroke:#000000;stroke-width:0.8;" x="47.299176" xlink:href="#m0fbd6e71e2" y="153.454782"/>
      </g>
     </g>
     <g id="text_14">
      <!-- $\mathdefault{−2}$ -->
      <g transform="translate(25.147696 157.605872)scale(0.12 -0.12)">
       <use transform="scale(0.996264)" xlink:href="#CMSY10-0"/>
       <use transform="translate(77.487468 0)scale(0.996264)" xlink:href="#CMR17-32"/>
      </g>
     </g>
    </g>
    <g id="ytick_3">
     <g id="line2d_27">
      <path clip-path="url(#p092aed97ae)" d="M 47.299176 130.37385 
L 300.935539 130.37385 
" style="fill:none;stroke:#b0b0b0;stroke-linecap:square;stroke-width:0.8;"/>
     </g>
     <g id="line2d_28">
      <g>
       <use style="stroke:#000000;stroke-width:0.8;" x="47.299176" xlink:href="#m0fbd6e71e2" y="130.37385"/>
      </g>
     </g>
     <g id="text_15">
      <!-- $\mathdefault{−1}$ -->
      <g transform="translate(25.147696 134.524939)scale(0.12 -0.12)">
       <use transform="scale(0.996264)" xlink:href="#CMSY10-0"/>
       <use transform="translate(77.487468 0)scale(0.996264)" xlink:href="#CMR17-31"/>
      </g>
     </g>
    </g>
    <g id="ytick_4">
     <g id="line2d_29">
      <path clip-path="url(#p092aed97ae)" d="M 47.299176 107.292917 
L 300.935539 107.292917 
" style="fill:none;stroke:#b0b0b0;stroke-linecap:square;stroke-width:0.8;"/>
     </g>
     <g id="line2d_30">
      <g>
       <use style="stroke:#000000;stroke-width:0.8;" x="47.299176" xlink:href="#m0fbd6e71e2" y="107.292917"/>
      </g>
     </g>
     <g id="text_16">
      <!-- $\mathdefault{0}$ -->
      <g transform="translate(34.446186 111.444007)scale(0.12 -0.12)">
       <use transform="scale(0.996264)" xlink:href="#CMR17-30"/>
      </g>
     </g>
    </g>
    <g id="ytick_5">
     <g id="line2d_31">
      <path clip-path="url(#p092aed97ae)" d="M 47.299176 84.211985 
L 300.935539 84.211985 
" style="fill:none;stroke:#b0b0b0;stroke-linecap:square;stroke-width:0.8;"/>
     </g>
     <g id="line2d_32">
      <g>
       <use style="stroke:#000000;stroke-width:0.8;" x="47.299176" xlink:href="#m0fbd6e71e2" y="84.211985"/>
      </g>
     </g>
     <g id="text_17">
      <!-- $\mathdefault{1}$ -->
      <g transform="translate(34.446186 88.363075)scale(0.12 -0.12)">
       <use transform="scale(0.996264)" xlink:href="#CMR17-31"/>
      </g>
     </g>
    </g>
    <g id="ytick_6">
     <g id="line2d_33">
      <path clip-path="url(#p092aed97ae)" d="M 47.299176 61.131053 
L 300.935539 61.131053 
" style="fill:none;stroke:#b0b0b0;stroke-linecap:square;stroke-width:0.8;"/>
     </g>
     <g id="line2d_34">
      <g>
       <use style="stroke:#000000;stroke-width:0.8;" x="47.299176" xlink:href="#m0fbd6e71e2" y="61.131053"/>
      </g>
     </g>
     <g id="text_18">
      <!-- $\mathdefault{2}$ -->
      <g transform="translate(34.446186 65.282143)scale(0.12 -0.12)">
       <use transform="scale(0.996264)" xlink:href="#CMR17-32"/>
      </g>
     </g>
    </g>
    <g id="ytick_7">
     <g id="line2d_35">
      <path clip-path="url(#p092aed97ae)" d="M 47.299176 38.050121 
L 300.935539 38.050121 
" style="fill:none;stroke:#b0b0b0;stroke-linecap:square;stroke-width:0.8;"/>
     </g>
     <g id="line2d_36">
      <g>
       <use style="stroke:#000000;stroke-width:0.8;" x="47.299176" xlink:href="#m0fbd6e71e2" y="38.050121"/>
      </g>
     </g>
     <g id="text_19">
      <!-- $\mathdefault{3}$ -->
      <g transform="translate(34.446186 42.201211)scale(0.12 -0.12)">
       <use transform="scale(0.996264)" xlink:href="#CMR17-33"/>
      </g>
     </g>
    </g>
    <g id="text_20">
     <!-- $x(t)$ -->
     <g transform="translate(17.660772 118.950191)rotate(-90)scale(0.14 -0.14)">
      <defs>
       <path d="M 3034 2606 
C 2829 2567 2752 2414 2752 2293 
C 2752 2139 2874 2088 2963 2088 
C 3155 2088 3290 2254 3290 2427 
C 3290 2695 2982 2816 2714 2816 
C 2323 2816 2106 2433 2048 2312 
C 1901 2816 1504 2816 1389 2816 
C 736 2816 390 1980 390 1839 
C 390 1814 416 1782 461 1782 
C 512 1782 525 1820 538 1846 
C 755 2555 1184 2689 1370 2689 
C 1658 2689 1715 2420 1715 2267 
C 1715 2127 1677 1980 1600 1673 
L 1382 798 
C 1286 415 1101 64 762 64 
C 730 64 570 64 435 147 
C 666 192 717 383 717 460 
C 717 588 621 664 499 664 
C 346 664 179 530 179 326 
C 179 57 480 -64 755 -64 
C 1062 -64 1280 179 1414 441 
C 1517 64 1837 -64 2074 -64 
C 2726 -64 3072 773 3072 913 
C 3072 945 3046 971 3008 971 
C 2950 971 2944 939 2925 888 
C 2752 326 2381 64 2093 64 
C 1869 64 1747 230 1747 492 
C 1747 632 1773 734 1875 1156 
L 2099 2024 
C 2195 2408 2413 2689 2707 2689 
C 2720 2689 2899 2689 3034 2606 
z
" id="CMMI12-78" transform="scale(0.015625)"/>
       <path d="M 1958 -1561 
C 1958 -1555 1958 -1542 1939 -1523 
C 1645 -1224 858 -407 858 1581 
C 858 3569 1632 4379 1946 4697 
C 1946 4704 1958 4717 1958 4736 
C 1958 4755 1939 4768 1914 4768 
C 1843 4768 1299 4296 986 3594 
C 666 2887 576 2199 576 1588 
C 576 1128 621 351 1005 -471 
C 1312 -1135 1837 -1600 1914 -1600 
C 1946 -1600 1958 -1587 1958 -1561 
z
" id="CMR17-28" transform="scale(0.015625)"/>
       <path d="M 1683 1581 
C 1683 2040 1638 2817 1254 3639 
C 947 4303 422 4768 346 4768 
C 326 4768 301 4761 301 4729 
C 301 4717 307 4710 314 4697 
C 621 4378 1402 3568 1402 1584 
C 1402 -407 627 -1217 314 -1537 
C 307 -1549 301 -1556 301 -1568 
C 301 -1600 326 -1600 346 -1600 
C 416 -1600 960 -1128 1274 -426 
C 1594 281 1683 969 1683 1581 
z
" id="CMR17-29" transform="scale(0.015625)"/>
      </defs>
      <use transform="scale(0.996264)" xlink:href="#CMMI12-78"/>
      <use transform="translate(55.43406 0)scale(0.996264)" xlink:href="#CMR17-28"/>
      <use transform="translate(90.714827 0)scale(0.996264)" xlink:href="#CMMI12-74"/>
      <use transform="translate(125.941158 0)scale(0.996264)" xlink:href="#CMR17-29"/>
     </g>
    </g>
   </g>
   <g id="line2d_37">
    <path clip-path="url(#p092aed97ae)" d="M 58.828101 107.292917 
L 60.905385 94.925535 
L 62.059432 89.508754 
L 62.75186 87.066942 
L 63.444288 85.341646 
L 63.905907 84.620812 
L 64.367525 84.25753 
L 64.829144 84.25753 
L 65.290762 84.620812 
L 65.752381 85.341646 
L 66.444809 87.066942 
L 67.137237 89.508754 
L 68.060474 93.726286 
L 69.214521 100.160517 
L 72.90747 122.005257 
L 73.830707 125.965784 
L 74.523135 128.177169 
L 75.215563 129.64872 
L 75.677182 130.19185 
L 76.138801 130.37385 
L 76.600419 130.19185 
L 77.062038 129.64872 
L 77.523656 128.753025 
L 78.216084 126.780793 
L 78.908512 124.118193 
L 79.83175 119.660299 
L 81.216606 111.617853 
L 83.986318 94.925535 
L 85.140364 89.508754 
L 85.832792 87.066942 
L 86.52522 85.341646 
L 86.986839 84.620812 
L 87.448457 84.25753 
L 87.910076 84.25753 
L 88.371695 84.620812 
L 88.833313 85.341646 
L 89.525741 87.066942 
L 90.218169 89.508754 
L 91.141406 93.726286 
L 92.295453 100.160517 
L 95.988402 122.005257 
L 96.91164 125.965784 
L 97.604067 128.177169 
L 98.296495 129.64872 
L 98.758114 130.19185 
L 99.219733 130.37385 
L 99.681351 130.19185 
L 100.14297 129.64872 
L 100.604589 128.753025 
L 101.297017 126.780793 
L 101.989445 124.118193 
L 102.912682 119.660299 
L 104.297538 111.617853 
L 107.06725 94.925535 
L 108.221296 89.508754 
L 108.913724 87.066942 
L 109.606152 85.341646 
L 110.067771 84.620812 
L 110.52939 84.25753 
L 110.991008 84.25753 
L 111.452627 84.620812 
L 111.914245 85.341646 
L 112.606673 87.066942 
L 113.299101 89.508754 
L 114.222339 93.726286 
L 115.376385 100.160517 
L 119.069334 122.005257 
L 119.992572 125.965784 
L 120.685 128.177169 
L 121.377428 129.64872 
L 121.839046 130.19185 
L 122.300665 130.37385 
L 122.762284 130.19185 
L 123.223902 129.64872 
L 123.685521 128.753025 
L 124.377949 126.780793 
L 125.070377 124.118193 
L 125.993614 119.660299 
L 127.37847 111.617853 
L 130.148182 94.925535 
L 131.302228 89.508754 
L 131.994656 87.066942 
L 132.687084 85.341646 
L 133.148703 84.620812 
L 133.610322 84.25753 
L 134.07194 84.25753 
L 134.533559 84.620812 
L 134.995178 85.341646 
L 135.687606 87.066942 
L 136.380034 89.508754 
L 137.303271 93.726286 
L 138.457317 100.160517 
L 142.150267 122.005257 
L 143.073504 125.965784 
L 143.765932 128.177169 
L 144.45836 129.64872 
L 144.919978 130.19185 
L 145.381597 130.37385 
L 145.843216 130.19185 
L 146.304834 129.64872 
L 146.766453 128.753025 
L 147.458881 126.780793 
L 148.151309 124.118193 
L 149.074546 119.660299 
L 150.459402 111.617853 
L 153.229114 94.925535 
L 154.383161 89.508754 
L 155.075589 87.066942 
L 155.768017 85.341646 
L 156.229635 84.620812 
L 156.691254 84.25753 
L 157.152872 84.25753 
L 157.614491 84.620812 
L 158.07611 85.341646 
L 158.768538 87.066942 
L 159.460966 89.508754 
L 160.384203 93.726286 
L 161.53825 100.160517 
L 165.231199 122.005257 
L 166.154436 125.965784 
L 166.846864 128.177169 
L 167.539292 129.64872 
L 168.000911 130.19185 
L 168.462529 130.37385 
L 168.924148 130.19185 
L 169.385767 129.64872 
L 169.847385 128.753025 
L 170.539813 126.780793 
L 171.232241 124.118193 
L 172.155478 119.660299 
L 173.540334 111.617853 
L 176.310046 94.925535 
L 177.464093 89.508754 
L 178.156521 87.066942 
L 178.848949 85.341646 
L 179.310567 84.620812 
L 179.772186 84.25753 
L 180.233805 84.25753 
L 180.695423 84.620812 
L 181.157042 85.341646 
L 181.84947 87.066942 
L 182.541898 89.508754 
L 183.465135 93.726286 
L 184.619182 100.160517 
L 188.312131 122.005257 
L 189.235368 125.965784 
L 189.927796 128.177169 
L 190.620224 129.64872 
L 191.081843 130.19185 
L 191.543461 130.37385 
L 192.00508 130.19185 
L 192.466699 129.64872 
L 192.928317 128.753025 
L 193.620745 126.780793 
L 194.313173 124.118193 
L 195.236411 119.660299 
L 196.621267 111.617853 
L 199.390978 94.925535 
L 200.545025 89.508754 
L 201.237453 87.066942 
L 201.929881 85.341646 
L 202.3915 84.620812 
L 202.853118 84.25753 
L 203.314737 84.25753 
L 203.776355 84.620812 
L 204.237974 85.341646 
L 204.930402 87.066942 
L 205.62283 89.508754 
L 206.546067 93.726286 
L 207.700114 100.160517 
L 211.393063 122.005257 
L 212.3163 125.965784 
L 213.008728 128.177169 
L 213.701156 129.64872 
L 214.162775 130.19185 
L 214.624394 130.37385 
L 215.086012 130.19185 
L 215.547631 129.64872 
L 216.00925 128.753025 
L 216.701677 126.780793 
L 217.394105 124.118193 
L 218.317343 119.660299 
L 219.702199 111.617853 
L 222.471911 94.925535 
L 223.625957 89.508754 
L 224.318385 87.066942 
L 225.010813 85.341646 
L 225.472432 84.620812 
L 225.93405 84.25753 
L 226.395669 84.25753 
L 226.857288 84.620812 
L 227.318906 85.341646 
L 228.011334 87.066942 
L 228.703762 89.508754 
L 229.627 93.726286 
L 230.781046 100.160517 
L 234.473995 122.005257 
L 235.397233 125.965784 
L 236.089661 128.177169 
L 236.782088 129.64872 
L 237.243707 130.19185 
L 237.705326 130.37385 
L 238.166944 130.19185 
L 238.628563 129.64872 
L 239.090182 128.753025 
L 239.78261 126.780793 
L 240.475038 124.118193 
L 241.398275 119.660299 
L 242.783131 111.617853 
L 245.552843 94.925535 
L 246.706889 89.508754 
L 247.399317 87.066942 
L 248.091745 85.341646 
L 248.553364 84.620812 
L 249.014983 84.25753 
L 249.476601 84.25753 
L 249.93822 84.620812 
L 250.399838 85.341646 
L 251.092266 87.066942 
L 251.784694 89.508754 
L 252.707932 93.726286 
L 253.861978 100.160517 
L 257.554927 122.005257 
L 258.478165 125.965784 
L 259.170593 128.177169 
L 259.863021 129.64872 
L 260.324639 130.19185 
L 260.786258 130.37385 
L 261.247877 130.19185 
L 261.709495 129.64872 
L 262.171114 128.753025 
L 262.863542 126.780793 
L 263.55597 124.118193 
L 264.479207 119.660299 
L 265.864063 111.617853 
L 268.633775 94.925535 
L 269.787821 89.508754 
L 270.480249 87.066942 
L 271.172677 85.341646 
L 271.634296 84.620812 
L 272.095915 84.25753 
L 272.557533 84.25753 
L 273.019152 84.620812 
L 273.480771 85.341646 
L 274.173199 87.066942 
L 274.865627 89.508754 
L 275.788864 93.726286 
L 276.94291 100.160517 
L 280.63586 122.005257 
L 281.559097 125.965784 
L 282.251525 128.177169 
L 282.943953 129.64872 
L 283.405571 130.19185 
L 283.86719 130.37385 
L 284.328809 130.19185 
L 284.790427 129.64872 
L 285.252046 128.753025 
L 285.944474 126.780793 
L 286.636902 124.118193 
L 287.560139 119.660299 
L 288.944995 111.617853 
L 289.406614 108.742181 
L 289.406614 108.742181 
" style="fill:none;stroke:#1f77b4;stroke-linecap:square;stroke-width:1.5;"/>
   </g>
   <g id="patch_3">
    <path d="M 47.299176 188.832917 
L 47.299176 25.752917 
" style="fill:none;stroke:#000000;stroke-linecap:square;stroke-linejoin:miter;stroke-width:0.8;"/>
   </g>
   <g id="patch_4">
    <path d="M 300.935539 188.832917 
L 300.935539 25.752917 
" style="fill:none;stroke:#000000;stroke-linecap:square;stroke-linejoin:miter;stroke-width:0.8;"/>
   </g>
   <g id="patch_5">
    <path d="M 47.299176 188.832917 
L 300.935539 188.832917 
" style="fill:none;stroke:#000000;stroke-linecap:square;stroke-linejoin:miter;stroke-width:0.8;"/>
   </g>
   <g id="patch_6">
    <path d="M 47.299176 25.752917 
L 300.935539 25.752917 
" style="fill:none;stroke:#000000;stroke-linecap:square;stroke-linejoin:miter;stroke-width:0.8;"/>
   </g>
   <g id="text_21">
    <!-- $A = 1$, $f = 1$, $\varphi = 0$ -->
    <g transform="translate(102.30039 19.752917)scale(0.168 -0.168)">
     <defs>
      <path d="M 1088 691 
C 864 314 646 186 339 186 
C 269 180 218 180 218 58 
C 218 24 250 0 294 0 
C 410 0 698 0 813 0 
C 998 0 1203 0 1382 0 
C 1421 0 1498 0 1498 122 
C 1498 180 1446 186 1408 186 
C 1261 186 1139 236 1139 388 
C 1139 476 1178 546 1261 685 
L 1747 1479 
L 3379 1479 
C 3386 1423 3386 1373 3392 1316 
C 3411 1152 3488 495 3488 376 
C 3488 186 3162 186 3059 186 
C 2989 186 2918 186 2918 70 
C 2918 0 2976 0 3014 0 
C 3123 0 3251 0 3360 0 
L 3725 0 
C 4115 0 4397 0 4403 0 
C 4448 0 4518 0 4518 122 
C 4518 186 4461 186 4365 186 
C 4013 186 4006 244 3987 434 
L 3597 4404 
C 3584 4531 3558 4544 3488 4544 
C 3424 4544 3386 4531 3328 4435 
L 1088 691 
z
M 1856 1664 
L 3142 3819 
L 3360 1664 
L 1856 1664 
z
" id="CMMI12-41" transform="scale(0.015625)"/>
      <path d="M 4115 2017 
C 4211 2017 4307 2017 4307 2125 
C 4307 2240 4198 2240 4090 2240 
L 512 2240 
C 403 2240 294 2240 294 2125 
C 294 2017 390 2017 486 2017 
L 4115 2017 
z
M 4090 896 
C 4198 896 4307 896 4307 1011 
C 4307 1119 4211 1119 4115 1119 
L 486 1119 
C 390 1119 294 1119 294 1011 
C 294 896 403 896 512 896 
L 4090 896 
z
" id="CMR17-3d" transform="scale(0.015625)"/>
      <path d="M 1011 102 
C 1024 45 1024 25 1024 -77 
C 1024 -463 896 -817 627 -1139 
C 595 -1170 595 -1183 595 -1197 
C 595 -1222 621 -1248 646 -1248 
C 685 -1248 1126 -799 1126 -87 
C 1126 124 1101 522 800 522 
C 659 522 538 427 538 261 
C 538 96 659 0 800 0 
C 877 0 960 32 1011 102 
z
" id="CMR17-2c" transform="scale(0.015625)"/>
      <path d="M 2854 2566 
C 2982 2566 3034 2566 3034 2688 
C 3034 2752 2982 2752 2867 2752 
L 2349 2752 
C 2470 3429 2560 3897 2611 4107 
C 2650 4265 2784 4416 2950 4416 
C 3085 4416 3219 4358 3283 4298 
C 3034 4272 2957 4082 2957 3969 
C 2957 3837 3053 3759 3174 3759 
C 3302 3759 3494 3870 3494 4119 
C 3494 4393 3226 4544 2944 4544 
C 2669 4544 2400 4334 2272 4078 
C 2157 3848 2093 3611 1946 2752 
L 1517 2752 
C 1395 2752 1331 2752 1331 2637 
C 1331 2566 1370 2566 1498 2566 
L 1907 2566 
C 1792 1976 1530 542 1382 -137 
C 1274 -689 1178 -1152 858 -1152 
C 838 -1152 653 -1152 538 -1031 
C 864 -1005 864 -726 864 -720 
C 864 -593 768 -517 646 -517 
C 518 -517 326 -625 326 -867 
C 326 -1140 608 -1280 858 -1280 
C 1510 -1280 1779 -118 1850 199 
C 1965 688 2278 2376 2310 2566 
L 2854 2566 
z
" id="CMMI12-66" transform="scale(0.015625)"/>
      <path d="M 1926 280 
C 1818 280 1722 280 1722 312 
C 1722 325 1830 926 1869 1067 
C 2074 1884 2560 2472 3117 2472 
C 3533 2472 3725 2159 3725 1808 
C 3725 1080 2906 280 1926 280 
z
M 1651 -51 
C 1690 -57 1754 -64 1869 -64 
C 2918 -64 3885 945 3885 1954 
C 3885 2344 3712 2816 3174 2816 
C 2253 2816 1862 1519 1504 318 
C 768 458 461 848 461 1276 
C 461 1449 595 2133 966 2592 
C 1037 2676 1037 2689 1037 2702 
C 1037 2753 986 2753 973 2753 
C 800 2753 314 1820 314 1213 
C 314 497 877 107 1395 -7 
L 1062 -1088 
C 1030 -1184 1030 -1196 1030 -1222 
C 1030 -1376 1184 -1376 1197 -1376 
C 1261 -1376 1376 -1351 1427 -1223 
C 1446 -1166 1626 -178 1651 -51 
z
" id="CMMI12-27" transform="scale(0.015625)"/>
     </defs>
     <use transform="scale(0.996264)" xlink:href="#CMMI12-41"/>
     <use transform="translate(100.801894 0)scale(0.996264)" xlink:href="#CMR17-3d"/>
     <use transform="translate(200.190691 0)scale(0.996264)" xlink:href="#CMR17-31"/>
     <use transform="translate(245.881168 0)scale(0.996264)" xlink:href="#CMR17-2c"/>
     <use transform="translate(300.828193 0)scale(0.996264)" xlink:href="#CMMI12-66"/>
     <use transform="translate(387.222507 0)scale(0.996264)" xlink:href="#CMR17-3d"/>
     <use transform="translate(486.611304 0)scale(0.996264)" xlink:href="#CMR17-31"/>
     <use transform="translate(532.301781 0)scale(0.996264)" xlink:href="#CMR17-2c"/>
     <use transform="translate(587.248806 0)scale(0.996264)" xlink:href="#CMMI12-27"/>
     <use transform="translate(678.825878 0)scale(0.996264)" xlink:href="#CMR17-3d"/>
     <use transform="translate(778.214675 0)scale(0.996264)" xlink:href="#CMR17-30"/>
    </g>
   </g>
  </g>
  <g id="axes_2">
   <g id="patch_7">
    <path d="M 351.662812 188.832917 
L 605.299176 188.832917 
L 605.299176 25.752917 
L 351.662812 25.752917 
z
" style="fill:#ffffff;"/>
   </g>
   <g id="matplotlib.axis_3">
    <g id="xtick_12">
     <g id="line2d_38">
      <path clip-path="url(#pc7f768fb43)" d="M 363.191738 188.832917 
L 363.191738 25.752917 
" style="fill:none;stroke:#b0b0b0;stroke-linecap:square;stroke-width:0.8;"/>
     </g>
     <g id="line2d_39">
      <g>
       <use style="stroke:#000000;stroke-width:0.8;" x="363.191738" xlink:href="#m876a9a3c44" y="188.832917"/>
      </g>
     </g>
     <g id="text_22">
      <!-- $\mathdefault{−5}$ -->
      <g transform="translate(355.615998 204.135097)scale(0.12 -0.12)">
       <use transform="scale(0.996264)" xlink:href="#CMSY10-0"/>
       <use transform="translate(77.487468 0)scale(0.996264)" xlink:href="#CMR17-35"/>
      </g>
     </g>
    </g>
    <g id="xtick_13">
     <g id="line2d_40">
      <path clip-path="url(#pc7f768fb43)" d="M 386.27267 188.832917 
L 386.27267 25.752917 
" style="fill:none;stroke:#b0b0b0;stroke-linecap:square;stroke-width:0.8;"/>
     </g>
     <g id="line2d_41">
      <g>
       <use style="stroke:#000000;stroke-width:0.8;" x="386.27267" xlink:href="#m876a9a3c44" y="188.832917"/>
      </g>
     </g>
     <g id="text_23">
      <!-- $\mathdefault{−4}$ -->
      <g transform="translate(378.69693 204.135097)scale(0.12 -0.12)">
       <use transform="scale(0.996264)" xlink:href="#CMSY10-0"/>
       <use transform="translate(77.487468 0)scale(0.996264)" xlink:href="#CMR17-34"/>
      </g>
     </g>
    </g>
    <g id="xtick_14">
     <g id="line2d_42">
      <path clip-path="url(#pc7f768fb43)" d="M 409.353602 188.832917 
L 409.353602 25.752917 
" style="fill:none;stroke:#b0b0b0;stroke-linecap:square;stroke-width:0.8;"/>
     </g>
     <g id="line2d_43">
      <g>
       <use style="stroke:#000000;stroke-width:0.8;" x="409.353602" xlink:href="#m876a9a3c44" y="188.832917"/>
      </g>
     </g>
     <g id="text_24">
      <!-- $\mathdefault{−3}$ -->
      <g transform="translate(401.777862 204.135097)scale(0.12 -0.12)">
       <use transform="scale(0.996264)" xlink:href="#CMSY10-0"/>
       <use transform="translate(77.487468 0)scale(0.996264)" xlink:href="#CMR17-33"/>
      </g>
     </g>
    </g>
    <g id="xtick_15">
     <g id="line2d_44">
      <path clip-path="url(#pc7f768fb43)" d="M 432.434534 188.832917 
L 432.434534 25.752917 
" style="fill:none;stroke:#b0b0b0;stroke-linecap:square;stroke-width:0.8;"/>
     </g>
     <g id="line2d_45">
      <g>
       <use style="stroke:#000000;stroke-width:0.8;" x="432.434534" xlink:href="#m876a9a3c44" y="188.832917"/>
      </g>
     </g>
     <g id="text_25">
      <!-- $\mathdefault{−2}$ -->
      <g transform="translate(424.858794 204.135097)scale(0.12 -0.12)">
       <use transform="scale(0.996264)" xlink:href="#CMSY10-0"/>
       <use transform="translate(77.487468 0)scale(0.996264)" xlink:href="#CMR17-32"/>
      </g>
     </g>
    </g>
    <g id="xtick_16">
     <g id="line2d_46">
      <path clip-path="url(#pc7f768fb43)" d="M 455.515466 188.832917 
L 455.515466 25.752917 
" style="fill:none;stroke:#b0b0b0;stroke-linecap:square;stroke-width:0.8;"/>
     </g>
     <g id="line2d_47">
      <g>
       <use style="stroke:#000000;stroke-width:0.8;" x="455.515466" xlink:href="#m876a9a3c44" y="188.832917"/>
      </g>
     </g>
     <g id="text_26">
      <!-- $\mathdefault{−1}$ -->
      <g transform="translate(447.939727 204.135097)scale(0.12 -0.12)">
       <use transform="scale(0.996264)" xlink:href="#CMSY10-0"/>
       <use transform="translate(77.487468 0)scale(0.996264)" xlink:href="#CMR17-31"/>
      </g>
     </g>
    </g>
    <g id="xtick_17">
     <g id="line2d_48">
      <path clip-path="url(#pc7f768fb43)" d="M 478.596399 188.832917 
L 478.596399 25.752917 
" style="fill:none;stroke:#b0b0b0;stroke-linecap:square;stroke-width:0.8;"/>
     </g>
     <g id="line2d_49">
      <g>
       <use style="stroke:#000000;stroke-width:0.8;" x="478.596399" xlink:href="#m876a9a3c44" y="188.832917"/>
      </g>
     </g>
     <g id="text_27">
      <!-- $\mathdefault{0}$ -->
      <g transform="translate(475.669904 204.135097)scale(0.12 -0.12)">
       <use transform="scale(0.996264)" xlink:href="#CMR17-30"/>
      </g>
     </g>
    </g>
    <g id="xtick_18">
     <g id="line2d_50">
      <path clip-path="url(#pc7f768fb43)" d="M 501.677331 188.832917 
L 501.677331 25.752917 
" style="fill:none;stroke:#b0b0b0;stroke-linecap:square;stroke-width:0.8;"/>
     </g>
     <g id="line2d_51">
      <g>
       <use style="stroke:#000000;stroke-width:0.8;" x="501.677331" xlink:href="#m876a9a3c44" y="188.832917"/>
      </g>
     </g>
     <g id="text_28">
      <!-- $\mathdefault{1}$ -->
      <g transform="translate(498.750836 204.135097)scale(0.12 -0.12)">
       <use transform="scale(0.996264)" xlink:href="#CMR17-31"/>
      </g>
     </g>
    </g>
    <g id="xtick_19">
     <g id="line2d_52">
      <path clip-path="url(#pc7f768fb43)" d="M 524.758263 188.832917 
L 524.758263 25.752917 
" style="fill:none;stroke:#b0b0b0;stroke-linecap:square;stroke-width:0.8;"/>
     </g>
     <g id="line2d_53">
      <g>
       <use style="stroke:#000000;stroke-width:0.8;" x="524.758263" xlink:href="#m876a9a3c44" y="188.832917"/>
      </g>
     </g>
     <g id="text_29">
      <!-- $\mathdefault{2}$ -->
      <g transform="translate(521.831768 204.135097)scale(0.12 -0.12)">
       <use transform="scale(0.996264)" xlink:href="#CMR17-32"/>
      </g>
     </g>
    </g>
    <g id="xtick_20">
     <g id="line2d_54">
      <path clip-path="url(#pc7f768fb43)" d="M 547.839195 188.832917 
L 547.839195 25.752917 
" style="fill:none;stroke:#b0b0b0;stroke-linecap:square;stroke-width:0.8;"/>
     </g>
     <g id="line2d_55">
      <g>
       <use style="stroke:#000000;stroke-width:0.8;" x="547.839195" xlink:href="#m876a9a3c44" y="188.832917"/>
      </g>
     </g>
     <g id="text_30">
      <!-- $\mathdefault{3}$ -->
      <g transform="translate(544.9127 204.135097)scale(0.12 -0.12)">
       <use transform="scale(0.996264)" xlink:href="#CMR17-33"/>
      </g>
     </g>
    </g>
    <g id="xtick_21">
     <g id="line2d_56">
      <path clip-path="url(#pc7f768fb43)" d="M 570.920127 188.832917 
L 570.920127 25.752917 
" style="fill:none;stroke:#b0b0b0;stroke-linecap:square;stroke-width:0.8;"/>
     </g>
     <g id="line2d_57">
      <g>
       <use style="stroke:#000000;stroke-width:0.8;" x="570.920127" xlink:href="#m876a9a3c44" y="188.832917"/>
      </g>
     </g>
     <g id="text_31">
      <!-- $\mathdefault{4}$ -->
      <g transform="translate(567.993632 204.135097)scale(0.12 -0.12)">
       <use transform="scale(0.996264)" xlink:href="#CMR17-34"/>
      </g>
     </g>
    </g>
    <g id="xtick_22">
     <g id="line2d_58">
      <path clip-path="url(#pc7f768fb43)" d="M 594.00106 188.832917 
L 594.00106 25.752917 
" style="fill:none;stroke:#b0b0b0;stroke-linecap:square;stroke-width:0.8;"/>
     </g>
     <g id="line2d_59">
      <g>
       <use style="stroke:#000000;stroke-width:0.8;" x="594.00106" xlink:href="#m876a9a3c44" y="188.832917"/>
      </g>
     </g>
     <g id="text_32">
      <!-- $\mathdefault{5}$ -->
      <g transform="translate(591.074564 204.135097)scale(0.12 -0.12)">
       <use transform="scale(0.996264)" xlink:href="#CMR17-35"/>
      </g>
     </g>
    </g>
    <g id="text_33">
     <!-- $t$ -->
     <g transform="translate(476.015151 220.145569)scale(0.14 -0.14)">
      <use transform="scale(0.996264)" xlink:href="#CMMI12-74"/>
     </g>
    </g>
   </g>
   <g id="matplotlib.axis_4">
    <g id="ytick_8">
     <g id="line2d_60">
      <path clip-path="url(#pc7f768fb43)" d="M 351.662812 176.535714 
L 605.299176 176.535714 
" style="fill:none;stroke:#b0b0b0;stroke-linecap:square;stroke-width:0.8;"/>
     </g>
     <g id="line2d_61">
      <g>
       <use style="stroke:#000000;stroke-width:0.8;" x="351.662812" xlink:href="#m0fbd6e71e2" y="176.535714"/>
      </g>
     </g>
     <g id="text_34">
      <!-- $\mathdefault{−3}$ -->
      <g transform="translate(329.511333 180.686804)scale(0.12 -0.12)">
       <use transform="scale(0.996264)" xlink:href="#CMSY10-0"/>
       <use transform="translate(77.487468 0)scale(0.996264)" xlink:href="#CMR17-33"/>
      </g>
     </g>
    </g>
    <g id="ytick_9">
     <g id="line2d_62">
      <path clip-path="url(#pc7f768fb43)" d="M 351.662812 153.454782 
L 605.299176 153.454782 
" style="fill:none;stroke:#b0b0b0;stroke-linecap:square;stroke-width:0.8;"/>
     </g>
     <g id="line2d_63">
      <g>
       <use style="stroke:#000000;stroke-width:0.8;" x="351.662812" xlink:href="#m0fbd6e71e2" y="153.454782"/>
      </g>
     </g>
     <g id="text_35">
      <!-- $\mathdefault{−2}$ -->
      <g transform="translate(329.511333 157.605872)scale(0.12 -0.12)">
       <use transform="scale(0.996264)" xlink:href="#CMSY10-0"/>
       <use transform="translate(77.487468 0)scale(0.996264)" xlink:href="#CMR17-32"/>
      </g>
     </g>
    </g>
    <g id="ytick_10">
     <g id="line2d_64">
      <path clip-path="url(#pc7f768fb43)" d="M 351.662812 130.37385 
L 605.299176 130.37385 
" style="fill:none;stroke:#b0b0b0;stroke-linecap:square;stroke-width:0.8;"/>
     </g>
     <g id="line2d_65">
      <g>
       <use style="stroke:#000000;stroke-width:0.8;" x="351.662812" xlink:href="#m0fbd6e71e2" y="130.37385"/>
      </g>
     </g>
     <g id="text_36">
      <!-- $\mathdefault{−1}$ -->
      <g transform="translate(329.511333 134.524939)scale(0.12 -0.12)">
       <use transform="scale(0.996264)" xlink:href="#CMSY10-0"/>
       <use transform="translate(77.487468 0)scale(0.996264)" xlink:href="#CMR17-31"/>
      </g>
     </g>
    </g>
    <g id="ytick_11">
     <g id="line2d_66">
      <path clip-path="url(#pc7f768fb43)" d="M 351.662812 107.292917 
L 605.299176 107.292917 
" style="fill:none;stroke:#b0b0b0;stroke-linecap:square;stroke-width:0.8;"/>
     </g>
     <g id="line2d_67">
      <g>
       <use style="stroke:#000000;stroke-width:0.8;" x="351.662812" xlink:href="#m0fbd6e71e2" y="107.292917"/>
      </g>
     </g>
     <g id="text_37">
      <!-- $\mathdefault{0}$ -->
      <g transform="translate(338.809822 111.444007)scale(0.12 -0.12)">
       <use transform="scale(0.996264)" xlink:href="#CMR17-30"/>
      </g>
     </g>
    </g>
    <g id="ytick_12">
     <g id="line2d_68">
      <path clip-path="url(#pc7f768fb43)" d="M 351.662812 84.211985 
L 605.299176 84.211985 
" style="fill:none;stroke:#b0b0b0;stroke-linecap:square;stroke-width:0.8;"/>
     </g>
     <g id="line2d_69">
      <g>
       <use style="stroke:#000000;stroke-width:0.8;" x="351.662812" xlink:href="#m0fbd6e71e2" y="84.211985"/>
      </g>
     </g>
     <g id="text_38">
      <!-- $\mathdefault{1}$ -->
      <g transform="translate(338.809822 88.363075)scale(0.12 -0.12)">
       <use transform="scale(0.996264)" xlink:href="#CMR17-31"/>
      </g>
     </g>
    </g>
    <g id="ytick_13">
     <g id="line2d_70">
      <path clip-path="url(#pc7f768fb43)" d="M 351.662812 61.131053 
L 605.299176 61.131053 
" style="fill:none;stroke:#b0b0b0;stroke-linecap:square;stroke-width:0.8;"/>
     </g>
     <g id="line2d_71">
      <g>
       <use style="stroke:#000000;stroke-width:0.8;" x="351.662812" xlink:href="#m0fbd6e71e2" y="61.131053"/>
      </g>
     </g>
     <g id="text_39">
      <!-- $\mathdefault{2}$ -->
      <g transform="translate(338.809822 65.282143)scale(0.12 -0.12)">
       <use transform="scale(0.996264)" xlink:href="#CMR17-32"/>
      </g>
     </g>
    </g>
    <g id="ytick_14">
     <g id="line2d_72">
      <path clip-path="url(#pc7f768fb43)" d="M 351.662812 38.050121 
L 605.299176 38.050121 
" style="fill:none;stroke:#b0b0b0;stroke-linecap:square;stroke-width:0.8;"/>
     </g>
     <g id="line2d_73">
      <g>
       <use style="stroke:#000000;stroke-width:0.8;" x="351.662812" xlink:href="#m0fbd6e71e2" y="38.050121"/>
      </g>
     </g>
     <g id="text_40">
      <!-- $\mathdefault{3}$ -->
      <g transform="translate(338.809822 42.201211)scale(0.12 -0.12)">
       <use transform="scale(0.996264)" xlink:href="#CMR17-33"/>
      </g>
     </g>
    </g>
    <g id="text_41">
     <!-- $x(t)$ -->
     <g transform="translate(322.024408 118.950191)rotate(-90)scale(0.14 -0.14)">
      <use transform="scale(0.996264)" xlink:href="#CMMI12-78"/>
      <use transform="translate(55.43406 0)scale(0.996264)" xlink:href="#CMR17-28"/>
      <use transform="translate(90.714827 0)scale(0.996264)" xlink:href="#CMMI12-74"/>
      <use transform="translate(125.941158 0)scale(0.996264)" xlink:href="#CMR17-29"/>
     </g>
    </g>
   </g>
   <g id="line2d_74">
    <path clip-path="url(#pc7f768fb43)" d="M 363.191738 67.31557 
L 364.807403 65.442451 
L 366.423068 63.892952 
L 367.807924 62.831538 
L 369.19278 62.022762 
L 370.577636 61.47122 
L 371.962492 61.180047 
L 373.347348 61.150896 
L 374.732204 61.383933 
L 376.11706 61.877834 
L 377.501916 62.629792 
L 378.886772 63.635536 
L 380.502437 65.121956 
L 382.118102 66.934475 
L 383.964577 69.387139 
L 385.811051 72.222574 
L 387.888335 75.834179 
L 390.196428 80.316325 
L 392.735331 85.735138 
L 395.735852 92.660825 
L 399.89042 102.85246 
L 408.199556 123.383653 
L 411.430886 130.707949 
L 413.969789 135.966257 
L 416.277882 140.274308 
L 418.355166 143.708609 
L 420.20164 146.371935 
L 422.048115 148.640642 
L 423.66378 150.283938 
L 425.279445 151.594794 
L 426.664301 152.446034 
L 428.049157 153.040706 
L 429.434013 153.375429 
L 430.818869 153.448302 
L 432.203725 153.258911 
L 433.588581 152.808333 
L 434.973437 152.099126 
L 436.358293 151.135322 
L 437.743149 149.922397 
L 439.358814 148.201727 
L 440.974479 146.164718 
L 442.820954 143.469668 
L 444.898238 140.002577 
L 447.206331 135.662181 
L 449.745233 130.37385 
L 452.745755 123.564746 
L 456.669513 114.036382 
L 466.825123 89.0486 
L 469.825644 82.39511 
L 472.364547 77.276443 
L 474.67264 73.117652 
L 476.749924 69.833857 
L 478.596399 67.31557 
L 480.212064 65.442451 
L 481.827729 63.892952 
L 483.212585 62.831538 
L 484.597441 62.022762 
L 485.982297 61.47122 
L 487.367153 61.180047 
L 488.752009 61.150896 
L 490.136865 61.383933 
L 491.521721 61.877834 
L 492.906577 62.629792 
L 494.291433 63.635536 
L 495.907098 65.121956 
L 497.522763 66.934475 
L 499.369238 69.387139 
L 501.215712 72.222574 
L 503.292996 75.834179 
L 505.601089 80.316325 
L 508.139992 85.735138 
L 511.140513 92.660825 
L 515.295081 102.85246 
L 523.604216 123.383653 
L 526.835547 130.707949 
L 529.374449 135.966257 
L 531.682543 140.274308 
L 533.759827 143.708609 
L 535.606301 146.371935 
L 537.452776 148.640642 
L 539.068441 150.283938 
L 540.684106 151.594794 
L 542.068962 152.446034 
L 543.453818 153.040706 
L 544.838674 153.375429 
L 546.22353 153.448302 
L 547.608386 153.258911 
L 548.993242 152.808333 
L 550.378098 152.099126 
L 551.762954 151.135322 
L 553.14781 149.922397 
L 554.763475 148.201727 
L 556.37914 146.164718 
L 558.225615 143.469668 
L 560.302899 140.002577 
L 562.610992 135.662181 
L 565.149894 130.37385 
L 568.150415 123.564746 
L 572.074174 114.036382 
L 582.229784 89.0486 
L 585.230305 82.39511 
L 587.769208 77.276443 
L 590.077301 73.117652 
L 592.154585 69.833857 
L 593.77025 67.608763 
L 593.77025 67.608763 
" style="fill:none;stroke:#1f77b4;stroke-linecap:square;stroke-width:1.5;"/>
   </g>
   <g id="patch_8">
    <path d="M 351.662812 188.832917 
L 351.662812 25.752917 
" style="fill:none;stroke:#000000;stroke-linecap:square;stroke-linejoin:miter;stroke-width:0.8;"/>
   </g>
   <g id="patch_9">
    <path d="M 605.299176 188.832917 
L 605.299176 25.752917 
" style="fill:none;stroke:#000000;stroke-linecap:square;stroke-linejoin:miter;stroke-width:0.8;"/>
   </g>
   <g id="patch_10">
    <path d="M 351.662812 188.832917 
L 605.299176 188.832917 
" style="fill:none;stroke:#000000;stroke-linecap:square;stroke-linejoin:miter;stroke-width:0.8;"/>
   </g>
   <g id="patch_11">
    <path d="M 351.662812 25.752917 
L 605.299176 25.752917 
" style="fill:none;stroke:#000000;stroke-linecap:square;stroke-linejoin:miter;stroke-width:0.8;"/>
   </g>
   <g id="text_42">
    <!-- $A = 2$, $f = 1/5$, $\varphi = \pi/3$ -->
    <g transform="translate(389.424263 19.752917)scale(0.168 -0.168)">
     <defs>
      <path d="M 2746 4562 
C 2746 4569 2784 4666 2784 4678 
C 2784 4755 2720 4800 2669 4800 
C 2637 4800 2579 4800 2528 4659 
L 384 -1363 
C 384 -1370 346 -1465 346 -1478 
C 346 -1555 410 -1600 461 -1600 
C 499 -1600 557 -1593 602 -1459 
L 2746 4562 
z
" id="CMMI12-3d" transform="scale(0.015625)"/>
      <path d="M 1658 2408 
L 2381 2408 
C 2208 1692 2099 1226 2099 716 
C 2099 626 2099 -64 2362 -64 
C 2496 -64 2611 57 2611 166 
C 2611 197 2611 210 2566 306 
C 2394 747 2394 1296 2394 1341 
C 2394 1379 2394 1832 2528 2408 
L 3245 2408 
C 3328 2408 3539 2408 3539 2612 
C 3539 2752 3418 2752 3302 2752 
L 1197 2752 
C 1050 2752 832 2752 538 2440 
C 371 2254 166 1916 166 1878 
C 166 1840 198 1827 237 1827 
C 282 1827 288 1846 320 1884 
C 653 2408 986 2408 1146 2408 
L 1510 2408 
C 1370 1929 1210 1373 685 256 
C 634 154 634 140 634 102 
C 634 -32 749 -64 806 -64 
C 992 -64 1043 102 1120 370 
C 1222 696 1222 709 1286 964 
L 1658 2408 
z
" id="CMMI12-19" transform="scale(0.015625)"/>
     </defs>
     <use transform="scale(0.996264)" xlink:href="#CMMI12-41"/>
     <use transform="translate(100.801894 0)scale(0.996264)" xlink:href="#CMR17-3d"/>
     <use transform="translate(200.190691 0)scale(0.996264)" xlink:href="#CMR17-32"/>
     <use transform="translate(245.881168 0)scale(0.996264)" xlink:href="#CMR17-2c"/>
     <use transform="translate(300.828193 0)scale(0.996264)" xlink:href="#CMMI12-66"/>
     <use transform="translate(387.222507 0)scale(0.996264)" xlink:href="#CMR17-3d"/>
     <use transform="translate(486.611304 0)scale(0.996264)" xlink:href="#CMR17-31"/>
     <use transform="translate(532.301781 0)scale(0.996264)" xlink:href="#CMMI12-3d"/>
     <use transform="translate(581.0767 0)scale(0.996264)" xlink:href="#CMR17-35"/>
     <use transform="translate(626.767177 0)scale(0.996264)" xlink:href="#CMR17-2c"/>
     <use transform="translate(681.714202 0)scale(0.996264)" xlink:href="#CMMI12-27"/>
     <use transform="translate(773.291274 0)scale(0.996264)" xlink:href="#CMR17-3d"/>
     <use transform="translate(872.680071 0)scale(0.996264)" xlink:href="#CMMI12-19"/>
     <use transform="translate(931.590672 0)scale(0.996264)" xlink:href="#CMMI12-3d"/>
     <use transform="translate(980.365591 0)scale(0.996264)" xlink:href="#CMR17-33"/>
    </g>
   </g>
  </g>
 </g>
 <defs>
  <clipPath id="p092aed97ae">
   <rect height="163.08" width="253.636364" x="47.299176" y="25.752917"/>
  </clipPath>
  <clipPath id="pc7f768fb43">
   <rect height="163.08" width="253.636364" x="351.662812" y="25.752917"/>
  </clipPath>
 </defs>
</svg>
