<?xml version="1.0" encoding="utf-8" standalone="no"?>
<!DOCTYPE svg PUBLIC "-//W3C//DTD SVG 1.1//EN"
  "http://www.w3.org/Graphics/SVG/1.1/DTD/svg11.dtd">
<svg height="525.306465pt" version="1.1" viewBox="0 0 627.132602 525.306465" width="627.132602pt" xmlns="http://www.w3.org/2000/svg" xmlns:xlink="http://www.w3.org/1999/xlink">
 <metadata>
  <rdf:RDF xmlns:cc="http://creativecommons.org/ns#" xmlns:dc="http://purl.org/dc/elements/1.1/" xmlns:rdf="http://www.w3.org/1999/02/22-rdf-syntax-ns#">
   <cc:Work>
    <dc:type rdf:resource="http://purl.org/dc/dcmitype/StillImage"/>
    <dc:date>2021-12-16T16:42:49.544104</dc:date>
    <dc:format>image/svg+xml</dc:format>
    <dc:creator>
     <cc:Agent>
      <dc:title>Matplotlib v3.4.3, https://matplotlib.org/</dc:title>
     </cc:Agent>
    </dc:creator>
   </cc:Work>
  </rdf:RDF>
 </metadata>
 <defs>
  <style type="text/css">*{stroke-linecap:butt;stroke-linejoin:round;}</style>
 </defs>
 <g id="figure_1">
  <g id="patch_1">
   <path d="M 0 525.306465 
L 627.132602 525.306465 
L 627.132602 0 
L 0 0 
z
" style="fill:none;"/>
  </g>
  <g id="axes_1">
   <g id="patch_2">
    <path d="M 25.369064 235.937401 
L 283.932602 235.937401 
L 283.932602 41.715266 
L 25.369064 41.715266 
z
" style="fill:#ffffff;"/>
   </g>
   <g id="matplotlib.axis_1">
    <g id="text_1">
     <!-- temps -->
     <g transform="translate(134.230401 251.006989)scale(0.16 -0.16)">
      <defs>
       <path d="M 966 2560 
L 1862 2560 
L 1862 2725 
L 966 2725 
L 966 3904 
L 851 3904 
C 838 3245 614 2668 70 2668 
L 70 2560 
L 627 2560 
L 627 771 
C 627 650 627 -64 1370 -64 
C 1747 -64 1965 306 1965 777 
L 1965 1140 
L 1850 1140 
L 1850 783 
C 1850 344 1677 51 1408 51 
C 1222 51 966 178 966 758 
L 966 2560 
z
" id="CMR17-74" transform="scale(0.015625)"/>
       <path d="M 2438 1472 
C 2464 1498 2464 1511 2464 1576 
C 2464 2238 2118 2816 1389 2816 
C 710 2816 173 2169 173 1383 
C 173 551 781 -64 1459 -64 
C 2176 -64 2458 607 2458 740 
C 2458 784 2419 784 2406 784 
C 2362 784 2355 771 2330 696 
C 2189 265 1837 51 1504 51 
C 1229 51 954 203 781 480 
C 582 803 582 1176 582 1472 
L 2438 1472 
z
M 589 1568 
C 634 2505 1126 2714 1382 2714 
C 1818 2714 2112 2297 2118 1568 
L 589 1568 
z
" id="CMR17-65" transform="scale(0.015625)"/>
       <path d="M 4326 1933 
C 4326 2252 4269 2790 3507 2790 
C 3072 2790 2771 2496 2656 2151 
L 2650 2151 
C 2573 2676 2195 2790 1837 2790 
C 1331 2790 1069 2400 973 2144 
L 966 2144 
L 966 2790 
L 211 2720 
L 211 2554 
C 589 2554 646 2515 646 2208 
L 646 428 
C 646 184 621 153 211 153 
L 211 -13 
C 365 0 646 0 813 0 
C 979 0 1267 0 1421 -13 
L 1421 153 
C 1011 153 986 178 986 428 
L 986 1658 
C 986 2247 1344 2688 1792 2688 
C 2266 2688 2317 2266 2317 1958 
L 2317 428 
C 2317 184 2291 153 1882 153 
L 1882 -13 
C 2035 0 2317 0 2483 0 
C 2650 0 2938 0 3091 -13 
L 3091 153 
C 2682 153 2656 178 2656 428 
L 2656 1658 
C 2656 2247 3014 2688 3462 2688 
C 3936 2688 3987 2266 3987 1958 
L 3987 428 
C 3987 184 3962 153 3552 153 
L 3552 -13 
C 3706 0 3987 0 4154 0 
C 4320 0 4608 0 4762 -13 
L 4762 153 
C 4352 153 4326 178 4326 428 
L 4326 1933 
z
" id="CMR17-6d" transform="scale(0.015625)"/>
       <path d="M 1408 -1063 
C 998 -1063 973 -1037 973 -789 
L 973 402 
C 1158 134 1427 -38 1766 -38 
C 2406 -38 3053 523 3053 1388 
C 3053 2191 2496 2802 1837 2802 
C 1453 2802 1139 2592 960 2338 
L 960 2802 
L 198 2732 
L 198 2567 
C 576 2567 634 2528 634 2223 
L 634 -789 
C 634 -1031 608 -1063 198 -1063 
L 198 -1228 
C 352 -1216 634 -1216 800 -1216 
C 966 -1216 1254 -1216 1408 -1228 
L 1408 -1063 
z
M 973 2012 
C 973 2102 973 2235 1222 2471 
C 1254 2497 1472 2688 1792 2688 
C 2259 2688 2643 2108 2643 1382 
C 2643 656 2234 64 1728 64 
C 1498 64 1248 172 1056 472 
C 973 612 973 650 973 752 
L 973 2012 
z
" id="CMR17-70" transform="scale(0.015625)"/>
       <path d="M 1978 2697 
C 1978 2813 1971 2819 1933 2819 
C 1907 2819 1901 2813 1824 2717 
C 1805 2691 1747 2626 1728 2601 
C 1523 2819 1235 2819 1126 2819 
C 416 2819 160 2447 160 2076 
C 160 1498 813 1365 998 1325 
C 1402 1243 1542 1217 1677 1101 
C 1760 1025 1901 884 1901 654 
C 1901 384 1747 38 1158 38 
C 602 38 403 460 288 1021 
C 269 1110 269 1117 218 1117 
C 166 1117 160 1110 160 983 
L 160 63 
C 160 -51 166 -58 205 -58 
C 237 -58 243 -51 275 0 
C 314 57 410 211 448 276 
C 576 103 800 -64 1158 -64 
C 1792 -64 2131 283 2131 784 
C 2131 1112 1958 1285 1875 1362 
C 1683 1561 1459 1606 1190 1657 
C 838 1735 390 1825 390 2217 
C 390 2383 480 2737 1126 2737 
C 1811 2737 1850 2094 1862 1888 
C 1869 1856 1901 1849 1920 1849 
C 1978 1849 1978 1869 1978 1978 
L 1978 2697 
z
" id="CMR17-73" transform="scale(0.015625)"/>
      </defs>
      <use transform="scale(0.996264)" xlink:href="#CMR17-74"/>
      <use transform="translate(35.280768 0)scale(0.996264)" xlink:href="#CMR17-65"/>
      <use transform="translate(75.766428 0)scale(0.996264)" xlink:href="#CMR17-6d"/>
      <use transform="translate(152.686018 0)scale(0.996264)" xlink:href="#CMR17-70"/>
      <use transform="translate(203.581388 0)scale(0.996264)" xlink:href="#CMR17-73"/>
     </g>
    </g>
   </g>
   <g id="matplotlib.axis_2">
    <g id="text_2">
     <!-- fréquence -->
     <g transform="translate(18.269588 170.909391)rotate(-90)scale(0.16 -0.16)">
      <defs>
       <path d="M 979 2560 
L 1709 2560 
L 1709 2725 
L 966 2725 
L 966 3494 
C 966 4022 1235 4352 1510 4352 
C 1594 4352 1690 4327 1754 4282 
C 1702 4269 1568 4225 1568 4067 
C 1568 3901 1696 3850 1786 3850 
C 1875 3850 2003 3901 2003 4067 
C 2003 4308 1773 4454 1517 4454 
C 1152 4454 653 4156 653 3481 
L 653 2725 
L 141 2725 
L 141 2560 
L 653 2560 
L 653 427 
C 653 184 627 153 218 153 
L 218 -13 
C 371 0 666 0 832 0 
C 1018 0 1344 0 1517 -13 
L 1517 153 
C 1056 153 979 153 979 439 
L 979 2560 
z
" id="CMR17-66" transform="scale(0.015625)"/>
       <path d="M 960 1497 
C 960 2112 1222 2688 1702 2688 
C 1747 2688 1792 2682 1837 2662 
C 1837 2662 1696 2617 1696 2452 
C 1696 2298 1818 2234 1914 2234 
C 1990 2234 2131 2279 2131 2458 
C 2131 2663 1926 2790 1709 2790 
C 1222 2790 1011 2317 947 2093 
L 941 2093 
L 941 2790 
L 198 2720 
L 198 2554 
C 576 2554 634 2515 634 2208 
L 634 428 
C 634 184 608 153 198 153 
L 198 -13 
C 352 0 646 0 813 0 
C 998 0 1325 0 1498 -13 
L 1498 153 
C 1037 153 960 153 960 440 
L 960 1497 
z
" id="CMR17-72" transform="scale(0.015625)"/>
       <path d="M 2221 4091 
C 2298 4161 2317 4174 2317 4244 
C 2317 4339 2234 4416 2144 4416 
C 2067 4416 2042 4384 1978 4308 
L 1254 3390 
C 1210 3333 1210 3327 1210 3320 
C 1210 3314 1267 3256 1280 3244 
L 2221 4091 
z
" id="CMR17-13" transform="scale(0.015625)"/>
       <path d="M 2630 2802 
L 2528 2802 
L 2336 2172 
C 2189 2509 1920 2802 1491 2802 
C 838 2802 211 2223 211 1383 
C 211 548 800 -38 1440 -38 
C 1933 -38 2208 338 2291 478 
L 2291 -789 
C 2291 -1031 2266 -1063 1856 -1063 
L 1856 -1228 
C 2010 -1216 2291 -1216 2458 -1216 
C 2624 -1216 2912 -1216 3066 -1228 
L 3066 -1063 
C 2656 -1063 2630 -1037 2630 -789 
L 2630 2802 
z
M 2304 886 
C 2304 612 2074 357 2054 338 
C 1856 115 1626 64 1472 64 
C 992 64 621 669 621 1375 
C 621 2121 1043 2688 1536 2688 
C 2048 2688 2304 2108 2304 1777 
L 2304 886 
z
" id="CMR17-71" transform="scale(0.015625)"/>
       <path d="M 1882 2693 
L 1882 2528 
C 2259 2528 2317 2489 2317 2186 
L 2317 1032 
C 2317 500 2029 38 1555 38 
C 1030 38 986 348 986 678 
L 986 2763 
L 211 2693 
L 211 2528 
C 467 2528 640 2528 646 2274 
L 646 1058 
C 646 633 646 361 813 183 
C 896 101 1056 -64 1517 -64 
C 2061 -64 2272 377 2323 506 
L 2330 506 
L 2330 -63 
L 3091 -63 
L 3091 128 
C 2714 128 2656 166 2656 473 
L 2656 2763 
L 1882 2693 
z
" id="CMR17-75" transform="scale(0.015625)"/>
       <path d="M 2656 1933 
C 2656 2259 2592 2790 1837 2790 
C 1331 2790 1069 2400 973 2144 
L 966 2144 
L 966 2790 
L 211 2720 
L 211 2554 
C 589 2554 646 2515 646 2208 
L 646 428 
C 646 184 621 153 211 153 
L 211 -13 
C 365 0 646 0 813 0 
C 979 0 1267 0 1421 -13 
L 1421 153 
C 1011 153 986 178 986 428 
L 986 1658 
C 986 2247 1344 2688 1792 2688 
C 2266 2688 2317 2266 2317 1958 
L 2317 428 
C 2317 184 2291 153 1882 153 
L 1882 -13 
C 2035 0 2317 0 2483 0 
C 2650 0 2938 0 3091 -13 
L 3091 153 
C 2682 153 2656 178 2656 428 
L 2656 1933 
z
" id="CMR17-6e" transform="scale(0.015625)"/>
       <path d="M 2234 2240 
C 2112 2240 1933 2240 1933 2017 
C 1933 1838 2080 1787 2163 1787 
C 2208 1787 2394 1807 2394 2024 
C 2394 2467 1958 2803 1466 2803 
C 787 2803 211 2178 211 1363 
C 211 516 813 -64 1466 -64 
C 2259 -64 2458 677 2458 748 
C 2458 774 2451 793 2406 793 
C 2362 793 2355 787 2330 703 
C 2163 180 1798 51 1523 51 
C 1114 51 621 427 621 1369 
C 621 2338 1094 2688 1472 2688 
C 1722 2688 2093 2573 2234 2240 
z
" id="CMR17-63" transform="scale(0.015625)"/>
      </defs>
      <use transform="scale(0.996264)" xlink:href="#CMR17-66"/>
      <use transform="translate(27.473512 0)scale(0.996264)" xlink:href="#CMR17-72"/>
      <use transform="translate(60.151872 0)scale(0.996264)" xlink:href="#CMR17-13"/>
      <use transform="translate(62.75428 0)scale(0.996264)" xlink:href="#CMR17-65"/>
      <use transform="translate(103.239941 0)scale(0.996264)" xlink:href="#CMR17-71"/>
      <use transform="translate(151.532857 0)scale(0.996264)" xlink:href="#CMR17-75"/>
      <use transform="translate(202.428226 0)scale(0.996264)" xlink:href="#CMR17-65"/>
      <use transform="translate(242.913887 0)scale(0.996264)" xlink:href="#CMR17-6e"/>
      <use transform="translate(293.809257 0)scale(0.996264)" xlink:href="#CMR17-63"/>
      <use transform="translate(334.294917 0)scale(0.996264)" xlink:href="#CMR17-65"/>
     </g>
    </g>
   </g>
   <g id="line2d_1">
    <path clip-path="url(#ped335710f5)" d="M 25.369064 235.937401 
L 25.369064 41.715266 
" style="fill:none;stroke:#000000;stroke-linecap:square;stroke-width:0.8;"/>
   </g>
   <g id="line2d_2">
    <path clip-path="url(#ped335710f5)" d="M 51.225418 235.937401 
L 51.225418 41.715266 
" style="fill:none;stroke:#000000;stroke-linecap:square;stroke-width:0.8;"/>
   </g>
   <g id="line2d_3">
    <path clip-path="url(#ped335710f5)" d="M 77.081772 235.937401 
L 77.081772 41.715266 
" style="fill:none;stroke:#000000;stroke-linecap:square;stroke-width:0.8;"/>
   </g>
   <g id="line2d_4">
    <path clip-path="url(#ped335710f5)" d="M 102.938126 235.937401 
L 102.938126 41.715266 
" style="fill:none;stroke:#000000;stroke-linecap:square;stroke-width:0.8;"/>
   </g>
   <g id="line2d_5">
    <path clip-path="url(#ped335710f5)" d="M 128.794479 235.937401 
L 128.794479 41.715266 
" style="fill:none;stroke:#000000;stroke-linecap:square;stroke-width:0.8;"/>
   </g>
   <g id="line2d_6">
    <path clip-path="url(#ped335710f5)" d="M 154.650833 235.937401 
L 154.650833 41.715266 
" style="fill:none;stroke:#000000;stroke-linecap:square;stroke-width:0.8;"/>
   </g>
   <g id="line2d_7">
    <path clip-path="url(#ped335710f5)" d="M 180.507187 235.937401 
L 180.507187 41.715266 
" style="fill:none;stroke:#000000;stroke-linecap:square;stroke-width:0.8;"/>
   </g>
   <g id="line2d_8">
    <path clip-path="url(#ped335710f5)" d="M 206.363541 235.937401 
L 206.363541 41.715266 
" style="fill:none;stroke:#000000;stroke-linecap:square;stroke-width:0.8;"/>
   </g>
   <g id="line2d_9">
    <path clip-path="url(#ped335710f5)" d="M 232.219894 235.937401 
L 232.219894 41.715266 
" style="fill:none;stroke:#000000;stroke-linecap:square;stroke-width:0.8;"/>
   </g>
   <g id="line2d_10">
    <path clip-path="url(#ped335710f5)" d="M 258.076248 235.937401 
L 258.076248 41.715266 
" style="fill:none;stroke:#000000;stroke-linecap:square;stroke-width:0.8;"/>
   </g>
   <g id="patch_3">
    <path d="M 25.369064 235.937401 
L 25.369064 41.715266 
" style="fill:none;stroke:#000000;stroke-linecap:square;stroke-linejoin:miter;stroke-width:0.8;"/>
   </g>
   <g id="patch_4">
    <path d="M 283.932602 235.937401 
L 283.932602 41.715266 
" style="fill:none;stroke:#000000;stroke-linecap:square;stroke-linejoin:miter;stroke-width:0.8;"/>
   </g>
   <g id="patch_5">
    <path d="M 25.369064 235.937401 
L 283.932602 235.937401 
" style="fill:none;stroke:#000000;stroke-linecap:square;stroke-linejoin:miter;stroke-width:0.8;"/>
   </g>
   <g id="patch_6">
    <path d="M 25.369064 41.715266 
L 283.932602 41.715266 
" style="fill:none;stroke:#000000;stroke-linecap:square;stroke-linejoin:miter;stroke-width:0.8;"/>
   </g>
   <g id="text_3">
    <!-- Représentation temporelle -->
    <g transform="translate(65.188169 18.269588)scale(0.16 -0.16)">
     <defs>
      <path d="M 2509 2146 
C 3117 2268 3629 2676 3629 3186 
C 3629 3785 2950 4326 2054 4326 
L 333 4326 
L 333 4160 
C 774 4160 845 4160 845 3873 
L 845 415 
C 845 128 774 128 333 128 
L 333 -26 
C 518 -26 851 -26 1050 -26 
C 1248 -26 1581 -26 1766 -26 
L 1766 128 
C 1325 128 1254 128 1254 417 
L 1254 2112 
L 2003 2112 
C 2368 2112 2573 1964 2662 1881 
C 2918 1632 2918 1459 2918 1024 
C 2918 595 2918 377 3110 160 
C 3354 -102 3680 -128 3821 -128 
C 4294 -128 4365 396 4365 503 
C 4365 540 4365 585 4307 585 
C 4256 585 4250 547 4250 522 
C 4218 112 4032 -26 3834 -26 
C 3482 -26 3443 375 3405 764 
C 3386 898 3373 993 3360 1133 
C 3322 1452 3270 1917 2509 2146 
z
M 1984 2214 
L 1254 2214 
L 1254 3913 
C 1254 4129 1267 4160 1523 4160 
L 1990 4160 
C 2522 4160 3142 3977 3142 3190 
C 3142 2372 2464 2214 1984 2214 
z
" id="CMR17-52" transform="scale(0.015625)"/>
      <path d="M 2304 1653 
C 2304 2072 2304 2294 2035 2543 
C 1798 2752 1523 2816 1306 2816 
C 800 2816 435 2407 435 1971 
C 435 1728 627 1728 666 1728 
C 749 1728 896 1778 896 1954 
C 896 2112 774 2181 666 2181 
C 640 2181 608 2174 589 2168 
C 723 2592 1069 2714 1293 2714 
C 1613 2714 1965 2429 1965 1885 
L 1965 1600 
C 1587 1600 1133 1549 774 1357 
C 371 1133 256 813 256 570 
C 256 77 832 -64 1171 -64 
C 1523 -64 1850 139 1990 511 
C 2003 233 2182 -18 2464 -18 
C 2598 -18 2938 70 2938 567 
L 2938 920 
L 2822 920 
L 2822 562 
C 2822 178 2650 128 2566 128 
C 2304 128 2304 458 2304 738 
L 2304 1653 
z
M 1965 870 
C 1965 317 1568 38 1216 38 
C 896 38 646 275 646 570 
C 646 761 730 1100 1101 1305 
C 1408 1478 1760 1504 1965 1504 
L 1965 870 
z
" id="CMR17-61" transform="scale(0.015625)"/>
      <path d="M 992 3909 
C 992 4049 877 4170 730 4170 
C 589 4170 467 4056 467 3909 
C 467 3769 582 3648 730 3648 
C 870 3648 992 3763 992 3909 
z
M 243 2706 
L 243 2541 
C 602 2541 653 2502 653 2197 
L 653 427 
C 653 184 627 153 218 153 
L 218 -13 
C 371 0 646 0 806 0 
C 960 0 1222 0 1370 -13 
L 1370 153 
C 992 153 979 191 979 420 
L 979 2776 
L 243 2706 
z
" id="CMR17-69" transform="scale(0.015625)"/>
      <path d="M 2758 1356 
C 2758 2176 2163 2816 1466 2816 
C 768 2816 173 2176 173 1356 
C 173 551 768 -64 1466 -64 
C 2163 -64 2758 551 2758 1356 
z
M 1466 51 
C 1165 51 909 230 762 480 
C 602 767 582 1126 582 1408 
C 582 1677 595 2010 762 2298 
C 890 2509 1139 2714 1466 2714 
C 1754 2714 1997 2554 2150 2330 
C 2349 2029 2349 1607 2349 1408 
C 2349 1158 2336 775 2163 467 
C 1984 173 1709 51 1466 51 
z
" id="CMR17-6f" transform="scale(0.015625)"/>
      <path d="M 979 4396 
L 218 4326 
L 218 4160 
C 595 4160 653 4122 653 3817 
L 653 426 
C 653 184 627 153 218 153 
L 218 -13 
C 371 0 653 0 813 0 
C 979 0 1261 0 1414 -13 
L 1414 153 
C 1005 153 979 178 979 426 
L 979 4396 
z
" id="CMR17-6c" transform="scale(0.015625)"/>
     </defs>
     <use transform="scale(0.996264)" xlink:href="#CMR17-52"/>
     <use transform="translate(67.791102 0)scale(0.996264)" xlink:href="#CMR17-65"/>
     <use transform="translate(108.276762 0)scale(0.996264)" xlink:href="#CMR17-70"/>
     <use transform="translate(159.172132 0)scale(0.996264)" xlink:href="#CMR17-72"/>
     <use transform="translate(191.850492 0)scale(0.996264)" xlink:href="#CMR17-13"/>
     <use transform="translate(194.4529 0)scale(0.996264)" xlink:href="#CMR17-65"/>
     <use transform="translate(234.93856 0)scale(0.996264)" xlink:href="#CMR17-73"/>
     <use transform="translate(270.739898 0)scale(0.996264)" xlink:href="#CMR17-65"/>
     <use transform="translate(311.225559 0)scale(0.996264)" xlink:href="#CMR17-6e"/>
     <use transform="translate(359.518474 0)scale(0.996264)" xlink:href="#CMR17-74"/>
     <use transform="translate(394.799242 0)scale(0.996264)" xlink:href="#CMR17-61"/>
     <use transform="translate(440.489719 0)scale(0.996264)" xlink:href="#CMR17-74"/>
     <use transform="translate(475.770487 0)scale(0.996264)" xlink:href="#CMR17-69"/>
     <use transform="translate(500.641546 0)scale(0.996264)" xlink:href="#CMR17-6f"/>
     <use transform="translate(546.332023 0)scale(0.996264)" xlink:href="#CMR17-6e"/>
     <use transform="translate(627.303359 0)scale(0.996264)" xlink:href="#CMR17-74"/>
     <use transform="translate(662.584127 0)scale(0.996264)" xlink:href="#CMR17-65"/>
     <use transform="translate(703.069787 0)scale(0.996264)" xlink:href="#CMR17-6d"/>
     <use transform="translate(779.989377 0)scale(0.996264)" xlink:href="#CMR17-70"/>
     <use transform="translate(833.487186 0)scale(0.996264)" xlink:href="#CMR17-6f"/>
     <use transform="translate(879.177663 0)scale(0.996264)" xlink:href="#CMR17-72"/>
     <use transform="translate(914.45843 0)scale(0.996264)" xlink:href="#CMR17-65"/>
     <use transform="translate(954.944091 0)scale(0.996264)" xlink:href="#CMR17-6c"/>
     <use transform="translate(979.815149 0)scale(0.996264)" xlink:href="#CMR17-6c"/>
     <use transform="translate(1004.686208 0)scale(0.996264)" xlink:href="#CMR17-65"/>
    </g>
    <!-- $x[n]$ -->
    <g transform="translate(141.222156 35.715266)scale(0.16 -0.16)">
     <defs>
      <path d="M 3034 2606 
C 2829 2567 2752 2414 2752 2293 
C 2752 2139 2874 2088 2963 2088 
C 3155 2088 3290 2254 3290 2427 
C 3290 2695 2982 2816 2714 2816 
C 2323 2816 2106 2433 2048 2312 
C 1901 2816 1504 2816 1389 2816 
C 736 2816 390 1980 390 1839 
C 390 1814 416 1782 461 1782 
C 512 1782 525 1820 538 1846 
C 755 2555 1184 2689 1370 2689 
C 1658 2689 1715 2420 1715 2267 
C 1715 2127 1677 1980 1600 1673 
L 1382 798 
C 1286 415 1101 64 762 64 
C 730 64 570 64 435 147 
C 666 192 717 383 717 460 
C 717 588 621 664 499 664 
C 346 664 179 530 179 326 
C 179 57 480 -64 755 -64 
C 1062 -64 1280 179 1414 441 
C 1517 64 1837 -64 2074 -64 
C 2726 -64 3072 773 3072 913 
C 3072 945 3046 971 3008 971 
C 2950 971 2944 939 2925 888 
C 2752 326 2381 64 2093 64 
C 1869 64 1747 230 1747 492 
C 1747 632 1773 734 1875 1156 
L 2099 2024 
C 2195 2408 2413 2689 2707 2689 
C 2720 2689 2899 2689 3034 2606 
z
" id="CMMI12-78" transform="scale(0.015625)"/>
      <path d="M 1504 -1600 
L 1504 -1377 
L 902 -1377 
L 902 4544 
L 1504 4544 
L 1504 4767 
L 678 4767 
L 678 -1600 
L 1504 -1600 
z
" id="CMR17-5b" transform="scale(0.015625)"/>
      <path d="M 1318 1871 
C 1331 1910 1491 2229 1728 2433 
C 1894 2586 2112 2689 2362 2689 
C 2618 2689 2707 2497 2707 2242 
C 2707 1878 2445 1150 2317 805 
C 2259 651 2227 568 2227 453 
C 2227 166 2426 -64 2733 -64 
C 3328 -64 3552 875 3552 913 
C 3552 945 3526 971 3488 971 
C 3430 971 3424 952 3392 843 
C 3245 319 3002 64 2752 64 
C 2688 64 2586 64 2586 269 
C 2586 429 2656 621 2694 710 
C 2822 1063 3091 1780 3091 2145 
C 3091 2528 2867 2816 2381 2816 
C 1811 2816 1510 2415 1395 2255 
C 1376 2618 1114 2816 832 2816 
C 627 2816 486 2695 378 2478 
C 262 2248 173 1865 173 1839 
C 173 1814 198 1782 243 1782 
C 294 1782 301 1788 339 1935 
C 442 2325 557 2689 813 2689 
C 960 2689 1011 2586 1011 2395 
C 1011 2254 947 2005 902 1807 
L 723 1118 
C 698 996 627 709 595 594 
C 550 428 480 128 480 96 
C 480 6 550 -64 646 -64 
C 723 -64 813 -26 864 70 
C 877 102 934 326 966 453 
L 1107 1028 
L 1318 1871 
z
" id="CMMI12-6e" transform="scale(0.015625)"/>
      <path d="M 915 4767 
L 90 4767 
L 90 4544 
L 691 4544 
L 691 -1377 
L 90 -1377 
L 90 -1600 
L 915 -1600 
L 915 4767 
z
" id="CMR17-5d" transform="scale(0.015625)"/>
     </defs>
     <use transform="scale(0.996264)" xlink:href="#CMMI12-78"/>
     <use transform="translate(55.43406 0)scale(0.996264)" xlink:href="#CMR17-5b"/>
     <use transform="translate(80.305118 0)scale(0.996264)" xlink:href="#CMMI12-6e"/>
     <use transform="translate(138.535165 0)scale(0.996264)" xlink:href="#CMR17-5d"/>
    </g>
   </g>
  </g>
  <g id="axes_2">
   <g id="patch_7">
    <path d="M 361.369064 235.937401 
L 619.932602 235.937401 
L 619.932602 41.715266 
L 361.369064 41.715266 
z
" style="fill:#ffffff;"/>
   </g>
   <g id="matplotlib.axis_3">
    <g id="text_4">
     <!-- temps -->
     <g transform="translate(470.230401 251.006989)scale(0.16 -0.16)">
      <use transform="scale(0.996264)" xlink:href="#CMR17-74"/>
      <use transform="translate(35.280768 0)scale(0.996264)" xlink:href="#CMR17-65"/>
      <use transform="translate(75.766428 0)scale(0.996264)" xlink:href="#CMR17-6d"/>
      <use transform="translate(152.686018 0)scale(0.996264)" xlink:href="#CMR17-70"/>
      <use transform="translate(203.581388 0)scale(0.996264)" xlink:href="#CMR17-73"/>
     </g>
    </g>
   </g>
   <g id="matplotlib.axis_4">
    <g id="text_5">
     <!-- fréquence -->
     <g transform="translate(354.269588 170.909391)rotate(-90)scale(0.16 -0.16)">
      <use transform="scale(0.996264)" xlink:href="#CMR17-66"/>
      <use transform="translate(27.473512 0)scale(0.996264)" xlink:href="#CMR17-72"/>
      <use transform="translate(60.151872 0)scale(0.996264)" xlink:href="#CMR17-13"/>
      <use transform="translate(62.75428 0)scale(0.996264)" xlink:href="#CMR17-65"/>
      <use transform="translate(103.239941 0)scale(0.996264)" xlink:href="#CMR17-71"/>
      <use transform="translate(151.532857 0)scale(0.996264)" xlink:href="#CMR17-75"/>
      <use transform="translate(202.428226 0)scale(0.996264)" xlink:href="#CMR17-65"/>
      <use transform="translate(242.913887 0)scale(0.996264)" xlink:href="#CMR17-6e"/>
      <use transform="translate(293.809257 0)scale(0.996264)" xlink:href="#CMR17-63"/>
      <use transform="translate(334.294917 0)scale(0.996264)" xlink:href="#CMR17-65"/>
     </g>
    </g>
   </g>
   <g id="line2d_11">
    <path clip-path="url(#p6482d92c64)" d="M 361.369064 235.937401 
L 619.932602 235.937401 
" style="fill:none;stroke:#000000;stroke-linecap:square;stroke-width:0.8;"/>
   </g>
   <g id="line2d_12">
    <path clip-path="url(#p6482d92c64)" d="M 361.369064 216.515187 
L 619.932602 216.515187 
" style="fill:none;stroke:#000000;stroke-linecap:square;stroke-width:0.8;"/>
   </g>
   <g id="line2d_13">
    <path clip-path="url(#p6482d92c64)" d="M 361.369064 197.092974 
L 619.932602 197.092974 
" style="fill:none;stroke:#000000;stroke-linecap:square;stroke-width:0.8;"/>
   </g>
   <g id="line2d_14">
    <path clip-path="url(#p6482d92c64)" d="M 361.369064 177.67076 
L 619.932602 177.67076 
" style="fill:none;stroke:#000000;stroke-linecap:square;stroke-width:0.8;"/>
   </g>
   <g id="line2d_15">
    <path clip-path="url(#p6482d92c64)" d="M 361.369064 158.248547 
L 619.932602 158.248547 
" style="fill:none;stroke:#000000;stroke-linecap:square;stroke-width:0.8;"/>
   </g>
   <g id="line2d_16">
    <path clip-path="url(#p6482d92c64)" d="M 361.369064 138.826334 
L 619.932602 138.826334 
" style="fill:none;stroke:#000000;stroke-linecap:square;stroke-width:0.8;"/>
   </g>
   <g id="line2d_17">
    <path clip-path="url(#p6482d92c64)" d="M 361.369064 119.40412 
L 619.932602 119.40412 
" style="fill:none;stroke:#000000;stroke-linecap:square;stroke-width:0.8;"/>
   </g>
   <g id="line2d_18">
    <path clip-path="url(#p6482d92c64)" d="M 361.369064 99.981907 
L 619.932602 99.981907 
" style="fill:none;stroke:#000000;stroke-linecap:square;stroke-width:0.8;"/>
   </g>
   <g id="line2d_19">
    <path clip-path="url(#p6482d92c64)" d="M 361.369064 80.559693 
L 619.932602 80.559693 
" style="fill:none;stroke:#000000;stroke-linecap:square;stroke-width:0.8;"/>
   </g>
   <g id="line2d_20">
    <path clip-path="url(#p6482d92c64)" d="M 361.369064 61.13748 
L 619.932602 61.13748 
" style="fill:none;stroke:#000000;stroke-linecap:square;stroke-width:0.8;"/>
   </g>
   <g id="patch_8">
    <path d="M 361.369064 235.937401 
L 361.369064 41.715266 
" style="fill:none;stroke:#000000;stroke-linecap:square;stroke-linejoin:miter;stroke-width:0.8;"/>
   </g>
   <g id="patch_9">
    <path d="M 619.932602 235.937401 
L 619.932602 41.715266 
" style="fill:none;stroke:#000000;stroke-linecap:square;stroke-linejoin:miter;stroke-width:0.8;"/>
   </g>
   <g id="patch_10">
    <path d="M 361.369064 235.937401 
L 619.932602 235.937401 
" style="fill:none;stroke:#000000;stroke-linecap:square;stroke-linejoin:miter;stroke-width:0.8;"/>
   </g>
   <g id="patch_11">
    <path d="M 361.369064 41.715266 
L 619.932602 41.715266 
" style="fill:none;stroke:#000000;stroke-linecap:square;stroke-linejoin:miter;stroke-width:0.8;"/>
   </g>
   <g id="text_6">
    <!-- Représentation fréquentielle -->
    <g transform="translate(395.551956 18.269588)scale(0.16 -0.16)">
     <use transform="scale(0.996264)" xlink:href="#CMR17-52"/>
     <use transform="translate(67.791102 0)scale(0.996264)" xlink:href="#CMR17-65"/>
     <use transform="translate(108.276762 0)scale(0.996264)" xlink:href="#CMR17-70"/>
     <use transform="translate(159.172132 0)scale(0.996264)" xlink:href="#CMR17-72"/>
     <use transform="translate(191.850492 0)scale(0.996264)" xlink:href="#CMR17-13"/>
     <use transform="translate(194.4529 0)scale(0.996264)" xlink:href="#CMR17-65"/>
     <use transform="translate(234.93856 0)scale(0.996264)" xlink:href="#CMR17-73"/>
     <use transform="translate(270.739898 0)scale(0.996264)" xlink:href="#CMR17-65"/>
     <use transform="translate(311.225559 0)scale(0.996264)" xlink:href="#CMR17-6e"/>
     <use transform="translate(359.518474 0)scale(0.996264)" xlink:href="#CMR17-74"/>
     <use transform="translate(394.799242 0)scale(0.996264)" xlink:href="#CMR17-61"/>
     <use transform="translate(440.489719 0)scale(0.996264)" xlink:href="#CMR17-74"/>
     <use transform="translate(475.770487 0)scale(0.996264)" xlink:href="#CMR17-69"/>
     <use transform="translate(500.641546 0)scale(0.996264)" xlink:href="#CMR17-6f"/>
     <use transform="translate(546.332023 0)scale(0.996264)" xlink:href="#CMR17-6e"/>
     <use transform="translate(627.303359 0)scale(0.996264)" xlink:href="#CMR17-66"/>
     <use transform="translate(654.776871 0)scale(0.996264)" xlink:href="#CMR17-72"/>
     <use transform="translate(687.455231 0)scale(0.996264)" xlink:href="#CMR17-13"/>
     <use transform="translate(690.057639 0)scale(0.996264)" xlink:href="#CMR17-65"/>
     <use transform="translate(730.5433 0)scale(0.996264)" xlink:href="#CMR17-71"/>
     <use transform="translate(778.836215 0)scale(0.996264)" xlink:href="#CMR17-75"/>
     <use transform="translate(829.731585 0)scale(0.996264)" xlink:href="#CMR17-65"/>
     <use transform="translate(870.217246 0)scale(0.996264)" xlink:href="#CMR17-6e"/>
     <use transform="translate(918.510161 0)scale(0.996264)" xlink:href="#CMR17-74"/>
     <use transform="translate(953.790929 0)scale(0.996264)" xlink:href="#CMR17-69"/>
     <use transform="translate(978.661988 0)scale(0.996264)" xlink:href="#CMR17-65"/>
     <use transform="translate(1019.147648 0)scale(0.996264)" xlink:href="#CMR17-6c"/>
     <use transform="translate(1044.018707 0)scale(0.996264)" xlink:href="#CMR17-6c"/>
     <use transform="translate(1068.889765 0)scale(0.996264)" xlink:href="#CMR17-65"/>
    </g>
    <!-- $X[k]$ -->
    <g transform="translate(474.885544 35.715266)scale(0.16 -0.16)">
     <defs>
      <path d="M 3040 2596 
L 2438 3994 
C 2522 4147 2714 4172 2790 4179 
C 2829 4179 2899 4179 2899 4292 
C 2899 4364 2842 4364 2803 4364 
C 2694 4364 2566 4364 2458 4364 
L 2086 4364 
C 1696 4364 1414 4364 1408 4364 
C 1357 4364 1293 4364 1293 4243 
C 1293 4179 1350 4179 1434 4179 
C 1805 4179 1830 4115 1894 3962 
L 2656 2185 
L 1267 693 
C 1037 442 762 198 288 198 
C 211 192 160 192 160 68 
C 160 48 166 0 237 0 
C 326 0 422 0 512 0 
L 813 0 
C 1018 0 1242 0 1440 0 
C 1485 0 1562 0 1562 115 
C 1562 179 1517 185 1478 185 
C 1350 198 1267 268 1267 370 
C 1267 479 1344 557 1530 748 
L 2099 1368 
C 2240 1516 2579 1886 2720 2026 
L 3392 453 
C 3398 441 3424 377 3424 370 
C 3424 313 3283 198 3078 198 
C 3040 198 2970 198 2970 71 
C 2970 0 3034 0 3066 0 
C 3174 0 3302 0 3411 0 
L 4115 0 
C 4230 0 4352 0 4461 0 
C 4506 0 4576 0 4576 130 
C 4576 198 4512 198 4454 198 
C 4070 198 4058 230 3949 465 
L 3104 2441 
L 3917 3316 
C 3981 3381 4128 3542 4186 3606 
C 4461 3896 4717 4160 5235 4160 
C 5299 4179 5363 4179 5363 4292 
C 5363 4364 5306 4364 5280 4364 
C 5190 4364 5094 4364 5005 4364 
L 4710 4364 
C 4506 4364 4282 4364 4083 4364 
C 4038 4364 3962 4364 3962 4249 
C 3962 4185 4006 4179 4045 4179 
C 4147 4167 4256 4116 4256 3994 
L 4250 3982 
C 4243 3937 4230 3873 4160 3797 
L 3040 2596 
z
" id="CMMI12-58" transform="scale(0.015625)"/>
      <path d="M 1798 4257 
C 1805 4283 1818 4321 1818 4352 
C 1818 4416 1754 4416 1741 4416 
C 1734 4416 1504 4393 1389 4377 
C 1280 4377 1184 4358 1069 4358 
C 915 4345 870 4339 870 4224 
C 870 4160 934 4160 998 4160 
C 1325 4160 1325 4103 1325 4040 
C 1325 4015 1325 4002 1293 3888 
L 378 248 
C 352 152 352 140 352 101 
C 352 -38 461 -64 525 -64 
C 704 -64 742 77 794 275 
L 1094 1469 
C 1555 1418 1830 1226 1830 920 
C 1830 881 1830 856 1811 760 
C 1786 664 1786 588 1786 556 
C 1786 185 2029 -64 2355 -64 
C 2650 -64 2803 204 2854 294 
C 2989 530 3072 888 3072 913 
C 3072 945 3046 971 3008 971 
C 2950 971 2944 945 2918 843 
C 2829 511 2694 64 2368 64 
C 2240 64 2157 128 2157 370 
C 2157 492 2182 632 2208 728 
C 2234 843 2234 849 2234 926 
C 2234 1303 1894 1514 1306 1590 
C 1536 1731 1766 1980 1856 2076 
C 2221 2484 2470 2689 2765 2689 
C 2912 2689 2950 2650 2995 2612 
C 2758 2586 2669 2420 2669 2293 
C 2669 2139 2790 2088 2880 2088 
C 3053 2088 3206 2235 3206 2440 
C 3206 2625 3059 2816 2771 2816 
C 2419 2816 2131 2567 1677 2056 
C 1613 1980 1376 1737 1139 1648 
L 1798 4257 
z
" id="CMMI12-6b" transform="scale(0.015625)"/>
     </defs>
     <use transform="scale(0.996264)" xlink:href="#CMMI12-58"/>
     <use transform="translate(88.792562 0)scale(0.996264)" xlink:href="#CMR17-5b"/>
     <use transform="translate(113.66362 0)scale(0.996264)" xlink:href="#CMMI12-6b"/>
     <use transform="translate(167.742821 0)scale(0.996264)" xlink:href="#CMR17-5d"/>
    </g>
   </g>
  </g>
  <g id="axes_3">
   <g id="patch_12">
    <path d="M 25.369064 499.937401 
L 283.932602 499.937401 
L 283.932602 305.715266 
L 25.369064 305.715266 
z
" style="fill:#ffffff;"/>
   </g>
   <g id="matplotlib.axis_5">
    <g id="text_7">
     <!-- temps -->
     <g transform="translate(134.230401 515.006989)scale(0.16 -0.16)">
      <use transform="scale(0.996264)" xlink:href="#CMR17-74"/>
      <use transform="translate(35.280768 0)scale(0.996264)" xlink:href="#CMR17-65"/>
      <use transform="translate(75.766428 0)scale(0.996264)" xlink:href="#CMR17-6d"/>
      <use transform="translate(152.686018 0)scale(0.996264)" xlink:href="#CMR17-70"/>
      <use transform="translate(203.581388 0)scale(0.996264)" xlink:href="#CMR17-73"/>
     </g>
    </g>
   </g>
   <g id="matplotlib.axis_6">
    <g id="text_8">
     <!-- fréquence -->
     <g transform="translate(18.269588 434.909391)rotate(-90)scale(0.16 -0.16)">
      <use transform="scale(0.996264)" xlink:href="#CMR17-66"/>
      <use transform="translate(27.473512 0)scale(0.996264)" xlink:href="#CMR17-72"/>
      <use transform="translate(60.151872 0)scale(0.996264)" xlink:href="#CMR17-13"/>
      <use transform="translate(62.75428 0)scale(0.996264)" xlink:href="#CMR17-65"/>
      <use transform="translate(103.239941 0)scale(0.996264)" xlink:href="#CMR17-71"/>
      <use transform="translate(151.532857 0)scale(0.996264)" xlink:href="#CMR17-75"/>
      <use transform="translate(202.428226 0)scale(0.996264)" xlink:href="#CMR17-65"/>
      <use transform="translate(242.913887 0)scale(0.996264)" xlink:href="#CMR17-6e"/>
      <use transform="translate(293.809257 0)scale(0.996264)" xlink:href="#CMR17-63"/>
      <use transform="translate(334.294917 0)scale(0.996264)" xlink:href="#CMR17-65"/>
     </g>
    </g>
   </g>
   <g id="line2d_21">
    <path clip-path="url(#p2408ee0bd6)" d="M 25.369064 499.937401 
L 25.369064 305.715266 
" style="fill:none;stroke:#000000;stroke-linecap:square;stroke-width:0.8;"/>
   </g>
   <g id="line2d_22">
    <path clip-path="url(#p2408ee0bd6)" d="M 111.548291 499.937401 
L 111.548291 305.715266 
" style="fill:none;stroke:#000000;stroke-linecap:square;stroke-width:0.8;"/>
   </g>
   <g id="line2d_23">
    <path clip-path="url(#p2408ee0bd6)" d="M 197.727519 499.937401 
L 197.727519 305.715266 
" style="fill:none;stroke:#000000;stroke-linecap:square;stroke-width:0.8;"/>
   </g>
   <g id="line2d_24">
    <path clip-path="url(#p2408ee0bd6)" d="M 283.906746 499.937401 
L 283.906746 305.715266 
" style="fill:none;stroke:#000000;stroke-linecap:square;stroke-width:0.8;"/>
   </g>
   <g id="line2d_25">
    <path clip-path="url(#p2408ee0bd6)" d="M 25.369064 499.937401 
L 283.932602 499.937401 
" style="fill:none;stroke:#000000;stroke-linecap:square;stroke-width:0.8;"/>
   </g>
   <g id="line2d_26">
    <path clip-path="url(#p2408ee0bd6)" d="M 25.369064 435.203163 
L 283.932602 435.203163 
" style="fill:none;stroke:#000000;stroke-linecap:square;stroke-width:0.8;"/>
   </g>
   <g id="line2d_27">
    <path clip-path="url(#p2408ee0bd6)" d="M 25.369064 370.468926 
L 283.932602 370.468926 
" style="fill:none;stroke:#000000;stroke-linecap:square;stroke-width:0.8;"/>
   </g>
   <g id="line2d_28">
    <path clip-path="url(#p2408ee0bd6)" d="M 25.369064 305.734688 
L 283.932602 305.734688 
" style="fill:none;stroke:#000000;stroke-linecap:square;stroke-width:0.8;"/>
   </g>
   <g id="patch_13">
    <path d="M 25.369064 499.937401 
L 25.369064 305.715266 
" style="fill:none;stroke:#000000;stroke-linecap:square;stroke-linejoin:miter;stroke-width:0.8;"/>
   </g>
   <g id="patch_14">
    <path d="M 283.932602 499.937401 
L 283.932602 305.715266 
" style="fill:none;stroke:#000000;stroke-linecap:square;stroke-linejoin:miter;stroke-width:0.8;"/>
   </g>
   <g id="patch_15">
    <path d="M 25.369064 499.937401 
L 283.932602 499.937401 
" style="fill:none;stroke:#000000;stroke-linecap:square;stroke-linejoin:miter;stroke-width:0.8;"/>
   </g>
   <g id="patch_16">
    <path d="M 25.369064 305.715266 
L 283.932602 305.715266 
" style="fill:none;stroke:#000000;stroke-linecap:square;stroke-linejoin:miter;stroke-width:0.8;"/>
   </g>
   <g id="text_9">
    <!-- Représentation temps-fréquence -->
    <g transform="translate(45.851623 282.269588)scale(0.16 -0.16)">
     <defs>
      <path d="M 1632 1216 
L 1632 1496 
L 26 1496 
L 26 1216 
L 1632 1216 
z
" id="CMR17-2d" transform="scale(0.015625)"/>
     </defs>
     <use transform="scale(0.996264)" xlink:href="#CMR17-52"/>
     <use transform="translate(67.791102 0)scale(0.996264)" xlink:href="#CMR17-65"/>
     <use transform="translate(108.276762 0)scale(0.996264)" xlink:href="#CMR17-70"/>
     <use transform="translate(159.172132 0)scale(0.996264)" xlink:href="#CMR17-72"/>
     <use transform="translate(191.850492 0)scale(0.996264)" xlink:href="#CMR17-13"/>
     <use transform="translate(194.4529 0)scale(0.996264)" xlink:href="#CMR17-65"/>
     <use transform="translate(234.93856 0)scale(0.996264)" xlink:href="#CMR17-73"/>
     <use transform="translate(270.739898 0)scale(0.996264)" xlink:href="#CMR17-65"/>
     <use transform="translate(311.225559 0)scale(0.996264)" xlink:href="#CMR17-6e"/>
     <use transform="translate(359.518474 0)scale(0.996264)" xlink:href="#CMR17-74"/>
     <use transform="translate(394.799242 0)scale(0.996264)" xlink:href="#CMR17-61"/>
     <use transform="translate(440.489719 0)scale(0.996264)" xlink:href="#CMR17-74"/>
     <use transform="translate(475.770487 0)scale(0.996264)" xlink:href="#CMR17-69"/>
     <use transform="translate(500.641546 0)scale(0.996264)" xlink:href="#CMR17-6f"/>
     <use transform="translate(546.332023 0)scale(0.996264)" xlink:href="#CMR17-6e"/>
     <use transform="translate(627.303359 0)scale(0.996264)" xlink:href="#CMR17-74"/>
     <use transform="translate(662.584127 0)scale(0.996264)" xlink:href="#CMR17-65"/>
     <use transform="translate(703.069787 0)scale(0.996264)" xlink:href="#CMR17-6d"/>
     <use transform="translate(779.989377 0)scale(0.996264)" xlink:href="#CMR17-70"/>
     <use transform="translate(830.884747 0)scale(0.996264)" xlink:href="#CMR17-73"/>
     <use transform="translate(866.686084 0)scale(0.996264)" xlink:href="#CMR17-2d"/>
     <use transform="translate(896.762051 0)scale(0.996264)" xlink:href="#CMR17-66"/>
     <use transform="translate(924.235563 0)scale(0.996264)" xlink:href="#CMR17-72"/>
     <use transform="translate(956.913923 0)scale(0.996264)" xlink:href="#CMR17-13"/>
     <use transform="translate(959.516331 0)scale(0.996264)" xlink:href="#CMR17-65"/>
     <use transform="translate(1000.001991 0)scale(0.996264)" xlink:href="#CMR17-71"/>
     <use transform="translate(1048.294907 0)scale(0.996264)" xlink:href="#CMR17-75"/>
     <use transform="translate(1099.190277 0)scale(0.996264)" xlink:href="#CMR17-65"/>
     <use transform="translate(1139.675938 0)scale(0.996264)" xlink:href="#CMR17-6e"/>
     <use transform="translate(1190.571307 0)scale(0.996264)" xlink:href="#CMR17-63"/>
     <use transform="translate(1231.056968 0)scale(0.996264)" xlink:href="#CMR17-65"/>
    </g>
    <!-- STFT $X[k,p]$ -->
    <g transform="translate(108.170464 299.715266)scale(0.16 -0.16)">
     <defs>
      <path d="M 2803 4290 
C 2803 4404 2797 4411 2758 4411 
C 2720 4411 2707 4385 2682 4328 
L 2490 3907 
C 2246 4257 1875 4416 1472 4416 
C 819 4416 294 3901 294 3253 
C 294 3056 339 2776 557 2510 
C 794 2218 1018 2167 1530 2033 
C 1722 1982 2042 1899 2106 1874 
C 2470 1722 2662 1341 2662 985 
C 2662 527 2336 38 1779 38 
C 1094 38 454 419 410 1311 
C 403 1413 397 1419 352 1419 
C 301 1419 294 1413 294 1285 
L 294 -1 
C 294 -115 301 -122 339 -122 
C 384 -122 397 -90 486 108 
C 493 127 493 140 614 381 
C 934 -39 1472 -128 1779 -128 
C 2477 -128 2970 451 2970 1124 
C 2970 1454 2848 1708 2778 1823 
C 2509 2230 2221 2306 1914 2382 
C 1869 2402 1856 2402 1498 2490 
C 1152 2579 1005 2624 845 2796 
C 666 2992 602 3196 602 3399 
C 602 3812 934 4263 1478 4263 
C 2157 4263 2579 3786 2675 2993 
C 2694 2878 2701 2872 2746 2872 
C 2803 2872 2803 2891 2803 2999 
L 2803 4290 
z
" id="CMR17-53" transform="scale(0.015625)"/>
      <path d="M 3981 4326 
L 288 4326 
L 179 2918 
L 294 2918 
C 378 3976 467 4160 1453 4160 
C 1568 4160 1754 4160 1805 4154 
C 1926 4135 1926 4058 1926 3912 
L 1926 459 
C 1926 230 1907 160 1376 160 
L 1197 160 
L 1197 0 
C 1504 0 1824 0 2138 0 
C 2451 0 2771 0 3078 0 
L 3078 160 
L 2899 160 
C 2368 160 2349 230 2349 459 
L 2349 3912 
C 2349 4052 2349 4129 2464 4154 
C 2515 4160 2701 4160 2816 4160 
C 3795 4160 3891 3976 3974 2918 
L 4090 2918 
L 3981 4326 
z
" id="CMR17-54" transform="scale(0.015625)"/>
      <path d="M 3482 4325 
L 326 4325 
L 326 4160 
C 768 4160 838 4160 838 3874 
L 838 446 
C 838 160 768 160 326 160 
L 326 0 
C 512 0 870 0 1069 0 
C 1331 0 1638 0 1901 0 
L 1901 160 
L 1760 160 
C 1274 160 1261 223 1261 452 
L 1261 2075 
L 1837 2075 
C 2432 2075 2490 1865 2490 1332 
L 2605 1332 
L 2605 2987 
L 2490 2987 
C 2490 2450 2432 2240 1837 2240 
L 1261 2240 
L 1261 3911 
C 1261 4128 1274 4160 1530 4160 
L 2355 4160 
C 3322 4160 3430 3765 3520 2916 
L 3635 2916 
L 3482 4325 
z
" id="CMR17-46" transform="scale(0.015625)"/>
      <path d="M 1248 -31 
C 1248 343 1126 619 864 619 
C 659 619 557 453 557 313 
C 557 172 653 0 870 0 
C 954 0 1024 26 1082 83 
C 1094 96 1101 96 1107 96 
C 1120 96 1120 5 1120 -27 
C 1120 -240 1082 -659 710 -1080 
C 640 -1157 640 -1170 640 -1183 
C 640 -1216 672 -1248 704 -1248 
C 755 -1248 1248 -771 1248 -31 
z
" id="CMMI12-3b" transform="scale(0.015625)"/>
      <path d="M 275 -789 
C 230 -980 205 -1031 -58 -1031 
C -134 -1031 -198 -1031 -198 -1152 
C -198 -1165 -192 -1216 -122 -1216 
C -38 -1216 51 -1216 134 -1216 
L 410 -1216 
C 544 -1216 870 -1216 1005 -1216 
C 1043 -1216 1120 -1216 1120 -1101 
C 1120 -1031 1075 -1031 966 -1031 
C 672 -1031 653 -987 653 -937 
C 653 -861 941 219 979 364 
C 1050 185 1222 -64 1555 -64 
C 2278 -64 3059 875 3059 1814 
C 3059 2401 2726 2816 2246 2816 
C 1837 2816 1491 2420 1421 2331 
C 1370 2650 1120 2816 864 2816 
C 678 2816 531 2727 410 2484 
C 294 2254 205 1865 205 1839 
C 205 1814 230 1782 275 1782 
C 326 1782 333 1788 371 1935 
C 467 2312 589 2689 845 2689 
C 992 2689 1043 2587 1043 2397 
C 1043 2245 1024 2181 998 2067 
L 275 -789 
z
M 1382 1993 
C 1427 2171 1606 2357 1709 2446 
C 1779 2510 1990 2689 2234 2689 
C 2515 2689 2643 2408 2643 2076 
C 2643 1769 2464 1047 2304 715 
C 2144 370 1850 64 1555 64 
C 1120 64 1050 613 1050 639 
C 1050 658 1062 709 1069 741 
L 1382 1993 
z
" id="CMMI12-70" transform="scale(0.015625)"/>
     </defs>
     <use transform="scale(0.996264)" xlink:href="#CMR17-53"/>
     <use transform="translate(50.89537 0)scale(0.996264)" xlink:href="#CMR17-54"/>
     <use transform="translate(117.40525 0)scale(0.996264)" xlink:href="#CMR17-46"/>
     <use transform="translate(177.389097 0)scale(0.996264)" xlink:href="#CMR17-54"/>
     <use transform="translate(273.974944 0)scale(0.996264)" xlink:href="#CMMI12-58"/>
     <use transform="translate(362.767506 0)scale(0.996264)" xlink:href="#CMR17-5b"/>
     <use transform="translate(387.638564 0)scale(0.996264)" xlink:href="#CMMI12-6b"/>
     <use transform="translate(441.717765 0)scale(0.996264)" xlink:href="#CMMI12-3b"/>
     <use transform="translate(485.419347 0)scale(0.996264)" xlink:href="#CMMI12-70"/>
     <use transform="translate(534.378861 0)scale(0.996264)" xlink:href="#CMR17-5d"/>
    </g>
   </g>
  </g>
  <g id="axes_4">
   <g id="patch_17">
    <path d="M 361.369064 499.937401 
L 619.932602 499.937401 
L 619.932602 305.715266 
L 361.369064 305.715266 
z
" style="fill:#ffffff;"/>
   </g>
   <g id="matplotlib.axis_7">
    <g id="text_10">
     <!-- temps -->
     <g transform="translate(470.230401 515.006989)scale(0.16 -0.16)">
      <use transform="scale(0.996264)" xlink:href="#CMR17-74"/>
      <use transform="translate(35.280768 0)scale(0.996264)" xlink:href="#CMR17-65"/>
      <use transform="translate(75.766428 0)scale(0.996264)" xlink:href="#CMR17-6d"/>
      <use transform="translate(152.686018 0)scale(0.996264)" xlink:href="#CMR17-70"/>
      <use transform="translate(203.581388 0)scale(0.996264)" xlink:href="#CMR17-73"/>
     </g>
    </g>
   </g>
   <g id="matplotlib.axis_8">
    <g id="text_11">
     <!-- fréquence -->
     <g transform="translate(354.269588 434.909391)rotate(-90)scale(0.16 -0.16)">
      <use transform="scale(0.996264)" xlink:href="#CMR17-66"/>
      <use transform="translate(27.473512 0)scale(0.996264)" xlink:href="#CMR17-72"/>
      <use transform="translate(60.151872 0)scale(0.996264)" xlink:href="#CMR17-13"/>
      <use transform="translate(62.75428 0)scale(0.996264)" xlink:href="#CMR17-65"/>
      <use transform="translate(103.239941 0)scale(0.996264)" xlink:href="#CMR17-71"/>
      <use transform="translate(151.532857 0)scale(0.996264)" xlink:href="#CMR17-75"/>
      <use transform="translate(202.428226 0)scale(0.996264)" xlink:href="#CMR17-65"/>
      <use transform="translate(242.913887 0)scale(0.996264)" xlink:href="#CMR17-6e"/>
      <use transform="translate(293.809257 0)scale(0.996264)" xlink:href="#CMR17-63"/>
      <use transform="translate(334.294917 0)scale(0.996264)" xlink:href="#CMR17-65"/>
     </g>
    </g>
   </g>
   <g id="line2d_29">
    <path clip-path="url(#pcf8bc79e03)" d="M 361.369064 475.659634 
L 619.932602 475.659634 
" style="fill:none;stroke:#000000;stroke-linecap:square;stroke-width:0.8;"/>
   </g>
   <g id="line2d_30">
    <path clip-path="url(#pcf8bc79e03)" d="M 361.369064 451.381867 
L 619.932602 451.381867 
" style="fill:none;stroke:#000000;stroke-linecap:square;stroke-width:0.8;"/>
   </g>
   <g id="line2d_31">
    <path clip-path="url(#pcf8bc79e03)" d="M 361.369064 402.826334 
L 619.932602 402.826334 
" style="fill:none;stroke:#000000;stroke-linecap:square;stroke-width:0.8;"/>
   </g>
   <g id="line2d_32">
    <path clip-path="url(#pcf8bc79e03)" d="M 490.650833 475.659634 
L 490.650833 451.381867 
" style="fill:none;stroke:#000000;stroke-linecap:square;stroke-width:0.8;"/>
   </g>
   <g id="line2d_33">
    <path clip-path="url(#pcf8bc79e03)" d="M 426.009949 451.381867 
L 426.009949 402.826334 
" style="fill:none;stroke:#000000;stroke-linecap:square;stroke-width:0.8;"/>
   </g>
   <g id="line2d_34">
    <path clip-path="url(#pcf8bc79e03)" d="M 490.650833 451.381867 
L 490.650833 402.826334 
" style="fill:none;stroke:#000000;stroke-linecap:square;stroke-width:0.8;"/>
   </g>
   <g id="line2d_35">
    <path clip-path="url(#pcf8bc79e03)" d="M 555.291718 451.381867 
L 555.291718 402.826334 
" style="fill:none;stroke:#000000;stroke-linecap:square;stroke-width:0.8;"/>
   </g>
   <g id="line2d_36">
    <path clip-path="url(#pcf8bc79e03)" d="M 393.689507 402.826334 
L 393.689507 305.715266 
" style="fill:none;stroke:#000000;stroke-linecap:square;stroke-width:0.8;"/>
   </g>
   <g id="line2d_37">
    <path clip-path="url(#pcf8bc79e03)" d="M 426.009949 402.826334 
L 426.009949 305.715266 
" style="fill:none;stroke:#000000;stroke-linecap:square;stroke-width:0.8;"/>
   </g>
   <g id="line2d_38">
    <path clip-path="url(#pcf8bc79e03)" d="M 458.330391 402.826334 
L 458.330391 305.715266 
" style="fill:none;stroke:#000000;stroke-linecap:square;stroke-width:0.8;"/>
   </g>
   <g id="line2d_39">
    <path clip-path="url(#pcf8bc79e03)" d="M 490.650833 402.826334 
L 490.650833 305.715266 
" style="fill:none;stroke:#000000;stroke-linecap:square;stroke-width:0.8;"/>
   </g>
   <g id="line2d_40">
    <path clip-path="url(#pcf8bc79e03)" d="M 522.971275 402.826334 
L 522.971275 305.715266 
" style="fill:none;stroke:#000000;stroke-linecap:square;stroke-width:0.8;"/>
   </g>
   <g id="line2d_41">
    <path clip-path="url(#pcf8bc79e03)" d="M 555.291718 402.826334 
L 555.291718 305.715266 
" style="fill:none;stroke:#000000;stroke-linecap:square;stroke-width:0.8;"/>
   </g>
   <g id="line2d_42">
    <path clip-path="url(#pcf8bc79e03)" d="M 587.61216 402.826334 
L 587.61216 305.715266 
" style="fill:none;stroke:#000000;stroke-linecap:square;stroke-width:0.8;"/>
   </g>
   <g id="patch_18">
    <path d="M 361.369064 499.937401 
L 361.369064 305.715266 
" style="fill:none;stroke:#000000;stroke-linecap:square;stroke-linejoin:miter;stroke-width:0.8;"/>
   </g>
   <g id="patch_19">
    <path d="M 619.932602 499.937401 
L 619.932602 305.715266 
" style="fill:none;stroke:#000000;stroke-linecap:square;stroke-linejoin:miter;stroke-width:0.8;"/>
   </g>
   <g id="patch_20">
    <path d="M 361.369064 499.937401 
L 619.932602 499.937401 
" style="fill:none;stroke:#000000;stroke-linecap:square;stroke-linejoin:miter;stroke-width:0.8;"/>
   </g>
   <g id="patch_21">
    <path d="M 361.369064 305.715266 
L 619.932602 305.715266 
" style="fill:none;stroke:#000000;stroke-linecap:square;stroke-linejoin:miter;stroke-width:0.8;"/>
   </g>
   <g id="text_12">
    <!-- Représentation temps-fréquence -->
    <g transform="translate(381.851623 282.269588)scale(0.16 -0.16)">
     <use transform="scale(0.996264)" xlink:href="#CMR17-52"/>
     <use transform="translate(67.791102 0)scale(0.996264)" xlink:href="#CMR17-65"/>
     <use transform="translate(108.276762 0)scale(0.996264)" xlink:href="#CMR17-70"/>
     <use transform="translate(159.172132 0)scale(0.996264)" xlink:href="#CMR17-72"/>
     <use transform="translate(191.850492 0)scale(0.996264)" xlink:href="#CMR17-13"/>
     <use transform="translate(194.4529 0)scale(0.996264)" xlink:href="#CMR17-65"/>
     <use transform="translate(234.93856 0)scale(0.996264)" xlink:href="#CMR17-73"/>
     <use transform="translate(270.739898 0)scale(0.996264)" xlink:href="#CMR17-65"/>
     <use transform="translate(311.225559 0)scale(0.996264)" xlink:href="#CMR17-6e"/>
     <use transform="translate(359.518474 0)scale(0.996264)" xlink:href="#CMR17-74"/>
     <use transform="translate(394.799242 0)scale(0.996264)" xlink:href="#CMR17-61"/>
     <use transform="translate(440.489719 0)scale(0.996264)" xlink:href="#CMR17-74"/>
     <use transform="translate(475.770487 0)scale(0.996264)" xlink:href="#CMR17-69"/>
     <use transform="translate(500.641546 0)scale(0.996264)" xlink:href="#CMR17-6f"/>
     <use transform="translate(546.332023 0)scale(0.996264)" xlink:href="#CMR17-6e"/>
     <use transform="translate(627.303359 0)scale(0.996264)" xlink:href="#CMR17-74"/>
     <use transform="translate(662.584127 0)scale(0.996264)" xlink:href="#CMR17-65"/>
     <use transform="translate(703.069787 0)scale(0.996264)" xlink:href="#CMR17-6d"/>
     <use transform="translate(779.989377 0)scale(0.996264)" xlink:href="#CMR17-70"/>
     <use transform="translate(830.884747 0)scale(0.996264)" xlink:href="#CMR17-73"/>
     <use transform="translate(866.686084 0)scale(0.996264)" xlink:href="#CMR17-2d"/>
     <use transform="translate(896.762051 0)scale(0.996264)" xlink:href="#CMR17-66"/>
     <use transform="translate(924.235563 0)scale(0.996264)" xlink:href="#CMR17-72"/>
     <use transform="translate(956.913923 0)scale(0.996264)" xlink:href="#CMR17-13"/>
     <use transform="translate(959.516331 0)scale(0.996264)" xlink:href="#CMR17-65"/>
     <use transform="translate(1000.001991 0)scale(0.996264)" xlink:href="#CMR17-71"/>
     <use transform="translate(1048.294907 0)scale(0.996264)" xlink:href="#CMR17-75"/>
     <use transform="translate(1099.190277 0)scale(0.996264)" xlink:href="#CMR17-65"/>
     <use transform="translate(1139.675938 0)scale(0.996264)" xlink:href="#CMR17-6e"/>
     <use transform="translate(1190.571307 0)scale(0.996264)" xlink:href="#CMR17-63"/>
     <use transform="translate(1231.056968 0)scale(0.996264)" xlink:href="#CMR17-65"/>
    </g>
    <!-- (transformée en ondelettes) -->
    <g transform="translate(397.133056 299.715266)scale(0.16 -0.16)">
     <defs>
      <path d="M 1958 -1561 
C 1958 -1555 1958 -1542 1939 -1523 
C 1645 -1224 858 -407 858 1581 
C 858 3569 1632 4379 1946 4697 
C 1946 4704 1958 4717 1958 4736 
C 1958 4755 1939 4768 1914 4768 
C 1843 4768 1299 4296 986 3594 
C 666 2887 576 2199 576 1588 
C 576 1128 621 351 1005 -471 
C 1312 -1135 1837 -1600 1914 -1600 
C 1946 -1600 1958 -1587 1958 -1561 
z
" id="CMR17-28" transform="scale(0.015625)"/>
      <path d="M 1869 4326 
L 1869 4160 
C 2246 4160 2304 4122 2304 3820 
L 2304 2345 
C 2278 2377 2016 2790 1498 2790 
C 845 2790 211 2208 211 1364 
C 211 525 806 -64 1434 -64 
C 1978 -64 2259 337 2291 380 
L 2291 -63 
L 3066 -63 
L 3066 128 
C 2688 128 2630 166 2630 473 
L 2630 4396 
L 1869 4326 
z
M 2291 755 
C 2291 563 2176 390 2029 262 
C 1811 70 1594 38 1472 38 
C 1286 38 621 134 621 1356 
C 621 2612 1363 2688 1530 2688 
C 1824 2688 2061 2522 2208 2291 
C 2291 2157 2291 2138 2291 2023 
L 2291 755 
z
" id="CMR17-64" transform="scale(0.015625)"/>
      <path d="M 1683 1581 
C 1683 2040 1638 2817 1254 3639 
C 947 4303 422 4768 346 4768 
C 326 4768 301 4761 301 4729 
C 301 4717 307 4710 314 4697 
C 621 4378 1402 3568 1402 1584 
C 1402 -407 627 -1217 314 -1537 
C 307 -1549 301 -1556 301 -1568 
C 301 -1600 326 -1600 346 -1600 
C 416 -1600 960 -1128 1274 -426 
C 1594 281 1683 969 1683 1581 
z
" id="CMR17-29" transform="scale(0.015625)"/>
     </defs>
     <use transform="scale(0.996264)" xlink:href="#CMR17-28"/>
     <use transform="translate(35.280768 0)scale(0.996264)" xlink:href="#CMR17-74"/>
     <use transform="translate(70.561536 0)scale(0.996264)" xlink:href="#CMR17-72"/>
     <use transform="translate(105.842303 0)scale(0.996264)" xlink:href="#CMR17-61"/>
     <use transform="translate(151.532781 0)scale(0.996264)" xlink:href="#CMR17-6e"/>
     <use transform="translate(202.42815 0)scale(0.996264)" xlink:href="#CMR17-73"/>
     <use transform="translate(238.229488 0)scale(0.996264)" xlink:href="#CMR17-66"/>
     <use transform="translate(265.703 0)scale(0.996264)" xlink:href="#CMR17-6f"/>
     <use transform="translate(311.393477 0)scale(0.996264)" xlink:href="#CMR17-72"/>
     <use transform="translate(346.674245 0)scale(0.996264)" xlink:href="#CMR17-6d"/>
     <use transform="translate(420.991427 0)scale(0.996264)" xlink:href="#CMR17-13"/>
     <use transform="translate(423.593835 0)scale(0.996264)" xlink:href="#CMR17-65"/>
     <use transform="translate(464.079496 0)scale(0.996264)" xlink:href="#CMR17-65"/>
     <use transform="translate(534.641122 0)scale(0.996264)" xlink:href="#CMR17-65"/>
     <use transform="translate(575.126783 0)scale(0.996264)" xlink:href="#CMR17-6e"/>
     <use transform="translate(656.098119 0)scale(0.996264)" xlink:href="#CMR17-6f"/>
     <use transform="translate(701.788596 0)scale(0.996264)" xlink:href="#CMR17-6e"/>
     <use transform="translate(752.683966 0)scale(0.996264)" xlink:href="#CMR17-64"/>
     <use transform="translate(803.579336 0)scale(0.996264)" xlink:href="#CMR17-65"/>
     <use transform="translate(844.064996 0)scale(0.996264)" xlink:href="#CMR17-6c"/>
     <use transform="translate(868.936055 0)scale(0.996264)" xlink:href="#CMR17-65"/>
     <use transform="translate(909.421715 0)scale(0.996264)" xlink:href="#CMR17-74"/>
     <use transform="translate(944.702483 0)scale(0.996264)" xlink:href="#CMR17-74"/>
     <use transform="translate(979.983251 0)scale(0.996264)" xlink:href="#CMR17-65"/>
     <use transform="translate(1020.468911 0)scale(0.996264)" xlink:href="#CMR17-73"/>
     <use transform="translate(1056.270249 0)scale(0.996264)" xlink:href="#CMR17-29"/>
    </g>
   </g>
  </g>
 </g>
 <defs>
  <clipPath id="ped335710f5">
   <rect height="194.222135" width="258.563537" x="25.369064" y="41.715266"/>
  </clipPath>
  <clipPath id="p6482d92c64">
   <rect height="194.222135" width="258.563537" x="361.369064" y="41.715266"/>
  </clipPath>
  <clipPath id="p2408ee0bd6">
   <rect height="194.222135" width="258.563537" x="25.369064" y="305.715266"/>
  </clipPath>
  <clipPath id="pcf8bc79e03">
   <rect height="194.222135" width="258.563537" x="361.369064" y="305.715266"/>
  </clipPath>
 </defs>
</svg>
