<?xml version="1.0" encoding="utf-8" standalone="no"?>
<!DOCTYPE svg PUBLIC "-//W3C//DTD SVG 1.1//EN"
  "http://www.w3.org/Graphics/SVG/1.1/DTD/svg11.dtd">
<svg height="249.466776pt" version="1.1" viewBox="0 0 776.909121 249.466776" width="776.909121pt" xmlns="http://www.w3.org/2000/svg" xmlns:xlink="http://www.w3.org/1999/xlink">
 <metadata>
  <rdf:RDF xmlns:cc="http://creativecommons.org/ns#" xmlns:dc="http://purl.org/dc/elements/1.1/" xmlns:rdf="http://www.w3.org/1999/02/22-rdf-syntax-ns#">
   <cc:Work>
    <dc:type rdf:resource="http://purl.org/dc/dcmitype/StillImage"/>
    <dc:date>2023-11-11T16:55:38.423980</dc:date>
    <dc:format>image/svg+xml</dc:format>
    <dc:creator>
     <cc:Agent>
      <dc:title>Matplotlib v3.4.3, https://matplotlib.org/</dc:title>
     </cc:Agent>
    </dc:creator>
   </cc:Work>
  </rdf:RDF>
 </metadata>
 <defs>
  <style type="text/css">*{stroke-linecap:butt;stroke-linejoin:round;}</style>
 </defs>
 <g id="figure_1">
  <g id="patch_1">
   <path d="M 0 249.466776 
L 776.909121 249.466776 
L 776.909121 0 
L 0 0 
z
" style="fill:none;"/>
  </g>
  <g id="axes_1">
   <g id="patch_2">
    <path d="M 44.309121 224.64 
L 257.662063 224.64 
L 257.662063 7.2 
L 44.309121 7.2 
z
" style="fill:#ffffff;"/>
   </g>
   <g id="matplotlib.axis_1">
    <g id="xtick_1">
     <g id="line2d_1">
      <path clip-path="url(#p71f8a2eaf0)" d="M 79.149585 224.64 
L 79.149585 7.2 
" style="fill:none;stroke:#b0b0b0;stroke-linecap:square;stroke-width:0.8;"/>
     </g>
     <g id="line2d_2">
      <defs>
       <path d="M 0 0 
L 0 3.5 
" id="m74a4707c32" style="stroke:#000000;stroke-width:0.8;"/>
      </defs>
      <g>
       <use style="stroke:#000000;stroke-width:0.8;" x="79.149585" xlink:href="#m74a4707c32" y="224.64"/>
      </g>
     </g>
     <g id="text_1">
      <!-- $\mathdefault{−0.02}$ -->
      <g transform="translate(64.095024 239.94218)scale(0.12 -0.12)">
       <defs>
        <path d="M 4218 1472 
C 4326 1472 4442 1472 4442 1600 
C 4442 1728 4326 1728 4218 1728 
L 755 1728 
C 646 1728 531 1728 531 1600 
C 531 1472 646 1472 755 1472 
L 4218 1472 
z
" id="CMSY10-0" transform="scale(0.015625)"/>
        <path d="M 2688 2038 
C 2688 2430 2682 3099 2413 3613 
C 2176 4063 1798 4224 1466 4224 
C 1158 4224 768 4082 525 3620 
C 269 3137 243 2539 243 2038 
C 243 1671 250 1112 448 623 
C 723 -39 1216 -128 1466 -128 
C 1760 -128 2208 -7 2470 604 
C 2662 1048 2688 1568 2688 2038 
z
M 1466 -26 
C 1056 -26 813 328 723 816 
C 653 1196 653 1749 653 2109 
C 653 2604 653 3015 736 3407 
C 858 3954 1216 4121 1466 4121 
C 1728 4121 2067 3947 2189 3420 
C 2272 3054 2278 2623 2278 2109 
C 2278 1691 2278 1176 2202 797 
C 2067 96 1690 -26 1466 -26 
z
" id="CMR17-30" transform="scale(0.015625)"/>
        <path d="M 1178 307 
C 1178 492 1024 620 870 620 
C 685 620 557 467 557 313 
C 557 128 710 0 864 0 
C 1050 0 1178 153 1178 307 
z
" id="CMMI12-3a" transform="scale(0.015625)"/>
        <path d="M 2669 990 
L 2554 990 
C 2490 537 2438 460 2413 422 
C 2381 371 1920 371 1830 371 
L 602 371 
C 832 620 1280 1073 1824 1596 
C 2214 1966 2669 2400 2669 3033 
C 2669 3788 2067 4224 1395 4224 
C 691 4224 262 3603 262 3027 
C 262 2777 448 2745 525 2745 
C 589 2745 781 2783 781 3007 
C 781 3206 614 3264 525 3264 
C 486 3264 448 3257 422 3244 
C 544 3788 915 4057 1306 4057 
C 1862 4057 2227 3616 2227 3033 
C 2227 2477 1901 1998 1536 1583 
L 262 147 
L 262 0 
L 2515 0 
L 2669 990 
z
" id="CMR17-32" transform="scale(0.015625)"/>
       </defs>
       <use transform="scale(0.996264)" xlink:href="#CMSY10-0"/>
       <use transform="translate(77.487468 0)scale(0.996264)" xlink:href="#CMR17-30"/>
       <use transform="translate(123.177945 0)scale(0.996264)" xlink:href="#CMMI12-3a"/>
       <use transform="translate(150.275122 0)scale(0.996264)" xlink:href="#CMR17-30"/>
       <use transform="translate(195.965599 0)scale(0.996264)" xlink:href="#CMR17-32"/>
      </g>
     </g>
    </g>
    <g id="xtick_2">
     <g id="line2d_3">
      <path clip-path="url(#p71f8a2eaf0)" d="M 150.985592 224.64 
L 150.985592 7.2 
" style="fill:none;stroke:#b0b0b0;stroke-linecap:square;stroke-width:0.8;"/>
     </g>
     <g id="line2d_4">
      <g>
       <use style="stroke:#000000;stroke-width:0.8;" x="150.985592" xlink:href="#m74a4707c32" y="224.64"/>
      </g>
     </g>
     <g id="text_2">
      <!-- $\mathdefault{0.00}$ -->
      <g transform="translate(140.580276 239.94218)scale(0.12 -0.12)">
       <use transform="scale(0.996264)" xlink:href="#CMR17-30"/>
       <use transform="translate(45.690477 0)scale(0.996264)" xlink:href="#CMMI12-3a"/>
       <use transform="translate(72.787654 0)scale(0.996264)" xlink:href="#CMR17-30"/>
       <use transform="translate(118.478131 0)scale(0.996264)" xlink:href="#CMR17-30"/>
      </g>
     </g>
    </g>
    <g id="xtick_3">
     <g id="line2d_5">
      <path clip-path="url(#p71f8a2eaf0)" d="M 222.821599 224.64 
L 222.821599 7.2 
" style="fill:none;stroke:#b0b0b0;stroke-linecap:square;stroke-width:0.8;"/>
     </g>
     <g id="line2d_6">
      <g>
       <use style="stroke:#000000;stroke-width:0.8;" x="222.821599" xlink:href="#m74a4707c32" y="224.64"/>
      </g>
     </g>
     <g id="text_3">
      <!-- $\mathdefault{0.02}$ -->
      <g transform="translate(212.416283 239.94218)scale(0.12 -0.12)">
       <use transform="scale(0.996264)" xlink:href="#CMR17-30"/>
       <use transform="translate(45.690477 0)scale(0.996264)" xlink:href="#CMMI12-3a"/>
       <use transform="translate(72.787654 0)scale(0.996264)" xlink:href="#CMR17-30"/>
       <use transform="translate(118.478131 0)scale(0.996264)" xlink:href="#CMR17-32"/>
      </g>
     </g>
    </g>
   </g>
   <g id="matplotlib.axis_2">
    <g id="ytick_1">
     <g id="line2d_7">
      <path clip-path="url(#p71f8a2eaf0)" d="M 44.309121 189.132121 
L 257.662063 189.132121 
" style="fill:none;stroke:#b0b0b0;stroke-linecap:square;stroke-width:0.8;"/>
     </g>
     <g id="line2d_8">
      <defs>
       <path d="M 0 0 
L -3.5 0 
" id="m66b984cde5" style="stroke:#000000;stroke-width:0.8;"/>
      </defs>
      <g>
       <use style="stroke:#000000;stroke-width:0.8;" x="44.309121" xlink:href="#m66b984cde5" y="189.132121"/>
      </g>
     </g>
     <g id="text_4">
      <!-- $\mathdefault{−0.02}$ -->
      <g transform="translate(7.2 193.283211)scale(0.12 -0.12)">
       <use transform="scale(0.996264)" xlink:href="#CMSY10-0"/>
       <use transform="translate(77.487468 0)scale(0.996264)" xlink:href="#CMR17-30"/>
       <use transform="translate(123.177945 0)scale(0.996264)" xlink:href="#CMMI12-3a"/>
       <use transform="translate(150.275122 0)scale(0.996264)" xlink:href="#CMR17-30"/>
       <use transform="translate(195.965599 0)scale(0.996264)" xlink:href="#CMR17-32"/>
      </g>
     </g>
    </g>
    <g id="ytick_2">
     <g id="line2d_9">
      <path clip-path="url(#p71f8a2eaf0)" d="M 44.309121 152.526061 
L 257.662063 152.526061 
" style="fill:none;stroke:#b0b0b0;stroke-linecap:square;stroke-width:0.8;"/>
     </g>
     <g id="line2d_10">
      <g>
       <use style="stroke:#000000;stroke-width:0.8;" x="44.309121" xlink:href="#m66b984cde5" y="152.526061"/>
      </g>
     </g>
     <g id="text_5">
      <!-- $\mathdefault{−0.01}$ -->
      <g transform="translate(7.2 156.677151)scale(0.12 -0.12)">
       <defs>
        <path d="M 1702 4083 
C 1702 4217 1696 4224 1606 4224 
C 1357 3927 979 3833 621 3820 
C 602 3820 570 3820 563 3808 
C 557 3795 557 3782 557 3648 
C 755 3648 1088 3686 1344 3839 
L 1344 467 
C 1344 243 1331 166 781 166 
L 589 166 
L 589 0 
C 896 6 1216 12 1523 12 
C 1830 12 2150 6 2458 0 
L 2458 166 
L 2266 166 
C 1715 166 1702 236 1702 467 
L 1702 4083 
z
" id="CMR17-31" transform="scale(0.015625)"/>
       </defs>
       <use transform="scale(0.996264)" xlink:href="#CMSY10-0"/>
       <use transform="translate(77.487468 0)scale(0.996264)" xlink:href="#CMR17-30"/>
       <use transform="translate(123.177945 0)scale(0.996264)" xlink:href="#CMMI12-3a"/>
       <use transform="translate(150.275122 0)scale(0.996264)" xlink:href="#CMR17-30"/>
       <use transform="translate(195.965599 0)scale(0.996264)" xlink:href="#CMR17-31"/>
      </g>
     </g>
    </g>
    <g id="ytick_3">
     <g id="line2d_11">
      <path clip-path="url(#p71f8a2eaf0)" d="M 44.309121 115.92 
L 257.662063 115.92 
" style="fill:none;stroke:#b0b0b0;stroke-linecap:square;stroke-width:0.8;"/>
     </g>
     <g id="line2d_12">
      <g>
       <use style="stroke:#000000;stroke-width:0.8;" x="44.309121" xlink:href="#m66b984cde5" y="115.92"/>
      </g>
     </g>
     <g id="text_6">
      <!-- $\mathdefault{0.00}$ -->
      <g transform="translate(16.498489 120.07109)scale(0.12 -0.12)">
       <use transform="scale(0.996264)" xlink:href="#CMR17-30"/>
       <use transform="translate(45.690477 0)scale(0.996264)" xlink:href="#CMMI12-3a"/>
       <use transform="translate(72.787654 0)scale(0.996264)" xlink:href="#CMR17-30"/>
       <use transform="translate(118.478131 0)scale(0.996264)" xlink:href="#CMR17-30"/>
      </g>
     </g>
    </g>
    <g id="ytick_4">
     <g id="line2d_13">
      <path clip-path="url(#p71f8a2eaf0)" d="M 44.309121 79.313939 
L 257.662063 79.313939 
" style="fill:none;stroke:#b0b0b0;stroke-linecap:square;stroke-width:0.8;"/>
     </g>
     <g id="line2d_14">
      <g>
       <use style="stroke:#000000;stroke-width:0.8;" x="44.309121" xlink:href="#m66b984cde5" y="79.313939"/>
      </g>
     </g>
     <g id="text_7">
      <!-- $\mathdefault{0.01}$ -->
      <g transform="translate(16.498489 83.465029)scale(0.12 -0.12)">
       <use transform="scale(0.996264)" xlink:href="#CMR17-30"/>
       <use transform="translate(45.690477 0)scale(0.996264)" xlink:href="#CMMI12-3a"/>
       <use transform="translate(72.787654 0)scale(0.996264)" xlink:href="#CMR17-30"/>
       <use transform="translate(118.478131 0)scale(0.996264)" xlink:href="#CMR17-31"/>
      </g>
     </g>
    </g>
    <g id="ytick_5">
     <g id="line2d_15">
      <path clip-path="url(#p71f8a2eaf0)" d="M 44.309121 42.707879 
L 257.662063 42.707879 
" style="fill:none;stroke:#b0b0b0;stroke-linecap:square;stroke-width:0.8;"/>
     </g>
     <g id="line2d_16">
      <g>
       <use style="stroke:#000000;stroke-width:0.8;" x="44.309121" xlink:href="#m66b984cde5" y="42.707879"/>
      </g>
     </g>
     <g id="text_8">
      <!-- $\mathdefault{0.02}$ -->
      <g transform="translate(16.498489 46.858969)scale(0.12 -0.12)">
       <use transform="scale(0.996264)" xlink:href="#CMR17-30"/>
       <use transform="translate(45.690477 0)scale(0.996264)" xlink:href="#CMMI12-3a"/>
       <use transform="translate(72.787654 0)scale(0.996264)" xlink:href="#CMR17-30"/>
       <use transform="translate(118.478131 0)scale(0.996264)" xlink:href="#CMR17-32"/>
      </g>
     </g>
    </g>
   </g>
   <g id="line2d_17">
    <path clip-path="url(#p71f8a2eaf0)" d="M 54.006982 214.756364 
L 247.964202 17.083636 
L 247.964202 17.083636 
" style="fill:none;stroke:#1f77b4;stroke-linecap:square;stroke-width:1.5;"/>
   </g>
   <g id="patch_3">
    <path d="M 44.309121 224.64 
L 44.309121 7.2 
" style="fill:none;stroke:#000000;stroke-linecap:square;stroke-linejoin:miter;stroke-width:0.8;"/>
   </g>
   <g id="patch_4">
    <path d="M 257.662063 224.64 
L 257.662063 7.2 
" style="fill:none;stroke:#000000;stroke-linecap:square;stroke-linejoin:miter;stroke-width:0.8;"/>
   </g>
   <g id="patch_5">
    <path d="M 44.309121 224.64 
L 257.662063 224.64 
" style="fill:none;stroke:#000000;stroke-linecap:square;stroke-linejoin:miter;stroke-width:0.8;"/>
   </g>
   <g id="patch_6">
    <path d="M 44.309121 7.2 
L 257.662063 7.2 
" style="fill:none;stroke:#000000;stroke-linecap:square;stroke-linejoin:miter;stroke-width:0.8;"/>
   </g>
  </g>
  <g id="axes_2">
   <g id="patch_7">
    <path d="M 300.332651 224.64 
L 513.685592 224.64 
L 513.685592 7.2 
L 300.332651 7.2 
z
" style="fill:#ffffff;"/>
   </g>
   <g id="matplotlib.axis_3">
    <g id="xtick_4">
     <g id="line2d_18">
      <path clip-path="url(#p124a771ca0)" d="M 335.173114 224.64 
L 335.173114 7.2 
" style="fill:none;stroke:#b0b0b0;stroke-linecap:square;stroke-width:0.8;"/>
     </g>
     <g id="line2d_19">
      <g>
       <use style="stroke:#000000;stroke-width:0.8;" x="335.173114" xlink:href="#m74a4707c32" y="224.64"/>
      </g>
     </g>
     <g id="text_9">
      <!-- $\mathdefault{−0.02}$ -->
      <g transform="translate(320.118554 239.94218)scale(0.12 -0.12)">
       <use transform="scale(0.996264)" xlink:href="#CMSY10-0"/>
       <use transform="translate(77.487468 0)scale(0.996264)" xlink:href="#CMR17-30"/>
       <use transform="translate(123.177945 0)scale(0.996264)" xlink:href="#CMMI12-3a"/>
       <use transform="translate(150.275122 0)scale(0.996264)" xlink:href="#CMR17-30"/>
       <use transform="translate(195.965599 0)scale(0.996264)" xlink:href="#CMR17-32"/>
      </g>
     </g>
    </g>
    <g id="xtick_5">
     <g id="line2d_20">
      <path clip-path="url(#p124a771ca0)" d="M 407.009121 224.64 
L 407.009121 7.2 
" style="fill:none;stroke:#b0b0b0;stroke-linecap:square;stroke-width:0.8;"/>
     </g>
     <g id="line2d_21">
      <g>
       <use style="stroke:#000000;stroke-width:0.8;" x="407.009121" xlink:href="#m74a4707c32" y="224.64"/>
      </g>
     </g>
     <g id="text_10">
      <!-- $\mathdefault{0.00}$ -->
      <g transform="translate(396.603805 239.94218)scale(0.12 -0.12)">
       <use transform="scale(0.996264)" xlink:href="#CMR17-30"/>
       <use transform="translate(45.690477 0)scale(0.996264)" xlink:href="#CMMI12-3a"/>
       <use transform="translate(72.787654 0)scale(0.996264)" xlink:href="#CMR17-30"/>
       <use transform="translate(118.478131 0)scale(0.996264)" xlink:href="#CMR17-30"/>
      </g>
     </g>
    </g>
    <g id="xtick_6">
     <g id="line2d_22">
      <path clip-path="url(#p124a771ca0)" d="M 478.845129 224.64 
L 478.845129 7.2 
" style="fill:none;stroke:#b0b0b0;stroke-linecap:square;stroke-width:0.8;"/>
     </g>
     <g id="line2d_23">
      <g>
       <use style="stroke:#000000;stroke-width:0.8;" x="478.845129" xlink:href="#m74a4707c32" y="224.64"/>
      </g>
     </g>
     <g id="text_11">
      <!-- $\mathdefault{0.02}$ -->
      <g transform="translate(468.439813 239.94218)scale(0.12 -0.12)">
       <use transform="scale(0.996264)" xlink:href="#CMR17-30"/>
       <use transform="translate(45.690477 0)scale(0.996264)" xlink:href="#CMMI12-3a"/>
       <use transform="translate(72.787654 0)scale(0.996264)" xlink:href="#CMR17-30"/>
       <use transform="translate(118.478131 0)scale(0.996264)" xlink:href="#CMR17-32"/>
      </g>
     </g>
    </g>
   </g>
   <g id="matplotlib.axis_4">
    <g id="ytick_6">
     <g id="line2d_24">
      <path clip-path="url(#p124a771ca0)" d="M 300.332651 214.756432 
L 513.685592 214.756432 
" style="fill:none;stroke:#b0b0b0;stroke-linecap:square;stroke-width:0.8;"/>
     </g>
     <g id="line2d_25">
      <g>
       <use style="stroke:#000000;stroke-width:0.8;" x="300.332651" xlink:href="#m66b984cde5" y="214.756432"/>
      </g>
     </g>
     <g id="text_12">
      <!-- $\mathdefault{−1.00}$ -->
      <g transform="translate(263.223529 218.907522)scale(0.12 -0.12)">
       <use transform="scale(0.996264)" xlink:href="#CMSY10-0"/>
       <use transform="translate(77.487468 0)scale(0.996264)" xlink:href="#CMR17-31"/>
       <use transform="translate(123.177945 0)scale(0.996264)" xlink:href="#CMMI12-3a"/>
       <use transform="translate(150.275122 0)scale(0.996264)" xlink:href="#CMR17-30"/>
       <use transform="translate(195.965599 0)scale(0.996264)" xlink:href="#CMR17-30"/>
      </g>
     </g>
    </g>
    <g id="ytick_7">
     <g id="line2d_26">
      <path clip-path="url(#p124a771ca0)" d="M 300.332651 190.047324 
L 513.685592 190.047324 
" style="fill:none;stroke:#b0b0b0;stroke-linecap:square;stroke-width:0.8;"/>
     </g>
     <g id="line2d_27">
      <g>
       <use style="stroke:#000000;stroke-width:0.8;" x="300.332651" xlink:href="#m66b984cde5" y="190.047324"/>
      </g>
     </g>
     <g id="text_13">
      <!-- $\mathdefault{−0.75}$ -->
      <g transform="translate(263.223529 194.198414)scale(0.12 -0.12)">
       <defs>
        <path d="M 2886 3955 
L 2886 4096 
L 1382 4096 
C 634 4096 621 4166 595 4288 
L 480 4288 
L 294 3104 
L 410 3104 
C 429 3226 474 3552 550 3673 
C 589 3724 1062 3724 1171 3724 
L 2579 3724 
L 1869 2670 
C 1395 1961 1069 1003 1069 166 
C 1069 89 1069 -128 1299 -128 
C 1530 -128 1530 89 1530 172 
L 1530 466 
C 1530 1514 1709 2204 2003 2644 
L 2886 3955 
z
" id="CMR17-37" transform="scale(0.015625)"/>
        <path d="M 730 3750 
C 794 3724 1056 3641 1325 3641 
C 1920 3641 2246 3961 2432 4140 
C 2432 4191 2432 4224 2394 4224 
C 2387 4224 2374 4224 2323 4198 
C 2099 4102 1837 4032 1517 4032 
C 1325 4032 1037 4055 723 4191 
C 653 4224 640 4224 634 4224 
C 602 4224 595 4217 595 4090 
L 595 2231 
C 595 2113 595 2080 659 2080 
C 691 2080 704 2093 736 2139 
C 941 2435 1222 2560 1542 2560 
C 1766 2560 2246 2415 2246 1293 
C 2246 1087 2246 716 2054 422 
C 1894 159 1645 25 1370 25 
C 947 25 518 319 403 812 
C 429 806 480 793 506 793 
C 589 793 749 838 749 1036 
C 749 1209 627 1280 506 1280 
C 358 1280 262 1190 262 1011 
C 262 454 704 -128 1382 -128 
C 2042 -128 2669 441 2669 1267 
C 2669 2054 2170 2662 1549 2662 
C 1222 2662 947 2540 730 2304 
L 730 3750 
z
" id="CMR17-35" transform="scale(0.015625)"/>
       </defs>
       <use transform="scale(0.996264)" xlink:href="#CMSY10-0"/>
       <use transform="translate(77.487468 0)scale(0.996264)" xlink:href="#CMR17-30"/>
       <use transform="translate(123.177945 0)scale(0.996264)" xlink:href="#CMMI12-3a"/>
       <use transform="translate(150.275122 0)scale(0.996264)" xlink:href="#CMR17-37"/>
       <use transform="translate(195.965599 0)scale(0.996264)" xlink:href="#CMR17-35"/>
      </g>
     </g>
    </g>
    <g id="ytick_8">
     <g id="line2d_28">
      <path clip-path="url(#p124a771ca0)" d="M 300.332651 165.338216 
L 513.685592 165.338216 
" style="fill:none;stroke:#b0b0b0;stroke-linecap:square;stroke-width:0.8;"/>
     </g>
     <g id="line2d_29">
      <g>
       <use style="stroke:#000000;stroke-width:0.8;" x="300.332651" xlink:href="#m66b984cde5" y="165.338216"/>
      </g>
     </g>
     <g id="text_14">
      <!-- $\mathdefault{−0.50}$ -->
      <g transform="translate(263.223529 169.489306)scale(0.12 -0.12)">
       <use transform="scale(0.996264)" xlink:href="#CMSY10-0"/>
       <use transform="translate(77.487468 0)scale(0.996264)" xlink:href="#CMR17-30"/>
       <use transform="translate(123.177945 0)scale(0.996264)" xlink:href="#CMMI12-3a"/>
       <use transform="translate(150.275122 0)scale(0.996264)" xlink:href="#CMR17-35"/>
       <use transform="translate(195.965599 0)scale(0.996264)" xlink:href="#CMR17-30"/>
      </g>
     </g>
    </g>
    <g id="ytick_9">
     <g id="line2d_30">
      <path clip-path="url(#p124a771ca0)" d="M 300.332651 140.629108 
L 513.685592 140.629108 
" style="fill:none;stroke:#b0b0b0;stroke-linecap:square;stroke-width:0.8;"/>
     </g>
     <g id="line2d_31">
      <g>
       <use style="stroke:#000000;stroke-width:0.8;" x="300.332651" xlink:href="#m66b984cde5" y="140.629108"/>
      </g>
     </g>
     <g id="text_15">
      <!-- $\mathdefault{−0.25}$ -->
      <g transform="translate(263.223529 144.780198)scale(0.12 -0.12)">
       <use transform="scale(0.996264)" xlink:href="#CMSY10-0"/>
       <use transform="translate(77.487468 0)scale(0.996264)" xlink:href="#CMR17-30"/>
       <use transform="translate(123.177945 0)scale(0.996264)" xlink:href="#CMMI12-3a"/>
       <use transform="translate(150.275122 0)scale(0.996264)" xlink:href="#CMR17-32"/>
       <use transform="translate(195.965599 0)scale(0.996264)" xlink:href="#CMR17-35"/>
      </g>
     </g>
    </g>
    <g id="ytick_10">
     <g id="line2d_32">
      <path clip-path="url(#p124a771ca0)" d="M 300.332651 115.92 
L 513.685592 115.92 
" style="fill:none;stroke:#b0b0b0;stroke-linecap:square;stroke-width:0.8;"/>
     </g>
     <g id="line2d_33">
      <g>
       <use style="stroke:#000000;stroke-width:0.8;" x="300.332651" xlink:href="#m66b984cde5" y="115.92"/>
      </g>
     </g>
     <g id="text_16">
      <!-- $\mathdefault{0.00}$ -->
      <g transform="translate(272.522019 120.07109)scale(0.12 -0.12)">
       <use transform="scale(0.996264)" xlink:href="#CMR17-30"/>
       <use transform="translate(45.690477 0)scale(0.996264)" xlink:href="#CMMI12-3a"/>
       <use transform="translate(72.787654 0)scale(0.996264)" xlink:href="#CMR17-30"/>
       <use transform="translate(118.478131 0)scale(0.996264)" xlink:href="#CMR17-30"/>
      </g>
     </g>
    </g>
    <g id="ytick_11">
     <g id="line2d_34">
      <path clip-path="url(#p124a771ca0)" d="M 300.332651 91.210892 
L 513.685592 91.210892 
" style="fill:none;stroke:#b0b0b0;stroke-linecap:square;stroke-width:0.8;"/>
     </g>
     <g id="line2d_35">
      <g>
       <use style="stroke:#000000;stroke-width:0.8;" x="300.332651" xlink:href="#m66b984cde5" y="91.210892"/>
      </g>
     </g>
     <g id="text_17">
      <!-- $\mathdefault{0.25}$ -->
      <g transform="translate(272.522019 95.361982)scale(0.12 -0.12)">
       <use transform="scale(0.996264)" xlink:href="#CMR17-30"/>
       <use transform="translate(45.690477 0)scale(0.996264)" xlink:href="#CMMI12-3a"/>
       <use transform="translate(72.787654 0)scale(0.996264)" xlink:href="#CMR17-32"/>
       <use transform="translate(118.478131 0)scale(0.996264)" xlink:href="#CMR17-35"/>
      </g>
     </g>
    </g>
    <g id="ytick_12">
     <g id="line2d_36">
      <path clip-path="url(#p124a771ca0)" d="M 300.332651 66.501784 
L 513.685592 66.501784 
" style="fill:none;stroke:#b0b0b0;stroke-linecap:square;stroke-width:0.8;"/>
     </g>
     <g id="line2d_37">
      <g>
       <use style="stroke:#000000;stroke-width:0.8;" x="300.332651" xlink:href="#m66b984cde5" y="66.501784"/>
      </g>
     </g>
     <g id="text_18">
      <!-- $\mathdefault{0.50}$ -->
      <g transform="translate(272.522019 70.652874)scale(0.12 -0.12)">
       <use transform="scale(0.996264)" xlink:href="#CMR17-30"/>
       <use transform="translate(45.690477 0)scale(0.996264)" xlink:href="#CMMI12-3a"/>
       <use transform="translate(72.787654 0)scale(0.996264)" xlink:href="#CMR17-35"/>
       <use transform="translate(118.478131 0)scale(0.996264)" xlink:href="#CMR17-30"/>
      </g>
     </g>
    </g>
    <g id="ytick_13">
     <g id="line2d_38">
      <path clip-path="url(#p124a771ca0)" d="M 300.332651 41.792676 
L 513.685592 41.792676 
" style="fill:none;stroke:#b0b0b0;stroke-linecap:square;stroke-width:0.8;"/>
     </g>
     <g id="line2d_39">
      <g>
       <use style="stroke:#000000;stroke-width:0.8;" x="300.332651" xlink:href="#m66b984cde5" y="41.792676"/>
      </g>
     </g>
     <g id="text_19">
      <!-- $\mathdefault{0.75}$ -->
      <g transform="translate(272.522019 45.943766)scale(0.12 -0.12)">
       <use transform="scale(0.996264)" xlink:href="#CMR17-30"/>
       <use transform="translate(45.690477 0)scale(0.996264)" xlink:href="#CMMI12-3a"/>
       <use transform="translate(72.787654 0)scale(0.996264)" xlink:href="#CMR17-37"/>
       <use transform="translate(118.478131 0)scale(0.996264)" xlink:href="#CMR17-35"/>
      </g>
     </g>
    </g>
    <g id="ytick_14">
     <g id="line2d_40">
      <path clip-path="url(#p124a771ca0)" d="M 300.332651 17.083568 
L 513.685592 17.083568 
" style="fill:none;stroke:#b0b0b0;stroke-linecap:square;stroke-width:0.8;"/>
     </g>
     <g id="line2d_41">
      <g>
       <use style="stroke:#000000;stroke-width:0.8;" x="300.332651" xlink:href="#m66b984cde5" y="17.083568"/>
      </g>
     </g>
     <g id="text_20">
      <!-- $\mathdefault{1.00}$ -->
      <g transform="translate(272.522019 21.234658)scale(0.12 -0.12)">
       <use transform="scale(0.996264)" xlink:href="#CMR17-31"/>
       <use transform="translate(45.690477 0)scale(0.996264)" xlink:href="#CMMI12-3a"/>
       <use transform="translate(72.787654 0)scale(0.996264)" xlink:href="#CMR17-30"/>
       <use transform="translate(118.478131 0)scale(0.996264)" xlink:href="#CMR17-30"/>
      </g>
     </g>
    </g>
   </g>
   <g id="line2d_42">
    <path clip-path="url(#p124a771ca0)" d="M 310.030512 105.035934 
L 313.101856 124.955244 
L 322.103157 184.535995 
L 324.041439 195.271669 
L 325.605187 202.651512 
L 326.807758 207.340279 
L 327.829057 210.52773 
L 328.673487 212.54207 
L 329.344692 213.704422 
L 330.012052 214.446407 
L 330.510055 214.715976 
L 331.005907 214.731548 
L 331.49961 214.486389 
L 331.991172 213.974307 
L 332.643262 212.866745 
L 333.291562 211.26337 
L 334.096625 208.548298 
L 334.895805 205.032468 
L 335.847086 199.750049 
L 336.946296 192.131132 
L 338.034128 182.985424 
L 339.263508 170.768105 
L 340.629 155.00099 
L 342.272859 133.372717 
L 344.615139 99.234555 
L 347.6027 55.937611 
L 348.991184 38.912348 
L 350.086264 28.207044 
L 350.898468 22.313695 
L 351.569374 19.008122 
L 352.102231 17.509519 
L 352.499626 17.092427 
L 352.763487 17.162748 
L 353.026496 17.518027 
L 353.419413 18.594931 
L 353.810418 20.334878 
L 354.328794 23.698487 
L 354.972014 29.583821 
L 355.736941 39.068995 
L 356.619837 53.297208 
L 357.616383 73.240927 
L 358.965054 105.435336 
L 362.286767 188.128614 
L 363.092556 202.370558 
L 363.662154 209.522431 
L 364.11427 213.135913 
L 364.451286 214.508699 
L 364.67498 214.755823 
L 364.786532 214.673901 
L 365.009049 214.092385 
L 365.341355 212.161472 
L 365.781698 207.591633 
L 366.327749 198.700867 
L 366.97662 183.599555 
L 367.724872 160.633568 
L 368.777542 120.847574 
L 370.725481 45.659044 
L 371.426111 27.14717 
L 371.921 19.420774 
L 372.215719 17.349612 
L 372.411278 17.111705 
L 372.606104 17.816363 
L 372.896968 20.670061 
L 373.282232 27.831026 
L 373.759717 41.978664 
L 374.326724 65.710842 
L 375.165091 110.917512 
L 376.619895 190.12906 
L 377.153808 208.096415 
L 377.506252 213.926685 
L 377.68143 214.752887 
L 377.768758 214.620299 
L 377.942894 213.244375 
L 378.202799 208.386987 
L 378.546922 196.804922 
L 379.057952 169.590559 
L 379.81297 113.88942 
L 380.879362 37.353035 
L 381.28197 21.307214 
L 381.521539 17.359113 
L 381.601063 17.083636 
L 381.680422 17.344237 
L 381.838643 19.491957 
L 382.074738 26.769026 
L 382.387228 43.677149 
L 382.85105 81.76096 
L 384.207496 204.93593 
L 384.501865 214.199731 
L 384.575059 214.737815 
L 384.648095 214.529712 
L 384.793689 211.847932 
L 385.010895 202.214406 
L 385.369749 172.560464 
L 386.005814 93.625391 
L 386.560633 32.706326 
L 386.83434 18.555002 
L 386.970273 17.123739 
L 387.105594 19.722877 
L 387.307431 31.134139 
L 387.640786 67.835316 
L 388.746035 212.617965 
L 388.873229 214.733611 
L 388.999832 211.596866 
L 389.188629 197.17422 
L 389.50035 151.387229 
L 390.293768 21.944548 
L 390.413662 17.239586 
L 390.473394 17.354843 
L 390.592427 22.630001 
L 390.828776 52.131102 
L 391.751491 214.696274 
L 391.807965 214.149568 
L 391.920497 206.777335 
L 392.14389 169.254957 
L 392.854673 17.777278 
L 392.90839 17.173095 
L 393.015416 23.674559 
L 393.227841 64.753813 
L 393.852194 214.614437 
L 393.903355 213.997471 
L 394.005279 203.494918 
L 394.207539 150.870528 
L 394.654931 19.887975 
L 394.703988 17.186339 
L 394.752915 18.172825 
L 394.898918 42.763499 
L 395.471332 214.641152 
L 395.518202 211.436246 
L 395.658049 177.220734 
L 396.116005 17.108969 
L 396.161111 19.169875 
L 396.295682 54.404093 
L 396.692707 214.336699 
L 396.736205 213.594136 
L 396.865967 177.435164 
L 397.248686 17.336788 
L 397.290607 22.615354 
L 397.457087 100.068335 
L 397.703226 214.484139 
L 397.743833 212.632434 
L 397.864947 163.941106 
L 398.14343 17.106987 
L 398.182746 20.905391 
L 398.299995 79.378191 
L 398.531369 214.489164 
L 398.569529 211.78778 
L 398.683319 150.334298 
L 398.907823 17.299307 
L 398.981751 43.374097 
L 399.236954 214.614 
L 399.272964 206.477469 
L 399.521925 18.28896 
L 399.626966 60.975504 
L 399.834091 213.147786 
L 399.868231 198.617455 
L 400.070797 17.731361 
L 400.137458 41.772468 
L 400.334876 213.530798 
L 400.367406 197.662538 
L 400.560374 18.229392 
L 400.592167 35.042084 
L 400.749567 213.09824 
L 400.811799 186.398578 
L 400.965571 17.511613 
L 400.996017 34.048618 
L 401.146715 214.749113 
L 401.206281 164.205634 
L 401.324202 17.253468 
L 401.35343 34.505493 
L 401.49807 211.941854 
L 401.526699 184.321422 
L 401.640222 17.11782 
L 401.696392 75.773986 
L 401.779909 212.988208 
L 401.835098 166.6626 
L 401.917152 20.047539 
L 401.971369 64.170093 
L 402.051972 212.983232 
L 402.105226 158.82836 
L 402.184391 17.097669 
L 402.236691 93.583543 
L 402.31443 210.952741 
L 402.340154 170.901896 
L 402.416763 17.107167 
L 402.467367 102.103795 
L 402.517598 211.993968 
L 402.567457 146.227159 
L 402.616946 23.554343 
L 402.666066 78.055126 
L 402.739057 207.252472 
L 402.763204 152.700569 
L 402.811225 22.717337 
L 402.858883 89.316312 
L 402.906179 213.14852 
L 402.953114 122.149153 
L 402.99969 17.404769 
L 403.045907 140.469204 
L 403.068883 205.382562 
L 403.114566 138.232156 
L 403.159895 17.090224 
L 403.204871 143.182293 
L 403.227227 208.380895 
L 403.271676 120.803382 
L 403.315775 21.274533 
L 403.359526 176.869429 
L 403.381271 214.464435 
L 403.40293 163.552404 
L 403.445988 17.30941 
L 403.488703 154.416147 
L 403.509931 213.801883 
L 403.552132 79.395108 
L 403.573105 17.986985 
L 403.614795 157.459869 
L 403.635513 214.612647 
L 403.676696 62.736208 
L 403.697161 17.653103 
L 403.717543 82.567755 
L 403.758054 208.722074 
L 403.798232 28.541708 
L 403.838077 143.761904 
L 403.857875 214.270736 
L 403.897224 49.853656 
L 403.916775 24.044744 
L 403.936244 119.208041 
L 404.013303 22.477049 
L 404.051345 211.931346 
L 404.181953 21.92826 
L 404.145037 214.282257 
L 404.200291 68.295844 
L 404.272852 26.351017 
L 404.308659 212.868118 
L 404.344152 17.085711 
L 404.379332 213.922979 
L 404.431521 93.056365 
L 404.516959 213.979845 
L 404.483014 19.28928 
L 404.533817 121.879199 
L 404.550598 17.102685 
L 404.583934 212.264872 
L 404.63337 175.657109 
L 404.649698 183.203919 
L 404.730217 23.481483 
L 404.698233 213.892074 
L 404.746098 174.498258 
L 404.761905 175.460943 
L 404.777638 22.713486 
L 404.855203 214.228937 
L 404.885718 43.545517 
L 404.930949 34.452903 
L 404.990251 208.368416 
L 405.091296 26.783702 
L 405.03398 214.440929 
L 405.105449 145.430366 
L 405.119533 162.833942 
L 405.20258 17.313138 
L 405.147492 204.959639 
L 405.229712 89.366053 
L 405.243175 86.263727 
L 405.283157 210.163527 
L 405.269897 18.886221 
L 405.348445 187.337571 
L 405.386816 17.989531 
L 405.374092 213.863843 
L 405.461776 71.895449 
L 405.55808 32.453505 
L 405.569829 209.131378 
L 405.581515 17.369358 
L 405.593137 212.284316 
L 405.683852 53.60009 
L 405.716845 18.126778 
L 405.791689 214.586294 
L 405.843341 18.135041 
L 405.913169 76.059361 
L 405.970754 17.133985 
L 405.998775 209.963863 
L 406.017172 145.700863 
L 406.044347 17.117222 
L 406.13134 90.642747 
L 406.156378 18.014419 
L 406.197042 204.579619 
L 406.220809 39.763903 
L 406.236393 210.398758 
L 406.296675 17.862791 
L 406.325603 179.018609 
L 406.381089 21.05681 
L 406.339769 199.454432 
L 406.433488 107.168462 
L 406.49478 214.462805 
L 406.51228 17.371324 
L 406.540556 201.214392 
L 406.546079 17.268189 
L 406.623796 214.565363 
L 406.652268 108.398547 
L 406.744644 214.577595 
L 406.68367 17.085336 
L 406.748413 147.264524 
L 406.752146 17.200371 
L 406.839973 214.306913 
L 406.856286 180.011583 
L 406.946655 213.944835 
L 406.952267 17.57666 
L 406.956247 70.020435 
L 407.008939 17.084396 
L 407.009304 214.755604 
L 407.064628 98.016855 
L 407.065976 214.26334 
L 407.071588 17.895165 
L 407.175474 214.098826 
L 407.273599 17.262405 
L 407.266096 214.639629 
L 407.285124 22.399127 
L 407.334572 214.754664 
L 407.394447 17.274637 
L 407.472164 214.571811 
L 407.511752 148.683651 
L 407.523463 17.377195 
L 407.591139 209.649882 
L 407.623768 110.63258 
L 407.678474 32.385568 
L 407.721568 213.977209 
L 407.728925 41.005 
L 407.766473 209.752222 
L 407.78185 21.441242 
L 407.853626 205.829743 
L 407.861865 213.825581 
L 407.886903 141.197253 
L 407.912427 99.997349 
L 407.964949 204.955586 
L 407.973896 214.722778 
L 407.991957 152.637863 
L 408.019468 21.876137 
L 408.047489 214.706015 
L 408.085648 117.551204 
L 408.174902 213.704959 
L 408.154657 28.984335 
L 408.185113 105.303329 
L 408.226554 17.253706 
L 408.268957 185.943562 
L 408.290523 36.896909 
L 408.301398 213.713222 
L 408.345511 20.694968 
L 408.402051 57.495758 
L 408.436728 214.470642 
L 408.425106 19.555684 
L 408.5078 159.680866 
L 408.606178 198.333353 
L 408.618769 23.966096 
L 408.631427 213.850469 
L 408.644151 17.976157 
L 408.721894 186.445512 
L 408.735086 21.676473 
L 408.815663 214.526862 
L 408.829332 33.521492 
L 408.884695 210.289803 
L 408.870751 26.880361 
L 408.926947 205.056298 
L 408.984263 17.399071 
L 409.027992 23.471584 
L 409.087294 197.387097 
L 409.147746 146.390554 
L 409.16304 17.611063 
L 409.240605 209.126514 
L 409.256338 56.379057 
L 409.272145 57.341742 
L 409.288026 208.358517 
L 409.32001 17.947926 
L 409.368545 48.636081 
L 409.384873 56.182891 
L 409.467644 214.737315 
L 409.434309 19.575128 
L 409.484426 109.960801 
L 409.501284 17.860155 
L 409.535229 212.55072 
L 409.586722 138.783635 
L 409.674091 214.754289 
L 409.638911 17.917021 
L 409.691799 125.263504 
L 409.709584 18.971882 
L 409.745391 205.488983 
L 409.799693 39.009536 
L 409.83629 209.91174 
L 409.873205 17.557743 
L 409.929179 187.084596 
L 409.966898 19.908654 
L 410.004939 209.362951 
L 410.062611 21.516214 
L 410.101468 207.795256 
L 410.160368 17.569264 
L 410.200047 192.762855 
L 410.220011 203.298292 
L 410.260189 23.117926 
L 410.321081 214.186897 
L 410.38273 17.227353 
L 410.42425 174.986302 
L 410.445138 213.853015 
L 410.466111 152.444892 
L 410.508311 18.038117 
L 410.550854 173.609551 
L 410.572254 214.53059 
L 410.593741 162.970051 
L 410.636972 17.375565 
L 410.680549 146.153513 
L 410.702468 210.565467 
L 410.746567 111.036618 
L 410.791016 23.459105 
L 410.835816 175.219338 
L 410.858348 214.749776 
L 410.880968 177.591023 
L 410.94936 26.457438 
L 410.972335 91.370796 
L 411.018553 214.435231 
L 411.065129 109.690847 
L 411.112064 18.69148 
L 411.15936 142.523688 
L 411.207017 209.122663 
L 411.230982 156.406778 
L 411.279186 24.587528 
L 411.327755 78.680669 
L 411.401297 208.285657 
L 411.425995 158.447312 
L 411.500645 19.846032 
L 411.525714 60.599159 
L 411.60148 214.732833 
L 411.652458 127.53625 
L 411.703813 20.887259 
L 411.755544 72.098962 
L 411.833852 214.742331 
L 411.886533 136.886811 
L 411.966271 18.856768 
L 411.993043 49.831345 
L 412.101091 211.792461 
L 412.128345 179.545481 
L 412.238334 18.851792 
L 412.266075 46.604066 
L 412.378021 214.72218 
L 412.406253 196.954394 
L 412.520173 19.898146 
L 412.577729 53.213303 
L 412.694041 214.586532 
L 412.752799 167.764893 
L 412.871528 17.090887 
L 412.901464 29.49813 
L 413.052671 214.328387 
L 413.113871 177.364986 
L 413.268676 18.74176 
L 413.299948 37.769562 
L 413.457869 213.610608 
L 413.52177 187.66825 
L 413.683367 18.309202 
L 413.748747 41.124207 
L 413.947446 214.108639 
L 413.980937 201.245411 
L 414.184152 18.692214 
L 414.252757 34.882707 
L 414.496318 213.55104 
L 414.531552 201.155277 
L 414.781289 17.226 
L 414.853643 37.642585 
L 415.11042 214.540693 
L 415.1848 197.146795 
L 415.486874 17.350836 
L 415.525148 24.539738 
L 415.718248 152.461809 
L 415.874813 214.733013 
L 415.914245 209.715331 
L 416.073143 122.987074 
L 416.315017 17.355861 
L 416.396587 36.245089 
L 416.769557 214.503212 
L 416.853758 204.7883 
L 417.066378 99.420025 
L 417.282038 18.245864 
L 417.325536 17.503301 
L 417.412901 33.218487 
L 417.902238 214.731031 
L 417.992825 203.773425 
L 418.221486 114.278775 
L 418.500041 20.403754 
L 418.546911 17.198848 
L 418.593908 18.380564 
L 418.735665 46.133277 
L 419.314254 214.653661 
L 419.412499 205.719987 
L 419.610553 152.699782 
L 420.063859 21.572701 
L 420.166049 17.225563 
L 420.26877 25.121696 
L 420.475813 71.105969 
L 421.056272 212.69691 
L 421.109853 214.666905 
L 421.16357 214.062722 
L 421.271413 205.412035 
L 421.488739 163.518998 
L 422.153942 20.338722 
L 422.266752 17.143726 
L 422.380121 22.234574 
L 422.608541 54.060864 
L 423.485261 212.686128 
L 423.60458 214.600414 
L 423.724475 209.895452 
L 423.965994 182.984384 
L 425.081639 18.012896 
L 425.145014 17.106389 
L 425.208537 17.51733 
L 425.336028 22.180293 
L 425.592794 45.229975 
L 426.113497 123.921207 
L 426.643837 194.995864 
L 426.912649 212.117123 
L 427.04797 214.716261 
L 427.11586 214.497824 
L 427.252099 211.103285 
L 427.45761 199.133674 
L 427.803211 164.539977 
L 429.007348 29.625594 
L 429.297272 18.272765 
L 429.443184 17.102185 
L 429.589731 18.910852 
L 429.810747 26.90407 
L 430.182304 52.226377 
L 430.937482 127.261719 
L 431.631015 188.162851 
L 432.022038 208.03122 
L 432.337821 214.495763 
L 432.41718 214.756364 
L 432.496704 214.480887 
L 432.656251 212.356967 
L 432.896816 205.439018 
L 433.301094 185.255681 
L 433.956656 137.838614 
L 435.129948 52.002689 
L 435.643038 28.532284 
L 435.988541 19.842616 
L 436.249485 17.219701 
L 436.336813 17.087113 
L 436.424315 17.320047 
L 436.59984 18.860483 
L 436.864435 23.743585 
L 437.219676 34.625674 
L 437.757803 58.570477 
L 438.853152 120.922488 
L 439.879799 174.768574 
L 440.544472 199.020614 
L 441.024685 209.737519 
L 441.412139 214.023637 
L 441.606965 214.728295 
L 441.704653 214.725905 
L 441.90058 214.024912 
L 442.195852 211.287755 
L 442.592132 204.69283 
L 443.091652 192.267308 
L 443.798803 168.739303 
L 445.240701 110.992426 
L 446.506197 64.127613 
L 447.365189 40.111088 
L 448.017542 27.385885 
L 448.566509 20.606929 
L 449.009194 17.747615 
L 449.231711 17.166099 
L 449.455012 17.139751 
L 449.679099 17.657138 
L 450.016706 19.421021 
L 450.469612 23.523085 
L 451.040202 31.221736 
L 451.731476 43.711386 
L 452.781893 67.497654 
L 457.273111 176.251203 
L 458.281302 192.771005 
L 459.046228 202.256179 
L 459.818726 209.094635 
L 460.468283 212.739222 
L 460.860562 214.036029 
L 461.254756 214.677252 
L 461.518617 214.747573 
L 461.783333 214.538208 
L 462.182012 213.712972 
L 462.58262 212.294802 
L 463.119775 209.526305 
L 463.796071 204.751591 
L 464.614773 197.288816 
L 465.718564 184.848699 
L 467.118016 166.25732 
L 469.692747 128.271643 
L 472.339972 90.351241 
L 473.99384 69.587125 
L 475.367583 54.737087 
L 476.604344 43.445257 
L 477.69867 35.164724 
L 478.804409 28.439442 
L 479.761312 23.930542 
L 480.565197 21.056066 
L 481.374981 18.973255 
L 482.027071 17.865693 
L 482.518632 17.353611 
L 483.012336 17.108452 
L 483.508188 17.124024 
L 484.006191 17.393593 
L 484.506351 17.909937 
L 485.176593 18.968979 
L 486.019817 20.861188 
L 486.869082 23.347856 
L 487.896208 27.05798 
L 489.105607 32.293625 
L 490.502468 39.325947 
L 492.270713 49.425361 
L 494.606519 64.197772 
L 498.655929 91.584719 
L 503.020853 120.680366 
L 503.987731 126.804066 
L 503.987731 126.804066 
" style="fill:none;stroke:#1f77b4;stroke-linecap:square;stroke-width:1.5;"/>
   </g>
   <g id="patch_8">
    <path d="M 300.332651 224.64 
L 300.332651 7.2 
" style="fill:none;stroke:#000000;stroke-linecap:square;stroke-linejoin:miter;stroke-width:0.8;"/>
   </g>
   <g id="patch_9">
    <path d="M 513.685592 224.64 
L 513.685592 7.2 
" style="fill:none;stroke:#000000;stroke-linecap:square;stroke-linejoin:miter;stroke-width:0.8;"/>
   </g>
   <g id="patch_10">
    <path d="M 300.332651 224.64 
L 513.685592 224.64 
" style="fill:none;stroke:#000000;stroke-linecap:square;stroke-linejoin:miter;stroke-width:0.8;"/>
   </g>
   <g id="patch_11">
    <path d="M 300.332651 7.2 
L 513.685592 7.2 
" style="fill:none;stroke:#000000;stroke-linecap:square;stroke-linejoin:miter;stroke-width:0.8;"/>
   </g>
  </g>
  <g id="axes_3">
   <g id="patch_12">
    <path d="M 556.35618 224.64 
L 769.709121 224.64 
L 769.709121 7.2 
L 556.35618 7.2 
z
" style="fill:#ffffff;"/>
   </g>
   <g id="matplotlib.axis_5">
    <g id="xtick_7">
     <g id="line2d_43">
      <path clip-path="url(#pce63234e35)" d="M 591.196644 224.64 
L 591.196644 7.2 
" style="fill:none;stroke:#b0b0b0;stroke-linecap:square;stroke-width:0.8;"/>
     </g>
     <g id="line2d_44">
      <g>
       <use style="stroke:#000000;stroke-width:0.8;" x="591.196644" xlink:href="#m74a4707c32" y="224.64"/>
      </g>
     </g>
     <g id="text_21">
      <!-- $\mathdefault{−0.02}$ -->
      <g transform="translate(576.142083 239.94218)scale(0.12 -0.12)">
       <use transform="scale(0.996264)" xlink:href="#CMSY10-0"/>
       <use transform="translate(77.487468 0)scale(0.996264)" xlink:href="#CMR17-30"/>
       <use transform="translate(123.177945 0)scale(0.996264)" xlink:href="#CMMI12-3a"/>
       <use transform="translate(150.275122 0)scale(0.996264)" xlink:href="#CMR17-30"/>
       <use transform="translate(195.965599 0)scale(0.996264)" xlink:href="#CMR17-32"/>
      </g>
     </g>
    </g>
    <g id="xtick_8">
     <g id="line2d_45">
      <path clip-path="url(#pce63234e35)" d="M 663.032651 224.64 
L 663.032651 7.2 
" style="fill:none;stroke:#b0b0b0;stroke-linecap:square;stroke-width:0.8;"/>
     </g>
     <g id="line2d_46">
      <g>
       <use style="stroke:#000000;stroke-width:0.8;" x="663.032651" xlink:href="#m74a4707c32" y="224.64"/>
      </g>
     </g>
     <g id="text_22">
      <!-- $\mathdefault{0.00}$ -->
      <g transform="translate(652.627335 239.94218)scale(0.12 -0.12)">
       <use transform="scale(0.996264)" xlink:href="#CMR17-30"/>
       <use transform="translate(45.690477 0)scale(0.996264)" xlink:href="#CMMI12-3a"/>
       <use transform="translate(72.787654 0)scale(0.996264)" xlink:href="#CMR17-30"/>
       <use transform="translate(118.478131 0)scale(0.996264)" xlink:href="#CMR17-30"/>
      </g>
     </g>
    </g>
    <g id="xtick_9">
     <g id="line2d_47">
      <path clip-path="url(#pce63234e35)" d="M 734.868658 224.64 
L 734.868658 7.2 
" style="fill:none;stroke:#b0b0b0;stroke-linecap:square;stroke-width:0.8;"/>
     </g>
     <g id="line2d_48">
      <g>
       <use style="stroke:#000000;stroke-width:0.8;" x="734.868658" xlink:href="#m74a4707c32" y="224.64"/>
      </g>
     </g>
     <g id="text_23">
      <!-- $\mathdefault{0.02}$ -->
      <g transform="translate(724.463342 239.94218)scale(0.12 -0.12)">
       <use transform="scale(0.996264)" xlink:href="#CMR17-30"/>
       <use transform="translate(45.690477 0)scale(0.996264)" xlink:href="#CMMI12-3a"/>
       <use transform="translate(72.787654 0)scale(0.996264)" xlink:href="#CMR17-30"/>
       <use transform="translate(118.478131 0)scale(0.996264)" xlink:href="#CMR17-32"/>
      </g>
     </g>
    </g>
   </g>
   <g id="matplotlib.axis_6">
    <g id="ytick_15">
     <g id="line2d_49">
      <path clip-path="url(#pce63234e35)" d="M 556.35618 214.756364 
L 769.709121 214.756364 
" style="fill:none;stroke:#b0b0b0;stroke-linecap:square;stroke-width:0.8;"/>
     </g>
     <g id="line2d_50">
      <g>
       <use style="stroke:#000000;stroke-width:0.8;" x="556.35618" xlink:href="#m66b984cde5" y="214.756364"/>
      </g>
     </g>
     <g id="text_24">
      <!-- $\mathdefault{−1.00}$ -->
      <g transform="translate(519.247059 218.907454)scale(0.12 -0.12)">
       <use transform="scale(0.996264)" xlink:href="#CMSY10-0"/>
       <use transform="translate(77.487468 0)scale(0.996264)" xlink:href="#CMR17-31"/>
       <use transform="translate(123.177945 0)scale(0.996264)" xlink:href="#CMMI12-3a"/>
       <use transform="translate(150.275122 0)scale(0.996264)" xlink:href="#CMR17-30"/>
       <use transform="translate(195.965599 0)scale(0.996264)" xlink:href="#CMR17-30"/>
      </g>
     </g>
    </g>
    <g id="ytick_16">
     <g id="line2d_51">
      <path clip-path="url(#pce63234e35)" d="M 556.35618 190.047273 
L 769.709121 190.047273 
" style="fill:none;stroke:#b0b0b0;stroke-linecap:square;stroke-width:0.8;"/>
     </g>
     <g id="line2d_52">
      <g>
       <use style="stroke:#000000;stroke-width:0.8;" x="556.35618" xlink:href="#m66b984cde5" y="190.047273"/>
      </g>
     </g>
     <g id="text_25">
      <!-- $\mathdefault{−0.75}$ -->
      <g transform="translate(519.247059 194.198363)scale(0.12 -0.12)">
       <use transform="scale(0.996264)" xlink:href="#CMSY10-0"/>
       <use transform="translate(77.487468 0)scale(0.996264)" xlink:href="#CMR17-30"/>
       <use transform="translate(123.177945 0)scale(0.996264)" xlink:href="#CMMI12-3a"/>
       <use transform="translate(150.275122 0)scale(0.996264)" xlink:href="#CMR17-37"/>
       <use transform="translate(195.965599 0)scale(0.996264)" xlink:href="#CMR17-35"/>
      </g>
     </g>
    </g>
    <g id="ytick_17">
     <g id="line2d_53">
      <path clip-path="url(#pce63234e35)" d="M 556.35618 165.338182 
L 769.709121 165.338182 
" style="fill:none;stroke:#b0b0b0;stroke-linecap:square;stroke-width:0.8;"/>
     </g>
     <g id="line2d_54">
      <g>
       <use style="stroke:#000000;stroke-width:0.8;" x="556.35618" xlink:href="#m66b984cde5" y="165.338182"/>
      </g>
     </g>
     <g id="text_26">
      <!-- $\mathdefault{−0.50}$ -->
      <g transform="translate(519.247059 169.489272)scale(0.12 -0.12)">
       <use transform="scale(0.996264)" xlink:href="#CMSY10-0"/>
       <use transform="translate(77.487468 0)scale(0.996264)" xlink:href="#CMR17-30"/>
       <use transform="translate(123.177945 0)scale(0.996264)" xlink:href="#CMMI12-3a"/>
       <use transform="translate(150.275122 0)scale(0.996264)" xlink:href="#CMR17-35"/>
       <use transform="translate(195.965599 0)scale(0.996264)" xlink:href="#CMR17-30"/>
      </g>
     </g>
    </g>
    <g id="ytick_18">
     <g id="line2d_55">
      <path clip-path="url(#pce63234e35)" d="M 556.35618 140.629091 
L 769.709121 140.629091 
" style="fill:none;stroke:#b0b0b0;stroke-linecap:square;stroke-width:0.8;"/>
     </g>
     <g id="line2d_56">
      <g>
       <use style="stroke:#000000;stroke-width:0.8;" x="556.35618" xlink:href="#m66b984cde5" y="140.629091"/>
      </g>
     </g>
     <g id="text_27">
      <!-- $\mathdefault{−0.25}$ -->
      <g transform="translate(519.247059 144.780181)scale(0.12 -0.12)">
       <use transform="scale(0.996264)" xlink:href="#CMSY10-0"/>
       <use transform="translate(77.487468 0)scale(0.996264)" xlink:href="#CMR17-30"/>
       <use transform="translate(123.177945 0)scale(0.996264)" xlink:href="#CMMI12-3a"/>
       <use transform="translate(150.275122 0)scale(0.996264)" xlink:href="#CMR17-32"/>
       <use transform="translate(195.965599 0)scale(0.996264)" xlink:href="#CMR17-35"/>
      </g>
     </g>
    </g>
    <g id="ytick_19">
     <g id="line2d_57">
      <path clip-path="url(#pce63234e35)" d="M 556.35618 115.92 
L 769.709121 115.92 
" style="fill:none;stroke:#b0b0b0;stroke-linecap:square;stroke-width:0.8;"/>
     </g>
     <g id="line2d_58">
      <g>
       <use style="stroke:#000000;stroke-width:0.8;" x="556.35618" xlink:href="#m66b984cde5" y="115.92"/>
      </g>
     </g>
     <g id="text_28">
      <!-- $\mathdefault{0.00}$ -->
      <g transform="translate(528.545548 120.07109)scale(0.12 -0.12)">
       <use transform="scale(0.996264)" xlink:href="#CMR17-30"/>
       <use transform="translate(45.690477 0)scale(0.996264)" xlink:href="#CMMI12-3a"/>
       <use transform="translate(72.787654 0)scale(0.996264)" xlink:href="#CMR17-30"/>
       <use transform="translate(118.478131 0)scale(0.996264)" xlink:href="#CMR17-30"/>
      </g>
     </g>
    </g>
    <g id="ytick_20">
     <g id="line2d_59">
      <path clip-path="url(#pce63234e35)" d="M 556.35618 91.210909 
L 769.709121 91.210909 
" style="fill:none;stroke:#b0b0b0;stroke-linecap:square;stroke-width:0.8;"/>
     </g>
     <g id="line2d_60">
      <g>
       <use style="stroke:#000000;stroke-width:0.8;" x="556.35618" xlink:href="#m66b984cde5" y="91.210909"/>
      </g>
     </g>
     <g id="text_29">
      <!-- $\mathdefault{0.25}$ -->
      <g transform="translate(528.545548 95.361999)scale(0.12 -0.12)">
       <use transform="scale(0.996264)" xlink:href="#CMR17-30"/>
       <use transform="translate(45.690477 0)scale(0.996264)" xlink:href="#CMMI12-3a"/>
       <use transform="translate(72.787654 0)scale(0.996264)" xlink:href="#CMR17-32"/>
       <use transform="translate(118.478131 0)scale(0.996264)" xlink:href="#CMR17-35"/>
      </g>
     </g>
    </g>
    <g id="ytick_21">
     <g id="line2d_61">
      <path clip-path="url(#pce63234e35)" d="M 556.35618 66.501818 
L 769.709121 66.501818 
" style="fill:none;stroke:#b0b0b0;stroke-linecap:square;stroke-width:0.8;"/>
     </g>
     <g id="line2d_62">
      <g>
       <use style="stroke:#000000;stroke-width:0.8;" x="556.35618" xlink:href="#m66b984cde5" y="66.501818"/>
      </g>
     </g>
     <g id="text_30">
      <!-- $\mathdefault{0.50}$ -->
      <g transform="translate(528.545548 70.652908)scale(0.12 -0.12)">
       <use transform="scale(0.996264)" xlink:href="#CMR17-30"/>
       <use transform="translate(45.690477 0)scale(0.996264)" xlink:href="#CMMI12-3a"/>
       <use transform="translate(72.787654 0)scale(0.996264)" xlink:href="#CMR17-35"/>
       <use transform="translate(118.478131 0)scale(0.996264)" xlink:href="#CMR17-30"/>
      </g>
     </g>
    </g>
    <g id="ytick_22">
     <g id="line2d_63">
      <path clip-path="url(#pce63234e35)" d="M 556.35618 41.792727 
L 769.709121 41.792727 
" style="fill:none;stroke:#b0b0b0;stroke-linecap:square;stroke-width:0.8;"/>
     </g>
     <g id="line2d_64">
      <g>
       <use style="stroke:#000000;stroke-width:0.8;" x="556.35618" xlink:href="#m66b984cde5" y="41.792727"/>
      </g>
     </g>
     <g id="text_31">
      <!-- $\mathdefault{0.75}$ -->
      <g transform="translate(528.545548 45.943817)scale(0.12 -0.12)">
       <use transform="scale(0.996264)" xlink:href="#CMR17-30"/>
       <use transform="translate(45.690477 0)scale(0.996264)" xlink:href="#CMMI12-3a"/>
       <use transform="translate(72.787654 0)scale(0.996264)" xlink:href="#CMR17-37"/>
       <use transform="translate(118.478131 0)scale(0.996264)" xlink:href="#CMR17-35"/>
      </g>
     </g>
    </g>
    <g id="ytick_23">
     <g id="line2d_65">
      <path clip-path="url(#pce63234e35)" d="M 556.35618 17.083636 
L 769.709121 17.083636 
" style="fill:none;stroke:#b0b0b0;stroke-linecap:square;stroke-width:0.8;"/>
     </g>
     <g id="line2d_66">
      <g>
       <use style="stroke:#000000;stroke-width:0.8;" x="556.35618" xlink:href="#m66b984cde5" y="17.083636"/>
      </g>
     </g>
     <g id="text_32">
      <!-- $\mathdefault{1.00}$ -->
      <g transform="translate(528.545548 21.234726)scale(0.12 -0.12)">
       <use transform="scale(0.996264)" xlink:href="#CMR17-31"/>
       <use transform="translate(45.690477 0)scale(0.996264)" xlink:href="#CMMI12-3a"/>
       <use transform="translate(72.787654 0)scale(0.996264)" xlink:href="#CMR17-30"/>
       <use transform="translate(118.478131 0)scale(0.996264)" xlink:href="#CMR17-30"/>
      </g>
     </g>
    </g>
   </g>
   <g id="line2d_67">
    <path clip-path="url(#pce63234e35)" d="M 566.054041 17.083636 
L 567.59795 17.083636 
L 567.789779 214.756364 
L 599.474722 214.756364 
L 599.621 17.083636 
L 615.352093 17.083636 
L 615.472854 214.756364 
L 624.905292 214.756364 
L 625.113164 17.083636 
L 631.188621 17.083636 
L 631.372956 214.756364 
L 635.753288 214.756364 
L 635.919541 17.083636 
L 639.180536 17.083636 
L 639.33254 214.756364 
L 641.818727 214.756364 
L 641.959293 17.083636 
L 643.928275 17.083636 
L 644.059351 214.756364 
L 645.709156 214.756364 
L 645.831945 17.083636 
L 647.144539 17.083636 
L 647.260439 214.756364 
L 648.33351 214.756364 
L 648.498359 17.083636 
L 649.40927 17.083636 
L 649.565959 214.756364 
L 650.281303 214.756364 
L 650.431219 17.083636 
L 651.115307 17.083636 
L 651.2586 214.756364 
L 651.820286 214.756364 
L 651.95786 17.083636 
L 652.408304 17.083636 
L 652.541014 214.756364 
L 652.975394 214.756364 
L 653.103329 17.083636 
L 653.480616 17.083636 
L 653.604221 214.756364 
L 653.928612 214.756364 
L 654.048312 17.083636 
L 654.362376 17.083636 
L 654.478235 214.756364 
L 654.74455 214.756364 
L 654.856972 17.083636 
L 655.078757 17.083636 
L 655.224362 214.756364 
L 655.403856 214.756364 
L 655.545454 17.083636 
L 655.685289 17.083636 
L 655.823372 214.756364 
L 655.959714 214.756364 
L 656.094326 17.083636 
L 656.22722 17.083636 
L 656.358405 214.756364 
L 656.45568 214.756364 
L 656.583903 17.083636 
L 656.678969 17.083636 
L 656.804264 214.756364 
L 656.866289 214.756364 
L 656.989101 17.083636 
L 657.04989 17.083636 
L 657.170244 214.756364 
L 657.229811 214.756364 
L 657.347731 17.083636 
L 657.406087 17.083636 
L 657.521599 214.756364 
L 657.578757 214.756364 
L 657.691886 17.083636 
L 657.719921 17.083636 
L 657.858628 214.756364 
L 657.994898 17.083636 
L 658.128755 214.756364 
L 658.26022 17.083636 
L 658.363684 214.756364 
L 658.490897 17.083636 
L 658.590987 214.756364 
L 658.689595 17.083636 
L 658.786734 214.756364 
L 658.882413 17.083636 
L 658.976643 214.756364 
L 659.046373 17.083636 
L 659.069437 214.756364 
L 659.138095 214.756364 
L 659.205956 17.083636 
L 659.2284 214.756364 
L 659.295205 214.756364 
L 659.361223 17.083636 
L 659.404801 214.756364 
L 659.426459 214.756364 
L 659.490918 17.083636 
L 659.533461 214.756364 
L 659.554604 214.756364 
L 659.617522 17.083636 
L 659.659043 214.756364 
L 659.679676 214.756364 
L 659.741072 17.083636 
L 659.781583 214.756364 
L 659.801714 214.756364 
L 659.920754 17.083636 
L 659.940305 17.083636 
L 660.055894 214.756364 
L 660.093774 214.756364 
L 660.205483 17.083636 
L 660.223821 17.083636 
L 660.332188 214.756364 
L 660.45505 17.083636 
L 660.557346 214.756364 
L 660.640496 17.083636 
L 660.656899 214.756364 
L 660.673227 214.756364 
L 660.753747 17.083636 
L 660.769628 214.756364 
L 660.785434 214.756364 
L 660.909248 17.083636 
L 661.013781 214.756364 
L 661.114825 17.083636 
L 661.212441 214.756364 
L 661.319878 17.083636 
L 661.423003 214.756364 
L 661.533973 17.083636 
L 661.639721 214.756364 
L 661.740375 17.083636 
L 661.856659 214.756364 
L 661.956124 17.083636 
L 661.96575 214.756364 
L 661.975319 214.756364 
L 662.094551 17.083636 
L 662.103332 17.083636 
L 662.220572 214.756364 
L 662.228546 214.756364 
L 662.341975 17.083636 
L 662.437724 214.756364 
L 662.450633 17.083636 
L 662.457017 17.083636 
L 662.564085 214.756364 
L 662.675798 17.083636 
L 662.790252 214.756364 
L 662.902265 17.083636 
L 663.013382 214.756364 
L 663.124953 17.083636 
L 663.128759 17.083636 
L 663.234647 214.756364 
L 663.237828 17.083636 
L 663.247571 17.083636 
L 663.358102 214.756364 
L 663.36247 214.756364 
L 663.468727 17.083636 
L 663.570958 214.756364 
L 663.577063 17.083636 
L 663.601947 17.083636 
L 663.709061 214.756364 
L 663.813146 17.083636 
L 663.918886 214.756364 
L 664.033771 17.083636 
L 664.052281 17.083636 
L 664.168153 214.756364 
L 664.281795 17.083636 
L 664.402777 214.756364 
L 664.414147 214.756364 
L 664.519324 17.083636 
L 664.629707 214.756364 
L 664.732299 17.083636 
L 664.839192 214.756364 
L 664.936323 17.083636 
L 665.036874 214.756364 
L 665.140905 17.083636 
L 665.264134 214.756364 
L 665.343539 17.083636 
L 665.359643 214.756364 
L 665.375821 214.756364 
L 665.474468 17.083636 
L 665.558758 214.756364 
L 665.575846 17.083636 
L 665.59301 17.083636 
L 665.715328 214.756364 
L 665.823222 17.083636 
L 665.933971 214.756364 
L 665.952709 214.756364 
L 666.066835 17.083636 
L 666.105528 17.083636 
L 666.223577 214.756364 
L 666.243541 214.756364 
L 666.303932 17.083636 
L 666.344611 214.756364 
L 666.365076 214.756364 
L 666.426977 17.083636 
L 666.468667 214.756364 
L 666.48964 214.756364 
L 666.553069 17.083636 
L 666.595784 214.756364 
L 666.61727 214.756364 
L 666.682246 17.083636 
L 666.725997 214.756364 
L 666.748003 214.756364 
L 666.836901 17.083636 
L 666.904498 214.756364 
L 666.927206 17.083636 
L 666.995865 17.083636 
L 667.065326 214.756364 
L 667.088658 17.083636 
L 667.159196 17.083636 
L 667.254512 214.756364 
L 667.351284 17.083636 
L 667.449524 214.756364 
L 667.549243 17.083636 
L 667.675988 214.756364 
L 667.779074 17.083636 
L 667.910063 214.756364 
L 668.043439 17.083636 
L 668.179226 214.756364 
L 668.317443 17.083636 
L 668.429783 214.756364 
L 668.458114 214.756364 
L 668.572431 17.083636 
L 668.630186 17.083636 
L 668.746899 214.756364 
L 668.805859 214.756364 
L 668.924993 17.083636 
L 668.98517 17.083636 
L 669.106749 214.756364 
L 669.168155 214.756364 
L 669.292206 17.083636 
L 669.354853 17.083636 
L 669.481399 214.756364 
L 669.577408 214.756364 
L 669.706897 17.083636 
L 669.805126 17.083636 
L 669.937591 214.756364 
L 670.071773 214.756364 
L 670.207681 17.083636 
L 670.345328 17.083636 
L 670.484724 214.756364 
L 670.62588 214.756364 
L 670.768808 17.083636 
L 670.949975 17.083636 
L 671.096929 214.756364 
L 671.283164 214.756364 
L 671.396269 17.083636 
L 671.664191 17.083636 
L 671.780744 214.756364 
L 672.096672 214.756364 
L 672.217079 17.083636 
L 672.543364 17.083636 
L 672.667686 214.756364 
L 673.047141 214.756364 
L 673.175805 17.083636 
L 673.612638 17.083636 
L 673.746091 214.756364 
L 674.199032 214.756364 
L 674.337361 17.083636 
L 674.902102 17.083636 
L 675.046167 214.756364 
L 675.733895 214.756364 
L 675.8846 17.083636 
L 676.603668 17.083636 
L 676.761164 214.756364 
L 677.676704 214.756364 
L 677.84238 17.083636 
L 678.862742 17.083636 
L 678.978926 214.756364 
L 680.294678 214.756364 
L 680.417758 17.083636 
L 682.071413 17.083636 
L 682.20279 214.756364 
L 684.176214 214.756364 
L 684.317092 17.083636 
L 686.808683 17.083636 
L 686.961011 214.756364 
L 690.228803 214.756364 
L 690.395394 17.083636 
L 694.784424 17.083636 
L 694.969117 214.756364 
L 701.055979 214.756364 
L 701.264231 17.083636 
L 710.592448 17.083636 
L 710.713209 214.756364 
L 726.444302 214.756364 
L 726.59058 17.083636 
L 758.275523 17.083636 
L 758.467352 214.756364 
L 760.01126 214.756364 
L 760.01126 214.756364 
" style="fill:none;stroke:#1f77b4;stroke-linecap:square;stroke-width:1.5;"/>
   </g>
   <g id="patch_13">
    <path d="M 556.35618 224.64 
L 556.35618 7.2 
" style="fill:none;stroke:#000000;stroke-linecap:square;stroke-linejoin:miter;stroke-width:0.8;"/>
   </g>
   <g id="patch_14">
    <path d="M 769.709121 224.64 
L 769.709121 7.2 
" style="fill:none;stroke:#000000;stroke-linecap:square;stroke-linejoin:miter;stroke-width:0.8;"/>
   </g>
   <g id="patch_15">
    <path d="M 556.35618 224.64 
L 769.709121 224.64 
" style="fill:none;stroke:#000000;stroke-linecap:square;stroke-linejoin:miter;stroke-width:0.8;"/>
   </g>
   <g id="patch_16">
    <path d="M 556.35618 7.2 
L 769.709121 7.2 
" style="fill:none;stroke:#000000;stroke-linecap:square;stroke-linejoin:miter;stroke-width:0.8;"/>
   </g>
  </g>
 </g>
 <defs>
  <clipPath id="p71f8a2eaf0">
   <rect height="217.44" width="213.352941" x="44.309121" y="7.2"/>
  </clipPath>
  <clipPath id="p124a771ca0">
   <rect height="217.44" width="213.352941" x="300.332651" y="7.2"/>
  </clipPath>
  <clipPath id="pce63234e35">
   <rect height="217.44" width="213.352941" x="556.35618" y="7.2"/>
  </clipPath>
 </defs>
</svg>
