<?xml version="1.0" encoding="utf-8" standalone="no"?>
<!DOCTYPE svg PUBLIC "-//W3C//DTD SVG 1.1//EN"
  "http://www.w3.org/Graphics/SVG/1.1/DTD/svg11.dtd">
<svg height="525.306465pt" version="1.1" viewBox="0 0 627.132602 525.306465" width="627.132602pt" xmlns="http://www.w3.org/2000/svg" xmlns:xlink="http://www.w3.org/1999/xlink">
 <metadata>
  <rdf:RDF xmlns:cc="http://creativecommons.org/ns#" xmlns:dc="http://purl.org/dc/elements/1.1/" xmlns:rdf="http://www.w3.org/1999/02/22-rdf-syntax-ns#">
   <cc:Work>
    <dc:type rdf:resource="http://purl.org/dc/dcmitype/StillImage"/>
    <dc:date>2023-11-12T21:15:38.716426</dc:date>
    <dc:format>image/svg+xml</dc:format>
    <dc:creator>
     <cc:Agent>
      <dc:title>Matplotlib v3.4.3, https://matplotlib.org/</dc:title>
     </cc:Agent>
    </dc:creator>
   </cc:Work>
  </rdf:RDF>
 </metadata>
 <defs>
  <style type="text/css">*{stroke-linecap:butt;stroke-linejoin:round;}</style>
 </defs>
 <g id="figure_1">
  <g id="patch_1">
   <path d="M 0 525.306465 
L 627.132602 525.306465 
L 627.132602 0 
L 0 0 
z
" style="fill:none;"/>
  </g>
  <g id="axes_1">
   <g id="patch_2">
    <path d="M 25.369064 235.937401 
L 283.932602 235.937401 
L 283.932602 41.715266 
L 25.369064 41.715266 
z
" style="fill:#ffffff;"/>
   </g>
   <g id="matplotlib.axis_1">
    <g id="text_1">
     <!-- temps -->
     <g transform="translate(134.230401 251.006989)scale(0.16 -0.16)">
      <defs>
       <path d="M 966 2585 
L 1862 2585 
L 1862 2752 
L 966 2752 
L 966 3968 
L 851 3968 
C 838 3292 614 2700 70 2687 
L 70 2585 
L 627 2585 
L 627 778 
C 627 655 627 -64 1370 -64 
C 1747 -64 1965 308 1965 784 
L 1965 1151 
L 1850 1151 
L 1850 790 
C 1850 347 1677 51 1408 51 
C 1222 51 966 179 966 765 
L 966 2585 
z
" id="CMR17-74" transform="scale(0.015625)"/>
       <path d="M 2438 1503 
C 2464 1529 2464 1542 2464 1606 
C 2464 2251 2118 2816 1389 2816 
C 710 2816 173 2175 173 1394 
C 173 554 781 -64 1459 -64 
C 2176 -64 2458 619 2458 755 
C 2458 800 2419 800 2406 800 
C 2362 800 2355 787 2330 709 
C 2189 270 1837 51 1504 51 
C 1229 51 954 206 781 490 
C 582 819 582 1200 582 1503 
L 2438 1503 
z
M 589 1600 
C 634 2511 1126 2713 1382 2713 
C 1818 2713 2112 2308 2118 1600 
L 589 1600 
z
" id="CMR17-65" transform="scale(0.015625)"/>
       <path d="M 4326 1954 
C 4326 2276 4269 2816 3507 2816 
C 3072 2816 2771 2520 2656 2173 
L 2650 2173 
C 2573 2700 2195 2816 1837 2816 
C 1331 2816 1069 2424 973 2166 
L 966 2166 
L 966 2816 
L 211 2745 
L 211 2578 
C 589 2578 646 2540 646 2231 
L 646 443 
C 646 198 621 166 211 166 
L 211 0 
C 365 12 646 12 813 12 
C 979 12 1267 12 1421 0 
L 1421 166 
C 1011 166 986 192 986 443 
L 986 1678 
C 986 2269 1344 2713 1792 2713 
C 2266 2713 2317 2289 2317 1980 
L 2317 443 
C 2317 198 2291 166 1882 166 
L 1882 0 
C 2035 12 2317 12 2483 12 
C 2650 12 2938 12 3091 0 
L 3091 166 
C 2682 166 2656 192 2656 443 
L 2656 1678 
C 2656 2269 3014 2713 3462 2713 
C 3936 2713 3987 2289 3987 1980 
L 3987 443 
C 3987 198 3962 166 3552 166 
L 3552 0 
C 3706 12 3987 12 4154 12 
C 4320 12 4608 12 4762 0 
L 4762 166 
C 4352 166 4326 192 4326 443 
L 4326 1954 
z
" id="CMR17-6d" transform="scale(0.015625)"/>
       <path d="M 1408 -1114 
C 998 -1114 973 -1088 973 -834 
L 973 380 
C 1158 109 1427 -64 1766 -64 
C 2406 -64 3053 503 3053 1382 
C 3053 2196 2496 2816 1837 2816 
C 1453 2816 1139 2603 960 2345 
L 960 2816 
L 198 2745 
L 198 2577 
C 576 2577 634 2539 634 2228 
L 634 -834 
C 634 -1081 608 -1114 198 -1114 
L 198 -1280 
C 352 -1268 634 -1268 800 -1268 
C 966 -1268 1254 -1268 1408 -1280 
L 1408 -1114 
z
M 973 2015 
C 973 2106 973 2241 1222 2481 
C 1254 2506 1472 2700 1792 2700 
C 2259 2700 2643 2112 2643 1376 
C 2643 639 2234 38 1728 38 
C 1498 38 1248 148 1056 451 
C 973 594 973 632 973 736 
L 973 2015 
z
" id="CMR17-70" transform="scale(0.015625)"/>
       <path d="M 1978 2688 
C 1978 2803 1971 2809 1933 2809 
C 1907 2809 1901 2803 1824 2707 
C 1805 2681 1747 2617 1728 2592 
C 1523 2809 1235 2816 1126 2816 
C 416 2816 160 2444 160 2073 
C 160 1497 813 1363 998 1324 
C 1402 1241 1542 1216 1677 1100 
C 1760 1024 1901 883 1901 652 
C 1901 384 1747 38 1158 38 
C 602 38 403 460 288 1024 
C 269 1113 269 1120 218 1120 
C 166 1120 160 1113 160 985 
L 160 64 
C 160 -52 166 -58 205 -58 
C 237 -58 243 -52 275 0 
C 314 57 410 211 448 275 
C 576 102 800 -64 1158 -64 
C 1792 -64 2131 281 2131 780 
C 2131 1107 1958 1280 1875 1356 
C 1683 1555 1459 1600 1190 1651 
C 838 1728 390 1817 390 2208 
C 390 2374 480 2726 1126 2726 
C 1811 2726 1850 2086 1862 1881 
C 1869 1849 1901 1843 1920 1843 
C 1978 1843 1978 1862 1978 1971 
L 1978 2688 
z
" id="CMR17-73" transform="scale(0.015625)"/>
      </defs>
      <use transform="scale(0.996264)" xlink:href="#CMR17-74"/>
      <use transform="translate(35.280768 0)scale(0.996264)" xlink:href="#CMR17-65"/>
      <use transform="translate(75.766428 0)scale(0.996264)" xlink:href="#CMR17-6d"/>
      <use transform="translate(152.686018 0)scale(0.996264)" xlink:href="#CMR17-70"/>
      <use transform="translate(203.581388 0)scale(0.996264)" xlink:href="#CMR17-73"/>
     </g>
    </g>
   </g>
   <g id="matplotlib.axis_2">
    <g id="text_2">
     <!-- fréquence -->
     <g transform="translate(18.269588 170.909391)rotate(-90)scale(0.16 -0.16)">
      <defs>
       <path d="M 979 2585 
L 1709 2585 
L 1709 2752 
L 966 2752 
L 966 3539 
C 966 4076 1235 4377 1510 4377 
C 1594 4377 1690 4363 1754 4339 
C 1702 4326 1568 4281 1568 4121 
C 1568 3955 1696 3904 1786 3904 
C 1875 3904 2003 3955 2003 4121 
C 2003 4353 1773 4480 1517 4480 
C 1152 4480 653 4211 653 3526 
L 653 2752 
L 141 2752 
L 141 2585 
L 653 2585 
L 653 441 
C 653 198 627 166 218 166 
L 218 0 
C 371 12 666 12 832 12 
C 1018 12 1344 12 1517 0 
L 1517 166 
C 1056 166 979 166 979 454 
L 979 2585 
z
" id="CMR17-66" transform="scale(0.015625)"/>
       <path d="M 960 1517 
C 960 2134 1222 2713 1702 2713 
C 1747 2713 1792 2707 1837 2687 
C 1837 2687 1696 2642 1696 2475 
C 1696 2321 1818 2257 1914 2257 
C 1990 2257 2131 2302 2131 2482 
C 2131 2687 1926 2816 1709 2816 
C 1222 2816 1011 2340 947 2115 
L 941 2115 
L 941 2816 
L 198 2745 
L 198 2578 
C 576 2578 634 2540 634 2231 
L 634 443 
C 634 198 608 166 198 166 
L 198 0 
C 352 12 646 12 813 12 
C 998 12 1325 12 1498 0 
L 1498 166 
C 1037 166 960 166 960 455 
L 960 1517 
z
" id="CMR17-72" transform="scale(0.015625)"/>
       <path d="M 2221 4157 
C 2298 4226 2317 4239 2317 4308 
C 2317 4403 2234 4480 2144 4480 
C 2067 4480 2042 4447 1978 4371 
L 1254 3468 
C 1210 3411 1210 3404 1210 3398 
C 1210 3391 1267 3334 1280 3321 
L 2221 4157 
z
" id="CMR17-13" transform="scale(0.015625)"/>
       <path d="M 2630 2816 
L 2528 2816 
L 2336 2177 
C 2189 2519 1920 2816 1491 2816 
C 838 2816 211 2228 211 1376 
C 211 529 800 -64 1440 -64 
C 1933 -64 2208 316 2291 458 
L 2291 -834 
C 2291 -1081 2266 -1114 1856 -1114 
L 1856 -1280 
C 2010 -1268 2291 -1268 2458 -1268 
C 2624 -1268 2912 -1268 3066 -1280 
L 3066 -1114 
C 2656 -1114 2630 -1088 2630 -834 
L 2630 2816 
z
M 2304 871 
C 2304 594 2074 335 2054 316 
C 1856 90 1626 38 1472 38 
C 992 38 621 652 621 1369 
C 621 2125 1043 2700 1536 2700 
C 2048 2700 2304 2112 2304 1776 
L 2304 871 
z
" id="CMR17-71" transform="scale(0.015625)"/>
       <path d="M 1882 2745 
L 1882 2579 
C 2259 2579 2317 2540 2317 2229 
L 2317 1053 
C 2317 510 2029 38 1555 38 
C 1030 38 986 355 986 691 
L 986 2816 
L 211 2745 
L 211 2579 
C 467 2579 640 2579 646 2320 
L 646 1079 
C 646 646 646 368 813 187 
C 896 103 1056 -64 1517 -64 
C 2061 -64 2272 400 2323 536 
L 2330 536 
L 2330 -64 
L 3091 -13 
L 3091 154 
C 2714 154 2656 193 2656 503 
L 2656 2816 
L 1882 2745 
z
" id="CMR17-75" transform="scale(0.015625)"/>
       <path d="M 2656 1954 
C 2656 2282 2592 2816 1837 2816 
C 1331 2816 1069 2424 973 2166 
L 966 2166 
L 966 2816 
L 211 2745 
L 211 2578 
C 589 2578 646 2540 646 2231 
L 646 443 
C 646 198 621 166 211 166 
L 211 0 
C 365 12 646 12 813 12 
C 979 12 1267 12 1421 0 
L 1421 166 
C 1011 166 986 192 986 443 
L 986 1678 
C 986 2269 1344 2713 1792 2713 
C 2266 2713 2317 2289 2317 1980 
L 2317 443 
C 2317 198 2291 166 1882 166 
L 1882 0 
C 2035 12 2317 12 2483 12 
C 2650 12 2938 12 3091 0 
L 3091 166 
C 2682 166 2656 192 2656 443 
L 2656 1954 
z
" id="CMR17-6e" transform="scale(0.015625)"/>
       <path d="M 2234 2240 
C 2112 2240 1933 2240 1933 2015 
C 1933 1836 2080 1785 2163 1785 
C 2208 1785 2394 1804 2394 2028 
C 2394 2476 1958 2816 1466 2816 
C 787 2816 211 2201 211 1379 
C 211 521 813 -64 1466 -64 
C 2259 -64 2458 676 2458 747 
C 2458 773 2451 792 2406 792 
C 2362 792 2355 786 2330 702 
C 2163 180 1798 51 1523 51 
C 1114 51 621 431 621 1385 
C 621 2358 1094 2700 1472 2700 
C 1722 2700 2093 2582 2234 2240 
z
" id="CMR17-63" transform="scale(0.015625)"/>
      </defs>
      <use transform="scale(0.996264)" xlink:href="#CMR17-66"/>
      <use transform="translate(27.473512 0)scale(0.996264)" xlink:href="#CMR17-72"/>
      <use transform="translate(60.151872 0)scale(0.996264)" xlink:href="#CMR17-13"/>
      <use transform="translate(62.75428 0)scale(0.996264)" xlink:href="#CMR17-65"/>
      <use transform="translate(103.239941 0)scale(0.996264)" xlink:href="#CMR17-71"/>
      <use transform="translate(151.532857 0)scale(0.996264)" xlink:href="#CMR17-75"/>
      <use transform="translate(202.428226 0)scale(0.996264)" xlink:href="#CMR17-65"/>
      <use transform="translate(242.913887 0)scale(0.996264)" xlink:href="#CMR17-6e"/>
      <use transform="translate(293.809257 0)scale(0.996264)" xlink:href="#CMR17-63"/>
      <use transform="translate(334.294917 0)scale(0.996264)" xlink:href="#CMR17-65"/>
     </g>
    </g>
   </g>
   <g id="line2d_1">
    <path clip-path="url(#pe427084a99)" d="M 25.369064 235.937401 
L 25.369064 41.715266 
" style="fill:none;stroke:#000000;stroke-linecap:square;stroke-width:0.8;"/>
   </g>
   <g id="line2d_2">
    <path clip-path="url(#pe427084a99)" d="M 51.225418 235.937401 
L 51.225418 41.715266 
" style="fill:none;stroke:#000000;stroke-linecap:square;stroke-width:0.8;"/>
   </g>
   <g id="line2d_3">
    <path clip-path="url(#pe427084a99)" d="M 77.081772 235.937401 
L 77.081772 41.715266 
" style="fill:none;stroke:#000000;stroke-linecap:square;stroke-width:0.8;"/>
   </g>
   <g id="line2d_4">
    <path clip-path="url(#pe427084a99)" d="M 102.938126 235.937401 
L 102.938126 41.715266 
" style="fill:none;stroke:#000000;stroke-linecap:square;stroke-width:0.8;"/>
   </g>
   <g id="line2d_5">
    <path clip-path="url(#pe427084a99)" d="M 128.794479 235.937401 
L 128.794479 41.715266 
" style="fill:none;stroke:#000000;stroke-linecap:square;stroke-width:0.8;"/>
   </g>
   <g id="line2d_6">
    <path clip-path="url(#pe427084a99)" d="M 154.650833 235.937401 
L 154.650833 41.715266 
" style="fill:none;stroke:#000000;stroke-linecap:square;stroke-width:0.8;"/>
   </g>
   <g id="line2d_7">
    <path clip-path="url(#pe427084a99)" d="M 180.507187 235.937401 
L 180.507187 41.715266 
" style="fill:none;stroke:#000000;stroke-linecap:square;stroke-width:0.8;"/>
   </g>
   <g id="line2d_8">
    <path clip-path="url(#pe427084a99)" d="M 206.363541 235.937401 
L 206.363541 41.715266 
" style="fill:none;stroke:#000000;stroke-linecap:square;stroke-width:0.8;"/>
   </g>
   <g id="line2d_9">
    <path clip-path="url(#pe427084a99)" d="M 232.219894 235.937401 
L 232.219894 41.715266 
" style="fill:none;stroke:#000000;stroke-linecap:square;stroke-width:0.8;"/>
   </g>
   <g id="line2d_10">
    <path clip-path="url(#pe427084a99)" d="M 258.076248 235.937401 
L 258.076248 41.715266 
" style="fill:none;stroke:#000000;stroke-linecap:square;stroke-width:0.8;"/>
   </g>
   <g id="patch_3">
    <path d="M 25.369064 235.937401 
L 25.369064 41.715266 
" style="fill:none;stroke:#000000;stroke-linecap:square;stroke-linejoin:miter;stroke-width:0.8;"/>
   </g>
   <g id="patch_4">
    <path d="M 283.932602 235.937401 
L 283.932602 41.715266 
" style="fill:none;stroke:#000000;stroke-linecap:square;stroke-linejoin:miter;stroke-width:0.8;"/>
   </g>
   <g id="patch_5">
    <path d="M 25.369064 235.937401 
L 283.932602 235.937401 
" style="fill:none;stroke:#000000;stroke-linecap:square;stroke-linejoin:miter;stroke-width:0.8;"/>
   </g>
   <g id="patch_6">
    <path d="M 25.369064 41.715266 
L 283.932602 41.715266 
" style="fill:none;stroke:#000000;stroke-linecap:square;stroke-linejoin:miter;stroke-width:0.8;"/>
   </g>
   <g id="text_3">
    <!-- Représentation temporelle -->
    <g transform="translate(65.188169 18.269588)scale(0.16 -0.16)">
     <defs>
      <path d="M 2509 2156 
C 3117 2278 3629 2689 3629 3203 
C 3629 3806 2950 4352 2054 4352 
L 333 4352 
L 333 4185 
C 774 4185 845 4185 845 3896 
L 845 428 
C 845 140 774 140 333 140 
L 333 -26 
C 518 -13 851 -13 1050 -13 
C 1248 -13 1581 -13 1766 -26 
L 1766 140 
C 1325 140 1254 140 1254 428 
L 1254 2112 
L 2003 2112 
C 2368 2112 2573 1964 2662 1881 
C 2918 1632 2918 1459 2918 1024 
C 2918 595 2918 377 3110 160 
C 3354 -103 3680 -128 3821 -128 
C 4294 -128 4365 403 4365 512 
C 4365 550 4365 595 4307 595 
C 4256 595 4250 556 4250 531 
C 4218 115 4032 -26 3834 -26 
C 3482 -26 3443 377 3405 768 
C 3386 902 3373 998 3360 1139 
C 3322 1459 3270 1926 2509 2156 
z
M 1984 2214 
L 1254 2214 
L 1254 3935 
C 1254 4153 1267 4185 1523 4185 
L 1990 4185 
C 2522 4185 3142 3999 3142 3203 
C 3142 2374 2464 2214 1984 2214 
z
" id="CMR17-52" transform="scale(0.015625)"/>
      <path d="M 2304 1656 
C 2304 2048 2304 2275 2035 2534 
C 1798 2751 1523 2816 1306 2816 
C 800 2816 435 2408 435 1977 
C 435 1740 627 1728 666 1728 
C 749 1728 896 1779 896 1958 
C 896 2118 774 2188 666 2188 
C 640 2188 608 2182 589 2176 
C 723 2594 1069 2713 1293 2713 
C 1613 2713 1965 2421 1965 1875 
L 1965 1632 
C 1587 1619 1133 1568 774 1373 
C 371 1147 256 822 256 576 
C 256 77 832 -64 1171 -64 
C 1523 -64 1850 135 1990 505 
C 2003 219 2182 -39 2464 -39 
C 2598 -39 2938 51 2938 563 
L 2938 926 
L 2822 926 
L 2822 557 
C 2822 161 2650 109 2566 109 
C 2304 109 2304 446 2304 732 
L 2304 1656 
z
M 1965 887 
C 1965 323 1568 38 1216 38 
C 896 38 646 278 646 576 
C 646 771 730 1114 1101 1322 
C 1408 1497 1760 1523 1965 1536 
L 1965 887 
z
" id="CMR17-61" transform="scale(0.015625)"/>
      <path d="M 992 3961 
C 992 4102 877 4224 730 4224 
C 589 4224 467 4108 467 3961 
C 467 3820 582 3699 730 3699 
C 870 3699 992 3814 992 3961 
z
M 243 2745 
L 243 2579 
C 602 2579 653 2540 653 2231 
L 653 443 
C 653 198 627 166 218 166 
L 218 0 
C 371 12 646 12 806 12 
C 960 12 1222 12 1370 0 
L 1370 166 
C 992 166 979 205 979 436 
L 979 2816 
L 243 2745 
z
" id="CMR17-69" transform="scale(0.015625)"/>
      <path d="M 2758 1356 
C 2758 2176 2163 2816 1466 2816 
C 768 2816 173 2176 173 1356 
C 173 550 768 -64 1466 -64 
C 2163 -64 2758 550 2758 1356 
z
M 1466 51 
C 1165 51 909 230 762 480 
C 602 768 582 1126 582 1408 
C 582 1676 595 2009 762 2297 
C 890 2508 1139 2713 1466 2713 
C 1754 2713 1997 2553 2150 2329 
C 2349 2028 2349 1606 2349 1408 
C 2349 1158 2336 774 2163 467 
C 1984 172 1709 51 1466 51 
z
" id="CMR17-6f" transform="scale(0.015625)"/>
      <path d="M 979 4416 
L 218 4345 
L 218 4179 
C 595 4179 653 4141 653 3835 
L 653 439 
C 653 198 627 166 218 166 
L 218 0 
C 371 12 653 12 813 12 
C 979 12 1261 12 1414 0 
L 1414 166 
C 1005 166 979 191 979 439 
L 979 4416 
z
" id="CMR17-6c" transform="scale(0.015625)"/>
     </defs>
     <use transform="scale(0.996264)" xlink:href="#CMR17-52"/>
     <use transform="translate(67.791102 0)scale(0.996264)" xlink:href="#CMR17-65"/>
     <use transform="translate(108.276762 0)scale(0.996264)" xlink:href="#CMR17-70"/>
     <use transform="translate(159.172132 0)scale(0.996264)" xlink:href="#CMR17-72"/>
     <use transform="translate(191.850492 0)scale(0.996264)" xlink:href="#CMR17-13"/>
     <use transform="translate(194.4529 0)scale(0.996264)" xlink:href="#CMR17-65"/>
     <use transform="translate(234.93856 0)scale(0.996264)" xlink:href="#CMR17-73"/>
     <use transform="translate(270.739898 0)scale(0.996264)" xlink:href="#CMR17-65"/>
     <use transform="translate(311.225559 0)scale(0.996264)" xlink:href="#CMR17-6e"/>
     <use transform="translate(359.518474 0)scale(0.996264)" xlink:href="#CMR17-74"/>
     <use transform="translate(394.799242 0)scale(0.996264)" xlink:href="#CMR17-61"/>
     <use transform="translate(440.489719 0)scale(0.996264)" xlink:href="#CMR17-74"/>
     <use transform="translate(475.770487 0)scale(0.996264)" xlink:href="#CMR17-69"/>
     <use transform="translate(500.641546 0)scale(0.996264)" xlink:href="#CMR17-6f"/>
     <use transform="translate(546.332023 0)scale(0.996264)" xlink:href="#CMR17-6e"/>
     <use transform="translate(627.303359 0)scale(0.996264)" xlink:href="#CMR17-74"/>
     <use transform="translate(662.584127 0)scale(0.996264)" xlink:href="#CMR17-65"/>
     <use transform="translate(703.069787 0)scale(0.996264)" xlink:href="#CMR17-6d"/>
     <use transform="translate(779.989377 0)scale(0.996264)" xlink:href="#CMR17-70"/>
     <use transform="translate(833.487186 0)scale(0.996264)" xlink:href="#CMR17-6f"/>
     <use transform="translate(879.177663 0)scale(0.996264)" xlink:href="#CMR17-72"/>
     <use transform="translate(914.45843 0)scale(0.996264)" xlink:href="#CMR17-65"/>
     <use transform="translate(954.944091 0)scale(0.996264)" xlink:href="#CMR17-6c"/>
     <use transform="translate(979.815149 0)scale(0.996264)" xlink:href="#CMR17-6c"/>
     <use transform="translate(1004.686208 0)scale(0.996264)" xlink:href="#CMR17-65"/>
    </g>
    <!-- $x[n]$ -->
    <g transform="translate(141.222156 35.715266)scale(0.16 -0.16)">
     <defs>
      <path d="M 3034 2624 
C 2829 2585 2752 2431 2752 2310 
C 2752 2156 2874 2105 2963 2105 
C 3155 2105 3290 2271 3290 2444 
C 3290 2694 2982 2816 2714 2816 
C 2323 2816 2106 2451 2048 2329 
C 1901 2790 1504 2816 1389 2816 
C 736 2816 390 1993 390 1849 
C 390 1823 416 1790 461 1790 
C 512 1790 525 1829 538 1855 
C 755 2572 1184 2687 1370 2687 
C 1658 2687 1715 2438 1715 2284 
C 1715 2143 1677 1993 1600 1678 
L 1382 778 
C 1286 390 1101 64 762 64 
C 730 64 570 64 435 126 
C 666 166 717 358 717 435 
C 717 563 621 640 499 640 
C 346 640 179 505 179 300 
C 179 57 480 -64 755 -64 
C 1062 -64 1280 153 1414 415 
C 1517 64 1837 -64 2074 -64 
C 2726 -64 3072 751 3072 896 
C 3072 929 3046 955 3008 955 
C 2950 955 2944 922 2925 870 
C 2752 300 2381 64 2093 64 
C 1869 64 1747 204 1747 467 
C 1747 607 1773 712 1875 1146 
L 2099 2039 
C 2195 2425 2413 2687 2707 2687 
C 2720 2687 2899 2687 3034 2624 
z
" id="CMMI12-78" transform="scale(0.015625)"/>
      <path d="M 1504 -1600 
L 1504 -1376 
L 902 -1376 
L 902 4575 
L 1504 4575 
L 1504 4800 
L 678 4800 
L 678 -1600 
L 1504 -1600 
z
" id="CMR17-5b" transform="scale(0.015625)"/>
      <path d="M 1318 1870 
C 1331 1909 1491 2228 1728 2432 
C 1894 2585 2112 2687 2362 2687 
C 2618 2687 2707 2496 2707 2241 
C 2707 1877 2445 1149 2317 804 
C 2259 651 2227 568 2227 453 
C 2227 166 2426 -64 2733 -64 
C 3328 -64 3552 874 3552 913 
C 3552 945 3526 970 3488 970 
C 3430 970 3424 951 3392 842 
C 3245 319 3002 64 2752 64 
C 2688 64 2586 70 2586 274 
C 2586 434 2656 625 2694 715 
C 2822 1066 3091 1781 3091 2145 
C 3091 2528 2867 2816 2381 2816 
C 1811 2816 1510 2413 1395 2253 
C 1376 2617 1114 2816 832 2816 
C 627 2816 486 2694 378 2477 
C 262 2247 173 1864 173 1838 
C 173 1813 198 1781 243 1781 
C 294 1781 301 1787 339 1934 
C 442 2324 557 2687 813 2687 
C 960 2687 1011 2585 1011 2394 
C 1011 2253 947 2004 902 1807 
L 723 1117 
C 698 996 627 708 595 593 
C 550 427 480 127 480 95 
C 480 6 550 -64 646 -64 
C 723 -64 813 -26 864 70 
C 877 102 934 325 966 453 
L 1107 1028 
L 1318 1870 
z
" id="CMMI12-6e" transform="scale(0.015625)"/>
      <path d="M 915 4800 
L 90 4800 
L 90 4575 
L 691 4575 
L 691 -1376 
L 90 -1376 
L 90 -1600 
L 915 -1600 
L 915 4800 
z
" id="CMR17-5d" transform="scale(0.015625)"/>
     </defs>
     <use transform="scale(0.996264)" xlink:href="#CMMI12-78"/>
     <use transform="translate(55.43406 0)scale(0.996264)" xlink:href="#CMR17-5b"/>
     <use transform="translate(80.305118 0)scale(0.996264)" xlink:href="#CMMI12-6e"/>
     <use transform="translate(138.535165 0)scale(0.996264)" xlink:href="#CMR17-5d"/>
    </g>
   </g>
  </g>
  <g id="axes_2">
   <g id="patch_7">
    <path d="M 361.369064 235.937401 
L 619.932602 235.937401 
L 619.932602 41.715266 
L 361.369064 41.715266 
z
" style="fill:#ffffff;"/>
   </g>
   <g id="matplotlib.axis_3">
    <g id="text_4">
     <!-- temps -->
     <g transform="translate(470.230401 251.006989)scale(0.16 -0.16)">
      <use transform="scale(0.996264)" xlink:href="#CMR17-74"/>
      <use transform="translate(35.280768 0)scale(0.996264)" xlink:href="#CMR17-65"/>
      <use transform="translate(75.766428 0)scale(0.996264)" xlink:href="#CMR17-6d"/>
      <use transform="translate(152.686018 0)scale(0.996264)" xlink:href="#CMR17-70"/>
      <use transform="translate(203.581388 0)scale(0.996264)" xlink:href="#CMR17-73"/>
     </g>
    </g>
   </g>
   <g id="matplotlib.axis_4">
    <g id="text_5">
     <!-- fréquence -->
     <g transform="translate(354.269588 170.909391)rotate(-90)scale(0.16 -0.16)">
      <use transform="scale(0.996264)" xlink:href="#CMR17-66"/>
      <use transform="translate(27.473512 0)scale(0.996264)" xlink:href="#CMR17-72"/>
      <use transform="translate(60.151872 0)scale(0.996264)" xlink:href="#CMR17-13"/>
      <use transform="translate(62.75428 0)scale(0.996264)" xlink:href="#CMR17-65"/>
      <use transform="translate(103.239941 0)scale(0.996264)" xlink:href="#CMR17-71"/>
      <use transform="translate(151.532857 0)scale(0.996264)" xlink:href="#CMR17-75"/>
      <use transform="translate(202.428226 0)scale(0.996264)" xlink:href="#CMR17-65"/>
      <use transform="translate(242.913887 0)scale(0.996264)" xlink:href="#CMR17-6e"/>
      <use transform="translate(293.809257 0)scale(0.996264)" xlink:href="#CMR17-63"/>
      <use transform="translate(334.294917 0)scale(0.996264)" xlink:href="#CMR17-65"/>
     </g>
    </g>
   </g>
   <g id="line2d_11">
    <path clip-path="url(#p53bd898bb1)" d="M 361.369064 235.937401 
L 619.932602 235.937401 
" style="fill:none;stroke:#000000;stroke-linecap:square;stroke-width:0.8;"/>
   </g>
   <g id="line2d_12">
    <path clip-path="url(#p53bd898bb1)" d="M 361.369064 216.515187 
L 619.932602 216.515187 
" style="fill:none;stroke:#000000;stroke-linecap:square;stroke-width:0.8;"/>
   </g>
   <g id="line2d_13">
    <path clip-path="url(#p53bd898bb1)" d="M 361.369064 197.092974 
L 619.932602 197.092974 
" style="fill:none;stroke:#000000;stroke-linecap:square;stroke-width:0.8;"/>
   </g>
   <g id="line2d_14">
    <path clip-path="url(#p53bd898bb1)" d="M 361.369064 177.67076 
L 619.932602 177.67076 
" style="fill:none;stroke:#000000;stroke-linecap:square;stroke-width:0.8;"/>
   </g>
   <g id="line2d_15">
    <path clip-path="url(#p53bd898bb1)" d="M 361.369064 158.248547 
L 619.932602 158.248547 
" style="fill:none;stroke:#000000;stroke-linecap:square;stroke-width:0.8;"/>
   </g>
   <g id="line2d_16">
    <path clip-path="url(#p53bd898bb1)" d="M 361.369064 138.826334 
L 619.932602 138.826334 
" style="fill:none;stroke:#000000;stroke-linecap:square;stroke-width:0.8;"/>
   </g>
   <g id="line2d_17">
    <path clip-path="url(#p53bd898bb1)" d="M 361.369064 119.40412 
L 619.932602 119.40412 
" style="fill:none;stroke:#000000;stroke-linecap:square;stroke-width:0.8;"/>
   </g>
   <g id="line2d_18">
    <path clip-path="url(#p53bd898bb1)" d="M 361.369064 99.981907 
L 619.932602 99.981907 
" style="fill:none;stroke:#000000;stroke-linecap:square;stroke-width:0.8;"/>
   </g>
   <g id="line2d_19">
    <path clip-path="url(#p53bd898bb1)" d="M 361.369064 80.559693 
L 619.932602 80.559693 
" style="fill:none;stroke:#000000;stroke-linecap:square;stroke-width:0.8;"/>
   </g>
   <g id="line2d_20">
    <path clip-path="url(#p53bd898bb1)" d="M 361.369064 61.13748 
L 619.932602 61.13748 
" style="fill:none;stroke:#000000;stroke-linecap:square;stroke-width:0.8;"/>
   </g>
   <g id="patch_8">
    <path d="M 361.369064 235.937401 
L 361.369064 41.715266 
" style="fill:none;stroke:#000000;stroke-linecap:square;stroke-linejoin:miter;stroke-width:0.8;"/>
   </g>
   <g id="patch_9">
    <path d="M 619.932602 235.937401 
L 619.932602 41.715266 
" style="fill:none;stroke:#000000;stroke-linecap:square;stroke-linejoin:miter;stroke-width:0.8;"/>
   </g>
   <g id="patch_10">
    <path d="M 361.369064 235.937401 
L 619.932602 235.937401 
" style="fill:none;stroke:#000000;stroke-linecap:square;stroke-linejoin:miter;stroke-width:0.8;"/>
   </g>
   <g id="patch_11">
    <path d="M 361.369064 41.715266 
L 619.932602 41.715266 
" style="fill:none;stroke:#000000;stroke-linecap:square;stroke-linejoin:miter;stroke-width:0.8;"/>
   </g>
   <g id="text_6">
    <!-- Représentation fréquentielle -->
    <g transform="translate(395.551956 18.269588)scale(0.16 -0.16)">
     <use transform="scale(0.996264)" xlink:href="#CMR17-52"/>
     <use transform="translate(67.791102 0)scale(0.996264)" xlink:href="#CMR17-65"/>
     <use transform="translate(108.276762 0)scale(0.996264)" xlink:href="#CMR17-70"/>
     <use transform="translate(159.172132 0)scale(0.996264)" xlink:href="#CMR17-72"/>
     <use transform="translate(191.850492 0)scale(0.996264)" xlink:href="#CMR17-13"/>
     <use transform="translate(194.4529 0)scale(0.996264)" xlink:href="#CMR17-65"/>
     <use transform="translate(234.93856 0)scale(0.996264)" xlink:href="#CMR17-73"/>
     <use transform="translate(270.739898 0)scale(0.996264)" xlink:href="#CMR17-65"/>
     <use transform="translate(311.225559 0)scale(0.996264)" xlink:href="#CMR17-6e"/>
     <use transform="translate(359.518474 0)scale(0.996264)" xlink:href="#CMR17-74"/>
     <use transform="translate(394.799242 0)scale(0.996264)" xlink:href="#CMR17-61"/>
     <use transform="translate(440.489719 0)scale(0.996264)" xlink:href="#CMR17-74"/>
     <use transform="translate(475.770487 0)scale(0.996264)" xlink:href="#CMR17-69"/>
     <use transform="translate(500.641546 0)scale(0.996264)" xlink:href="#CMR17-6f"/>
     <use transform="translate(546.332023 0)scale(0.996264)" xlink:href="#CMR17-6e"/>
     <use transform="translate(627.303359 0)scale(0.996264)" xlink:href="#CMR17-66"/>
     <use transform="translate(654.776871 0)scale(0.996264)" xlink:href="#CMR17-72"/>
     <use transform="translate(687.455231 0)scale(0.996264)" xlink:href="#CMR17-13"/>
     <use transform="translate(690.057639 0)scale(0.996264)" xlink:href="#CMR17-65"/>
     <use transform="translate(730.5433 0)scale(0.996264)" xlink:href="#CMR17-71"/>
     <use transform="translate(778.836215 0)scale(0.996264)" xlink:href="#CMR17-75"/>
     <use transform="translate(829.731585 0)scale(0.996264)" xlink:href="#CMR17-65"/>
     <use transform="translate(870.217246 0)scale(0.996264)" xlink:href="#CMR17-6e"/>
     <use transform="translate(918.510161 0)scale(0.996264)" xlink:href="#CMR17-74"/>
     <use transform="translate(953.790929 0)scale(0.996264)" xlink:href="#CMR17-69"/>
     <use transform="translate(978.661988 0)scale(0.996264)" xlink:href="#CMR17-65"/>
     <use transform="translate(1019.147648 0)scale(0.996264)" xlink:href="#CMR17-6c"/>
     <use transform="translate(1044.018707 0)scale(0.996264)" xlink:href="#CMR17-6c"/>
     <use transform="translate(1068.889765 0)scale(0.996264)" xlink:href="#CMR17-65"/>
    </g>
    <!-- $X[k]$ -->
    <g transform="translate(474.885544 35.715266)scale(0.16 -0.16)">
     <defs>
      <path d="M 3040 2586 
L 2438 3981 
C 2522 4134 2714 4159 2790 4166 
C 2829 4166 2899 4172 2899 4281 
C 2899 4352 2842 4352 2803 4352 
C 2694 4352 2566 4339 2458 4339 
L 2086 4339 
C 1696 4339 1414 4352 1408 4352 
C 1357 4352 1293 4352 1293 4230 
C 1293 4166 1350 4166 1434 4166 
C 1805 4166 1830 4102 1894 3949 
L 2656 2179 
L 1267 701 
C 1037 453 762 211 288 185 
C 211 179 160 179 160 64 
C 160 44 166 0 237 0 
C 326 0 422 12 512 12 
L 813 12 
C 1018 12 1242 0 1440 0 
C 1485 0 1562 0 1562 115 
C 1562 179 1517 185 1478 185 
C 1350 198 1267 268 1267 370 
C 1267 478 1344 555 1530 746 
L 2099 1363 
C 2240 1510 2579 1879 2720 2019 
L 3392 453 
C 3398 440 3424 376 3424 370 
C 3424 312 3283 198 3078 185 
C 3040 185 2970 179 2970 64 
C 2970 0 3034 0 3066 0 
C 3174 0 3302 12 3411 12 
L 4115 12 
C 4230 12 4352 0 4461 0 
C 4506 0 4576 0 4576 121 
C 4576 185 4512 185 4454 185 
C 4070 191 4058 223 3949 459 
L 3104 2433 
L 3917 3300 
C 3981 3363 4128 3523 4186 3586 
C 4461 3873 4717 4134 5235 4166 
C 5299 4172 5363 4172 5363 4281 
C 5363 4352 5306 4352 5280 4352 
C 5190 4352 5094 4339 5005 4339 
L 4710 4339 
C 4506 4339 4282 4352 4083 4352 
C 4038 4352 3962 4352 3962 4236 
C 3962 4172 4006 4166 4045 4166 
C 4147 4153 4256 4102 4256 3981 
L 4250 3968 
C 4243 3924 4230 3860 4160 3784 
L 3040 2586 
z
" id="CMMI12-58" transform="scale(0.015625)"/>
      <path d="M 1798 4255 
C 1805 4281 1818 4319 1818 4351 
C 1818 4416 1754 4416 1741 4416 
C 1734 4416 1504 4396 1389 4383 
C 1280 4377 1184 4364 1069 4358 
C 915 4345 870 4339 870 4223 
C 870 4159 934 4159 998 4159 
C 1325 4159 1325 4103 1325 4040 
C 1325 4014 1325 4002 1293 3888 
L 378 250 
C 352 153 352 141 352 102 
C 352 -39 461 -64 525 -64 
C 704 -64 742 76 794 275 
L 1094 1476 
C 1555 1425 1830 1232 1830 924 
C 1830 885 1830 860 1811 763 
C 1786 667 1786 590 1786 558 
C 1786 185 2029 -64 2355 -64 
C 2650 -64 2803 205 2854 295 
C 2989 532 3072 892 3072 917 
C 3072 949 3046 975 3008 975 
C 2950 975 2944 949 2918 847 
C 2829 513 2694 64 2368 64 
C 2240 64 2157 128 2157 372 
C 2157 494 2182 635 2208 731 
C 2234 847 2234 853 2234 930 
C 2234 1309 1894 1521 1306 1598 
C 1536 1739 1766 1989 1856 2086 
C 2221 2495 2470 2687 2765 2687 
C 2912 2687 2950 2655 2995 2624 
C 2758 2598 2669 2431 2669 2303 
C 2669 2150 2790 2099 2880 2099 
C 3053 2099 3206 2246 3206 2451 
C 3206 2634 3059 2816 2771 2816 
C 2419 2816 2131 2579 1677 2067 
C 1613 1989 1376 1746 1139 1656 
L 1798 4255 
z
" id="CMMI12-6b" transform="scale(0.015625)"/>
     </defs>
     <use transform="scale(0.996264)" xlink:href="#CMMI12-58"/>
     <use transform="translate(88.792562 0)scale(0.996264)" xlink:href="#CMR17-5b"/>
     <use transform="translate(113.66362 0)scale(0.996264)" xlink:href="#CMMI12-6b"/>
     <use transform="translate(167.742821 0)scale(0.996264)" xlink:href="#CMR17-5d"/>
    </g>
   </g>
  </g>
  <g id="axes_3">
   <g id="patch_12">
    <path d="M 25.369064 499.937401 
L 283.932602 499.937401 
L 283.932602 305.715266 
L 25.369064 305.715266 
z
" style="fill:#ffffff;"/>
   </g>
   <g id="matplotlib.axis_5">
    <g id="text_7">
     <!-- temps -->
     <g transform="translate(134.230401 515.006989)scale(0.16 -0.16)">
      <use transform="scale(0.996264)" xlink:href="#CMR17-74"/>
      <use transform="translate(35.280768 0)scale(0.996264)" xlink:href="#CMR17-65"/>
      <use transform="translate(75.766428 0)scale(0.996264)" xlink:href="#CMR17-6d"/>
      <use transform="translate(152.686018 0)scale(0.996264)" xlink:href="#CMR17-70"/>
      <use transform="translate(203.581388 0)scale(0.996264)" xlink:href="#CMR17-73"/>
     </g>
    </g>
   </g>
   <g id="matplotlib.axis_6">
    <g id="text_8">
     <!-- fréquence -->
     <g transform="translate(18.269588 434.909391)rotate(-90)scale(0.16 -0.16)">
      <use transform="scale(0.996264)" xlink:href="#CMR17-66"/>
      <use transform="translate(27.473512 0)scale(0.996264)" xlink:href="#CMR17-72"/>
      <use transform="translate(60.151872 0)scale(0.996264)" xlink:href="#CMR17-13"/>
      <use transform="translate(62.75428 0)scale(0.996264)" xlink:href="#CMR17-65"/>
      <use transform="translate(103.239941 0)scale(0.996264)" xlink:href="#CMR17-71"/>
      <use transform="translate(151.532857 0)scale(0.996264)" xlink:href="#CMR17-75"/>
      <use transform="translate(202.428226 0)scale(0.996264)" xlink:href="#CMR17-65"/>
      <use transform="translate(242.913887 0)scale(0.996264)" xlink:href="#CMR17-6e"/>
      <use transform="translate(293.809257 0)scale(0.996264)" xlink:href="#CMR17-63"/>
      <use transform="translate(334.294917 0)scale(0.996264)" xlink:href="#CMR17-65"/>
     </g>
    </g>
   </g>
   <g id="line2d_21">
    <path clip-path="url(#pde50ec87b3)" d="M 25.369064 499.937401 
L 25.369064 305.715266 
" style="fill:none;stroke:#000000;stroke-linecap:square;stroke-width:0.8;"/>
   </g>
   <g id="line2d_22">
    <path clip-path="url(#pde50ec87b3)" d="M 111.548291 499.937401 
L 111.548291 305.715266 
" style="fill:none;stroke:#000000;stroke-linecap:square;stroke-width:0.8;"/>
   </g>
   <g id="line2d_23">
    <path clip-path="url(#pde50ec87b3)" d="M 197.727519 499.937401 
L 197.727519 305.715266 
" style="fill:none;stroke:#000000;stroke-linecap:square;stroke-width:0.8;"/>
   </g>
   <g id="line2d_24">
    <path clip-path="url(#pde50ec87b3)" d="M 283.906746 499.937401 
L 283.906746 305.715266 
" style="fill:none;stroke:#000000;stroke-linecap:square;stroke-width:0.8;"/>
   </g>
   <g id="line2d_25">
    <path clip-path="url(#pde50ec87b3)" d="M 25.369064 499.937401 
L 283.932602 499.937401 
" style="fill:none;stroke:#000000;stroke-linecap:square;stroke-width:0.8;"/>
   </g>
   <g id="line2d_26">
    <path clip-path="url(#pde50ec87b3)" d="M 25.369064 435.203163 
L 283.932602 435.203163 
" style="fill:none;stroke:#000000;stroke-linecap:square;stroke-width:0.8;"/>
   </g>
   <g id="line2d_27">
    <path clip-path="url(#pde50ec87b3)" d="M 25.369064 370.468926 
L 283.932602 370.468926 
" style="fill:none;stroke:#000000;stroke-linecap:square;stroke-width:0.8;"/>
   </g>
   <g id="line2d_28">
    <path clip-path="url(#pde50ec87b3)" d="M 25.369064 305.734688 
L 283.932602 305.734688 
" style="fill:none;stroke:#000000;stroke-linecap:square;stroke-width:0.8;"/>
   </g>
   <g id="patch_13">
    <path d="M 25.369064 499.937401 
L 25.369064 305.715266 
" style="fill:none;stroke:#000000;stroke-linecap:square;stroke-linejoin:miter;stroke-width:0.8;"/>
   </g>
   <g id="patch_14">
    <path d="M 283.932602 499.937401 
L 283.932602 305.715266 
" style="fill:none;stroke:#000000;stroke-linecap:square;stroke-linejoin:miter;stroke-width:0.8;"/>
   </g>
   <g id="patch_15">
    <path d="M 25.369064 499.937401 
L 283.932602 499.937401 
" style="fill:none;stroke:#000000;stroke-linecap:square;stroke-linejoin:miter;stroke-width:0.8;"/>
   </g>
   <g id="patch_16">
    <path d="M 25.369064 305.715266 
L 283.932602 305.715266 
" style="fill:none;stroke:#000000;stroke-linecap:square;stroke-linejoin:miter;stroke-width:0.8;"/>
   </g>
   <g id="text_9">
    <!-- Représentation temps-fréquence -->
    <g transform="translate(45.851623 282.269588)scale(0.16 -0.16)">
     <defs>
      <path d="M 1632 1254 
L 1632 1536 
L 26 1536 
L 26 1254 
L 1632 1254 
z
" id="CMR17-2d" transform="scale(0.015625)"/>
     </defs>
     <use transform="scale(0.996264)" xlink:href="#CMR17-52"/>
     <use transform="translate(67.791102 0)scale(0.996264)" xlink:href="#CMR17-65"/>
     <use transform="translate(108.276762 0)scale(0.996264)" xlink:href="#CMR17-70"/>
     <use transform="translate(159.172132 0)scale(0.996264)" xlink:href="#CMR17-72"/>
     <use transform="translate(191.850492 0)scale(0.996264)" xlink:href="#CMR17-13"/>
     <use transform="translate(194.4529 0)scale(0.996264)" xlink:href="#CMR17-65"/>
     <use transform="translate(234.93856 0)scale(0.996264)" xlink:href="#CMR17-73"/>
     <use transform="translate(270.739898 0)scale(0.996264)" xlink:href="#CMR17-65"/>
     <use transform="translate(311.225559 0)scale(0.996264)" xlink:href="#CMR17-6e"/>
     <use transform="translate(359.518474 0)scale(0.996264)" xlink:href="#CMR17-74"/>
     <use transform="translate(394.799242 0)scale(0.996264)" xlink:href="#CMR17-61"/>
     <use transform="translate(440.489719 0)scale(0.996264)" xlink:href="#CMR17-74"/>
     <use transform="translate(475.770487 0)scale(0.996264)" xlink:href="#CMR17-69"/>
     <use transform="translate(500.641546 0)scale(0.996264)" xlink:href="#CMR17-6f"/>
     <use transform="translate(546.332023 0)scale(0.996264)" xlink:href="#CMR17-6e"/>
     <use transform="translate(627.303359 0)scale(0.996264)" xlink:href="#CMR17-74"/>
     <use transform="translate(662.584127 0)scale(0.996264)" xlink:href="#CMR17-65"/>
     <use transform="translate(703.069787 0)scale(0.996264)" xlink:href="#CMR17-6d"/>
     <use transform="translate(779.989377 0)scale(0.996264)" xlink:href="#CMR17-70"/>
     <use transform="translate(830.884747 0)scale(0.996264)" xlink:href="#CMR17-73"/>
     <use transform="translate(866.686084 0)scale(0.996264)" xlink:href="#CMR17-2d"/>
     <use transform="translate(896.762051 0)scale(0.996264)" xlink:href="#CMR17-66"/>
     <use transform="translate(924.235563 0)scale(0.996264)" xlink:href="#CMR17-72"/>
     <use transform="translate(956.913923 0)scale(0.996264)" xlink:href="#CMR17-13"/>
     <use transform="translate(959.516331 0)scale(0.996264)" xlink:href="#CMR17-65"/>
     <use transform="translate(1000.001991 0)scale(0.996264)" xlink:href="#CMR17-71"/>
     <use transform="translate(1048.294907 0)scale(0.996264)" xlink:href="#CMR17-75"/>
     <use transform="translate(1099.190277 0)scale(0.996264)" xlink:href="#CMR17-65"/>
     <use transform="translate(1139.675938 0)scale(0.996264)" xlink:href="#CMR17-6e"/>
     <use transform="translate(1190.571307 0)scale(0.996264)" xlink:href="#CMR17-63"/>
     <use transform="translate(1231.056968 0)scale(0.996264)" xlink:href="#CMR17-65"/>
    </g>
    <!-- STFT $X[k,p]$ -->
    <g transform="translate(108.170464 299.715266)scale(0.16 -0.16)">
     <defs>
      <path d="M 2803 4351 
C 2803 4467 2797 4473 2758 4473 
C 2720 4473 2707 4447 2682 4390 
L 2490 3965 
C 2246 4320 1875 4480 1472 4480 
C 819 4480 294 3958 294 3301 
C 294 3101 339 2817 557 2546 
C 794 2250 1018 2198 1530 2063 
C 1722 2011 2042 1927 2106 1901 
C 2470 1747 2662 1360 2662 999 
C 2662 534 2336 38 1779 38 
C 1094 38 454 425 410 1328 
C 403 1431 397 1437 352 1437 
C 301 1437 294 1431 294 1302 
L 294 0 
C 294 -116 301 -122 339 -122 
C 384 -122 397 -90 486 109 
C 493 128 493 141 614 386 
C 934 -39 1472 -128 1779 -128 
C 2477 -128 2970 457 2970 1141 
C 2970 1476 2848 1734 2778 1850 
C 2509 2263 2221 2340 1914 2417 
C 1869 2437 1856 2437 1498 2527 
C 1152 2617 1005 2662 845 2836 
C 666 3036 602 3243 602 3449 
C 602 3868 934 4326 1478 4326 
C 2157 4326 2579 3842 2675 3036 
C 2694 2920 2701 2914 2746 2914 
C 2803 2914 2803 2933 2803 3043 
L 2803 4351 
z
" id="CMR17-53" transform="scale(0.015625)"/>
      <path d="M 3981 4332 
L 288 4332 
L 179 2924 
L 294 2924 
C 378 3981 467 4166 1453 4166 
C 1568 4166 1754 4166 1805 4159 
C 1926 4140 1926 4064 1926 3917 
L 1926 465 
C 1926 236 1907 166 1376 166 
L 1197 166 
L 1197 0 
C 1504 6 1824 12 2138 12 
C 2451 12 2771 6 3078 0 
L 3078 166 
L 2899 166 
C 2368 166 2349 236 2349 465 
L 2349 3917 
C 2349 4057 2349 4134 2464 4159 
C 2515 4166 2701 4166 2816 4166 
C 3795 4166 3891 3981 3974 2924 
L 4090 2924 
L 3981 4332 
z
" id="CMR17-54" transform="scale(0.015625)"/>
      <path d="M 3482 4339 
L 326 4339 
L 326 4172 
C 768 4172 838 4172 838 3883 
L 838 450 
C 838 166 768 166 326 166 
L 326 0 
C 512 12 870 12 1069 12 
C 1331 12 1638 12 1901 0 
L 1901 166 
L 1760 166 
C 1274 166 1261 229 1261 456 
L 1261 2073 
L 1837 2073 
C 2432 2073 2490 1865 2490 1334 
L 2605 1334 
L 2605 2991 
L 2490 2991 
C 2490 2451 2432 2240 1837 2240 
L 1261 2240 
L 1261 3922 
C 1261 4140 1274 4172 1530 4172 
L 2355 4172 
C 3322 4172 3430 3774 3520 2920 
L 3635 2920 
L 3482 4339 
z
" id="CMR17-46" transform="scale(0.015625)"/>
      <path d="M 1248 -26 
C 1248 345 1126 620 864 620 
C 659 620 557 454 557 313 
C 557 172 653 0 870 0 
C 954 0 1024 25 1082 83 
C 1094 96 1101 96 1107 96 
C 1120 96 1120 6 1120 -26 
C 1120 -233 1082 -642 710 -1051 
C 640 -1127 640 -1140 640 -1152 
C 640 -1184 672 -1216 704 -1216 
C 755 -1216 1248 -749 1248 -26 
z
" id="CMMI12-3b" transform="scale(0.015625)"/>
      <path d="M 275 -794 
C 230 -981 205 -1031 -58 -1031 
C -135 -1031 -199 -1031 -199 -1152 
C -199 -1165 -192 -1216 -122 -1216 
C -39 -1216 51 -1204 134 -1204 
L 410 -1204 
C 544 -1204 870 -1216 1005 -1216 
C 1043 -1216 1120 -1216 1120 -1101 
C 1120 -1031 1075 -1031 966 -1031 
C 672 -1031 653 -987 653 -937 
C 653 -863 941 217 979 364 
C 1050 185 1222 -64 1555 -64 
C 2278 -64 3059 874 3059 1813 
C 3059 2400 2726 2816 2246 2816 
C 1837 2816 1491 2419 1421 2330 
C 1370 2649 1120 2816 864 2816 
C 678 2816 531 2726 410 2483 
C 294 2253 205 1864 205 1838 
C 205 1813 230 1781 275 1781 
C 326 1781 333 1787 371 1934 
C 467 2311 589 2687 845 2687 
C 992 2687 1043 2585 1043 2394 
C 1043 2241 1024 2177 998 2062 
L 275 -794 
z
M 1382 1992 
C 1427 2170 1606 2356 1709 2445 
C 1779 2509 1990 2687 2234 2687 
C 2515 2687 2643 2407 2643 2075 
C 2643 1768 2464 1047 2304 715 
C 2144 370 1850 64 1555 64 
C 1120 64 1050 613 1050 638 
C 1050 657 1062 708 1069 740 
L 1382 1992 
z
" id="CMMI12-70" transform="scale(0.015625)"/>
     </defs>
     <use transform="scale(0.996264)" xlink:href="#CMR17-53"/>
     <use transform="translate(50.89537 0)scale(0.996264)" xlink:href="#CMR17-54"/>
     <use transform="translate(117.40525 0)scale(0.996264)" xlink:href="#CMR17-46"/>
     <use transform="translate(177.389097 0)scale(0.996264)" xlink:href="#CMR17-54"/>
     <use transform="translate(273.974944 0)scale(0.996264)" xlink:href="#CMMI12-58"/>
     <use transform="translate(362.767506 0)scale(0.996264)" xlink:href="#CMR17-5b"/>
     <use transform="translate(387.638564 0)scale(0.996264)" xlink:href="#CMMI12-6b"/>
     <use transform="translate(441.717765 0)scale(0.996264)" xlink:href="#CMMI12-3b"/>
     <use transform="translate(485.419347 0)scale(0.996264)" xlink:href="#CMMI12-70"/>
     <use transform="translate(534.378861 0)scale(0.996264)" xlink:href="#CMR17-5d"/>
    </g>
   </g>
  </g>
  <g id="axes_4">
   <g id="patch_17">
    <path d="M 361.369064 499.937401 
L 619.932602 499.937401 
L 619.932602 305.715266 
L 361.369064 305.715266 
z
" style="fill:#ffffff;"/>
   </g>
   <g id="matplotlib.axis_7">
    <g id="text_10">
     <!-- temps -->
     <g transform="translate(470.230401 515.006989)scale(0.16 -0.16)">
      <use transform="scale(0.996264)" xlink:href="#CMR17-74"/>
      <use transform="translate(35.280768 0)scale(0.996264)" xlink:href="#CMR17-65"/>
      <use transform="translate(75.766428 0)scale(0.996264)" xlink:href="#CMR17-6d"/>
      <use transform="translate(152.686018 0)scale(0.996264)" xlink:href="#CMR17-70"/>
      <use transform="translate(203.581388 0)scale(0.996264)" xlink:href="#CMR17-73"/>
     </g>
    </g>
   </g>
   <g id="matplotlib.axis_8">
    <g id="text_11">
     <!-- fréquence -->
     <g transform="translate(354.269588 434.909391)rotate(-90)scale(0.16 -0.16)">
      <use transform="scale(0.996264)" xlink:href="#CMR17-66"/>
      <use transform="translate(27.473512 0)scale(0.996264)" xlink:href="#CMR17-72"/>
      <use transform="translate(60.151872 0)scale(0.996264)" xlink:href="#CMR17-13"/>
      <use transform="translate(62.75428 0)scale(0.996264)" xlink:href="#CMR17-65"/>
      <use transform="translate(103.239941 0)scale(0.996264)" xlink:href="#CMR17-71"/>
      <use transform="translate(151.532857 0)scale(0.996264)" xlink:href="#CMR17-75"/>
      <use transform="translate(202.428226 0)scale(0.996264)" xlink:href="#CMR17-65"/>
      <use transform="translate(242.913887 0)scale(0.996264)" xlink:href="#CMR17-6e"/>
      <use transform="translate(293.809257 0)scale(0.996264)" xlink:href="#CMR17-63"/>
      <use transform="translate(334.294917 0)scale(0.996264)" xlink:href="#CMR17-65"/>
     </g>
    </g>
   </g>
   <g id="line2d_29">
    <path clip-path="url(#pd68b9f83bd)" d="M 361.369064 475.659634 
L 619.932602 475.659634 
" style="fill:none;stroke:#000000;stroke-linecap:square;stroke-width:0.8;"/>
   </g>
   <g id="line2d_30">
    <path clip-path="url(#pd68b9f83bd)" d="M 361.369064 451.381867 
L 619.932602 451.381867 
" style="fill:none;stroke:#000000;stroke-linecap:square;stroke-width:0.8;"/>
   </g>
   <g id="line2d_31">
    <path clip-path="url(#pd68b9f83bd)" d="M 361.369064 402.826334 
L 619.932602 402.826334 
" style="fill:none;stroke:#000000;stroke-linecap:square;stroke-width:0.8;"/>
   </g>
   <g id="line2d_32">
    <path clip-path="url(#pd68b9f83bd)" d="M 490.650833 475.659634 
L 490.650833 451.381867 
" style="fill:none;stroke:#000000;stroke-linecap:square;stroke-width:0.8;"/>
   </g>
   <g id="line2d_33">
    <path clip-path="url(#pd68b9f83bd)" d="M 426.009949 451.381867 
L 426.009949 402.826334 
" style="fill:none;stroke:#000000;stroke-linecap:square;stroke-width:0.8;"/>
   </g>
   <g id="line2d_34">
    <path clip-path="url(#pd68b9f83bd)" d="M 490.650833 451.381867 
L 490.650833 402.826334 
" style="fill:none;stroke:#000000;stroke-linecap:square;stroke-width:0.8;"/>
   </g>
   <g id="line2d_35">
    <path clip-path="url(#pd68b9f83bd)" d="M 555.291718 451.381867 
L 555.291718 402.826334 
" style="fill:none;stroke:#000000;stroke-linecap:square;stroke-width:0.8;"/>
   </g>
   <g id="line2d_36">
    <path clip-path="url(#pd68b9f83bd)" d="M 393.689507 402.826334 
L 393.689507 305.715266 
" style="fill:none;stroke:#000000;stroke-linecap:square;stroke-width:0.8;"/>
   </g>
   <g id="line2d_37">
    <path clip-path="url(#pd68b9f83bd)" d="M 426.009949 402.826334 
L 426.009949 305.715266 
" style="fill:none;stroke:#000000;stroke-linecap:square;stroke-width:0.8;"/>
   </g>
   <g id="line2d_38">
    <path clip-path="url(#pd68b9f83bd)" d="M 458.330391 402.826334 
L 458.330391 305.715266 
" style="fill:none;stroke:#000000;stroke-linecap:square;stroke-width:0.8;"/>
   </g>
   <g id="line2d_39">
    <path clip-path="url(#pd68b9f83bd)" d="M 490.650833 402.826334 
L 490.650833 305.715266 
" style="fill:none;stroke:#000000;stroke-linecap:square;stroke-width:0.8;"/>
   </g>
   <g id="line2d_40">
    <path clip-path="url(#pd68b9f83bd)" d="M 522.971275 402.826334 
L 522.971275 305.715266 
" style="fill:none;stroke:#000000;stroke-linecap:square;stroke-width:0.8;"/>
   </g>
   <g id="line2d_41">
    <path clip-path="url(#pd68b9f83bd)" d="M 555.291718 402.826334 
L 555.291718 305.715266 
" style="fill:none;stroke:#000000;stroke-linecap:square;stroke-width:0.8;"/>
   </g>
   <g id="line2d_42">
    <path clip-path="url(#pd68b9f83bd)" d="M 587.61216 402.826334 
L 587.61216 305.715266 
" style="fill:none;stroke:#000000;stroke-linecap:square;stroke-width:0.8;"/>
   </g>
   <g id="patch_18">
    <path d="M 361.369064 499.937401 
L 361.369064 305.715266 
" style="fill:none;stroke:#000000;stroke-linecap:square;stroke-linejoin:miter;stroke-width:0.8;"/>
   </g>
   <g id="patch_19">
    <path d="M 619.932602 499.937401 
L 619.932602 305.715266 
" style="fill:none;stroke:#000000;stroke-linecap:square;stroke-linejoin:miter;stroke-width:0.8;"/>
   </g>
   <g id="patch_20">
    <path d="M 361.369064 499.937401 
L 619.932602 499.937401 
" style="fill:none;stroke:#000000;stroke-linecap:square;stroke-linejoin:miter;stroke-width:0.8;"/>
   </g>
   <g id="patch_21">
    <path d="M 361.369064 305.715266 
L 619.932602 305.715266 
" style="fill:none;stroke:#000000;stroke-linecap:square;stroke-linejoin:miter;stroke-width:0.8;"/>
   </g>
   <g id="text_12">
    <!-- Représentation temps-fréquence -->
    <g transform="translate(381.851623 282.269588)scale(0.16 -0.16)">
     <use transform="scale(0.996264)" xlink:href="#CMR17-52"/>
     <use transform="translate(67.791102 0)scale(0.996264)" xlink:href="#CMR17-65"/>
     <use transform="translate(108.276762 0)scale(0.996264)" xlink:href="#CMR17-70"/>
     <use transform="translate(159.172132 0)scale(0.996264)" xlink:href="#CMR17-72"/>
     <use transform="translate(191.850492 0)scale(0.996264)" xlink:href="#CMR17-13"/>
     <use transform="translate(194.4529 0)scale(0.996264)" xlink:href="#CMR17-65"/>
     <use transform="translate(234.93856 0)scale(0.996264)" xlink:href="#CMR17-73"/>
     <use transform="translate(270.739898 0)scale(0.996264)" xlink:href="#CMR17-65"/>
     <use transform="translate(311.225559 0)scale(0.996264)" xlink:href="#CMR17-6e"/>
     <use transform="translate(359.518474 0)scale(0.996264)" xlink:href="#CMR17-74"/>
     <use transform="translate(394.799242 0)scale(0.996264)" xlink:href="#CMR17-61"/>
     <use transform="translate(440.489719 0)scale(0.996264)" xlink:href="#CMR17-74"/>
     <use transform="translate(475.770487 0)scale(0.996264)" xlink:href="#CMR17-69"/>
     <use transform="translate(500.641546 0)scale(0.996264)" xlink:href="#CMR17-6f"/>
     <use transform="translate(546.332023 0)scale(0.996264)" xlink:href="#CMR17-6e"/>
     <use transform="translate(627.303359 0)scale(0.996264)" xlink:href="#CMR17-74"/>
     <use transform="translate(662.584127 0)scale(0.996264)" xlink:href="#CMR17-65"/>
     <use transform="translate(703.069787 0)scale(0.996264)" xlink:href="#CMR17-6d"/>
     <use transform="translate(779.989377 0)scale(0.996264)" xlink:href="#CMR17-70"/>
     <use transform="translate(830.884747 0)scale(0.996264)" xlink:href="#CMR17-73"/>
     <use transform="translate(866.686084 0)scale(0.996264)" xlink:href="#CMR17-2d"/>
     <use transform="translate(896.762051 0)scale(0.996264)" xlink:href="#CMR17-66"/>
     <use transform="translate(924.235563 0)scale(0.996264)" xlink:href="#CMR17-72"/>
     <use transform="translate(956.913923 0)scale(0.996264)" xlink:href="#CMR17-13"/>
     <use transform="translate(959.516331 0)scale(0.996264)" xlink:href="#CMR17-65"/>
     <use transform="translate(1000.001991 0)scale(0.996264)" xlink:href="#CMR17-71"/>
     <use transform="translate(1048.294907 0)scale(0.996264)" xlink:href="#CMR17-75"/>
     <use transform="translate(1099.190277 0)scale(0.996264)" xlink:href="#CMR17-65"/>
     <use transform="translate(1139.675938 0)scale(0.996264)" xlink:href="#CMR17-6e"/>
     <use transform="translate(1190.571307 0)scale(0.996264)" xlink:href="#CMR17-63"/>
     <use transform="translate(1231.056968 0)scale(0.996264)" xlink:href="#CMR17-65"/>
    </g>
    <!-- (transformée en ondelettes) -->
    <g transform="translate(397.133056 299.715266)scale(0.16 -0.16)">
     <defs>
      <path d="M 1958 -1562 
C 1958 -1556 1958 -1543 1939 -1524 
C 1645 -1223 858 -403 858 1596 
C 858 3595 1632 4408 1946 4729 
C 1946 4735 1958 4748 1958 4767 
C 1958 4787 1939 4800 1914 4800 
C 1843 4800 1299 4325 986 3620 
C 666 2909 576 2218 576 1603 
C 576 1141 621 360 1005 -467 
C 1312 -1133 1837 -1600 1914 -1600 
C 1946 -1600 1958 -1588 1958 -1562 
z
" id="CMR17-28" transform="scale(0.015625)"/>
      <path d="M 1869 4345 
L 1869 4179 
C 2246 4179 2304 4141 2304 3843 
L 2304 2371 
C 2278 2403 2016 2816 1498 2816 
C 845 2816 211 2228 211 1376 
C 211 529 806 -64 1434 -64 
C 1978 -64 2259 361 2291 406 
L 2291 -64 
L 3066 -13 
L 3066 154 
C 2688 154 2630 193 2630 503 
L 2630 4416 
L 1869 4345 
z
M 2291 762 
C 2291 568 2176 393 2029 264 
C 1811 70 1594 38 1472 38 
C 1286 38 621 135 621 1369 
C 621 2636 1363 2713 1530 2713 
C 1824 2713 2061 2545 2208 2313 
C 2291 2177 2291 2157 2291 2041 
L 2291 762 
z
" id="CMR17-64" transform="scale(0.015625)"/>
      <path d="M 1683 1596 
C 1683 2057 1638 2839 1254 3665 
C 947 4332 422 4800 346 4800 
C 326 4800 301 4793 301 4761 
C 301 4748 307 4742 314 4729 
C 621 4408 1402 3595 1402 1603 
C 1402 -396 627 -1210 314 -1530 
C 307 -1543 301 -1549 301 -1562 
C 301 -1594 326 -1600 346 -1600 
C 416 -1600 960 -1127 1274 -422 
C 1594 289 1683 981 1683 1596 
z
" id="CMR17-29" transform="scale(0.015625)"/>
     </defs>
     <use transform="scale(0.996264)" xlink:href="#CMR17-28"/>
     <use transform="translate(35.280768 0)scale(0.996264)" xlink:href="#CMR17-74"/>
     <use transform="translate(70.561536 0)scale(0.996264)" xlink:href="#CMR17-72"/>
     <use transform="translate(105.842303 0)scale(0.996264)" xlink:href="#CMR17-61"/>
     <use transform="translate(151.532781 0)scale(0.996264)" xlink:href="#CMR17-6e"/>
     <use transform="translate(202.42815 0)scale(0.996264)" xlink:href="#CMR17-73"/>
     <use transform="translate(238.229488 0)scale(0.996264)" xlink:href="#CMR17-66"/>
     <use transform="translate(265.703 0)scale(0.996264)" xlink:href="#CMR17-6f"/>
     <use transform="translate(311.393477 0)scale(0.996264)" xlink:href="#CMR17-72"/>
     <use transform="translate(346.674245 0)scale(0.996264)" xlink:href="#CMR17-6d"/>
     <use transform="translate(420.991427 0)scale(0.996264)" xlink:href="#CMR17-13"/>
     <use transform="translate(423.593835 0)scale(0.996264)" xlink:href="#CMR17-65"/>
     <use transform="translate(464.079496 0)scale(0.996264)" xlink:href="#CMR17-65"/>
     <use transform="translate(534.641122 0)scale(0.996264)" xlink:href="#CMR17-65"/>
     <use transform="translate(575.126783 0)scale(0.996264)" xlink:href="#CMR17-6e"/>
     <use transform="translate(656.098119 0)scale(0.996264)" xlink:href="#CMR17-6f"/>
     <use transform="translate(701.788596 0)scale(0.996264)" xlink:href="#CMR17-6e"/>
     <use transform="translate(752.683966 0)scale(0.996264)" xlink:href="#CMR17-64"/>
     <use transform="translate(803.579336 0)scale(0.996264)" xlink:href="#CMR17-65"/>
     <use transform="translate(844.064996 0)scale(0.996264)" xlink:href="#CMR17-6c"/>
     <use transform="translate(868.936055 0)scale(0.996264)" xlink:href="#CMR17-65"/>
     <use transform="translate(909.421715 0)scale(0.996264)" xlink:href="#CMR17-74"/>
     <use transform="translate(944.702483 0)scale(0.996264)" xlink:href="#CMR17-74"/>
     <use transform="translate(979.983251 0)scale(0.996264)" xlink:href="#CMR17-65"/>
     <use transform="translate(1020.468911 0)scale(0.996264)" xlink:href="#CMR17-73"/>
     <use transform="translate(1056.270249 0)scale(0.996264)" xlink:href="#CMR17-29"/>
    </g>
   </g>
  </g>
 </g>
 <defs>
  <clipPath id="pe427084a99">
   <rect height="194.222135" width="258.563537" x="25.369064" y="41.715266"/>
  </clipPath>
  <clipPath id="p53bd898bb1">
   <rect height="194.222135" width="258.563537" x="361.369064" y="41.715266"/>
  </clipPath>
  <clipPath id="pde50ec87b3">
   <rect height="194.222135" width="258.563537" x="25.369064" y="305.715266"/>
  </clipPath>
  <clipPath id="pd68b9f83bd">
   <rect height="194.222135" width="258.563537" x="361.369064" y="305.715266"/>
  </clipPath>
 </defs>
</svg>
