<?xml version="1.0" encoding="utf-8" ?>
<svg baseProfile="full" height="190px" version="1.1" width="540px" xmlns="http://www.w3.org/2000/svg" xmlns:ev="http://www.w3.org/2001/xml-events" xmlns:xlink="http://www.w3.org/1999/xlink"><defs><linearGradient id="gradient" x1="0" x2="1" y1="0" y2="0"><stop offset="0%" stop-color="rgb(0, 131, 176)" /><stop offset="100%" stop-color="rgb(0, 180, 219)" /></linearGradient></defs><rect fill="url(#gradient)" height="190" width="540" x="0" y="0" /><path d="M 30.0 130.0L 36.07594936708861 132.55380972013435L 42.151898734177216 134.98068829675995L 48.22784810126582 137.02699114613958L 54.30379746835443 138.4634861342273L 60.37974683544304 139.10924286153494L 66.45569620253164 138.8520614271072L 72.53164556962025 137.66332779623968L 78.60759493670886 135.60561391397619L 84.68354430379748 132.83194486006724L 90.75949367088609 129.5763828593857L 96.83544303797468 126.13636619502542L 102.9113924050633 122.84801989023839L 108.98734177215191 120.0563530374914L 115.0632911392405 118.0828086833673L 121.13924050632912 117.19298142738067L 127.21518987341773 117.56742720244878L 133.29113924050634 119.27834143163389L 139.36708860759495 122.27448087552986L 145.44303797468353 126.37607869814825L 151.51898734177217 131.2807000736397L 157.59493670886076 136.58007245844553L 163.67088607594937 141.78697738666355L 169.74683544303798 146.3703911522011L 175.8227848101266 149.79628963831064L 181.8987341772152 151.57095816414548L 187.97468354430382 151.28332518741604L 194.05063291139243 148.64280291312338L 200.126582278481 143.5093780815506L 206.20253164556962 135.9132368354734L 212.27848101265823 126.06198855287512L 218.35443037974684 114.3345134999893L 224.43037974683546 101.26152041071296L 230.50632911392407 87.49397510966133L 236.58227848101268 73.76156015132662L 242.6582278481013 60.82416355325563L 248.7341772151899 49.420000111904784L 254.81012658227849 40.21428850080102L 260.88607594936707 33.75241199408262L 266.9620253164557 30.421177186424146L 273.03797468354435 30.421177186424146L 279.11392405063293 33.75241199408262L 285.1898734177215 40.21428850080099L 291.26582278481015 49.420000111904784L 297.34177215189874 60.82416355325557L 303.4177215189874 73.76156015132668L 309.49367088607596 87.49397510966133L 315.5696202531646 101.2615204107129L 321.6455696202532 114.3345134999893L 327.72151898734177 126.06198855287506L 333.7974683544304 135.91323683547344L 339.873417721519 143.5093780815506L 345.94936708860763 148.64280291312338L 352.0253164556962 151.28332518741604L 358.10126582278485 151.57095816414548L 364.17721518987344 149.79628963831064L 370.253164556962 146.3703911522011L 376.32911392405066 141.78697738666355L 382.40506329113924 136.58007245844553L 388.4810126582279 131.2807000736397L 394.55696202531647 126.37607869814826L 400.6329113924051 122.27448087552986L 406.7088607594937 119.27834143163389L 412.78481012658233 117.56742720244878L 418.8607594936709 117.19298142738067L 424.9367088607595 118.0828086833673L 431.01265822784814 120.0563530374914L 437.0886075949367 122.84801989023839L 443.16455696202536 126.13636619502542L 449.24050632911394 129.5763828593857L 455.3164556962026 132.83194486006724L 461.39240506329116 135.60561391397619L 467.4683544303798 137.66332779623968L 473.5443037974684 138.8520614271072L 479.62025316455697 139.10924286153494L 485.6962025316456 138.4634861342273L 491.7721518987342 137.02699114613958L 497.84810126582283 134.98068829675995L 503.9240506329114 132.55380972013435L 510.0 130.0" fill="none" stroke="white" stroke-width="6" /></svg>