<?xml version="1.0" encoding="utf-8" ?>
<svg baseProfile="full" height="50px" version="1.1" width="50px" xmlns="http://www.w3.org/2000/svg" xmlns:ev="http://www.w3.org/2001/xml-events" xmlns:xlink="http://www.w3.org/1999/xlink"><defs><mask id="themask"><circle cx="25.0" cy="25.0" fill="white" r="24.0" /></mask></defs><rect fill="white" height="50" width="50" x="0" y="0" /><circle cx="25.0" cy="25.0" fill="none" r="24.0" stroke="black" stroke-width="1.5" /><path d="M 0.0 30.0L 0.7246376811594203 29.567549475196248L 1.4492753623188406 29.199307125101647L 2.1739130434782608 28.976000096595147L 2.898550724637681 28.95352489742048L 3.6231884057971016 29.14996717690352L 4.3478260869565215 29.539461295581717L 5.072463768115942 30.054526610946017L 5.797101449275362 30.596936051859714L 6.521739130434782 31.055495409560113L 7.246376811594203 31.327659094140188L 7.971014492753623 31.340971507521715L 8.695652173913043 31.070108637998597L 9.420289855072463 30.545879501039042L 10.144927536231885 29.85386069770646L 10.869565217391305 29.122167626776115L 11.594202898550725 28.499893960528304L 12.318840579710145 28.129606849236986L 13.043478260869565 28.118614844147253L 13.768115942028986 28.51425701623344L 14.492753623188406 29.288059312530052L 15.217391304347826 30.332297794414885L 15.942028985507246 31.470494245550903L 16.666666666666668 32.48098002939806L 17.391304347826086 33.130311490505896L 18.115942028985508 33.211425121978664L 18.840579710144926 32.58033611634572L 19.565217391304348 31.185129917372503L 20.28985507246377 29.082017416888593L 21.014492753623188 26.4351768977397L 21.73913043478261 23.499679215279606L 22.463768115942027 20.5895609565291L 23.18840579710145 18.035604543679824L 23.91304347826087 16.13917431060321L 24.63768115942029 15.1292278564162L 25.36231884057971 15.129227856416204L 26.08695652173913 16.13917431060321L 26.81159420289855 18.03560454367983L 27.536231884057973 20.5895609565291L 28.26086956521739 23.499679215279595L 28.985507246376812 26.4351768977397L 29.71014492753623 29.082017416888593L 30.434782608695652 31.185129917372507L 31.159420289855074 32.58033611634572L 31.884057971014492 33.211425121978664L 32.608695652173914 33.130311490505896L 33.333333333333336 32.48098002939807L 34.05797101449275 31.470494245550896L 34.78260869565217 30.332297794414885L 35.507246376811594 29.28805931253005L 36.231884057971016 28.51425701623344L 36.95652173913044 28.118614844147253L 37.68115942028985 28.129606849236986L 38.405797101449274 28.499893960528304L 39.130434782608695 29.122167626776115L 39.85507246376812 29.85386069770646L 40.57971014492754 30.545879501039046L 41.30434782608695 31.070108637998597L 42.028985507246375 31.340971507521715L 42.7536231884058 31.327659094140188L 43.47826086956522 31.055495409560113L 44.20289855072464 30.59693605185971L 44.927536231884055 30.054526610946017L 45.65217391304348 29.539461295581713L 46.3768115942029 29.14996717690352L 47.10144927536232 28.95352489742048L 47.82608695652174 28.976000096595147L 48.55072463768116 29.199307125101647L 49.27536231884058 29.567549475196248L 50.0 30.0" fill="none" mask="url(#themask)" stroke="black" stroke-width="2" /></svg>